%TF.GenerationSoftware,KiCad,Pcbnew,10.0.0*%
%TF.CreationDate,2026-05-01T20:27:10+12:00*%
%TF.ProjectId,pico-74x-tester,7069636f-2d37-4347-982d-746573746572,rev?*%
%TF.SameCoordinates,Original*%
%TF.FileFunction,Copper,L1,Top*%
%TF.FilePolarity,Positive*%
%FSLAX46Y46*%
G04 Gerber Fmt 4.6, Leading zero omitted, Abs format (unit mm)*
G04 Created by KiCad (PCBNEW 10.0.0) date 2026-05-01 20:27:10*
%MOMM*%
%LPD*%
G01*
G04 APERTURE LIST*
G04 Aperture macros list*
%AMRoundRect*
0 Rectangle with rounded corners*
0 $1 Rounding radius*
0 $2 $3 $4 $5 $6 $7 $8 $9 X,Y pos of 4 corners*
0 Add a 4 corners polygon primitive as box body*
4,1,4,$2,$3,$4,$5,$6,$7,$8,$9,$2,$3,0*
0 Add four circle primitives for the rounded corners*
1,1,$1+$1,$2,$3*
1,1,$1+$1,$4,$5*
1,1,$1+$1,$6,$7*
1,1,$1+$1,$8,$9*
0 Add four rect primitives between the rounded corners*
20,1,$1+$1,$2,$3,$4,$5,0*
20,1,$1+$1,$4,$5,$6,$7,0*
20,1,$1+$1,$6,$7,$8,$9,0*
20,1,$1+$1,$8,$9,$2,$3,0*%
G04 Aperture macros list end*
%TA.AperFunction,ComponentPad*%
%ADD10C,1.600000*%
%TD*%
%TA.AperFunction,SMDPad,CuDef*%
%ADD11RoundRect,0.150000X0.587500X0.150000X-0.587500X0.150000X-0.587500X-0.150000X0.587500X-0.150000X0*%
%TD*%
%TA.AperFunction,ComponentPad*%
%ADD12C,2.000000*%
%TD*%
%TA.AperFunction,ComponentPad*%
%ADD13C,2.400000*%
%TD*%
%TA.AperFunction,ComponentPad*%
%ADD14R,1.700000X1.700000*%
%TD*%
%TA.AperFunction,ComponentPad*%
%ADD15C,1.700000*%
%TD*%
%TA.AperFunction,SMDPad,CuDef*%
%ADD16RoundRect,0.150000X-0.587500X-0.150000X0.587500X-0.150000X0.587500X0.150000X-0.587500X0.150000X0*%
%TD*%
%TA.AperFunction,SMDPad,CuDef*%
%ADD17RoundRect,0.150000X-0.150000X0.587500X-0.150000X-0.587500X0.150000X-0.587500X0.150000X0.587500X0*%
%TD*%
%TA.AperFunction,ComponentPad*%
%ADD18R,1.050000X1.500000*%
%TD*%
%TA.AperFunction,ComponentPad*%
%ADD19O,1.050000X1.500000*%
%TD*%
%TA.AperFunction,ComponentPad*%
%ADD20R,1.508000X1.508000*%
%TD*%
%TA.AperFunction,ComponentPad*%
%ADD21C,1.508000*%
%TD*%
%TA.AperFunction,ComponentPad*%
%ADD22R,2.000000X2.000000*%
%TD*%
%TA.AperFunction,ComponentPad*%
%ADD23RoundRect,0.250000X-0.550000X-0.550000X0.550000X-0.550000X0.550000X0.550000X-0.550000X0.550000X0*%
%TD*%
%TA.AperFunction,ComponentPad*%
%ADD24RoundRect,0.450000X-0.450000X0.450000X-0.450000X-0.450000X0.450000X-0.450000X0.450000X0.450000X0*%
%TD*%
%TA.AperFunction,ComponentPad*%
%ADD25C,1.800000*%
%TD*%
%TA.AperFunction,ComponentPad*%
%ADD26RoundRect,0.250000X-0.550000X0.550000X-0.550000X-0.550000X0.550000X-0.550000X0.550000X0.550000X0*%
%TD*%
%TA.AperFunction,ComponentPad*%
%ADD27RoundRect,0.250000X0.550000X-0.550000X0.550000X0.550000X-0.550000X0.550000X-0.550000X-0.550000X0*%
%TD*%
%TA.AperFunction,ViaPad*%
%ADD28C,0.600000*%
%TD*%
%TA.AperFunction,Conductor*%
%ADD29C,0.200000*%
%TD*%
%TA.AperFunction,Conductor*%
%ADD30C,1.000000*%
%TD*%
G04 APERTURE END LIST*
D10*
%TO.P,C5,1*%
%TO.N,+3.3V*%
X171850000Y-69860000D03*
%TO.P,C5,2*%
%TO.N,GND*%
X171850000Y-74860000D03*
%TD*%
%TO.P,C4,1*%
%TO.N,+3.3V*%
X186290000Y-64420000D03*
%TO.P,C4,2*%
%TO.N,GND*%
X186290000Y-69420000D03*
%TD*%
D11*
%TO.P,D9,1,A_1*%
%TO.N,/GP_13*%
X95750000Y-95500000D03*
%TO.P,D9,2,K_2*%
%TO.N,+3.3V*%
X95750000Y-93600000D03*
%TO.P,D9,3,COM_3*%
%TO.N,GND*%
X93875000Y-94550000D03*
%TD*%
D12*
%TO.P,SW4,1,1_1*%
%TO.N,/Test {slash} enter Button*%
X144550000Y-129750000D03*
X151050000Y-129750000D03*
%TO.P,SW4,2,2_2*%
%TO.N,GND*%
X144550000Y-134250000D03*
X151050000Y-134250000D03*
%TD*%
D13*
%TO.P,R22,1*%
%TO.N,/RGB green*%
X98750000Y-105630000D03*
%TO.P,R22,2*%
%TO.N,Net-(U1-GPB1)*%
X98750000Y-120870000D03*
%TD*%
D14*
%TO.P,SW1,1,1_1*%
%TO.N,/OFF*%
X160950000Y-110150000D03*
D15*
%TO.P,SW1,2,2_2*%
%TO.N,/ZIF_14*%
X163490000Y-110150000D03*
%TO.P,SW1,3,3_3*%
%TO.N,/ZIF_16*%
X160950000Y-112690000D03*
%TO.P,SW1,4,4_4*%
%TO.N,/ZIF_20*%
X163490000Y-112690000D03*
%TO.P,SW1,5,5_5*%
%TO.N,/OFF*%
X160950000Y-115230000D03*
%TO.P,SW1,6,6_6*%
%TO.N,/ZIF_7*%
X163490000Y-115230000D03*
%TO.P,SW1,7,7_7*%
%TO.N,/ZIF_8*%
X160950000Y-117770000D03*
%TO.P,SW1,8,8_8*%
%TO.N,/ZIF_10*%
X163490000Y-117770000D03*
%TO.P,SW1,9,9_9*%
%TO.N,/OFF*%
X160950000Y-120310000D03*
%TO.P,SW1,10,10_10*%
%TO.N,/Package 14 sence*%
X163490000Y-120310000D03*
%TO.P,SW1,11,11_11*%
%TO.N,/<NO NET>*%
X160950000Y-122850000D03*
%TO.P,SW1,12,12_12*%
%TO.N,/Package 20 sence*%
X163490000Y-122850000D03*
%TO.P,SW1,13,13_13*%
%TO.N,/V_OUT*%
X160950000Y-125390000D03*
%TO.P,SW1,14,14_14*%
%TO.N,GND*%
X163490000Y-125390000D03*
%TO.P,SW1,15,15_15*%
X160950000Y-127930000D03*
%TO.P,SW1,16*%
%TO.N,N/C*%
X163490000Y-127930000D03*
%TD*%
D13*
%TO.P,R14,1*%
%TO.N,/ZIF_7*%
X99210000Y-73000000D03*
%TO.P,R14,2*%
%TO.N,/GP_8*%
X114450000Y-73000000D03*
%TD*%
%TO.P,R27,1*%
%TO.N,Net-(Q1-B)*%
X170290000Y-133250000D03*
%TO.P,R27,2*%
%TO.N,/BUZZER*%
X155050000Y-133250000D03*
%TD*%
D16*
%TO.P,D4,1,A_1*%
%TO.N,/GP_18*%
X135700000Y-99100000D03*
%TO.P,D4,2,K_2*%
%TO.N,+3.3V*%
X135700000Y-101000000D03*
%TO.P,D4,3,COM_3*%
%TO.N,GND*%
X137575000Y-100050000D03*
%TD*%
D11*
%TO.P,D15,1,A_1*%
%TO.N,/GP_7*%
X95787500Y-69650000D03*
%TO.P,D15,2,K_2*%
%TO.N,+3.3V*%
X95787500Y-67750000D03*
%TO.P,D15,3,COM_3*%
%TO.N,GND*%
X93912500Y-68700000D03*
%TD*%
D17*
%TO.P,D1,1,A_1*%
%TO.N,/GP_21*%
X149750000Y-97937500D03*
%TO.P,D1,2,K_2*%
%TO.N,+3.3V*%
X147850000Y-97937500D03*
%TO.P,D1,3,COM_3*%
%TO.N,GND*%
X148800000Y-99812500D03*
%TD*%
D13*
%TO.P,R10,1*%
%TO.N,/ZIF_10*%
X99280000Y-86000000D03*
%TO.P,R10,2*%
%TO.N,/GP_11*%
X114520000Y-86000000D03*
%TD*%
%TO.P,R12,1*%
%TO.N,/ZIF_8*%
X99280000Y-77350000D03*
%TO.P,R12,2*%
%TO.N,/GP_9*%
X114520000Y-77350000D03*
%TD*%
D11*
%TO.P,D17,1,A_1*%
%TO.N,/GP_5*%
X95775000Y-61050000D03*
%TO.P,D17,2,K_2*%
%TO.N,+3.3V*%
X95775000Y-59150000D03*
%TO.P,D17,3,COM_3*%
%TO.N,GND*%
X93900000Y-60100000D03*
%TD*%
D13*
%TO.P,R8,1*%
%TO.N,/ZIF_13*%
X99360000Y-98850000D03*
%TO.P,R8,2*%
%TO.N,/GP_14*%
X114600000Y-98850000D03*
%TD*%
D16*
%TO.P,D6,1,A_1*%
%TO.N,/GP_16*%
X135712500Y-106100000D03*
%TO.P,D6,2,K_2*%
%TO.N,+3.3V*%
X135712500Y-108000000D03*
%TO.P,D6,3,COM_3*%
%TO.N,GND*%
X137587500Y-107050000D03*
%TD*%
D11*
%TO.P,D14,1,A_1*%
%TO.N,/GP_8*%
X95750000Y-73950000D03*
%TO.P,D14,2,K_2*%
%TO.N,+3.3V*%
X95750000Y-72050000D03*
%TO.P,D14,3,COM_3*%
%TO.N,GND*%
X93875000Y-73000000D03*
%TD*%
D17*
%TO.P,D3,1,A_1*%
%TO.N,/GP_19*%
X142550000Y-97900000D03*
%TO.P,D3,2,K_2*%
%TO.N,+3.3V*%
X140650000Y-97900000D03*
%TO.P,D3,3,COM_3*%
%TO.N,GND*%
X141600000Y-99775000D03*
%TD*%
D18*
%TO.P,Q1,1,E_1*%
%TO.N,GND*%
X167880000Y-128610000D03*
D19*
%TO.P,Q1,2,B_2*%
%TO.N,Net-(Q1-B)*%
X169150000Y-128610000D03*
%TO.P,Q1,3,C_3*%
%TO.N,Net-(BZ1--)*%
X170420000Y-128610000D03*
%TD*%
D13*
%TO.P,R3,1*%
%TO.N,/ZIF_18*%
X152870000Y-94500000D03*
%TO.P,R3,2*%
%TO.N,/GP_19*%
X137630000Y-94500000D03*
%TD*%
D17*
%TO.P,D2,1,A_1*%
%TO.N,/GP_20*%
X146100000Y-97900000D03*
%TO.P,D2,2,K_2*%
%TO.N,+3.3V*%
X144200000Y-97900000D03*
%TO.P,D2,3,COM_3*%
%TO.N,GND*%
X145150000Y-99775000D03*
%TD*%
D20*
%TO.P,J2,1,GND_1*%
%TO.N,GND*%
X180760000Y-99100000D03*
D21*
%TO.P,J2,2,VCC_2*%
%TO.N,+3.3V*%
X178220000Y-99100000D03*
%TO.P,J2,3,SCL_3*%
%TO.N,/I2C SCL*%
X175680000Y-99100000D03*
%TO.P,J2,4,SDA_4*%
%TO.N,/I2C SDA*%
X173140000Y-99100000D03*
%TD*%
D13*
%TO.P,R2,1*%
%TO.N,/ZIF_19*%
X152890000Y-90250000D03*
%TO.P,R2,2*%
%TO.N,/GP_20*%
X137650000Y-90250000D03*
%TD*%
D11*
%TO.P,D20,1,A_1*%
%TO.N,/GP_2*%
X95800000Y-48200000D03*
%TO.P,D20,2,K_2*%
%TO.N,+3.3V*%
X95800000Y-46300000D03*
%TO.P,D20,3,COM_3*%
%TO.N,GND*%
X93925000Y-47250000D03*
%TD*%
D13*
%TO.P,R1,1*%
%TO.N,/ZIF_20*%
X152890000Y-86000000D03*
%TO.P,R1,2*%
%TO.N,/GP_21*%
X137650000Y-86000000D03*
%TD*%
D11*
%TO.P,D8,1,A_1*%
%TO.N,/GP_14*%
X95787500Y-99850000D03*
%TO.P,D8,2,K_2*%
%TO.N,+3.3V*%
X95787500Y-97950000D03*
%TO.P,D8,3,COM_3*%
%TO.N,GND*%
X93912500Y-98900000D03*
%TD*%
D10*
%TO.P,C3,1*%
%TO.N,+3.3V*%
X116550000Y-138800000D03*
%TO.P,C3,2*%
%TO.N,GND*%
X121550000Y-138800000D03*
%TD*%
D16*
%TO.P,D7,1,A_1*%
%TO.N,/GP_15*%
X135712500Y-102600000D03*
%TO.P,D7,2,K_2*%
%TO.N,+3.3V*%
X135712500Y-104500000D03*
%TO.P,D7,3,COM_3*%
%TO.N,GND*%
X137587500Y-103550000D03*
%TD*%
D14*
%TO.P,SW6,1,A_1*%
%TO.N,/Voltage 3.3v sence*%
X150860000Y-122060000D03*
D15*
%TO.P,SW6,2,B_2*%
%TO.N,GND*%
X153400000Y-122060000D03*
%TO.P,SW6,3,C_3*%
%TO.N,/Volatge 5v sence*%
X155940000Y-122060000D03*
%TD*%
D11*
%TO.P,D18,1,A_1*%
%TO.N,/GP_4*%
X95750000Y-56800000D03*
%TO.P,D18,2,K_2*%
%TO.N,+3.3V*%
X95750000Y-54900000D03*
%TO.P,D18,3,COM_3*%
%TO.N,GND*%
X93875000Y-55850000D03*
%TD*%
D13*
%TO.P,R25,1*%
%TO.N,/I2C SCL*%
X152890000Y-77650000D03*
%TO.P,R25,2*%
%TO.N,Net-(A1-GPIO21)*%
X137650000Y-77650000D03*
%TD*%
%TO.P,R7,1*%
%TO.N,/ZIF_14*%
X128000000Y-115120000D03*
%TO.P,R7,2*%
%TO.N,/GP_15*%
X128000000Y-99880000D03*
%TD*%
D22*
%TO.P,BZ1,1,+_1*%
%TO.N,+3.3V*%
X180950000Y-128100000D03*
D12*
%TO.P,BZ1,2,-_2*%
%TO.N,Net-(BZ1--)*%
X180950000Y-135700000D03*
%TD*%
D13*
%TO.P,R23,1*%
%TO.N,/RGB blue*%
X93600000Y-105630000D03*
%TO.P,R23,2*%
%TO.N,Net-(U1-GPB2)*%
X93600000Y-120870000D03*
%TD*%
D23*
%TO.P,A1,1,GPIO0_1*%
%TO.N,/GP_2*%
X118510000Y-46810000D03*
D10*
%TO.P,A1,2,GPIO1_2*%
%TO.N,/GP_3*%
X118510000Y-49350000D03*
%TO.P,A1,3,GND_3*%
%TO.N,GND*%
X118510000Y-51890000D03*
%TO.P,A1,4,GPIO2_4*%
%TO.N,/GP_4*%
X118510000Y-54430000D03*
%TO.P,A1,5,GPIO3_5*%
%TO.N,/GP_5*%
X118510000Y-56970000D03*
%TO.P,A1,6,GPIO4_6*%
%TO.N,/GP_6*%
X118510000Y-59510000D03*
%TO.P,A1,7,GPIO5_7*%
%TO.N,/GP_7*%
X118510000Y-62050000D03*
%TO.P,A1,8,GND_8*%
%TO.N,GND*%
X118510000Y-64590000D03*
%TO.P,A1,9,GPIO6_9*%
%TO.N,/GP_8*%
X118510000Y-67130000D03*
%TO.P,A1,10,GPIO7_10*%
%TO.N,/GP_9*%
X118510000Y-69670000D03*
%TO.P,A1,11,GPIO8_11*%
%TO.N,/GP_10*%
X118510000Y-72210000D03*
%TO.P,A1,12,GPIO9_12*%
%TO.N,/GP_11*%
X118510000Y-74750000D03*
%TO.P,A1,13,GND_13*%
%TO.N,GND*%
X118510000Y-77290000D03*
%TO.P,A1,14,GPIO10_14*%
%TO.N,/GP_12*%
X118510000Y-79830000D03*
%TO.P,A1,15,GPIO11_15*%
%TO.N,/GP_13*%
X118510000Y-82370000D03*
%TO.P,A1,16,GPIO12_16*%
%TO.N,/GP_14*%
X118510000Y-84910000D03*
%TO.P,A1,17,GPIO13_17*%
%TO.N,/GP_15*%
X118510000Y-87450000D03*
%TO.P,A1,18,GND_18*%
%TO.N,GND*%
X118510000Y-89990000D03*
%TO.P,A1,19,GPIO14_19*%
%TO.N,/GP_16*%
X118510000Y-92530000D03*
%TO.P,A1,20,GPIO15_20*%
%TO.N,/GP_17*%
X118510000Y-95070000D03*
%TO.P,A1,21,GPIO16_21*%
%TO.N,/GP_18*%
X133750000Y-95070000D03*
%TO.P,A1,22,GPIO17_22*%
%TO.N,/GP_19*%
X133750000Y-92530000D03*
%TO.P,A1,23,GND_23*%
%TO.N,GND*%
X133750000Y-89990000D03*
%TO.P,A1,24,GPIO18_24*%
%TO.N,/GP_20*%
X133750000Y-87450000D03*
%TO.P,A1,25,GPIO19_25*%
%TO.N,/GP_21*%
X133750000Y-84910000D03*
%TO.P,A1,26,GPIO20_26*%
%TO.N,Net-(A1-GPIO20)*%
X133750000Y-82370000D03*
%TO.P,A1,27,GPIO21_27*%
%TO.N,Net-(A1-GPIO21)*%
X133750000Y-79830000D03*
%TO.P,A1,28,GND_28*%
%TO.N,GND*%
X133750000Y-77290000D03*
%TO.P,A1,29,GPIO22_29*%
%TO.N,unconnected-(A1-GPIO22-Pad29)*%
X133750000Y-74750000D03*
%TO.P,A1,30,RUN_30*%
%TO.N,unconnected-(A1-RUN-Pad30)*%
X133750000Y-72210000D03*
%TO.P,A1,31,GPIO26_ADC0_31*%
%TO.N,unconnected-(A1-GPIO26_ADC0-Pad31)*%
X133750000Y-69670000D03*
%TO.P,A1,32,GPIO27_ADC1_32*%
%TO.N,unconnected-(A1-GPIO27_ADC1-Pad32)*%
X133750000Y-67130000D03*
%TO.P,A1,33,AGND_33*%
%TO.N,GND*%
X133750000Y-64590000D03*
%TO.P,A1,34,GPIO28_ADC2_34*%
%TO.N,unconnected-(A1-GPIO28_ADC2-Pad34)*%
X133750000Y-62050000D03*
%TO.P,A1,35,ADC_VREF_35*%
%TO.N,unconnected-(A1-ADC_VREF-Pad35)*%
X133750000Y-59510000D03*
%TO.P,A1,36,3V3_36*%
%TO.N,+3.3V*%
X133750000Y-56970000D03*
%TO.P,A1,37,3V3_EN_37*%
%TO.N,unconnected-(A1-3V3_EN-Pad37)*%
X133750000Y-54430000D03*
%TO.P,A1,38,GND_38*%
%TO.N,GND*%
X133750000Y-51890000D03*
%TO.P,A1,39,VSYS_39*%
%TO.N,unconnected-(A1-VSYS-Pad39)*%
X133750000Y-49350000D03*
%TO.P,A1,40,VBUS_40*%
%TO.N,+5V*%
X133750000Y-46810000D03*
%TD*%
D24*
%TO.P,D21,1,RA_1*%
%TO.N,/RGB red*%
X110400000Y-105250000D03*
D25*
%TO.P,D21,2,K_2*%
%TO.N,GND*%
X108876000Y-107028000D03*
%TO.P,D21,3,GA_3*%
%TO.N,/RGB green*%
X110400000Y-108552000D03*
%TO.P,D21,4,BA_4*%
%TO.N,/RGB blue*%
X108876000Y-110076000D03*
%TD*%
D13*
%TO.P,R4,1*%
%TO.N,/ZIF_17*%
X132200000Y-115140000D03*
%TO.P,R4,2*%
%TO.N,/GP_18*%
X132200000Y-99900000D03*
%TD*%
D11*
%TO.P,D11,1,A_1*%
%TO.N,/GP_10*%
X95750000Y-82700000D03*
%TO.P,D11,2,K_2*%
%TO.N,+3.3V*%
X95750000Y-80800000D03*
%TO.P,D11,3,COM_3*%
%TO.N,GND*%
X93875000Y-81750000D03*
%TD*%
D13*
%TO.P,R5,1*%
%TO.N,/ZIF_16*%
X119600000Y-115140000D03*
%TO.P,R5,2*%
%TO.N,/GP_17*%
X119600000Y-99900000D03*
%TD*%
D26*
%TO.P,J1,1,Pin_1_1*%
%TO.N,/ZIF_1*%
X181230000Y-59290000D03*
D10*
%TO.P,J1,2,Pin_2_2*%
%TO.N,/ZIF_2*%
X178690000Y-59290000D03*
%TO.P,J1,3,Pin_3_3*%
%TO.N,/ZIF_3*%
X176150000Y-59290000D03*
%TO.P,J1,4,Pin_4_4*%
%TO.N,/ZIF_4*%
X173610000Y-59290000D03*
%TO.P,J1,5,Pin_5_5*%
%TO.N,/ZIF_5*%
X171070000Y-59290000D03*
%TO.P,J1,6,Pin_6_6*%
%TO.N,/ZIF_6*%
X168530000Y-59290000D03*
%TO.P,J1,7,Pin_7_7*%
%TO.N,/ZIF_7*%
X165990000Y-59290000D03*
%TO.P,J1,8,Pin_8_8*%
%TO.N,/ZIF_8*%
X163450000Y-59290000D03*
%TO.P,J1,9,Pin_9_9*%
%TO.N,/ZIF_9*%
X160910000Y-59290000D03*
%TO.P,J1,10,Pin_10_10*%
%TO.N,/ZIF_10*%
X158370000Y-59290000D03*
%TO.P,J1,11,Pin_11_11*%
%TO.N,/ZIF_11*%
X158370000Y-66910000D03*
%TO.P,J1,12,Pin_12_12*%
%TO.N,/ZIF_12*%
X160910000Y-66910000D03*
%TO.P,J1,13,Pin_13_13*%
%TO.N,/ZIF_13*%
X163450000Y-66910000D03*
%TO.P,J1,14,Pin_14_14*%
%TO.N,/ZIF_14*%
X165990000Y-66910000D03*
%TO.P,J1,15,Pin_15_15*%
%TO.N,/ZIF_15*%
X168530000Y-66910000D03*
%TO.P,J1,16,Pin_16_16*%
%TO.N,/ZIF_16*%
X171070000Y-66910000D03*
%TO.P,J1,17,Pin_17_17*%
%TO.N,/ZIF_17*%
X173610000Y-66910000D03*
%TO.P,J1,18,Pin_18_18*%
%TO.N,/ZIF_18*%
X176150000Y-66910000D03*
%TO.P,J1,19,Pin_19_19*%
%TO.N,/ZIF_19*%
X178690000Y-66910000D03*
%TO.P,J1,20,Pin_20_20*%
%TO.N,/ZIF_20*%
X181230000Y-66910000D03*
%TD*%
D11*
%TO.P,D19,1,A_1*%
%TO.N,/GP_3*%
X95800000Y-52550000D03*
%TO.P,D19,2,K_2*%
%TO.N,+3.3V*%
X95800000Y-50650000D03*
%TO.P,D19,3,COM_3*%
%TO.N,GND*%
X93925000Y-51600000D03*
%TD*%
D13*
%TO.P,R6,1*%
%TO.N,/ZIF_15*%
X123800000Y-115120000D03*
%TO.P,R6,2*%
%TO.N,/GP_16*%
X123800000Y-99880000D03*
%TD*%
%TO.P,R15,1*%
%TO.N,/ZIF_6*%
X99210000Y-68700000D03*
%TO.P,R15,2*%
%TO.N,/GP_7*%
X114450000Y-68700000D03*
%TD*%
%TO.P,R19,1*%
%TO.N,/ZIF_2*%
X99160000Y-51450000D03*
%TO.P,R19,2*%
%TO.N,/GP_3*%
X114400000Y-51450000D03*
%TD*%
D11*
%TO.P,D13,1,A_1*%
%TO.N,/GP_12*%
X95737500Y-91250000D03*
%TO.P,D13,2,K_2*%
%TO.N,+3.3V*%
X95737500Y-89350000D03*
%TO.P,D13,3,COM_3*%
%TO.N,GND*%
X93862500Y-90300000D03*
%TD*%
D27*
%TO.P,U1,1,GPB0_1*%
%TO.N,Net-(U1-GPB0)*%
X97540000Y-134555000D03*
D10*
%TO.P,U1,2,GPB1_2*%
%TO.N,Net-(U1-GPB1)*%
X100080000Y-134555000D03*
%TO.P,U1,3,GPB2_3*%
%TO.N,Net-(U1-GPB2)*%
X102620000Y-134555000D03*
%TO.P,U1,4,GPB3_4*%
%TO.N,/BUZZER*%
X105160000Y-134555000D03*
%TO.P,U1,5,GPB4_5*%
%TO.N,unconnected-(U1-GPB4-Pad5)*%
X107700000Y-134555000D03*
%TO.P,U1,6,GPB5_6*%
%TO.N,unconnected-(U1-GPB5-Pad6)*%
X110240000Y-134555000D03*
%TO.P,U1,7,GPB6_7*%
%TO.N,unconnected-(U1-GPB6-Pad7)*%
X112780000Y-134555000D03*
%TO.P,U1,8,GPB7_8*%
%TO.N,unconnected-(U1-GPB7-Pad8)*%
X115320000Y-134555000D03*
%TO.P,U1,9,V_{DD}_9*%
%TO.N,+3.3V*%
X117860000Y-134555000D03*
%TO.P,U1,10,V_{SS}_10*%
%TO.N,GND*%
X120400000Y-134555000D03*
%TO.P,U1,11,NC_11*%
%TO.N,unconnected-(U1-NC-Pad11)*%
X122940000Y-134555000D03*
%TO.P,U1,12,SCK_12*%
%TO.N,/I2C SDA*%
X125480000Y-134555000D03*
%TO.P,U1,13,SDA_13*%
%TO.N,/I2C SCL*%
X128020000Y-134555000D03*
%TO.P,U1,14,NC_14*%
%TO.N,unconnected-(U1-NC-Pad14)*%
X130560000Y-134555000D03*
%TO.P,U1,15,A0_15*%
%TO.N,GND*%
X130560000Y-126935000D03*
%TO.P,U1,16,A1_16*%
X128020000Y-126935000D03*
%TO.P,U1,17,A2_17*%
X125480000Y-126935000D03*
%TO.P,U1,18,~{RESET}_18*%
%TO.N,Net-(U1-~{RESET})*%
X122940000Y-126935000D03*
%TO.P,U1,19,INTB_19*%
%TO.N,unconnected-(U1-INTB-Pad19)*%
X120400000Y-126935000D03*
%TO.P,U1,20,INTA_20*%
%TO.N,unconnected-(U1-INTA-Pad20)*%
X117860000Y-126935000D03*
%TO.P,U1,21,GPA0_21*%
%TO.N,/Next {slash} select Button*%
X115320000Y-126935000D03*
%TO.P,U1,22,GPA1_22*%
%TO.N,/Test {slash} enter Button*%
X112780000Y-126935000D03*
%TO.P,U1,23,GPA2_23*%
%TO.N,/Package 14 sence*%
X110240000Y-126935000D03*
%TO.P,U1,24,GPA3_24*%
%TO.N,/<NO NET>*%
X107700000Y-126935000D03*
%TO.P,U1,25,GPA4_25*%
%TO.N,/Package 20 sence*%
X105160000Y-126935000D03*
%TO.P,U1,26,GPA5_26*%
%TO.N,/Voltage 3.3v sence*%
X102620000Y-126935000D03*
%TO.P,U1,27,GPA6_27*%
%TO.N,/Volatge 5v sence*%
X100080000Y-126935000D03*
%TO.P,U1,28,GPA7_28*%
%TO.N,unconnected-(U1-GPA7-Pad28)*%
X97540000Y-126935000D03*
%TD*%
D13*
%TO.P,R26,1*%
%TO.N,Net-(U1-~{RESET})*%
X115150000Y-120820000D03*
%TO.P,R26,2*%
%TO.N,+3.3V*%
X115150000Y-105580000D03*
%TD*%
%TO.P,R18,1*%
%TO.N,/ZIF_3*%
X99210000Y-55750000D03*
%TO.P,R18,2*%
%TO.N,/GP_4*%
X114450000Y-55750000D03*
%TD*%
D11*
%TO.P,D10,1,A_1*%
%TO.N,/GP_11*%
X95737500Y-87050000D03*
%TO.P,D10,2,K_2*%
%TO.N,+3.3V*%
X95737500Y-85150000D03*
%TO.P,D10,3,COM_3*%
%TO.N,GND*%
X93862500Y-86100000D03*
%TD*%
D13*
%TO.P,R17,1*%
%TO.N,/ZIF_4*%
X99210000Y-60050000D03*
%TO.P,R17,2*%
%TO.N,/GP_5*%
X114450000Y-60050000D03*
%TD*%
D27*
%TO.P,C2,1*%
%TO.N,+3.3V*%
X142650000Y-57550000D03*
D10*
%TO.P,C2,2*%
%TO.N,GND*%
X142650000Y-52550000D03*
%TD*%
D14*
%TO.P,SW5,1,A_1*%
%TO.N,+3.3V*%
X150870000Y-125670000D03*
D15*
%TO.P,SW5,2,B_2*%
%TO.N,/V_OUT*%
X153410000Y-125670000D03*
%TO.P,SW5,3,C_3*%
%TO.N,+5V*%
X155950000Y-125670000D03*
%TD*%
D12*
%TO.P,SW2,1,1_1*%
%TO.N,/Next {slash} select Button*%
X134300000Y-129750000D03*
X140800000Y-129750000D03*
%TO.P,SW2,2,2_2*%
%TO.N,GND*%
X134300000Y-134250000D03*
X140800000Y-134250000D03*
%TD*%
D13*
%TO.P,R20,1*%
%TO.N,/ZIF_1*%
X99110000Y-47150000D03*
%TO.P,R20,2*%
%TO.N,/GP_2*%
X114350000Y-47150000D03*
%TD*%
D10*
%TO.P,C1,1*%
%TO.N,+3.3V*%
X136800000Y-57250000D03*
%TO.P,C1,2*%
%TO.N,GND*%
X136800000Y-52250000D03*
%TD*%
D13*
%TO.P,R28,1*%
%TO.N,Net-(Q1-B)*%
X170270000Y-137600000D03*
%TO.P,R28,2*%
%TO.N,GND*%
X155030000Y-137600000D03*
%TD*%
D11*
%TO.P,D12,1,A_1*%
%TO.N,/GP_9*%
X95750000Y-78300000D03*
%TO.P,D12,2,K_2*%
%TO.N,+3.3V*%
X95750000Y-76400000D03*
%TO.P,D12,3,COM_3*%
%TO.N,GND*%
X93875000Y-77350000D03*
%TD*%
D13*
%TO.P,R13,1*%
%TO.N,/ZIF_11*%
X99330000Y-90300000D03*
%TO.P,R13,2*%
%TO.N,/GP_12*%
X114570000Y-90300000D03*
%TD*%
%TO.P,R16,1*%
%TO.N,/ZIF_5*%
X99210000Y-64350000D03*
%TO.P,R16,2*%
%TO.N,/GP_6*%
X114450000Y-64350000D03*
%TD*%
D11*
%TO.P,D16,1,A_1*%
%TO.N,/GP_6*%
X95750000Y-65200000D03*
%TO.P,D16,2,K_2*%
%TO.N,+3.3V*%
X95750000Y-63300000D03*
%TO.P,D16,3,COM_3*%
%TO.N,GND*%
X93875000Y-64250000D03*
%TD*%
D13*
%TO.P,R9,1*%
%TO.N,/ZIF_12*%
X99330000Y-94550000D03*
%TO.P,R9,2*%
%TO.N,/GP_13*%
X114570000Y-94550000D03*
%TD*%
%TO.P,R21,1*%
%TO.N,/RGB red*%
X103900000Y-105630000D03*
%TO.P,R21,2*%
%TO.N,Net-(U1-GPB0)*%
X103900000Y-120870000D03*
%TD*%
D16*
%TO.P,D5,1,A_1*%
%TO.N,/GP_17*%
X135700000Y-109650000D03*
%TO.P,D5,2,K_2*%
%TO.N,+3.3V*%
X135700000Y-111550000D03*
%TO.P,D5,3,COM_3*%
%TO.N,GND*%
X137575000Y-110600000D03*
%TD*%
D13*
%TO.P,R24,1*%
%TO.N,/I2C SDA*%
X152870000Y-81800000D03*
%TO.P,R24,2*%
%TO.N,Net-(A1-GPIO20)*%
X137630000Y-81800000D03*
%TD*%
%TO.P,R11,1*%
%TO.N,/ZIF_9*%
X99280000Y-81700000D03*
%TO.P,R11,2*%
%TO.N,/GP_10*%
X114520000Y-81700000D03*
%TD*%
D28*
%TO.N,+3.3V*%
X93450000Y-84250000D03*
X93450000Y-50200000D03*
X93525000Y-75825000D03*
X139450000Y-97900000D03*
X93425000Y-88775000D03*
X93475000Y-67125000D03*
X138750000Y-111550000D03*
X93425000Y-58475000D03*
X147325000Y-100325000D03*
X138325000Y-104825000D03*
X138625000Y-108325000D03*
X93525000Y-71575000D03*
X93575000Y-93075000D03*
X93425000Y-62625000D03*
X93475000Y-80175000D03*
X143800000Y-100200000D03*
X138850000Y-101250000D03*
X93475000Y-54325000D03*
X93550000Y-97300000D03*
X93550000Y-45650000D03*
%TO.N,GND*%
X92400000Y-60100000D03*
X139300000Y-103750000D03*
X92400000Y-68700000D03*
X92450000Y-98900000D03*
X92450000Y-94550000D03*
X92450000Y-51600000D03*
X92400000Y-90300000D03*
X92450000Y-77350000D03*
X92400000Y-86100000D03*
X148800000Y-101250000D03*
X139150000Y-107050000D03*
X141600000Y-101250000D03*
X139200000Y-100050000D03*
X92450000Y-64250000D03*
X92450000Y-47250000D03*
X92350000Y-55850000D03*
X139200000Y-110600000D03*
X92400000Y-73000000D03*
X145150000Y-101350000D03*
X92400000Y-81750000D03*
%TO.N,/ZIF_14*%
X151245000Y-104225000D03*
X151855000Y-103775000D03*
X150600000Y-104790000D03*
%TO.N,/ZIF_16*%
X151865000Y-106555000D03*
X151020000Y-107320000D03*
X150314951Y-108035049D03*
%TO.N,/ZIF_20*%
X171620000Y-87630000D03*
X171200000Y-88050000D03*
X172160000Y-87090000D03*
%TO.N,/ZIF_7*%
X170850000Y-64100000D03*
%TO.N,/ZIF_18*%
X165900000Y-94250000D03*
%TO.N,/ZIF_19*%
X167032108Y-90332108D03*
%TO.N,/ZIF_17*%
X165250000Y-95100000D03*
%TD*%
%TO.N,/GP_13*%
D29*
X95750000Y-95600000D02*
X95750000Y-95500000D01*
X116500000Y-85151371D02*
X116850000Y-84801370D01*
X116850000Y-84801370D02*
X116850000Y-84030000D01*
X116850000Y-84030000D02*
X118510000Y-82370000D01*
X116500000Y-88935685D02*
X116500000Y-85151371D01*
X114570000Y-94550000D02*
X112620000Y-96500000D01*
X96650000Y-96500000D02*
X95750000Y-95600000D01*
X112620000Y-96500000D02*
X96650000Y-96500000D01*
X114570000Y-94550000D02*
X116150000Y-92970000D01*
X116150000Y-89285686D02*
X116500000Y-88935685D01*
X116150000Y-92970000D02*
X116150000Y-89285686D01*
%TO.N,+3.3V*%
X135712500Y-104500000D02*
X138000000Y-104500000D01*
X138000000Y-104500000D02*
X138325000Y-104825000D01*
X95800000Y-46300000D02*
X94200000Y-46300000D01*
X135700000Y-101000000D02*
X138600000Y-101000000D01*
X138750000Y-111550000D02*
X138800000Y-111550000D01*
X95737500Y-89350000D02*
X94000000Y-89350000D01*
X147850000Y-99800000D02*
X147325000Y-100325000D01*
X138300000Y-108000000D02*
X138625000Y-108325000D01*
X93550000Y-45650000D02*
X93450000Y-45550000D01*
X95750000Y-63300000D02*
X94100000Y-63300000D01*
X94100000Y-93600000D02*
X93575000Y-93075000D01*
X95787500Y-97950000D02*
X94200000Y-97950000D01*
X95775000Y-59150000D02*
X94100000Y-59150000D01*
X135712500Y-108000000D02*
X138300000Y-108000000D01*
X94200000Y-46300000D02*
X93550000Y-45650000D01*
X94000000Y-72050000D02*
X93525000Y-71575000D01*
X94100000Y-63300000D02*
X93425000Y-62625000D01*
X94000000Y-89350000D02*
X93425000Y-88775000D01*
X94350000Y-85150000D02*
X93450000Y-84250000D01*
X140650000Y-97900000D02*
X139450000Y-97900000D01*
X95800000Y-50650000D02*
X93900000Y-50650000D01*
X94200000Y-97950000D02*
X93550000Y-97300000D01*
X94050000Y-54900000D02*
X93475000Y-54325000D01*
X147850000Y-97937500D02*
X147850000Y-99800000D01*
X95750000Y-54900000D02*
X94050000Y-54900000D01*
X95737500Y-85150000D02*
X94350000Y-85150000D01*
X144200000Y-97900000D02*
X144200000Y-99800000D01*
X94100000Y-76400000D02*
X93525000Y-75825000D01*
X95750000Y-76400000D02*
X94100000Y-76400000D01*
X93900000Y-50650000D02*
X93450000Y-50200000D01*
X94100000Y-67750000D02*
X93475000Y-67125000D01*
X94100000Y-80800000D02*
X93475000Y-80175000D01*
X138600000Y-101000000D02*
X138850000Y-101250000D01*
X94100000Y-59150000D02*
X93425000Y-58475000D01*
X95787500Y-67750000D02*
X94100000Y-67750000D01*
X95750000Y-93600000D02*
X94100000Y-93600000D01*
X95750000Y-72050000D02*
X94000000Y-72050000D01*
X135700000Y-111550000D02*
X138750000Y-111550000D01*
X144200000Y-99800000D02*
X143800000Y-100200000D01*
X95750000Y-80800000D02*
X94100000Y-80800000D01*
%TO.N,GND*%
X137587500Y-103550000D02*
X139100000Y-103550000D01*
X93875000Y-77350000D02*
X92450000Y-77350000D01*
X93912500Y-98900000D02*
X92450000Y-98900000D01*
X141600000Y-99775000D02*
X141600000Y-101250000D01*
X93875000Y-73000000D02*
X92400000Y-73000000D01*
X93925000Y-51600000D02*
X92450000Y-51600000D01*
X93875000Y-81750000D02*
X92400000Y-81750000D01*
X93875000Y-55850000D02*
X92350000Y-55850000D01*
X93875000Y-64250000D02*
X92450000Y-64250000D01*
X137575000Y-110600000D02*
X139200000Y-110600000D01*
X139100000Y-103550000D02*
X139300000Y-103750000D01*
X93862500Y-90300000D02*
X92400000Y-90300000D01*
X148800000Y-99812500D02*
X148800000Y-101250000D01*
X139200000Y-100050000D02*
X139400000Y-100050000D01*
X137587500Y-107050000D02*
X139150000Y-107050000D01*
X145150000Y-99775000D02*
X145150000Y-101350000D01*
X93900000Y-60100000D02*
X92400000Y-60100000D01*
X93862500Y-86100000D02*
X92400000Y-86100000D01*
X93875000Y-94550000D02*
X92450000Y-94550000D01*
X93912500Y-68700000D02*
X92400000Y-68700000D01*
X93925000Y-47250000D02*
X92450000Y-47250000D01*
X137575000Y-100050000D02*
X139200000Y-100050000D01*
%TO.N,/Test {slash} enter Button*%
X142850000Y-128050000D02*
X144550000Y-129750000D01*
X137150000Y-128050000D02*
X142850000Y-128050000D01*
X133650000Y-124550000D02*
X137150000Y-128050000D01*
X115165000Y-124550000D02*
X133650000Y-124550000D01*
X112780000Y-126935000D02*
X115165000Y-124550000D01*
X151050000Y-129750000D02*
X144550000Y-129750000D01*
%TO.N,/RGB green*%
X101672000Y-108552000D02*
X98750000Y-105630000D01*
X110400000Y-108552000D02*
X101672000Y-108552000D01*
%TO.N,Net-(U1-GPB1)*%
X98750000Y-120870000D02*
X98750000Y-120950000D01*
X99050000Y-135850000D02*
X100080000Y-134820000D01*
X96384314Y-135850000D02*
X99050000Y-135850000D01*
X98750000Y-120950000D02*
X97800000Y-121900000D01*
X94550000Y-134015686D02*
X96384314Y-135850000D01*
X97800000Y-123334315D02*
X94550000Y-126584315D01*
X100080000Y-134820000D02*
X100080000Y-134555000D01*
X94550000Y-126584315D02*
X94550000Y-134015686D01*
X97800000Y-121900000D02*
X97800000Y-123334315D01*
%TO.N,/ZIF_14*%
D30*
X151245000Y-104225000D02*
X151580000Y-104560000D01*
X150680000Y-104790000D02*
X151245000Y-104225000D01*
X150600000Y-104790000D02*
X150680000Y-104790000D01*
X158820000Y-104560000D02*
X163510000Y-109250000D01*
X151165000Y-104225000D02*
X151245000Y-104225000D01*
D29*
X163490000Y-110140000D02*
X163490000Y-110150000D01*
D30*
X151245000Y-104225000D02*
X151830000Y-103640000D01*
X163510000Y-109250000D02*
X163510000Y-110120000D01*
X150600000Y-104790000D02*
X151165000Y-104225000D01*
X163510000Y-110120000D02*
X163490000Y-110140000D01*
X151580000Y-104560000D02*
X158820000Y-104560000D01*
%TO.N,/ZIF_16*%
X154620000Y-107830000D02*
X159390000Y-112600000D01*
X159390000Y-112600000D02*
X160950000Y-112600000D01*
X150314951Y-108035049D02*
X151020000Y-107330000D01*
X151020000Y-107320000D02*
X151870000Y-106470000D01*
X151870000Y-106470000D02*
X151870000Y-106460000D01*
X151560000Y-107830000D02*
X154620000Y-107830000D01*
X151060000Y-107330000D02*
X151560000Y-107830000D01*
X151020000Y-107330000D02*
X151060000Y-107330000D01*
D29*
X160950000Y-112600000D02*
X160950000Y-112690000D01*
D30*
X151020000Y-107330000D02*
X151020000Y-107320000D01*
%TO.N,/ZIF_20*%
D29*
X171070000Y-86000000D02*
X152890000Y-86000000D01*
D30*
X163990000Y-112690000D02*
X163490000Y-112690000D01*
X168990000Y-100100000D02*
X166000000Y-103090000D01*
X171200000Y-88050000D02*
X168990000Y-90260000D01*
X166000000Y-103090000D02*
X166000000Y-110680000D01*
X168990000Y-90260000D02*
X168990000Y-100100000D01*
D29*
X172160000Y-87090000D02*
X171070000Y-86000000D01*
D30*
X171620000Y-87630000D02*
X171200000Y-88050000D01*
X166000000Y-110680000D02*
X163990000Y-112690000D01*
D29*
X172160000Y-87090000D02*
X172160000Y-87110000D01*
D30*
X172160000Y-87090000D02*
X171620000Y-87630000D01*
%TO.N,/ZIF_7*%
D29*
X181850000Y-64100000D02*
X183450000Y-65700000D01*
X183450000Y-99800000D02*
X168000000Y-115250000D01*
X170850000Y-64100000D02*
X181850000Y-64100000D01*
X183450000Y-65700000D02*
X183450000Y-99800000D01*
X163510000Y-115250000D02*
X163490000Y-115230000D01*
X168000000Y-115250000D02*
X163510000Y-115250000D01*
%TO.N,/ZIF_8*%
X182100000Y-63100000D02*
X184400000Y-65400000D01*
X164700000Y-63100000D02*
X182100000Y-63100000D01*
X166100000Y-119050000D02*
X162230000Y-119050000D01*
X163450000Y-59290000D02*
X163450000Y-61850000D01*
X162230000Y-119050000D02*
X160950000Y-117770000D01*
X163450000Y-61850000D02*
X164700000Y-63100000D01*
X184400000Y-65400000D02*
X184400000Y-100750000D01*
X184400000Y-100750000D02*
X166100000Y-119050000D01*
%TO.N,/ZIF_10*%
X181867157Y-63500000D02*
X184000000Y-65632843D01*
X184000000Y-100150000D02*
X166380000Y-117770000D01*
X166380000Y-117770000D02*
X163490000Y-117770000D01*
X184000000Y-65632843D02*
X184000000Y-100150000D01*
X158370000Y-59290000D02*
X162580000Y-63500000D01*
X162580000Y-63500000D02*
X181867157Y-63500000D01*
%TO.N,/Package 14 sence*%
X164300000Y-124150000D02*
X165400000Y-123050000D01*
X165400000Y-123050000D02*
X165400000Y-121250000D01*
X113025000Y-124150000D02*
X164300000Y-124150000D01*
X110240000Y-126935000D02*
X113025000Y-124150000D01*
X164460000Y-120310000D02*
X163490000Y-120310000D01*
X165400000Y-121250000D02*
X164460000Y-120310000D01*
%TO.N,/<NO NET>*%
X160050000Y-123750000D02*
X160950000Y-122850000D01*
X107700000Y-126935000D02*
X110775000Y-123860000D01*
X112749314Y-123860000D02*
X112859315Y-123750000D01*
X110775000Y-123860000D02*
X112749314Y-123860000D01*
X112859315Y-123750000D02*
X160050000Y-123750000D01*
%TO.N,/Package 20 sence*%
X110469314Y-123600000D02*
X110609315Y-123460000D01*
X161750000Y-121600000D02*
X163000000Y-122850000D01*
X112583630Y-123460000D02*
X112693632Y-123350000D01*
X112693632Y-123350000D02*
X158450000Y-123350000D01*
X163000000Y-122850000D02*
X163490000Y-122850000D01*
X160200000Y-121600000D02*
X161750000Y-121600000D01*
X158450000Y-123350000D02*
X160200000Y-121600000D01*
X110609315Y-123460000D02*
X112583630Y-123460000D01*
X105160000Y-126935000D02*
X108495000Y-123600000D01*
X108495000Y-123600000D02*
X110469314Y-123600000D01*
%TO.N,/V_OUT*%
D30*
X158790000Y-127550000D02*
X160950000Y-125390000D01*
X153410000Y-125910000D02*
X155050000Y-127550000D01*
X155050000Y-127550000D02*
X158790000Y-127550000D01*
%TO.N,/GP_8*%
D29*
X95750000Y-73950000D02*
X96700000Y-74900000D01*
X112550000Y-74900000D02*
X114450000Y-73000000D01*
X114450000Y-73000000D02*
X114450000Y-71650000D01*
X96700000Y-74900000D02*
X112550000Y-74900000D01*
X114450000Y-71650000D02*
X118510000Y-67590000D01*
X118510000Y-67590000D02*
X118510000Y-67130000D01*
%TO.N,Net-(Q1-B)*%
X169150000Y-132110000D02*
X170290000Y-133250000D01*
X170290000Y-137580000D02*
X170270000Y-137600000D01*
X169150000Y-128610000D02*
X169150000Y-132110000D01*
X170290000Y-133250000D02*
X170290000Y-137580000D01*
%TO.N,/BUZZER*%
X149700000Y-140300000D02*
X155050000Y-134950000D01*
X110905000Y-140300000D02*
X149700000Y-140300000D01*
X105160000Y-134555000D02*
X110905000Y-140300000D01*
X155050000Y-134950000D02*
X155050000Y-133250000D01*
%TO.N,/GP_18*%
X133000000Y-99100000D02*
X132200000Y-99900000D01*
X132200000Y-96620000D02*
X133750000Y-95070000D01*
X132200000Y-99900000D02*
X132200000Y-96620000D01*
X135700000Y-99100000D02*
X133000000Y-99100000D01*
%TO.N,/GP_7*%
X112500000Y-70650000D02*
X114450000Y-68700000D01*
X117100000Y-66050000D02*
X117100000Y-63460000D01*
X114450000Y-68700000D02*
X117100000Y-66050000D01*
X117100000Y-63460000D02*
X118510000Y-62050000D01*
X95787500Y-69650000D02*
X96787500Y-70650000D01*
X96787500Y-70650000D02*
X112500000Y-70650000D01*
%TO.N,/GP_21*%
X149750000Y-96850000D02*
X138900000Y-86000000D01*
X149750000Y-97937500D02*
X149750000Y-96850000D01*
X138900000Y-86000000D02*
X137650000Y-86000000D01*
X136560000Y-84910000D02*
X137650000Y-86000000D01*
X133750000Y-84910000D02*
X136560000Y-84910000D01*
%TO.N,/GP_11*%
X116600000Y-80185685D02*
X116600000Y-76660000D01*
X96950000Y-87050000D02*
X95737500Y-87050000D01*
X116050000Y-84470000D02*
X116050000Y-80735686D01*
X112570000Y-87950000D02*
X97850000Y-87950000D01*
X116600000Y-76660000D02*
X118510000Y-74750000D01*
X116050000Y-80735686D02*
X116600000Y-80185685D01*
X97850000Y-87950000D02*
X96950000Y-87050000D01*
X114520000Y-86000000D02*
X112570000Y-87950000D01*
X114520000Y-86000000D02*
X116050000Y-84470000D01*
%TO.N,/GP_9*%
X114520000Y-77350000D02*
X116150000Y-75720000D01*
X95750000Y-78300000D02*
X96800000Y-79350000D01*
X112520000Y-79350000D02*
X114520000Y-77350000D01*
X116150000Y-75720000D02*
X116150000Y-72030000D01*
X96800000Y-79350000D02*
X112520000Y-79350000D01*
X116150000Y-72030000D02*
X118510000Y-69670000D01*
%TO.N,/GP_5*%
X95775000Y-61050000D02*
X96775000Y-62050000D01*
X117530000Y-56970000D02*
X118510000Y-56970000D01*
X114450000Y-60050000D02*
X117530000Y-56970000D01*
X96775000Y-62050000D02*
X112450000Y-62050000D01*
X112450000Y-62050000D02*
X114450000Y-60050000D01*
%TO.N,/GP_14*%
X116900000Y-86520000D02*
X118510000Y-84910000D01*
X116070000Y-95171321D02*
X116070000Y-93928679D01*
X116050000Y-93635686D02*
X116550000Y-93135685D01*
X116550000Y-93135685D02*
X116550000Y-89451371D01*
X116050000Y-95191321D02*
X116070000Y-95171321D01*
X114600000Y-98850000D02*
X112600000Y-100850000D01*
X116550000Y-89451371D02*
X116900000Y-89101370D01*
X114600000Y-98850000D02*
X116050000Y-97400000D01*
X116050000Y-93908679D02*
X116050000Y-93635686D01*
X116900000Y-89101370D02*
X116900000Y-86520000D01*
X112600000Y-100850000D02*
X96787500Y-100850000D01*
X116070000Y-93928679D02*
X116050000Y-93908679D01*
X96787500Y-100850000D02*
X95787500Y-99850000D01*
X116050000Y-97400000D02*
X116050000Y-95191321D01*
%TO.N,/GP_16*%
X123800000Y-99880000D02*
X123800000Y-97820000D01*
X123800000Y-97820000D02*
X118510000Y-92530000D01*
X130020000Y-106100000D02*
X123800000Y-99880000D01*
X135712500Y-106100000D02*
X130020000Y-106100000D01*
%TO.N,/GP_19*%
X133750000Y-92530000D02*
X135660000Y-92530000D01*
X142550000Y-97900000D02*
X142550000Y-96850000D01*
X142550000Y-96850000D02*
X140200000Y-94500000D01*
X140200000Y-94500000D02*
X137630000Y-94500000D01*
X135660000Y-92530000D02*
X137630000Y-94500000D01*
%TO.N,Net-(BZ1--)*%
X170420000Y-128610000D02*
X173860000Y-128610000D01*
X173860000Y-128610000D02*
X180950000Y-135700000D01*
%TO.N,/ZIF_18*%
X165900000Y-94250000D02*
X165650000Y-94500000D01*
X165650000Y-94500000D02*
X152870000Y-94500000D01*
%TO.N,/GP_20*%
X133750000Y-87450000D02*
X136550000Y-90250000D01*
X146100000Y-96950000D02*
X139400000Y-90250000D01*
X136550000Y-90250000D02*
X137650000Y-90250000D01*
X146100000Y-97900000D02*
X146100000Y-96950000D01*
X139400000Y-90250000D02*
X137650000Y-90250000D01*
%TO.N,/I2C SCL*%
X175700000Y-99080000D02*
X175680000Y-99100000D01*
X166200000Y-77650000D02*
X175700000Y-87150000D01*
X175700000Y-87150000D02*
X175700000Y-99080000D01*
X152890000Y-77650000D02*
X166200000Y-77650000D01*
%TO.N,/I2C SDA*%
X169400000Y-81800000D02*
X173350000Y-85750000D01*
X173350000Y-98890000D02*
X173140000Y-99100000D01*
X173350000Y-85750000D02*
X173350000Y-98890000D01*
X152870000Y-81800000D02*
X169400000Y-81800000D01*
%TO.N,/ZIF_19*%
X166950000Y-90250000D02*
X152890000Y-90250000D01*
X167032108Y-90332108D02*
X166950000Y-90250000D01*
%TO.N,/GP_2*%
X96750000Y-49150000D02*
X112350000Y-49150000D01*
X112350000Y-49150000D02*
X114350000Y-47150000D01*
X95800000Y-48200000D02*
X96750000Y-49150000D01*
X114350000Y-47150000D02*
X118170000Y-47150000D01*
X118170000Y-47150000D02*
X118510000Y-46810000D01*
%TO.N,/GP_15*%
X130720000Y-102600000D02*
X128000000Y-99880000D01*
X128000000Y-99880000D02*
X128000000Y-96940000D01*
X128000000Y-96940000D02*
X118510000Y-87450000D01*
X135712500Y-102600000D02*
X130720000Y-102600000D01*
%TO.N,/Voltage 3.3v sence*%
X102620000Y-126935000D02*
X106605000Y-122950000D01*
X132815686Y-120900000D02*
X149700000Y-120900000D01*
X149700000Y-120900000D02*
X150860000Y-122060000D01*
X130765686Y-122950000D02*
X132815686Y-120900000D01*
X106605000Y-122950000D02*
X130765686Y-122950000D01*
%TO.N,/Volatge 5v sence*%
X155940000Y-122030000D02*
X155940000Y-122060000D01*
X104465000Y-122550000D02*
X130600000Y-122550000D01*
X154360000Y-120450000D02*
X155940000Y-122030000D01*
X100080000Y-126935000D02*
X104465000Y-122550000D01*
X130600000Y-122550000D02*
X132700000Y-120450000D01*
X132700000Y-120450000D02*
X154360000Y-120450000D01*
%TO.N,/GP_4*%
X114450000Y-55750000D02*
X115550000Y-54650000D01*
X96800000Y-57850000D02*
X112350000Y-57850000D01*
X115550000Y-54650000D02*
X118290000Y-54650000D01*
X95750000Y-56800000D02*
X96800000Y-57850000D01*
X118290000Y-54650000D02*
X118510000Y-54430000D01*
X112350000Y-57850000D02*
X114450000Y-55750000D01*
%TO.N,Net-(A1-GPIO21)*%
X135930000Y-77650000D02*
X133750000Y-79830000D01*
X137650000Y-77650000D02*
X135930000Y-77650000D01*
%TO.N,/RGB blue*%
X97876000Y-110076000D02*
X93600000Y-105800000D01*
X93600000Y-105800000D02*
X93600000Y-105630000D01*
X108876000Y-110076000D02*
X97876000Y-110076000D01*
%TO.N,Net-(U1-GPB2)*%
X96218629Y-136250000D02*
X100900000Y-136250000D01*
X93500000Y-121500000D02*
X94150000Y-122150000D01*
X94150000Y-134181372D02*
X96218629Y-136250000D01*
X100900000Y-136250000D02*
X102595000Y-134555000D01*
X94150000Y-122150000D02*
X94150000Y-134181372D01*
X93600000Y-120870000D02*
X93500000Y-120970000D01*
X102595000Y-134555000D02*
X102620000Y-134555000D01*
X93500000Y-120970000D02*
X93500000Y-121500000D01*
%TO.N,/GP_3*%
X114400000Y-51450000D02*
X116450000Y-49400000D01*
X116450000Y-49400000D02*
X118460000Y-49400000D01*
X118460000Y-49400000D02*
X118510000Y-49350000D01*
X96550000Y-53300000D02*
X112550000Y-53300000D01*
X95800000Y-52550000D02*
X96550000Y-53300000D01*
X112550000Y-53300000D02*
X114400000Y-51450000D01*
%TO.N,/GP_6*%
X95750000Y-65200000D02*
X96850000Y-66300000D01*
X112500000Y-66300000D02*
X114450000Y-64350000D01*
X118510000Y-60290000D02*
X118510000Y-59510000D01*
X96850000Y-66300000D02*
X112500000Y-66300000D01*
X114450000Y-64350000D02*
X118510000Y-60290000D01*
%TO.N,/GP_10*%
X114520000Y-81700000D02*
X116200000Y-80020000D01*
X116550000Y-74170000D02*
X118510000Y-72210000D01*
X116200000Y-76235686D02*
X116550000Y-75885685D01*
X116550000Y-75885685D02*
X116550000Y-74170000D01*
X114520000Y-81700000D02*
X112520000Y-83700000D01*
X112520000Y-83700000D02*
X96750000Y-83700000D01*
X116200000Y-80020000D02*
X116200000Y-76235686D01*
X96750000Y-83700000D02*
X95750000Y-82700000D01*
%TO.N,/GP_12*%
X112570000Y-92300000D02*
X96700000Y-92300000D01*
X116450000Y-81890000D02*
X118510000Y-79830000D01*
X116100000Y-84985686D02*
X116450000Y-84635685D01*
X114570000Y-90300000D02*
X116100000Y-88770000D01*
X96700000Y-92300000D02*
X95737500Y-91337500D01*
X95737500Y-91337500D02*
X95737500Y-91250000D01*
X114570000Y-90300000D02*
X112570000Y-92300000D01*
X116450000Y-84635685D02*
X116450000Y-81890000D01*
X116100000Y-88770000D02*
X116100000Y-84985686D01*
%TO.N,/GP_17*%
X119600000Y-96160000D02*
X118510000Y-95070000D01*
X135700000Y-109650000D02*
X129350000Y-109650000D01*
X129350000Y-109650000D02*
X119600000Y-99900000D01*
X119600000Y-99900000D02*
X119600000Y-96160000D01*
%TO.N,Net-(A1-GPIO20)*%
X137630000Y-81800000D02*
X134320000Y-81800000D01*
X134320000Y-81800000D02*
X133750000Y-82370000D01*
%TO.N,/RGB red*%
X110400000Y-105250000D02*
X104280000Y-105250000D01*
X104280000Y-105250000D02*
X103900000Y-105630000D01*
%TO.N,/ZIF_17*%
X157420000Y-95100000D02*
X137380000Y-115140000D01*
X137380000Y-115140000D02*
X132200000Y-115140000D01*
X165250000Y-95100000D02*
X157420000Y-95100000D01*
%TO.N,Net-(U1-GPB0)*%
X103900000Y-120870000D02*
X102170000Y-122600000D01*
X95655000Y-134555000D02*
X97540000Y-134555000D01*
X94950000Y-126750000D02*
X94950000Y-133850000D01*
X94950000Y-133850000D02*
X95655000Y-134555000D01*
X99100000Y-122600000D02*
X94950000Y-126750000D01*
X102170000Y-122600000D02*
X99100000Y-122600000D01*
%TO.N,/Next {slash} select Button*%
X115320000Y-126935000D02*
X117005000Y-125250000D01*
X134300000Y-129750000D02*
X140800000Y-129750000D01*
X130900000Y-125250000D02*
X134300000Y-128650000D01*
X117005000Y-125250000D02*
X130900000Y-125250000D01*
X134300000Y-128650000D02*
X134300000Y-129750000D01*
%TD*%
M02*
