M48
; DRILL file KiCad 10.0.0 date 2026-05-01T20:27:17
; FORMAT={-:-/ absolute / metric / decimal}
; #@! TF.CreationDate,2026-05-01T20:27:17+12:00
; #@! TF.GenerationSoftware,Kicad,Pcbnew,10.0.0
; #@! TF.FileFunction,Plated,1,4,PTH
FMAT,2
METRIC
; #@! TA.AperFunction,Plated,PTH,ViaDrill
T1C0.300
; #@! TA.AperFunction,Plated,PTH,ComponentDrill
T2C0.750
; #@! TA.AperFunction,Plated,PTH,ComponentDrill
T3C0.800
; #@! TA.AperFunction,Plated,PTH,ComponentDrill
T4C0.900
; #@! TA.AperFunction,Plated,PTH,ComponentDrill
T5C1.000
; #@! TA.AperFunction,Plated,PTH,ComponentDrill
T6C1.100
; #@! TA.AperFunction,Plated,PTH,ComponentDrill
T7C1.200
%
G90
G05
T1
X92.35Y-55.85
X92.4Y-60.1
X92.4Y-68.7
X92.4Y-73.0
X92.4Y-81.75
X92.4Y-86.1
X92.4Y-90.3
X92.45Y-47.25
X92.45Y-51.6
X92.45Y-64.25
X92.45Y-77.35
X92.45Y-94.55
X92.45Y-98.9
X93.425Y-58.475
X93.425Y-62.625
X93.425Y-88.775
X93.45Y-50.2
X93.45Y-84.25
X93.475Y-54.325
X93.475Y-67.125
X93.475Y-80.175
X93.525Y-71.575
X93.525Y-75.825
X93.55Y-45.65
X93.55Y-97.3
X93.575Y-93.075
X138.325Y-104.825
X138.625Y-108.325
X138.75Y-111.55
X138.85Y-101.25
X139.15Y-107.05
X139.2Y-100.05
X139.2Y-110.6
X139.3Y-103.75
X139.45Y-97.9
X141.6Y-101.25
X143.8Y-100.2
X145.15Y-101.35
X147.325Y-100.325
X148.8Y-101.25
X150.315Y-108.035
X150.6Y-104.79
X151.02Y-107.32
X151.245Y-104.225
X151.855Y-103.775
X151.865Y-106.555
X165.25Y-95.1
X165.9Y-94.25
X167.032Y-90.332
X170.85Y-64.1
X171.2Y-88.05
X171.62Y-87.63
X172.16Y-87.09
T2
X167.88Y-128.61
X169.15Y-128.61
X170.42Y-128.61
T3
X97.54Y-126.935
X97.54Y-134.555
X100.08Y-126.935
X100.08Y-134.555
X102.62Y-126.935
X102.62Y-134.555
X105.16Y-126.935
X105.16Y-134.555
X107.7Y-126.935
X107.7Y-134.555
X110.24Y-126.935
X110.24Y-134.555
X112.78Y-126.935
X112.78Y-134.555
X115.32Y-126.935
X115.32Y-134.555
X116.55Y-138.8
X117.86Y-126.935
X117.86Y-134.555
X118.51Y-46.81
X118.51Y-49.35
X118.51Y-51.89
X118.51Y-54.43
X118.51Y-56.97
X118.51Y-59.51
X118.51Y-62.05
X118.51Y-64.59
X118.51Y-67.13
X118.51Y-69.67
X118.51Y-72.21
X118.51Y-74.75
X118.51Y-77.29
X118.51Y-79.83
X118.51Y-82.37
X118.51Y-84.91
X118.51Y-87.45
X118.51Y-89.99
X118.51Y-92.53
X118.51Y-95.07
X120.4Y-126.935
X120.4Y-134.555
X121.55Y-138.8
X122.94Y-126.935
X122.94Y-134.555
X125.48Y-126.935
X125.48Y-134.555
X128.02Y-126.935
X128.02Y-134.555
X130.56Y-126.935
X130.56Y-134.555
X133.75Y-46.81
X133.75Y-49.35
X133.75Y-51.89
X133.75Y-54.43
X133.75Y-56.97
X133.75Y-59.51
X133.75Y-62.05
X133.75Y-64.59
X133.75Y-67.13
X133.75Y-69.67
X133.75Y-72.21
X133.75Y-74.75
X133.75Y-77.29
X133.75Y-79.83
X133.75Y-82.37
X133.75Y-84.91
X133.75Y-87.45
X133.75Y-89.99
X133.75Y-92.53
X133.75Y-95.07
X136.8Y-52.25
X136.8Y-57.25
X142.65Y-52.55
X142.65Y-57.55
X158.37Y-59.29
X158.37Y-66.91
X160.91Y-59.29
X160.91Y-66.91
X163.45Y-59.29
X163.45Y-66.91
X165.99Y-59.29
X165.99Y-66.91
X168.53Y-59.29
X168.53Y-66.91
X171.07Y-59.29
X171.07Y-66.91
X171.85Y-69.86
X171.85Y-74.86
X173.61Y-59.29
X173.61Y-66.91
X176.15Y-59.29
X176.15Y-66.91
X178.69Y-59.29
X178.69Y-66.91
X181.23Y-59.29
X181.23Y-66.91
X186.29Y-64.42
X186.29Y-69.42
T4
X108.876Y-107.028
X108.876Y-110.076
X110.4Y-105.25
X110.4Y-108.552
T5
X150.86Y-122.06
X150.87Y-125.67
X153.4Y-122.06
X153.41Y-125.67
X155.94Y-122.06
X155.95Y-125.67
X160.95Y-110.15
X160.95Y-112.69
X160.95Y-115.23
X160.95Y-117.77
X160.95Y-120.31
X160.95Y-122.85
X160.95Y-125.39
X160.95Y-127.93
X163.49Y-110.15
X163.49Y-112.69
X163.49Y-115.23
X163.49Y-117.77
X163.49Y-120.31
X163.49Y-122.85
X163.49Y-125.39
X163.49Y-127.93
X173.14Y-99.1
X175.68Y-99.1
X178.22Y-99.1
X180.76Y-99.1
X180.95Y-128.1
X180.95Y-135.7
T6
X134.3Y-129.75
X134.3Y-134.25
X140.8Y-129.75
X140.8Y-134.25
X144.55Y-129.75
X144.55Y-134.25
X151.05Y-129.75
X151.05Y-134.25
T7
X93.6Y-105.63
X93.6Y-120.87
X98.75Y-105.63
X98.75Y-120.87
X99.11Y-47.15
X99.16Y-51.45
X99.21Y-55.75
X99.21Y-60.05
X99.21Y-64.35
X99.21Y-68.7
X99.21Y-73.0
X99.28Y-77.35
X99.28Y-81.7
X99.28Y-86.0
X99.33Y-90.3
X99.33Y-94.55
X99.36Y-98.85
X103.9Y-105.63
X103.9Y-120.87
X114.35Y-47.15
X114.4Y-51.45
X114.45Y-55.75
X114.45Y-60.05
X114.45Y-64.35
X114.45Y-68.7
X114.45Y-73.0
X114.52Y-77.35
X114.52Y-81.7
X114.52Y-86.0
X114.57Y-90.3
X114.57Y-94.55
X114.6Y-98.85
X115.15Y-105.58
X115.15Y-120.82
X119.6Y-99.9
X119.6Y-115.14
X123.8Y-99.88
X123.8Y-115.12
X128.0Y-99.88
X128.0Y-115.12
X132.2Y-99.9
X132.2Y-115.14
X137.63Y-81.8
X137.63Y-94.5
X137.65Y-77.65
X137.65Y-86.0
X137.65Y-90.25
X152.87Y-81.8
X152.87Y-94.5
X152.89Y-77.65
X152.89Y-86.0
X152.89Y-90.25
X155.03Y-137.6
X155.05Y-133.25
X170.27Y-137.6
X170.29Y-133.25
M30
