%TF.GenerationSoftware,KiCad,Pcbnew,10.0.0*%
%TF.CreationDate,2026-05-01T20:27:11+12:00*%
%TF.ProjectId,pico-74x-tester,7069636f-2d37-4347-982d-746573746572,rev?*%
%TF.SameCoordinates,Original*%
%TF.FileFunction,Soldermask,Top*%
%TF.FilePolarity,Negative*%
%FSLAX46Y46*%
G04 Gerber Fmt 4.6, Leading zero omitted, Abs format (unit mm)*
G04 Created by KiCad (PCBNEW 10.0.0) date 2026-05-01 20:27:11*
%MOMM*%
%LPD*%
G01*
G04 APERTURE LIST*
G04 Aperture macros list*
%AMRoundRect*
0 Rectangle with rounded corners*
0 $1 Rounding radius*
0 $2 $3 $4 $5 $6 $7 $8 $9 X,Y pos of 4 corners*
0 Add a 4 corners polygon primitive as box body*
4,1,4,$2,$3,$4,$5,$6,$7,$8,$9,$2,$3,0*
0 Add four circle primitives for the rounded corners*
1,1,$1+$1,$2,$3*
1,1,$1+$1,$4,$5*
1,1,$1+$1,$6,$7*
1,1,$1+$1,$8,$9*
0 Add four rect primitives between the rounded corners*
20,1,$1+$1,$2,$3,$4,$5,0*
20,1,$1+$1,$4,$5,$6,$7,0*
20,1,$1+$1,$6,$7,$8,$9,0*
20,1,$1+$1,$8,$9,$2,$3,0*%
G04 Aperture macros list end*
%ADD10C,1.600000*%
%ADD11RoundRect,0.150000X0.587500X0.150000X-0.587500X0.150000X-0.587500X-0.150000X0.587500X-0.150000X0*%
%ADD12C,2.000000*%
%ADD13C,2.400000*%
%ADD14R,1.700000X1.700000*%
%ADD15C,1.700000*%
%ADD16RoundRect,0.150000X-0.587500X-0.150000X0.587500X-0.150000X0.587500X0.150000X-0.587500X0.150000X0*%
%ADD17RoundRect,0.150000X-0.150000X0.587500X-0.150000X-0.587500X0.150000X-0.587500X0.150000X0.587500X0*%
%ADD18R,1.050000X1.500000*%
%ADD19O,1.050000X1.500000*%
%ADD20C,2.404000*%
%ADD21RoundRect,0.102000X0.754000X0.754000X-0.754000X0.754000X-0.754000X-0.754000X0.754000X-0.754000X0*%
%ADD22C,1.712000*%
%ADD23R,2.000000X2.000000*%
%ADD24RoundRect,0.250000X-0.550000X-0.550000X0.550000X-0.550000X0.550000X0.550000X-0.550000X0.550000X0*%
%ADD25RoundRect,0.450000X-0.450000X0.450000X-0.450000X-0.450000X0.450000X-0.450000X0.450000X0.450000X0*%
%ADD26C,1.800000*%
%ADD27RoundRect,0.250000X-0.550000X0.550000X-0.550000X-0.550000X0.550000X-0.550000X0.550000X0.550000X0*%
%ADD28RoundRect,0.250000X0.550000X-0.550000X0.550000X0.550000X-0.550000X0.550000X-0.550000X-0.550000X0*%
G04 APERTURE END LIST*
D10*
%TO.C,C5*%
X171850000Y-69860000D03*
X171850000Y-74860000D03*
%TD*%
%TO.C,C4*%
X186290000Y-64420000D03*
X186290000Y-69420000D03*
%TD*%
D11*
%TO.C,D9*%
X95750000Y-95500000D03*
X95750000Y-93600000D03*
X93875000Y-94550000D03*
%TD*%
D12*
%TO.C,SW4*%
X144550000Y-129750000D03*
X151050000Y-129750000D03*
X144550000Y-134250000D03*
X151050000Y-134250000D03*
%TD*%
D13*
%TO.C,R22*%
X98750000Y-105630000D03*
X98750000Y-120870000D03*
%TD*%
D14*
%TO.C,SW1*%
X160950000Y-110150000D03*
D15*
X163490000Y-110150000D03*
X160950000Y-112690000D03*
X163490000Y-112690000D03*
X160950000Y-115230000D03*
X163490000Y-115230000D03*
X160950000Y-117770000D03*
X163490000Y-117770000D03*
X160950000Y-120310000D03*
X163490000Y-120310000D03*
X160950000Y-122850000D03*
X163490000Y-122850000D03*
X160950000Y-125390000D03*
X163490000Y-125390000D03*
X160950000Y-127930000D03*
X163490000Y-127930000D03*
%TD*%
D13*
%TO.C,R14*%
X99210000Y-73000000D03*
X114450000Y-73000000D03*
%TD*%
%TO.C,R27*%
X170290000Y-133250000D03*
X155050000Y-133250000D03*
%TD*%
D16*
%TO.C,D4*%
X135700000Y-99100000D03*
X135700000Y-101000000D03*
X137575000Y-100050000D03*
%TD*%
D11*
%TO.C,D15*%
X95787500Y-69650000D03*
X95787500Y-67750000D03*
X93912500Y-68700000D03*
%TD*%
D17*
%TO.C,D1*%
X149750000Y-97937500D03*
X147850000Y-97937500D03*
X148800000Y-99812500D03*
%TD*%
D13*
%TO.C,R10*%
X99280000Y-86000000D03*
X114520000Y-86000000D03*
%TD*%
%TO.C,R12*%
X99280000Y-77350000D03*
X114520000Y-77350000D03*
%TD*%
D11*
%TO.C,D17*%
X95775000Y-61050000D03*
X95775000Y-59150000D03*
X93900000Y-60100000D03*
%TD*%
D13*
%TO.C,R8*%
X99360000Y-98850000D03*
X114600000Y-98850000D03*
%TD*%
D16*
%TO.C,D6*%
X135712500Y-106100000D03*
X135712500Y-108000000D03*
X137587500Y-107050000D03*
%TD*%
D11*
%TO.C,D14*%
X95750000Y-73950000D03*
X95750000Y-72050000D03*
X93875000Y-73000000D03*
%TD*%
D17*
%TO.C,D3*%
X142550000Y-97900000D03*
X140650000Y-97900000D03*
X141600000Y-99775000D03*
%TD*%
D18*
%TO.C,Q1*%
X167880000Y-128610000D03*
D19*
X169150000Y-128610000D03*
X170420000Y-128610000D03*
%TD*%
D13*
%TO.C,R3*%
X152870000Y-94500000D03*
X137630000Y-94500000D03*
%TD*%
D17*
%TO.C,D2*%
X146100000Y-97900000D03*
X144200000Y-97900000D03*
X145150000Y-99775000D03*
%TD*%
D20*
%TO.C,J2*%
X166445550Y-75600000D03*
X166445550Y-98600000D03*
X187450000Y-75600000D03*
X187450000Y-98600000D03*
D21*
X180760000Y-99100000D03*
D22*
X178220000Y-99100000D03*
X175680000Y-99100000D03*
X173140000Y-99100000D03*
%TD*%
D13*
%TO.C,R2*%
X152890000Y-90250000D03*
X137650000Y-90250000D03*
%TD*%
D11*
%TO.C,D20*%
X95800000Y-48200000D03*
X95800000Y-46300000D03*
X93925000Y-47250000D03*
%TD*%
D13*
%TO.C,R1*%
X152890000Y-86000000D03*
X137650000Y-86000000D03*
%TD*%
D11*
%TO.C,D8*%
X95787500Y-99850000D03*
X95787500Y-97950000D03*
X93912500Y-98900000D03*
%TD*%
D10*
%TO.C,C3*%
X116550000Y-138800000D03*
X121550000Y-138800000D03*
%TD*%
D16*
%TO.C,D7*%
X135712500Y-102600000D03*
X135712500Y-104500000D03*
X137587500Y-103550000D03*
%TD*%
D14*
%TO.C,SW6*%
X150860000Y-122060000D03*
D15*
X153400000Y-122060000D03*
X155940000Y-122060000D03*
%TD*%
D11*
%TO.C,D18*%
X95750000Y-56800000D03*
X95750000Y-54900000D03*
X93875000Y-55850000D03*
%TD*%
D13*
%TO.C,R25*%
X152890000Y-77650000D03*
X137650000Y-77650000D03*
%TD*%
%TO.C,R7*%
X128000000Y-115120000D03*
X128000000Y-99880000D03*
%TD*%
D23*
%TO.C,BZ1*%
X180950000Y-128100000D03*
D12*
X180950000Y-135700000D03*
%TD*%
D13*
%TO.C,R23*%
X93600000Y-105630000D03*
X93600000Y-120870000D03*
%TD*%
D24*
%TO.C,A1*%
X118510000Y-46810000D03*
D10*
X118510000Y-49350000D03*
X118510000Y-51890000D03*
X118510000Y-54430000D03*
X118510000Y-56970000D03*
X118510000Y-59510000D03*
X118510000Y-62050000D03*
X118510000Y-64590000D03*
X118510000Y-67130000D03*
X118510000Y-69670000D03*
X118510000Y-72210000D03*
X118510000Y-74750000D03*
X118510000Y-77290000D03*
X118510000Y-79830000D03*
X118510000Y-82370000D03*
X118510000Y-84910000D03*
X118510000Y-87450000D03*
X118510000Y-89990000D03*
X118510000Y-92530000D03*
X118510000Y-95070000D03*
X133750000Y-95070000D03*
X133750000Y-92530000D03*
X133750000Y-89990000D03*
X133750000Y-87450000D03*
X133750000Y-84910000D03*
X133750000Y-82370000D03*
X133750000Y-79830000D03*
X133750000Y-77290000D03*
X133750000Y-74750000D03*
X133750000Y-72210000D03*
X133750000Y-69670000D03*
X133750000Y-67130000D03*
X133750000Y-64590000D03*
X133750000Y-62050000D03*
X133750000Y-59510000D03*
X133750000Y-56970000D03*
X133750000Y-54430000D03*
X133750000Y-51890000D03*
X133750000Y-49350000D03*
X133750000Y-46810000D03*
%TD*%
D25*
%TO.C,D21*%
X110400000Y-105250000D03*
D26*
X108876000Y-107028000D03*
X110400000Y-108552000D03*
X108876000Y-110076000D03*
%TD*%
D13*
%TO.C,R4*%
X132200000Y-115140000D03*
X132200000Y-99900000D03*
%TD*%
D11*
%TO.C,D11*%
X95750000Y-82700000D03*
X95750000Y-80800000D03*
X93875000Y-81750000D03*
%TD*%
D13*
%TO.C,R5*%
X119600000Y-115140000D03*
X119600000Y-99900000D03*
%TD*%
D27*
%TO.C,J1*%
X181230000Y-59290000D03*
D10*
X178690000Y-59290000D03*
X176150000Y-59290000D03*
X173610000Y-59290000D03*
X171070000Y-59290000D03*
X168530000Y-59290000D03*
X165990000Y-59290000D03*
X163450000Y-59290000D03*
X160910000Y-59290000D03*
X158370000Y-59290000D03*
X158370000Y-66910000D03*
X160910000Y-66910000D03*
X163450000Y-66910000D03*
X165990000Y-66910000D03*
X168530000Y-66910000D03*
X171070000Y-66910000D03*
X173610000Y-66910000D03*
X176150000Y-66910000D03*
X178690000Y-66910000D03*
X181230000Y-66910000D03*
%TD*%
D11*
%TO.C,D19*%
X95800000Y-52550000D03*
X95800000Y-50650000D03*
X93925000Y-51600000D03*
%TD*%
D13*
%TO.C,R6*%
X123800000Y-115120000D03*
X123800000Y-99880000D03*
%TD*%
%TO.C,R15*%
X99210000Y-68700000D03*
X114450000Y-68700000D03*
%TD*%
%TO.C,R19*%
X99160000Y-51450000D03*
X114400000Y-51450000D03*
%TD*%
D11*
%TO.C,D13*%
X95737500Y-91250000D03*
X95737500Y-89350000D03*
X93862500Y-90300000D03*
%TD*%
D28*
%TO.C,U1*%
X97540000Y-134555000D03*
D10*
X100080000Y-134555000D03*
X102620000Y-134555000D03*
X105160000Y-134555000D03*
X107700000Y-134555000D03*
X110240000Y-134555000D03*
X112780000Y-134555000D03*
X115320000Y-134555000D03*
X117860000Y-134555000D03*
X120400000Y-134555000D03*
X122940000Y-134555000D03*
X125480000Y-134555000D03*
X128020000Y-134555000D03*
X130560000Y-134555000D03*
X130560000Y-126935000D03*
X128020000Y-126935000D03*
X125480000Y-126935000D03*
X122940000Y-126935000D03*
X120400000Y-126935000D03*
X117860000Y-126935000D03*
X115320000Y-126935000D03*
X112780000Y-126935000D03*
X110240000Y-126935000D03*
X107700000Y-126935000D03*
X105160000Y-126935000D03*
X102620000Y-126935000D03*
X100080000Y-126935000D03*
X97540000Y-126935000D03*
%TD*%
D13*
%TO.C,R26*%
X115150000Y-120820000D03*
X115150000Y-105580000D03*
%TD*%
%TO.C,R18*%
X99210000Y-55750000D03*
X114450000Y-55750000D03*
%TD*%
D11*
%TO.C,D10*%
X95737500Y-87050000D03*
X95737500Y-85150000D03*
X93862500Y-86100000D03*
%TD*%
D13*
%TO.C,R17*%
X99210000Y-60050000D03*
X114450000Y-60050000D03*
%TD*%
D28*
%TO.C,C2*%
X142650000Y-57550000D03*
D10*
X142650000Y-52550000D03*
%TD*%
D14*
%TO.C,SW5*%
X150870000Y-125670000D03*
D15*
X153410000Y-125670000D03*
X155950000Y-125670000D03*
%TD*%
D12*
%TO.C,SW2*%
X134300000Y-129750000D03*
X140800000Y-129750000D03*
X134300000Y-134250000D03*
X140800000Y-134250000D03*
%TD*%
D13*
%TO.C,R20*%
X99110000Y-47150000D03*
X114350000Y-47150000D03*
%TD*%
D10*
%TO.C,C1*%
X136800000Y-57250000D03*
X136800000Y-52250000D03*
%TD*%
D13*
%TO.C,R28*%
X170270000Y-137600000D03*
X155030000Y-137600000D03*
%TD*%
D11*
%TO.C,D12*%
X95750000Y-78300000D03*
X95750000Y-76400000D03*
X93875000Y-77350000D03*
%TD*%
D13*
%TO.C,R13*%
X99330000Y-90300000D03*
X114570000Y-90300000D03*
%TD*%
%TO.C,R16*%
X99210000Y-64350000D03*
X114450000Y-64350000D03*
%TD*%
D11*
%TO.C,D16*%
X95750000Y-65200000D03*
X95750000Y-63300000D03*
X93875000Y-64250000D03*
%TD*%
D13*
%TO.C,R9*%
X99330000Y-94550000D03*
X114570000Y-94550000D03*
%TD*%
%TO.C,R21*%
X103900000Y-105630000D03*
X103900000Y-120870000D03*
%TD*%
D16*
%TO.C,D5*%
X135700000Y-109650000D03*
X135700000Y-111550000D03*
X137575000Y-110600000D03*
%TD*%
D13*
%TO.C,R24*%
X152870000Y-81800000D03*
X137630000Y-81800000D03*
%TD*%
%TO.C,R11*%
X99280000Y-81700000D03*
X114520000Y-81700000D03*
%TD*%
M02*
