%TF.GenerationSoftware,KiCad,Pcbnew,10.0.0*%
%TF.CreationDate,2026-05-01T20:27:11+12:00*%
%TF.ProjectId,pico-74x-tester,7069636f-2d37-4347-982d-746573746572,rev?*%
%TF.SameCoordinates,Original*%
%TF.FileFunction,Copper,L4,Bot*%
%TF.FilePolarity,Positive*%
%FSLAX46Y46*%
G04 Gerber Fmt 4.6, Leading zero omitted, Abs format (unit mm)*
G04 Created by KiCad (PCBNEW 10.0.0) date 2026-05-01 20:27:11*
%MOMM*%
%LPD*%
G01*
G04 APERTURE LIST*
G04 Aperture macros list*
%AMRoundRect*
0 Rectangle with rounded corners*
0 $1 Rounding radius*
0 $2 $3 $4 $5 $6 $7 $8 $9 X,Y pos of 4 corners*
0 Add a 4 corners polygon primitive as box body*
4,1,4,$2,$3,$4,$5,$6,$7,$8,$9,$2,$3,0*
0 Add four circle primitives for the rounded corners*
1,1,$1+$1,$2,$3*
1,1,$1+$1,$4,$5*
1,1,$1+$1,$6,$7*
1,1,$1+$1,$8,$9*
0 Add four rect primitives between the rounded corners*
20,1,$1+$1,$2,$3,$4,$5,0*
20,1,$1+$1,$4,$5,$6,$7,0*
20,1,$1+$1,$6,$7,$8,$9,0*
20,1,$1+$1,$8,$9,$2,$3,0*%
G04 Aperture macros list end*
%TA.AperFunction,ComponentPad*%
%ADD10C,1.600000*%
%TD*%
%TA.AperFunction,ComponentPad*%
%ADD11C,2.000000*%
%TD*%
%TA.AperFunction,ComponentPad*%
%ADD12C,2.400000*%
%TD*%
%TA.AperFunction,ComponentPad*%
%ADD13R,1.700000X1.700000*%
%TD*%
%TA.AperFunction,ComponentPad*%
%ADD14C,1.700000*%
%TD*%
%TA.AperFunction,ComponentPad*%
%ADD15R,1.050000X1.500000*%
%TD*%
%TA.AperFunction,ComponentPad*%
%ADD16O,1.050000X1.500000*%
%TD*%
%TA.AperFunction,ComponentPad*%
%ADD17R,1.508000X1.508000*%
%TD*%
%TA.AperFunction,ComponentPad*%
%ADD18C,1.508000*%
%TD*%
%TA.AperFunction,ComponentPad*%
%ADD19R,2.000000X2.000000*%
%TD*%
%TA.AperFunction,ComponentPad*%
%ADD20RoundRect,0.250000X-0.550000X-0.550000X0.550000X-0.550000X0.550000X0.550000X-0.550000X0.550000X0*%
%TD*%
%TA.AperFunction,ComponentPad*%
%ADD21RoundRect,0.450000X-0.450000X0.450000X-0.450000X-0.450000X0.450000X-0.450000X0.450000X0.450000X0*%
%TD*%
%TA.AperFunction,ComponentPad*%
%ADD22C,1.800000*%
%TD*%
%TA.AperFunction,ComponentPad*%
%ADD23RoundRect,0.250000X-0.550000X0.550000X-0.550000X-0.550000X0.550000X-0.550000X0.550000X0.550000X0*%
%TD*%
%TA.AperFunction,ComponentPad*%
%ADD24RoundRect,0.250000X0.550000X-0.550000X0.550000X0.550000X-0.550000X0.550000X-0.550000X-0.550000X0*%
%TD*%
%TA.AperFunction,ViaPad*%
%ADD25C,0.600000*%
%TD*%
%TA.AperFunction,Conductor*%
%ADD26C,0.200000*%
%TD*%
%TA.AperFunction,Conductor*%
%ADD27C,1.000000*%
%TD*%
G04 APERTURE END LIST*
D10*
%TO.P,C5,1*%
%TO.N,+3.3V*%
X171850000Y-69860000D03*
%TO.P,C5,2*%
%TO.N,GND*%
X171850000Y-74860000D03*
%TD*%
%TO.P,C4,1*%
%TO.N,+3.3V*%
X186290000Y-64420000D03*
%TO.P,C4,2*%
%TO.N,GND*%
X186290000Y-69420000D03*
%TD*%
D11*
%TO.P,SW4,1,1_1*%
%TO.N,/Test {slash} enter Button*%
X144550000Y-129750000D03*
X151050000Y-129750000D03*
%TO.P,SW4,2,2_2*%
%TO.N,GND*%
X144550000Y-134250000D03*
X151050000Y-134250000D03*
%TD*%
D12*
%TO.P,R22,1*%
%TO.N,/RGB green*%
X98750000Y-105630000D03*
%TO.P,R22,2*%
%TO.N,Net-(U1-GPB1)*%
X98750000Y-120870000D03*
%TD*%
D13*
%TO.P,SW1,1,1_1*%
%TO.N,/OFF*%
X160950000Y-110150000D03*
D14*
%TO.P,SW1,2,2_2*%
%TO.N,/ZIF_14*%
X163490000Y-110150000D03*
%TO.P,SW1,3,3_3*%
%TO.N,/ZIF_16*%
X160950000Y-112690000D03*
%TO.P,SW1,4,4_4*%
%TO.N,/ZIF_20*%
X163490000Y-112690000D03*
%TO.P,SW1,5,5_5*%
%TO.N,/OFF*%
X160950000Y-115230000D03*
%TO.P,SW1,6,6_6*%
%TO.N,/ZIF_7*%
X163490000Y-115230000D03*
%TO.P,SW1,7,7_7*%
%TO.N,/ZIF_8*%
X160950000Y-117770000D03*
%TO.P,SW1,8,8_8*%
%TO.N,/ZIF_10*%
X163490000Y-117770000D03*
%TO.P,SW1,9,9_9*%
%TO.N,/OFF*%
X160950000Y-120310000D03*
%TO.P,SW1,10,10_10*%
%TO.N,/Package 14 sence*%
X163490000Y-120310000D03*
%TO.P,SW1,11,11_11*%
%TO.N,/<NO NET>*%
X160950000Y-122850000D03*
%TO.P,SW1,12,12_12*%
%TO.N,/Package 20 sence*%
X163490000Y-122850000D03*
%TO.P,SW1,13,13_13*%
%TO.N,/V_OUT*%
X160950000Y-125390000D03*
%TO.P,SW1,14,14_14*%
%TO.N,GND*%
X163490000Y-125390000D03*
%TO.P,SW1,15,15_15*%
X160950000Y-127930000D03*
%TO.P,SW1,16*%
%TO.N,N/C*%
X163490000Y-127930000D03*
%TD*%
D12*
%TO.P,R14,1*%
%TO.N,/ZIF_7*%
X99210000Y-73000000D03*
%TO.P,R14,2*%
%TO.N,/GP_8*%
X114450000Y-73000000D03*
%TD*%
%TO.P,R27,1*%
%TO.N,Net-(Q1-B)*%
X170290000Y-133250000D03*
%TO.P,R27,2*%
%TO.N,/BUZZER*%
X155050000Y-133250000D03*
%TD*%
%TO.P,R10,1*%
%TO.N,/ZIF_10*%
X99280000Y-86000000D03*
%TO.P,R10,2*%
%TO.N,/GP_11*%
X114520000Y-86000000D03*
%TD*%
%TO.P,R12,1*%
%TO.N,/ZIF_8*%
X99280000Y-77350000D03*
%TO.P,R12,2*%
%TO.N,/GP_9*%
X114520000Y-77350000D03*
%TD*%
%TO.P,R8,1*%
%TO.N,/ZIF_13*%
X99360000Y-98850000D03*
%TO.P,R8,2*%
%TO.N,/GP_14*%
X114600000Y-98850000D03*
%TD*%
D15*
%TO.P,Q1,1,E_1*%
%TO.N,GND*%
X167880000Y-128610000D03*
D16*
%TO.P,Q1,2,B_2*%
%TO.N,Net-(Q1-B)*%
X169150000Y-128610000D03*
%TO.P,Q1,3,C_3*%
%TO.N,Net-(BZ1--)*%
X170420000Y-128610000D03*
%TD*%
D12*
%TO.P,R3,1*%
%TO.N,/ZIF_18*%
X152870000Y-94500000D03*
%TO.P,R3,2*%
%TO.N,/GP_19*%
X137630000Y-94500000D03*
%TD*%
D17*
%TO.P,J2,1,GND_1*%
%TO.N,GND*%
X180760000Y-99100000D03*
D18*
%TO.P,J2,2,VCC_2*%
%TO.N,+3.3V*%
X178220000Y-99100000D03*
%TO.P,J2,3,SCL_3*%
%TO.N,/I2C SCL*%
X175680000Y-99100000D03*
%TO.P,J2,4,SDA_4*%
%TO.N,/I2C SDA*%
X173140000Y-99100000D03*
%TD*%
D12*
%TO.P,R2,1*%
%TO.N,/ZIF_19*%
X152890000Y-90250000D03*
%TO.P,R2,2*%
%TO.N,/GP_20*%
X137650000Y-90250000D03*
%TD*%
%TO.P,R1,1*%
%TO.N,/ZIF_20*%
X152890000Y-86000000D03*
%TO.P,R1,2*%
%TO.N,/GP_21*%
X137650000Y-86000000D03*
%TD*%
D10*
%TO.P,C3,1*%
%TO.N,+3.3V*%
X116550000Y-138800000D03*
%TO.P,C3,2*%
%TO.N,GND*%
X121550000Y-138800000D03*
%TD*%
D13*
%TO.P,SW6,1,A_1*%
%TO.N,/Voltage 3.3v sence*%
X150860000Y-122060000D03*
D14*
%TO.P,SW6,2,B_2*%
%TO.N,GND*%
X153400000Y-122060000D03*
%TO.P,SW6,3,C_3*%
%TO.N,/Volatge 5v sence*%
X155940000Y-122060000D03*
%TD*%
D12*
%TO.P,R25,1*%
%TO.N,/I2C SCL*%
X152890000Y-77650000D03*
%TO.P,R25,2*%
%TO.N,Net-(A1-GPIO21)*%
X137650000Y-77650000D03*
%TD*%
%TO.P,R7,1*%
%TO.N,/ZIF_14*%
X128000000Y-115120000D03*
%TO.P,R7,2*%
%TO.N,/GP_15*%
X128000000Y-99880000D03*
%TD*%
D19*
%TO.P,BZ1,1,+_1*%
%TO.N,+3.3V*%
X180950000Y-128100000D03*
D11*
%TO.P,BZ1,2,-_2*%
%TO.N,Net-(BZ1--)*%
X180950000Y-135700000D03*
%TD*%
D12*
%TO.P,R23,1*%
%TO.N,/RGB blue*%
X93600000Y-105630000D03*
%TO.P,R23,2*%
%TO.N,Net-(U1-GPB2)*%
X93600000Y-120870000D03*
%TD*%
D20*
%TO.P,A1,1,GPIO0_1*%
%TO.N,/GP_2*%
X118510000Y-46810000D03*
D10*
%TO.P,A1,2,GPIO1_2*%
%TO.N,/GP_3*%
X118510000Y-49350000D03*
%TO.P,A1,3,GND_3*%
%TO.N,GND*%
X118510000Y-51890000D03*
%TO.P,A1,4,GPIO2_4*%
%TO.N,/GP_4*%
X118510000Y-54430000D03*
%TO.P,A1,5,GPIO3_5*%
%TO.N,/GP_5*%
X118510000Y-56970000D03*
%TO.P,A1,6,GPIO4_6*%
%TO.N,/GP_6*%
X118510000Y-59510000D03*
%TO.P,A1,7,GPIO5_7*%
%TO.N,/GP_7*%
X118510000Y-62050000D03*
%TO.P,A1,8,GND_8*%
%TO.N,GND*%
X118510000Y-64590000D03*
%TO.P,A1,9,GPIO6_9*%
%TO.N,/GP_8*%
X118510000Y-67130000D03*
%TO.P,A1,10,GPIO7_10*%
%TO.N,/GP_9*%
X118510000Y-69670000D03*
%TO.P,A1,11,GPIO8_11*%
%TO.N,/GP_10*%
X118510000Y-72210000D03*
%TO.P,A1,12,GPIO9_12*%
%TO.N,/GP_11*%
X118510000Y-74750000D03*
%TO.P,A1,13,GND_13*%
%TO.N,GND*%
X118510000Y-77290000D03*
%TO.P,A1,14,GPIO10_14*%
%TO.N,/GP_12*%
X118510000Y-79830000D03*
%TO.P,A1,15,GPIO11_15*%
%TO.N,/GP_13*%
X118510000Y-82370000D03*
%TO.P,A1,16,GPIO12_16*%
%TO.N,/GP_14*%
X118510000Y-84910000D03*
%TO.P,A1,17,GPIO13_17*%
%TO.N,/GP_15*%
X118510000Y-87450000D03*
%TO.P,A1,18,GND_18*%
%TO.N,GND*%
X118510000Y-89990000D03*
%TO.P,A1,19,GPIO14_19*%
%TO.N,/GP_16*%
X118510000Y-92530000D03*
%TO.P,A1,20,GPIO15_20*%
%TO.N,/GP_17*%
X118510000Y-95070000D03*
%TO.P,A1,21,GPIO16_21*%
%TO.N,/GP_18*%
X133750000Y-95070000D03*
%TO.P,A1,22,GPIO17_22*%
%TO.N,/GP_19*%
X133750000Y-92530000D03*
%TO.P,A1,23,GND_23*%
%TO.N,GND*%
X133750000Y-89990000D03*
%TO.P,A1,24,GPIO18_24*%
%TO.N,/GP_20*%
X133750000Y-87450000D03*
%TO.P,A1,25,GPIO19_25*%
%TO.N,/GP_21*%
X133750000Y-84910000D03*
%TO.P,A1,26,GPIO20_26*%
%TO.N,Net-(A1-GPIO20)*%
X133750000Y-82370000D03*
%TO.P,A1,27,GPIO21_27*%
%TO.N,Net-(A1-GPIO21)*%
X133750000Y-79830000D03*
%TO.P,A1,28,GND_28*%
%TO.N,GND*%
X133750000Y-77290000D03*
%TO.P,A1,29,GPIO22_29*%
%TO.N,unconnected-(A1-GPIO22-Pad29)*%
X133750000Y-74750000D03*
%TO.P,A1,30,RUN_30*%
%TO.N,unconnected-(A1-RUN-Pad30)*%
X133750000Y-72210000D03*
%TO.P,A1,31,GPIO26_ADC0_31*%
%TO.N,unconnected-(A1-GPIO26_ADC0-Pad31)*%
X133750000Y-69670000D03*
%TO.P,A1,32,GPIO27_ADC1_32*%
%TO.N,unconnected-(A1-GPIO27_ADC1-Pad32)*%
X133750000Y-67130000D03*
%TO.P,A1,33,AGND_33*%
%TO.N,GND*%
X133750000Y-64590000D03*
%TO.P,A1,34,GPIO28_ADC2_34*%
%TO.N,unconnected-(A1-GPIO28_ADC2-Pad34)*%
X133750000Y-62050000D03*
%TO.P,A1,35,ADC_VREF_35*%
%TO.N,unconnected-(A1-ADC_VREF-Pad35)*%
X133750000Y-59510000D03*
%TO.P,A1,36,3V3_36*%
%TO.N,+3.3V*%
X133750000Y-56970000D03*
%TO.P,A1,37,3V3_EN_37*%
%TO.N,unconnected-(A1-3V3_EN-Pad37)*%
X133750000Y-54430000D03*
%TO.P,A1,38,GND_38*%
%TO.N,GND*%
X133750000Y-51890000D03*
%TO.P,A1,39,VSYS_39*%
%TO.N,unconnected-(A1-VSYS-Pad39)*%
X133750000Y-49350000D03*
%TO.P,A1,40,VBUS_40*%
%TO.N,+5V*%
X133750000Y-46810000D03*
%TD*%
D21*
%TO.P,D21,1,RA_1*%
%TO.N,/RGB red*%
X110400000Y-105250000D03*
D22*
%TO.P,D21,2,K_2*%
%TO.N,GND*%
X108876000Y-107028000D03*
%TO.P,D21,3,GA_3*%
%TO.N,/RGB green*%
X110400000Y-108552000D03*
%TO.P,D21,4,BA_4*%
%TO.N,/RGB blue*%
X108876000Y-110076000D03*
%TD*%
D12*
%TO.P,R4,1*%
%TO.N,/ZIF_17*%
X132200000Y-115140000D03*
%TO.P,R4,2*%
%TO.N,/GP_18*%
X132200000Y-99900000D03*
%TD*%
%TO.P,R5,1*%
%TO.N,/ZIF_16*%
X119600000Y-115140000D03*
%TO.P,R5,2*%
%TO.N,/GP_17*%
X119600000Y-99900000D03*
%TD*%
D23*
%TO.P,J1,1,Pin_1_1*%
%TO.N,/ZIF_1*%
X181230000Y-59290000D03*
D10*
%TO.P,J1,2,Pin_2_2*%
%TO.N,/ZIF_2*%
X178690000Y-59290000D03*
%TO.P,J1,3,Pin_3_3*%
%TO.N,/ZIF_3*%
X176150000Y-59290000D03*
%TO.P,J1,4,Pin_4_4*%
%TO.N,/ZIF_4*%
X173610000Y-59290000D03*
%TO.P,J1,5,Pin_5_5*%
%TO.N,/ZIF_5*%
X171070000Y-59290000D03*
%TO.P,J1,6,Pin_6_6*%
%TO.N,/ZIF_6*%
X168530000Y-59290000D03*
%TO.P,J1,7,Pin_7_7*%
%TO.N,/ZIF_7*%
X165990000Y-59290000D03*
%TO.P,J1,8,Pin_8_8*%
%TO.N,/ZIF_8*%
X163450000Y-59290000D03*
%TO.P,J1,9,Pin_9_9*%
%TO.N,/ZIF_9*%
X160910000Y-59290000D03*
%TO.P,J1,10,Pin_10_10*%
%TO.N,/ZIF_10*%
X158370000Y-59290000D03*
%TO.P,J1,11,Pin_11_11*%
%TO.N,/ZIF_11*%
X158370000Y-66910000D03*
%TO.P,J1,12,Pin_12_12*%
%TO.N,/ZIF_12*%
X160910000Y-66910000D03*
%TO.P,J1,13,Pin_13_13*%
%TO.N,/ZIF_13*%
X163450000Y-66910000D03*
%TO.P,J1,14,Pin_14_14*%
%TO.N,/ZIF_14*%
X165990000Y-66910000D03*
%TO.P,J1,15,Pin_15_15*%
%TO.N,/ZIF_15*%
X168530000Y-66910000D03*
%TO.P,J1,16,Pin_16_16*%
%TO.N,/ZIF_16*%
X171070000Y-66910000D03*
%TO.P,J1,17,Pin_17_17*%
%TO.N,/ZIF_17*%
X173610000Y-66910000D03*
%TO.P,J1,18,Pin_18_18*%
%TO.N,/ZIF_18*%
X176150000Y-66910000D03*
%TO.P,J1,19,Pin_19_19*%
%TO.N,/ZIF_19*%
X178690000Y-66910000D03*
%TO.P,J1,20,Pin_20_20*%
%TO.N,/ZIF_20*%
X181230000Y-66910000D03*
%TD*%
D12*
%TO.P,R6,1*%
%TO.N,/ZIF_15*%
X123800000Y-115120000D03*
%TO.P,R6,2*%
%TO.N,/GP_16*%
X123800000Y-99880000D03*
%TD*%
%TO.P,R15,1*%
%TO.N,/ZIF_6*%
X99210000Y-68700000D03*
%TO.P,R15,2*%
%TO.N,/GP_7*%
X114450000Y-68700000D03*
%TD*%
%TO.P,R19,1*%
%TO.N,/ZIF_2*%
X99160000Y-51450000D03*
%TO.P,R19,2*%
%TO.N,/GP_3*%
X114400000Y-51450000D03*
%TD*%
D24*
%TO.P,U1,1,GPB0_1*%
%TO.N,Net-(U1-GPB0)*%
X97540000Y-134555000D03*
D10*
%TO.P,U1,2,GPB1_2*%
%TO.N,Net-(U1-GPB1)*%
X100080000Y-134555000D03*
%TO.P,U1,3,GPB2_3*%
%TO.N,Net-(U1-GPB2)*%
X102620000Y-134555000D03*
%TO.P,U1,4,GPB3_4*%
%TO.N,/BUZZER*%
X105160000Y-134555000D03*
%TO.P,U1,5,GPB4_5*%
%TO.N,unconnected-(U1-GPB4-Pad5)*%
X107700000Y-134555000D03*
%TO.P,U1,6,GPB5_6*%
%TO.N,unconnected-(U1-GPB5-Pad6)*%
X110240000Y-134555000D03*
%TO.P,U1,7,GPB6_7*%
%TO.N,unconnected-(U1-GPB6-Pad7)*%
X112780000Y-134555000D03*
%TO.P,U1,8,GPB7_8*%
%TO.N,unconnected-(U1-GPB7-Pad8)*%
X115320000Y-134555000D03*
%TO.P,U1,9,V_{DD}_9*%
%TO.N,+3.3V*%
X117860000Y-134555000D03*
%TO.P,U1,10,V_{SS}_10*%
%TO.N,GND*%
X120400000Y-134555000D03*
%TO.P,U1,11,NC_11*%
%TO.N,unconnected-(U1-NC-Pad11)*%
X122940000Y-134555000D03*
%TO.P,U1,12,SCK_12*%
%TO.N,/I2C SDA*%
X125480000Y-134555000D03*
%TO.P,U1,13,SDA_13*%
%TO.N,/I2C SCL*%
X128020000Y-134555000D03*
%TO.P,U1,14,NC_14*%
%TO.N,unconnected-(U1-NC-Pad14)*%
X130560000Y-134555000D03*
%TO.P,U1,15,A0_15*%
%TO.N,GND*%
X130560000Y-126935000D03*
%TO.P,U1,16,A1_16*%
X128020000Y-126935000D03*
%TO.P,U1,17,A2_17*%
X125480000Y-126935000D03*
%TO.P,U1,18,~{RESET}_18*%
%TO.N,Net-(U1-~{RESET})*%
X122940000Y-126935000D03*
%TO.P,U1,19,INTB_19*%
%TO.N,unconnected-(U1-INTB-Pad19)*%
X120400000Y-126935000D03*
%TO.P,U1,20,INTA_20*%
%TO.N,unconnected-(U1-INTA-Pad20)*%
X117860000Y-126935000D03*
%TO.P,U1,21,GPA0_21*%
%TO.N,/Next {slash} select Button*%
X115320000Y-126935000D03*
%TO.P,U1,22,GPA1_22*%
%TO.N,/Test {slash} enter Button*%
X112780000Y-126935000D03*
%TO.P,U1,23,GPA2_23*%
%TO.N,/Package 14 sence*%
X110240000Y-126935000D03*
%TO.P,U1,24,GPA3_24*%
%TO.N,/<NO NET>*%
X107700000Y-126935000D03*
%TO.P,U1,25,GPA4_25*%
%TO.N,/Package 20 sence*%
X105160000Y-126935000D03*
%TO.P,U1,26,GPA5_26*%
%TO.N,/Voltage 3.3v sence*%
X102620000Y-126935000D03*
%TO.P,U1,27,GPA6_27*%
%TO.N,/Volatge 5v sence*%
X100080000Y-126935000D03*
%TO.P,U1,28,GPA7_28*%
%TO.N,unconnected-(U1-GPA7-Pad28)*%
X97540000Y-126935000D03*
%TD*%
D12*
%TO.P,R26,1*%
%TO.N,Net-(U1-~{RESET})*%
X115150000Y-120820000D03*
%TO.P,R26,2*%
%TO.N,+3.3V*%
X115150000Y-105580000D03*
%TD*%
%TO.P,R18,1*%
%TO.N,/ZIF_3*%
X99210000Y-55750000D03*
%TO.P,R18,2*%
%TO.N,/GP_4*%
X114450000Y-55750000D03*
%TD*%
%TO.P,R17,1*%
%TO.N,/ZIF_4*%
X99210000Y-60050000D03*
%TO.P,R17,2*%
%TO.N,/GP_5*%
X114450000Y-60050000D03*
%TD*%
D24*
%TO.P,C2,1*%
%TO.N,+3.3V*%
X142650000Y-57550000D03*
D10*
%TO.P,C2,2*%
%TO.N,GND*%
X142650000Y-52550000D03*
%TD*%
D13*
%TO.P,SW5,1,A_1*%
%TO.N,+3.3V*%
X150870000Y-125670000D03*
D14*
%TO.P,SW5,2,B_2*%
%TO.N,/V_OUT*%
X153410000Y-125670000D03*
%TO.P,SW5,3,C_3*%
%TO.N,+5V*%
X155950000Y-125670000D03*
%TD*%
D11*
%TO.P,SW2,1,1_1*%
%TO.N,/Next {slash} select Button*%
X134300000Y-129750000D03*
X140800000Y-129750000D03*
%TO.P,SW2,2,2_2*%
%TO.N,GND*%
X134300000Y-134250000D03*
X140800000Y-134250000D03*
%TD*%
D12*
%TO.P,R20,1*%
%TO.N,/ZIF_1*%
X99110000Y-47150000D03*
%TO.P,R20,2*%
%TO.N,/GP_2*%
X114350000Y-47150000D03*
%TD*%
D10*
%TO.P,C1,1*%
%TO.N,+3.3V*%
X136800000Y-57250000D03*
%TO.P,C1,2*%
%TO.N,GND*%
X136800000Y-52250000D03*
%TD*%
D12*
%TO.P,R28,1*%
%TO.N,Net-(Q1-B)*%
X170270000Y-137600000D03*
%TO.P,R28,2*%
%TO.N,GND*%
X155030000Y-137600000D03*
%TD*%
%TO.P,R13,1*%
%TO.N,/ZIF_11*%
X99330000Y-90300000D03*
%TO.P,R13,2*%
%TO.N,/GP_12*%
X114570000Y-90300000D03*
%TD*%
%TO.P,R16,1*%
%TO.N,/ZIF_5*%
X99210000Y-64350000D03*
%TO.P,R16,2*%
%TO.N,/GP_6*%
X114450000Y-64350000D03*
%TD*%
%TO.P,R9,1*%
%TO.N,/ZIF_12*%
X99330000Y-94550000D03*
%TO.P,R9,2*%
%TO.N,/GP_13*%
X114570000Y-94550000D03*
%TD*%
%TO.P,R21,1*%
%TO.N,/RGB red*%
X103900000Y-105630000D03*
%TO.P,R21,2*%
%TO.N,Net-(U1-GPB0)*%
X103900000Y-120870000D03*
%TD*%
%TO.P,R24,1*%
%TO.N,/I2C SDA*%
X152870000Y-81800000D03*
%TO.P,R24,2*%
%TO.N,Net-(A1-GPIO20)*%
X137630000Y-81800000D03*
%TD*%
%TO.P,R11,1*%
%TO.N,/ZIF_9*%
X99280000Y-81700000D03*
%TO.P,R11,2*%
%TO.N,/GP_10*%
X114520000Y-81700000D03*
%TD*%
D25*
%TO.N,+3.3V*%
X93450000Y-84250000D03*
X93450000Y-50200000D03*
X93525000Y-75825000D03*
X139450000Y-97900000D03*
X93425000Y-88775000D03*
X93475000Y-67125000D03*
X138750000Y-111550000D03*
X93425000Y-58475000D03*
X147325000Y-100325000D03*
X138325000Y-104825000D03*
X138625000Y-108325000D03*
X93525000Y-71575000D03*
X93575000Y-93075000D03*
X93425000Y-62625000D03*
X93475000Y-80175000D03*
X143800000Y-100200000D03*
X138850000Y-101250000D03*
X93475000Y-54325000D03*
X93550000Y-97300000D03*
X93550000Y-45650000D03*
%TO.N,GND*%
X92400000Y-60100000D03*
X139300000Y-103750000D03*
X92400000Y-68700000D03*
X92450000Y-98900000D03*
X92450000Y-94550000D03*
X92450000Y-51600000D03*
X92400000Y-90300000D03*
X92450000Y-77350000D03*
X92400000Y-86100000D03*
X148800000Y-101250000D03*
X139150000Y-107050000D03*
X141600000Y-101250000D03*
X139200000Y-100050000D03*
X92450000Y-64250000D03*
X92450000Y-47250000D03*
X92350000Y-55850000D03*
X139200000Y-110600000D03*
X92400000Y-73000000D03*
X145150000Y-101350000D03*
X92400000Y-81750000D03*
%TO.N,/ZIF_14*%
X151245000Y-104225000D03*
X151855000Y-103775000D03*
X150600000Y-104790000D03*
%TO.N,/ZIF_16*%
X151865000Y-106555000D03*
X151020000Y-107320000D03*
X150314951Y-108035049D03*
%TO.N,/ZIF_20*%
X171620000Y-87630000D03*
X171200000Y-88050000D03*
X172160000Y-87090000D03*
%TO.N,/ZIF_7*%
X170850000Y-64100000D03*
%TO.N,/ZIF_18*%
X165900000Y-94250000D03*
%TO.N,/ZIF_19*%
X167032108Y-90332108D03*
%TO.N,/ZIF_17*%
X165250000Y-95100000D03*
%TD*%
%TO.N,/ZIF_14*%
D26*
X150170000Y-105220000D02*
X148620000Y-105220000D01*
X140540000Y-113300000D02*
X129820000Y-113300000D01*
D27*
X151855000Y-103775000D02*
X160380000Y-95250000D01*
X150840000Y-104790000D02*
X151855000Y-103775000D01*
X160380000Y-95250000D02*
X160380000Y-73470000D01*
X150600000Y-104790000D02*
X150840000Y-104790000D01*
X165990000Y-67860000D02*
X165990000Y-66910000D01*
D26*
X129820000Y-113300000D02*
X128000000Y-115120000D01*
D27*
X160380000Y-73470000D02*
X165990000Y-67860000D01*
D26*
X148620000Y-105220000D02*
X140540000Y-113300000D01*
X150600000Y-104790000D02*
X150170000Y-105220000D01*
%TO.N,/ZIF_16*%
X150314951Y-108035049D02*
X150390000Y-107960000D01*
D27*
X162190000Y-96230000D02*
X162190000Y-76060000D01*
D26*
X141200000Y-117150000D02*
X125264314Y-117150000D01*
D27*
X162190000Y-76060000D02*
X171070000Y-67180000D01*
D26*
X121160000Y-116700000D02*
X119600000Y-115140000D01*
D27*
X150460000Y-107960000D02*
X151865000Y-106555000D01*
D26*
X124814314Y-116700000D02*
X121160000Y-116700000D01*
X150314951Y-108035049D02*
X141200000Y-117150000D01*
X150390000Y-107960000D02*
X150460000Y-107960000D01*
D27*
X171070000Y-67180000D02*
X171070000Y-66910000D01*
D26*
X125264314Y-117150000D02*
X124814314Y-116700000D01*
D27*
X151865000Y-106555000D02*
X162190000Y-96230000D01*
%TO.N,/ZIF_20*%
X171080000Y-88220000D02*
X171080000Y-88170000D01*
X181230000Y-78020000D02*
X181230000Y-66910000D01*
X171080000Y-88170000D02*
X181230000Y-78020000D01*
%TO.N,/ZIF_7*%
D26*
X103750000Y-49357058D02*
X108857058Y-44250000D01*
X170850000Y-64100000D02*
X170800000Y-64100000D01*
X165990000Y-56140000D02*
X165990000Y-59290000D01*
X154100000Y-44250000D02*
X165990000Y-56140000D01*
X103750000Y-68460000D02*
X103750000Y-49357058D01*
X170800000Y-64100000D02*
X165990000Y-59290000D01*
X99210000Y-73000000D02*
X103750000Y-68460000D01*
X108857058Y-44250000D02*
X154100000Y-44250000D01*
%TO.N,/ZIF_8*%
X153850000Y-44650000D02*
X109100000Y-44650000D01*
X104250000Y-72380000D02*
X99280000Y-77350000D01*
X104250000Y-49500000D02*
X104250000Y-72380000D01*
X109100000Y-44650000D02*
X104250000Y-49500000D01*
X163450000Y-59290000D02*
X163450000Y-54250000D01*
X163450000Y-54250000D02*
X153850000Y-44650000D01*
%TO.N,/ZIF_10*%
X153450000Y-45450000D02*
X109431372Y-45450000D01*
X158370000Y-59290000D02*
X158370000Y-50370000D01*
X105150000Y-49731372D02*
X105150000Y-80130000D01*
X105150000Y-80130000D02*
X99280000Y-86000000D01*
X109431372Y-45450000D02*
X105150000Y-49731372D01*
X158370000Y-50370000D02*
X153450000Y-45450000D01*
%TO.N,/ZIF_13*%
X159550000Y-94920000D02*
X159550000Y-70810000D01*
X159550000Y-70810000D02*
X163450000Y-66910000D01*
X103510000Y-103000000D02*
X151470000Y-103000000D01*
X99360000Y-98850000D02*
X103510000Y-103000000D01*
X151470000Y-103000000D02*
X159550000Y-94920000D01*
%TO.N,/ZIF_18*%
X165900000Y-90615686D02*
X176150000Y-80365686D01*
X165900000Y-94250000D02*
X165900000Y-90615686D01*
X176150000Y-80365686D02*
X176150000Y-66910000D01*
%TO.N,/I2C SCL*%
X128950000Y-133500000D02*
X128950000Y-132815685D01*
X128020000Y-134555000D02*
X128020000Y-134430000D01*
X128950000Y-132815685D02*
X161115685Y-100650000D01*
X128020000Y-134430000D02*
X128950000Y-133500000D01*
X161115685Y-100650000D02*
X174130000Y-100650000D01*
X174130000Y-100650000D02*
X175680000Y-99100000D01*
%TO.N,/I2C SDA*%
X143812741Y-117215688D02*
X160778427Y-100250000D01*
X126835000Y-133200000D02*
X127400000Y-133200000D01*
X160778427Y-100250000D02*
X171990000Y-100250000D01*
X127400000Y-133200000D02*
X143050000Y-117550000D01*
X171990000Y-100250000D02*
X173140000Y-99100000D01*
X143050000Y-117550000D02*
X143478426Y-117550000D01*
X125480000Y-134555000D02*
X126835000Y-133200000D01*
X143478426Y-117550000D02*
X143812741Y-117215688D01*
%TO.N,/ZIF_19*%
X178690000Y-78510000D02*
X178690000Y-66910000D01*
X167032108Y-90167892D02*
X178690000Y-78510000D01*
X167032108Y-90332108D02*
X167032108Y-90167892D01*
%TO.N,/ZIF_17*%
X173610000Y-82340000D02*
X173610000Y-66910000D01*
X165300000Y-95050000D02*
X165300000Y-90650000D01*
X165300000Y-90650000D02*
X173610000Y-82340000D01*
X165250000Y-95100000D02*
X165300000Y-95050000D01*
%TO.N,/ZIF_1*%
X99110000Y-47150000D02*
X102562942Y-47150000D01*
X181230000Y-58680000D02*
X181230000Y-59290000D01*
X164400000Y-41850000D02*
X181230000Y-58680000D01*
X102562942Y-47150000D02*
X107862944Y-41850000D01*
X107862944Y-41850000D02*
X164400000Y-41850000D01*
%TO.N,/ZIF_2*%
X162150000Y-42250000D02*
X178690000Y-58790000D01*
X101500000Y-48778628D02*
X108028629Y-42250000D01*
X108028629Y-42250000D02*
X162150000Y-42250000D01*
X99160000Y-51450000D02*
X101500000Y-49110000D01*
X178690000Y-58790000D02*
X178690000Y-59290000D01*
X101500000Y-49110000D02*
X101500000Y-48778628D01*
%TO.N,/ZIF_3*%
X101900000Y-48944314D02*
X108194314Y-42650000D01*
X108194314Y-42650000D02*
X160150000Y-42650000D01*
X176150000Y-58650000D02*
X176150000Y-59290000D01*
X101900000Y-53060000D02*
X101900000Y-48944314D01*
X99210000Y-55750000D02*
X101900000Y-53060000D01*
X160150000Y-42650000D02*
X176150000Y-58650000D01*
%TO.N,/ZIF_4*%
X108360000Y-43050000D02*
X158400000Y-43050000D01*
X99210000Y-60050000D02*
X102400000Y-56860000D01*
X102400000Y-56860000D02*
X102400000Y-49010000D01*
X173610000Y-58260000D02*
X173610000Y-59290000D01*
X102400000Y-49010000D02*
X108360000Y-43050000D01*
X158400000Y-43050000D02*
X173610000Y-58260000D01*
%TO.N,/ZIF_5*%
X171070000Y-58120000D02*
X171070000Y-59290000D01*
X108525687Y-43450000D02*
X156400000Y-43450000D01*
X99210000Y-64350000D02*
X102850000Y-60710000D01*
X156400000Y-43450000D02*
X171070000Y-58120000D01*
X102850000Y-60710000D02*
X102850000Y-49125686D01*
X102850000Y-49125686D02*
X108525687Y-43450000D01*
%TO.N,/ZIF_6*%
X168530000Y-57180000D02*
X168530000Y-59290000D01*
X108691372Y-43850000D02*
X155200000Y-43850000D01*
X103250000Y-64660000D02*
X103250000Y-49291372D01*
X99210000Y-68700000D02*
X103250000Y-64660000D01*
X155200000Y-43850000D02*
X168530000Y-57180000D01*
X103250000Y-49291372D02*
X108691372Y-43850000D01*
%TO.N,/ZIF_9*%
X160900000Y-52334315D02*
X153615685Y-45050000D01*
X104750000Y-49665686D02*
X104700000Y-49615686D01*
X104750000Y-49565687D02*
X104750000Y-49665686D01*
X104700000Y-76280000D02*
X99280000Y-81700000D01*
X104700000Y-49615686D02*
X104700000Y-76280000D01*
X153615685Y-45050000D02*
X109265686Y-45050000D01*
X109265686Y-45050000D02*
X104750000Y-49565687D01*
X160900000Y-59280000D02*
X160900000Y-52334315D01*
X160910000Y-59290000D02*
X160900000Y-59280000D01*
%TO.N,/ZIF_11*%
X150430000Y-102200000D02*
X158370000Y-94260000D01*
X99330000Y-90300000D02*
X102100000Y-90300000D01*
X114000000Y-102200000D02*
X150430000Y-102200000D01*
X158370000Y-94260000D02*
X158370000Y-66910000D01*
X102100000Y-90300000D02*
X114000000Y-102200000D01*
%TO.N,/ZIF_12*%
X158990000Y-94600000D02*
X158990000Y-68830000D01*
X150990000Y-102600000D02*
X158990000Y-94600000D01*
X99330000Y-94550000D02*
X107380000Y-102600000D01*
X158990000Y-68830000D02*
X160910000Y-66910000D01*
X107380000Y-102600000D02*
X150990000Y-102600000D01*
%TO.N,/ZIF_15*%
X125430000Y-116750000D02*
X123800000Y-115120000D01*
X161180000Y-95581370D02*
X151171370Y-105590000D01*
X139950000Y-116750000D02*
X125430000Y-116750000D01*
X168530000Y-66910000D02*
X161180000Y-74260000D01*
X151171370Y-105590000D02*
X151110000Y-105590000D01*
X151110000Y-105590000D02*
X139950000Y-116750000D01*
X161180000Y-74260000D02*
X161180000Y-95581370D01*
%TO.N,Net-(U1-~{RESET})*%
X116825000Y-120820000D02*
X115150000Y-120820000D01*
X122940000Y-126935000D02*
X116825000Y-120820000D01*
%TD*%
M02*
