%TF.GenerationSoftware,KiCad,Pcbnew,10.0.0*%
%TF.CreationDate,2026-07-30T19:42:54+12:00*%
%TF.ProjectId,top-board,746f702d-626f-4617-9264-2e6b69636164,rev?*%
%TF.SameCoordinates,Original*%
%TF.FileFunction,Legend,Bot*%
%TF.FilePolarity,Positive*%
%FSLAX46Y46*%
G04 Gerber Fmt 4.6, Leading zero omitted, Abs format (unit mm)*
G04 Created by KiCad (PCBNEW 10.0.0) date 2026-07-30 19:42:54*
%MOMM*%
%LPD*%
G01*
G04 APERTURE LIST*
%ADD10C,0.400000*%
%ADD11C,0.150000*%
%ADD12C,0.200000*%
G04 APERTURE END LIST*
D10*
X152650652Y-66575110D02*
X152650652Y-64575110D01*
X152650652Y-64575110D02*
X151888747Y-64575110D01*
X151888747Y-64575110D02*
X151698271Y-64670348D01*
X151698271Y-64670348D02*
X151603033Y-64765586D01*
X151603033Y-64765586D02*
X151507795Y-64956062D01*
X151507795Y-64956062D02*
X151507795Y-65241776D01*
X151507795Y-65241776D02*
X151603033Y-65432252D01*
X151603033Y-65432252D02*
X151698271Y-65527491D01*
X151698271Y-65527491D02*
X151888747Y-65622729D01*
X151888747Y-65622729D02*
X152650652Y-65622729D01*
X150650652Y-66575110D02*
X150650652Y-65241776D01*
X150650652Y-64575110D02*
X150745890Y-64670348D01*
X150745890Y-64670348D02*
X150650652Y-64765586D01*
X150650652Y-64765586D02*
X150555414Y-64670348D01*
X150555414Y-64670348D02*
X150650652Y-64575110D01*
X150650652Y-64575110D02*
X150650652Y-64765586D01*
X148841128Y-66479872D02*
X149031604Y-66575110D01*
X149031604Y-66575110D02*
X149412557Y-66575110D01*
X149412557Y-66575110D02*
X149603033Y-66479872D01*
X149603033Y-66479872D02*
X149698271Y-66384633D01*
X149698271Y-66384633D02*
X149793509Y-66194157D01*
X149793509Y-66194157D02*
X149793509Y-65622729D01*
X149793509Y-65622729D02*
X149698271Y-65432252D01*
X149698271Y-65432252D02*
X149603033Y-65337014D01*
X149603033Y-65337014D02*
X149412557Y-65241776D01*
X149412557Y-65241776D02*
X149031604Y-65241776D01*
X149031604Y-65241776D02*
X148841128Y-65337014D01*
X147698271Y-66575110D02*
X147888747Y-66479872D01*
X147888747Y-66479872D02*
X147983985Y-66384633D01*
X147983985Y-66384633D02*
X148079223Y-66194157D01*
X148079223Y-66194157D02*
X148079223Y-65622729D01*
X148079223Y-65622729D02*
X147983985Y-65432252D01*
X147983985Y-65432252D02*
X147888747Y-65337014D01*
X147888747Y-65337014D02*
X147698271Y-65241776D01*
X147698271Y-65241776D02*
X147412556Y-65241776D01*
X147412556Y-65241776D02*
X147222080Y-65337014D01*
X147222080Y-65337014D02*
X147126842Y-65432252D01*
X147126842Y-65432252D02*
X147031604Y-65622729D01*
X147031604Y-65622729D02*
X147031604Y-66194157D01*
X147031604Y-66194157D02*
X147126842Y-66384633D01*
X147126842Y-66384633D02*
X147222080Y-66479872D01*
X147222080Y-66479872D02*
X147412556Y-66575110D01*
X147412556Y-66575110D02*
X147698271Y-66575110D01*
X144841127Y-64575110D02*
X143507794Y-64575110D01*
X143507794Y-64575110D02*
X144364937Y-66575110D01*
X141888746Y-65241776D02*
X141888746Y-66575110D01*
X142364937Y-64479872D02*
X142841127Y-65908443D01*
X142841127Y-65908443D02*
X141603032Y-65908443D01*
X141031603Y-66575110D02*
X139983984Y-65241776D01*
X141031603Y-65241776D02*
X139983984Y-66575110D01*
X139412555Y-66575110D02*
X138364936Y-65241776D01*
X139412555Y-65241776D02*
X138364936Y-66575110D01*
X136364935Y-64575110D02*
X135222078Y-64575110D01*
X135793507Y-66575110D02*
X135793507Y-64575110D01*
X133793506Y-66479872D02*
X133983982Y-66575110D01*
X133983982Y-66575110D02*
X134364935Y-66575110D01*
X134364935Y-66575110D02*
X134555411Y-66479872D01*
X134555411Y-66479872D02*
X134650649Y-66289395D01*
X134650649Y-66289395D02*
X134650649Y-65527491D01*
X134650649Y-65527491D02*
X134555411Y-65337014D01*
X134555411Y-65337014D02*
X134364935Y-65241776D01*
X134364935Y-65241776D02*
X133983982Y-65241776D01*
X133983982Y-65241776D02*
X133793506Y-65337014D01*
X133793506Y-65337014D02*
X133698268Y-65527491D01*
X133698268Y-65527491D02*
X133698268Y-65717967D01*
X133698268Y-65717967D02*
X134650649Y-65908443D01*
X132936363Y-66479872D02*
X132745887Y-66575110D01*
X132745887Y-66575110D02*
X132364935Y-66575110D01*
X132364935Y-66575110D02*
X132174458Y-66479872D01*
X132174458Y-66479872D02*
X132079220Y-66289395D01*
X132079220Y-66289395D02*
X132079220Y-66194157D01*
X132079220Y-66194157D02*
X132174458Y-66003681D01*
X132174458Y-66003681D02*
X132364935Y-65908443D01*
X132364935Y-65908443D02*
X132650649Y-65908443D01*
X132650649Y-65908443D02*
X132841125Y-65813205D01*
X132841125Y-65813205D02*
X132936363Y-65622729D01*
X132936363Y-65622729D02*
X132936363Y-65527491D01*
X132936363Y-65527491D02*
X132841125Y-65337014D01*
X132841125Y-65337014D02*
X132650649Y-65241776D01*
X132650649Y-65241776D02*
X132364935Y-65241776D01*
X132364935Y-65241776D02*
X132174458Y-65337014D01*
X131507791Y-65241776D02*
X130745887Y-65241776D01*
X131222077Y-64575110D02*
X131222077Y-66289395D01*
X131222077Y-66289395D02*
X131126839Y-66479872D01*
X131126839Y-66479872D02*
X130936363Y-66575110D01*
X130936363Y-66575110D02*
X130745887Y-66575110D01*
X129317315Y-66479872D02*
X129507791Y-66575110D01*
X129507791Y-66575110D02*
X129888744Y-66575110D01*
X129888744Y-66575110D02*
X130079220Y-66479872D01*
X130079220Y-66479872D02*
X130174458Y-66289395D01*
X130174458Y-66289395D02*
X130174458Y-65527491D01*
X130174458Y-65527491D02*
X130079220Y-65337014D01*
X130079220Y-65337014D02*
X129888744Y-65241776D01*
X129888744Y-65241776D02*
X129507791Y-65241776D01*
X129507791Y-65241776D02*
X129317315Y-65337014D01*
X129317315Y-65337014D02*
X129222077Y-65527491D01*
X129222077Y-65527491D02*
X129222077Y-65717967D01*
X129222077Y-65717967D02*
X130174458Y-65908443D01*
X128364934Y-66575110D02*
X128364934Y-65241776D01*
X128364934Y-65622729D02*
X128269696Y-65432252D01*
X128269696Y-65432252D02*
X128174458Y-65337014D01*
X128174458Y-65337014D02*
X127983982Y-65241776D01*
X127983982Y-65241776D02*
X127793505Y-65241776D01*
X152650652Y-69794998D02*
X152650652Y-67794998D01*
X152650652Y-67794998D02*
X151983985Y-69223569D01*
X151983985Y-69223569D02*
X151317319Y-67794998D01*
X151317319Y-67794998D02*
X151317319Y-69794998D01*
X150079224Y-69794998D02*
X150269700Y-69699760D01*
X150269700Y-69699760D02*
X150364938Y-69604521D01*
X150364938Y-69604521D02*
X150460176Y-69414045D01*
X150460176Y-69414045D02*
X150460176Y-68842617D01*
X150460176Y-68842617D02*
X150364938Y-68652140D01*
X150364938Y-68652140D02*
X150269700Y-68556902D01*
X150269700Y-68556902D02*
X150079224Y-68461664D01*
X150079224Y-68461664D02*
X149793509Y-68461664D01*
X149793509Y-68461664D02*
X149603033Y-68556902D01*
X149603033Y-68556902D02*
X149507795Y-68652140D01*
X149507795Y-68652140D02*
X149412557Y-68842617D01*
X149412557Y-68842617D02*
X149412557Y-69414045D01*
X149412557Y-69414045D02*
X149507795Y-69604521D01*
X149507795Y-69604521D02*
X149603033Y-69699760D01*
X149603033Y-69699760D02*
X149793509Y-69794998D01*
X149793509Y-69794998D02*
X150079224Y-69794998D01*
X147698271Y-69794998D02*
X147698271Y-67794998D01*
X147698271Y-69699760D02*
X147888747Y-69794998D01*
X147888747Y-69794998D02*
X148269700Y-69794998D01*
X148269700Y-69794998D02*
X148460176Y-69699760D01*
X148460176Y-69699760D02*
X148555414Y-69604521D01*
X148555414Y-69604521D02*
X148650652Y-69414045D01*
X148650652Y-69414045D02*
X148650652Y-68842617D01*
X148650652Y-68842617D02*
X148555414Y-68652140D01*
X148555414Y-68652140D02*
X148460176Y-68556902D01*
X148460176Y-68556902D02*
X148269700Y-68461664D01*
X148269700Y-68461664D02*
X147888747Y-68461664D01*
X147888747Y-68461664D02*
X147698271Y-68556902D01*
X145983985Y-69699760D02*
X146174461Y-69794998D01*
X146174461Y-69794998D02*
X146555414Y-69794998D01*
X146555414Y-69794998D02*
X146745890Y-69699760D01*
X146745890Y-69699760D02*
X146841128Y-69509283D01*
X146841128Y-69509283D02*
X146841128Y-68747379D01*
X146841128Y-68747379D02*
X146745890Y-68556902D01*
X146745890Y-68556902D02*
X146555414Y-68461664D01*
X146555414Y-68461664D02*
X146174461Y-68461664D01*
X146174461Y-68461664D02*
X145983985Y-68556902D01*
X145983985Y-68556902D02*
X145888747Y-68747379D01*
X145888747Y-68747379D02*
X145888747Y-68937855D01*
X145888747Y-68937855D02*
X146841128Y-69128331D01*
X144745890Y-69794998D02*
X144936366Y-69699760D01*
X144936366Y-69699760D02*
X145031604Y-69509283D01*
X145031604Y-69509283D02*
X145031604Y-67794998D01*
X143983985Y-69604521D02*
X143888747Y-69699760D01*
X143888747Y-69699760D02*
X143983985Y-69794998D01*
X143983985Y-69794998D02*
X144079223Y-69699760D01*
X144079223Y-69699760D02*
X143983985Y-69604521D01*
X143983985Y-69604521D02*
X143983985Y-69794998D01*
X143983985Y-68556902D02*
X143888747Y-68652140D01*
X143888747Y-68652140D02*
X143983985Y-68747379D01*
X143983985Y-68747379D02*
X144079223Y-68652140D01*
X144079223Y-68652140D02*
X143983985Y-68556902D01*
X143983985Y-68556902D02*
X143983985Y-68747379D01*
X141126842Y-67794998D02*
X140745889Y-67794998D01*
X140745889Y-67794998D02*
X140555413Y-67890236D01*
X140555413Y-67890236D02*
X140364937Y-68080712D01*
X140364937Y-68080712D02*
X140269699Y-68461664D01*
X140269699Y-68461664D02*
X140269699Y-69128331D01*
X140269699Y-69128331D02*
X140364937Y-69509283D01*
X140364937Y-69509283D02*
X140555413Y-69699760D01*
X140555413Y-69699760D02*
X140745889Y-69794998D01*
X140745889Y-69794998D02*
X141126842Y-69794998D01*
X141126842Y-69794998D02*
X141317318Y-69699760D01*
X141317318Y-69699760D02*
X141507794Y-69509283D01*
X141507794Y-69509283D02*
X141603032Y-69128331D01*
X141603032Y-69128331D02*
X141603032Y-68461664D01*
X141603032Y-68461664D02*
X141507794Y-68080712D01*
X141507794Y-68080712D02*
X141317318Y-67890236D01*
X141317318Y-67890236D02*
X141126842Y-67794998D01*
X139412556Y-69794998D02*
X139412556Y-67794998D01*
X139412556Y-67794998D02*
X138936366Y-67794998D01*
X138936366Y-67794998D02*
X138650651Y-67890236D01*
X138650651Y-67890236D02*
X138460175Y-68080712D01*
X138460175Y-68080712D02*
X138364937Y-68271188D01*
X138364937Y-68271188D02*
X138269699Y-68652140D01*
X138269699Y-68652140D02*
X138269699Y-68937855D01*
X138269699Y-68937855D02*
X138364937Y-69318807D01*
X138364937Y-69318807D02*
X138460175Y-69509283D01*
X138460175Y-69509283D02*
X138650651Y-69699760D01*
X138650651Y-69699760D02*
X138936366Y-69794998D01*
X138936366Y-69794998D02*
X139412556Y-69794998D01*
X137412556Y-69033093D02*
X135888747Y-69033093D01*
X134936366Y-69794998D02*
X134936366Y-67794998D01*
X134936366Y-67794998D02*
X134174461Y-67794998D01*
X134174461Y-67794998D02*
X133983985Y-67890236D01*
X133983985Y-67890236D02*
X133888747Y-67985474D01*
X133888747Y-67985474D02*
X133793509Y-68175950D01*
X133793509Y-68175950D02*
X133793509Y-68461664D01*
X133793509Y-68461664D02*
X133888747Y-68652140D01*
X133888747Y-68652140D02*
X133983985Y-68747379D01*
X133983985Y-68747379D02*
X134174461Y-68842617D01*
X134174461Y-68842617D02*
X134936366Y-68842617D01*
X133222080Y-67794998D02*
X132079223Y-67794998D01*
X132650652Y-69794998D02*
X132650652Y-67794998D01*
X131603032Y-67794998D02*
X130269699Y-67794998D01*
X130269699Y-67794998D02*
X131126842Y-69794998D01*
X128650651Y-68461664D02*
X128650651Y-69794998D01*
X129126842Y-67699760D02*
X129603032Y-69128331D01*
X129603032Y-69128331D02*
X128364937Y-69128331D01*
X151507795Y-73014886D02*
X152174462Y-72062505D01*
X152650652Y-73014886D02*
X152650652Y-71014886D01*
X152650652Y-71014886D02*
X151888747Y-71014886D01*
X151888747Y-71014886D02*
X151698271Y-71110124D01*
X151698271Y-71110124D02*
X151603033Y-71205362D01*
X151603033Y-71205362D02*
X151507795Y-71395838D01*
X151507795Y-71395838D02*
X151507795Y-71681552D01*
X151507795Y-71681552D02*
X151603033Y-71872028D01*
X151603033Y-71872028D02*
X151698271Y-71967267D01*
X151698271Y-71967267D02*
X151888747Y-72062505D01*
X151888747Y-72062505D02*
X152650652Y-72062505D01*
X149888747Y-72919648D02*
X150079223Y-73014886D01*
X150079223Y-73014886D02*
X150460176Y-73014886D01*
X150460176Y-73014886D02*
X150650652Y-72919648D01*
X150650652Y-72919648D02*
X150745890Y-72729171D01*
X150745890Y-72729171D02*
X150745890Y-71967267D01*
X150745890Y-71967267D02*
X150650652Y-71776790D01*
X150650652Y-71776790D02*
X150460176Y-71681552D01*
X150460176Y-71681552D02*
X150079223Y-71681552D01*
X150079223Y-71681552D02*
X149888747Y-71776790D01*
X149888747Y-71776790D02*
X149793509Y-71967267D01*
X149793509Y-71967267D02*
X149793509Y-72157743D01*
X149793509Y-72157743D02*
X150745890Y-72348219D01*
X149126842Y-71681552D02*
X148650652Y-73014886D01*
X148650652Y-73014886D02*
X148174461Y-71681552D01*
X147412556Y-72252981D02*
X145888747Y-72252981D01*
X143793509Y-72824409D02*
X143888747Y-72919648D01*
X143888747Y-72919648D02*
X144174461Y-73014886D01*
X144174461Y-73014886D02*
X144364937Y-73014886D01*
X144364937Y-73014886D02*
X144650652Y-72919648D01*
X144650652Y-72919648D02*
X144841128Y-72729171D01*
X144841128Y-72729171D02*
X144936366Y-72538695D01*
X144936366Y-72538695D02*
X145031604Y-72157743D01*
X145031604Y-72157743D02*
X145031604Y-71872028D01*
X145031604Y-71872028D02*
X144936366Y-71491076D01*
X144936366Y-71491076D02*
X144841128Y-71300600D01*
X144841128Y-71300600D02*
X144650652Y-71110124D01*
X144650652Y-71110124D02*
X144364937Y-71014886D01*
X144364937Y-71014886D02*
X144174461Y-71014886D01*
X144174461Y-71014886D02*
X143888747Y-71110124D01*
X143888747Y-71110124D02*
X143793509Y-71205362D01*
X151031604Y-74710964D02*
X151222081Y-74615726D01*
X151222081Y-74615726D02*
X151603033Y-74615726D01*
X151603033Y-74615726D02*
X151793509Y-74710964D01*
X151793509Y-74710964D02*
X151983985Y-74901440D01*
X151983985Y-74901440D02*
X152079223Y-75091916D01*
X152079223Y-75091916D02*
X152079223Y-75472869D01*
X152079223Y-75472869D02*
X151983985Y-75663345D01*
X151983985Y-75663345D02*
X151793509Y-75853821D01*
X151793509Y-75853821D02*
X151603033Y-75949059D01*
X151603033Y-75949059D02*
X151222081Y-75949059D01*
X151222081Y-75949059D02*
X151031604Y-75853821D01*
X151412557Y-73949059D02*
X151888747Y-74044297D01*
X151888747Y-74044297D02*
X152364938Y-74330012D01*
X152364938Y-74330012D02*
X152650652Y-74806202D01*
X152650652Y-74806202D02*
X152745890Y-75282393D01*
X152745890Y-75282393D02*
X152650652Y-75758583D01*
X152650652Y-75758583D02*
X152364938Y-76234774D01*
X152364938Y-76234774D02*
X151888747Y-76520488D01*
X151888747Y-76520488D02*
X151412557Y-76615726D01*
X151412557Y-76615726D02*
X150936366Y-76520488D01*
X150936366Y-76520488D02*
X150460176Y-76234774D01*
X150460176Y-76234774D02*
X150174462Y-75758583D01*
X150174462Y-75758583D02*
X150079223Y-75282393D01*
X150079223Y-75282393D02*
X150174462Y-74806202D01*
X150174462Y-74806202D02*
X150460176Y-74330012D01*
X150460176Y-74330012D02*
X150936366Y-74044297D01*
X150936366Y-74044297D02*
X151412557Y-73949059D01*
X147793509Y-74425250D02*
X147698271Y-74330012D01*
X147698271Y-74330012D02*
X147507795Y-74234774D01*
X147507795Y-74234774D02*
X147031604Y-74234774D01*
X147031604Y-74234774D02*
X146841128Y-74330012D01*
X146841128Y-74330012D02*
X146745890Y-74425250D01*
X146745890Y-74425250D02*
X146650652Y-74615726D01*
X146650652Y-74615726D02*
X146650652Y-74806202D01*
X146650652Y-74806202D02*
X146745890Y-75091916D01*
X146745890Y-75091916D02*
X147888747Y-76234774D01*
X147888747Y-76234774D02*
X146650652Y-76234774D01*
X145412557Y-74234774D02*
X145222080Y-74234774D01*
X145222080Y-74234774D02*
X145031604Y-74330012D01*
X145031604Y-74330012D02*
X144936366Y-74425250D01*
X144936366Y-74425250D02*
X144841128Y-74615726D01*
X144841128Y-74615726D02*
X144745890Y-74996678D01*
X144745890Y-74996678D02*
X144745890Y-75472869D01*
X144745890Y-75472869D02*
X144841128Y-75853821D01*
X144841128Y-75853821D02*
X144936366Y-76044297D01*
X144936366Y-76044297D02*
X145031604Y-76139536D01*
X145031604Y-76139536D02*
X145222080Y-76234774D01*
X145222080Y-76234774D02*
X145412557Y-76234774D01*
X145412557Y-76234774D02*
X145603033Y-76139536D01*
X145603033Y-76139536D02*
X145698271Y-76044297D01*
X145698271Y-76044297D02*
X145793509Y-75853821D01*
X145793509Y-75853821D02*
X145888747Y-75472869D01*
X145888747Y-75472869D02*
X145888747Y-74996678D01*
X145888747Y-74996678D02*
X145793509Y-74615726D01*
X145793509Y-74615726D02*
X145698271Y-74425250D01*
X145698271Y-74425250D02*
X145603033Y-74330012D01*
X145603033Y-74330012D02*
X145412557Y-74234774D01*
X143983985Y-74425250D02*
X143888747Y-74330012D01*
X143888747Y-74330012D02*
X143698271Y-74234774D01*
X143698271Y-74234774D02*
X143222080Y-74234774D01*
X143222080Y-74234774D02*
X143031604Y-74330012D01*
X143031604Y-74330012D02*
X142936366Y-74425250D01*
X142936366Y-74425250D02*
X142841128Y-74615726D01*
X142841128Y-74615726D02*
X142841128Y-74806202D01*
X142841128Y-74806202D02*
X142936366Y-75091916D01*
X142936366Y-75091916D02*
X144079223Y-76234774D01*
X144079223Y-76234774D02*
X142841128Y-76234774D01*
X141126842Y-74234774D02*
X141507795Y-74234774D01*
X141507795Y-74234774D02*
X141698271Y-74330012D01*
X141698271Y-74330012D02*
X141793509Y-74425250D01*
X141793509Y-74425250D02*
X141983985Y-74710964D01*
X141983985Y-74710964D02*
X142079223Y-75091916D01*
X142079223Y-75091916D02*
X142079223Y-75853821D01*
X142079223Y-75853821D02*
X141983985Y-76044297D01*
X141983985Y-76044297D02*
X141888747Y-76139536D01*
X141888747Y-76139536D02*
X141698271Y-76234774D01*
X141698271Y-76234774D02*
X141317318Y-76234774D01*
X141317318Y-76234774D02*
X141126842Y-76139536D01*
X141126842Y-76139536D02*
X141031604Y-76044297D01*
X141031604Y-76044297D02*
X140936366Y-75853821D01*
X140936366Y-75853821D02*
X140936366Y-75377631D01*
X140936366Y-75377631D02*
X141031604Y-75187155D01*
X141031604Y-75187155D02*
X141126842Y-75091916D01*
X141126842Y-75091916D02*
X141317318Y-74996678D01*
X141317318Y-74996678D02*
X141698271Y-74996678D01*
X141698271Y-74996678D02*
X141888747Y-75091916D01*
X141888747Y-75091916D02*
X141983985Y-75187155D01*
X141983985Y-75187155D02*
X142079223Y-75377631D01*
X138555413Y-76234774D02*
X138555413Y-74234774D01*
X138555413Y-74234774D02*
X138079223Y-74234774D01*
X138079223Y-74234774D02*
X137793508Y-74330012D01*
X137793508Y-74330012D02*
X137603032Y-74520488D01*
X137603032Y-74520488D02*
X137507794Y-74710964D01*
X137507794Y-74710964D02*
X137412556Y-75091916D01*
X137412556Y-75091916D02*
X137412556Y-75377631D01*
X137412556Y-75377631D02*
X137507794Y-75758583D01*
X137507794Y-75758583D02*
X137603032Y-75949059D01*
X137603032Y-75949059D02*
X137793508Y-76139536D01*
X137793508Y-76139536D02*
X138079223Y-76234774D01*
X138079223Y-76234774D02*
X138555413Y-76234774D01*
X135698270Y-76234774D02*
X135698270Y-75187155D01*
X135698270Y-75187155D02*
X135793508Y-74996678D01*
X135793508Y-74996678D02*
X135983984Y-74901440D01*
X135983984Y-74901440D02*
X136364937Y-74901440D01*
X136364937Y-74901440D02*
X136555413Y-74996678D01*
X135698270Y-76139536D02*
X135888746Y-76234774D01*
X135888746Y-76234774D02*
X136364937Y-76234774D01*
X136364937Y-76234774D02*
X136555413Y-76139536D01*
X136555413Y-76139536D02*
X136650651Y-75949059D01*
X136650651Y-75949059D02*
X136650651Y-75758583D01*
X136650651Y-75758583D02*
X136555413Y-75568107D01*
X136555413Y-75568107D02*
X136364937Y-75472869D01*
X136364937Y-75472869D02*
X135888746Y-75472869D01*
X135888746Y-75472869D02*
X135698270Y-75377631D01*
X134936365Y-74901440D02*
X134460175Y-76234774D01*
X134460175Y-76234774D02*
X133983984Y-74901440D01*
X133222079Y-76234774D02*
X133222079Y-74901440D01*
X133222079Y-74234774D02*
X133317317Y-74330012D01*
X133317317Y-74330012D02*
X133222079Y-74425250D01*
X133222079Y-74425250D02*
X133126841Y-74330012D01*
X133126841Y-74330012D02*
X133222079Y-74234774D01*
X133222079Y-74234774D02*
X133222079Y-74425250D01*
X131412555Y-76234774D02*
X131412555Y-74234774D01*
X131412555Y-76139536D02*
X131603031Y-76234774D01*
X131603031Y-76234774D02*
X131983984Y-76234774D01*
X131983984Y-76234774D02*
X132174460Y-76139536D01*
X132174460Y-76139536D02*
X132269698Y-76044297D01*
X132269698Y-76044297D02*
X132364936Y-75853821D01*
X132364936Y-75853821D02*
X132364936Y-75282393D01*
X132364936Y-75282393D02*
X132269698Y-75091916D01*
X132269698Y-75091916D02*
X132174460Y-74996678D01*
X132174460Y-74996678D02*
X131983984Y-74901440D01*
X131983984Y-74901440D02*
X131603031Y-74901440D01*
X131603031Y-74901440D02*
X131412555Y-74996678D01*
X130460174Y-75472869D02*
X128936365Y-75472869D01*
X127983984Y-76234774D02*
X127983984Y-74234774D01*
X127793508Y-75472869D02*
X127222079Y-76234774D01*
X127222079Y-74901440D02*
X127983984Y-75663345D01*
X124460174Y-74234774D02*
X124079221Y-74234774D01*
X124079221Y-74234774D02*
X123888745Y-74330012D01*
X123888745Y-74330012D02*
X123698269Y-74520488D01*
X123698269Y-74520488D02*
X123603031Y-74901440D01*
X123603031Y-74901440D02*
X123603031Y-75568107D01*
X123603031Y-75568107D02*
X123698269Y-75949059D01*
X123698269Y-75949059D02*
X123888745Y-76139536D01*
X123888745Y-76139536D02*
X124079221Y-76234774D01*
X124079221Y-76234774D02*
X124460174Y-76234774D01*
X124460174Y-76234774D02*
X124650650Y-76139536D01*
X124650650Y-76139536D02*
X124841126Y-75949059D01*
X124841126Y-75949059D02*
X124936364Y-75568107D01*
X124936364Y-75568107D02*
X124936364Y-74901440D01*
X124936364Y-74901440D02*
X124841126Y-74520488D01*
X124841126Y-74520488D02*
X124650650Y-74330012D01*
X124650650Y-74330012D02*
X124460174Y-74234774D01*
X123031602Y-74901440D02*
X122269698Y-74901440D01*
X122745888Y-74234774D02*
X122745888Y-75949059D01*
X122745888Y-75949059D02*
X122650650Y-76139536D01*
X122650650Y-76139536D02*
X122460174Y-76234774D01*
X122460174Y-76234774D02*
X122269698Y-76234774D01*
X121888745Y-74901440D02*
X121126841Y-74901440D01*
X121603031Y-74234774D02*
X121603031Y-75949059D01*
X121603031Y-75949059D02*
X121507793Y-76139536D01*
X121507793Y-76139536D02*
X121317317Y-76234774D01*
X121317317Y-76234774D02*
X121126841Y-76234774D01*
X119698269Y-76139536D02*
X119888745Y-76234774D01*
X119888745Y-76234774D02*
X120269698Y-76234774D01*
X120269698Y-76234774D02*
X120460174Y-76139536D01*
X120460174Y-76139536D02*
X120555412Y-75949059D01*
X120555412Y-75949059D02*
X120555412Y-75187155D01*
X120555412Y-75187155D02*
X120460174Y-74996678D01*
X120460174Y-74996678D02*
X120269698Y-74901440D01*
X120269698Y-74901440D02*
X119888745Y-74901440D01*
X119888745Y-74901440D02*
X119698269Y-74996678D01*
X119698269Y-74996678D02*
X119603031Y-75187155D01*
X119603031Y-75187155D02*
X119603031Y-75377631D01*
X119603031Y-75377631D02*
X120555412Y-75568107D01*
X118745888Y-76234774D02*
X118745888Y-74901440D01*
X118745888Y-75282393D02*
X118650650Y-75091916D01*
X118650650Y-75091916D02*
X118555412Y-74996678D01*
X118555412Y-74996678D02*
X118364936Y-74901440D01*
X118364936Y-74901440D02*
X118174459Y-74901440D01*
X152650652Y-82674550D02*
X152650652Y-80674550D01*
X152650652Y-81626931D02*
X151507795Y-81626931D01*
X151507795Y-82674550D02*
X151507795Y-80674550D01*
X149698271Y-82674550D02*
X149698271Y-81626931D01*
X149698271Y-81626931D02*
X149793509Y-81436454D01*
X149793509Y-81436454D02*
X149983985Y-81341216D01*
X149983985Y-81341216D02*
X150364938Y-81341216D01*
X150364938Y-81341216D02*
X150555414Y-81436454D01*
X149698271Y-82579312D02*
X149888747Y-82674550D01*
X149888747Y-82674550D02*
X150364938Y-82674550D01*
X150364938Y-82674550D02*
X150555414Y-82579312D01*
X150555414Y-82579312D02*
X150650652Y-82388835D01*
X150650652Y-82388835D02*
X150650652Y-82198359D01*
X150650652Y-82198359D02*
X150555414Y-82007883D01*
X150555414Y-82007883D02*
X150364938Y-81912645D01*
X150364938Y-81912645D02*
X149888747Y-81912645D01*
X149888747Y-81912645D02*
X149698271Y-81817407D01*
X148745890Y-82674550D02*
X148745890Y-81341216D01*
X148745890Y-81722169D02*
X148650652Y-81531692D01*
X148650652Y-81531692D02*
X148555414Y-81436454D01*
X148555414Y-81436454D02*
X148364938Y-81341216D01*
X148364938Y-81341216D02*
X148174461Y-81341216D01*
X146650652Y-82674550D02*
X146650652Y-80674550D01*
X146650652Y-82579312D02*
X146841128Y-82674550D01*
X146841128Y-82674550D02*
X147222081Y-82674550D01*
X147222081Y-82674550D02*
X147412557Y-82579312D01*
X147412557Y-82579312D02*
X147507795Y-82484073D01*
X147507795Y-82484073D02*
X147603033Y-82293597D01*
X147603033Y-82293597D02*
X147603033Y-81722169D01*
X147603033Y-81722169D02*
X147507795Y-81531692D01*
X147507795Y-81531692D02*
X147412557Y-81436454D01*
X147412557Y-81436454D02*
X147222081Y-81341216D01*
X147222081Y-81341216D02*
X146841128Y-81341216D01*
X146841128Y-81341216D02*
X146650652Y-81436454D01*
X145888747Y-81341216D02*
X145507795Y-82674550D01*
X145507795Y-82674550D02*
X145126842Y-81722169D01*
X145126842Y-81722169D02*
X144745890Y-82674550D01*
X144745890Y-82674550D02*
X144364938Y-81341216D01*
X142745890Y-82674550D02*
X142745890Y-81626931D01*
X142745890Y-81626931D02*
X142841128Y-81436454D01*
X142841128Y-81436454D02*
X143031604Y-81341216D01*
X143031604Y-81341216D02*
X143412557Y-81341216D01*
X143412557Y-81341216D02*
X143603033Y-81436454D01*
X142745890Y-82579312D02*
X142936366Y-82674550D01*
X142936366Y-82674550D02*
X143412557Y-82674550D01*
X143412557Y-82674550D02*
X143603033Y-82579312D01*
X143603033Y-82579312D02*
X143698271Y-82388835D01*
X143698271Y-82388835D02*
X143698271Y-82198359D01*
X143698271Y-82198359D02*
X143603033Y-82007883D01*
X143603033Y-82007883D02*
X143412557Y-81912645D01*
X143412557Y-81912645D02*
X142936366Y-81912645D01*
X142936366Y-81912645D02*
X142745890Y-81817407D01*
X141793509Y-82674550D02*
X141793509Y-81341216D01*
X141793509Y-81722169D02*
X141698271Y-81531692D01*
X141698271Y-81531692D02*
X141603033Y-81436454D01*
X141603033Y-81436454D02*
X141412557Y-81341216D01*
X141412557Y-81341216D02*
X141222080Y-81341216D01*
X139793509Y-82579312D02*
X139983985Y-82674550D01*
X139983985Y-82674550D02*
X140364938Y-82674550D01*
X140364938Y-82674550D02*
X140555414Y-82579312D01*
X140555414Y-82579312D02*
X140650652Y-82388835D01*
X140650652Y-82388835D02*
X140650652Y-81626931D01*
X140650652Y-81626931D02*
X140555414Y-81436454D01*
X140555414Y-81436454D02*
X140364938Y-81341216D01*
X140364938Y-81341216D02*
X139983985Y-81341216D01*
X139983985Y-81341216D02*
X139793509Y-81436454D01*
X139793509Y-81436454D02*
X139698271Y-81626931D01*
X139698271Y-81626931D02*
X139698271Y-81817407D01*
X139698271Y-81817407D02*
X140650652Y-82007883D01*
X138841128Y-82484073D02*
X138745890Y-82579312D01*
X138745890Y-82579312D02*
X138841128Y-82674550D01*
X138841128Y-82674550D02*
X138936366Y-82579312D01*
X138936366Y-82579312D02*
X138841128Y-82484073D01*
X138841128Y-82484073D02*
X138841128Y-82674550D01*
X138841128Y-81436454D02*
X138745890Y-81531692D01*
X138745890Y-81531692D02*
X138841128Y-81626931D01*
X138841128Y-81626931D02*
X138936366Y-81531692D01*
X138936366Y-81531692D02*
X138841128Y-81436454D01*
X138841128Y-81436454D02*
X138841128Y-81626931D01*
X135222080Y-82484073D02*
X135317318Y-82579312D01*
X135317318Y-82579312D02*
X135603032Y-82674550D01*
X135603032Y-82674550D02*
X135793508Y-82674550D01*
X135793508Y-82674550D02*
X136079223Y-82579312D01*
X136079223Y-82579312D02*
X136269699Y-82388835D01*
X136269699Y-82388835D02*
X136364937Y-82198359D01*
X136364937Y-82198359D02*
X136460175Y-81817407D01*
X136460175Y-81817407D02*
X136460175Y-81531692D01*
X136460175Y-81531692D02*
X136364937Y-81150740D01*
X136364937Y-81150740D02*
X136269699Y-80960264D01*
X136269699Y-80960264D02*
X136079223Y-80769788D01*
X136079223Y-80769788D02*
X135793508Y-80674550D01*
X135793508Y-80674550D02*
X135603032Y-80674550D01*
X135603032Y-80674550D02*
X135317318Y-80769788D01*
X135317318Y-80769788D02*
X135222080Y-80865026D01*
X134364937Y-81626931D02*
X133698270Y-81626931D01*
X133412556Y-82674550D02*
X134364937Y-82674550D01*
X134364937Y-82674550D02*
X134364937Y-80674550D01*
X134364937Y-80674550D02*
X133412556Y-80674550D01*
X131412556Y-82674550D02*
X132079223Y-81722169D01*
X132555413Y-82674550D02*
X132555413Y-80674550D01*
X132555413Y-80674550D02*
X131793508Y-80674550D01*
X131793508Y-80674550D02*
X131603032Y-80769788D01*
X131603032Y-80769788D02*
X131507794Y-80865026D01*
X131507794Y-80865026D02*
X131412556Y-81055502D01*
X131412556Y-81055502D02*
X131412556Y-81341216D01*
X131412556Y-81341216D02*
X131507794Y-81531692D01*
X131507794Y-81531692D02*
X131603032Y-81626931D01*
X131603032Y-81626931D02*
X131793508Y-81722169D01*
X131793508Y-81722169D02*
X132555413Y-81722169D01*
X130555413Y-82674550D02*
X130555413Y-80674550D01*
X130555413Y-80674550D02*
X129412556Y-82674550D01*
X129412556Y-82674550D02*
X129412556Y-80674550D01*
X128460175Y-81912645D02*
X126936366Y-81912645D01*
X125603033Y-80674550D02*
X125222080Y-80674550D01*
X125222080Y-80674550D02*
X125031604Y-80769788D01*
X125031604Y-80769788D02*
X124841128Y-80960264D01*
X124841128Y-80960264D02*
X124745890Y-81341216D01*
X124745890Y-81341216D02*
X124745890Y-82007883D01*
X124745890Y-82007883D02*
X124841128Y-82388835D01*
X124841128Y-82388835D02*
X125031604Y-82579312D01*
X125031604Y-82579312D02*
X125222080Y-82674550D01*
X125222080Y-82674550D02*
X125603033Y-82674550D01*
X125603033Y-82674550D02*
X125793509Y-82579312D01*
X125793509Y-82579312D02*
X125983985Y-82388835D01*
X125983985Y-82388835D02*
X126079223Y-82007883D01*
X126079223Y-82007883D02*
X126079223Y-81341216D01*
X126079223Y-81341216D02*
X125983985Y-80960264D01*
X125983985Y-80960264D02*
X125793509Y-80769788D01*
X125793509Y-80769788D02*
X125603033Y-80674550D01*
X123888747Y-82674550D02*
X123888747Y-80674550D01*
X123888747Y-81626931D02*
X122745890Y-81626931D01*
X122745890Y-82674550D02*
X122745890Y-80674550D01*
X120841128Y-82674550D02*
X121793509Y-82674550D01*
X121793509Y-82674550D02*
X121793509Y-80674550D01*
X120174461Y-81912645D02*
X118650652Y-81912645D01*
X117793509Y-82579312D02*
X117507795Y-82674550D01*
X117507795Y-82674550D02*
X117031604Y-82674550D01*
X117031604Y-82674550D02*
X116841128Y-82579312D01*
X116841128Y-82579312D02*
X116745890Y-82484073D01*
X116745890Y-82484073D02*
X116650652Y-82293597D01*
X116650652Y-82293597D02*
X116650652Y-82103121D01*
X116650652Y-82103121D02*
X116745890Y-81912645D01*
X116745890Y-81912645D02*
X116841128Y-81817407D01*
X116841128Y-81817407D02*
X117031604Y-81722169D01*
X117031604Y-81722169D02*
X117412557Y-81626931D01*
X117412557Y-81626931D02*
X117603033Y-81531692D01*
X117603033Y-81531692D02*
X117698271Y-81436454D01*
X117698271Y-81436454D02*
X117793509Y-81245978D01*
X117793509Y-81245978D02*
X117793509Y-81055502D01*
X117793509Y-81055502D02*
X117698271Y-80865026D01*
X117698271Y-80865026D02*
X117603033Y-80769788D01*
X117603033Y-80769788D02*
X117412557Y-80674550D01*
X117412557Y-80674550D02*
X116936366Y-80674550D01*
X116936366Y-80674550D02*
X116650652Y-80769788D01*
X114460175Y-81341216D02*
X113983985Y-82674550D01*
X113983985Y-82674550D02*
X113507794Y-81341216D01*
X112841127Y-80865026D02*
X112745889Y-80769788D01*
X112745889Y-80769788D02*
X112555413Y-80674550D01*
X112555413Y-80674550D02*
X112079222Y-80674550D01*
X112079222Y-80674550D02*
X111888746Y-80769788D01*
X111888746Y-80769788D02*
X111793508Y-80865026D01*
X111793508Y-80865026D02*
X111698270Y-81055502D01*
X111698270Y-81055502D02*
X111698270Y-81245978D01*
X111698270Y-81245978D02*
X111793508Y-81531692D01*
X111793508Y-81531692D02*
X112936365Y-82674550D01*
X112936365Y-82674550D02*
X111698270Y-82674550D01*
X151983985Y-84846819D02*
X152650652Y-84846819D01*
X152650652Y-85894438D02*
X152650652Y-83894438D01*
X152650652Y-83894438D02*
X151698271Y-83894438D01*
X150936366Y-85894438D02*
X150936366Y-84561104D01*
X150936366Y-83894438D02*
X151031604Y-83989676D01*
X151031604Y-83989676D02*
X150936366Y-84084914D01*
X150936366Y-84084914D02*
X150841128Y-83989676D01*
X150841128Y-83989676D02*
X150936366Y-83894438D01*
X150936366Y-83894438D02*
X150936366Y-84084914D01*
X149983985Y-85894438D02*
X149983985Y-84561104D01*
X149983985Y-84942057D02*
X149888747Y-84751580D01*
X149888747Y-84751580D02*
X149793509Y-84656342D01*
X149793509Y-84656342D02*
X149603033Y-84561104D01*
X149603033Y-84561104D02*
X149412556Y-84561104D01*
X148745890Y-85894438D02*
X148745890Y-84561104D01*
X148745890Y-84751580D02*
X148650652Y-84656342D01*
X148650652Y-84656342D02*
X148460176Y-84561104D01*
X148460176Y-84561104D02*
X148174461Y-84561104D01*
X148174461Y-84561104D02*
X147983985Y-84656342D01*
X147983985Y-84656342D02*
X147888747Y-84846819D01*
X147888747Y-84846819D02*
X147888747Y-85894438D01*
X147888747Y-84846819D02*
X147793509Y-84656342D01*
X147793509Y-84656342D02*
X147603033Y-84561104D01*
X147603033Y-84561104D02*
X147317319Y-84561104D01*
X147317319Y-84561104D02*
X147126842Y-84656342D01*
X147126842Y-84656342D02*
X147031604Y-84846819D01*
X147031604Y-84846819D02*
X147031604Y-85894438D01*
X146269699Y-84561104D02*
X145888747Y-85894438D01*
X145888747Y-85894438D02*
X145507794Y-84942057D01*
X145507794Y-84942057D02*
X145126842Y-85894438D01*
X145126842Y-85894438D02*
X144745890Y-84561104D01*
X143126842Y-85894438D02*
X143126842Y-84846819D01*
X143126842Y-84846819D02*
X143222080Y-84656342D01*
X143222080Y-84656342D02*
X143412556Y-84561104D01*
X143412556Y-84561104D02*
X143793509Y-84561104D01*
X143793509Y-84561104D02*
X143983985Y-84656342D01*
X143126842Y-85799200D02*
X143317318Y-85894438D01*
X143317318Y-85894438D02*
X143793509Y-85894438D01*
X143793509Y-85894438D02*
X143983985Y-85799200D01*
X143983985Y-85799200D02*
X144079223Y-85608723D01*
X144079223Y-85608723D02*
X144079223Y-85418247D01*
X144079223Y-85418247D02*
X143983985Y-85227771D01*
X143983985Y-85227771D02*
X143793509Y-85132533D01*
X143793509Y-85132533D02*
X143317318Y-85132533D01*
X143317318Y-85132533D02*
X143126842Y-85037295D01*
X142174461Y-85894438D02*
X142174461Y-84561104D01*
X142174461Y-84942057D02*
X142079223Y-84751580D01*
X142079223Y-84751580D02*
X141983985Y-84656342D01*
X141983985Y-84656342D02*
X141793509Y-84561104D01*
X141793509Y-84561104D02*
X141603032Y-84561104D01*
X140174461Y-85799200D02*
X140364937Y-85894438D01*
X140364937Y-85894438D02*
X140745890Y-85894438D01*
X140745890Y-85894438D02*
X140936366Y-85799200D01*
X140936366Y-85799200D02*
X141031604Y-85608723D01*
X141031604Y-85608723D02*
X141031604Y-84846819D01*
X141031604Y-84846819D02*
X140936366Y-84656342D01*
X140936366Y-84656342D02*
X140745890Y-84561104D01*
X140745890Y-84561104D02*
X140364937Y-84561104D01*
X140364937Y-84561104D02*
X140174461Y-84656342D01*
X140174461Y-84656342D02*
X140079223Y-84846819D01*
X140079223Y-84846819D02*
X140079223Y-85037295D01*
X140079223Y-85037295D02*
X141031604Y-85227771D01*
X139222080Y-85703961D02*
X139126842Y-85799200D01*
X139126842Y-85799200D02*
X139222080Y-85894438D01*
X139222080Y-85894438D02*
X139317318Y-85799200D01*
X139317318Y-85799200D02*
X139222080Y-85703961D01*
X139222080Y-85703961D02*
X139222080Y-85894438D01*
X139222080Y-84656342D02*
X139126842Y-84751580D01*
X139126842Y-84751580D02*
X139222080Y-84846819D01*
X139222080Y-84846819D02*
X139317318Y-84751580D01*
X139317318Y-84751580D02*
X139222080Y-84656342D01*
X139222080Y-84656342D02*
X139222080Y-84846819D01*
X136745889Y-85894438D02*
X136745889Y-83894438D01*
X136745889Y-83894438D02*
X136079222Y-85323009D01*
X136079222Y-85323009D02*
X135412556Y-83894438D01*
X135412556Y-83894438D02*
X135412556Y-85894438D01*
X134460175Y-85894438D02*
X134460175Y-83894438D01*
X133793508Y-83894438D02*
X132650651Y-83894438D01*
X133222080Y-85894438D02*
X133222080Y-83894438D01*
D11*
X119944819Y-72083333D02*
X120659104Y-72083333D01*
X120659104Y-72083333D02*
X120801961Y-72130952D01*
X120801961Y-72130952D02*
X120897200Y-72226190D01*
X120897200Y-72226190D02*
X120944819Y-72369047D01*
X120944819Y-72369047D02*
X120944819Y-72464285D01*
X119944819Y-71702380D02*
X119944819Y-71035714D01*
X119944819Y-71035714D02*
X120944819Y-71464285D01*
X118113333Y-51764819D02*
X117780000Y-51288628D01*
X117541905Y-51764819D02*
X117541905Y-50764819D01*
X117541905Y-50764819D02*
X117922857Y-50764819D01*
X117922857Y-50764819D02*
X118018095Y-50812438D01*
X118018095Y-50812438D02*
X118065714Y-50860057D01*
X118065714Y-50860057D02*
X118113333Y-50955295D01*
X118113333Y-50955295D02*
X118113333Y-51098152D01*
X118113333Y-51098152D02*
X118065714Y-51193390D01*
X118065714Y-51193390D02*
X118018095Y-51241009D01*
X118018095Y-51241009D02*
X117922857Y-51288628D01*
X117922857Y-51288628D02*
X117541905Y-51288628D01*
X118494286Y-50860057D02*
X118541905Y-50812438D01*
X118541905Y-50812438D02*
X118637143Y-50764819D01*
X118637143Y-50764819D02*
X118875238Y-50764819D01*
X118875238Y-50764819D02*
X118970476Y-50812438D01*
X118970476Y-50812438D02*
X119018095Y-50860057D01*
X119018095Y-50860057D02*
X119065714Y-50955295D01*
X119065714Y-50955295D02*
X119065714Y-51050533D01*
X119065714Y-51050533D02*
X119018095Y-51193390D01*
X119018095Y-51193390D02*
X118446667Y-51764819D01*
X118446667Y-51764819D02*
X119065714Y-51764819D01*
X94781905Y-55864819D02*
X94781905Y-54864819D01*
X94781905Y-54864819D02*
X95020000Y-54864819D01*
X95020000Y-54864819D02*
X95162857Y-54912438D01*
X95162857Y-54912438D02*
X95258095Y-55007676D01*
X95258095Y-55007676D02*
X95305714Y-55102914D01*
X95305714Y-55102914D02*
X95353333Y-55293390D01*
X95353333Y-55293390D02*
X95353333Y-55436247D01*
X95353333Y-55436247D02*
X95305714Y-55626723D01*
X95305714Y-55626723D02*
X95258095Y-55721961D01*
X95258095Y-55721961D02*
X95162857Y-55817200D01*
X95162857Y-55817200D02*
X95020000Y-55864819D01*
X95020000Y-55864819D02*
X94781905Y-55864819D01*
X96305714Y-55864819D02*
X95734286Y-55864819D01*
X96020000Y-55864819D02*
X96020000Y-54864819D01*
X96020000Y-54864819D02*
X95924762Y-55007676D01*
X95924762Y-55007676D02*
X95829524Y-55102914D01*
X95829524Y-55102914D02*
X95734286Y-55150533D01*
X146136667Y-129727200D02*
X146279524Y-129774819D01*
X146279524Y-129774819D02*
X146517619Y-129774819D01*
X146517619Y-129774819D02*
X146612857Y-129727200D01*
X146612857Y-129727200D02*
X146660476Y-129679580D01*
X146660476Y-129679580D02*
X146708095Y-129584342D01*
X146708095Y-129584342D02*
X146708095Y-129489104D01*
X146708095Y-129489104D02*
X146660476Y-129393866D01*
X146660476Y-129393866D02*
X146612857Y-129346247D01*
X146612857Y-129346247D02*
X146517619Y-129298628D01*
X146517619Y-129298628D02*
X146327143Y-129251009D01*
X146327143Y-129251009D02*
X146231905Y-129203390D01*
X146231905Y-129203390D02*
X146184286Y-129155771D01*
X146184286Y-129155771D02*
X146136667Y-129060533D01*
X146136667Y-129060533D02*
X146136667Y-128965295D01*
X146136667Y-128965295D02*
X146184286Y-128870057D01*
X146184286Y-128870057D02*
X146231905Y-128822438D01*
X146231905Y-128822438D02*
X146327143Y-128774819D01*
X146327143Y-128774819D02*
X146565238Y-128774819D01*
X146565238Y-128774819D02*
X146708095Y-128822438D01*
X147041429Y-128774819D02*
X147279524Y-129774819D01*
X147279524Y-129774819D02*
X147470000Y-129060533D01*
X147470000Y-129060533D02*
X147660476Y-129774819D01*
X147660476Y-129774819D02*
X147898572Y-128774819D01*
X148803333Y-129774819D02*
X148231905Y-129774819D01*
X148517619Y-129774819D02*
X148517619Y-128774819D01*
X148517619Y-128774819D02*
X148422381Y-128917676D01*
X148422381Y-128917676D02*
X148327143Y-129012914D01*
X148327143Y-129012914D02*
X148231905Y-129060533D01*
X102441905Y-55774819D02*
X102441905Y-54774819D01*
X102441905Y-54774819D02*
X102680000Y-54774819D01*
X102680000Y-54774819D02*
X102822857Y-54822438D01*
X102822857Y-54822438D02*
X102918095Y-54917676D01*
X102918095Y-54917676D02*
X102965714Y-55012914D01*
X102965714Y-55012914D02*
X103013333Y-55203390D01*
X103013333Y-55203390D02*
X103013333Y-55346247D01*
X103013333Y-55346247D02*
X102965714Y-55536723D01*
X102965714Y-55536723D02*
X102918095Y-55631961D01*
X102918095Y-55631961D02*
X102822857Y-55727200D01*
X102822857Y-55727200D02*
X102680000Y-55774819D01*
X102680000Y-55774819D02*
X102441905Y-55774819D01*
X103346667Y-54774819D02*
X103965714Y-54774819D01*
X103965714Y-54774819D02*
X103632381Y-55155771D01*
X103632381Y-55155771D02*
X103775238Y-55155771D01*
X103775238Y-55155771D02*
X103870476Y-55203390D01*
X103870476Y-55203390D02*
X103918095Y-55251009D01*
X103918095Y-55251009D02*
X103965714Y-55346247D01*
X103965714Y-55346247D02*
X103965714Y-55584342D01*
X103965714Y-55584342D02*
X103918095Y-55679580D01*
X103918095Y-55679580D02*
X103870476Y-55727200D01*
X103870476Y-55727200D02*
X103775238Y-55774819D01*
X103775238Y-55774819D02*
X103489524Y-55774819D01*
X103489524Y-55774819D02*
X103394286Y-55727200D01*
X103394286Y-55727200D02*
X103346667Y-55679580D01*
D12*
X159785713Y-60661161D02*
X159690475Y-60708780D01*
X159690475Y-60708780D02*
X159547618Y-60708780D01*
X159547618Y-60708780D02*
X159404761Y-60661161D01*
X159404761Y-60661161D02*
X159309523Y-60565923D01*
X159309523Y-60565923D02*
X159261904Y-60470685D01*
X159261904Y-60470685D02*
X159214285Y-60280209D01*
X159214285Y-60280209D02*
X159214285Y-60137352D01*
X159214285Y-60137352D02*
X159261904Y-59946876D01*
X159261904Y-59946876D02*
X159309523Y-59851638D01*
X159309523Y-59851638D02*
X159404761Y-59756400D01*
X159404761Y-59756400D02*
X159547618Y-59708780D01*
X159547618Y-59708780D02*
X159642856Y-59708780D01*
X159642856Y-59708780D02*
X159785713Y-59756400D01*
X159785713Y-59756400D02*
X159833332Y-59804019D01*
X159833332Y-59804019D02*
X159833332Y-60137352D01*
X159833332Y-60137352D02*
X159642856Y-60137352D01*
X160261904Y-59708780D02*
X160261904Y-60708780D01*
X160261904Y-60708780D02*
X160833332Y-59708780D01*
X160833332Y-59708780D02*
X160833332Y-60708780D01*
X161309523Y-59708780D02*
X161309523Y-60708780D01*
X161309523Y-60708780D02*
X161547618Y-60708780D01*
X161547618Y-60708780D02*
X161690475Y-60661161D01*
X161690475Y-60661161D02*
X161785713Y-60565923D01*
X161785713Y-60565923D02*
X161833332Y-60470685D01*
X161833332Y-60470685D02*
X161880951Y-60280209D01*
X161880951Y-60280209D02*
X161880951Y-60137352D01*
X161880951Y-60137352D02*
X161833332Y-59946876D01*
X161833332Y-59946876D02*
X161785713Y-59851638D01*
X161785713Y-59851638D02*
X161690475Y-59756400D01*
X161690475Y-59756400D02*
X161547618Y-59708780D01*
X161547618Y-59708780D02*
X161309523Y-59708780D01*
X162928571Y-60708780D02*
X163261904Y-59708780D01*
X163261904Y-59708780D02*
X163595237Y-60708780D01*
X164499999Y-59804019D02*
X164452380Y-59756400D01*
X164452380Y-59756400D02*
X164309523Y-59708780D01*
X164309523Y-59708780D02*
X164214285Y-59708780D01*
X164214285Y-59708780D02*
X164071428Y-59756400D01*
X164071428Y-59756400D02*
X163976190Y-59851638D01*
X163976190Y-59851638D02*
X163928571Y-59946876D01*
X163928571Y-59946876D02*
X163880952Y-60137352D01*
X163880952Y-60137352D02*
X163880952Y-60280209D01*
X163880952Y-60280209D02*
X163928571Y-60470685D01*
X163928571Y-60470685D02*
X163976190Y-60565923D01*
X163976190Y-60565923D02*
X164071428Y-60661161D01*
X164071428Y-60661161D02*
X164214285Y-60708780D01*
X164214285Y-60708780D02*
X164309523Y-60708780D01*
X164309523Y-60708780D02*
X164452380Y-60661161D01*
X164452380Y-60661161D02*
X164499999Y-60613542D01*
X165499999Y-59804019D02*
X165452380Y-59756400D01*
X165452380Y-59756400D02*
X165309523Y-59708780D01*
X165309523Y-59708780D02*
X165214285Y-59708780D01*
X165214285Y-59708780D02*
X165071428Y-59756400D01*
X165071428Y-59756400D02*
X164976190Y-59851638D01*
X164976190Y-59851638D02*
X164928571Y-59946876D01*
X164928571Y-59946876D02*
X164880952Y-60137352D01*
X164880952Y-60137352D02*
X164880952Y-60280209D01*
X164880952Y-60280209D02*
X164928571Y-60470685D01*
X164928571Y-60470685D02*
X164976190Y-60565923D01*
X164976190Y-60565923D02*
X165071428Y-60661161D01*
X165071428Y-60661161D02*
X165214285Y-60708780D01*
X165214285Y-60708780D02*
X165309523Y-60708780D01*
X165309523Y-60708780D02*
X165452380Y-60661161D01*
X165452380Y-60661161D02*
X165499999Y-60613542D01*
X166642857Y-59756400D02*
X166785714Y-59708780D01*
X166785714Y-59708780D02*
X167023809Y-59708780D01*
X167023809Y-59708780D02*
X167119047Y-59756400D01*
X167119047Y-59756400D02*
X167166666Y-59804019D01*
X167166666Y-59804019D02*
X167214285Y-59899257D01*
X167214285Y-59899257D02*
X167214285Y-59994495D01*
X167214285Y-59994495D02*
X167166666Y-60089733D01*
X167166666Y-60089733D02*
X167119047Y-60137352D01*
X167119047Y-60137352D02*
X167023809Y-60184971D01*
X167023809Y-60184971D02*
X166833333Y-60232590D01*
X166833333Y-60232590D02*
X166738095Y-60280209D01*
X166738095Y-60280209D02*
X166690476Y-60327828D01*
X166690476Y-60327828D02*
X166642857Y-60423066D01*
X166642857Y-60423066D02*
X166642857Y-60518304D01*
X166642857Y-60518304D02*
X166690476Y-60613542D01*
X166690476Y-60613542D02*
X166738095Y-60661161D01*
X166738095Y-60661161D02*
X166833333Y-60708780D01*
X166833333Y-60708780D02*
X167071428Y-60708780D01*
X167071428Y-60708780D02*
X167214285Y-60661161D01*
X168214285Y-59804019D02*
X168166666Y-59756400D01*
X168166666Y-59756400D02*
X168023809Y-59708780D01*
X168023809Y-59708780D02*
X167928571Y-59708780D01*
X167928571Y-59708780D02*
X167785714Y-59756400D01*
X167785714Y-59756400D02*
X167690476Y-59851638D01*
X167690476Y-59851638D02*
X167642857Y-59946876D01*
X167642857Y-59946876D02*
X167595238Y-60137352D01*
X167595238Y-60137352D02*
X167595238Y-60280209D01*
X167595238Y-60280209D02*
X167642857Y-60470685D01*
X167642857Y-60470685D02*
X167690476Y-60565923D01*
X167690476Y-60565923D02*
X167785714Y-60661161D01*
X167785714Y-60661161D02*
X167928571Y-60708780D01*
X167928571Y-60708780D02*
X168023809Y-60708780D01*
X168023809Y-60708780D02*
X168166666Y-60661161D01*
X168166666Y-60661161D02*
X168214285Y-60613542D01*
X168642857Y-59708780D02*
X168642857Y-60708780D01*
X169214285Y-59708780D02*
X168785714Y-60280209D01*
X169214285Y-60708780D02*
X168642857Y-60137352D01*
X170357143Y-59756400D02*
X170500000Y-59708780D01*
X170500000Y-59708780D02*
X170738095Y-59708780D01*
X170738095Y-59708780D02*
X170833333Y-59756400D01*
X170833333Y-59756400D02*
X170880952Y-59804019D01*
X170880952Y-59804019D02*
X170928571Y-59899257D01*
X170928571Y-59899257D02*
X170928571Y-59994495D01*
X170928571Y-59994495D02*
X170880952Y-60089733D01*
X170880952Y-60089733D02*
X170833333Y-60137352D01*
X170833333Y-60137352D02*
X170738095Y-60184971D01*
X170738095Y-60184971D02*
X170547619Y-60232590D01*
X170547619Y-60232590D02*
X170452381Y-60280209D01*
X170452381Y-60280209D02*
X170404762Y-60327828D01*
X170404762Y-60327828D02*
X170357143Y-60423066D01*
X170357143Y-60423066D02*
X170357143Y-60518304D01*
X170357143Y-60518304D02*
X170404762Y-60613542D01*
X170404762Y-60613542D02*
X170452381Y-60661161D01*
X170452381Y-60661161D02*
X170547619Y-60708780D01*
X170547619Y-60708780D02*
X170785714Y-60708780D01*
X170785714Y-60708780D02*
X170928571Y-60661161D01*
X171357143Y-59708780D02*
X171357143Y-60708780D01*
X171357143Y-60708780D02*
X171595238Y-60708780D01*
X171595238Y-60708780D02*
X171738095Y-60661161D01*
X171738095Y-60661161D02*
X171833333Y-60565923D01*
X171833333Y-60565923D02*
X171880952Y-60470685D01*
X171880952Y-60470685D02*
X171928571Y-60280209D01*
X171928571Y-60280209D02*
X171928571Y-60137352D01*
X171928571Y-60137352D02*
X171880952Y-59946876D01*
X171880952Y-59946876D02*
X171833333Y-59851638D01*
X171833333Y-59851638D02*
X171738095Y-59756400D01*
X171738095Y-59756400D02*
X171595238Y-59708780D01*
X171595238Y-59708780D02*
X171357143Y-59708780D01*
X172309524Y-59994495D02*
X172785714Y-59994495D01*
X172214286Y-59708780D02*
X172547619Y-60708780D01*
X172547619Y-60708780D02*
X172880952Y-59708780D01*
D11*
X118423333Y-55104819D02*
X118090000Y-54628628D01*
X117851905Y-55104819D02*
X117851905Y-54104819D01*
X117851905Y-54104819D02*
X118232857Y-54104819D01*
X118232857Y-54104819D02*
X118328095Y-54152438D01*
X118328095Y-54152438D02*
X118375714Y-54200057D01*
X118375714Y-54200057D02*
X118423333Y-54295295D01*
X118423333Y-54295295D02*
X118423333Y-54438152D01*
X118423333Y-54438152D02*
X118375714Y-54533390D01*
X118375714Y-54533390D02*
X118328095Y-54581009D01*
X118328095Y-54581009D02*
X118232857Y-54628628D01*
X118232857Y-54628628D02*
X117851905Y-54628628D01*
X119375714Y-55104819D02*
X118804286Y-55104819D01*
X119090000Y-55104819D02*
X119090000Y-54104819D01*
X119090000Y-54104819D02*
X118994762Y-54247676D01*
X118994762Y-54247676D02*
X118899524Y-54342914D01*
X118899524Y-54342914D02*
X118804286Y-54390533D01*
X121974819Y-102468094D02*
X120974819Y-102468094D01*
X120974819Y-102468094D02*
X120974819Y-102229999D01*
X120974819Y-102229999D02*
X121022438Y-102087142D01*
X121022438Y-102087142D02*
X121117676Y-101991904D01*
X121117676Y-101991904D02*
X121212914Y-101944285D01*
X121212914Y-101944285D02*
X121403390Y-101896666D01*
X121403390Y-101896666D02*
X121546247Y-101896666D01*
X121546247Y-101896666D02*
X121736723Y-101944285D01*
X121736723Y-101944285D02*
X121831961Y-101991904D01*
X121831961Y-101991904D02*
X121927200Y-102087142D01*
X121927200Y-102087142D02*
X121974819Y-102229999D01*
X121974819Y-102229999D02*
X121974819Y-102468094D01*
X121070057Y-101515713D02*
X121022438Y-101468094D01*
X121022438Y-101468094D02*
X120974819Y-101372856D01*
X120974819Y-101372856D02*
X120974819Y-101134761D01*
X120974819Y-101134761D02*
X121022438Y-101039523D01*
X121022438Y-101039523D02*
X121070057Y-100991904D01*
X121070057Y-100991904D02*
X121165295Y-100944285D01*
X121165295Y-100944285D02*
X121260533Y-100944285D01*
X121260533Y-100944285D02*
X121403390Y-100991904D01*
X121403390Y-100991904D02*
X121974819Y-101563332D01*
X121974819Y-101563332D02*
X121974819Y-100944285D01*
X169036667Y-133207200D02*
X169179524Y-133254819D01*
X169179524Y-133254819D02*
X169417619Y-133254819D01*
X169417619Y-133254819D02*
X169512857Y-133207200D01*
X169512857Y-133207200D02*
X169560476Y-133159580D01*
X169560476Y-133159580D02*
X169608095Y-133064342D01*
X169608095Y-133064342D02*
X169608095Y-132969104D01*
X169608095Y-132969104D02*
X169560476Y-132873866D01*
X169560476Y-132873866D02*
X169512857Y-132826247D01*
X169512857Y-132826247D02*
X169417619Y-132778628D01*
X169417619Y-132778628D02*
X169227143Y-132731009D01*
X169227143Y-132731009D02*
X169131905Y-132683390D01*
X169131905Y-132683390D02*
X169084286Y-132635771D01*
X169084286Y-132635771D02*
X169036667Y-132540533D01*
X169036667Y-132540533D02*
X169036667Y-132445295D01*
X169036667Y-132445295D02*
X169084286Y-132350057D01*
X169084286Y-132350057D02*
X169131905Y-132302438D01*
X169131905Y-132302438D02*
X169227143Y-132254819D01*
X169227143Y-132254819D02*
X169465238Y-132254819D01*
X169465238Y-132254819D02*
X169608095Y-132302438D01*
X169941429Y-132254819D02*
X170179524Y-133254819D01*
X170179524Y-133254819D02*
X170370000Y-132540533D01*
X170370000Y-132540533D02*
X170560476Y-133254819D01*
X170560476Y-133254819D02*
X170798572Y-132254819D01*
X171131905Y-132350057D02*
X171179524Y-132302438D01*
X171179524Y-132302438D02*
X171274762Y-132254819D01*
X171274762Y-132254819D02*
X171512857Y-132254819D01*
X171512857Y-132254819D02*
X171608095Y-132302438D01*
X171608095Y-132302438D02*
X171655714Y-132350057D01*
X171655714Y-132350057D02*
X171703333Y-132445295D01*
X171703333Y-132445295D02*
X171703333Y-132540533D01*
X171703333Y-132540533D02*
X171655714Y-132683390D01*
X171655714Y-132683390D02*
X171084286Y-133254819D01*
X171084286Y-133254819D02*
X171703333Y-133254819D01*
M02*
