%TF.GenerationSoftware,KiCad,Pcbnew,10.0.0*%
%TF.CreationDate,2026-07-30T19:42:54+12:00*%
%TF.ProjectId,top-board,746f702d-626f-4617-9264-2e6b69636164,rev?*%
%TF.SameCoordinates,Original*%
%TF.FileFunction,Soldermask,Top*%
%TF.FilePolarity,Negative*%
%FSLAX46Y46*%
G04 Gerber Fmt 4.6, Leading zero omitted, Abs format (unit mm)*
G04 Created by KiCad (PCBNEW 10.0.0) date 2026-07-30 19:42:54*
%MOMM*%
%LPD*%
G01*
G04 APERTURE LIST*
G04 Aperture macros list*
%AMRoundRect*
0 Rectangle with rounded corners*
0 $1 Rounding radius*
0 $2 $3 $4 $5 $6 $7 $8 $9 X,Y pos of 4 corners*
0 Add a 4 corners polygon primitive as box body*
4,1,4,$2,$3,$4,$5,$6,$7,$8,$9,$2,$3,0*
0 Add four circle primitives for the rounded corners*
1,1,$1+$1,$2,$3*
1,1,$1+$1,$4,$5*
1,1,$1+$1,$6,$7*
1,1,$1+$1,$8,$9*
0 Add four rect primitives between the rounded corners*
20,1,$1+$1,$2,$3,$4,$5,0*
20,1,$1+$1,$4,$5,$6,$7,0*
20,1,$1+$1,$6,$7,$8,$9,0*
20,1,$1+$1,$8,$9,$2,$3,0*%
G04 Aperture macros list end*
%ADD10R,1.440000X2.000000*%
%ADD11O,1.440000X2.000000*%
%ADD12R,1.700000X1.700000*%
%ADD13C,1.700000*%
%ADD14C,3.200000*%
%ADD15C,1.600000*%
%ADD16R,1.800000X1.800000*%
%ADD17C,1.800000*%
%ADD18C,2.000000*%
%ADD19R,2.000000X2.000000*%
%ADD20C,2.404000*%
%ADD21RoundRect,0.102000X-0.754000X-0.754000X0.754000X-0.754000X0.754000X0.754000X-0.754000X0.754000X0*%
%ADD22C,1.712000*%
%ADD23RoundRect,0.450000X0.450000X-0.450000X0.450000X0.450000X-0.450000X0.450000X-0.450000X-0.450000X0*%
%ADD24R,3.200000X2.000000*%
G04 APERTURE END LIST*
D10*
%TO.C,J6*%
X150140000Y-106620000D03*
D11*
X152680000Y-106620000D03*
X155220000Y-106620000D03*
X157760000Y-106620000D03*
X160300000Y-106620000D03*
X162840000Y-106620000D03*
X165380000Y-106620000D03*
X167920000Y-106620000D03*
X170460000Y-106620000D03*
X173000000Y-106620000D03*
X173000000Y-99000000D03*
X170460000Y-99000000D03*
X167920000Y-99000000D03*
X165380000Y-99000000D03*
X162840000Y-99000000D03*
X160300000Y-99000000D03*
X157760000Y-99000000D03*
X155220000Y-99000000D03*
X152680000Y-99000000D03*
X150140000Y-99000000D03*
%TD*%
D12*
%TO.C,J9*%
X125390000Y-92530000D03*
D13*
X127930000Y-92530000D03*
X130470000Y-92530000D03*
%TD*%
D12*
%TO.C,J7*%
X118380000Y-78900000D03*
D13*
X120920000Y-78900000D03*
X123460000Y-78900000D03*
%TD*%
D12*
%TO.C,J5*%
X181000000Y-50750000D03*
D13*
X178460000Y-50750000D03*
X175920000Y-50750000D03*
X173380000Y-50750000D03*
X170840000Y-50750000D03*
X168300000Y-50750000D03*
X165760000Y-50750000D03*
X163220000Y-50750000D03*
X160680000Y-50750000D03*
X158140000Y-50750000D03*
X155600000Y-50750000D03*
X153060000Y-50750000D03*
X150520000Y-50750000D03*
X147980000Y-50750000D03*
X145440000Y-50750000D03*
X142900000Y-50750000D03*
%TD*%
D12*
%TO.C,J8*%
X125250000Y-101230000D03*
D13*
X127790000Y-101230000D03*
X130330000Y-101230000D03*
%TD*%
D14*
%TO.C,H1*%
X97581609Y-113617879D03*
%TD*%
D15*
%TO.C,R2*%
X115760000Y-51170000D03*
X108140000Y-51170000D03*
%TD*%
D16*
%TO.C,D1*%
X96840000Y-52220000D03*
D17*
X94300000Y-52220000D03*
%TD*%
D18*
%TO.C,SW1*%
X151000000Y-126500000D03*
X144500000Y-126500000D03*
X151000000Y-122000000D03*
X144500000Y-122000000D03*
%TD*%
D16*
%TO.C,D3*%
X104240000Y-52250000D03*
D17*
X101700000Y-52250000D03*
%TD*%
D14*
%TO.C,H3*%
X125572414Y-52550000D03*
%TD*%
D19*
%TO.C,BZ1*%
X133640000Y-71660000D03*
D18*
X141240000Y-71660000D03*
%TD*%
D20*
%TO.C,J2*%
X176504450Y-85500000D03*
X176504450Y-62500000D03*
X155500000Y-85500000D03*
X155500000Y-62500000D03*
D21*
X162190000Y-62000000D03*
D22*
X164730000Y-62000000D03*
X167270000Y-62000000D03*
X169810000Y-62000000D03*
%TD*%
D15*
%TO.C,R1*%
X115790000Y-54330000D03*
X108170000Y-54330000D03*
%TD*%
D23*
%TO.C,D2*%
X115476000Y-103826000D03*
D17*
X117000000Y-102048000D03*
X115476000Y-100524000D03*
X117000000Y-99000000D03*
%TD*%
D12*
%TO.C,J4*%
X142941805Y-136984818D03*
D13*
X145481805Y-136984818D03*
X148021805Y-136984818D03*
X150561805Y-136984818D03*
X153101805Y-136984818D03*
X155641805Y-136984818D03*
X158181805Y-136984818D03*
X160721805Y-136984818D03*
X163261805Y-136984818D03*
X165801805Y-136984818D03*
X168341805Y-136984818D03*
X170881805Y-136984818D03*
X173421805Y-136984818D03*
X175961805Y-136984818D03*
X178501805Y-136984818D03*
X181041805Y-136984818D03*
%TD*%
D19*
%TO.C,SW2*%
X178000000Y-127000000D03*
D18*
X178000000Y-122000000D03*
X178000000Y-124500000D03*
D24*
X170500000Y-130100000D03*
X170500000Y-118900000D03*
D18*
X163500000Y-122000000D03*
X163500000Y-127000000D03*
%TD*%
D12*
%TO.C,J3*%
X96050000Y-84212414D03*
D13*
X98590000Y-84212414D03*
X96050000Y-86752414D03*
X98590000Y-86752414D03*
X96050000Y-89292414D03*
X98590000Y-89292414D03*
X96050000Y-91832414D03*
X98590000Y-91832414D03*
X96050000Y-94372414D03*
X98590000Y-94372414D03*
X96050000Y-96912414D03*
X98590000Y-96912414D03*
X96050000Y-99452414D03*
X98590000Y-99452414D03*
X96050000Y-101992414D03*
X98590000Y-101992414D03*
X96050000Y-104532414D03*
X98590000Y-104532414D03*
X96050000Y-107072414D03*
X98590000Y-107072414D03*
%TD*%
D14*
%TO.C,H2*%
X187224127Y-61775431D03*
%TD*%
%TO.C,H4*%
X186550000Y-125631609D03*
%TD*%
M02*
