%TF.GenerationSoftware,KiCad,Pcbnew,10.0.0*%
%TF.CreationDate,2026-07-30T19:42:54+12:00*%
%TF.ProjectId,top-board,746f702d-626f-4617-9264-2e6b69636164,rev?*%
%TF.SameCoordinates,Original*%
%TF.FileFunction,Copper,L2,Bot*%
%TF.FilePolarity,Positive*%
%FSLAX46Y46*%
G04 Gerber Fmt 4.6, Leading zero omitted, Abs format (unit mm)*
G04 Created by KiCad (PCBNEW 10.0.0) date 2026-07-30 19:42:54*
%MOMM*%
%LPD*%
G01*
G04 APERTURE LIST*
G04 Aperture macros list*
%AMRoundRect*
0 Rectangle with rounded corners*
0 $1 Rounding radius*
0 $2 $3 $4 $5 $6 $7 $8 $9 X,Y pos of 4 corners*
0 Add a 4 corners polygon primitive as box body*
4,1,4,$2,$3,$4,$5,$6,$7,$8,$9,$2,$3,0*
0 Add four circle primitives for the rounded corners*
1,1,$1+$1,$2,$3*
1,1,$1+$1,$4,$5*
1,1,$1+$1,$6,$7*
1,1,$1+$1,$8,$9*
0 Add four rect primitives between the rounded corners*
20,1,$1+$1,$2,$3,$4,$5,0*
20,1,$1+$1,$4,$5,$6,$7,0*
20,1,$1+$1,$6,$7,$8,$9,0*
20,1,$1+$1,$8,$9,$2,$3,0*%
G04 Aperture macros list end*
%TA.AperFunction,ComponentPad*%
%ADD10R,1.440000X2.000000*%
%TD*%
%TA.AperFunction,ComponentPad*%
%ADD11O,1.440000X2.000000*%
%TD*%
%TA.AperFunction,ComponentPad*%
%ADD12R,1.700000X1.700000*%
%TD*%
%TA.AperFunction,ComponentPad*%
%ADD13C,1.700000*%
%TD*%
%TA.AperFunction,ComponentPad*%
%ADD14C,1.600000*%
%TD*%
%TA.AperFunction,ComponentPad*%
%ADD15R,1.800000X1.800000*%
%TD*%
%TA.AperFunction,ComponentPad*%
%ADD16C,1.800000*%
%TD*%
%TA.AperFunction,ComponentPad*%
%ADD17C,2.000000*%
%TD*%
%TA.AperFunction,ComponentPad*%
%ADD18R,2.000000X2.000000*%
%TD*%
%TA.AperFunction,ComponentPad*%
%ADD19R,1.508000X1.508000*%
%TD*%
%TA.AperFunction,ComponentPad*%
%ADD20C,1.508000*%
%TD*%
%TA.AperFunction,ComponentPad*%
%ADD21RoundRect,0.450000X0.450000X-0.450000X0.450000X0.450000X-0.450000X0.450000X-0.450000X-0.450000X0*%
%TD*%
%TA.AperFunction,ComponentPad*%
%ADD22R,3.200000X2.000000*%
%TD*%
%TA.AperFunction,ViaPad*%
%ADD23C,0.600000*%
%TD*%
%TA.AperFunction,Conductor*%
%ADD24C,0.200000*%
%TD*%
%TA.AperFunction,Conductor*%
%ADD25C,1.000000*%
%TD*%
G04 APERTURE END LIST*
D10*
%TO.P,J6,1,Pin_1_1*%
%TO.N,/ZIF_1*%
X150140000Y-106620000D03*
D11*
%TO.P,J6,2,Pin_2_2*%
%TO.N,/ZIF_2*%
X152680000Y-106620000D03*
%TO.P,J6,3,Pin_3_3*%
%TO.N,/ZIF_3*%
X155220000Y-106620000D03*
%TO.P,J6,4,Pin_4_4*%
%TO.N,/ZIF_4*%
X157760000Y-106620000D03*
%TO.P,J6,5,Pin_5_5*%
%TO.N,/ZIF_5*%
X160300000Y-106620000D03*
%TO.P,J6,6,Pin_6_6*%
%TO.N,/ZIF_6*%
X162840000Y-106620000D03*
%TO.P,J6,7,Pin_7_7*%
%TO.N,/ZIF_7*%
X165380000Y-106620000D03*
%TO.P,J6,8,Pin_8_8*%
%TO.N,/ZIF_8*%
X167920000Y-106620000D03*
%TO.P,J6,9,Pin_9_9*%
%TO.N,/ZIF_9*%
X170460000Y-106620000D03*
%TO.P,J6,10,Pin_10_10*%
%TO.N,/ZIF_10*%
X173000000Y-106620000D03*
%TO.P,J6,11,Pin_11_11*%
%TO.N,/ZIF_11*%
X173000000Y-99000000D03*
%TO.P,J6,12,Pin_12_12*%
%TO.N,/ZIF_12*%
X170460000Y-99000000D03*
%TO.P,J6,13,Pin_13_13*%
%TO.N,/ZIF_13*%
X167920000Y-99000000D03*
%TO.P,J6,14,Pin_14_14*%
%TO.N,/ZIF_14*%
X165380000Y-99000000D03*
%TO.P,J6,15,Pin_15_15*%
%TO.N,/ZIF_15*%
X162840000Y-99000000D03*
%TO.P,J6,16,Pin_16_16*%
%TO.N,/ZIF_16*%
X160300000Y-99000000D03*
%TO.P,J6,17,Pin_17_17*%
%TO.N,/ZIF_17*%
X157760000Y-99000000D03*
%TO.P,J6,18,Pin_18_18*%
%TO.N,/ZIF_18*%
X155220000Y-99000000D03*
%TO.P,J6,19,Pin_19_19*%
%TO.N,/ZIF_19*%
X152680000Y-99000000D03*
%TO.P,J6,20,Pin_20_20*%
%TO.N,/ZIF_20*%
X150140000Y-99000000D03*
%TD*%
D12*
%TO.P,J9,1,Pin_1_1*%
%TO.N,/RGB red*%
X125390000Y-92530000D03*
D13*
%TO.P,J9,2,Pin_2_2*%
%TO.N,/RGB green*%
X127930000Y-92530000D03*
%TO.P,J9,3,Pin_3_3*%
%TO.N,/RGB blue*%
X130470000Y-92530000D03*
%TD*%
D12*
%TO.P,J7,1,Pin_1_1*%
%TO.N,+5V*%
X118380000Y-78900000D03*
D13*
%TO.P,J7,2,Pin_2_2*%
%TO.N,/BUZ-V*%
X120920000Y-78900000D03*
%TO.P,J7,3,Pin_3_3*%
%TO.N,+3.3V*%
X123460000Y-78900000D03*
%TD*%
D12*
%TO.P,J5,1,Pin_1_1*%
%TO.N,/ZIF_17*%
X181000000Y-50750000D03*
D13*
%TO.P,J5,2,Pin_2_2*%
%TO.N,/ZIF_18*%
X178460000Y-50750000D03*
%TO.P,J5,3,Pin_3_3*%
%TO.N,/ZIF_19*%
X175920000Y-50750000D03*
%TO.P,J5,4,Pin_4_4*%
%TO.N,/ZIF_20*%
X173380000Y-50750000D03*
%TO.P,J5,5,Pin_5_5*%
%TO.N,/SDA*%
X170840000Y-50750000D03*
%TO.P,J5,6,Pin_6_6*%
%TO.N,/SCL*%
X168300000Y-50750000D03*
%TO.P,J5,7,Pin_7_7*%
%TO.N,/RGB red*%
X165760000Y-50750000D03*
%TO.P,J5,8,Pin_8_8*%
%TO.N,/RGB green*%
X163220000Y-50750000D03*
%TO.P,J5,9,Pin_9_9*%
%TO.N,/RGB blue*%
X160680000Y-50750000D03*
%TO.P,J5,10,Pin_10_10*%
%TO.N,/Test {slash} enter Button*%
X158140000Y-50750000D03*
%TO.P,J5,11,Pin_11_11*%
%TO.N,/Pezzio*%
X155600000Y-50750000D03*
%TO.P,J5,12,Pin_12_12*%
%TO.N,/Encoder_A*%
X153060000Y-50750000D03*
%TO.P,J5,13,Pin_13_13*%
%TO.N,/Encoder_B*%
X150520000Y-50750000D03*
%TO.P,J5,14,Pin_14_14*%
%TO.N,/Encoder SW*%
X147980000Y-50750000D03*
%TO.P,J5,15,Pin_15_15*%
%TO.N,/extra_gpio28*%
X145440000Y-50750000D03*
%TO.P,J5,16,Pin_16_16*%
%TO.N,/Next {slash} select Button*%
X142900000Y-50750000D03*
%TD*%
D12*
%TO.P,J8,1,Pin_1_1*%
%TO.N,/red*%
X125250000Y-101230000D03*
D13*
%TO.P,J8,2,Pin_2_2*%
%TO.N,/green*%
X127790000Y-101230000D03*
%TO.P,J8,3,Pin_3_3*%
%TO.N,/blue*%
X130330000Y-101230000D03*
%TD*%
D14*
%TO.P,R2,1*%
%TO.N,+3.3V*%
X115760000Y-51170000D03*
%TO.P,R2,2*%
%TO.N,Net-(D3-K)*%
X108140000Y-51170000D03*
%TD*%
D15*
%TO.P,D1,1,K_1*%
%TO.N,Net-(D1-K)*%
X96840000Y-52220000D03*
D16*
%TO.P,D1,2,A_2*%
%TO.N,GND*%
X94300000Y-52220000D03*
%TD*%
D17*
%TO.P,SW1,1,1_1*%
%TO.N,GND*%
X151000000Y-126500000D03*
X144500000Y-126500000D03*
%TO.P,SW1,2,2_2*%
%TO.N,/Test {slash} enter Button*%
X151000000Y-122000000D03*
X144500000Y-122000000D03*
%TD*%
D15*
%TO.P,D3,1,K_1*%
%TO.N,Net-(D3-K)*%
X104240000Y-52250000D03*
D16*
%TO.P,D3,2,A_2*%
%TO.N,GND*%
X101700000Y-52250000D03*
%TD*%
D18*
%TO.P,BZ1,1,+_1*%
%TO.N,/BUZ-V*%
X133640000Y-71660000D03*
D17*
%TO.P,BZ1,2,-_2*%
%TO.N,/Pezzio*%
X141240000Y-71660000D03*
%TD*%
D19*
%TO.P,J2,1,GND_1*%
%TO.N,GND*%
X162190000Y-62000000D03*
D20*
%TO.P,J2,2,VCC_2*%
%TO.N,+3.3V*%
X164730000Y-62000000D03*
%TO.P,J2,3,SCL_3*%
%TO.N,/SCL*%
X167270000Y-62000000D03*
%TO.P,J2,4,SDA_4*%
%TO.N,/SDA*%
X169810000Y-62000000D03*
%TD*%
D14*
%TO.P,R1,1*%
%TO.N,+5V*%
X115790000Y-54330000D03*
%TO.P,R1,2*%
%TO.N,Net-(D1-K)*%
X108170000Y-54330000D03*
%TD*%
D21*
%TO.P,D2,1,BA_1*%
%TO.N,/blue*%
X115476000Y-103826000D03*
D16*
%TO.P,D2,2,RA_2*%
%TO.N,/red*%
X117000000Y-102048000D03*
%TO.P,D2,3,K_3*%
%TO.N,GND*%
X115476000Y-100524000D03*
%TO.P,D2,4,GA_4*%
%TO.N,/green*%
X117000000Y-99000000D03*
%TD*%
D12*
%TO.P,J4,1,Pin_1_1*%
%TO.N,/ZIF_1*%
X142941805Y-136984818D03*
D13*
%TO.P,J4,2,Pin_2_2*%
%TO.N,/ZIF_2*%
X145481805Y-136984818D03*
%TO.P,J4,3,Pin_3_3*%
%TO.N,/ZIF_3*%
X148021805Y-136984818D03*
%TO.P,J4,4,Pin_4_4*%
%TO.N,/ZIF_4*%
X150561805Y-136984818D03*
%TO.P,J4,5,Pin_5_5*%
%TO.N,/ZIF_5*%
X153101805Y-136984818D03*
%TO.P,J4,6,Pin_6_6*%
%TO.N,/ZIF_6*%
X155641805Y-136984818D03*
%TO.P,J4,7,Pin_7_7*%
%TO.N,/ZIF_7*%
X158181805Y-136984818D03*
%TO.P,J4,8,Pin_8_8*%
%TO.N,/ZIF_8*%
X160721805Y-136984818D03*
%TO.P,J4,9,Pin_9_9*%
%TO.N,/ZIF_9*%
X163261805Y-136984818D03*
%TO.P,J4,10,Pin_10_10*%
%TO.N,/ZIF_10*%
X165801805Y-136984818D03*
%TO.P,J4,11,Pin_11_11*%
%TO.N,/ZIF_11*%
X168341805Y-136984818D03*
%TO.P,J4,12,Pin_12_12*%
%TO.N,/ZIF_12*%
X170881805Y-136984818D03*
%TO.P,J4,13,Pin_13_13*%
%TO.N,/ZIF_13*%
X173421805Y-136984818D03*
%TO.P,J4,14,Pin_14_14*%
%TO.N,/ZIF_14*%
X175961805Y-136984818D03*
%TO.P,J4,15,Pin_15_15*%
%TO.N,/ZIF_15*%
X178501805Y-136984818D03*
%TO.P,J4,16,Pin_16_16*%
%TO.N,/ZIF_16*%
X181041805Y-136984818D03*
%TD*%
D18*
%TO.P,SW2,A,A_A*%
%TO.N,/Encoder_A*%
X178000000Y-127000000D03*
D17*
%TO.P,SW2,B,B_B*%
%TO.N,/Encoder_B*%
X178000000Y-122000000D03*
%TO.P,SW2,C,C_C*%
%TO.N,GND*%
X178000000Y-124500000D03*
D22*
%TO.P,SW2,MP,MP_MP*%
%TO.N,unconnected-(SW2-PadMP)*%
X170500000Y-130100000D03*
X170500000Y-118900000D03*
D17*
%TO.P,SW2,S1,S1_S1*%
%TO.N,/Encoder SW*%
X163500000Y-122000000D03*
%TO.P,SW2,S2,S2_S2*%
%TO.N,GND*%
X163500000Y-127000000D03*
%TD*%
D12*
%TO.P,J3,1,Pin_1_1*%
%TO.N,+5V*%
X96050000Y-84212414D03*
D13*
%TO.P,J3,2,Pin_2_2*%
%TO.N,+3.3V*%
X98590000Y-84212414D03*
%TO.P,J3,3,Pin_3_3*%
%TO.N,unconnected-(J3-Pin_3-Pad3)*%
X96050000Y-86752414D03*
%TO.P,J3,4,Pin_4_4*%
%TO.N,unconnected-(J3-Pin_4-Pad4)*%
X98590000Y-86752414D03*
%TO.P,J3,5,Pin_5_5*%
%TO.N,GND*%
X96050000Y-89292414D03*
%TO.P,J3,6,Pin_6_6*%
X98590000Y-89292414D03*
%TO.P,J3,7,Pin_7_7*%
%TO.N,+5V*%
X96050000Y-91832414D03*
%TO.P,J3,8,Pin_8_8*%
%TO.N,+3.3V*%
X98590000Y-91832414D03*
%TO.P,J3,9,Pin_9_9*%
%TO.N,unconnected-(J3-Pin_9-Pad9)*%
X96050000Y-94372414D03*
%TO.P,J3,10,Pin_10_10*%
%TO.N,unconnected-(J3-Pin_10-Pad10)*%
X98590000Y-94372414D03*
%TO.P,J3,11,Pin_11_11*%
%TO.N,GND*%
X96050000Y-96912414D03*
%TO.P,J3,12,Pin_12_12*%
X98590000Y-96912414D03*
%TO.P,J3,13,Pin_13_13*%
%TO.N,+5V*%
X96050000Y-99452414D03*
%TO.P,J3,14,Pin_14_14*%
%TO.N,+3.3V*%
X98590000Y-99452414D03*
%TO.P,J3,15,Pin_15_15*%
%TO.N,unconnected-(J3-Pin_15-Pad15)*%
X96050000Y-101992414D03*
%TO.P,J3,16,Pin_16_16*%
%TO.N,unconnected-(J3-Pin_16-Pad16)*%
X98590000Y-101992414D03*
%TO.P,J3,17,Pin_17_17*%
%TO.N,GND*%
X96050000Y-104532414D03*
%TO.P,J3,18,Pin_18_18*%
X98590000Y-104532414D03*
%TO.P,J3,19,Pin_19_19*%
%TO.N,unconnected-(J3-Pin_19-Pad19)*%
X96050000Y-107072414D03*
%TO.P,J3,20,Pin_20_20*%
%TO.N,unconnected-(J3-Pin_20-Pad20)*%
X98590000Y-107072414D03*
%TD*%
D23*
%TO.N,/RGB red*%
X132170000Y-87150000D03*
%TO.N,/Encoder_A*%
X154010000Y-47900000D03*
%TO.N,/Encoder SW*%
X182910000Y-110450000D03*
%TD*%
%TO.N,/RGB red*%
D24*
X125390000Y-92010000D02*
X128310000Y-89090000D01*
X130310000Y-87150000D02*
X132170000Y-87150000D01*
X128310000Y-89090000D02*
X128370000Y-89090000D01*
X125390000Y-92530000D02*
X125390000Y-92010000D01*
X128370000Y-89090000D02*
X130310000Y-87150000D01*
%TO.N,/RGB blue*%
X158750000Y-63050000D02*
X130470000Y-91330000D01*
X158750000Y-53850000D02*
X158750000Y-63050000D01*
X160680000Y-50750000D02*
X160680000Y-51920000D01*
X160680000Y-51920000D02*
X158750000Y-53850000D01*
X130470000Y-91330000D02*
X130470000Y-92530000D01*
%TO.N,/Test {slash} enter Button*%
X144500000Y-121850000D02*
X148000000Y-118350000D01*
X160200000Y-55850000D02*
X161940000Y-54110000D01*
X161940000Y-49850000D02*
X160980000Y-48890000D01*
X158200000Y-49790000D02*
X158200000Y-50690000D01*
X148000000Y-118350000D02*
X148000000Y-97200000D01*
X160200000Y-85000000D02*
X160200000Y-55850000D01*
X148000000Y-97200000D02*
X160200000Y-85000000D01*
X158200000Y-50690000D02*
X158140000Y-50750000D01*
X144500000Y-122000000D02*
X151000000Y-122000000D01*
X144500000Y-122000000D02*
X144500000Y-121850000D01*
X161940000Y-54110000D02*
X161940000Y-49850000D01*
X159100000Y-48890000D02*
X158200000Y-49790000D01*
X160980000Y-48890000D02*
X159100000Y-48890000D01*
%TO.N,/Encoder_A*%
X161321371Y-48100000D02*
X182665686Y-48100000D01*
X161311371Y-48090000D02*
X161321371Y-48100000D01*
X183400000Y-48834315D02*
X183400000Y-63949999D01*
X154010000Y-47815000D02*
X154285000Y-48090000D01*
X182665686Y-48100000D02*
X183400000Y-48834315D01*
X184350000Y-120650000D02*
X178000000Y-127000000D01*
X184350000Y-64900000D02*
X184350000Y-120650000D01*
X183400000Y-63949999D02*
X184350000Y-64900000D01*
X154010000Y-47900000D02*
X154010000Y-47815000D01*
X154285000Y-48090000D02*
X161311371Y-48090000D01*
%TO.N,/Encoder_B*%
X178750000Y-122000000D02*
X183750000Y-117000000D01*
X151175000Y-48500000D02*
X150520000Y-49155000D01*
X183000000Y-49000000D02*
X182500000Y-48500000D01*
X150520000Y-49155000D02*
X150520000Y-50750000D01*
X183750000Y-64865685D02*
X183000000Y-64115685D01*
X158934314Y-48490000D02*
X158924315Y-48500000D01*
X183000000Y-64115685D02*
X183000000Y-49000000D01*
X161155685Y-48500000D02*
X161145685Y-48490000D01*
X158924315Y-48500000D02*
X151175000Y-48500000D01*
X183750000Y-117000000D02*
X183750000Y-64865685D01*
X182500000Y-48500000D02*
X161155685Y-48500000D01*
X161145685Y-48490000D02*
X158934314Y-48490000D01*
X178000000Y-122000000D02*
X178750000Y-122000000D01*
%TO.N,/Encoder SW*%
X177660000Y-115700000D02*
X168000000Y-115700000D01*
X168000000Y-115700000D02*
X163500000Y-120200000D01*
X182910000Y-110450000D02*
X177660000Y-115700000D01*
X163500000Y-120200000D02*
X163500000Y-122000000D01*
%TO.N,GND*%
D25*
X166400000Y-126950000D02*
X163550000Y-126950000D01*
X178000000Y-124500000D02*
X168850000Y-124500000D01*
X168850000Y-124500000D02*
X166400000Y-126950000D01*
X163550000Y-126950000D02*
X163500000Y-127000000D01*
%TD*%
%TA.AperFunction,Conductor*%
%TO.N,GND*%
G36*
X183668834Y-118032915D02*
G01*
X183724767Y-118074787D01*
X183749184Y-118140251D01*
X183749500Y-118149097D01*
X183749500Y-120349902D01*
X183729815Y-120416941D01*
X183713181Y-120437583D01*
X179708838Y-124441925D01*
X179647515Y-124475410D01*
X179577823Y-124470426D01*
X179521890Y-124428554D01*
X179498684Y-124373642D01*
X179463065Y-124148751D01*
X179390102Y-123924197D01*
X179282914Y-123713828D01*
X179222658Y-123630894D01*
X179222658Y-123630893D01*
X178482962Y-124370589D01*
X178465925Y-124307007D01*
X178400099Y-124192993D01*
X178307007Y-124099901D01*
X178192993Y-124034075D01*
X178129409Y-124017037D01*
X178875716Y-123270729D01*
X178884891Y-123227054D01*
X178921257Y-123185386D01*
X178977510Y-123144517D01*
X179144517Y-122977510D01*
X179283343Y-122786433D01*
X179390568Y-122575992D01*
X179463553Y-122351368D01*
X179497841Y-122134884D01*
X179527770Y-122071749D01*
X179532615Y-122066619D01*
X183537819Y-118061416D01*
X183599142Y-118027931D01*
X183668834Y-118032915D01*
G37*
%TD.AperFunction*%
%TA.AperFunction,Conductor*%
G36*
X98124075Y-104725407D02*
G01*
X98189901Y-104839421D01*
X98282993Y-104932513D01*
X98397007Y-104998339D01*
X98460590Y-105015376D01*
X97828282Y-105647683D01*
X97828282Y-105647684D01*
X97882452Y-105687040D01*
X97882451Y-105687040D01*
X97891495Y-105691648D01*
X97942292Y-105739622D01*
X97959087Y-105807443D01*
X97936550Y-105873578D01*
X97891499Y-105912616D01*
X97882182Y-105917363D01*
X97710213Y-106042304D01*
X97559890Y-106192627D01*
X97434949Y-106364596D01*
X97430484Y-106373360D01*
X97382509Y-106424156D01*
X97314688Y-106440950D01*
X97248553Y-106418412D01*
X97209516Y-106373360D01*
X97205050Y-106364596D01*
X97080109Y-106192627D01*
X96929786Y-106042304D01*
X96757817Y-105917363D01*
X96748504Y-105912618D01*
X96697707Y-105864644D01*
X96680912Y-105796823D01*
X96703449Y-105730688D01*
X96748507Y-105691646D01*
X96757555Y-105687036D01*
X96811716Y-105647684D01*
X96811717Y-105647684D01*
X96179408Y-105015376D01*
X96242993Y-104998339D01*
X96357007Y-104932513D01*
X96450099Y-104839421D01*
X96515925Y-104725407D01*
X96532962Y-104661823D01*
X97165270Y-105294131D01*
X97165270Y-105294130D01*
X97204622Y-105239968D01*
X97209514Y-105230368D01*
X97257488Y-105179571D01*
X97325308Y-105162775D01*
X97391444Y-105185311D01*
X97430486Y-105230368D01*
X97435375Y-105239964D01*
X97474728Y-105294130D01*
X98107037Y-104661822D01*
X98124075Y-104725407D01*
G37*
%TD.AperFunction*%
%TA.AperFunction,Conductor*%
G36*
X97391444Y-102646413D02*
G01*
X97430486Y-102691470D01*
X97434951Y-102700234D01*
X97559890Y-102872200D01*
X97710213Y-103022523D01*
X97882179Y-103147462D01*
X97882181Y-103147463D01*
X97882184Y-103147465D01*
X97891493Y-103152208D01*
X97942290Y-103200180D01*
X97959087Y-103268001D01*
X97936552Y-103334136D01*
X97891505Y-103373174D01*
X97882446Y-103377790D01*
X97882440Y-103377794D01*
X97828282Y-103417141D01*
X97828282Y-103417142D01*
X98460591Y-104049451D01*
X98397007Y-104066489D01*
X98282993Y-104132315D01*
X98189901Y-104225407D01*
X98124075Y-104339421D01*
X98107037Y-104403005D01*
X97474728Y-103770696D01*
X97474727Y-103770696D01*
X97435380Y-103824854D01*
X97430483Y-103834465D01*
X97382506Y-103885259D01*
X97314684Y-103902052D01*
X97248550Y-103879512D01*
X97209516Y-103834462D01*
X97204626Y-103824866D01*
X97165270Y-103770696D01*
X97165269Y-103770696D01*
X96532962Y-104403004D01*
X96515925Y-104339421D01*
X96450099Y-104225407D01*
X96357007Y-104132315D01*
X96242993Y-104066489D01*
X96179409Y-104049451D01*
X96811716Y-103417142D01*
X96757547Y-103377787D01*
X96757547Y-103377786D01*
X96748500Y-103373177D01*
X96697706Y-103325202D01*
X96680912Y-103257380D01*
X96703451Y-103191246D01*
X96748508Y-103152207D01*
X96757816Y-103147465D01*
X96837007Y-103089929D01*
X96929786Y-103022523D01*
X96929788Y-103022520D01*
X96929792Y-103022518D01*
X97080104Y-102872206D01*
X97080106Y-102872202D01*
X97080109Y-102872200D01*
X97205048Y-102700234D01*
X97205047Y-102700234D01*
X97205051Y-102700230D01*
X97209514Y-102691468D01*
X97257488Y-102640673D01*
X97325308Y-102623877D01*
X97391444Y-102646413D01*
G37*
%TD.AperFunction*%
%TA.AperFunction,Conductor*%
G36*
X98124075Y-97105407D02*
G01*
X98189901Y-97219421D01*
X98282993Y-97312513D01*
X98397007Y-97378339D01*
X98460590Y-97395376D01*
X97828282Y-98027683D01*
X97828282Y-98027684D01*
X97882452Y-98067040D01*
X97882451Y-98067040D01*
X97891495Y-98071648D01*
X97942292Y-98119622D01*
X97959087Y-98187443D01*
X97936550Y-98253578D01*
X97891499Y-98292616D01*
X97882182Y-98297363D01*
X97710213Y-98422304D01*
X97559890Y-98572627D01*
X97434949Y-98744596D01*
X97430484Y-98753360D01*
X97382509Y-98804156D01*
X97314688Y-98820950D01*
X97248553Y-98798412D01*
X97209516Y-98753360D01*
X97205050Y-98744596D01*
X97080109Y-98572627D01*
X96929786Y-98422304D01*
X96757817Y-98297363D01*
X96748504Y-98292618D01*
X96697707Y-98244644D01*
X96680912Y-98176823D01*
X96703449Y-98110688D01*
X96748507Y-98071646D01*
X96757555Y-98067036D01*
X96811716Y-98027684D01*
X96811717Y-98027684D01*
X96179408Y-97395376D01*
X96242993Y-97378339D01*
X96357007Y-97312513D01*
X96450099Y-97219421D01*
X96515925Y-97105407D01*
X96532962Y-97041823D01*
X97165270Y-97674131D01*
X97165270Y-97674130D01*
X97204622Y-97619968D01*
X97209514Y-97610368D01*
X97257488Y-97559571D01*
X97325308Y-97542775D01*
X97391444Y-97565311D01*
X97430486Y-97610368D01*
X97435375Y-97619964D01*
X97474728Y-97674130D01*
X98107037Y-97041822D01*
X98124075Y-97105407D01*
G37*
%TD.AperFunction*%
%TA.AperFunction,Conductor*%
G36*
X97391444Y-95026413D02*
G01*
X97430486Y-95071470D01*
X97434951Y-95080234D01*
X97559890Y-95252200D01*
X97710213Y-95402523D01*
X97882179Y-95527462D01*
X97882181Y-95527463D01*
X97882184Y-95527465D01*
X97891493Y-95532208D01*
X97942290Y-95580180D01*
X97959087Y-95648001D01*
X97936552Y-95714136D01*
X97891505Y-95753174D01*
X97882446Y-95757790D01*
X97882440Y-95757794D01*
X97828282Y-95797141D01*
X97828282Y-95797142D01*
X98460591Y-96429451D01*
X98397007Y-96446489D01*
X98282993Y-96512315D01*
X98189901Y-96605407D01*
X98124075Y-96719421D01*
X98107037Y-96783005D01*
X97474728Y-96150696D01*
X97474727Y-96150696D01*
X97435380Y-96204854D01*
X97430483Y-96214465D01*
X97382506Y-96265259D01*
X97314684Y-96282052D01*
X97248550Y-96259512D01*
X97209516Y-96214462D01*
X97204626Y-96204866D01*
X97165270Y-96150696D01*
X97165269Y-96150696D01*
X96532962Y-96783004D01*
X96515925Y-96719421D01*
X96450099Y-96605407D01*
X96357007Y-96512315D01*
X96242993Y-96446489D01*
X96179409Y-96429451D01*
X96811716Y-95797142D01*
X96757547Y-95757787D01*
X96757547Y-95757786D01*
X96748500Y-95753177D01*
X96697706Y-95705202D01*
X96680912Y-95637380D01*
X96703451Y-95571246D01*
X96748508Y-95532207D01*
X96757816Y-95527465D01*
X96837007Y-95469929D01*
X96929786Y-95402523D01*
X96929788Y-95402520D01*
X96929792Y-95402518D01*
X97080104Y-95252206D01*
X97080106Y-95252202D01*
X97080109Y-95252200D01*
X97205048Y-95080234D01*
X97205047Y-95080234D01*
X97205051Y-95080230D01*
X97209514Y-95071468D01*
X97257488Y-95020673D01*
X97325308Y-95003877D01*
X97391444Y-95026413D01*
G37*
%TD.AperFunction*%
%TA.AperFunction,Conductor*%
G36*
X98124075Y-89485407D02*
G01*
X98189901Y-89599421D01*
X98282993Y-89692513D01*
X98397007Y-89758339D01*
X98460590Y-89775376D01*
X97828282Y-90407683D01*
X97828282Y-90407684D01*
X97882452Y-90447040D01*
X97882451Y-90447040D01*
X97891495Y-90451648D01*
X97942292Y-90499622D01*
X97959087Y-90567443D01*
X97936550Y-90633578D01*
X97891499Y-90672616D01*
X97882182Y-90677363D01*
X97710213Y-90802304D01*
X97559890Y-90952627D01*
X97434949Y-91124596D01*
X97430484Y-91133360D01*
X97382509Y-91184156D01*
X97314688Y-91200950D01*
X97248553Y-91178412D01*
X97209516Y-91133360D01*
X97205050Y-91124596D01*
X97080109Y-90952627D01*
X96929786Y-90802304D01*
X96757817Y-90677363D01*
X96748504Y-90672618D01*
X96697707Y-90624644D01*
X96680912Y-90556823D01*
X96703449Y-90490688D01*
X96748507Y-90451646D01*
X96757555Y-90447036D01*
X96811716Y-90407684D01*
X96811717Y-90407684D01*
X96179408Y-89775376D01*
X96242993Y-89758339D01*
X96357007Y-89692513D01*
X96450099Y-89599421D01*
X96515925Y-89485407D01*
X96532962Y-89421823D01*
X97165270Y-90054131D01*
X97165270Y-90054130D01*
X97204622Y-89999968D01*
X97209514Y-89990368D01*
X97257488Y-89939571D01*
X97325308Y-89922775D01*
X97391444Y-89945311D01*
X97430486Y-89990368D01*
X97435375Y-89999964D01*
X97474728Y-90054130D01*
X98107037Y-89421822D01*
X98124075Y-89485407D01*
G37*
%TD.AperFunction*%
%TA.AperFunction,Conductor*%
G36*
X97391444Y-87406413D02*
G01*
X97430486Y-87451470D01*
X97434951Y-87460234D01*
X97559890Y-87632200D01*
X97710213Y-87782523D01*
X97882179Y-87907462D01*
X97882181Y-87907463D01*
X97882184Y-87907465D01*
X97891493Y-87912208D01*
X97942290Y-87960180D01*
X97959087Y-88028001D01*
X97936552Y-88094136D01*
X97891505Y-88133174D01*
X97882446Y-88137790D01*
X97882440Y-88137794D01*
X97828282Y-88177141D01*
X97828282Y-88177142D01*
X98460591Y-88809451D01*
X98397007Y-88826489D01*
X98282993Y-88892315D01*
X98189901Y-88985407D01*
X98124075Y-89099421D01*
X98107037Y-89163005D01*
X97474728Y-88530696D01*
X97474727Y-88530696D01*
X97435380Y-88584854D01*
X97430483Y-88594465D01*
X97382506Y-88645259D01*
X97314684Y-88662052D01*
X97248550Y-88639512D01*
X97209516Y-88594462D01*
X97204626Y-88584866D01*
X97165270Y-88530696D01*
X97165269Y-88530696D01*
X96532962Y-89163004D01*
X96515925Y-89099421D01*
X96450099Y-88985407D01*
X96357007Y-88892315D01*
X96242993Y-88826489D01*
X96179409Y-88809451D01*
X96811716Y-88177142D01*
X96757547Y-88137787D01*
X96757547Y-88137786D01*
X96748500Y-88133177D01*
X96697706Y-88085202D01*
X96680912Y-88017380D01*
X96703451Y-87951246D01*
X96748508Y-87912207D01*
X96757816Y-87907465D01*
X96837007Y-87849929D01*
X96929786Y-87782523D01*
X96929788Y-87782520D01*
X96929792Y-87782518D01*
X97080104Y-87632206D01*
X97080106Y-87632202D01*
X97080109Y-87632200D01*
X97205048Y-87460234D01*
X97205047Y-87460234D01*
X97205051Y-87460230D01*
X97209514Y-87451468D01*
X97257488Y-87400673D01*
X97325308Y-87383877D01*
X97391444Y-87406413D01*
G37*
%TD.AperFunction*%
%TA.AperFunction,Conductor*%
G36*
X191442756Y-45520185D02*
G01*
X191488511Y-45572989D01*
X191499717Y-45624457D01*
X191511595Y-79780566D01*
X191528571Y-128599501D01*
X191529283Y-130645457D01*
X191509622Y-130712503D01*
X191456834Y-130758276D01*
X191405283Y-130769500D01*
X184733962Y-130769500D01*
X184733138Y-130769446D01*
X184659696Y-130769499D01*
X184659635Y-130769500D01*
X184594108Y-130769500D01*
X184593929Y-130769547D01*
X184593743Y-130769548D01*
X184593620Y-130769580D01*
X184593620Y-130769581D01*
X184530232Y-130786613D01*
X184530233Y-130786614D01*
X184530170Y-130786631D01*
X184466814Y-130803608D01*
X184466653Y-130803700D01*
X184466474Y-130803749D01*
X184409492Y-130836702D01*
X184409490Y-130836702D01*
X184408751Y-130837129D01*
X184352686Y-130869500D01*
X184352555Y-130869630D01*
X184352394Y-130869724D01*
X184352316Y-130869801D01*
X184352314Y-130869803D01*
X184305926Y-130916258D01*
X184305835Y-130916351D01*
X184259500Y-130962686D01*
X184259407Y-130962846D01*
X184259276Y-130962978D01*
X184259236Y-130963046D01*
X184259234Y-130963049D01*
X184231391Y-131011355D01*
X184226337Y-131020124D01*
X184193608Y-131076814D01*
X184193560Y-131076992D01*
X184193467Y-131077154D01*
X184193456Y-131077193D01*
X184193455Y-131077196D01*
X184176442Y-131140875D01*
X184159500Y-131204108D01*
X184159500Y-131204293D01*
X184159452Y-131204473D01*
X184159452Y-131204477D01*
X184159451Y-131204481D01*
X184159500Y-131269578D01*
X184159500Y-131270234D01*
X184159500Y-131335892D01*
X184159547Y-131336067D01*
X184159553Y-131344343D01*
X184159554Y-131344344D01*
X184169043Y-144345546D01*
X184149407Y-144412600D01*
X184096637Y-144458394D01*
X184045070Y-144469637D01*
X139975222Y-144479361D01*
X139908179Y-144459691D01*
X139862412Y-144406897D01*
X139851195Y-144355223D01*
X139851206Y-144345546D01*
X139860403Y-136086953D01*
X141591305Y-136086953D01*
X141591305Y-137882688D01*
X141591306Y-137882694D01*
X141597713Y-137942301D01*
X141648007Y-138077146D01*
X141648011Y-138077153D01*
X141734257Y-138192362D01*
X141734260Y-138192365D01*
X141849469Y-138278611D01*
X141849476Y-138278615D01*
X141984322Y-138328909D01*
X141984321Y-138328909D01*
X141991249Y-138329653D01*
X142043932Y-138335318D01*
X143839677Y-138335317D01*
X143899288Y-138328909D01*
X144034136Y-138278614D01*
X144149351Y-138192364D01*
X144235601Y-138077149D01*
X144284615Y-137945734D01*
X144326486Y-137889802D01*
X144391950Y-137865384D01*
X144460223Y-137880235D01*
X144488478Y-137901387D01*
X144602018Y-138014927D01*
X144773984Y-138139866D01*
X144773986Y-138139867D01*
X144773989Y-138139869D01*
X144963393Y-138236375D01*
X145165562Y-138302064D01*
X145375518Y-138335318D01*
X145375519Y-138335318D01*
X145588091Y-138335318D01*
X145588092Y-138335318D01*
X145798048Y-138302064D01*
X146000217Y-138236375D01*
X146189621Y-138139869D01*
X146275943Y-138077153D01*
X146361591Y-138014927D01*
X146361593Y-138014924D01*
X146361597Y-138014922D01*
X146511909Y-137864610D01*
X146511911Y-137864606D01*
X146511914Y-137864604D01*
X146636853Y-137692638D01*
X146636852Y-137692638D01*
X146636856Y-137692634D01*
X146641319Y-137683872D01*
X146689293Y-137633077D01*
X146757113Y-137616281D01*
X146823249Y-137638817D01*
X146862291Y-137683874D01*
X146866756Y-137692638D01*
X146991695Y-137864604D01*
X147142018Y-138014927D01*
X147313984Y-138139866D01*
X147313986Y-138139867D01*
X147313989Y-138139869D01*
X147503393Y-138236375D01*
X147705562Y-138302064D01*
X147915518Y-138335318D01*
X147915519Y-138335318D01*
X148128091Y-138335318D01*
X148128092Y-138335318D01*
X148338048Y-138302064D01*
X148540217Y-138236375D01*
X148729621Y-138139869D01*
X148815943Y-138077153D01*
X148901591Y-138014927D01*
X148901593Y-138014924D01*
X148901597Y-138014922D01*
X149051909Y-137864610D01*
X149051911Y-137864606D01*
X149051914Y-137864604D01*
X149176853Y-137692638D01*
X149176852Y-137692638D01*
X149176856Y-137692634D01*
X149181319Y-137683872D01*
X149229293Y-137633077D01*
X149297113Y-137616281D01*
X149363249Y-137638817D01*
X149402291Y-137683874D01*
X149406756Y-137692638D01*
X149531695Y-137864604D01*
X149682018Y-138014927D01*
X149853984Y-138139866D01*
X149853986Y-138139867D01*
X149853989Y-138139869D01*
X150043393Y-138236375D01*
X150245562Y-138302064D01*
X150455518Y-138335318D01*
X150455519Y-138335318D01*
X150668091Y-138335318D01*
X150668092Y-138335318D01*
X150878048Y-138302064D01*
X151080217Y-138236375D01*
X151269621Y-138139869D01*
X151355943Y-138077153D01*
X151441591Y-138014927D01*
X151441593Y-138014924D01*
X151441597Y-138014922D01*
X151591909Y-137864610D01*
X151591911Y-137864606D01*
X151591914Y-137864604D01*
X151716853Y-137692638D01*
X151716852Y-137692638D01*
X151716856Y-137692634D01*
X151721319Y-137683872D01*
X151769293Y-137633077D01*
X151837113Y-137616281D01*
X151903249Y-137638817D01*
X151942291Y-137683874D01*
X151946756Y-137692638D01*
X152071695Y-137864604D01*
X152222018Y-138014927D01*
X152393984Y-138139866D01*
X152393986Y-138139867D01*
X152393989Y-138139869D01*
X152583393Y-138236375D01*
X152785562Y-138302064D01*
X152995518Y-138335318D01*
X152995519Y-138335318D01*
X153208091Y-138335318D01*
X153208092Y-138335318D01*
X153418048Y-138302064D01*
X153620217Y-138236375D01*
X153809621Y-138139869D01*
X153895943Y-138077153D01*
X153981591Y-138014927D01*
X153981593Y-138014924D01*
X153981597Y-138014922D01*
X154131909Y-137864610D01*
X154131911Y-137864606D01*
X154131914Y-137864604D01*
X154256853Y-137692638D01*
X154256852Y-137692638D01*
X154256856Y-137692634D01*
X154261319Y-137683872D01*
X154309293Y-137633077D01*
X154377113Y-137616281D01*
X154443249Y-137638817D01*
X154482291Y-137683874D01*
X154486756Y-137692638D01*
X154611695Y-137864604D01*
X154762018Y-138014927D01*
X154933984Y-138139866D01*
X154933986Y-138139867D01*
X154933989Y-138139869D01*
X155123393Y-138236375D01*
X155325562Y-138302064D01*
X155535518Y-138335318D01*
X155535519Y-138335318D01*
X155748091Y-138335318D01*
X155748092Y-138335318D01*
X155958048Y-138302064D01*
X156160217Y-138236375D01*
X156349621Y-138139869D01*
X156435943Y-138077153D01*
X156521591Y-138014927D01*
X156521593Y-138014924D01*
X156521597Y-138014922D01*
X156671909Y-137864610D01*
X156671911Y-137864606D01*
X156671914Y-137864604D01*
X156796853Y-137692638D01*
X156796852Y-137692638D01*
X156796856Y-137692634D01*
X156801319Y-137683872D01*
X156849293Y-137633077D01*
X156917113Y-137616281D01*
X156983249Y-137638817D01*
X157022291Y-137683874D01*
X157026756Y-137692638D01*
X157151695Y-137864604D01*
X157302018Y-138014927D01*
X157473984Y-138139866D01*
X157473986Y-138139867D01*
X157473989Y-138139869D01*
X157663393Y-138236375D01*
X157865562Y-138302064D01*
X158075518Y-138335318D01*
X158075519Y-138335318D01*
X158288091Y-138335318D01*
X158288092Y-138335318D01*
X158498048Y-138302064D01*
X158700217Y-138236375D01*
X158889621Y-138139869D01*
X158975943Y-138077153D01*
X159061591Y-138014927D01*
X159061593Y-138014924D01*
X159061597Y-138014922D01*
X159211909Y-137864610D01*
X159211911Y-137864606D01*
X159211914Y-137864604D01*
X159336853Y-137692638D01*
X159336852Y-137692638D01*
X159336856Y-137692634D01*
X159341319Y-137683872D01*
X159389293Y-137633077D01*
X159457113Y-137616281D01*
X159523249Y-137638817D01*
X159562291Y-137683874D01*
X159566756Y-137692638D01*
X159691695Y-137864604D01*
X159842018Y-138014927D01*
X160013984Y-138139866D01*
X160013986Y-138139867D01*
X160013989Y-138139869D01*
X160203393Y-138236375D01*
X160405562Y-138302064D01*
X160615518Y-138335318D01*
X160615519Y-138335318D01*
X160828091Y-138335318D01*
X160828092Y-138335318D01*
X161038048Y-138302064D01*
X161240217Y-138236375D01*
X161429621Y-138139869D01*
X161515943Y-138077153D01*
X161601591Y-138014927D01*
X161601593Y-138014924D01*
X161601597Y-138014922D01*
X161751909Y-137864610D01*
X161751911Y-137864606D01*
X161751914Y-137864604D01*
X161876853Y-137692638D01*
X161876852Y-137692638D01*
X161876856Y-137692634D01*
X161881319Y-137683872D01*
X161929293Y-137633077D01*
X161997113Y-137616281D01*
X162063249Y-137638817D01*
X162102291Y-137683874D01*
X162106756Y-137692638D01*
X162231695Y-137864604D01*
X162382018Y-138014927D01*
X162553984Y-138139866D01*
X162553986Y-138139867D01*
X162553989Y-138139869D01*
X162743393Y-138236375D01*
X162945562Y-138302064D01*
X163155518Y-138335318D01*
X163155519Y-138335318D01*
X163368091Y-138335318D01*
X163368092Y-138335318D01*
X163578048Y-138302064D01*
X163780217Y-138236375D01*
X163969621Y-138139869D01*
X164055943Y-138077153D01*
X164141591Y-138014927D01*
X164141593Y-138014924D01*
X164141597Y-138014922D01*
X164291909Y-137864610D01*
X164291911Y-137864606D01*
X164291914Y-137864604D01*
X164416853Y-137692638D01*
X164416852Y-137692638D01*
X164416856Y-137692634D01*
X164421319Y-137683872D01*
X164469293Y-137633077D01*
X164537113Y-137616281D01*
X164603249Y-137638817D01*
X164642291Y-137683874D01*
X164646756Y-137692638D01*
X164771695Y-137864604D01*
X164922018Y-138014927D01*
X165093984Y-138139866D01*
X165093986Y-138139867D01*
X165093989Y-138139869D01*
X165283393Y-138236375D01*
X165485562Y-138302064D01*
X165695518Y-138335318D01*
X165695519Y-138335318D01*
X165908091Y-138335318D01*
X165908092Y-138335318D01*
X166118048Y-138302064D01*
X166320217Y-138236375D01*
X166509621Y-138139869D01*
X166595943Y-138077153D01*
X166681591Y-138014927D01*
X166681593Y-138014924D01*
X166681597Y-138014922D01*
X166831909Y-137864610D01*
X166831911Y-137864606D01*
X166831914Y-137864604D01*
X166956853Y-137692638D01*
X166956852Y-137692638D01*
X166956856Y-137692634D01*
X166961319Y-137683872D01*
X167009293Y-137633077D01*
X167077113Y-137616281D01*
X167143249Y-137638817D01*
X167182291Y-137683874D01*
X167186756Y-137692638D01*
X167311695Y-137864604D01*
X167462018Y-138014927D01*
X167633984Y-138139866D01*
X167633986Y-138139867D01*
X167633989Y-138139869D01*
X167823393Y-138236375D01*
X168025562Y-138302064D01*
X168235518Y-138335318D01*
X168235519Y-138335318D01*
X168448091Y-138335318D01*
X168448092Y-138335318D01*
X168658048Y-138302064D01*
X168860217Y-138236375D01*
X169049621Y-138139869D01*
X169135943Y-138077153D01*
X169221591Y-138014927D01*
X169221593Y-138014924D01*
X169221597Y-138014922D01*
X169371909Y-137864610D01*
X169371911Y-137864606D01*
X169371914Y-137864604D01*
X169496853Y-137692638D01*
X169496852Y-137692638D01*
X169496856Y-137692634D01*
X169501319Y-137683872D01*
X169549293Y-137633077D01*
X169617113Y-137616281D01*
X169683249Y-137638817D01*
X169722291Y-137683874D01*
X169726756Y-137692638D01*
X169851695Y-137864604D01*
X170002018Y-138014927D01*
X170173984Y-138139866D01*
X170173986Y-138139867D01*
X170173989Y-138139869D01*
X170363393Y-138236375D01*
X170565562Y-138302064D01*
X170775518Y-138335318D01*
X170775519Y-138335318D01*
X170988091Y-138335318D01*
X170988092Y-138335318D01*
X171198048Y-138302064D01*
X171400217Y-138236375D01*
X171589621Y-138139869D01*
X171675943Y-138077153D01*
X171761591Y-138014927D01*
X171761593Y-138014924D01*
X171761597Y-138014922D01*
X171911909Y-137864610D01*
X171911911Y-137864606D01*
X171911914Y-137864604D01*
X172036853Y-137692638D01*
X172036852Y-137692638D01*
X172036856Y-137692634D01*
X172041319Y-137683872D01*
X172089293Y-137633077D01*
X172157113Y-137616281D01*
X172223249Y-137638817D01*
X172262291Y-137683874D01*
X172266756Y-137692638D01*
X172391695Y-137864604D01*
X172542018Y-138014927D01*
X172713984Y-138139866D01*
X172713986Y-138139867D01*
X172713989Y-138139869D01*
X172903393Y-138236375D01*
X173105562Y-138302064D01*
X173315518Y-138335318D01*
X173315519Y-138335318D01*
X173528091Y-138335318D01*
X173528092Y-138335318D01*
X173738048Y-138302064D01*
X173940217Y-138236375D01*
X174129621Y-138139869D01*
X174215943Y-138077153D01*
X174301591Y-138014927D01*
X174301593Y-138014924D01*
X174301597Y-138014922D01*
X174451909Y-137864610D01*
X174451911Y-137864606D01*
X174451914Y-137864604D01*
X174576853Y-137692638D01*
X174576852Y-137692638D01*
X174576856Y-137692634D01*
X174581319Y-137683872D01*
X174629293Y-137633077D01*
X174697113Y-137616281D01*
X174763249Y-137638817D01*
X174802291Y-137683874D01*
X174806756Y-137692638D01*
X174931695Y-137864604D01*
X175082018Y-138014927D01*
X175253984Y-138139866D01*
X175253986Y-138139867D01*
X175253989Y-138139869D01*
X175443393Y-138236375D01*
X175645562Y-138302064D01*
X175855518Y-138335318D01*
X175855519Y-138335318D01*
X176068091Y-138335318D01*
X176068092Y-138335318D01*
X176278048Y-138302064D01*
X176480217Y-138236375D01*
X176669621Y-138139869D01*
X176755943Y-138077153D01*
X176841591Y-138014927D01*
X176841593Y-138014924D01*
X176841597Y-138014922D01*
X176991909Y-137864610D01*
X176991911Y-137864606D01*
X176991914Y-137864604D01*
X177116853Y-137692638D01*
X177116852Y-137692638D01*
X177116856Y-137692634D01*
X177121319Y-137683872D01*
X177169293Y-137633077D01*
X177237113Y-137616281D01*
X177303249Y-137638817D01*
X177342291Y-137683874D01*
X177346756Y-137692638D01*
X177471695Y-137864604D01*
X177622018Y-138014927D01*
X177793984Y-138139866D01*
X177793986Y-138139867D01*
X177793989Y-138139869D01*
X177983393Y-138236375D01*
X178185562Y-138302064D01*
X178395518Y-138335318D01*
X178395519Y-138335318D01*
X178608091Y-138335318D01*
X178608092Y-138335318D01*
X178818048Y-138302064D01*
X179020217Y-138236375D01*
X179209621Y-138139869D01*
X179295943Y-138077153D01*
X179381591Y-138014927D01*
X179381593Y-138014924D01*
X179381597Y-138014922D01*
X179531909Y-137864610D01*
X179531911Y-137864606D01*
X179531914Y-137864604D01*
X179656853Y-137692638D01*
X179656852Y-137692638D01*
X179656856Y-137692634D01*
X179661319Y-137683872D01*
X179709293Y-137633077D01*
X179777113Y-137616281D01*
X179843249Y-137638817D01*
X179882291Y-137683874D01*
X179886756Y-137692638D01*
X180011695Y-137864604D01*
X180162018Y-138014927D01*
X180333984Y-138139866D01*
X180333986Y-138139867D01*
X180333989Y-138139869D01*
X180523393Y-138236375D01*
X180725562Y-138302064D01*
X180935518Y-138335318D01*
X180935519Y-138335318D01*
X181148091Y-138335318D01*
X181148092Y-138335318D01*
X181358048Y-138302064D01*
X181560217Y-138236375D01*
X181749621Y-138139869D01*
X181835943Y-138077153D01*
X181921591Y-138014927D01*
X181921593Y-138014924D01*
X181921597Y-138014922D01*
X182071909Y-137864610D01*
X182071911Y-137864606D01*
X182071914Y-137864604D01*
X182196853Y-137692638D01*
X182196852Y-137692638D01*
X182196856Y-137692634D01*
X182293362Y-137503230D01*
X182359051Y-137301061D01*
X182392305Y-137091105D01*
X182392305Y-136878531D01*
X182359051Y-136668575D01*
X182293362Y-136466406D01*
X182196856Y-136277002D01*
X182196854Y-136276999D01*
X182196853Y-136276997D01*
X182071914Y-136105031D01*
X181921591Y-135954708D01*
X181749625Y-135829769D01*
X181560219Y-135733262D01*
X181560218Y-135733261D01*
X181560217Y-135733261D01*
X181358048Y-135667572D01*
X181358046Y-135667571D01*
X181358045Y-135667571D01*
X181196762Y-135642026D01*
X181148092Y-135634318D01*
X180935518Y-135634318D01*
X180886847Y-135642026D01*
X180725565Y-135667571D01*
X180523390Y-135733262D01*
X180333984Y-135829769D01*
X180162018Y-135954708D01*
X180011695Y-136105031D01*
X179886754Y-136277000D01*
X179882289Y-136285764D01*
X179834314Y-136336560D01*
X179766493Y-136353354D01*
X179700358Y-136330816D01*
X179661321Y-136285764D01*
X179656855Y-136277000D01*
X179531914Y-136105031D01*
X179381591Y-135954708D01*
X179209625Y-135829769D01*
X179020219Y-135733262D01*
X179020218Y-135733261D01*
X179020217Y-135733261D01*
X178818048Y-135667572D01*
X178818046Y-135667571D01*
X178818045Y-135667571D01*
X178656762Y-135642026D01*
X178608092Y-135634318D01*
X178395518Y-135634318D01*
X178346847Y-135642026D01*
X178185565Y-135667571D01*
X177983390Y-135733262D01*
X177793984Y-135829769D01*
X177622018Y-135954708D01*
X177471695Y-136105031D01*
X177346754Y-136277000D01*
X177342289Y-136285764D01*
X177294314Y-136336560D01*
X177226493Y-136353354D01*
X177160358Y-136330816D01*
X177121321Y-136285764D01*
X177116855Y-136277000D01*
X176991914Y-136105031D01*
X176841591Y-135954708D01*
X176669625Y-135829769D01*
X176480219Y-135733262D01*
X176480218Y-135733261D01*
X176480217Y-135733261D01*
X176278048Y-135667572D01*
X176278046Y-135667571D01*
X176278045Y-135667571D01*
X176116762Y-135642026D01*
X176068092Y-135634318D01*
X175855518Y-135634318D01*
X175806847Y-135642026D01*
X175645565Y-135667571D01*
X175443390Y-135733262D01*
X175253984Y-135829769D01*
X175082018Y-135954708D01*
X174931695Y-136105031D01*
X174806754Y-136277000D01*
X174802289Y-136285764D01*
X174754314Y-136336560D01*
X174686493Y-136353354D01*
X174620358Y-136330816D01*
X174581321Y-136285764D01*
X174576855Y-136277000D01*
X174451914Y-136105031D01*
X174301591Y-135954708D01*
X174129625Y-135829769D01*
X173940219Y-135733262D01*
X173940218Y-135733261D01*
X173940217Y-135733261D01*
X173738048Y-135667572D01*
X173738046Y-135667571D01*
X173738045Y-135667571D01*
X173576762Y-135642026D01*
X173528092Y-135634318D01*
X173315518Y-135634318D01*
X173266847Y-135642026D01*
X173105565Y-135667571D01*
X172903390Y-135733262D01*
X172713984Y-135829769D01*
X172542018Y-135954708D01*
X172391695Y-136105031D01*
X172266754Y-136277000D01*
X172262289Y-136285764D01*
X172214314Y-136336560D01*
X172146493Y-136353354D01*
X172080358Y-136330816D01*
X172041321Y-136285764D01*
X172036855Y-136277000D01*
X171911914Y-136105031D01*
X171761591Y-135954708D01*
X171589625Y-135829769D01*
X171400219Y-135733262D01*
X171400218Y-135733261D01*
X171400217Y-135733261D01*
X171198048Y-135667572D01*
X171198046Y-135667571D01*
X171198045Y-135667571D01*
X171036762Y-135642026D01*
X170988092Y-135634318D01*
X170775518Y-135634318D01*
X170726847Y-135642026D01*
X170565565Y-135667571D01*
X170363390Y-135733262D01*
X170173984Y-135829769D01*
X170002018Y-135954708D01*
X169851695Y-136105031D01*
X169726754Y-136277000D01*
X169722289Y-136285764D01*
X169674314Y-136336560D01*
X169606493Y-136353354D01*
X169540358Y-136330816D01*
X169501321Y-136285764D01*
X169496855Y-136277000D01*
X169371914Y-136105031D01*
X169221591Y-135954708D01*
X169049625Y-135829769D01*
X168860219Y-135733262D01*
X168860218Y-135733261D01*
X168860217Y-135733261D01*
X168658048Y-135667572D01*
X168658046Y-135667571D01*
X168658045Y-135667571D01*
X168496762Y-135642026D01*
X168448092Y-135634318D01*
X168235518Y-135634318D01*
X168186847Y-135642026D01*
X168025565Y-135667571D01*
X167823390Y-135733262D01*
X167633984Y-135829769D01*
X167462018Y-135954708D01*
X167311695Y-136105031D01*
X167186754Y-136277000D01*
X167182289Y-136285764D01*
X167134314Y-136336560D01*
X167066493Y-136353354D01*
X167000358Y-136330816D01*
X166961321Y-136285764D01*
X166956855Y-136277000D01*
X166831914Y-136105031D01*
X166681591Y-135954708D01*
X166509625Y-135829769D01*
X166320219Y-135733262D01*
X166320218Y-135733261D01*
X166320217Y-135733261D01*
X166118048Y-135667572D01*
X166118046Y-135667571D01*
X166118045Y-135667571D01*
X165956762Y-135642026D01*
X165908092Y-135634318D01*
X165695518Y-135634318D01*
X165646847Y-135642026D01*
X165485565Y-135667571D01*
X165283390Y-135733262D01*
X165093984Y-135829769D01*
X164922018Y-135954708D01*
X164771695Y-136105031D01*
X164646754Y-136277000D01*
X164642289Y-136285764D01*
X164594314Y-136336560D01*
X164526493Y-136353354D01*
X164460358Y-136330816D01*
X164421321Y-136285764D01*
X164416855Y-136277000D01*
X164291914Y-136105031D01*
X164141591Y-135954708D01*
X163969625Y-135829769D01*
X163780219Y-135733262D01*
X163780218Y-135733261D01*
X163780217Y-135733261D01*
X163578048Y-135667572D01*
X163578046Y-135667571D01*
X163578045Y-135667571D01*
X163416762Y-135642026D01*
X163368092Y-135634318D01*
X163155518Y-135634318D01*
X163106847Y-135642026D01*
X162945565Y-135667571D01*
X162743390Y-135733262D01*
X162553984Y-135829769D01*
X162382018Y-135954708D01*
X162231695Y-136105031D01*
X162106754Y-136277000D01*
X162102289Y-136285764D01*
X162054314Y-136336560D01*
X161986493Y-136353354D01*
X161920358Y-136330816D01*
X161881321Y-136285764D01*
X161876855Y-136277000D01*
X161751914Y-136105031D01*
X161601591Y-135954708D01*
X161429625Y-135829769D01*
X161240219Y-135733262D01*
X161240218Y-135733261D01*
X161240217Y-135733261D01*
X161038048Y-135667572D01*
X161038046Y-135667571D01*
X161038045Y-135667571D01*
X160876762Y-135642026D01*
X160828092Y-135634318D01*
X160615518Y-135634318D01*
X160566847Y-135642026D01*
X160405565Y-135667571D01*
X160203390Y-135733262D01*
X160013984Y-135829769D01*
X159842018Y-135954708D01*
X159691695Y-136105031D01*
X159566754Y-136277000D01*
X159562289Y-136285764D01*
X159514314Y-136336560D01*
X159446493Y-136353354D01*
X159380358Y-136330816D01*
X159341321Y-136285764D01*
X159336855Y-136277000D01*
X159211914Y-136105031D01*
X159061591Y-135954708D01*
X158889625Y-135829769D01*
X158700219Y-135733262D01*
X158700218Y-135733261D01*
X158700217Y-135733261D01*
X158498048Y-135667572D01*
X158498046Y-135667571D01*
X158498045Y-135667571D01*
X158336762Y-135642026D01*
X158288092Y-135634318D01*
X158075518Y-135634318D01*
X158026847Y-135642026D01*
X157865565Y-135667571D01*
X157663390Y-135733262D01*
X157473984Y-135829769D01*
X157302018Y-135954708D01*
X157151695Y-136105031D01*
X157026754Y-136277000D01*
X157022289Y-136285764D01*
X156974314Y-136336560D01*
X156906493Y-136353354D01*
X156840358Y-136330816D01*
X156801321Y-136285764D01*
X156796855Y-136277000D01*
X156671914Y-136105031D01*
X156521591Y-135954708D01*
X156349625Y-135829769D01*
X156160219Y-135733262D01*
X156160218Y-135733261D01*
X156160217Y-135733261D01*
X155958048Y-135667572D01*
X155958046Y-135667571D01*
X155958045Y-135667571D01*
X155796762Y-135642026D01*
X155748092Y-135634318D01*
X155535518Y-135634318D01*
X155486847Y-135642026D01*
X155325565Y-135667571D01*
X155123390Y-135733262D01*
X154933984Y-135829769D01*
X154762018Y-135954708D01*
X154611695Y-136105031D01*
X154486754Y-136277000D01*
X154482289Y-136285764D01*
X154434314Y-136336560D01*
X154366493Y-136353354D01*
X154300358Y-136330816D01*
X154261321Y-136285764D01*
X154256855Y-136277000D01*
X154131914Y-136105031D01*
X153981591Y-135954708D01*
X153809625Y-135829769D01*
X153620219Y-135733262D01*
X153620218Y-135733261D01*
X153620217Y-135733261D01*
X153418048Y-135667572D01*
X153418046Y-135667571D01*
X153418045Y-135667571D01*
X153256762Y-135642026D01*
X153208092Y-135634318D01*
X152995518Y-135634318D01*
X152946847Y-135642026D01*
X152785565Y-135667571D01*
X152583390Y-135733262D01*
X152393984Y-135829769D01*
X152222018Y-135954708D01*
X152071695Y-136105031D01*
X151946754Y-136277000D01*
X151942289Y-136285764D01*
X151894314Y-136336560D01*
X151826493Y-136353354D01*
X151760358Y-136330816D01*
X151721321Y-136285764D01*
X151716855Y-136277000D01*
X151591914Y-136105031D01*
X151441591Y-135954708D01*
X151269625Y-135829769D01*
X151080219Y-135733262D01*
X151080218Y-135733261D01*
X151080217Y-135733261D01*
X150878048Y-135667572D01*
X150878046Y-135667571D01*
X150878045Y-135667571D01*
X150716762Y-135642026D01*
X150668092Y-135634318D01*
X150455518Y-135634318D01*
X150406847Y-135642026D01*
X150245565Y-135667571D01*
X150043390Y-135733262D01*
X149853984Y-135829769D01*
X149682018Y-135954708D01*
X149531695Y-136105031D01*
X149406754Y-136277000D01*
X149402289Y-136285764D01*
X149354314Y-136336560D01*
X149286493Y-136353354D01*
X149220358Y-136330816D01*
X149181321Y-136285764D01*
X149176855Y-136277000D01*
X149051914Y-136105031D01*
X148901591Y-135954708D01*
X148729625Y-135829769D01*
X148540219Y-135733262D01*
X148540218Y-135733261D01*
X148540217Y-135733261D01*
X148338048Y-135667572D01*
X148338046Y-135667571D01*
X148338045Y-135667571D01*
X148176762Y-135642026D01*
X148128092Y-135634318D01*
X147915518Y-135634318D01*
X147866847Y-135642026D01*
X147705565Y-135667571D01*
X147503390Y-135733262D01*
X147313984Y-135829769D01*
X147142018Y-135954708D01*
X146991695Y-136105031D01*
X146866754Y-136277000D01*
X146862289Y-136285764D01*
X146814314Y-136336560D01*
X146746493Y-136353354D01*
X146680358Y-136330816D01*
X146641321Y-136285764D01*
X146636855Y-136277000D01*
X146511914Y-136105031D01*
X146361591Y-135954708D01*
X146189625Y-135829769D01*
X146000219Y-135733262D01*
X146000218Y-135733261D01*
X146000217Y-135733261D01*
X145798048Y-135667572D01*
X145798046Y-135667571D01*
X145798045Y-135667571D01*
X145636762Y-135642026D01*
X145588092Y-135634318D01*
X145375518Y-135634318D01*
X145326847Y-135642026D01*
X145165565Y-135667571D01*
X144963390Y-135733262D01*
X144773984Y-135829769D01*
X144602020Y-135954707D01*
X144488478Y-136068249D01*
X144427155Y-136101733D01*
X144357463Y-136096749D01*
X144301530Y-136054877D01*
X144284615Y-136023900D01*
X144235602Y-135892489D01*
X144235598Y-135892482D01*
X144149352Y-135777273D01*
X144149349Y-135777270D01*
X144034140Y-135691024D01*
X144034133Y-135691020D01*
X143899287Y-135640726D01*
X143899288Y-135640726D01*
X143839688Y-135634319D01*
X143839686Y-135634318D01*
X143839678Y-135634318D01*
X143839669Y-135634318D01*
X142043934Y-135634318D01*
X142043928Y-135634319D01*
X141984321Y-135640726D01*
X141849476Y-135691020D01*
X141849469Y-135691024D01*
X141734260Y-135777270D01*
X141734257Y-135777273D01*
X141648011Y-135892482D01*
X141648007Y-135892489D01*
X141597713Y-136027335D01*
X141591306Y-136086934D01*
X141591305Y-136086953D01*
X139860403Y-136086953D01*
X139868237Y-129052135D01*
X168399500Y-129052135D01*
X168399500Y-131147870D01*
X168399501Y-131147876D01*
X168405908Y-131207483D01*
X168456202Y-131342328D01*
X168456206Y-131342335D01*
X168542452Y-131457544D01*
X168542455Y-131457547D01*
X168657664Y-131543793D01*
X168657671Y-131543797D01*
X168792517Y-131594091D01*
X168792516Y-131594091D01*
X168799444Y-131594835D01*
X168852127Y-131600500D01*
X172147872Y-131600499D01*
X172207483Y-131594091D01*
X172342331Y-131543796D01*
X172457546Y-131457546D01*
X172543796Y-131342331D01*
X172594091Y-131207483D01*
X172600500Y-131147873D01*
X172600499Y-129052128D01*
X172594091Y-128992517D01*
X172543796Y-128857669D01*
X172543795Y-128857668D01*
X172543793Y-128857664D01*
X172457547Y-128742455D01*
X172457544Y-128742452D01*
X172342335Y-128656206D01*
X172342328Y-128656202D01*
X172207482Y-128605908D01*
X172207483Y-128605908D01*
X172147883Y-128599501D01*
X172147881Y-128599500D01*
X172147873Y-128599500D01*
X172147864Y-128599500D01*
X168852129Y-128599500D01*
X168852123Y-128599501D01*
X168792516Y-128605908D01*
X168657671Y-128656202D01*
X168657664Y-128656206D01*
X168542455Y-128742452D01*
X168542452Y-128742455D01*
X168456206Y-128857664D01*
X168456202Y-128857671D01*
X168405908Y-128992517D01*
X168399872Y-129048668D01*
X168399501Y-129052123D01*
X168399500Y-129052135D01*
X139868237Y-129052135D01*
X139871210Y-126381947D01*
X143000000Y-126381947D01*
X143000000Y-126618052D01*
X143036934Y-126851247D01*
X143109897Y-127075802D01*
X143217087Y-127286174D01*
X143277338Y-127369104D01*
X143277340Y-127369105D01*
X143976212Y-126670233D01*
X143987482Y-126712292D01*
X144059890Y-126837708D01*
X144162292Y-126940110D01*
X144287708Y-127012518D01*
X144329765Y-127023787D01*
X143630893Y-127722658D01*
X143713828Y-127782914D01*
X143924197Y-127890102D01*
X144148752Y-127963065D01*
X144148751Y-127963065D01*
X144381948Y-128000000D01*
X144618052Y-128000000D01*
X144851247Y-127963065D01*
X145075802Y-127890102D01*
X145286163Y-127782918D01*
X145286169Y-127782914D01*
X145369104Y-127722658D01*
X145369105Y-127722658D01*
X144670233Y-127023787D01*
X144712292Y-127012518D01*
X144837708Y-126940110D01*
X144940110Y-126837708D01*
X145012518Y-126712292D01*
X145023787Y-126670234D01*
X145722658Y-127369105D01*
X145722658Y-127369104D01*
X145782914Y-127286169D01*
X145782918Y-127286163D01*
X145890102Y-127075802D01*
X145963065Y-126851247D01*
X146000000Y-126618052D01*
X146000000Y-126381947D01*
X149500000Y-126381947D01*
X149500000Y-126618052D01*
X149536934Y-126851247D01*
X149609897Y-127075802D01*
X149717087Y-127286174D01*
X149777338Y-127369104D01*
X149777340Y-127369105D01*
X150476212Y-126670233D01*
X150487482Y-126712292D01*
X150559890Y-126837708D01*
X150662292Y-126940110D01*
X150787708Y-127012518D01*
X150829765Y-127023787D01*
X150130893Y-127722658D01*
X150213828Y-127782914D01*
X150424197Y-127890102D01*
X150648752Y-127963065D01*
X150648751Y-127963065D01*
X150881948Y-128000000D01*
X151118052Y-128000000D01*
X151351247Y-127963065D01*
X151575802Y-127890102D01*
X151786163Y-127782918D01*
X151786169Y-127782914D01*
X151869104Y-127722658D01*
X151869105Y-127722658D01*
X151170233Y-127023787D01*
X151212292Y-127012518D01*
X151337708Y-126940110D01*
X151440110Y-126837708D01*
X151512518Y-126712292D01*
X151523787Y-126670234D01*
X152222658Y-127369105D01*
X152222658Y-127369104D01*
X152282914Y-127286169D01*
X152282918Y-127286163D01*
X152390102Y-127075802D01*
X152453090Y-126881947D01*
X162000000Y-126881947D01*
X162000000Y-127118052D01*
X162036934Y-127351247D01*
X162109897Y-127575802D01*
X162217087Y-127786174D01*
X162277338Y-127869104D01*
X162277340Y-127869105D01*
X163017037Y-127129408D01*
X163034075Y-127192993D01*
X163099901Y-127307007D01*
X163192993Y-127400099D01*
X163307007Y-127465925D01*
X163370590Y-127482962D01*
X162630893Y-128222658D01*
X162713828Y-128282914D01*
X162924197Y-128390102D01*
X163148752Y-128463065D01*
X163148751Y-128463065D01*
X163381948Y-128500000D01*
X163618052Y-128500000D01*
X163851247Y-128463065D01*
X164075802Y-128390102D01*
X164286163Y-128282918D01*
X164286169Y-128282914D01*
X164369104Y-128222658D01*
X164369105Y-128222658D01*
X163629408Y-127482962D01*
X163692993Y-127465925D01*
X163807007Y-127400099D01*
X163900099Y-127307007D01*
X163965925Y-127192993D01*
X163982962Y-127129408D01*
X164722658Y-127869105D01*
X164722658Y-127869104D01*
X164782914Y-127786169D01*
X164782918Y-127786163D01*
X164890102Y-127575802D01*
X164963065Y-127351247D01*
X165000000Y-127118052D01*
X165000000Y-126881947D01*
X164963065Y-126648752D01*
X164890102Y-126424197D01*
X164782914Y-126213828D01*
X164722658Y-126130894D01*
X164722658Y-126130893D01*
X163982962Y-126870590D01*
X163965925Y-126807007D01*
X163900099Y-126692993D01*
X163807007Y-126599901D01*
X163692993Y-126534075D01*
X163629409Y-126517037D01*
X164369105Y-125777340D01*
X164369104Y-125777338D01*
X164286174Y-125717087D01*
X164075802Y-125609897D01*
X163851247Y-125536934D01*
X163851248Y-125536934D01*
X163618052Y-125500000D01*
X163381948Y-125500000D01*
X163148752Y-125536934D01*
X162924197Y-125609897D01*
X162713830Y-125717084D01*
X162630894Y-125777340D01*
X163370591Y-126517037D01*
X163307007Y-126534075D01*
X163192993Y-126599901D01*
X163099901Y-126692993D01*
X163034075Y-126807007D01*
X163017037Y-126870591D01*
X162277340Y-126130894D01*
X162217084Y-126213830D01*
X162109897Y-126424197D01*
X162036934Y-126648752D01*
X162000000Y-126881947D01*
X152453090Y-126881947D01*
X152463063Y-126851254D01*
X152463066Y-126851240D01*
X152500000Y-126618052D01*
X152500000Y-126381947D01*
X152463065Y-126148752D01*
X152390101Y-125924194D01*
X152368040Y-125880895D01*
X152368039Y-125880894D01*
X152282914Y-125713828D01*
X152222658Y-125630894D01*
X152222658Y-125630893D01*
X151523787Y-126329765D01*
X151512518Y-126287708D01*
X151440110Y-126162292D01*
X151337708Y-126059890D01*
X151212292Y-125987482D01*
X151170234Y-125976212D01*
X151869105Y-125277340D01*
X151869104Y-125277338D01*
X151786174Y-125217087D01*
X151575802Y-125109897D01*
X151351247Y-125036934D01*
X151351248Y-125036934D01*
X151118052Y-125000000D01*
X150881948Y-125000000D01*
X150648752Y-125036934D01*
X150424197Y-125109897D01*
X150213830Y-125217084D01*
X150130894Y-125277340D01*
X150829766Y-125976212D01*
X150787708Y-125987482D01*
X150662292Y-126059890D01*
X150559890Y-126162292D01*
X150487482Y-126287708D01*
X150476212Y-126329766D01*
X149777340Y-125630894D01*
X149717084Y-125713830D01*
X149609897Y-125924197D01*
X149536934Y-126148752D01*
X149500000Y-126381947D01*
X146000000Y-126381947D01*
X145963065Y-126148752D01*
X145890102Y-125924197D01*
X145782914Y-125713828D01*
X145722658Y-125630894D01*
X145722658Y-125630893D01*
X145023787Y-126329765D01*
X145012518Y-126287708D01*
X144940110Y-126162292D01*
X144837708Y-126059890D01*
X144712292Y-125987482D01*
X144670234Y-125976212D01*
X145369105Y-125277340D01*
X145369104Y-125277339D01*
X145286174Y-125217087D01*
X145075802Y-125109897D01*
X144851247Y-125036934D01*
X144851248Y-125036934D01*
X144618052Y-125000000D01*
X144381948Y-125000000D01*
X144148752Y-125036934D01*
X143924197Y-125109897D01*
X143713830Y-125217084D01*
X143630894Y-125277340D01*
X144329766Y-125976212D01*
X144287708Y-125987482D01*
X144162292Y-126059890D01*
X144059890Y-126162292D01*
X143987482Y-126287708D01*
X143976212Y-126329766D01*
X143277340Y-125630894D01*
X143217084Y-125713830D01*
X143109897Y-125924197D01*
X143036934Y-126148752D01*
X143000000Y-126381947D01*
X139871210Y-126381947D01*
X139880426Y-118106380D01*
X139880444Y-118106315D01*
X139880500Y-118039559D01*
X139880573Y-117974665D01*
X139880572Y-117974664D01*
X139880573Y-117974628D01*
X139880564Y-117974562D01*
X139863515Y-117910718D01*
X139863507Y-117910686D01*
X139855536Y-117880809D01*
X139846607Y-117847333D01*
X139846601Y-117847323D01*
X139846556Y-117847214D01*
X139846555Y-117847208D01*
X139815041Y-117792517D01*
X139814320Y-117791265D01*
X139814305Y-117791239D01*
X139780844Y-117733135D01*
X139780761Y-117733027D01*
X139780760Y-117733026D01*
X139780759Y-117733024D01*
X139735506Y-117687695D01*
X139735505Y-117687693D01*
X139734188Y-117686374D01*
X139687760Y-117639842D01*
X139687698Y-117639806D01*
X139687652Y-117639760D01*
X139631885Y-117607499D01*
X139631864Y-117607476D01*
X139631860Y-117607484D01*
X139573704Y-117573822D01*
X139573585Y-117573772D01*
X139538528Y-117564347D01*
X139511151Y-117556987D01*
X139511118Y-117556978D01*
X139446445Y-117539571D01*
X139446333Y-117539556D01*
X139382427Y-117539502D01*
X139382416Y-117539498D01*
X139382395Y-117539501D01*
X139382262Y-117539501D01*
X139307106Y-117539418D01*
X139306793Y-117539437D01*
X92624395Y-117500026D01*
X92557372Y-117480285D01*
X92511662Y-117427442D01*
X92500500Y-117376026D01*
X92500500Y-113496590D01*
X95731109Y-113496590D01*
X95731109Y-113739167D01*
X95762770Y-113979664D01*
X95825556Y-114213983D01*
X95918382Y-114438084D01*
X95918385Y-114438091D01*
X96039673Y-114648168D01*
X96039675Y-114648171D01*
X96039676Y-114648172D01*
X96187342Y-114840615D01*
X96187348Y-114840622D01*
X96358865Y-115012139D01*
X96358871Y-115012144D01*
X96551320Y-115159815D01*
X96761397Y-115281103D01*
X96985509Y-115373933D01*
X97219820Y-115436717D01*
X97400195Y-115460463D01*
X97460320Y-115468379D01*
X97460321Y-115468379D01*
X97702898Y-115468379D01*
X97750997Y-115462046D01*
X97943398Y-115436717D01*
X98177709Y-115373933D01*
X98401821Y-115281103D01*
X98611898Y-115159815D01*
X98804347Y-115012144D01*
X98975874Y-114840617D01*
X99123545Y-114648168D01*
X99244833Y-114438091D01*
X99337663Y-114213979D01*
X99400447Y-113979668D01*
X99432109Y-113739167D01*
X99432109Y-113496591D01*
X99400447Y-113256090D01*
X99337663Y-113021779D01*
X99244833Y-112797667D01*
X99123545Y-112587590D01*
X98975874Y-112395141D01*
X98975869Y-112395135D01*
X98804352Y-112223618D01*
X98804345Y-112223612D01*
X98611902Y-112075946D01*
X98611901Y-112075945D01*
X98611898Y-112075943D01*
X98401821Y-111954655D01*
X98401814Y-111954652D01*
X98177713Y-111861826D01*
X97943394Y-111799040D01*
X97702898Y-111767379D01*
X97702897Y-111767379D01*
X97460321Y-111767379D01*
X97460320Y-111767379D01*
X97219823Y-111799040D01*
X96985504Y-111861826D01*
X96761403Y-111954652D01*
X96761394Y-111954656D01*
X96551315Y-112075946D01*
X96358872Y-112223612D01*
X96358865Y-112223618D01*
X96187348Y-112395135D01*
X96187342Y-112395142D01*
X96039676Y-112587585D01*
X95918386Y-112797664D01*
X95918382Y-112797673D01*
X95825556Y-113021774D01*
X95762770Y-113256093D01*
X95731109Y-113496590D01*
X92500500Y-113496590D01*
X92500500Y-83314549D01*
X94699500Y-83314549D01*
X94699500Y-85110284D01*
X94699501Y-85110290D01*
X94705908Y-85169897D01*
X94756202Y-85304742D01*
X94756206Y-85304749D01*
X94842452Y-85419958D01*
X94842455Y-85419961D01*
X94957664Y-85506207D01*
X94957671Y-85506211D01*
X95089082Y-85555224D01*
X95145016Y-85597095D01*
X95169433Y-85662559D01*
X95154582Y-85730832D01*
X95133431Y-85759087D01*
X95019889Y-85872629D01*
X94894951Y-86044593D01*
X94798444Y-86233999D01*
X94732753Y-86436174D01*
X94699500Y-86646127D01*
X94699500Y-86858700D01*
X94732753Y-87068653D01*
X94798444Y-87270828D01*
X94894951Y-87460234D01*
X95019890Y-87632200D01*
X95170213Y-87782523D01*
X95342179Y-87907462D01*
X95342181Y-87907463D01*
X95342184Y-87907465D01*
X95351493Y-87912208D01*
X95402290Y-87960180D01*
X95419087Y-88028001D01*
X95396552Y-88094136D01*
X95351505Y-88133174D01*
X95342446Y-88137790D01*
X95342440Y-88137794D01*
X95288282Y-88177141D01*
X95288282Y-88177142D01*
X95920591Y-88809451D01*
X95857007Y-88826489D01*
X95742993Y-88892315D01*
X95649901Y-88985407D01*
X95584075Y-89099421D01*
X95567037Y-89163005D01*
X94934728Y-88530696D01*
X94934727Y-88530696D01*
X94895380Y-88584853D01*
X94798904Y-88774196D01*
X94733242Y-88976283D01*
X94733242Y-88976286D01*
X94700000Y-89186167D01*
X94700000Y-89398660D01*
X94733242Y-89608541D01*
X94733242Y-89608544D01*
X94798904Y-89810631D01*
X94895375Y-89999964D01*
X94934728Y-90054130D01*
X95567037Y-89421822D01*
X95584075Y-89485407D01*
X95649901Y-89599421D01*
X95742993Y-89692513D01*
X95857007Y-89758339D01*
X95920590Y-89775376D01*
X95288282Y-90407683D01*
X95288282Y-90407684D01*
X95342452Y-90447040D01*
X95342451Y-90447040D01*
X95351495Y-90451648D01*
X95402292Y-90499622D01*
X95419087Y-90567443D01*
X95396550Y-90633578D01*
X95351499Y-90672616D01*
X95342182Y-90677363D01*
X95170213Y-90802304D01*
X95019890Y-90952627D01*
X94894951Y-91124593D01*
X94798444Y-91313999D01*
X94732753Y-91516174D01*
X94699500Y-91726127D01*
X94699500Y-91938701D01*
X94732754Y-92148657D01*
X94753907Y-92213760D01*
X94798444Y-92350828D01*
X94894951Y-92540234D01*
X95019890Y-92712200D01*
X95170213Y-92862523D01*
X95342182Y-92987464D01*
X95350946Y-92991930D01*
X95401742Y-93039905D01*
X95418536Y-93107726D01*
X95395998Y-93173861D01*
X95350946Y-93212898D01*
X95342182Y-93217363D01*
X95170213Y-93342304D01*
X95019890Y-93492627D01*
X94894951Y-93664593D01*
X94798444Y-93853999D01*
X94732753Y-94056174D01*
X94699500Y-94266127D01*
X94699500Y-94478700D01*
X94732753Y-94688653D01*
X94798444Y-94890828D01*
X94894951Y-95080234D01*
X95019890Y-95252200D01*
X95170213Y-95402523D01*
X95342179Y-95527462D01*
X95342181Y-95527463D01*
X95342184Y-95527465D01*
X95351493Y-95532208D01*
X95402290Y-95580180D01*
X95419087Y-95648001D01*
X95396552Y-95714136D01*
X95351505Y-95753174D01*
X95342446Y-95757790D01*
X95342440Y-95757794D01*
X95288282Y-95797141D01*
X95288282Y-95797142D01*
X95920591Y-96429451D01*
X95857007Y-96446489D01*
X95742993Y-96512315D01*
X95649901Y-96605407D01*
X95584075Y-96719421D01*
X95567037Y-96783005D01*
X94934728Y-96150696D01*
X94934727Y-96150696D01*
X94895380Y-96204853D01*
X94798904Y-96394196D01*
X94733242Y-96596283D01*
X94733242Y-96596286D01*
X94700000Y-96806167D01*
X94700000Y-97018660D01*
X94733242Y-97228541D01*
X94733242Y-97228544D01*
X94798904Y-97430631D01*
X94895375Y-97619964D01*
X94934728Y-97674130D01*
X95567037Y-97041822D01*
X95584075Y-97105407D01*
X95649901Y-97219421D01*
X95742993Y-97312513D01*
X95857007Y-97378339D01*
X95920590Y-97395376D01*
X95288282Y-98027683D01*
X95288282Y-98027684D01*
X95342452Y-98067040D01*
X95342451Y-98067040D01*
X95351495Y-98071648D01*
X95402292Y-98119622D01*
X95419087Y-98187443D01*
X95396550Y-98253578D01*
X95351499Y-98292616D01*
X95342182Y-98297363D01*
X95170213Y-98422304D01*
X95019890Y-98572627D01*
X94894951Y-98744593D01*
X94798444Y-98933999D01*
X94732753Y-99136174D01*
X94699500Y-99346127D01*
X94699500Y-99558700D01*
X94726074Y-99726485D01*
X94732754Y-99768657D01*
X94787194Y-99936206D01*
X94798444Y-99970828D01*
X94894951Y-100160234D01*
X95019890Y-100332200D01*
X95170213Y-100482523D01*
X95342182Y-100607464D01*
X95350946Y-100611930D01*
X95401742Y-100659905D01*
X95418536Y-100727726D01*
X95395998Y-100793861D01*
X95350946Y-100832898D01*
X95342182Y-100837363D01*
X95170213Y-100962304D01*
X95019890Y-101112627D01*
X94894951Y-101284593D01*
X94798444Y-101473999D01*
X94732753Y-101676174D01*
X94709747Y-101821432D01*
X94699500Y-101886127D01*
X94699500Y-102098701D01*
X94704121Y-102127876D01*
X94725064Y-102260109D01*
X94732754Y-102308657D01*
X94791274Y-102488763D01*
X94798444Y-102510828D01*
X94894951Y-102700234D01*
X95019890Y-102872200D01*
X95170213Y-103022523D01*
X95342179Y-103147462D01*
X95342181Y-103147463D01*
X95342184Y-103147465D01*
X95351493Y-103152208D01*
X95402290Y-103200180D01*
X95419087Y-103268001D01*
X95396552Y-103334136D01*
X95351505Y-103373174D01*
X95342446Y-103377790D01*
X95342440Y-103377794D01*
X95288282Y-103417141D01*
X95288282Y-103417142D01*
X95920591Y-104049451D01*
X95857007Y-104066489D01*
X95742993Y-104132315D01*
X95649901Y-104225407D01*
X95584075Y-104339421D01*
X95567037Y-104403005D01*
X94934728Y-103770696D01*
X94934727Y-103770696D01*
X94895380Y-103824853D01*
X94798904Y-104014196D01*
X94733242Y-104216283D01*
X94733242Y-104216286D01*
X94700000Y-104426167D01*
X94700000Y-104638660D01*
X94733242Y-104848541D01*
X94733242Y-104848544D01*
X94798904Y-105050631D01*
X94895375Y-105239964D01*
X94934728Y-105294130D01*
X95567037Y-104661822D01*
X95584075Y-104725407D01*
X95649901Y-104839421D01*
X95742993Y-104932513D01*
X95857007Y-104998339D01*
X95920590Y-105015376D01*
X95288282Y-105647683D01*
X95288282Y-105647684D01*
X95342452Y-105687040D01*
X95342451Y-105687040D01*
X95351495Y-105691648D01*
X95402292Y-105739622D01*
X95419087Y-105807443D01*
X95396550Y-105873578D01*
X95351499Y-105912616D01*
X95342182Y-105917363D01*
X95170213Y-106042304D01*
X95019890Y-106192627D01*
X94894951Y-106364593D01*
X94798444Y-106553999D01*
X94732753Y-106756174D01*
X94699500Y-106966127D01*
X94699500Y-107178700D01*
X94715259Y-107278202D01*
X94732754Y-107388657D01*
X94781824Y-107539679D01*
X94798444Y-107590828D01*
X94894951Y-107780234D01*
X95019890Y-107952200D01*
X95170213Y-108102523D01*
X95342179Y-108227462D01*
X95342181Y-108227463D01*
X95342184Y-108227465D01*
X95531588Y-108323971D01*
X95733757Y-108389660D01*
X95943713Y-108422914D01*
X95943714Y-108422914D01*
X96156286Y-108422914D01*
X96156287Y-108422914D01*
X96366243Y-108389660D01*
X96568412Y-108323971D01*
X96757816Y-108227465D01*
X96905042Y-108120500D01*
X96929786Y-108102523D01*
X96929788Y-108102520D01*
X96929792Y-108102518D01*
X97080104Y-107952206D01*
X97080106Y-107952202D01*
X97080109Y-107952200D01*
X97205048Y-107780234D01*
X97205047Y-107780234D01*
X97205051Y-107780230D01*
X97209514Y-107771468D01*
X97257488Y-107720673D01*
X97325308Y-107703877D01*
X97391444Y-107726413D01*
X97430486Y-107771470D01*
X97434951Y-107780234D01*
X97559890Y-107952200D01*
X97710213Y-108102523D01*
X97882179Y-108227462D01*
X97882181Y-108227463D01*
X97882184Y-108227465D01*
X98071588Y-108323971D01*
X98273757Y-108389660D01*
X98483713Y-108422914D01*
X98483714Y-108422914D01*
X98696286Y-108422914D01*
X98696287Y-108422914D01*
X98906243Y-108389660D01*
X99108412Y-108323971D01*
X99297816Y-108227465D01*
X99445042Y-108120500D01*
X99469786Y-108102523D01*
X99469788Y-108102520D01*
X99469792Y-108102518D01*
X99620104Y-107952206D01*
X99620106Y-107952202D01*
X99620109Y-107952200D01*
X99745048Y-107780234D01*
X99745047Y-107780234D01*
X99745051Y-107780230D01*
X99841557Y-107590826D01*
X99907246Y-107388657D01*
X99940500Y-107178701D01*
X99940500Y-106966127D01*
X99907246Y-106756171D01*
X99841557Y-106554002D01*
X99745051Y-106364598D01*
X99745049Y-106364595D01*
X99745048Y-106364593D01*
X99620109Y-106192627D01*
X99469786Y-106042304D01*
X99297817Y-105917363D01*
X99288504Y-105912618D01*
X99237707Y-105864644D01*
X99220912Y-105796823D01*
X99243449Y-105730688D01*
X99288507Y-105691646D01*
X99297555Y-105687036D01*
X99351716Y-105647684D01*
X99351717Y-105647684D01*
X98719408Y-105015376D01*
X98782993Y-104998339D01*
X98897007Y-104932513D01*
X98990099Y-104839421D01*
X99055925Y-104725407D01*
X99072962Y-104661822D01*
X99705270Y-105294131D01*
X99705270Y-105294130D01*
X99744622Y-105239968D01*
X99841095Y-105050631D01*
X99906757Y-104848544D01*
X99906757Y-104848541D01*
X99940000Y-104638660D01*
X99940000Y-104426167D01*
X99906757Y-104216286D01*
X99906757Y-104216283D01*
X99841095Y-104014196D01*
X99744624Y-103824863D01*
X99705270Y-103770696D01*
X99705269Y-103770696D01*
X99072962Y-104403004D01*
X99055925Y-104339421D01*
X98990099Y-104225407D01*
X98897007Y-104132315D01*
X98782993Y-104066489D01*
X98719409Y-104049451D01*
X99351622Y-103417236D01*
X99275118Y-103365264D01*
X99257671Y-103344059D01*
X99237706Y-103325202D01*
X99236631Y-103320862D01*
X114075500Y-103320862D01*
X114075500Y-104331138D01*
X114077680Y-104355662D01*
X114085582Y-104444548D01*
X114138762Y-104630405D01*
X114188387Y-104725407D01*
X114228266Y-104801751D01*
X114266421Y-104848544D01*
X114350428Y-104951571D01*
X114407785Y-104998339D01*
X114500249Y-105073734D01*
X114671594Y-105163237D01*
X114857448Y-105216417D01*
X114970862Y-105226500D01*
X114970870Y-105226500D01*
X115981130Y-105226500D01*
X115981138Y-105226500D01*
X116094552Y-105216417D01*
X116280406Y-105163237D01*
X116451751Y-105073734D01*
X116601571Y-104951571D01*
X116723734Y-104801751D01*
X116813237Y-104630406D01*
X116866417Y-104444552D01*
X116876500Y-104331138D01*
X116876500Y-103572500D01*
X116896185Y-103505461D01*
X116948989Y-103459706D01*
X117000500Y-103448500D01*
X117110221Y-103448500D01*
X117110222Y-103448500D01*
X117327951Y-103414015D01*
X117537606Y-103345895D01*
X117734022Y-103245815D01*
X117912365Y-103116242D01*
X118068242Y-102960365D01*
X118197815Y-102782022D01*
X118297895Y-102585606D01*
X118366015Y-102375951D01*
X118400500Y-102158222D01*
X118400500Y-101937778D01*
X118366015Y-101720049D01*
X118297895Y-101510394D01*
X118297895Y-101510393D01*
X118263237Y-101442375D01*
X118197815Y-101313978D01*
X118156968Y-101257756D01*
X118068247Y-101135641D01*
X118068243Y-101135636D01*
X117912363Y-100979756D01*
X117912358Y-100979752D01*
X117734025Y-100850187D01*
X117734024Y-100850186D01*
X117734022Y-100850185D01*
X117636130Y-100800306D01*
X117537606Y-100750104D01*
X117537603Y-100750103D01*
X117327952Y-100681985D01*
X117188544Y-100659905D01*
X117110222Y-100647500D01*
X117110221Y-100647500D01*
X117105410Y-100646738D01*
X117105637Y-100645302D01*
X117046421Y-100622730D01*
X117004953Y-100566497D01*
X117000469Y-100496771D01*
X117034394Y-100435691D01*
X117095957Y-100402647D01*
X117105414Y-100401287D01*
X117105410Y-100401262D01*
X117110221Y-100400500D01*
X117110222Y-100400500D01*
X117327951Y-100366015D01*
X117432225Y-100332135D01*
X123899500Y-100332135D01*
X123899500Y-102127870D01*
X123899501Y-102127876D01*
X123905908Y-102187483D01*
X123956202Y-102322328D01*
X123956206Y-102322335D01*
X124042452Y-102437544D01*
X124042455Y-102437547D01*
X124157664Y-102523793D01*
X124157671Y-102523797D01*
X124292517Y-102574091D01*
X124292516Y-102574091D01*
X124299444Y-102574835D01*
X124352127Y-102580500D01*
X126147872Y-102580499D01*
X126207483Y-102574091D01*
X126342331Y-102523796D01*
X126457546Y-102437546D01*
X126543796Y-102322331D01*
X126592810Y-102190916D01*
X126634681Y-102134984D01*
X126700145Y-102110566D01*
X126768418Y-102125417D01*
X126796673Y-102146569D01*
X126910213Y-102260109D01*
X127082179Y-102385048D01*
X127082181Y-102385049D01*
X127082184Y-102385051D01*
X127271588Y-102481557D01*
X127473757Y-102547246D01*
X127683713Y-102580500D01*
X127683714Y-102580500D01*
X127896286Y-102580500D01*
X127896287Y-102580500D01*
X128106243Y-102547246D01*
X128308412Y-102481557D01*
X128497816Y-102385051D01*
X128584138Y-102322335D01*
X128669786Y-102260109D01*
X128669788Y-102260106D01*
X128669792Y-102260104D01*
X128820104Y-102109792D01*
X128820106Y-102109788D01*
X128820109Y-102109786D01*
X128945048Y-101937820D01*
X128945047Y-101937820D01*
X128945051Y-101937816D01*
X128949514Y-101929054D01*
X128997488Y-101878259D01*
X129065308Y-101861463D01*
X129131444Y-101883999D01*
X129170486Y-101929056D01*
X129174951Y-101937820D01*
X129299890Y-102109786D01*
X129450213Y-102260109D01*
X129622179Y-102385048D01*
X129622181Y-102385049D01*
X129622184Y-102385051D01*
X129811588Y-102481557D01*
X130013757Y-102547246D01*
X130223713Y-102580500D01*
X130223714Y-102580500D01*
X130436286Y-102580500D01*
X130436287Y-102580500D01*
X130646243Y-102547246D01*
X130848412Y-102481557D01*
X131037816Y-102385051D01*
X131124138Y-102322335D01*
X131209786Y-102260109D01*
X131209788Y-102260106D01*
X131209792Y-102260104D01*
X131360104Y-102109792D01*
X131360106Y-102109788D01*
X131360109Y-102109786D01*
X131485048Y-101937820D01*
X131485047Y-101937820D01*
X131485051Y-101937816D01*
X131581557Y-101748412D01*
X131647246Y-101546243D01*
X131680500Y-101336287D01*
X131680500Y-101123713D01*
X131647246Y-100913757D01*
X131581557Y-100711588D01*
X131485051Y-100522184D01*
X131485049Y-100522181D01*
X131485048Y-100522179D01*
X131360109Y-100350213D01*
X131209786Y-100199890D01*
X131037820Y-100074951D01*
X130848414Y-99978444D01*
X130848413Y-99978443D01*
X130848412Y-99978443D01*
X130646243Y-99912754D01*
X130646241Y-99912753D01*
X130646240Y-99912753D01*
X130484957Y-99887208D01*
X130436287Y-99879500D01*
X130223713Y-99879500D01*
X130175042Y-99887208D01*
X130013760Y-99912753D01*
X129912672Y-99945598D01*
X129835025Y-99970828D01*
X129811585Y-99978444D01*
X129622179Y-100074951D01*
X129450213Y-100199890D01*
X129299890Y-100350213D01*
X129174949Y-100522182D01*
X129170484Y-100530946D01*
X129122509Y-100581742D01*
X129054688Y-100598536D01*
X128988553Y-100575998D01*
X128949516Y-100530946D01*
X128945050Y-100522182D01*
X128820109Y-100350213D01*
X128669786Y-100199890D01*
X128497820Y-100074951D01*
X128308414Y-99978444D01*
X128308413Y-99978443D01*
X128308412Y-99978443D01*
X128106243Y-99912754D01*
X128106241Y-99912753D01*
X128106240Y-99912753D01*
X127944957Y-99887208D01*
X127896287Y-99879500D01*
X127683713Y-99879500D01*
X127635042Y-99887208D01*
X127473760Y-99912753D01*
X127372672Y-99945598D01*
X127295025Y-99970828D01*
X127271585Y-99978444D01*
X127082179Y-100074951D01*
X126910215Y-100199889D01*
X126796673Y-100313431D01*
X126735350Y-100346915D01*
X126665658Y-100341931D01*
X126609725Y-100300059D01*
X126592810Y-100269082D01*
X126543797Y-100137671D01*
X126543793Y-100137664D01*
X126457547Y-100022455D01*
X126457544Y-100022452D01*
X126342335Y-99936206D01*
X126342328Y-99936202D01*
X126207482Y-99885908D01*
X126207483Y-99885908D01*
X126147883Y-99879501D01*
X126147881Y-99879500D01*
X126147873Y-99879500D01*
X126147864Y-99879500D01*
X124352129Y-99879500D01*
X124352123Y-99879501D01*
X124292516Y-99885908D01*
X124157671Y-99936202D01*
X124157664Y-99936206D01*
X124042455Y-100022452D01*
X124042452Y-100022455D01*
X123956206Y-100137664D01*
X123956202Y-100137671D01*
X123905908Y-100272517D01*
X123899501Y-100332116D01*
X123899500Y-100332135D01*
X117432225Y-100332135D01*
X117537606Y-100297895D01*
X117734022Y-100197815D01*
X117912365Y-100068242D01*
X118068242Y-99912365D01*
X118197815Y-99734022D01*
X118297895Y-99537606D01*
X118366015Y-99327951D01*
X118400500Y-99110222D01*
X118400500Y-98889778D01*
X118366015Y-98672049D01*
X118297895Y-98462394D01*
X118297895Y-98462393D01*
X118236447Y-98341797D01*
X118197815Y-98265978D01*
X118150502Y-98200857D01*
X118068247Y-98087641D01*
X118068243Y-98087636D01*
X117912363Y-97931756D01*
X117912358Y-97931752D01*
X117734025Y-97802187D01*
X117734024Y-97802186D01*
X117734022Y-97802185D01*
X117671096Y-97770122D01*
X117537606Y-97702104D01*
X117537603Y-97702103D01*
X117327952Y-97633985D01*
X117219086Y-97616742D01*
X117110222Y-97599500D01*
X116889778Y-97599500D01*
X116821160Y-97610368D01*
X116672047Y-97633985D01*
X116462396Y-97702103D01*
X116462393Y-97702104D01*
X116265974Y-97802187D01*
X116087641Y-97931752D01*
X116087636Y-97931756D01*
X115931756Y-98087636D01*
X115931752Y-98087641D01*
X115802187Y-98265974D01*
X115702104Y-98462393D01*
X115702103Y-98462396D01*
X115633985Y-98672047D01*
X115599500Y-98889778D01*
X115599500Y-99000000D01*
X115579815Y-99067039D01*
X115527011Y-99112794D01*
X115475500Y-99124000D01*
X115365819Y-99124000D01*
X115148164Y-99158473D01*
X114938589Y-99226567D01*
X114742233Y-99326616D01*
X114678485Y-99372931D01*
X114678485Y-99372932D01*
X115387414Y-100081861D01*
X115302306Y-100104667D01*
X115199694Y-100163910D01*
X115115910Y-100247694D01*
X115056667Y-100350306D01*
X115033861Y-100435414D01*
X114324932Y-99726485D01*
X114324931Y-99726485D01*
X114278616Y-99790233D01*
X114178567Y-99986589D01*
X114110473Y-100196164D01*
X114076000Y-100413818D01*
X114076000Y-100634181D01*
X114110473Y-100851835D01*
X114178567Y-101061410D01*
X114278611Y-101257756D01*
X114324932Y-101321513D01*
X115033861Y-100612584D01*
X115056667Y-100697694D01*
X115115910Y-100800306D01*
X115199694Y-100884090D01*
X115302306Y-100943333D01*
X115387413Y-100966137D01*
X114678485Y-101675065D01*
X114678485Y-101675066D01*
X114742243Y-101721388D01*
X114938589Y-101821432D01*
X115148164Y-101889526D01*
X115365819Y-101924000D01*
X115475500Y-101924000D01*
X115542539Y-101943685D01*
X115588294Y-101996489D01*
X115599500Y-102048000D01*
X115599500Y-102158222D01*
X115615637Y-102260109D01*
X115619121Y-102282102D01*
X115610166Y-102351395D01*
X115565170Y-102404847D01*
X115498419Y-102425487D01*
X115496648Y-102425500D01*
X114970862Y-102425500D01*
X114958599Y-102426590D01*
X114857451Y-102435582D01*
X114671594Y-102488762D01*
X114500250Y-102578265D01*
X114350428Y-102700428D01*
X114228265Y-102850250D01*
X114138762Y-103021594D01*
X114085582Y-103207451D01*
X114078774Y-103284038D01*
X114075500Y-103320862D01*
X99236631Y-103320862D01*
X99235790Y-103317464D01*
X99230726Y-103311310D01*
X99227513Y-103284038D01*
X99220912Y-103257380D01*
X99223483Y-103249834D01*
X99222551Y-103241920D01*
X99234591Y-103217241D01*
X99243451Y-103191246D01*
X99250074Y-103185507D01*
X99253188Y-103179126D01*
X99267396Y-103170498D01*
X99288508Y-103152207D01*
X99297816Y-103147465D01*
X99377007Y-103089929D01*
X99469786Y-103022523D01*
X99469788Y-103022520D01*
X99469792Y-103022518D01*
X99620104Y-102872206D01*
X99620106Y-102872202D01*
X99620109Y-102872200D01*
X99745048Y-102700234D01*
X99745047Y-102700234D01*
X99745051Y-102700230D01*
X99841557Y-102510826D01*
X99907246Y-102308657D01*
X99940500Y-102098701D01*
X99940500Y-101886127D01*
X99907246Y-101676171D01*
X99841557Y-101474002D01*
X99745051Y-101284598D01*
X99745049Y-101284595D01*
X99745048Y-101284593D01*
X99620109Y-101112627D01*
X99469786Y-100962304D01*
X99297820Y-100837365D01*
X99297115Y-100837005D01*
X99289054Y-100832899D01*
X99238259Y-100784926D01*
X99221463Y-100717106D01*
X99243999Y-100650970D01*
X99289054Y-100611929D01*
X99297816Y-100607465D01*
X99354204Y-100566497D01*
X99469786Y-100482523D01*
X99469788Y-100482520D01*
X99469792Y-100482518D01*
X99620104Y-100332206D01*
X99745051Y-100160230D01*
X99841557Y-99970826D01*
X99907246Y-99768657D01*
X99940500Y-99558701D01*
X99940500Y-99346127D01*
X99907246Y-99136171D01*
X99841557Y-98934002D01*
X99745051Y-98744598D01*
X99745049Y-98744595D01*
X99745048Y-98744593D01*
X99620109Y-98572627D01*
X99469786Y-98422304D01*
X99297817Y-98297363D01*
X99288504Y-98292618D01*
X99237707Y-98244644D01*
X99220912Y-98176823D01*
X99243449Y-98110688D01*
X99288507Y-98071646D01*
X99297555Y-98067036D01*
X99351716Y-98027684D01*
X99351717Y-98027684D01*
X98719408Y-97395376D01*
X98782993Y-97378339D01*
X98897007Y-97312513D01*
X98990099Y-97219421D01*
X99055925Y-97105407D01*
X99072962Y-97041822D01*
X99705270Y-97674131D01*
X99705270Y-97674130D01*
X99744622Y-97619968D01*
X99841095Y-97430631D01*
X99906757Y-97228544D01*
X99906757Y-97228541D01*
X99940000Y-97018660D01*
X99940000Y-96806167D01*
X99906757Y-96596286D01*
X99906757Y-96596283D01*
X99841095Y-96394196D01*
X99744624Y-96204863D01*
X99705270Y-96150696D01*
X99705269Y-96150696D01*
X99072962Y-96783004D01*
X99055925Y-96719421D01*
X98990099Y-96605407D01*
X98897007Y-96512315D01*
X98782993Y-96446489D01*
X98719409Y-96429451D01*
X99351716Y-95797142D01*
X99297547Y-95757787D01*
X99297547Y-95757786D01*
X99288500Y-95753177D01*
X99237706Y-95705202D01*
X99220912Y-95637380D01*
X99243451Y-95571246D01*
X99288508Y-95532207D01*
X99297816Y-95527465D01*
X99377007Y-95469929D01*
X99469786Y-95402523D01*
X99469788Y-95402520D01*
X99469792Y-95402518D01*
X99620104Y-95252206D01*
X99620106Y-95252202D01*
X99620109Y-95252200D01*
X99745048Y-95080234D01*
X99745047Y-95080234D01*
X99745051Y-95080230D01*
X99841557Y-94890826D01*
X99907246Y-94688657D01*
X99940500Y-94478701D01*
X99940500Y-94266127D01*
X99907246Y-94056171D01*
X99841557Y-93854002D01*
X99745051Y-93664598D01*
X99745049Y-93664595D01*
X99745048Y-93664593D01*
X99620109Y-93492627D01*
X99469786Y-93342304D01*
X99297820Y-93217365D01*
X99297115Y-93217005D01*
X99289054Y-93212899D01*
X99238259Y-93164926D01*
X99221463Y-93097106D01*
X99243999Y-93030970D01*
X99289054Y-92991929D01*
X99297816Y-92987465D01*
X99319789Y-92971500D01*
X99469786Y-92862523D01*
X99469788Y-92862520D01*
X99469792Y-92862518D01*
X99620104Y-92712206D01*
X99620106Y-92712202D01*
X99620109Y-92712200D01*
X99745048Y-92540234D01*
X99745047Y-92540234D01*
X99745051Y-92540230D01*
X99841557Y-92350826D01*
X99907246Y-92148657D01*
X99940500Y-91938701D01*
X99940500Y-91726127D01*
X99925613Y-91632135D01*
X124039500Y-91632135D01*
X124039500Y-93427870D01*
X124039501Y-93427876D01*
X124045908Y-93487483D01*
X124096202Y-93622328D01*
X124096206Y-93622335D01*
X124182452Y-93737544D01*
X124182455Y-93737547D01*
X124297664Y-93823793D01*
X124297671Y-93823797D01*
X124432517Y-93874091D01*
X124432516Y-93874091D01*
X124439444Y-93874835D01*
X124492127Y-93880500D01*
X126287872Y-93880499D01*
X126347483Y-93874091D01*
X126482331Y-93823796D01*
X126597546Y-93737546D01*
X126683796Y-93622331D01*
X126732810Y-93490916D01*
X126774681Y-93434984D01*
X126840145Y-93410566D01*
X126908418Y-93425417D01*
X126936673Y-93446569D01*
X127050213Y-93560109D01*
X127222179Y-93685048D01*
X127222181Y-93685049D01*
X127222184Y-93685051D01*
X127411588Y-93781557D01*
X127613757Y-93847246D01*
X127823713Y-93880500D01*
X127823714Y-93880500D01*
X128036286Y-93880500D01*
X128036287Y-93880500D01*
X128246243Y-93847246D01*
X128448412Y-93781557D01*
X128637816Y-93685051D01*
X128724138Y-93622335D01*
X128809786Y-93560109D01*
X128809788Y-93560106D01*
X128809792Y-93560104D01*
X128960104Y-93409792D01*
X128960106Y-93409788D01*
X128960109Y-93409786D01*
X129085048Y-93237820D01*
X129085047Y-93237820D01*
X129085051Y-93237816D01*
X129089514Y-93229054D01*
X129137488Y-93178259D01*
X129205308Y-93161463D01*
X129271444Y-93183999D01*
X129310486Y-93229056D01*
X129314951Y-93237820D01*
X129439890Y-93409786D01*
X129590213Y-93560109D01*
X129762179Y-93685048D01*
X129762181Y-93685049D01*
X129762184Y-93685051D01*
X129951588Y-93781557D01*
X130153757Y-93847246D01*
X130363713Y-93880500D01*
X130363714Y-93880500D01*
X130576286Y-93880500D01*
X130576287Y-93880500D01*
X130786243Y-93847246D01*
X130988412Y-93781557D01*
X131177816Y-93685051D01*
X131264138Y-93622335D01*
X131349786Y-93560109D01*
X131349788Y-93560106D01*
X131349792Y-93560104D01*
X131500104Y-93409792D01*
X131500106Y-93409788D01*
X131500109Y-93409786D01*
X131625048Y-93237820D01*
X131625047Y-93237820D01*
X131625051Y-93237816D01*
X131721557Y-93048412D01*
X131787246Y-92846243D01*
X131820500Y-92636287D01*
X131820500Y-92423713D01*
X131787246Y-92213757D01*
X131721557Y-92011588D01*
X131625051Y-91822184D01*
X131625049Y-91822181D01*
X131625048Y-91822179D01*
X131500109Y-91650213D01*
X131349793Y-91499897D01*
X131346085Y-91496730D01*
X131347059Y-91495589D01*
X131308472Y-91445524D01*
X131302508Y-91375909D01*
X131335128Y-91314122D01*
X131336279Y-91312954D01*
X137255521Y-85393713D01*
X154149500Y-85393713D01*
X154149500Y-85606287D01*
X154182754Y-85816243D01*
X154201074Y-85872627D01*
X154248444Y-86018414D01*
X154344951Y-86207820D01*
X154469890Y-86379786D01*
X154620213Y-86530109D01*
X154792179Y-86655048D01*
X154792181Y-86655049D01*
X154792184Y-86655051D01*
X154981588Y-86751557D01*
X155183757Y-86817246D01*
X155393713Y-86850500D01*
X155393714Y-86850500D01*
X155606286Y-86850500D01*
X155606287Y-86850500D01*
X155816243Y-86817246D01*
X156018412Y-86751557D01*
X156207816Y-86655051D01*
X156229789Y-86639086D01*
X156379786Y-86530109D01*
X156379788Y-86530106D01*
X156379792Y-86530104D01*
X156530104Y-86379792D01*
X156530106Y-86379788D01*
X156530109Y-86379786D01*
X156655048Y-86207820D01*
X156655047Y-86207820D01*
X156655051Y-86207816D01*
X156751557Y-86018412D01*
X156817246Y-85816243D01*
X156850500Y-85606287D01*
X156850500Y-85393713D01*
X156817246Y-85183757D01*
X156751557Y-84981588D01*
X156655051Y-84792184D01*
X156655049Y-84792181D01*
X156655048Y-84792179D01*
X156530109Y-84620213D01*
X156379786Y-84469890D01*
X156207820Y-84344951D01*
X156018414Y-84248444D01*
X156018413Y-84248443D01*
X156018412Y-84248443D01*
X155816243Y-84182754D01*
X155816241Y-84182753D01*
X155816240Y-84182753D01*
X155654957Y-84157208D01*
X155606287Y-84149500D01*
X155393713Y-84149500D01*
X155345042Y-84157208D01*
X155183760Y-84182753D01*
X154981585Y-84248444D01*
X154792179Y-84344951D01*
X154620213Y-84469890D01*
X154469890Y-84620213D01*
X154344951Y-84792179D01*
X154248444Y-84981585D01*
X154182753Y-85183760D01*
X154153658Y-85367462D01*
X154149500Y-85393713D01*
X137255521Y-85393713D01*
X159230520Y-63418716D01*
X159309577Y-63281784D01*
X159350501Y-63129057D01*
X159350501Y-62970942D01*
X159350501Y-62963347D01*
X159350500Y-62963329D01*
X159350500Y-54150096D01*
X159370185Y-54083057D01*
X159386814Y-54062420D01*
X161048713Y-52400521D01*
X161048716Y-52400520D01*
X161127822Y-52321413D01*
X161189144Y-52287931D01*
X161228974Y-52290780D01*
X161258834Y-52292916D01*
X161258835Y-52292916D01*
X161258836Y-52292917D01*
X161314768Y-52334789D01*
X161322425Y-52355319D01*
X161339184Y-52400252D01*
X161339500Y-52409098D01*
X161339500Y-53809902D01*
X161319815Y-53876941D01*
X161303181Y-53897583D01*
X159719481Y-55481282D01*
X159719480Y-55481284D01*
X159688342Y-55535218D01*
X159669361Y-55568094D01*
X159669359Y-55568096D01*
X159640425Y-55618209D01*
X159640424Y-55618210D01*
X159640423Y-55618215D01*
X159599499Y-55770943D01*
X159599499Y-55770945D01*
X159599499Y-55939046D01*
X159599500Y-55939059D01*
X159599500Y-84699902D01*
X159579815Y-84766941D01*
X159563181Y-84787583D01*
X147519481Y-96831282D01*
X147519480Y-96831284D01*
X147472640Y-96912415D01*
X147469361Y-96918094D01*
X147469359Y-96918096D01*
X147440425Y-96968209D01*
X147440424Y-96968210D01*
X147426906Y-97018660D01*
X147399499Y-97120943D01*
X147399499Y-97120945D01*
X147399499Y-97289046D01*
X147399500Y-97289059D01*
X147399500Y-118049902D01*
X147379815Y-118116941D01*
X147363181Y-118137583D01*
X144990349Y-120510414D01*
X144929026Y-120543899D01*
X144864355Y-120540666D01*
X144851367Y-120536446D01*
X144618097Y-120499500D01*
X144618092Y-120499500D01*
X144381908Y-120499500D01*
X144381903Y-120499500D01*
X144148631Y-120536446D01*
X143924003Y-120609433D01*
X143713566Y-120716657D01*
X143604550Y-120795862D01*
X143522490Y-120855483D01*
X143522488Y-120855485D01*
X143522487Y-120855485D01*
X143355485Y-121022487D01*
X143355485Y-121022488D01*
X143355483Y-121022490D01*
X143295862Y-121104550D01*
X143216657Y-121213566D01*
X143109433Y-121424003D01*
X143036446Y-121648631D01*
X142999500Y-121881902D01*
X142999500Y-122118097D01*
X143036446Y-122351368D01*
X143109433Y-122575996D01*
X143216657Y-122786433D01*
X143355483Y-122977510D01*
X143522490Y-123144517D01*
X143713567Y-123283343D01*
X143812991Y-123334002D01*
X143924003Y-123390566D01*
X143924005Y-123390566D01*
X143924008Y-123390568D01*
X144044412Y-123429689D01*
X144148631Y-123463553D01*
X144381903Y-123500500D01*
X144381908Y-123500500D01*
X144618097Y-123500500D01*
X144851368Y-123463553D01*
X145075992Y-123390568D01*
X145286433Y-123283343D01*
X145477510Y-123144517D01*
X145644517Y-122977510D01*
X145783343Y-122786433D01*
X145843583Y-122668204D01*
X145891558Y-122617409D01*
X145954068Y-122600500D01*
X149545932Y-122600500D01*
X149612971Y-122620185D01*
X149656416Y-122668203D01*
X149716657Y-122786433D01*
X149855483Y-122977510D01*
X150022490Y-123144517D01*
X150213567Y-123283343D01*
X150312991Y-123334002D01*
X150424003Y-123390566D01*
X150424005Y-123390566D01*
X150424008Y-123390568D01*
X150544412Y-123429689D01*
X150648631Y-123463553D01*
X150881903Y-123500500D01*
X150881908Y-123500500D01*
X151118097Y-123500500D01*
X151351368Y-123463553D01*
X151575992Y-123390568D01*
X151786433Y-123283343D01*
X151977510Y-123144517D01*
X152144517Y-122977510D01*
X152283343Y-122786433D01*
X152390568Y-122575992D01*
X152463553Y-122351368D01*
X152500500Y-122118097D01*
X152500500Y-121881902D01*
X152463553Y-121648631D01*
X152390566Y-121424003D01*
X152283342Y-121213566D01*
X152269342Y-121194297D01*
X152144517Y-121022490D01*
X151977510Y-120855483D01*
X151786433Y-120716657D01*
X151786429Y-120716655D01*
X151575996Y-120609433D01*
X151351368Y-120536446D01*
X151118097Y-120499500D01*
X151118092Y-120499500D01*
X150881908Y-120499500D01*
X150881903Y-120499500D01*
X150648631Y-120536446D01*
X150424003Y-120609433D01*
X150213566Y-120716657D01*
X150104550Y-120795862D01*
X150022490Y-120855483D01*
X150022488Y-120855485D01*
X150022487Y-120855485D01*
X149855485Y-121022487D01*
X149855485Y-121022488D01*
X149855483Y-121022490D01*
X149795862Y-121104550D01*
X149716657Y-121213566D01*
X149694092Y-121257853D01*
X149658855Y-121327011D01*
X149656417Y-121331795D01*
X149608442Y-121382591D01*
X149545932Y-121399500D01*
X146099096Y-121399500D01*
X146032057Y-121379815D01*
X145986302Y-121327011D01*
X145976358Y-121257853D01*
X146005383Y-121194297D01*
X146011415Y-121187819D01*
X147078291Y-120120943D01*
X148358506Y-118840728D01*
X148358511Y-118840724D01*
X148368714Y-118830520D01*
X148368716Y-118830520D01*
X148480520Y-118718716D01*
X148559577Y-118581784D01*
X148590540Y-118466229D01*
X148600500Y-118429058D01*
X148600500Y-118270943D01*
X148600500Y-105572135D01*
X148919500Y-105572135D01*
X148919500Y-107667870D01*
X148919501Y-107667876D01*
X148925908Y-107727483D01*
X148976202Y-107862328D01*
X148976206Y-107862335D01*
X149062452Y-107977544D01*
X149062455Y-107977547D01*
X149177664Y-108063793D01*
X149177671Y-108063797D01*
X149312517Y-108114091D01*
X149312516Y-108114091D01*
X149319444Y-108114835D01*
X149372127Y-108120500D01*
X150907872Y-108120499D01*
X150967483Y-108114091D01*
X151102331Y-108063796D01*
X151217546Y-107977546D01*
X151303796Y-107862331D01*
X151354091Y-107727483D01*
X151360500Y-107667873D01*
X151360499Y-107515211D01*
X151380183Y-107448175D01*
X151432987Y-107402420D01*
X151502145Y-107392476D01*
X151565701Y-107421501D01*
X151594983Y-107458918D01*
X151636133Y-107539679D01*
X151670060Y-107586374D01*
X151749055Y-107695102D01*
X151884898Y-107830945D01*
X152040319Y-107943865D01*
X152211491Y-108031082D01*
X152211493Y-108031083D01*
X152302845Y-108060764D01*
X152394199Y-108090447D01*
X152583945Y-108120500D01*
X152583946Y-108120500D01*
X152776054Y-108120500D01*
X152776055Y-108120500D01*
X152965801Y-108090447D01*
X153148509Y-108031082D01*
X153319681Y-107943865D01*
X153475102Y-107830945D01*
X153610945Y-107695102D01*
X153723865Y-107539681D01*
X153811082Y-107368509D01*
X153811084Y-107368504D01*
X153832069Y-107303919D01*
X153871506Y-107246243D01*
X153935864Y-107219044D01*
X154004711Y-107230958D01*
X154056187Y-107278202D01*
X154067931Y-107303919D01*
X154088915Y-107368504D01*
X154115919Y-107421501D01*
X154176135Y-107539681D01*
X154289055Y-107695102D01*
X154424898Y-107830945D01*
X154580319Y-107943865D01*
X154751491Y-108031082D01*
X154751493Y-108031083D01*
X154842845Y-108060764D01*
X154934199Y-108090447D01*
X155123945Y-108120500D01*
X155123946Y-108120500D01*
X155316054Y-108120500D01*
X155316055Y-108120500D01*
X155505801Y-108090447D01*
X155688509Y-108031082D01*
X155859681Y-107943865D01*
X156015102Y-107830945D01*
X156150945Y-107695102D01*
X156263865Y-107539681D01*
X156351082Y-107368509D01*
X156351084Y-107368504D01*
X156372069Y-107303919D01*
X156411506Y-107246243D01*
X156475864Y-107219044D01*
X156544711Y-107230958D01*
X156596187Y-107278202D01*
X156607931Y-107303919D01*
X156628915Y-107368504D01*
X156655919Y-107421501D01*
X156716135Y-107539681D01*
X156829055Y-107695102D01*
X156964898Y-107830945D01*
X157120319Y-107943865D01*
X157291491Y-108031082D01*
X157291493Y-108031083D01*
X157382845Y-108060764D01*
X157474199Y-108090447D01*
X157663945Y-108120500D01*
X157663946Y-108120500D01*
X157856054Y-108120500D01*
X157856055Y-108120500D01*
X158045801Y-108090447D01*
X158228509Y-108031082D01*
X158399681Y-107943865D01*
X158555102Y-107830945D01*
X158690945Y-107695102D01*
X158803865Y-107539681D01*
X158891082Y-107368509D01*
X158891084Y-107368504D01*
X158912069Y-107303919D01*
X158951506Y-107246243D01*
X159015864Y-107219044D01*
X159084711Y-107230958D01*
X159136187Y-107278202D01*
X159147931Y-107303919D01*
X159168915Y-107368504D01*
X159195919Y-107421501D01*
X159256135Y-107539681D01*
X159369055Y-107695102D01*
X159504898Y-107830945D01*
X159660319Y-107943865D01*
X159831491Y-108031082D01*
X159831493Y-108031083D01*
X159922845Y-108060764D01*
X160014199Y-108090447D01*
X160203945Y-108120500D01*
X160203946Y-108120500D01*
X160396054Y-108120500D01*
X160396055Y-108120500D01*
X160585801Y-108090447D01*
X160768509Y-108031082D01*
X160939681Y-107943865D01*
X161095102Y-107830945D01*
X161230945Y-107695102D01*
X161343865Y-107539681D01*
X161431082Y-107368509D01*
X161431084Y-107368504D01*
X161452069Y-107303919D01*
X161491506Y-107246243D01*
X161555864Y-107219044D01*
X161624711Y-107230958D01*
X161676187Y-107278202D01*
X161687931Y-107303919D01*
X161708915Y-107368504D01*
X161735919Y-107421501D01*
X161796135Y-107539681D01*
X161909055Y-107695102D01*
X162044898Y-107830945D01*
X162200319Y-107943865D01*
X162371491Y-108031082D01*
X162371493Y-108031083D01*
X162462845Y-108060764D01*
X162554199Y-108090447D01*
X162743945Y-108120500D01*
X162743946Y-108120500D01*
X162936054Y-108120500D01*
X162936055Y-108120500D01*
X163125801Y-108090447D01*
X163308509Y-108031082D01*
X163479681Y-107943865D01*
X163635102Y-107830945D01*
X163770945Y-107695102D01*
X163883865Y-107539681D01*
X163971082Y-107368509D01*
X163971084Y-107368504D01*
X163992069Y-107303919D01*
X164031506Y-107246243D01*
X164095864Y-107219044D01*
X164164711Y-107230958D01*
X164216187Y-107278202D01*
X164227931Y-107303919D01*
X164248915Y-107368504D01*
X164275919Y-107421501D01*
X164336135Y-107539681D01*
X164449055Y-107695102D01*
X164584898Y-107830945D01*
X164740319Y-107943865D01*
X164911491Y-108031082D01*
X164911493Y-108031083D01*
X165002845Y-108060764D01*
X165094199Y-108090447D01*
X165283945Y-108120500D01*
X165283946Y-108120500D01*
X165476054Y-108120500D01*
X165476055Y-108120500D01*
X165665801Y-108090447D01*
X165848509Y-108031082D01*
X166019681Y-107943865D01*
X166175102Y-107830945D01*
X166310945Y-107695102D01*
X166423865Y-107539681D01*
X166511082Y-107368509D01*
X166511084Y-107368504D01*
X166532069Y-107303919D01*
X166571506Y-107246243D01*
X166635864Y-107219044D01*
X166704711Y-107230958D01*
X166756187Y-107278202D01*
X166767931Y-107303919D01*
X166788915Y-107368504D01*
X166815919Y-107421501D01*
X166876135Y-107539681D01*
X166989055Y-107695102D01*
X167124898Y-107830945D01*
X167280319Y-107943865D01*
X167451491Y-108031082D01*
X167451493Y-108031083D01*
X167542845Y-108060764D01*
X167634199Y-108090447D01*
X167823945Y-108120500D01*
X167823946Y-108120500D01*
X168016054Y-108120500D01*
X168016055Y-108120500D01*
X168205801Y-108090447D01*
X168388509Y-108031082D01*
X168559681Y-107943865D01*
X168715102Y-107830945D01*
X168850945Y-107695102D01*
X168963865Y-107539681D01*
X169051082Y-107368509D01*
X169051084Y-107368504D01*
X169072069Y-107303919D01*
X169111506Y-107246243D01*
X169175864Y-107219044D01*
X169244711Y-107230958D01*
X169296187Y-107278202D01*
X169307931Y-107303919D01*
X169328915Y-107368504D01*
X169355919Y-107421501D01*
X169416135Y-107539681D01*
X169529055Y-107695102D01*
X169664898Y-107830945D01*
X169820319Y-107943865D01*
X169991491Y-108031082D01*
X169991493Y-108031083D01*
X170082845Y-108060764D01*
X170174199Y-108090447D01*
X170363945Y-108120500D01*
X170363946Y-108120500D01*
X170556054Y-108120500D01*
X170556055Y-108120500D01*
X170745801Y-108090447D01*
X170928509Y-108031082D01*
X171099681Y-107943865D01*
X171255102Y-107830945D01*
X171390945Y-107695102D01*
X171503865Y-107539681D01*
X171591082Y-107368509D01*
X171591084Y-107368504D01*
X171612069Y-107303919D01*
X171651506Y-107246243D01*
X171715864Y-107219044D01*
X171784711Y-107230958D01*
X171836187Y-107278202D01*
X171847931Y-107303919D01*
X171868915Y-107368504D01*
X171895919Y-107421501D01*
X171956135Y-107539681D01*
X172069055Y-107695102D01*
X172204898Y-107830945D01*
X172360319Y-107943865D01*
X172531491Y-108031082D01*
X172531493Y-108031083D01*
X172622845Y-108060764D01*
X172714199Y-108090447D01*
X172903945Y-108120500D01*
X172903946Y-108120500D01*
X173096054Y-108120500D01*
X173096055Y-108120500D01*
X173285801Y-108090447D01*
X173468509Y-108031082D01*
X173639681Y-107943865D01*
X173795102Y-107830945D01*
X173930945Y-107695102D01*
X174043865Y-107539681D01*
X174131082Y-107368509D01*
X174190447Y-107185801D01*
X174220500Y-106996055D01*
X174220500Y-106243945D01*
X174190447Y-106054199D01*
X174160424Y-105961797D01*
X174131083Y-105871493D01*
X174119455Y-105848672D01*
X174043865Y-105700319D01*
X173930945Y-105544898D01*
X173795102Y-105409055D01*
X173639681Y-105296135D01*
X173510607Y-105230368D01*
X173468506Y-105208916D01*
X173285802Y-105149553D01*
X173190928Y-105134526D01*
X173096055Y-105119500D01*
X172903945Y-105119500D01*
X172840696Y-105129517D01*
X172714197Y-105149553D01*
X172531493Y-105208916D01*
X172360318Y-105296135D01*
X172271645Y-105360560D01*
X172204898Y-105409055D01*
X172204896Y-105409057D01*
X172204895Y-105409057D01*
X172069057Y-105544895D01*
X172069057Y-105544896D01*
X172069055Y-105544898D01*
X172049271Y-105572129D01*
X171956135Y-105700318D01*
X171868916Y-105871493D01*
X171847931Y-105936081D01*
X171808494Y-105993756D01*
X171744135Y-106020955D01*
X171675289Y-106009041D01*
X171623813Y-105961797D01*
X171612069Y-105936081D01*
X171591083Y-105871493D01*
X171579455Y-105848672D01*
X171503865Y-105700319D01*
X171390945Y-105544898D01*
X171255102Y-105409055D01*
X171099681Y-105296135D01*
X170970607Y-105230368D01*
X170928506Y-105208916D01*
X170745802Y-105149553D01*
X170650928Y-105134526D01*
X170556055Y-105119500D01*
X170363945Y-105119500D01*
X170300696Y-105129517D01*
X170174197Y-105149553D01*
X169991493Y-105208916D01*
X169820318Y-105296135D01*
X169731645Y-105360560D01*
X169664898Y-105409055D01*
X169664896Y-105409057D01*
X169664895Y-105409057D01*
X169529057Y-105544895D01*
X169529057Y-105544896D01*
X169529055Y-105544898D01*
X169509271Y-105572129D01*
X169416135Y-105700318D01*
X169328916Y-105871493D01*
X169307931Y-105936081D01*
X169268494Y-105993756D01*
X169204135Y-106020955D01*
X169135289Y-106009041D01*
X169083813Y-105961797D01*
X169072069Y-105936081D01*
X169051083Y-105871493D01*
X169039455Y-105848672D01*
X168963865Y-105700319D01*
X168850945Y-105544898D01*
X168715102Y-105409055D01*
X168559681Y-105296135D01*
X168430607Y-105230368D01*
X168388506Y-105208916D01*
X168205802Y-105149553D01*
X168110928Y-105134526D01*
X168016055Y-105119500D01*
X167823945Y-105119500D01*
X167760696Y-105129517D01*
X167634197Y-105149553D01*
X167451493Y-105208916D01*
X167280318Y-105296135D01*
X167191645Y-105360560D01*
X167124898Y-105409055D01*
X167124896Y-105409057D01*
X167124895Y-105409057D01*
X166989057Y-105544895D01*
X166989057Y-105544896D01*
X166989055Y-105544898D01*
X166969271Y-105572129D01*
X166876135Y-105700318D01*
X166788916Y-105871493D01*
X166767931Y-105936081D01*
X166728494Y-105993756D01*
X166664135Y-106020955D01*
X166595289Y-106009041D01*
X166543813Y-105961797D01*
X166532069Y-105936081D01*
X166511083Y-105871493D01*
X166499455Y-105848672D01*
X166423865Y-105700319D01*
X166310945Y-105544898D01*
X166175102Y-105409055D01*
X166019681Y-105296135D01*
X165890607Y-105230368D01*
X165848506Y-105208916D01*
X165665802Y-105149553D01*
X165570928Y-105134526D01*
X165476055Y-105119500D01*
X165283945Y-105119500D01*
X165220696Y-105129517D01*
X165094197Y-105149553D01*
X164911493Y-105208916D01*
X164740318Y-105296135D01*
X164651645Y-105360560D01*
X164584898Y-105409055D01*
X164584896Y-105409057D01*
X164584895Y-105409057D01*
X164449057Y-105544895D01*
X164449057Y-105544896D01*
X164449055Y-105544898D01*
X164429271Y-105572129D01*
X164336135Y-105700318D01*
X164248916Y-105871493D01*
X164227931Y-105936081D01*
X164188494Y-105993756D01*
X164124135Y-106020955D01*
X164055289Y-106009041D01*
X164003813Y-105961797D01*
X163992069Y-105936081D01*
X163971083Y-105871493D01*
X163959455Y-105848672D01*
X163883865Y-105700319D01*
X163770945Y-105544898D01*
X163635102Y-105409055D01*
X163479681Y-105296135D01*
X163350607Y-105230368D01*
X163308506Y-105208916D01*
X163125802Y-105149553D01*
X163030928Y-105134526D01*
X162936055Y-105119500D01*
X162743945Y-105119500D01*
X162680696Y-105129517D01*
X162554197Y-105149553D01*
X162371493Y-105208916D01*
X162200318Y-105296135D01*
X162111645Y-105360560D01*
X162044898Y-105409055D01*
X162044896Y-105409057D01*
X162044895Y-105409057D01*
X161909057Y-105544895D01*
X161909057Y-105544896D01*
X161909055Y-105544898D01*
X161889271Y-105572129D01*
X161796135Y-105700318D01*
X161708916Y-105871493D01*
X161687931Y-105936081D01*
X161648494Y-105993756D01*
X161584135Y-106020955D01*
X161515289Y-106009041D01*
X161463813Y-105961797D01*
X161452069Y-105936081D01*
X161431083Y-105871493D01*
X161419455Y-105848672D01*
X161343865Y-105700319D01*
X161230945Y-105544898D01*
X161095102Y-105409055D01*
X160939681Y-105296135D01*
X160810607Y-105230368D01*
X160768506Y-105208916D01*
X160585802Y-105149553D01*
X160490928Y-105134526D01*
X160396055Y-105119500D01*
X160203945Y-105119500D01*
X160140696Y-105129517D01*
X160014197Y-105149553D01*
X159831493Y-105208916D01*
X159660318Y-105296135D01*
X159571645Y-105360560D01*
X159504898Y-105409055D01*
X159504896Y-105409057D01*
X159504895Y-105409057D01*
X159369057Y-105544895D01*
X159369057Y-105544896D01*
X159369055Y-105544898D01*
X159349271Y-105572129D01*
X159256135Y-105700318D01*
X159168916Y-105871493D01*
X159147931Y-105936081D01*
X159108494Y-105993756D01*
X159044135Y-106020955D01*
X158975289Y-106009041D01*
X158923813Y-105961797D01*
X158912069Y-105936081D01*
X158891083Y-105871493D01*
X158879455Y-105848672D01*
X158803865Y-105700319D01*
X158690945Y-105544898D01*
X158555102Y-105409055D01*
X158399681Y-105296135D01*
X158270607Y-105230368D01*
X158228506Y-105208916D01*
X158045802Y-105149553D01*
X157950928Y-105134526D01*
X157856055Y-105119500D01*
X157663945Y-105119500D01*
X157600696Y-105129517D01*
X157474197Y-105149553D01*
X157291493Y-105208916D01*
X157120318Y-105296135D01*
X157031645Y-105360560D01*
X156964898Y-105409055D01*
X156964896Y-105409057D01*
X156964895Y-105409057D01*
X156829057Y-105544895D01*
X156829057Y-105544896D01*
X156829055Y-105544898D01*
X156809271Y-105572129D01*
X156716135Y-105700318D01*
X156628916Y-105871493D01*
X156607931Y-105936081D01*
X156568494Y-105993756D01*
X156504135Y-106020955D01*
X156435289Y-106009041D01*
X156383813Y-105961797D01*
X156372069Y-105936081D01*
X156351083Y-105871493D01*
X156339455Y-105848672D01*
X156263865Y-105700319D01*
X156150945Y-105544898D01*
X156015102Y-105409055D01*
X155859681Y-105296135D01*
X155730607Y-105230368D01*
X155688506Y-105208916D01*
X155505802Y-105149553D01*
X155410928Y-105134526D01*
X155316055Y-105119500D01*
X155123945Y-105119500D01*
X155060696Y-105129517D01*
X154934197Y-105149553D01*
X154751493Y-105208916D01*
X154580318Y-105296135D01*
X154491645Y-105360560D01*
X154424898Y-105409055D01*
X154424896Y-105409057D01*
X154424895Y-105409057D01*
X154289057Y-105544895D01*
X154289057Y-105544896D01*
X154289055Y-105544898D01*
X154269271Y-105572129D01*
X154176135Y-105700318D01*
X154088916Y-105871493D01*
X154067931Y-105936081D01*
X154028494Y-105993756D01*
X153964135Y-106020955D01*
X153895289Y-106009041D01*
X153843813Y-105961797D01*
X153832069Y-105936081D01*
X153811083Y-105871493D01*
X153799455Y-105848672D01*
X153723865Y-105700319D01*
X153610945Y-105544898D01*
X153475102Y-105409055D01*
X153319681Y-105296135D01*
X153190607Y-105230368D01*
X153148506Y-105208916D01*
X152965802Y-105149553D01*
X152870928Y-105134526D01*
X152776055Y-105119500D01*
X152583945Y-105119500D01*
X152520696Y-105129517D01*
X152394197Y-105149553D01*
X152211493Y-105208916D01*
X152040318Y-105296135D01*
X151951645Y-105360560D01*
X151884898Y-105409055D01*
X151884896Y-105409057D01*
X151884895Y-105409057D01*
X151749057Y-105544895D01*
X151749057Y-105544896D01*
X151749055Y-105544898D01*
X151729280Y-105572116D01*
X151636133Y-105700320D01*
X151594983Y-105781082D01*
X151547009Y-105831877D01*
X151479187Y-105848672D01*
X151413053Y-105826134D01*
X151369602Y-105771419D01*
X151360499Y-105724786D01*
X151360499Y-105572129D01*
X151360498Y-105572123D01*
X151360497Y-105572116D01*
X151354091Y-105512517D01*
X151303796Y-105377669D01*
X151303795Y-105377668D01*
X151303793Y-105377664D01*
X151217547Y-105262455D01*
X151217544Y-105262452D01*
X151102335Y-105176206D01*
X151102328Y-105176202D01*
X150967482Y-105125908D01*
X150967483Y-105125908D01*
X150907883Y-105119501D01*
X150907881Y-105119500D01*
X150907873Y-105119500D01*
X150907864Y-105119500D01*
X149372129Y-105119500D01*
X149372123Y-105119501D01*
X149312516Y-105125908D01*
X149177671Y-105176202D01*
X149177664Y-105176206D01*
X149062455Y-105262452D01*
X149062452Y-105262455D01*
X148976206Y-105377664D01*
X148976202Y-105377671D01*
X148925908Y-105512517D01*
X148919501Y-105572116D01*
X148919501Y-105572123D01*
X148919500Y-105572135D01*
X148600500Y-105572135D01*
X148600500Y-98623945D01*
X148919500Y-98623945D01*
X148919500Y-99376054D01*
X148949553Y-99565802D01*
X149008916Y-99748506D01*
X149075662Y-99879500D01*
X149096135Y-99919681D01*
X149209055Y-100075102D01*
X149344898Y-100210945D01*
X149500319Y-100323865D01*
X149671491Y-100411082D01*
X149671493Y-100411083D01*
X149744808Y-100434904D01*
X149854199Y-100470447D01*
X150043945Y-100500500D01*
X150043946Y-100500500D01*
X150236054Y-100500500D01*
X150236055Y-100500500D01*
X150425801Y-100470447D01*
X150608509Y-100411082D01*
X150779681Y-100323865D01*
X150935102Y-100210945D01*
X151070945Y-100075102D01*
X151183865Y-99919681D01*
X151271082Y-99748509D01*
X151271084Y-99748504D01*
X151292069Y-99683919D01*
X151331506Y-99626243D01*
X151395864Y-99599044D01*
X151464711Y-99610958D01*
X151516187Y-99658202D01*
X151527931Y-99683919D01*
X151548915Y-99748504D01*
X151615662Y-99879500D01*
X151636135Y-99919681D01*
X151749055Y-100075102D01*
X151884898Y-100210945D01*
X152040319Y-100323865D01*
X152211491Y-100411082D01*
X152211493Y-100411083D01*
X152284808Y-100434904D01*
X152394199Y-100470447D01*
X152583945Y-100500500D01*
X152583946Y-100500500D01*
X152776054Y-100500500D01*
X152776055Y-100500500D01*
X152965801Y-100470447D01*
X153148509Y-100411082D01*
X153319681Y-100323865D01*
X153475102Y-100210945D01*
X153610945Y-100075102D01*
X153723865Y-99919681D01*
X153811082Y-99748509D01*
X153811084Y-99748504D01*
X153832069Y-99683919D01*
X153871506Y-99626243D01*
X153935864Y-99599044D01*
X154004711Y-99610958D01*
X154056187Y-99658202D01*
X154067931Y-99683919D01*
X154088915Y-99748504D01*
X154155662Y-99879500D01*
X154176135Y-99919681D01*
X154289055Y-100075102D01*
X154424898Y-100210945D01*
X154580319Y-100323865D01*
X154751491Y-100411082D01*
X154751493Y-100411083D01*
X154824808Y-100434904D01*
X154934199Y-100470447D01*
X155123945Y-100500500D01*
X155123946Y-100500500D01*
X155316054Y-100500500D01*
X155316055Y-100500500D01*
X155505801Y-100470447D01*
X155688509Y-100411082D01*
X155859681Y-100323865D01*
X156015102Y-100210945D01*
X156150945Y-100075102D01*
X156263865Y-99919681D01*
X156351082Y-99748509D01*
X156351084Y-99748504D01*
X156372069Y-99683919D01*
X156411506Y-99626243D01*
X156475864Y-99599044D01*
X156544711Y-99610958D01*
X156596187Y-99658202D01*
X156607931Y-99683919D01*
X156628915Y-99748504D01*
X156695662Y-99879500D01*
X156716135Y-99919681D01*
X156829055Y-100075102D01*
X156964898Y-100210945D01*
X157120319Y-100323865D01*
X157291491Y-100411082D01*
X157291493Y-100411083D01*
X157364808Y-100434904D01*
X157474199Y-100470447D01*
X157663945Y-100500500D01*
X157663946Y-100500500D01*
X157856054Y-100500500D01*
X157856055Y-100500500D01*
X158045801Y-100470447D01*
X158228509Y-100411082D01*
X158399681Y-100323865D01*
X158555102Y-100210945D01*
X158690945Y-100075102D01*
X158803865Y-99919681D01*
X158891082Y-99748509D01*
X158891084Y-99748504D01*
X158912069Y-99683919D01*
X158951506Y-99626243D01*
X159015864Y-99599044D01*
X159084711Y-99610958D01*
X159136187Y-99658202D01*
X159147931Y-99683919D01*
X159168915Y-99748504D01*
X159235662Y-99879500D01*
X159256135Y-99919681D01*
X159369055Y-100075102D01*
X159504898Y-100210945D01*
X159660319Y-100323865D01*
X159831491Y-100411082D01*
X159831493Y-100411083D01*
X159904808Y-100434904D01*
X160014199Y-100470447D01*
X160203945Y-100500500D01*
X160203946Y-100500500D01*
X160396054Y-100500500D01*
X160396055Y-100500500D01*
X160585801Y-100470447D01*
X160768509Y-100411082D01*
X160939681Y-100323865D01*
X161095102Y-100210945D01*
X161230945Y-100075102D01*
X161343865Y-99919681D01*
X161431082Y-99748509D01*
X161431084Y-99748504D01*
X161452069Y-99683919D01*
X161491506Y-99626243D01*
X161555864Y-99599044D01*
X161624711Y-99610958D01*
X161676187Y-99658202D01*
X161687931Y-99683919D01*
X161708915Y-99748504D01*
X161775662Y-99879500D01*
X161796135Y-99919681D01*
X161909055Y-100075102D01*
X162044898Y-100210945D01*
X162200319Y-100323865D01*
X162371491Y-100411082D01*
X162371493Y-100411083D01*
X162444808Y-100434904D01*
X162554199Y-100470447D01*
X162743945Y-100500500D01*
X162743946Y-100500500D01*
X162936054Y-100500500D01*
X162936055Y-100500500D01*
X163125801Y-100470447D01*
X163308509Y-100411082D01*
X163479681Y-100323865D01*
X163635102Y-100210945D01*
X163770945Y-100075102D01*
X163883865Y-99919681D01*
X163971082Y-99748509D01*
X163971084Y-99748504D01*
X163992069Y-99683919D01*
X164031506Y-99626243D01*
X164095864Y-99599044D01*
X164164711Y-99610958D01*
X164216187Y-99658202D01*
X164227931Y-99683919D01*
X164248915Y-99748504D01*
X164315662Y-99879500D01*
X164336135Y-99919681D01*
X164449055Y-100075102D01*
X164584898Y-100210945D01*
X164740319Y-100323865D01*
X164911491Y-100411082D01*
X164911493Y-100411083D01*
X164984808Y-100434904D01*
X165094199Y-100470447D01*
X165283945Y-100500500D01*
X165283946Y-100500500D01*
X165476054Y-100500500D01*
X165476055Y-100500500D01*
X165665801Y-100470447D01*
X165848509Y-100411082D01*
X166019681Y-100323865D01*
X166175102Y-100210945D01*
X166310945Y-100075102D01*
X166423865Y-99919681D01*
X166511082Y-99748509D01*
X166511084Y-99748504D01*
X166532069Y-99683919D01*
X166571506Y-99626243D01*
X166635864Y-99599044D01*
X166704711Y-99610958D01*
X166756187Y-99658202D01*
X166767931Y-99683919D01*
X166788915Y-99748504D01*
X166855662Y-99879500D01*
X166876135Y-99919681D01*
X166989055Y-100075102D01*
X167124898Y-100210945D01*
X167280319Y-100323865D01*
X167451491Y-100411082D01*
X167451493Y-100411083D01*
X167524808Y-100434904D01*
X167634199Y-100470447D01*
X167823945Y-100500500D01*
X167823946Y-100500500D01*
X168016054Y-100500500D01*
X168016055Y-100500500D01*
X168205801Y-100470447D01*
X168388509Y-100411082D01*
X168559681Y-100323865D01*
X168715102Y-100210945D01*
X168850945Y-100075102D01*
X168963865Y-99919681D01*
X169051082Y-99748509D01*
X169051084Y-99748504D01*
X169072069Y-99683919D01*
X169111506Y-99626243D01*
X169175864Y-99599044D01*
X169244711Y-99610958D01*
X169296187Y-99658202D01*
X169307931Y-99683919D01*
X169328915Y-99748504D01*
X169395662Y-99879500D01*
X169416135Y-99919681D01*
X169529055Y-100075102D01*
X169664898Y-100210945D01*
X169820319Y-100323865D01*
X169991491Y-100411082D01*
X169991493Y-100411083D01*
X170064808Y-100434904D01*
X170174199Y-100470447D01*
X170363945Y-100500500D01*
X170363946Y-100500500D01*
X170556054Y-100500500D01*
X170556055Y-100500500D01*
X170745801Y-100470447D01*
X170928509Y-100411082D01*
X171099681Y-100323865D01*
X171255102Y-100210945D01*
X171390945Y-100075102D01*
X171503865Y-99919681D01*
X171591082Y-99748509D01*
X171591084Y-99748504D01*
X171612069Y-99683919D01*
X171651506Y-99626243D01*
X171715864Y-99599044D01*
X171784711Y-99610958D01*
X171836187Y-99658202D01*
X171847931Y-99683919D01*
X171868915Y-99748504D01*
X171935662Y-99879500D01*
X171956135Y-99919681D01*
X172069055Y-100075102D01*
X172204898Y-100210945D01*
X172360319Y-100323865D01*
X172531491Y-100411082D01*
X172531493Y-100411083D01*
X172604808Y-100434904D01*
X172714199Y-100470447D01*
X172903945Y-100500500D01*
X172903946Y-100500500D01*
X173096054Y-100500500D01*
X173096055Y-100500500D01*
X173285801Y-100470447D01*
X173468509Y-100411082D01*
X173639681Y-100323865D01*
X173795102Y-100210945D01*
X173930945Y-100075102D01*
X174043865Y-99919681D01*
X174131082Y-99748509D01*
X174190447Y-99565801D01*
X174220500Y-99376055D01*
X174220500Y-98623945D01*
X174190447Y-98434199D01*
X174160424Y-98341797D01*
X174131083Y-98251493D01*
X174127593Y-98244644D01*
X174043865Y-98080319D01*
X173930945Y-97924898D01*
X173795102Y-97789055D01*
X173639681Y-97676135D01*
X173635746Y-97674130D01*
X173468506Y-97588916D01*
X173285802Y-97529553D01*
X173190928Y-97514526D01*
X173096055Y-97499500D01*
X172903945Y-97499500D01*
X172840696Y-97509517D01*
X172714197Y-97529553D01*
X172531493Y-97588916D01*
X172360318Y-97676135D01*
X172324574Y-97702105D01*
X172204898Y-97789055D01*
X172204896Y-97789057D01*
X172204895Y-97789057D01*
X172069057Y-97924895D01*
X172069057Y-97924896D01*
X172069055Y-97924898D01*
X172064071Y-97931758D01*
X171956135Y-98080318D01*
X171868916Y-98251493D01*
X171847931Y-98316081D01*
X171808494Y-98373756D01*
X171744135Y-98400955D01*
X171675289Y-98389041D01*
X171623813Y-98341797D01*
X171612069Y-98316081D01*
X171591083Y-98251493D01*
X171587593Y-98244644D01*
X171503865Y-98080319D01*
X171390945Y-97924898D01*
X171255102Y-97789055D01*
X171099681Y-97676135D01*
X171095746Y-97674130D01*
X170928506Y-97588916D01*
X170745802Y-97529553D01*
X170650928Y-97514526D01*
X170556055Y-97499500D01*
X170363945Y-97499500D01*
X170300696Y-97509517D01*
X170174197Y-97529553D01*
X169991493Y-97588916D01*
X169820318Y-97676135D01*
X169784574Y-97702105D01*
X169664898Y-97789055D01*
X169664896Y-97789057D01*
X169664895Y-97789057D01*
X169529057Y-97924895D01*
X169529057Y-97924896D01*
X169529055Y-97924898D01*
X169524071Y-97931758D01*
X169416135Y-98080318D01*
X169328916Y-98251493D01*
X169307931Y-98316081D01*
X169268494Y-98373756D01*
X169204135Y-98400955D01*
X169135289Y-98389041D01*
X169083813Y-98341797D01*
X169072069Y-98316081D01*
X169051083Y-98251493D01*
X169047593Y-98244644D01*
X168963865Y-98080319D01*
X168850945Y-97924898D01*
X168715102Y-97789055D01*
X168559681Y-97676135D01*
X168555746Y-97674130D01*
X168388506Y-97588916D01*
X168205802Y-97529553D01*
X168110928Y-97514526D01*
X168016055Y-97499500D01*
X167823945Y-97499500D01*
X167760696Y-97509517D01*
X167634197Y-97529553D01*
X167451493Y-97588916D01*
X167280318Y-97676135D01*
X167244574Y-97702105D01*
X167124898Y-97789055D01*
X167124896Y-97789057D01*
X167124895Y-97789057D01*
X166989057Y-97924895D01*
X166989057Y-97924896D01*
X166989055Y-97924898D01*
X166984071Y-97931758D01*
X166876135Y-98080318D01*
X166788916Y-98251493D01*
X166767931Y-98316081D01*
X166728494Y-98373756D01*
X166664135Y-98400955D01*
X166595289Y-98389041D01*
X166543813Y-98341797D01*
X166532069Y-98316081D01*
X166511083Y-98251493D01*
X166507593Y-98244644D01*
X166423865Y-98080319D01*
X166310945Y-97924898D01*
X166175102Y-97789055D01*
X166019681Y-97676135D01*
X166015746Y-97674130D01*
X165848506Y-97588916D01*
X165665802Y-97529553D01*
X165570928Y-97514526D01*
X165476055Y-97499500D01*
X165283945Y-97499500D01*
X165220696Y-97509517D01*
X165094197Y-97529553D01*
X164911493Y-97588916D01*
X164740318Y-97676135D01*
X164704574Y-97702105D01*
X164584898Y-97789055D01*
X164584896Y-97789057D01*
X164584895Y-97789057D01*
X164449057Y-97924895D01*
X164449057Y-97924896D01*
X164449055Y-97924898D01*
X164444071Y-97931758D01*
X164336135Y-98080318D01*
X164248916Y-98251493D01*
X164227931Y-98316081D01*
X164188494Y-98373756D01*
X164124135Y-98400955D01*
X164055289Y-98389041D01*
X164003813Y-98341797D01*
X163992069Y-98316081D01*
X163971083Y-98251493D01*
X163967593Y-98244644D01*
X163883865Y-98080319D01*
X163770945Y-97924898D01*
X163635102Y-97789055D01*
X163479681Y-97676135D01*
X163475746Y-97674130D01*
X163308506Y-97588916D01*
X163125802Y-97529553D01*
X163030928Y-97514526D01*
X162936055Y-97499500D01*
X162743945Y-97499500D01*
X162680696Y-97509517D01*
X162554197Y-97529553D01*
X162371493Y-97588916D01*
X162200318Y-97676135D01*
X162164574Y-97702105D01*
X162044898Y-97789055D01*
X162044896Y-97789057D01*
X162044895Y-97789057D01*
X161909057Y-97924895D01*
X161909057Y-97924896D01*
X161909055Y-97924898D01*
X161904071Y-97931758D01*
X161796135Y-98080318D01*
X161708916Y-98251493D01*
X161687931Y-98316081D01*
X161648494Y-98373756D01*
X161584135Y-98400955D01*
X161515289Y-98389041D01*
X161463813Y-98341797D01*
X161452069Y-98316081D01*
X161431083Y-98251493D01*
X161427593Y-98244644D01*
X161343865Y-98080319D01*
X161230945Y-97924898D01*
X161095102Y-97789055D01*
X160939681Y-97676135D01*
X160935746Y-97674130D01*
X160768506Y-97588916D01*
X160585802Y-97529553D01*
X160490928Y-97514526D01*
X160396055Y-97499500D01*
X160203945Y-97499500D01*
X160140696Y-97509517D01*
X160014197Y-97529553D01*
X159831493Y-97588916D01*
X159660318Y-97676135D01*
X159624574Y-97702105D01*
X159504898Y-97789055D01*
X159504896Y-97789057D01*
X159504895Y-97789057D01*
X159369057Y-97924895D01*
X159369057Y-97924896D01*
X159369055Y-97924898D01*
X159364071Y-97931758D01*
X159256135Y-98080318D01*
X159168916Y-98251493D01*
X159147931Y-98316081D01*
X159108494Y-98373756D01*
X159044135Y-98400955D01*
X158975289Y-98389041D01*
X158923813Y-98341797D01*
X158912069Y-98316081D01*
X158891083Y-98251493D01*
X158887593Y-98244644D01*
X158803865Y-98080319D01*
X158690945Y-97924898D01*
X158555102Y-97789055D01*
X158399681Y-97676135D01*
X158395746Y-97674130D01*
X158228506Y-97588916D01*
X158045802Y-97529553D01*
X157950928Y-97514526D01*
X157856055Y-97499500D01*
X157663945Y-97499500D01*
X157600696Y-97509517D01*
X157474197Y-97529553D01*
X157291493Y-97588916D01*
X157120318Y-97676135D01*
X157084574Y-97702105D01*
X156964898Y-97789055D01*
X156964896Y-97789057D01*
X156964895Y-97789057D01*
X156829057Y-97924895D01*
X156829057Y-97924896D01*
X156829055Y-97924898D01*
X156824071Y-97931758D01*
X156716135Y-98080318D01*
X156628916Y-98251493D01*
X156607931Y-98316081D01*
X156568494Y-98373756D01*
X156504135Y-98400955D01*
X156435289Y-98389041D01*
X156383813Y-98341797D01*
X156372069Y-98316081D01*
X156351083Y-98251493D01*
X156347593Y-98244644D01*
X156263865Y-98080319D01*
X156150945Y-97924898D01*
X156015102Y-97789055D01*
X155859681Y-97676135D01*
X155855746Y-97674130D01*
X155688506Y-97588916D01*
X155505802Y-97529553D01*
X155410928Y-97514526D01*
X155316055Y-97499500D01*
X155123945Y-97499500D01*
X155060696Y-97509517D01*
X154934197Y-97529553D01*
X154751493Y-97588916D01*
X154580318Y-97676135D01*
X154544574Y-97702105D01*
X154424898Y-97789055D01*
X154424896Y-97789057D01*
X154424895Y-97789057D01*
X154289057Y-97924895D01*
X154289057Y-97924896D01*
X154289055Y-97924898D01*
X154284071Y-97931758D01*
X154176135Y-98080318D01*
X154088916Y-98251493D01*
X154067931Y-98316081D01*
X154028494Y-98373756D01*
X153964135Y-98400955D01*
X153895289Y-98389041D01*
X153843813Y-98341797D01*
X153832069Y-98316081D01*
X153811083Y-98251493D01*
X153807593Y-98244644D01*
X153723865Y-98080319D01*
X153610945Y-97924898D01*
X153475102Y-97789055D01*
X153319681Y-97676135D01*
X153315746Y-97674130D01*
X153148506Y-97588916D01*
X152965802Y-97529553D01*
X152870928Y-97514526D01*
X152776055Y-97499500D01*
X152583945Y-97499500D01*
X152520696Y-97509517D01*
X152394197Y-97529553D01*
X152211493Y-97588916D01*
X152040318Y-97676135D01*
X152004574Y-97702105D01*
X151884898Y-97789055D01*
X151884896Y-97789057D01*
X151884895Y-97789057D01*
X151749057Y-97924895D01*
X151749057Y-97924896D01*
X151749055Y-97924898D01*
X151744071Y-97931758D01*
X151636135Y-98080318D01*
X151548916Y-98251493D01*
X151527931Y-98316081D01*
X151488494Y-98373756D01*
X151424135Y-98400955D01*
X151355289Y-98389041D01*
X151303813Y-98341797D01*
X151292069Y-98316081D01*
X151271083Y-98251493D01*
X151267593Y-98244644D01*
X151183865Y-98080319D01*
X151070945Y-97924898D01*
X150935102Y-97789055D01*
X150779681Y-97676135D01*
X150775746Y-97674130D01*
X150608506Y-97588916D01*
X150425802Y-97529553D01*
X150330928Y-97514526D01*
X150236055Y-97499500D01*
X150043945Y-97499500D01*
X149980696Y-97509517D01*
X149854197Y-97529553D01*
X149671493Y-97588916D01*
X149500318Y-97676135D01*
X149464574Y-97702105D01*
X149344898Y-97789055D01*
X149344896Y-97789057D01*
X149344895Y-97789057D01*
X149209057Y-97924895D01*
X149209057Y-97924896D01*
X149209055Y-97924898D01*
X149204071Y-97931758D01*
X149096135Y-98080318D01*
X149008916Y-98251493D01*
X148949553Y-98434197D01*
X148919500Y-98623945D01*
X148600500Y-98623945D01*
X148600500Y-97500096D01*
X148620185Y-97433057D01*
X148636814Y-97412420D01*
X160558506Y-85490727D01*
X160558511Y-85490724D01*
X160568714Y-85480520D01*
X160568716Y-85480520D01*
X160655523Y-85393713D01*
X175153950Y-85393713D01*
X175153950Y-85606287D01*
X175187204Y-85816243D01*
X175205524Y-85872627D01*
X175252894Y-86018414D01*
X175349401Y-86207820D01*
X175474340Y-86379786D01*
X175624663Y-86530109D01*
X175796629Y-86655048D01*
X175796631Y-86655049D01*
X175796634Y-86655051D01*
X175986038Y-86751557D01*
X176188207Y-86817246D01*
X176398163Y-86850500D01*
X176398164Y-86850500D01*
X176610736Y-86850500D01*
X176610737Y-86850500D01*
X176820693Y-86817246D01*
X177022862Y-86751557D01*
X177212266Y-86655051D01*
X177234239Y-86639086D01*
X177384236Y-86530109D01*
X177384238Y-86530106D01*
X177384242Y-86530104D01*
X177534554Y-86379792D01*
X177534556Y-86379788D01*
X177534559Y-86379786D01*
X177659498Y-86207820D01*
X177659497Y-86207820D01*
X177659501Y-86207816D01*
X177756007Y-86018412D01*
X177821696Y-85816243D01*
X177854950Y-85606287D01*
X177854950Y-85393713D01*
X177821696Y-85183757D01*
X177756007Y-84981588D01*
X177659501Y-84792184D01*
X177659499Y-84792181D01*
X177659498Y-84792179D01*
X177534559Y-84620213D01*
X177384236Y-84469890D01*
X177212270Y-84344951D01*
X177022864Y-84248444D01*
X177022863Y-84248443D01*
X177022862Y-84248443D01*
X176820693Y-84182754D01*
X176820691Y-84182753D01*
X176820690Y-84182753D01*
X176659407Y-84157208D01*
X176610737Y-84149500D01*
X176398163Y-84149500D01*
X176349492Y-84157208D01*
X176188210Y-84182753D01*
X175986035Y-84248444D01*
X175796629Y-84344951D01*
X175624663Y-84469890D01*
X175474340Y-84620213D01*
X175349401Y-84792179D01*
X175252894Y-84981585D01*
X175187203Y-85183760D01*
X175158108Y-85367462D01*
X175153950Y-85393713D01*
X160655523Y-85393713D01*
X160680520Y-85368716D01*
X160688082Y-85355616D01*
X160704697Y-85326841D01*
X160726906Y-85288371D01*
X160759577Y-85231784D01*
X160800500Y-85079057D01*
X160800500Y-63111970D01*
X160820185Y-63044931D01*
X160872989Y-62999176D01*
X160942147Y-62989232D01*
X161005703Y-63018257D01*
X161023767Y-63037659D01*
X161078813Y-63111190D01*
X161193906Y-63197350D01*
X161193913Y-63197354D01*
X161328620Y-63247596D01*
X161328627Y-63247598D01*
X161388155Y-63253999D01*
X161388172Y-63254000D01*
X161940000Y-63254000D01*
X161940000Y-62433012D01*
X161997007Y-62465925D01*
X162124174Y-62500000D01*
X162255826Y-62500000D01*
X162382993Y-62465925D01*
X162440000Y-62433012D01*
X162440000Y-63254000D01*
X162991828Y-63254000D01*
X162991844Y-63253999D01*
X163051372Y-63247598D01*
X163051379Y-63247596D01*
X163186086Y-63197354D01*
X163186093Y-63197350D01*
X163301187Y-63111190D01*
X163301190Y-63111187D01*
X163387350Y-62996093D01*
X163387354Y-62996086D01*
X163437596Y-62861379D01*
X163437598Y-62861372D01*
X163443999Y-62801844D01*
X163444000Y-62801827D01*
X163444000Y-62745887D01*
X163463685Y-62678848D01*
X163516489Y-62633093D01*
X163585647Y-62623149D01*
X163649203Y-62652174D01*
X163668314Y-62672997D01*
X163772385Y-62816239D01*
X163773121Y-62817252D01*
X163912753Y-62956884D01*
X164023933Y-63037659D01*
X164072499Y-63072944D01*
X164248439Y-63162591D01*
X164355417Y-63197350D01*
X164436236Y-63223610D01*
X164631264Y-63254500D01*
X164631269Y-63254500D01*
X164828736Y-63254500D01*
X165023763Y-63223610D01*
X165211561Y-63162591D01*
X165387501Y-63072944D01*
X165527896Y-62970942D01*
X165547246Y-62956884D01*
X165547248Y-62956881D01*
X165547252Y-62956879D01*
X165686879Y-62817252D01*
X165686881Y-62817248D01*
X165686884Y-62817246D01*
X165802941Y-62657505D01*
X165802942Y-62657504D01*
X165802944Y-62657501D01*
X165889517Y-62487593D01*
X165937490Y-62436800D01*
X166005311Y-62420005D01*
X166071446Y-62442542D01*
X166110482Y-62487593D01*
X166170961Y-62606287D01*
X166197058Y-62657505D01*
X166313115Y-62817246D01*
X166452753Y-62956884D01*
X166563933Y-63037659D01*
X166612499Y-63072944D01*
X166788439Y-63162591D01*
X166895417Y-63197350D01*
X166976236Y-63223610D01*
X167171264Y-63254500D01*
X167171269Y-63254500D01*
X167368736Y-63254500D01*
X167563763Y-63223610D01*
X167751561Y-63162591D01*
X167927501Y-63072944D01*
X168067896Y-62970942D01*
X168087246Y-62956884D01*
X168087248Y-62956881D01*
X168087252Y-62956879D01*
X168226879Y-62817252D01*
X168226881Y-62817248D01*
X168226884Y-62817246D01*
X168342941Y-62657505D01*
X168342942Y-62657504D01*
X168342944Y-62657501D01*
X168429517Y-62487593D01*
X168477490Y-62436800D01*
X168545311Y-62420005D01*
X168611446Y-62442542D01*
X168650482Y-62487593D01*
X168710961Y-62606287D01*
X168737058Y-62657505D01*
X168853115Y-62817246D01*
X168992753Y-62956884D01*
X169103933Y-63037659D01*
X169152499Y-63072944D01*
X169328439Y-63162591D01*
X169435417Y-63197350D01*
X169516236Y-63223610D01*
X169711264Y-63254500D01*
X169711269Y-63254500D01*
X169908736Y-63254500D01*
X170103763Y-63223610D01*
X170291561Y-63162591D01*
X170467501Y-63072944D01*
X170607896Y-62970942D01*
X170627246Y-62956884D01*
X170627248Y-62956881D01*
X170627252Y-62956879D01*
X170766879Y-62817252D01*
X170766881Y-62817248D01*
X170766884Y-62817246D01*
X170818728Y-62745887D01*
X170882944Y-62657501D01*
X170972591Y-62481561D01*
X171001134Y-62393713D01*
X175153950Y-62393713D01*
X175153950Y-62606286D01*
X175184920Y-62801827D01*
X175187204Y-62816243D01*
X175246317Y-62998174D01*
X175252894Y-63018414D01*
X175349401Y-63207820D01*
X175474340Y-63379786D01*
X175624663Y-63530109D01*
X175796629Y-63655048D01*
X175796631Y-63655049D01*
X175796634Y-63655051D01*
X175986038Y-63751557D01*
X176188207Y-63817246D01*
X176398163Y-63850500D01*
X176398164Y-63850500D01*
X176610736Y-63850500D01*
X176610737Y-63850500D01*
X176820693Y-63817246D01*
X177022862Y-63751557D01*
X177212266Y-63655051D01*
X177295926Y-63594269D01*
X177384236Y-63530109D01*
X177384238Y-63530106D01*
X177384242Y-63530104D01*
X177534554Y-63379792D01*
X177534556Y-63379788D01*
X177534559Y-63379786D01*
X177659498Y-63207820D01*
X177659497Y-63207820D01*
X177659501Y-63207816D01*
X177756007Y-63018412D01*
X177821696Y-62816243D01*
X177854950Y-62606287D01*
X177854950Y-62393713D01*
X177821696Y-62183757D01*
X177756007Y-61981588D01*
X177659501Y-61792184D01*
X177659499Y-61792181D01*
X177659498Y-61792179D01*
X177534559Y-61620213D01*
X177384236Y-61469890D01*
X177212270Y-61344951D01*
X177022864Y-61248444D01*
X177022863Y-61248443D01*
X177022862Y-61248443D01*
X176820693Y-61182754D01*
X176820691Y-61182753D01*
X176820690Y-61182753D01*
X176659407Y-61157208D01*
X176610737Y-61149500D01*
X176398163Y-61149500D01*
X176349492Y-61157208D01*
X176188210Y-61182753D01*
X175986035Y-61248444D01*
X175796629Y-61344951D01*
X175624663Y-61469890D01*
X175474340Y-61620213D01*
X175349401Y-61792179D01*
X175252894Y-61981585D01*
X175187203Y-62183760D01*
X175153950Y-62393713D01*
X171001134Y-62393713D01*
X171005920Y-62378984D01*
X171015168Y-62350523D01*
X171033610Y-62293764D01*
X171064500Y-62098736D01*
X171064500Y-61901263D01*
X171033610Y-61706236D01*
X171005659Y-61620213D01*
X170972591Y-61518439D01*
X170882944Y-61342499D01*
X170871681Y-61326997D01*
X170766884Y-61182753D01*
X170627246Y-61043115D01*
X170467504Y-60927058D01*
X170467503Y-60927057D01*
X170467501Y-60927056D01*
X170291561Y-60837409D01*
X170291558Y-60837408D01*
X170103763Y-60776389D01*
X169908736Y-60745500D01*
X169908731Y-60745500D01*
X169711269Y-60745500D01*
X169711264Y-60745500D01*
X169516236Y-60776389D01*
X169328441Y-60837408D01*
X169152495Y-60927058D01*
X168992753Y-61043115D01*
X168853115Y-61182753D01*
X168737058Y-61342495D01*
X168737056Y-61342499D01*
X168656805Y-61500000D01*
X168650485Y-61512403D01*
X168602510Y-61563199D01*
X168534689Y-61579994D01*
X168468554Y-61557456D01*
X168429515Y-61512403D01*
X168342944Y-61342499D01*
X168331681Y-61326997D01*
X168226884Y-61182753D01*
X168087246Y-61043115D01*
X167927504Y-60927058D01*
X167927503Y-60927057D01*
X167927501Y-60927056D01*
X167751561Y-60837409D01*
X167751558Y-60837408D01*
X167563763Y-60776389D01*
X167368736Y-60745500D01*
X167368731Y-60745500D01*
X167171269Y-60745500D01*
X167171264Y-60745500D01*
X166976236Y-60776389D01*
X166788441Y-60837408D01*
X166612495Y-60927058D01*
X166452753Y-61043115D01*
X166313115Y-61182753D01*
X166197058Y-61342495D01*
X166197056Y-61342499D01*
X166116805Y-61500000D01*
X166110485Y-61512403D01*
X166062510Y-61563199D01*
X165994689Y-61579994D01*
X165928554Y-61557456D01*
X165889515Y-61512403D01*
X165802944Y-61342499D01*
X165791681Y-61326997D01*
X165686884Y-61182753D01*
X165547246Y-61043115D01*
X165387504Y-60927058D01*
X165387503Y-60927057D01*
X165387501Y-60927056D01*
X165211561Y-60837409D01*
X165211558Y-60837408D01*
X165023763Y-60776389D01*
X164828736Y-60745500D01*
X164828731Y-60745500D01*
X164631269Y-60745500D01*
X164631264Y-60745500D01*
X164436236Y-60776389D01*
X164248441Y-60837408D01*
X164072495Y-60927058D01*
X163912753Y-61043115D01*
X163773115Y-61182753D01*
X163668318Y-61326997D01*
X163612989Y-61369663D01*
X163543375Y-61375642D01*
X163481580Y-61343037D01*
X163447223Y-61282198D01*
X163444000Y-61254112D01*
X163444000Y-61198172D01*
X163443999Y-61198155D01*
X163437598Y-61138627D01*
X163437596Y-61138620D01*
X163387354Y-61003913D01*
X163387350Y-61003906D01*
X163301190Y-60888812D01*
X163301187Y-60888809D01*
X163186093Y-60802649D01*
X163186086Y-60802645D01*
X163051379Y-60752403D01*
X163051372Y-60752401D01*
X162991844Y-60746000D01*
X162440000Y-60746000D01*
X162440000Y-61566988D01*
X162382993Y-61534075D01*
X162255826Y-61500000D01*
X162124174Y-61500000D01*
X161997007Y-61534075D01*
X161940000Y-61566988D01*
X161940000Y-60746000D01*
X161388155Y-60746000D01*
X161328627Y-60752401D01*
X161328620Y-60752403D01*
X161193913Y-60802645D01*
X161193906Y-60802649D01*
X161078812Y-60888809D01*
X161023766Y-60962341D01*
X160967832Y-61004211D01*
X160898140Y-61009195D01*
X160836818Y-60975709D01*
X160803333Y-60914386D01*
X160800500Y-60888029D01*
X160800500Y-56150097D01*
X160820185Y-56083058D01*
X160836819Y-56062416D01*
X161577269Y-55321966D01*
X162420520Y-54478716D01*
X162499577Y-54341784D01*
X162540501Y-54189057D01*
X162540501Y-54030942D01*
X162540501Y-54023347D01*
X162540500Y-54023329D01*
X162540500Y-52119887D01*
X162560185Y-52052848D01*
X162612989Y-52007093D01*
X162682147Y-51997149D01*
X162702810Y-52001954D01*
X162903757Y-52067246D01*
X163113713Y-52100500D01*
X163113714Y-52100500D01*
X163326286Y-52100500D01*
X163326287Y-52100500D01*
X163536243Y-52067246D01*
X163738412Y-52001557D01*
X163927816Y-51905051D01*
X164014138Y-51842335D01*
X164099786Y-51780109D01*
X164099788Y-51780106D01*
X164099792Y-51780104D01*
X164250104Y-51629792D01*
X164250106Y-51629788D01*
X164250109Y-51629786D01*
X164375048Y-51457820D01*
X164375047Y-51457820D01*
X164375051Y-51457816D01*
X164379514Y-51449054D01*
X164427488Y-51398259D01*
X164495308Y-51381463D01*
X164561444Y-51403999D01*
X164600486Y-51449056D01*
X164604951Y-51457820D01*
X164729890Y-51629786D01*
X164880213Y-51780109D01*
X165052179Y-51905048D01*
X165052181Y-51905049D01*
X165052184Y-51905051D01*
X165241588Y-52001557D01*
X165443757Y-52067246D01*
X165653713Y-52100500D01*
X165653714Y-52100500D01*
X165866286Y-52100500D01*
X165866287Y-52100500D01*
X166076243Y-52067246D01*
X166278412Y-52001557D01*
X166467816Y-51905051D01*
X166554138Y-51842335D01*
X166639786Y-51780109D01*
X166639788Y-51780106D01*
X166639792Y-51780104D01*
X166790104Y-51629792D01*
X166790106Y-51629788D01*
X166790109Y-51629786D01*
X166915048Y-51457820D01*
X166915047Y-51457820D01*
X166915051Y-51457816D01*
X166919514Y-51449054D01*
X166967488Y-51398259D01*
X167035308Y-51381463D01*
X167101444Y-51403999D01*
X167140486Y-51449056D01*
X167144951Y-51457820D01*
X167269890Y-51629786D01*
X167420213Y-51780109D01*
X167592179Y-51905048D01*
X167592181Y-51905049D01*
X167592184Y-51905051D01*
X167781588Y-52001557D01*
X167983757Y-52067246D01*
X168193713Y-52100500D01*
X168193714Y-52100500D01*
X168406286Y-52100500D01*
X168406287Y-52100500D01*
X168616243Y-52067246D01*
X168818412Y-52001557D01*
X169007816Y-51905051D01*
X169094138Y-51842335D01*
X169179786Y-51780109D01*
X169179788Y-51780106D01*
X169179792Y-51780104D01*
X169330104Y-51629792D01*
X169330106Y-51629788D01*
X169330109Y-51629786D01*
X169455048Y-51457820D01*
X169455047Y-51457820D01*
X169455051Y-51457816D01*
X169459514Y-51449054D01*
X169507488Y-51398259D01*
X169575308Y-51381463D01*
X169641444Y-51403999D01*
X169680486Y-51449056D01*
X169684951Y-51457820D01*
X169809890Y-51629786D01*
X169960213Y-51780109D01*
X170132179Y-51905048D01*
X170132181Y-51905049D01*
X170132184Y-51905051D01*
X170321588Y-52001557D01*
X170523757Y-52067246D01*
X170733713Y-52100500D01*
X170733714Y-52100500D01*
X170946286Y-52100500D01*
X170946287Y-52100500D01*
X171156243Y-52067246D01*
X171358412Y-52001557D01*
X171547816Y-51905051D01*
X171634138Y-51842335D01*
X171719786Y-51780109D01*
X171719788Y-51780106D01*
X171719792Y-51780104D01*
X171870104Y-51629792D01*
X171870106Y-51629788D01*
X171870109Y-51629786D01*
X171995048Y-51457820D01*
X171995047Y-51457820D01*
X171995051Y-51457816D01*
X171999514Y-51449054D01*
X172047488Y-51398259D01*
X172115308Y-51381463D01*
X172181444Y-51403999D01*
X172220486Y-51449056D01*
X172224951Y-51457820D01*
X172349890Y-51629786D01*
X172500213Y-51780109D01*
X172672179Y-51905048D01*
X172672181Y-51905049D01*
X172672184Y-51905051D01*
X172861588Y-52001557D01*
X173063757Y-52067246D01*
X173273713Y-52100500D01*
X173273714Y-52100500D01*
X173486286Y-52100500D01*
X173486287Y-52100500D01*
X173696243Y-52067246D01*
X173898412Y-52001557D01*
X174087816Y-51905051D01*
X174174138Y-51842335D01*
X174259786Y-51780109D01*
X174259788Y-51780106D01*
X174259792Y-51780104D01*
X174410104Y-51629792D01*
X174410106Y-51629788D01*
X174410109Y-51629786D01*
X174535048Y-51457820D01*
X174535047Y-51457820D01*
X174535051Y-51457816D01*
X174539514Y-51449054D01*
X174587488Y-51398259D01*
X174655308Y-51381463D01*
X174721444Y-51403999D01*
X174760486Y-51449056D01*
X174764951Y-51457820D01*
X174889890Y-51629786D01*
X175040213Y-51780109D01*
X175212179Y-51905048D01*
X175212181Y-51905049D01*
X175212184Y-51905051D01*
X175401588Y-52001557D01*
X175603757Y-52067246D01*
X175813713Y-52100500D01*
X175813714Y-52100500D01*
X176026286Y-52100500D01*
X176026287Y-52100500D01*
X176236243Y-52067246D01*
X176438412Y-52001557D01*
X176627816Y-51905051D01*
X176714138Y-51842335D01*
X176799786Y-51780109D01*
X176799788Y-51780106D01*
X176799792Y-51780104D01*
X176950104Y-51629792D01*
X176950106Y-51629788D01*
X176950109Y-51629786D01*
X177075048Y-51457820D01*
X177075047Y-51457820D01*
X177075051Y-51457816D01*
X177079514Y-51449054D01*
X177127488Y-51398259D01*
X177195308Y-51381463D01*
X177261444Y-51403999D01*
X177300486Y-51449056D01*
X177304951Y-51457820D01*
X177429890Y-51629786D01*
X177580213Y-51780109D01*
X177752179Y-51905048D01*
X177752181Y-51905049D01*
X177752184Y-51905051D01*
X177941588Y-52001557D01*
X178143757Y-52067246D01*
X178353713Y-52100500D01*
X178353714Y-52100500D01*
X178566286Y-52100500D01*
X178566287Y-52100500D01*
X178776243Y-52067246D01*
X178978412Y-52001557D01*
X179167816Y-51905051D01*
X179311489Y-51800667D01*
X179339784Y-51780110D01*
X179339784Y-51780109D01*
X179339792Y-51780104D01*
X179453329Y-51666566D01*
X179514648Y-51633084D01*
X179584340Y-51638068D01*
X179640274Y-51679939D01*
X179657189Y-51710917D01*
X179706202Y-51842328D01*
X179706206Y-51842335D01*
X179792452Y-51957544D01*
X179792455Y-51957547D01*
X179907664Y-52043793D01*
X179907671Y-52043797D01*
X180042517Y-52094091D01*
X180042516Y-52094091D01*
X180049444Y-52094835D01*
X180102127Y-52100500D01*
X181897872Y-52100499D01*
X181957483Y-52094091D01*
X182092331Y-52043796D01*
X182201189Y-51962305D01*
X182266653Y-51937887D01*
X182334926Y-51952738D01*
X182384332Y-52002143D01*
X182399500Y-52061571D01*
X182399500Y-64029015D01*
X182399499Y-64029033D01*
X182399499Y-64194739D01*
X182399498Y-64194739D01*
X182440423Y-64347470D01*
X182469358Y-64397585D01*
X182469359Y-64397589D01*
X182469360Y-64397589D01*
X182519479Y-64484399D01*
X182519481Y-64484402D01*
X182638349Y-64603270D01*
X182638355Y-64603275D01*
X183113181Y-65078101D01*
X183146666Y-65139424D01*
X183149500Y-65165782D01*
X183149500Y-109530362D01*
X183129815Y-109597401D01*
X183077011Y-109643156D01*
X183007853Y-109653100D01*
X183001310Y-109651980D01*
X182988842Y-109649500D01*
X182831158Y-109649500D01*
X182831155Y-109649500D01*
X182676510Y-109680261D01*
X182676498Y-109680264D01*
X182530827Y-109740602D01*
X182530814Y-109740609D01*
X182399711Y-109828210D01*
X182399707Y-109828213D01*
X182288213Y-109939707D01*
X182288210Y-109939711D01*
X182200609Y-110070814D01*
X182200602Y-110070827D01*
X182140264Y-110216498D01*
X182140261Y-110216508D01*
X182109361Y-110371850D01*
X182076976Y-110433761D01*
X182075425Y-110435339D01*
X177447584Y-115063181D01*
X177386261Y-115096666D01*
X177359903Y-115099500D01*
X168086669Y-115099500D01*
X168086653Y-115099499D01*
X168079057Y-115099499D01*
X167920943Y-115099499D01*
X167813587Y-115128265D01*
X167768210Y-115140424D01*
X167768209Y-115140425D01*
X167718096Y-115169359D01*
X167718095Y-115169360D01*
X167674689Y-115194420D01*
X167631285Y-115219479D01*
X167631282Y-115219481D01*
X163019481Y-119831282D01*
X163019479Y-119831285D01*
X162969361Y-119918094D01*
X162969359Y-119918096D01*
X162940425Y-119968209D01*
X162940424Y-119968210D01*
X162940423Y-119968215D01*
X162899499Y-120120943D01*
X162899499Y-120120945D01*
X162899499Y-120289046D01*
X162899500Y-120289059D01*
X162899500Y-120545931D01*
X162879815Y-120612970D01*
X162831796Y-120656415D01*
X162713568Y-120716655D01*
X162586310Y-120809115D01*
X162522490Y-120855483D01*
X162522488Y-120855485D01*
X162522487Y-120855485D01*
X162355485Y-121022487D01*
X162355485Y-121022488D01*
X162355483Y-121022490D01*
X162295862Y-121104550D01*
X162216657Y-121213566D01*
X162109433Y-121424003D01*
X162036446Y-121648631D01*
X161999500Y-121881902D01*
X161999500Y-122118097D01*
X162036446Y-122351368D01*
X162109433Y-122575996D01*
X162216657Y-122786433D01*
X162355483Y-122977510D01*
X162522490Y-123144517D01*
X162713567Y-123283343D01*
X162812991Y-123334002D01*
X162924003Y-123390566D01*
X162924005Y-123390566D01*
X162924008Y-123390568D01*
X163044412Y-123429689D01*
X163148631Y-123463553D01*
X163381903Y-123500500D01*
X163381908Y-123500500D01*
X163618097Y-123500500D01*
X163851368Y-123463553D01*
X164075992Y-123390568D01*
X164286433Y-123283343D01*
X164477510Y-123144517D01*
X164644517Y-122977510D01*
X164783343Y-122786433D01*
X164890568Y-122575992D01*
X164963553Y-122351368D01*
X165000500Y-122118097D01*
X165000500Y-121881902D01*
X164963553Y-121648631D01*
X164890566Y-121424003D01*
X164783342Y-121213566D01*
X164769342Y-121194297D01*
X164644517Y-121022490D01*
X164477510Y-120855483D01*
X164381971Y-120786070D01*
X164286431Y-120716655D01*
X164168204Y-120656415D01*
X164117409Y-120608441D01*
X164100500Y-120545931D01*
X164100500Y-120500097D01*
X164120185Y-120433058D01*
X164136819Y-120412416D01*
X166697100Y-117852135D01*
X168399500Y-117852135D01*
X168399500Y-119947870D01*
X168399501Y-119947876D01*
X168405908Y-120007483D01*
X168456202Y-120142328D01*
X168456206Y-120142335D01*
X168542452Y-120257544D01*
X168542455Y-120257547D01*
X168657664Y-120343793D01*
X168657671Y-120343797D01*
X168792517Y-120394091D01*
X168792516Y-120394091D01*
X168799444Y-120394835D01*
X168852127Y-120400500D01*
X172147872Y-120400499D01*
X172207483Y-120394091D01*
X172342331Y-120343796D01*
X172457546Y-120257546D01*
X172543796Y-120142331D01*
X172594091Y-120007483D01*
X172600500Y-119947873D01*
X172600499Y-117852128D01*
X172594091Y-117792517D01*
X172593624Y-117791266D01*
X172543797Y-117657671D01*
X172543793Y-117657664D01*
X172457547Y-117542455D01*
X172457544Y-117542452D01*
X172342335Y-117456206D01*
X172342328Y-117456202D01*
X172207482Y-117405908D01*
X172207483Y-117405908D01*
X172147883Y-117399501D01*
X172147881Y-117399500D01*
X172147873Y-117399500D01*
X172147864Y-117399500D01*
X168852129Y-117399500D01*
X168852123Y-117399501D01*
X168792516Y-117405908D01*
X168657671Y-117456202D01*
X168657664Y-117456206D01*
X168542455Y-117542452D01*
X168542452Y-117542455D01*
X168456206Y-117657664D01*
X168456202Y-117657671D01*
X168405908Y-117792517D01*
X168400029Y-117847203D01*
X168399501Y-117852123D01*
X168399500Y-117852135D01*
X166697100Y-117852135D01*
X168212416Y-116336819D01*
X168273739Y-116303334D01*
X168300097Y-116300500D01*
X177573331Y-116300500D01*
X177573347Y-116300501D01*
X177580943Y-116300501D01*
X177739054Y-116300501D01*
X177739057Y-116300501D01*
X177891785Y-116259577D01*
X177941904Y-116230639D01*
X178028716Y-116180520D01*
X178140520Y-116068716D01*
X178140520Y-116068714D01*
X178150728Y-116058507D01*
X178150729Y-116058504D01*
X182924662Y-111284572D01*
X182985983Y-111251089D01*
X182988145Y-111250639D01*
X182997649Y-111248748D01*
X183001304Y-111248021D01*
X183070896Y-111254246D01*
X183126075Y-111297106D01*
X183149322Y-111362995D01*
X183149500Y-111369637D01*
X183149500Y-116699903D01*
X183129815Y-116766942D01*
X183113181Y-116787584D01*
X179091649Y-120809115D01*
X179030326Y-120842600D01*
X178960634Y-120837616D01*
X178931087Y-120821754D01*
X178786433Y-120716657D01*
X178786429Y-120716655D01*
X178575996Y-120609433D01*
X178351368Y-120536446D01*
X178118097Y-120499500D01*
X178118092Y-120499500D01*
X177881908Y-120499500D01*
X177881903Y-120499500D01*
X177648631Y-120536446D01*
X177424003Y-120609433D01*
X177213566Y-120716657D01*
X177104550Y-120795862D01*
X177022490Y-120855483D01*
X177022488Y-120855485D01*
X177022487Y-120855485D01*
X176855485Y-121022487D01*
X176855485Y-121022488D01*
X176855483Y-121022490D01*
X176795862Y-121104550D01*
X176716657Y-121213566D01*
X176609433Y-121424003D01*
X176536446Y-121648631D01*
X176499500Y-121881902D01*
X176499500Y-122118097D01*
X176536446Y-122351368D01*
X176609433Y-122575996D01*
X176716657Y-122786433D01*
X176855483Y-122977510D01*
X177022490Y-123144517D01*
X177078739Y-123185384D01*
X177121403Y-123240713D01*
X177126095Y-123272542D01*
X177870591Y-124017037D01*
X177807007Y-124034075D01*
X177692993Y-124099901D01*
X177599901Y-124192993D01*
X177534075Y-124307007D01*
X177517037Y-124370591D01*
X176777340Y-123630894D01*
X176717084Y-123713830D01*
X176609897Y-123924197D01*
X176536934Y-124148752D01*
X176500000Y-124381947D01*
X176500000Y-124618052D01*
X176536934Y-124851247D01*
X176609897Y-125075802D01*
X176717087Y-125286174D01*
X176786605Y-125381858D01*
X176810085Y-125447664D01*
X176794260Y-125515718D01*
X176760599Y-125554009D01*
X176642452Y-125642455D01*
X176556206Y-125757664D01*
X176556202Y-125757671D01*
X176505908Y-125892517D01*
X176499501Y-125952116D01*
X176499500Y-125952135D01*
X176499500Y-128047870D01*
X176499501Y-128047876D01*
X176505908Y-128107483D01*
X176556202Y-128242328D01*
X176556206Y-128242335D01*
X176642452Y-128357544D01*
X176642455Y-128357547D01*
X176757664Y-128443793D01*
X176757671Y-128443797D01*
X176892517Y-128494091D01*
X176892516Y-128494091D01*
X176899444Y-128494835D01*
X176952127Y-128500500D01*
X179047872Y-128500499D01*
X179107483Y-128494091D01*
X179242331Y-128443796D01*
X179357546Y-128357546D01*
X179443796Y-128242331D01*
X179494091Y-128107483D01*
X179500500Y-128047873D01*
X179500499Y-126400095D01*
X179520184Y-126333057D01*
X179536813Y-126312420D01*
X180338913Y-125510320D01*
X184699500Y-125510320D01*
X184699500Y-125752897D01*
X184731161Y-125993394D01*
X184793947Y-126227713D01*
X184886773Y-126451814D01*
X184886776Y-126451821D01*
X185008064Y-126661898D01*
X185008066Y-126661901D01*
X185008067Y-126661902D01*
X185155733Y-126854345D01*
X185155739Y-126854352D01*
X185327256Y-127025869D01*
X185327263Y-127025875D01*
X185440321Y-127112627D01*
X185519711Y-127173545D01*
X185729788Y-127294833D01*
X185953900Y-127387663D01*
X186188211Y-127450447D01*
X186368586Y-127474193D01*
X186428711Y-127482109D01*
X186428712Y-127482109D01*
X186671289Y-127482109D01*
X186719388Y-127475776D01*
X186911789Y-127450447D01*
X187146100Y-127387663D01*
X187370212Y-127294833D01*
X187580289Y-127173545D01*
X187772738Y-127025874D01*
X187944265Y-126854347D01*
X188091936Y-126661898D01*
X188213224Y-126451821D01*
X188306054Y-126227709D01*
X188368838Y-125993398D01*
X188400500Y-125752897D01*
X188400500Y-125510321D01*
X188399075Y-125499500D01*
X188369828Y-125277340D01*
X188368838Y-125269820D01*
X188306054Y-125035509D01*
X188213224Y-124811397D01*
X188091936Y-124601320D01*
X187944265Y-124408871D01*
X187944260Y-124408865D01*
X187772743Y-124237348D01*
X187772736Y-124237342D01*
X187580293Y-124089676D01*
X187580292Y-124089675D01*
X187580289Y-124089673D01*
X187370212Y-123968385D01*
X187370205Y-123968382D01*
X187146104Y-123875556D01*
X186911785Y-123812770D01*
X186671289Y-123781109D01*
X186671288Y-123781109D01*
X186428712Y-123781109D01*
X186428711Y-123781109D01*
X186188214Y-123812770D01*
X185953895Y-123875556D01*
X185729794Y-123968382D01*
X185729785Y-123968386D01*
X185519706Y-124089676D01*
X185327263Y-124237342D01*
X185327256Y-124237348D01*
X185155739Y-124408865D01*
X185155733Y-124408872D01*
X185008067Y-124601315D01*
X185008064Y-124601319D01*
X185008064Y-124601320D01*
X184998404Y-124618052D01*
X184886777Y-124811394D01*
X184886773Y-124811403D01*
X184793947Y-125035504D01*
X184731161Y-125269823D01*
X184699500Y-125510320D01*
X180338913Y-125510320D01*
X184718713Y-121130521D01*
X184718716Y-121130520D01*
X184830520Y-121018716D01*
X184880639Y-120931904D01*
X184909577Y-120881785D01*
X184950500Y-120729057D01*
X184950500Y-120570943D01*
X184950500Y-64989060D01*
X184950501Y-64989047D01*
X184950501Y-64820944D01*
X184909576Y-64668214D01*
X184909573Y-64668209D01*
X184868002Y-64596204D01*
X184868001Y-64596204D01*
X184830521Y-64531286D01*
X184830520Y-64531284D01*
X184718716Y-64419480D01*
X184718715Y-64419479D01*
X184714385Y-64415149D01*
X184714374Y-64415139D01*
X184036819Y-63737583D01*
X184003334Y-63676260D01*
X184000500Y-63649902D01*
X184000500Y-61654142D01*
X185373627Y-61654142D01*
X185373627Y-61896719D01*
X185400222Y-62098736D01*
X185405289Y-62137220D01*
X185436681Y-62254375D01*
X185468074Y-62371535D01*
X185521286Y-62500000D01*
X185560903Y-62595643D01*
X185682191Y-62805720D01*
X185682193Y-62805723D01*
X185682194Y-62805724D01*
X185829860Y-62998167D01*
X185829866Y-62998174D01*
X186001383Y-63169691D01*
X186001390Y-63169697D01*
X186051068Y-63207816D01*
X186193838Y-63317367D01*
X186403915Y-63438655D01*
X186628027Y-63531485D01*
X186862338Y-63594269D01*
X187042713Y-63618015D01*
X187102838Y-63625931D01*
X187102839Y-63625931D01*
X187345416Y-63625931D01*
X187393515Y-63619598D01*
X187585916Y-63594269D01*
X187820227Y-63531485D01*
X188044339Y-63438655D01*
X188254416Y-63317367D01*
X188446865Y-63169696D01*
X188618392Y-62998169D01*
X188766063Y-62805720D01*
X188887351Y-62595643D01*
X188980181Y-62371531D01*
X189042965Y-62137220D01*
X189074627Y-61896719D01*
X189074627Y-61654143D01*
X189070159Y-61620208D01*
X189056762Y-61518441D01*
X189042965Y-61413642D01*
X188980181Y-61179331D01*
X188887351Y-60955219D01*
X188766063Y-60745142D01*
X188618392Y-60552693D01*
X188618387Y-60552687D01*
X188446870Y-60381170D01*
X188446863Y-60381164D01*
X188254420Y-60233498D01*
X188254419Y-60233497D01*
X188254416Y-60233495D01*
X188044339Y-60112207D01*
X188044332Y-60112204D01*
X187820231Y-60019378D01*
X187585912Y-59956592D01*
X187345416Y-59924931D01*
X187345415Y-59924931D01*
X187102839Y-59924931D01*
X187102838Y-59924931D01*
X186862341Y-59956592D01*
X186628022Y-60019378D01*
X186403921Y-60112204D01*
X186403912Y-60112208D01*
X186193833Y-60233498D01*
X186001390Y-60381164D01*
X186001383Y-60381170D01*
X185829866Y-60552687D01*
X185829860Y-60552694D01*
X185682194Y-60745137D01*
X185560904Y-60955216D01*
X185560900Y-60955225D01*
X185468074Y-61179326D01*
X185405288Y-61413645D01*
X185373627Y-61654142D01*
X184000500Y-61654142D01*
X184000500Y-48923375D01*
X184000501Y-48923362D01*
X184000501Y-48755259D01*
X184000501Y-48755258D01*
X183959577Y-48602531D01*
X183952312Y-48589949D01*
X183946023Y-48579054D01*
X183946023Y-48579053D01*
X183880524Y-48465605D01*
X183880521Y-48465601D01*
X183880520Y-48465599D01*
X183768716Y-48353795D01*
X183768715Y-48353794D01*
X183764385Y-48349464D01*
X183764374Y-48349454D01*
X183153276Y-47738355D01*
X183153274Y-47738352D01*
X183034403Y-47619481D01*
X183034402Y-47619480D01*
X182947590Y-47569360D01*
X182947590Y-47569359D01*
X182947588Y-47569359D01*
X182897471Y-47540423D01*
X182897468Y-47540422D01*
X182832918Y-47523126D01*
X182744744Y-47499500D01*
X182744742Y-47499499D01*
X182744741Y-47499499D01*
X182579034Y-47499499D01*
X182579018Y-47499500D01*
X161444077Y-47499500D01*
X161438430Y-47499371D01*
X161424982Y-47498758D01*
X161390428Y-47489499D01*
X161232314Y-47489499D01*
X161232310Y-47489500D01*
X154764745Y-47489500D01*
X154697706Y-47469815D01*
X154661643Y-47434391D01*
X154631789Y-47389711D01*
X154631787Y-47389708D01*
X154520292Y-47278213D01*
X154520288Y-47278210D01*
X154389185Y-47190609D01*
X154389172Y-47190602D01*
X154243501Y-47130264D01*
X154243489Y-47130261D01*
X154088845Y-47099500D01*
X154088842Y-47099500D01*
X153931158Y-47099500D01*
X153931155Y-47099500D01*
X153776510Y-47130261D01*
X153776498Y-47130264D01*
X153630827Y-47190602D01*
X153630814Y-47190609D01*
X153499711Y-47278210D01*
X153499707Y-47278213D01*
X153388213Y-47389707D01*
X153388210Y-47389711D01*
X153300609Y-47520814D01*
X153300602Y-47520827D01*
X153240264Y-47666498D01*
X153240261Y-47666508D01*
X153213769Y-47799692D01*
X153181384Y-47861603D01*
X153120668Y-47896177D01*
X153092152Y-47899500D01*
X151261669Y-47899500D01*
X151261653Y-47899499D01*
X151254057Y-47899499D01*
X151095943Y-47899499D01*
X150988587Y-47928265D01*
X150943210Y-47940424D01*
X150943209Y-47940425D01*
X150893096Y-47969359D01*
X150893095Y-47969360D01*
X150849689Y-47994420D01*
X150806285Y-48019479D01*
X150806282Y-48019481D01*
X150039481Y-48786282D01*
X150039475Y-48786290D01*
X149997676Y-48858690D01*
X149997676Y-48858691D01*
X149960423Y-48923214D01*
X149960423Y-48923215D01*
X149919499Y-49075943D01*
X149919499Y-49075945D01*
X149919499Y-49244046D01*
X149919500Y-49244059D01*
X149919500Y-49464281D01*
X149899815Y-49531320D01*
X149851795Y-49574765D01*
X149812185Y-49594947D01*
X149812184Y-49594948D01*
X149640213Y-49719890D01*
X149489890Y-49870213D01*
X149364949Y-50042182D01*
X149360484Y-50050946D01*
X149312509Y-50101742D01*
X149244688Y-50118536D01*
X149178553Y-50095998D01*
X149139516Y-50050946D01*
X149135050Y-50042182D01*
X149010109Y-49870213D01*
X148859786Y-49719890D01*
X148687820Y-49594951D01*
X148498414Y-49498444D01*
X148498413Y-49498443D01*
X148498412Y-49498443D01*
X148296243Y-49432754D01*
X148296241Y-49432753D01*
X148296240Y-49432753D01*
X148134957Y-49407208D01*
X148086287Y-49399500D01*
X147873713Y-49399500D01*
X147825042Y-49407208D01*
X147663760Y-49432753D01*
X147461585Y-49498444D01*
X147272179Y-49594951D01*
X147100213Y-49719890D01*
X146949890Y-49870213D01*
X146824949Y-50042182D01*
X146820484Y-50050946D01*
X146772509Y-50101742D01*
X146704688Y-50118536D01*
X146638553Y-50095998D01*
X146599516Y-50050946D01*
X146595050Y-50042182D01*
X146470109Y-49870213D01*
X146319786Y-49719890D01*
X146147820Y-49594951D01*
X145958414Y-49498444D01*
X145958413Y-49498443D01*
X145958412Y-49498443D01*
X145756243Y-49432754D01*
X145756241Y-49432753D01*
X145756240Y-49432753D01*
X145594957Y-49407208D01*
X145546287Y-49399500D01*
X145333713Y-49399500D01*
X145285042Y-49407208D01*
X145123760Y-49432753D01*
X144921585Y-49498444D01*
X144732179Y-49594951D01*
X144560213Y-49719890D01*
X144409890Y-49870213D01*
X144284949Y-50042182D01*
X144280484Y-50050946D01*
X144232509Y-50101742D01*
X144164688Y-50118536D01*
X144098553Y-50095998D01*
X144059516Y-50050946D01*
X144055050Y-50042182D01*
X143930109Y-49870213D01*
X143779786Y-49719890D01*
X143607820Y-49594951D01*
X143418414Y-49498444D01*
X143418413Y-49498443D01*
X143418412Y-49498443D01*
X143216243Y-49432754D01*
X143216241Y-49432753D01*
X143216240Y-49432753D01*
X143054957Y-49407208D01*
X143006287Y-49399500D01*
X142793713Y-49399500D01*
X142745042Y-49407208D01*
X142583760Y-49432753D01*
X142381585Y-49498444D01*
X142192179Y-49594951D01*
X142020213Y-49719890D01*
X141869890Y-49870213D01*
X141744951Y-50042179D01*
X141648444Y-50231585D01*
X141582753Y-50433760D01*
X141549500Y-50643713D01*
X141549500Y-50856286D01*
X141580595Y-51052616D01*
X141582754Y-51066243D01*
X141640029Y-51242517D01*
X141648444Y-51268414D01*
X141744951Y-51457820D01*
X141869890Y-51629786D01*
X142020213Y-51780109D01*
X142192179Y-51905048D01*
X142192181Y-51905049D01*
X142192184Y-51905051D01*
X142381588Y-52001557D01*
X142583757Y-52067246D01*
X142793713Y-52100500D01*
X142793714Y-52100500D01*
X143006286Y-52100500D01*
X143006287Y-52100500D01*
X143216243Y-52067246D01*
X143418412Y-52001557D01*
X143607816Y-51905051D01*
X143694138Y-51842335D01*
X143779786Y-51780109D01*
X143779788Y-51780106D01*
X143779792Y-51780104D01*
X143930104Y-51629792D01*
X143930106Y-51629788D01*
X143930109Y-51629786D01*
X144055048Y-51457820D01*
X144055047Y-51457820D01*
X144055051Y-51457816D01*
X144059514Y-51449054D01*
X144107488Y-51398259D01*
X144175308Y-51381463D01*
X144241444Y-51403999D01*
X144280486Y-51449056D01*
X144284951Y-51457820D01*
X144409890Y-51629786D01*
X144560213Y-51780109D01*
X144732179Y-51905048D01*
X144732181Y-51905049D01*
X144732184Y-51905051D01*
X144921588Y-52001557D01*
X145123757Y-52067246D01*
X145333713Y-52100500D01*
X145333714Y-52100500D01*
X145546286Y-52100500D01*
X145546287Y-52100500D01*
X145756243Y-52067246D01*
X145958412Y-52001557D01*
X146147816Y-51905051D01*
X146234138Y-51842335D01*
X146319786Y-51780109D01*
X146319788Y-51780106D01*
X146319792Y-51780104D01*
X146470104Y-51629792D01*
X146470106Y-51629788D01*
X146470109Y-51629786D01*
X146595048Y-51457820D01*
X146595047Y-51457820D01*
X146595051Y-51457816D01*
X146599514Y-51449054D01*
X146647488Y-51398259D01*
X146715308Y-51381463D01*
X146781444Y-51403999D01*
X146820486Y-51449056D01*
X146824951Y-51457820D01*
X146949890Y-51629786D01*
X147100213Y-51780109D01*
X147272179Y-51905048D01*
X147272181Y-51905049D01*
X147272184Y-51905051D01*
X147461588Y-52001557D01*
X147663757Y-52067246D01*
X147873713Y-52100500D01*
X147873714Y-52100500D01*
X148086286Y-52100500D01*
X148086287Y-52100500D01*
X148296243Y-52067246D01*
X148498412Y-52001557D01*
X148687816Y-51905051D01*
X148774138Y-51842335D01*
X148859786Y-51780109D01*
X148859788Y-51780106D01*
X148859792Y-51780104D01*
X149010104Y-51629792D01*
X149010106Y-51629788D01*
X149010109Y-51629786D01*
X149135048Y-51457820D01*
X149135047Y-51457820D01*
X149135051Y-51457816D01*
X149139514Y-51449054D01*
X149187488Y-51398259D01*
X149255308Y-51381463D01*
X149321444Y-51403999D01*
X149360486Y-51449056D01*
X149364951Y-51457820D01*
X149489890Y-51629786D01*
X149640213Y-51780109D01*
X149812179Y-51905048D01*
X149812181Y-51905049D01*
X149812184Y-51905051D01*
X150001588Y-52001557D01*
X150203757Y-52067246D01*
X150413713Y-52100500D01*
X150413714Y-52100500D01*
X150626286Y-52100500D01*
X150626287Y-52100500D01*
X150836243Y-52067246D01*
X151038412Y-52001557D01*
X151227816Y-51905051D01*
X151314138Y-51842335D01*
X151399786Y-51780109D01*
X151399788Y-51780106D01*
X151399792Y-51780104D01*
X151550104Y-51629792D01*
X151550106Y-51629788D01*
X151550109Y-51629786D01*
X151675048Y-51457820D01*
X151675047Y-51457820D01*
X151675051Y-51457816D01*
X151679514Y-51449054D01*
X151727488Y-51398259D01*
X151795308Y-51381463D01*
X151861444Y-51403999D01*
X151900486Y-51449056D01*
X151904951Y-51457820D01*
X152029890Y-51629786D01*
X152180213Y-51780109D01*
X152352179Y-51905048D01*
X152352181Y-51905049D01*
X152352184Y-51905051D01*
X152541588Y-52001557D01*
X152743757Y-52067246D01*
X152953713Y-52100500D01*
X152953714Y-52100500D01*
X153166286Y-52100500D01*
X153166287Y-52100500D01*
X153376243Y-52067246D01*
X153578412Y-52001557D01*
X153767816Y-51905051D01*
X153854138Y-51842335D01*
X153939786Y-51780109D01*
X153939788Y-51780106D01*
X153939792Y-51780104D01*
X154090104Y-51629792D01*
X154090106Y-51629788D01*
X154090109Y-51629786D01*
X154215048Y-51457820D01*
X154215047Y-51457820D01*
X154215051Y-51457816D01*
X154219514Y-51449054D01*
X154267488Y-51398259D01*
X154335308Y-51381463D01*
X154401444Y-51403999D01*
X154440486Y-51449056D01*
X154444951Y-51457820D01*
X154569890Y-51629786D01*
X154720213Y-51780109D01*
X154892179Y-51905048D01*
X154892181Y-51905049D01*
X154892184Y-51905051D01*
X155081588Y-52001557D01*
X155283757Y-52067246D01*
X155493713Y-52100500D01*
X155493714Y-52100500D01*
X155706286Y-52100500D01*
X155706287Y-52100500D01*
X155916243Y-52067246D01*
X156118412Y-52001557D01*
X156307816Y-51905051D01*
X156394138Y-51842335D01*
X156479786Y-51780109D01*
X156479788Y-51780106D01*
X156479792Y-51780104D01*
X156630104Y-51629792D01*
X156630106Y-51629788D01*
X156630109Y-51629786D01*
X156755048Y-51457820D01*
X156755047Y-51457820D01*
X156755051Y-51457816D01*
X156759514Y-51449054D01*
X156807488Y-51398259D01*
X156875308Y-51381463D01*
X156941444Y-51403999D01*
X156980486Y-51449056D01*
X156984951Y-51457820D01*
X157109890Y-51629786D01*
X157260213Y-51780109D01*
X157432179Y-51905048D01*
X157432181Y-51905049D01*
X157432184Y-51905051D01*
X157621588Y-52001557D01*
X157823757Y-52067246D01*
X158033713Y-52100500D01*
X158033714Y-52100500D01*
X158246286Y-52100500D01*
X158246287Y-52100500D01*
X158456243Y-52067246D01*
X158658412Y-52001557D01*
X158847816Y-51905051D01*
X158934138Y-51842335D01*
X159019786Y-51780109D01*
X159019788Y-51780106D01*
X159019792Y-51780104D01*
X159170104Y-51629792D01*
X159170106Y-51629788D01*
X159170109Y-51629786D01*
X159295048Y-51457820D01*
X159295047Y-51457820D01*
X159295051Y-51457816D01*
X159299514Y-51449054D01*
X159347488Y-51398259D01*
X159415308Y-51381463D01*
X159481444Y-51403999D01*
X159520486Y-51449056D01*
X159524951Y-51457820D01*
X159649890Y-51629786D01*
X159797753Y-51777649D01*
X159831238Y-51838972D01*
X159826254Y-51908664D01*
X159797753Y-51953011D01*
X158269481Y-53481282D01*
X158269479Y-53481284D01*
X158254319Y-53507544D01*
X158240207Y-53531987D01*
X158209296Y-53585526D01*
X158191976Y-53615526D01*
X158190423Y-53618215D01*
X158149499Y-53770943D01*
X158149499Y-53770945D01*
X158149499Y-53939046D01*
X158149500Y-53939059D01*
X158149500Y-62749902D01*
X158129815Y-62816941D01*
X158113181Y-62837583D01*
X129989481Y-90961282D01*
X129989479Y-90961285D01*
X129939361Y-91048094D01*
X129939359Y-91048096D01*
X129910425Y-91098209D01*
X129910424Y-91098210D01*
X129869498Y-91250945D01*
X129868438Y-91259003D01*
X129865297Y-91258589D01*
X129849814Y-91311320D01*
X129801796Y-91354765D01*
X129762180Y-91374950D01*
X129590213Y-91499890D01*
X129439890Y-91650213D01*
X129314949Y-91822182D01*
X129310484Y-91830946D01*
X129262509Y-91881742D01*
X129194688Y-91898536D01*
X129128553Y-91875998D01*
X129089516Y-91830946D01*
X129085050Y-91822182D01*
X128960109Y-91650213D01*
X128809786Y-91499890D01*
X128637820Y-91374951D01*
X128448414Y-91278444D01*
X128448413Y-91278443D01*
X128448412Y-91278443D01*
X128246243Y-91212754D01*
X128246241Y-91212753D01*
X128246240Y-91212753D01*
X128084957Y-91187208D01*
X128036287Y-91179500D01*
X127823713Y-91179500D01*
X127775042Y-91187208D01*
X127613760Y-91212753D01*
X127411585Y-91278444D01*
X127222175Y-91374953D01*
X127218028Y-91377495D01*
X127217045Y-91375892D01*
X127158762Y-91396659D01*
X127090715Y-91380804D01*
X127042042Y-91330677D01*
X127028196Y-91262193D01*
X127053574Y-91197095D01*
X127064047Y-91185186D01*
X128585213Y-89664021D01*
X128610886Y-89644321D01*
X128651904Y-89620639D01*
X128738716Y-89570520D01*
X128850520Y-89458716D01*
X128850520Y-89458714D01*
X128860728Y-89448507D01*
X128860729Y-89448504D01*
X130522416Y-87786819D01*
X130583739Y-87753334D01*
X130610097Y-87750500D01*
X131590234Y-87750500D01*
X131657273Y-87770185D01*
X131659125Y-87771398D01*
X131790814Y-87859390D01*
X131790827Y-87859397D01*
X131918321Y-87912206D01*
X131936503Y-87919737D01*
X132091153Y-87950499D01*
X132091156Y-87950500D01*
X132091158Y-87950500D01*
X132248844Y-87950500D01*
X132248845Y-87950499D01*
X132403497Y-87919737D01*
X132549179Y-87859394D01*
X132680289Y-87771789D01*
X132791789Y-87660289D01*
X132879394Y-87529179D01*
X132939737Y-87383497D01*
X132970500Y-87228842D01*
X132970500Y-87071158D01*
X132970500Y-87071155D01*
X132970499Y-87071153D01*
X132939738Y-86916510D01*
X132939737Y-86916503D01*
X132915795Y-86858701D01*
X132879397Y-86770827D01*
X132879390Y-86770814D01*
X132791789Y-86639711D01*
X132791786Y-86639707D01*
X132680292Y-86528213D01*
X132680288Y-86528210D01*
X132549185Y-86440609D01*
X132549172Y-86440602D01*
X132403501Y-86380264D01*
X132403489Y-86380261D01*
X132248845Y-86349500D01*
X132248842Y-86349500D01*
X132091158Y-86349500D01*
X132091155Y-86349500D01*
X131936510Y-86380261D01*
X131936498Y-86380264D01*
X131790827Y-86440602D01*
X131790814Y-86440609D01*
X131659125Y-86528602D01*
X131592447Y-86549480D01*
X131590234Y-86549500D01*
X130389057Y-86549500D01*
X130230942Y-86549500D01*
X130078215Y-86590423D01*
X130078214Y-86590423D01*
X130078212Y-86590424D01*
X130078209Y-86590425D01*
X130028096Y-86619359D01*
X130028095Y-86619360D01*
X129992853Y-86639707D01*
X129941285Y-86669479D01*
X129941282Y-86669481D01*
X129829478Y-86781286D01*
X128094789Y-88515974D01*
X128069108Y-88535680D01*
X127941287Y-88609477D01*
X127941282Y-88609481D01*
X125407582Y-91143181D01*
X125346259Y-91176666D01*
X125319901Y-91179500D01*
X124492129Y-91179500D01*
X124492123Y-91179501D01*
X124432516Y-91185908D01*
X124297671Y-91236202D01*
X124297664Y-91236206D01*
X124182455Y-91322452D01*
X124182452Y-91322455D01*
X124096206Y-91437664D01*
X124096202Y-91437671D01*
X124045908Y-91572517D01*
X124039501Y-91632116D01*
X124039500Y-91632135D01*
X99925613Y-91632135D01*
X99907246Y-91516171D01*
X99841557Y-91314002D01*
X99745051Y-91124598D01*
X99745049Y-91124595D01*
X99745048Y-91124593D01*
X99620109Y-90952627D01*
X99469786Y-90802304D01*
X99297817Y-90677363D01*
X99288504Y-90672618D01*
X99237707Y-90624644D01*
X99220912Y-90556823D01*
X99243449Y-90490688D01*
X99288507Y-90451646D01*
X99297555Y-90447036D01*
X99351716Y-90407684D01*
X99351717Y-90407684D01*
X98719408Y-89775376D01*
X98782993Y-89758339D01*
X98897007Y-89692513D01*
X98990099Y-89599421D01*
X99055925Y-89485407D01*
X99072962Y-89421822D01*
X99705270Y-90054131D01*
X99705270Y-90054130D01*
X99744622Y-89999968D01*
X99841095Y-89810631D01*
X99906757Y-89608544D01*
X99906757Y-89608541D01*
X99940000Y-89398660D01*
X99940000Y-89186167D01*
X99906757Y-88976286D01*
X99906757Y-88976283D01*
X99841095Y-88774196D01*
X99744624Y-88584863D01*
X99705270Y-88530696D01*
X99705269Y-88530696D01*
X99072962Y-89163004D01*
X99055925Y-89099421D01*
X98990099Y-88985407D01*
X98897007Y-88892315D01*
X98782993Y-88826489D01*
X98719409Y-88809451D01*
X99351716Y-88177142D01*
X99297547Y-88137787D01*
X99297547Y-88137786D01*
X99288500Y-88133177D01*
X99237706Y-88085202D01*
X99220912Y-88017380D01*
X99243451Y-87951246D01*
X99288508Y-87912207D01*
X99297816Y-87907465D01*
X99377007Y-87849929D01*
X99469786Y-87782523D01*
X99469788Y-87782520D01*
X99469792Y-87782518D01*
X99620104Y-87632206D01*
X99620106Y-87632202D01*
X99620109Y-87632200D01*
X99745048Y-87460234D01*
X99745047Y-87460234D01*
X99745051Y-87460230D01*
X99841557Y-87270826D01*
X99907246Y-87068657D01*
X99940500Y-86858701D01*
X99940500Y-86646127D01*
X99907246Y-86436171D01*
X99841557Y-86234002D01*
X99745051Y-86044598D01*
X99745049Y-86044595D01*
X99745048Y-86044593D01*
X99620109Y-85872627D01*
X99469786Y-85722304D01*
X99297820Y-85597365D01*
X99297115Y-85597005D01*
X99289054Y-85592899D01*
X99238259Y-85544926D01*
X99221463Y-85477106D01*
X99243999Y-85410970D01*
X99289054Y-85371929D01*
X99297816Y-85367465D01*
X99384138Y-85304749D01*
X99469786Y-85242523D01*
X99469788Y-85242520D01*
X99469792Y-85242518D01*
X99620104Y-85092206D01*
X99620106Y-85092202D01*
X99620109Y-85092200D01*
X99745048Y-84920234D01*
X99745047Y-84920234D01*
X99745051Y-84920230D01*
X99841557Y-84730826D01*
X99907246Y-84528657D01*
X99940500Y-84318701D01*
X99940500Y-84106127D01*
X99907246Y-83896171D01*
X99841557Y-83694002D01*
X99745051Y-83504598D01*
X99745049Y-83504595D01*
X99745048Y-83504593D01*
X99620109Y-83332627D01*
X99469786Y-83182304D01*
X99297820Y-83057365D01*
X99108414Y-82960858D01*
X99108413Y-82960857D01*
X99108412Y-82960857D01*
X98906243Y-82895168D01*
X98906241Y-82895167D01*
X98906240Y-82895167D01*
X98744957Y-82869622D01*
X98696287Y-82861914D01*
X98483713Y-82861914D01*
X98435042Y-82869622D01*
X98273760Y-82895167D01*
X98071585Y-82960858D01*
X97882179Y-83057365D01*
X97710215Y-83182303D01*
X97596673Y-83295845D01*
X97535350Y-83329329D01*
X97465658Y-83324345D01*
X97409725Y-83282473D01*
X97392810Y-83251496D01*
X97343797Y-83120085D01*
X97343793Y-83120078D01*
X97257547Y-83004869D01*
X97257544Y-83004866D01*
X97142335Y-82918620D01*
X97142328Y-82918616D01*
X97007482Y-82868322D01*
X97007483Y-82868322D01*
X96947883Y-82861915D01*
X96947881Y-82861914D01*
X96947873Y-82861914D01*
X96947864Y-82861914D01*
X95152129Y-82861914D01*
X95152123Y-82861915D01*
X95092516Y-82868322D01*
X94957671Y-82918616D01*
X94957664Y-82918620D01*
X94842455Y-83004866D01*
X94842452Y-83004869D01*
X94756206Y-83120078D01*
X94756202Y-83120085D01*
X94705908Y-83254931D01*
X94699501Y-83314530D01*
X94699500Y-83314549D01*
X92500500Y-83314549D01*
X92500500Y-78002135D01*
X117029500Y-78002135D01*
X117029500Y-79797870D01*
X117029501Y-79797876D01*
X117035908Y-79857483D01*
X117086202Y-79992328D01*
X117086206Y-79992335D01*
X117172452Y-80107544D01*
X117172455Y-80107547D01*
X117287664Y-80193793D01*
X117287671Y-80193797D01*
X117422517Y-80244091D01*
X117422516Y-80244091D01*
X117429444Y-80244835D01*
X117482127Y-80250500D01*
X119277872Y-80250499D01*
X119337483Y-80244091D01*
X119472331Y-80193796D01*
X119587546Y-80107546D01*
X119673796Y-79992331D01*
X119722810Y-79860916D01*
X119764681Y-79804984D01*
X119830145Y-79780566D01*
X119898418Y-79795417D01*
X119926673Y-79816569D01*
X120040213Y-79930109D01*
X120212179Y-80055048D01*
X120212181Y-80055049D01*
X120212184Y-80055051D01*
X120401588Y-80151557D01*
X120603757Y-80217246D01*
X120813713Y-80250500D01*
X120813714Y-80250500D01*
X121026286Y-80250500D01*
X121026287Y-80250500D01*
X121236243Y-80217246D01*
X121438412Y-80151557D01*
X121627816Y-80055051D01*
X121714138Y-79992335D01*
X121799786Y-79930109D01*
X121799788Y-79930106D01*
X121799792Y-79930104D01*
X121950104Y-79779792D01*
X121950106Y-79779788D01*
X121950109Y-79779786D01*
X122075048Y-79607820D01*
X122075047Y-79607820D01*
X122075051Y-79607816D01*
X122079514Y-79599054D01*
X122127488Y-79548259D01*
X122195308Y-79531463D01*
X122261444Y-79553999D01*
X122300486Y-79599056D01*
X122304951Y-79607820D01*
X122429890Y-79779786D01*
X122580213Y-79930109D01*
X122752179Y-80055048D01*
X122752181Y-80055049D01*
X122752184Y-80055051D01*
X122941588Y-80151557D01*
X123143757Y-80217246D01*
X123353713Y-80250500D01*
X123353714Y-80250500D01*
X123566286Y-80250500D01*
X123566287Y-80250500D01*
X123776243Y-80217246D01*
X123978412Y-80151557D01*
X124167816Y-80055051D01*
X124254138Y-79992335D01*
X124339786Y-79930109D01*
X124339788Y-79930106D01*
X124339792Y-79930104D01*
X124490104Y-79779792D01*
X124490106Y-79779788D01*
X124490109Y-79779786D01*
X124615048Y-79607820D01*
X124615047Y-79607820D01*
X124615051Y-79607816D01*
X124711557Y-79418412D01*
X124777246Y-79216243D01*
X124810500Y-79006287D01*
X124810500Y-78793713D01*
X124777246Y-78583757D01*
X124711557Y-78381588D01*
X124615051Y-78192184D01*
X124615049Y-78192181D01*
X124615048Y-78192179D01*
X124490109Y-78020213D01*
X124339786Y-77869890D01*
X124167820Y-77744951D01*
X123978414Y-77648444D01*
X123978413Y-77648443D01*
X123978412Y-77648443D01*
X123776243Y-77582754D01*
X123776241Y-77582753D01*
X123776240Y-77582753D01*
X123614957Y-77557208D01*
X123566287Y-77549500D01*
X123353713Y-77549500D01*
X123305042Y-77557208D01*
X123143760Y-77582753D01*
X122941585Y-77648444D01*
X122752179Y-77744951D01*
X122580213Y-77869890D01*
X122429890Y-78020213D01*
X122304949Y-78192182D01*
X122300484Y-78200946D01*
X122252509Y-78251742D01*
X122184688Y-78268536D01*
X122118553Y-78245998D01*
X122079516Y-78200946D01*
X122075050Y-78192182D01*
X121950109Y-78020213D01*
X121799786Y-77869890D01*
X121627820Y-77744951D01*
X121438414Y-77648444D01*
X121438413Y-77648443D01*
X121438412Y-77648443D01*
X121236243Y-77582754D01*
X121236241Y-77582753D01*
X121236240Y-77582753D01*
X121074957Y-77557208D01*
X121026287Y-77549500D01*
X120813713Y-77549500D01*
X120765042Y-77557208D01*
X120603760Y-77582753D01*
X120401585Y-77648444D01*
X120212179Y-77744951D01*
X120040215Y-77869889D01*
X119926673Y-77983431D01*
X119865350Y-78016915D01*
X119795658Y-78011931D01*
X119739725Y-77970059D01*
X119722810Y-77939082D01*
X119673797Y-77807671D01*
X119673793Y-77807664D01*
X119587547Y-77692455D01*
X119587544Y-77692452D01*
X119472335Y-77606206D01*
X119472328Y-77606202D01*
X119337482Y-77555908D01*
X119337483Y-77555908D01*
X119277883Y-77549501D01*
X119277881Y-77549500D01*
X119277873Y-77549500D01*
X119277864Y-77549500D01*
X117482129Y-77549500D01*
X117482123Y-77549501D01*
X117422516Y-77555908D01*
X117287671Y-77606202D01*
X117287664Y-77606206D01*
X117172455Y-77692452D01*
X117172452Y-77692455D01*
X117086206Y-77807664D01*
X117086202Y-77807671D01*
X117035908Y-77942517D01*
X117029501Y-78002116D01*
X117029500Y-78002135D01*
X92500500Y-78002135D01*
X92500500Y-70612135D01*
X132139500Y-70612135D01*
X132139500Y-72707870D01*
X132139501Y-72707876D01*
X132145908Y-72767483D01*
X132196202Y-72902328D01*
X132196206Y-72902335D01*
X132282452Y-73017544D01*
X132282455Y-73017547D01*
X132397664Y-73103793D01*
X132397671Y-73103797D01*
X132532517Y-73154091D01*
X132532516Y-73154091D01*
X132539444Y-73154835D01*
X132592127Y-73160500D01*
X134687872Y-73160499D01*
X134747483Y-73154091D01*
X134882331Y-73103796D01*
X134997546Y-73017546D01*
X135083796Y-72902331D01*
X135134091Y-72767483D01*
X135140500Y-72707873D01*
X135140499Y-71541902D01*
X139739500Y-71541902D01*
X139739500Y-71778097D01*
X139776446Y-72011368D01*
X139849433Y-72235996D01*
X139956657Y-72446433D01*
X140095483Y-72637510D01*
X140262490Y-72804517D01*
X140453567Y-72943343D01*
X140552991Y-72994002D01*
X140664003Y-73050566D01*
X140664005Y-73050566D01*
X140664008Y-73050568D01*
X140784412Y-73089689D01*
X140888631Y-73123553D01*
X141121903Y-73160500D01*
X141121908Y-73160500D01*
X141358097Y-73160500D01*
X141591368Y-73123553D01*
X141815992Y-73050568D01*
X142026433Y-72943343D01*
X142217510Y-72804517D01*
X142384517Y-72637510D01*
X142523343Y-72446433D01*
X142630568Y-72235992D01*
X142703553Y-72011368D01*
X142740500Y-71778097D01*
X142740500Y-71541902D01*
X142703553Y-71308631D01*
X142630566Y-71084003D01*
X142523342Y-70873566D01*
X142384517Y-70682490D01*
X142217510Y-70515483D01*
X142026433Y-70376657D01*
X141815996Y-70269433D01*
X141591368Y-70196446D01*
X141358097Y-70159500D01*
X141358092Y-70159500D01*
X141121908Y-70159500D01*
X141121903Y-70159500D01*
X140888631Y-70196446D01*
X140664003Y-70269433D01*
X140453566Y-70376657D01*
X140397119Y-70417669D01*
X140262490Y-70515483D01*
X140262488Y-70515485D01*
X140262487Y-70515485D01*
X140095485Y-70682487D01*
X140095485Y-70682488D01*
X140095483Y-70682490D01*
X140035862Y-70764550D01*
X139956657Y-70873566D01*
X139849433Y-71084003D01*
X139776446Y-71308631D01*
X139739500Y-71541902D01*
X135140499Y-71541902D01*
X135140499Y-70612128D01*
X135134091Y-70552517D01*
X135120278Y-70515483D01*
X135083797Y-70417671D01*
X135083793Y-70417664D01*
X134997547Y-70302455D01*
X134997544Y-70302452D01*
X134882335Y-70216206D01*
X134882328Y-70216202D01*
X134747482Y-70165908D01*
X134747483Y-70165908D01*
X134687883Y-70159501D01*
X134687881Y-70159500D01*
X134687873Y-70159500D01*
X134687864Y-70159500D01*
X132592129Y-70159500D01*
X132592123Y-70159501D01*
X132532516Y-70165908D01*
X132397671Y-70216202D01*
X132397664Y-70216206D01*
X132282455Y-70302452D01*
X132282452Y-70302455D01*
X132196206Y-70417664D01*
X132196202Y-70417671D01*
X132145908Y-70552517D01*
X132139501Y-70612116D01*
X132139501Y-70612123D01*
X132139500Y-70612135D01*
X92500500Y-70612135D01*
X92500500Y-62393713D01*
X154149500Y-62393713D01*
X154149500Y-62606286D01*
X154180470Y-62801827D01*
X154182754Y-62816243D01*
X154241867Y-62998174D01*
X154248444Y-63018414D01*
X154344951Y-63207820D01*
X154469890Y-63379786D01*
X154620213Y-63530109D01*
X154792179Y-63655048D01*
X154792181Y-63655049D01*
X154792184Y-63655051D01*
X154981588Y-63751557D01*
X155183757Y-63817246D01*
X155393713Y-63850500D01*
X155393714Y-63850500D01*
X155606286Y-63850500D01*
X155606287Y-63850500D01*
X155816243Y-63817246D01*
X156018412Y-63751557D01*
X156207816Y-63655051D01*
X156291476Y-63594269D01*
X156379786Y-63530109D01*
X156379788Y-63530106D01*
X156379792Y-63530104D01*
X156530104Y-63379792D01*
X156530106Y-63379788D01*
X156530109Y-63379786D01*
X156655048Y-63207820D01*
X156655047Y-63207820D01*
X156655051Y-63207816D01*
X156751557Y-63018412D01*
X156817246Y-62816243D01*
X156850500Y-62606287D01*
X156850500Y-62393713D01*
X156817246Y-62183757D01*
X156751557Y-61981588D01*
X156655051Y-61792184D01*
X156655049Y-61792181D01*
X156655048Y-61792179D01*
X156530109Y-61620213D01*
X156379786Y-61469890D01*
X156207820Y-61344951D01*
X156018414Y-61248444D01*
X156018413Y-61248443D01*
X156018412Y-61248443D01*
X155816243Y-61182754D01*
X155816241Y-61182753D01*
X155816240Y-61182753D01*
X155654957Y-61157208D01*
X155606287Y-61149500D01*
X155393713Y-61149500D01*
X155345042Y-61157208D01*
X155183760Y-61182753D01*
X154981585Y-61248444D01*
X154792179Y-61344951D01*
X154620213Y-61469890D01*
X154469890Y-61620213D01*
X154344951Y-61792179D01*
X154248444Y-61981585D01*
X154182753Y-62183760D01*
X154149500Y-62393713D01*
X92500500Y-62393713D01*
X92500500Y-54227648D01*
X106869500Y-54227648D01*
X106869500Y-54432351D01*
X106901522Y-54634534D01*
X106964781Y-54829223D01*
X107057715Y-55011613D01*
X107178028Y-55177213D01*
X107322786Y-55321971D01*
X107477749Y-55434556D01*
X107488390Y-55442287D01*
X107564926Y-55481284D01*
X107670776Y-55535218D01*
X107670778Y-55535218D01*
X107670781Y-55535220D01*
X107771957Y-55568094D01*
X107865465Y-55598477D01*
X107966557Y-55614488D01*
X108067648Y-55630500D01*
X108067649Y-55630500D01*
X108272351Y-55630500D01*
X108272352Y-55630500D01*
X108474534Y-55598477D01*
X108669219Y-55535220D01*
X108851610Y-55442287D01*
X108951824Y-55369478D01*
X109017213Y-55321971D01*
X109017215Y-55321968D01*
X109017219Y-55321966D01*
X109161966Y-55177219D01*
X109161968Y-55177215D01*
X109161971Y-55177213D01*
X109214732Y-55104590D01*
X109282287Y-55011610D01*
X109375220Y-54829219D01*
X109438477Y-54634534D01*
X109470500Y-54432352D01*
X109470500Y-54227648D01*
X114489500Y-54227648D01*
X114489500Y-54432351D01*
X114521522Y-54634534D01*
X114584781Y-54829223D01*
X114677715Y-55011613D01*
X114798028Y-55177213D01*
X114942786Y-55321971D01*
X115097749Y-55434556D01*
X115108390Y-55442287D01*
X115184926Y-55481284D01*
X115290776Y-55535218D01*
X115290778Y-55535218D01*
X115290781Y-55535220D01*
X115391957Y-55568094D01*
X115485465Y-55598477D01*
X115586557Y-55614488D01*
X115687648Y-55630500D01*
X115687649Y-55630500D01*
X115892351Y-55630500D01*
X115892352Y-55630500D01*
X116094534Y-55598477D01*
X116289219Y-55535220D01*
X116471610Y-55442287D01*
X116571824Y-55369478D01*
X116637213Y-55321971D01*
X116637215Y-55321968D01*
X116637219Y-55321966D01*
X116781966Y-55177219D01*
X116781968Y-55177215D01*
X116781971Y-55177213D01*
X116834732Y-55104590D01*
X116902287Y-55011610D01*
X116995220Y-54829219D01*
X117058477Y-54634534D01*
X117090500Y-54432352D01*
X117090500Y-54227648D01*
X117058477Y-54025466D01*
X117057788Y-54023347D01*
X117010218Y-53876941D01*
X116995220Y-53830781D01*
X116995218Y-53830778D01*
X116995218Y-53830776D01*
X116961503Y-53764607D01*
X116902287Y-53648390D01*
X116882023Y-53620499D01*
X116781971Y-53482786D01*
X116637213Y-53338028D01*
X116471613Y-53217715D01*
X116471612Y-53217714D01*
X116471610Y-53217713D01*
X116414653Y-53188691D01*
X116289223Y-53124781D01*
X116094534Y-53061522D01*
X115919995Y-53033878D01*
X115892352Y-53029500D01*
X115687648Y-53029500D01*
X115663329Y-53033351D01*
X115485465Y-53061522D01*
X115290776Y-53124781D01*
X115108386Y-53217715D01*
X114942786Y-53338028D01*
X114798028Y-53482786D01*
X114677715Y-53648386D01*
X114584781Y-53830776D01*
X114521522Y-54025465D01*
X114489500Y-54227648D01*
X109470500Y-54227648D01*
X109438477Y-54025466D01*
X109437788Y-54023347D01*
X109390218Y-53876941D01*
X109375220Y-53830781D01*
X109375218Y-53830778D01*
X109375218Y-53830776D01*
X109341503Y-53764607D01*
X109282287Y-53648390D01*
X109262023Y-53620499D01*
X109161971Y-53482786D01*
X109017213Y-53338028D01*
X108851613Y-53217715D01*
X108851612Y-53217714D01*
X108851610Y-53217713D01*
X108794653Y-53188691D01*
X108669223Y-53124781D01*
X108474534Y-53061522D01*
X108299995Y-53033878D01*
X108272352Y-53029500D01*
X108067648Y-53029500D01*
X108043329Y-53033351D01*
X107865465Y-53061522D01*
X107670776Y-53124781D01*
X107488386Y-53217715D01*
X107322786Y-53338028D01*
X107178028Y-53482786D01*
X107057715Y-53648386D01*
X106964781Y-53830776D01*
X106901522Y-54025465D01*
X106869500Y-54227648D01*
X92500500Y-54227648D01*
X92500500Y-52109818D01*
X92900000Y-52109818D01*
X92900000Y-52330181D01*
X92934473Y-52547835D01*
X93002567Y-52757410D01*
X93102611Y-52953756D01*
X93148932Y-53017513D01*
X93857861Y-52308584D01*
X93880667Y-52393694D01*
X93939910Y-52496306D01*
X94023694Y-52580090D01*
X94126306Y-52639333D01*
X94211414Y-52662137D01*
X93502485Y-53371065D01*
X93502485Y-53371066D01*
X93566243Y-53417388D01*
X93762589Y-53517432D01*
X93972164Y-53585526D01*
X94189819Y-53620000D01*
X94410181Y-53620000D01*
X94627835Y-53585526D01*
X94837410Y-53517432D01*
X95033760Y-53417386D01*
X95097513Y-53371066D01*
X95097514Y-53371066D01*
X94388585Y-52662138D01*
X94473694Y-52639333D01*
X94576306Y-52580090D01*
X94660090Y-52496306D01*
X94719333Y-52393694D01*
X94742138Y-52308585D01*
X95403181Y-52969628D01*
X95436666Y-53030951D01*
X95439500Y-53057308D01*
X95439500Y-53167869D01*
X95439501Y-53167876D01*
X95445908Y-53227483D01*
X95496202Y-53362328D01*
X95496206Y-53362335D01*
X95582452Y-53477544D01*
X95582455Y-53477547D01*
X95697664Y-53563793D01*
X95697671Y-53563797D01*
X95832517Y-53614091D01*
X95832516Y-53614091D01*
X95839444Y-53614835D01*
X95892127Y-53620500D01*
X97787872Y-53620499D01*
X97847483Y-53614091D01*
X97982331Y-53563796D01*
X98097546Y-53477546D01*
X98183796Y-53362331D01*
X98192858Y-53338034D01*
X98203138Y-53310474D01*
X98234091Y-53227482D01*
X98237274Y-53197876D01*
X98240500Y-53167873D01*
X98240499Y-52139818D01*
X100300000Y-52139818D01*
X100300000Y-52360181D01*
X100334473Y-52577835D01*
X100402567Y-52787410D01*
X100502611Y-52983756D01*
X100548932Y-53047513D01*
X101257861Y-52338584D01*
X101280667Y-52423694D01*
X101339910Y-52526306D01*
X101423694Y-52610090D01*
X101526306Y-52669333D01*
X101611414Y-52692137D01*
X100902485Y-53401065D01*
X100902485Y-53401066D01*
X100966243Y-53447388D01*
X101162589Y-53547432D01*
X101372164Y-53615526D01*
X101589819Y-53650000D01*
X101810181Y-53650000D01*
X102027835Y-53615526D01*
X102237410Y-53547432D01*
X102433760Y-53447386D01*
X102497513Y-53401066D01*
X102497514Y-53401066D01*
X101788585Y-52692138D01*
X101873694Y-52669333D01*
X101976306Y-52610090D01*
X102060090Y-52526306D01*
X102119333Y-52423694D01*
X102142138Y-52338585D01*
X102803181Y-52999628D01*
X102836666Y-53060951D01*
X102839500Y-53087308D01*
X102839500Y-53197869D01*
X102839501Y-53197876D01*
X102845908Y-53257483D01*
X102896202Y-53392328D01*
X102896206Y-53392335D01*
X102982452Y-53507544D01*
X102982455Y-53507547D01*
X103097664Y-53593793D01*
X103097671Y-53593797D01*
X103232517Y-53644091D01*
X103232516Y-53644091D01*
X103239444Y-53644835D01*
X103292127Y-53650500D01*
X105187872Y-53650499D01*
X105247483Y-53644091D01*
X105382331Y-53593796D01*
X105497546Y-53507546D01*
X105583796Y-53392331D01*
X105634091Y-53257483D01*
X105640500Y-53197873D01*
X105640499Y-51302128D01*
X105634091Y-51242517D01*
X105622578Y-51211650D01*
X105583798Y-51107674D01*
X105583797Y-51107672D01*
X105583796Y-51107669D01*
X105583794Y-51107666D01*
X105583793Y-51107664D01*
X105553837Y-51067648D01*
X106839500Y-51067648D01*
X106839500Y-51272351D01*
X106871522Y-51474534D01*
X106934781Y-51669223D01*
X106990028Y-51777649D01*
X107022987Y-51842335D01*
X107027715Y-51851613D01*
X107148028Y-52017213D01*
X107292786Y-52161971D01*
X107413949Y-52249999D01*
X107458390Y-52282287D01*
X107552387Y-52330181D01*
X107640776Y-52375218D01*
X107640778Y-52375218D01*
X107640781Y-52375220D01*
X107745047Y-52409098D01*
X107835465Y-52438477D01*
X107936557Y-52454488D01*
X108037648Y-52470500D01*
X108037649Y-52470500D01*
X108242351Y-52470500D01*
X108242352Y-52470500D01*
X108444534Y-52438477D01*
X108639219Y-52375220D01*
X108821610Y-52282287D01*
X108947593Y-52190756D01*
X108987213Y-52161971D01*
X108987215Y-52161968D01*
X108987219Y-52161966D01*
X109131966Y-52017219D01*
X109131968Y-52017215D01*
X109131971Y-52017213D01*
X109222823Y-51892164D01*
X109252287Y-51851610D01*
X109345220Y-51669219D01*
X109408477Y-51474534D01*
X109440500Y-51272352D01*
X109440500Y-51067648D01*
X114459500Y-51067648D01*
X114459500Y-51272351D01*
X114491522Y-51474534D01*
X114554781Y-51669223D01*
X114610028Y-51777649D01*
X114642987Y-51842335D01*
X114647715Y-51851613D01*
X114768028Y-52017213D01*
X114912786Y-52161971D01*
X115033949Y-52249999D01*
X115078390Y-52282287D01*
X115172387Y-52330181D01*
X115260776Y-52375218D01*
X115260778Y-52375218D01*
X115260781Y-52375220D01*
X115365047Y-52409098D01*
X115455465Y-52438477D01*
X115556557Y-52454488D01*
X115657648Y-52470500D01*
X115657649Y-52470500D01*
X115862351Y-52470500D01*
X115862352Y-52470500D01*
X116064534Y-52438477D01*
X116094591Y-52428711D01*
X123721914Y-52428711D01*
X123721914Y-52671288D01*
X123753575Y-52911785D01*
X123816361Y-53146104D01*
X123905927Y-53362335D01*
X123909190Y-53370212D01*
X124030478Y-53580289D01*
X124030480Y-53580292D01*
X124030481Y-53580293D01*
X124178147Y-53772736D01*
X124178153Y-53772743D01*
X124349670Y-53944260D01*
X124349676Y-53944265D01*
X124542125Y-54091936D01*
X124752202Y-54213224D01*
X124976314Y-54306054D01*
X125210625Y-54368838D01*
X125391000Y-54392584D01*
X125451125Y-54400500D01*
X125451126Y-54400500D01*
X125693703Y-54400500D01*
X125741802Y-54394167D01*
X125934203Y-54368838D01*
X126168514Y-54306054D01*
X126392626Y-54213224D01*
X126602703Y-54091936D01*
X126795152Y-53944265D01*
X126966679Y-53772738D01*
X127114350Y-53580289D01*
X127235638Y-53370212D01*
X127328468Y-53146100D01*
X127391252Y-52911789D01*
X127422914Y-52671288D01*
X127422914Y-52428712D01*
X127422253Y-52423694D01*
X127407186Y-52309244D01*
X127391252Y-52188211D01*
X127328468Y-51953900D01*
X127235638Y-51729788D01*
X127114350Y-51519711D01*
X126966679Y-51327262D01*
X126966674Y-51327256D01*
X126795157Y-51155739D01*
X126795150Y-51155733D01*
X126602707Y-51008067D01*
X126602706Y-51008066D01*
X126602703Y-51008064D01*
X126392626Y-50886776D01*
X126367098Y-50876202D01*
X126168518Y-50793947D01*
X125934199Y-50731161D01*
X125693703Y-50699500D01*
X125693702Y-50699500D01*
X125451126Y-50699500D01*
X125451125Y-50699500D01*
X125210628Y-50731161D01*
X124976309Y-50793947D01*
X124752208Y-50886773D01*
X124752199Y-50886777D01*
X124542120Y-51008067D01*
X124349677Y-51155733D01*
X124349670Y-51155739D01*
X124178153Y-51327256D01*
X124178147Y-51327263D01*
X124030481Y-51519706D01*
X123909191Y-51729785D01*
X123909187Y-51729794D01*
X123816361Y-51953895D01*
X123753575Y-52188214D01*
X123721914Y-52428711D01*
X116094591Y-52428711D01*
X116259219Y-52375220D01*
X116441610Y-52282287D01*
X116567593Y-52190756D01*
X116607213Y-52161971D01*
X116607215Y-52161968D01*
X116607219Y-52161966D01*
X116751966Y-52017219D01*
X116751968Y-52017215D01*
X116751971Y-52017213D01*
X116842823Y-51892164D01*
X116872287Y-51851610D01*
X116965220Y-51669219D01*
X117028477Y-51474534D01*
X117060500Y-51272352D01*
X117060500Y-51067648D01*
X117034929Y-50906202D01*
X117028477Y-50865465D01*
X116984839Y-50731162D01*
X116965220Y-50670781D01*
X116965218Y-50670778D01*
X116965218Y-50670776D01*
X116931503Y-50604607D01*
X116872287Y-50488390D01*
X116864556Y-50477749D01*
X116751971Y-50322786D01*
X116607213Y-50178028D01*
X116441613Y-50057715D01*
X116441612Y-50057714D01*
X116441610Y-50057713D01*
X116384653Y-50028691D01*
X116259223Y-49964781D01*
X116064534Y-49901522D01*
X115889995Y-49873878D01*
X115862352Y-49869500D01*
X115657648Y-49869500D01*
X115633329Y-49873351D01*
X115455465Y-49901522D01*
X115260776Y-49964781D01*
X115078386Y-50057715D01*
X114912786Y-50178028D01*
X114768028Y-50322786D01*
X114647715Y-50488386D01*
X114554781Y-50670776D01*
X114491522Y-50865465D01*
X114459500Y-51067648D01*
X109440500Y-51067648D01*
X109414929Y-50906202D01*
X109408477Y-50865465D01*
X109364839Y-50731162D01*
X109345220Y-50670781D01*
X109345218Y-50670778D01*
X109345218Y-50670776D01*
X109311503Y-50604607D01*
X109252287Y-50488390D01*
X109244556Y-50477749D01*
X109131971Y-50322786D01*
X108987213Y-50178028D01*
X108821613Y-50057715D01*
X108821612Y-50057714D01*
X108821610Y-50057713D01*
X108764653Y-50028691D01*
X108639223Y-49964781D01*
X108444534Y-49901522D01*
X108269995Y-49873878D01*
X108242352Y-49869500D01*
X108037648Y-49869500D01*
X108013329Y-49873351D01*
X107835465Y-49901522D01*
X107640776Y-49964781D01*
X107458386Y-50057715D01*
X107292786Y-50178028D01*
X107148028Y-50322786D01*
X107027715Y-50488386D01*
X106934781Y-50670776D01*
X106871522Y-50865465D01*
X106839500Y-51067648D01*
X105553837Y-51067648D01*
X105497547Y-50992455D01*
X105497544Y-50992452D01*
X105382335Y-50906206D01*
X105382328Y-50906202D01*
X105247482Y-50855908D01*
X105247483Y-50855908D01*
X105187883Y-50849501D01*
X105187881Y-50849500D01*
X105187873Y-50849500D01*
X105187864Y-50849500D01*
X103292129Y-50849500D01*
X103292123Y-50849501D01*
X103232516Y-50855908D01*
X103097671Y-50906202D01*
X103097664Y-50906206D01*
X102982455Y-50992452D01*
X102982452Y-50992455D01*
X102896206Y-51107664D01*
X102896202Y-51107671D01*
X102845908Y-51242517D01*
X102842701Y-51272351D01*
X102839501Y-51302123D01*
X102839500Y-51302135D01*
X102839500Y-51412691D01*
X102819815Y-51479730D01*
X102803181Y-51500372D01*
X102142138Y-52161414D01*
X102119333Y-52076306D01*
X102060090Y-51973694D01*
X101976306Y-51889910D01*
X101873694Y-51830667D01*
X101788583Y-51807861D01*
X102497513Y-51098932D01*
X102433756Y-51052611D01*
X102237410Y-50952567D01*
X102027835Y-50884473D01*
X101810181Y-50850000D01*
X101589819Y-50850000D01*
X101372164Y-50884473D01*
X101162589Y-50952567D01*
X100966233Y-51052616D01*
X100902485Y-51098931D01*
X100902485Y-51098932D01*
X101611414Y-51807861D01*
X101526306Y-51830667D01*
X101423694Y-51889910D01*
X101339910Y-51973694D01*
X101280667Y-52076306D01*
X101257861Y-52161414D01*
X100548932Y-51452485D01*
X100548931Y-51452485D01*
X100502616Y-51516233D01*
X100402567Y-51712589D01*
X100334473Y-51922164D01*
X100300000Y-52139818D01*
X98240499Y-52139818D01*
X98240499Y-51272128D01*
X98234091Y-51212517D01*
X98194985Y-51107669D01*
X98183797Y-51077671D01*
X98183793Y-51077664D01*
X98097547Y-50962455D01*
X98097544Y-50962452D01*
X97982335Y-50876206D01*
X97982328Y-50876202D01*
X97847482Y-50825908D01*
X97847483Y-50825908D01*
X97787883Y-50819501D01*
X97787881Y-50819500D01*
X97787873Y-50819500D01*
X97787864Y-50819500D01*
X95892129Y-50819500D01*
X95892123Y-50819501D01*
X95832516Y-50825908D01*
X95697671Y-50876202D01*
X95697664Y-50876206D01*
X95582455Y-50962452D01*
X95582452Y-50962455D01*
X95496206Y-51077664D01*
X95496202Y-51077671D01*
X95445908Y-51212517D01*
X95439899Y-51268412D01*
X95439501Y-51272123D01*
X95439500Y-51272135D01*
X95439500Y-51382691D01*
X95419815Y-51449730D01*
X95403181Y-51470372D01*
X94742138Y-52131414D01*
X94719333Y-52046306D01*
X94660090Y-51943694D01*
X94576306Y-51859910D01*
X94473694Y-51800667D01*
X94388583Y-51777861D01*
X95097513Y-51068932D01*
X95033756Y-51022611D01*
X94837410Y-50922567D01*
X94627835Y-50854473D01*
X94410181Y-50820000D01*
X94189819Y-50820000D01*
X93972164Y-50854473D01*
X93762589Y-50922567D01*
X93566233Y-51022616D01*
X93502485Y-51068931D01*
X93502485Y-51068932D01*
X94211414Y-51777861D01*
X94126306Y-51800667D01*
X94023694Y-51859910D01*
X93939910Y-51943694D01*
X93880667Y-52046306D01*
X93857861Y-52131414D01*
X93148932Y-51422485D01*
X93148931Y-51422485D01*
X93102616Y-51486233D01*
X93002567Y-51682589D01*
X92934473Y-51892164D01*
X92900000Y-52109818D01*
X92500500Y-52109818D01*
X92500500Y-45624500D01*
X92520185Y-45557461D01*
X92572989Y-45511706D01*
X92624500Y-45500500D01*
X191375717Y-45500500D01*
X191442756Y-45520185D01*
G37*
%TD.AperFunction*%
%TD*%
M02*
