%TF.GenerationSoftware,KiCad,Pcbnew,10.0.0*%
%TF.CreationDate,2026-07-30T19:42:54+12:00*%
%TF.ProjectId,top-board,746f702d-626f-4617-9264-2e6b69636164,rev?*%
%TF.SameCoordinates,Original*%
%TF.FileFunction,Legend,Top*%
%TF.FilePolarity,Positive*%
%FSLAX46Y46*%
G04 Gerber Fmt 4.6, Leading zero omitted, Abs format (unit mm)*
G04 Created by KiCad (PCBNEW 10.0.0) date 2026-07-30 19:42:54*
%MOMM*%
%LPD*%
G01*
G04 APERTURE LIST*
%ADD10C,0.100000*%
%ADD11C,0.200000*%
%ADD12C,0.300000*%
%ADD13C,0.150000*%
%ADD14C,0.120000*%
G04 APERTURE END LIST*
D10*
X150200000Y-113050000D02*
X149274680Y-113066814D01*
X149684680Y-112131814D01*
X150200000Y-113050000D01*
G36*
X150200000Y-113050000D02*
G01*
X149274680Y-113066814D01*
X149684680Y-112131814D01*
X150200000Y-113050000D01*
G37*
D11*
X104410000Y-73200000D02*
X116300000Y-73200000D01*
X116300000Y-78960000D01*
X104410000Y-78960000D01*
X104410000Y-73200000D01*
X104430000Y-69710000D02*
X116260000Y-69710000D01*
X116260000Y-73170000D01*
X104430000Y-73170000D01*
X104430000Y-69710000D01*
X110490000Y-73990000D02*
X115820000Y-73990000D01*
X115820000Y-75840000D01*
X110490000Y-75840000D01*
X110490000Y-73990000D01*
X110510000Y-76650000D02*
X115840000Y-76650000D01*
X115840000Y-78500000D01*
X110510000Y-78500000D01*
X110510000Y-76650000D01*
X110770000Y-76920000D02*
X114000000Y-76920000D01*
X114000000Y-78230000D01*
X110770000Y-78230000D01*
X110770000Y-76920000D01*
X112020000Y-74970000D02*
G75*
G02*
X110740000Y-74970000I-640000J0D01*
G01*
X110740000Y-74970000D02*
G75*
G02*
X112020000Y-74970000I640000J0D01*
G01*
X112240000Y-77580000D02*
G75*
G02*
X110960000Y-77580000I-640000J0D01*
G01*
X110960000Y-77580000D02*
G75*
G02*
X112240000Y-77580000I640000J0D01*
G01*
X112330000Y-74260000D02*
X115560000Y-74260000D01*
X115560000Y-75570000D01*
X112330000Y-75570000D01*
X112330000Y-74260000D01*
X113800000Y-74930000D02*
G75*
G02*
X112520000Y-74930000I-640000J0D01*
G01*
X112520000Y-74930000D02*
G75*
G02*
X113800000Y-74930000I640000J0D01*
G01*
X113810000Y-77560000D02*
G75*
G02*
X112530000Y-77560000I-640000J0D01*
G01*
X112530000Y-77560000D02*
G75*
G02*
X113810000Y-77560000I640000J0D01*
G01*
X115370000Y-74910000D02*
G75*
G02*
X114090000Y-74910000I-640000J0D01*
G01*
X114090000Y-74910000D02*
G75*
G02*
X115370000Y-74910000I640000J0D01*
G01*
X115590000Y-77520000D02*
G75*
G02*
X114310000Y-77520000I-640000J0D01*
G01*
X114310000Y-77520000D02*
G75*
G02*
X115590000Y-77520000I640000J0D01*
G01*
X147510000Y-88200000D02*
X179990000Y-88200000D01*
X179990000Y-95110000D01*
X147510000Y-95110000D01*
X147510000Y-88200000D01*
X147510000Y-90660000D02*
X173750000Y-90660000D01*
X173750000Y-95110000D01*
X147510000Y-95110000D01*
X147510000Y-90660000D01*
X147550000Y-92700000D02*
X171020000Y-92700000D01*
X171020000Y-95110000D01*
X147550000Y-95110000D01*
X147550000Y-92700000D01*
X110783482Y-99224838D02*
X110688244Y-99177219D01*
X110688244Y-99177219D02*
X110545387Y-99177219D01*
X110545387Y-99177219D02*
X110402530Y-99224838D01*
X110402530Y-99224838D02*
X110307292Y-99320076D01*
X110307292Y-99320076D02*
X110259673Y-99415314D01*
X110259673Y-99415314D02*
X110212054Y-99605790D01*
X110212054Y-99605790D02*
X110212054Y-99748647D01*
X110212054Y-99748647D02*
X110259673Y-99939123D01*
X110259673Y-99939123D02*
X110307292Y-100034361D01*
X110307292Y-100034361D02*
X110402530Y-100129600D01*
X110402530Y-100129600D02*
X110545387Y-100177219D01*
X110545387Y-100177219D02*
X110640625Y-100177219D01*
X110640625Y-100177219D02*
X110783482Y-100129600D01*
X110783482Y-100129600D02*
X110831101Y-100081980D01*
X110831101Y-100081980D02*
X110831101Y-99748647D01*
X110831101Y-99748647D02*
X110640625Y-99748647D01*
X111259673Y-99510552D02*
X111259673Y-100177219D01*
X111259673Y-99605790D02*
X111307292Y-99558171D01*
X111307292Y-99558171D02*
X111402530Y-99510552D01*
X111402530Y-99510552D02*
X111545387Y-99510552D01*
X111545387Y-99510552D02*
X111640625Y-99558171D01*
X111640625Y-99558171D02*
X111688244Y-99653409D01*
X111688244Y-99653409D02*
X111688244Y-100177219D01*
X112593006Y-100177219D02*
X112593006Y-99177219D01*
X112593006Y-100129600D02*
X112497768Y-100177219D01*
X112497768Y-100177219D02*
X112307292Y-100177219D01*
X112307292Y-100177219D02*
X112212054Y-100129600D01*
X112212054Y-100129600D02*
X112164435Y-100081980D01*
X112164435Y-100081980D02*
X112116816Y-99986742D01*
X112116816Y-99986742D02*
X112116816Y-99701028D01*
X112116816Y-99701028D02*
X112164435Y-99605790D01*
X112164435Y-99605790D02*
X112212054Y-99558171D01*
X112212054Y-99558171D02*
X112307292Y-99510552D01*
X112307292Y-99510552D02*
X112497768Y-99510552D01*
X112497768Y-99510552D02*
X112593006Y-99558171D01*
X95989673Y-66807275D02*
X95989673Y-65807275D01*
X95989673Y-66188227D02*
X96084911Y-66140608D01*
X96084911Y-66140608D02*
X96275387Y-66140608D01*
X96275387Y-66140608D02*
X96370625Y-66188227D01*
X96370625Y-66188227D02*
X96418244Y-66235846D01*
X96418244Y-66235846D02*
X96465863Y-66331084D01*
X96465863Y-66331084D02*
X96465863Y-66616798D01*
X96465863Y-66616798D02*
X96418244Y-66712036D01*
X96418244Y-66712036D02*
X96370625Y-66759656D01*
X96370625Y-66759656D02*
X96275387Y-66807275D01*
X96275387Y-66807275D02*
X96084911Y-66807275D01*
X96084911Y-66807275D02*
X95989673Y-66759656D01*
X96799197Y-66140608D02*
X97037292Y-66807275D01*
X97275387Y-66140608D02*
X97037292Y-66807275D01*
X97037292Y-66807275D02*
X96942054Y-67045370D01*
X96942054Y-67045370D02*
X96894435Y-67092989D01*
X96894435Y-67092989D02*
X96799197Y-67140608D01*
X98608721Y-65807275D02*
X98799197Y-65807275D01*
X98799197Y-65807275D02*
X98894435Y-65854894D01*
X98894435Y-65854894D02*
X98989673Y-65950132D01*
X98989673Y-65950132D02*
X99037292Y-66140608D01*
X99037292Y-66140608D02*
X99037292Y-66473941D01*
X99037292Y-66473941D02*
X98989673Y-66664417D01*
X98989673Y-66664417D02*
X98894435Y-66759656D01*
X98894435Y-66759656D02*
X98799197Y-66807275D01*
X98799197Y-66807275D02*
X98608721Y-66807275D01*
X98608721Y-66807275D02*
X98513483Y-66759656D01*
X98513483Y-66759656D02*
X98418245Y-66664417D01*
X98418245Y-66664417D02*
X98370626Y-66473941D01*
X98370626Y-66473941D02*
X98370626Y-66140608D01*
X98370626Y-66140608D02*
X98418245Y-65950132D01*
X98418245Y-65950132D02*
X98513483Y-65854894D01*
X98513483Y-65854894D02*
X98608721Y-65807275D01*
X99323007Y-66140608D02*
X99703959Y-66140608D01*
X99465864Y-65807275D02*
X99465864Y-66664417D01*
X99465864Y-66664417D02*
X99513483Y-66759656D01*
X99513483Y-66759656D02*
X99608721Y-66807275D01*
X99608721Y-66807275D02*
X99703959Y-66807275D01*
X99894436Y-66140608D02*
X100275388Y-66140608D01*
X100037293Y-65807275D02*
X100037293Y-66664417D01*
X100037293Y-66664417D02*
X100084912Y-66759656D01*
X100084912Y-66759656D02*
X100180150Y-66807275D01*
X100180150Y-66807275D02*
X100275388Y-66807275D01*
X100989674Y-66759656D02*
X100894436Y-66807275D01*
X100894436Y-66807275D02*
X100703960Y-66807275D01*
X100703960Y-66807275D02*
X100608722Y-66759656D01*
X100608722Y-66759656D02*
X100561103Y-66664417D01*
X100561103Y-66664417D02*
X100561103Y-66283465D01*
X100561103Y-66283465D02*
X100608722Y-66188227D01*
X100608722Y-66188227D02*
X100703960Y-66140608D01*
X100703960Y-66140608D02*
X100894436Y-66140608D01*
X100894436Y-66140608D02*
X100989674Y-66188227D01*
X100989674Y-66188227D02*
X101037293Y-66283465D01*
X101037293Y-66283465D02*
X101037293Y-66378703D01*
X101037293Y-66378703D02*
X100561103Y-66473941D01*
X101465865Y-66807275D02*
X101465865Y-66140608D01*
X101465865Y-66331084D02*
X101513484Y-66235846D01*
X101513484Y-66235846D02*
X101561103Y-66188227D01*
X101561103Y-66188227D02*
X101656341Y-66140608D01*
X101656341Y-66140608D02*
X101751579Y-66140608D01*
X102846818Y-66807275D02*
X102846818Y-65807275D01*
X102846818Y-65807275D02*
X103084913Y-65807275D01*
X103084913Y-65807275D02*
X103227770Y-65854894D01*
X103227770Y-65854894D02*
X103323008Y-65950132D01*
X103323008Y-65950132D02*
X103370627Y-66045370D01*
X103370627Y-66045370D02*
X103418246Y-66235846D01*
X103418246Y-66235846D02*
X103418246Y-66378703D01*
X103418246Y-66378703D02*
X103370627Y-66569179D01*
X103370627Y-66569179D02*
X103323008Y-66664417D01*
X103323008Y-66664417D02*
X103227770Y-66759656D01*
X103227770Y-66759656D02*
X103084913Y-66807275D01*
X103084913Y-66807275D02*
X102846818Y-66807275D01*
X104227770Y-66759656D02*
X104132532Y-66807275D01*
X104132532Y-66807275D02*
X103942056Y-66807275D01*
X103942056Y-66807275D02*
X103846818Y-66759656D01*
X103846818Y-66759656D02*
X103799199Y-66664417D01*
X103799199Y-66664417D02*
X103799199Y-66283465D01*
X103799199Y-66283465D02*
X103846818Y-66188227D01*
X103846818Y-66188227D02*
X103942056Y-66140608D01*
X103942056Y-66140608D02*
X104132532Y-66140608D01*
X104132532Y-66140608D02*
X104227770Y-66188227D01*
X104227770Y-66188227D02*
X104275389Y-66283465D01*
X104275389Y-66283465D02*
X104275389Y-66378703D01*
X104275389Y-66378703D02*
X103799199Y-66473941D01*
X104656342Y-66759656D02*
X104751580Y-66807275D01*
X104751580Y-66807275D02*
X104942056Y-66807275D01*
X104942056Y-66807275D02*
X105037294Y-66759656D01*
X105037294Y-66759656D02*
X105084913Y-66664417D01*
X105084913Y-66664417D02*
X105084913Y-66616798D01*
X105084913Y-66616798D02*
X105037294Y-66521560D01*
X105037294Y-66521560D02*
X104942056Y-66473941D01*
X104942056Y-66473941D02*
X104799199Y-66473941D01*
X104799199Y-66473941D02*
X104703961Y-66426322D01*
X104703961Y-66426322D02*
X104656342Y-66331084D01*
X104656342Y-66331084D02*
X104656342Y-66283465D01*
X104656342Y-66283465D02*
X104703961Y-66188227D01*
X104703961Y-66188227D02*
X104799199Y-66140608D01*
X104799199Y-66140608D02*
X104942056Y-66140608D01*
X104942056Y-66140608D02*
X105037294Y-66188227D01*
X105513485Y-66807275D02*
X105513485Y-66140608D01*
X105513485Y-65807275D02*
X105465866Y-65854894D01*
X105465866Y-65854894D02*
X105513485Y-65902513D01*
X105513485Y-65902513D02*
X105561104Y-65854894D01*
X105561104Y-65854894D02*
X105513485Y-65807275D01*
X105513485Y-65807275D02*
X105513485Y-65902513D01*
X106418246Y-66140608D02*
X106418246Y-66950132D01*
X106418246Y-66950132D02*
X106370627Y-67045370D01*
X106370627Y-67045370D02*
X106323008Y-67092989D01*
X106323008Y-67092989D02*
X106227770Y-67140608D01*
X106227770Y-67140608D02*
X106084913Y-67140608D01*
X106084913Y-67140608D02*
X105989675Y-67092989D01*
X106418246Y-66759656D02*
X106323008Y-66807275D01*
X106323008Y-66807275D02*
X106132532Y-66807275D01*
X106132532Y-66807275D02*
X106037294Y-66759656D01*
X106037294Y-66759656D02*
X105989675Y-66712036D01*
X105989675Y-66712036D02*
X105942056Y-66616798D01*
X105942056Y-66616798D02*
X105942056Y-66331084D01*
X105942056Y-66331084D02*
X105989675Y-66235846D01*
X105989675Y-66235846D02*
X106037294Y-66188227D01*
X106037294Y-66188227D02*
X106132532Y-66140608D01*
X106132532Y-66140608D02*
X106323008Y-66140608D01*
X106323008Y-66140608D02*
X106418246Y-66188227D01*
X106894437Y-66140608D02*
X106894437Y-66807275D01*
X106894437Y-66235846D02*
X106942056Y-66188227D01*
X106942056Y-66188227D02*
X107037294Y-66140608D01*
X107037294Y-66140608D02*
X107180151Y-66140608D01*
X107180151Y-66140608D02*
X107275389Y-66188227D01*
X107275389Y-66188227D02*
X107323008Y-66283465D01*
X107323008Y-66283465D02*
X107323008Y-66807275D01*
X107751580Y-66759656D02*
X107846818Y-66807275D01*
X107846818Y-66807275D02*
X108037294Y-66807275D01*
X108037294Y-66807275D02*
X108132532Y-66759656D01*
X108132532Y-66759656D02*
X108180151Y-66664417D01*
X108180151Y-66664417D02*
X108180151Y-66616798D01*
X108180151Y-66616798D02*
X108132532Y-66521560D01*
X108132532Y-66521560D02*
X108037294Y-66473941D01*
X108037294Y-66473941D02*
X107894437Y-66473941D01*
X107894437Y-66473941D02*
X107799199Y-66426322D01*
X107799199Y-66426322D02*
X107751580Y-66331084D01*
X107751580Y-66331084D02*
X107751580Y-66283465D01*
X107751580Y-66283465D02*
X107799199Y-66188227D01*
X107799199Y-66188227D02*
X107894437Y-66140608D01*
X107894437Y-66140608D02*
X108037294Y-66140608D01*
X108037294Y-66140608D02*
X108132532Y-66188227D01*
X95989673Y-68417219D02*
X95989673Y-67417219D01*
X95989673Y-67417219D02*
X96561101Y-68417219D01*
X96561101Y-68417219D02*
X96561101Y-67417219D01*
X97418244Y-68369600D02*
X97323006Y-68417219D01*
X97323006Y-68417219D02*
X97132530Y-68417219D01*
X97132530Y-68417219D02*
X97037292Y-68369600D01*
X97037292Y-68369600D02*
X96989673Y-68274361D01*
X96989673Y-68274361D02*
X96989673Y-67893409D01*
X96989673Y-67893409D02*
X97037292Y-67798171D01*
X97037292Y-67798171D02*
X97132530Y-67750552D01*
X97132530Y-67750552D02*
X97323006Y-67750552D01*
X97323006Y-67750552D02*
X97418244Y-67798171D01*
X97418244Y-67798171D02*
X97465863Y-67893409D01*
X97465863Y-67893409D02*
X97465863Y-67988647D01*
X97465863Y-67988647D02*
X96989673Y-68083885D01*
X97799197Y-67750552D02*
X97989673Y-68417219D01*
X97989673Y-68417219D02*
X98180149Y-67941028D01*
X98180149Y-67941028D02*
X98370625Y-68417219D01*
X98370625Y-68417219D02*
X98561101Y-67750552D01*
X99608721Y-67417219D02*
X100275387Y-67417219D01*
X100275387Y-67417219D02*
X99608721Y-68417219D01*
X99608721Y-68417219D02*
X100275387Y-68417219D01*
X101037292Y-68369600D02*
X100942054Y-68417219D01*
X100942054Y-68417219D02*
X100751578Y-68417219D01*
X100751578Y-68417219D02*
X100656340Y-68369600D01*
X100656340Y-68369600D02*
X100608721Y-68274361D01*
X100608721Y-68274361D02*
X100608721Y-67893409D01*
X100608721Y-67893409D02*
X100656340Y-67798171D01*
X100656340Y-67798171D02*
X100751578Y-67750552D01*
X100751578Y-67750552D02*
X100942054Y-67750552D01*
X100942054Y-67750552D02*
X101037292Y-67798171D01*
X101037292Y-67798171D02*
X101084911Y-67893409D01*
X101084911Y-67893409D02*
X101084911Y-67988647D01*
X101084911Y-67988647D02*
X100608721Y-68083885D01*
X101942054Y-68417219D02*
X101942054Y-67893409D01*
X101942054Y-67893409D02*
X101894435Y-67798171D01*
X101894435Y-67798171D02*
X101799197Y-67750552D01*
X101799197Y-67750552D02*
X101608721Y-67750552D01*
X101608721Y-67750552D02*
X101513483Y-67798171D01*
X101942054Y-68369600D02*
X101846816Y-68417219D01*
X101846816Y-68417219D02*
X101608721Y-68417219D01*
X101608721Y-68417219D02*
X101513483Y-68369600D01*
X101513483Y-68369600D02*
X101465864Y-68274361D01*
X101465864Y-68274361D02*
X101465864Y-68179123D01*
X101465864Y-68179123D02*
X101513483Y-68083885D01*
X101513483Y-68083885D02*
X101608721Y-68036266D01*
X101608721Y-68036266D02*
X101846816Y-68036266D01*
X101846816Y-68036266D02*
X101942054Y-67988647D01*
X102561102Y-68417219D02*
X102465864Y-68369600D01*
X102465864Y-68369600D02*
X102418245Y-68274361D01*
X102418245Y-68274361D02*
X102418245Y-67417219D01*
X103370626Y-68417219D02*
X103370626Y-67893409D01*
X103370626Y-67893409D02*
X103323007Y-67798171D01*
X103323007Y-67798171D02*
X103227769Y-67750552D01*
X103227769Y-67750552D02*
X103037293Y-67750552D01*
X103037293Y-67750552D02*
X102942055Y-67798171D01*
X103370626Y-68369600D02*
X103275388Y-68417219D01*
X103275388Y-68417219D02*
X103037293Y-68417219D01*
X103037293Y-68417219D02*
X102942055Y-68369600D01*
X102942055Y-68369600D02*
X102894436Y-68274361D01*
X102894436Y-68274361D02*
X102894436Y-68179123D01*
X102894436Y-68179123D02*
X102942055Y-68083885D01*
X102942055Y-68083885D02*
X103037293Y-68036266D01*
X103037293Y-68036266D02*
X103275388Y-68036266D01*
X103275388Y-68036266D02*
X103370626Y-67988647D01*
X103846817Y-67750552D02*
X103846817Y-68417219D01*
X103846817Y-67845790D02*
X103894436Y-67798171D01*
X103894436Y-67798171D02*
X103989674Y-67750552D01*
X103989674Y-67750552D02*
X104132531Y-67750552D01*
X104132531Y-67750552D02*
X104227769Y-67798171D01*
X104227769Y-67798171D02*
X104275388Y-67893409D01*
X104275388Y-67893409D02*
X104275388Y-68417219D01*
X105180150Y-68417219D02*
X105180150Y-67417219D01*
X105180150Y-68369600D02*
X105084912Y-68417219D01*
X105084912Y-68417219D02*
X104894436Y-68417219D01*
X104894436Y-68417219D02*
X104799198Y-68369600D01*
X104799198Y-68369600D02*
X104751579Y-68321980D01*
X104751579Y-68321980D02*
X104703960Y-68226742D01*
X104703960Y-68226742D02*
X104703960Y-67941028D01*
X104703960Y-67941028D02*
X104751579Y-67845790D01*
X104751579Y-67845790D02*
X104799198Y-67798171D01*
X104799198Y-67798171D02*
X104894436Y-67750552D01*
X104894436Y-67750552D02*
X105084912Y-67750552D01*
X105084912Y-67750552D02*
X105180150Y-67798171D01*
X105656341Y-68321980D02*
X105703960Y-68369600D01*
X105703960Y-68369600D02*
X105656341Y-68417219D01*
X105656341Y-68417219D02*
X105608722Y-68369600D01*
X105608722Y-68369600D02*
X105656341Y-68321980D01*
X105656341Y-68321980D02*
X105656341Y-68417219D01*
X107784435Y-50127219D02*
X108403482Y-50127219D01*
X108403482Y-50127219D02*
X108070149Y-50508171D01*
X108070149Y-50508171D02*
X108213006Y-50508171D01*
X108213006Y-50508171D02*
X108308244Y-50555790D01*
X108308244Y-50555790D02*
X108355863Y-50603409D01*
X108355863Y-50603409D02*
X108403482Y-50698647D01*
X108403482Y-50698647D02*
X108403482Y-50936742D01*
X108403482Y-50936742D02*
X108355863Y-51031980D01*
X108355863Y-51031980D02*
X108308244Y-51079600D01*
X108308244Y-51079600D02*
X108213006Y-51127219D01*
X108213006Y-51127219D02*
X107927292Y-51127219D01*
X107927292Y-51127219D02*
X107832054Y-51079600D01*
X107832054Y-51079600D02*
X107784435Y-51031980D01*
X108736816Y-50127219D02*
X109355863Y-50127219D01*
X109355863Y-50127219D02*
X109022530Y-50508171D01*
X109022530Y-50508171D02*
X109165387Y-50508171D01*
X109165387Y-50508171D02*
X109260625Y-50555790D01*
X109260625Y-50555790D02*
X109308244Y-50603409D01*
X109308244Y-50603409D02*
X109355863Y-50698647D01*
X109355863Y-50698647D02*
X109355863Y-50936742D01*
X109355863Y-50936742D02*
X109308244Y-51031980D01*
X109308244Y-51031980D02*
X109260625Y-51079600D01*
X109260625Y-51079600D02*
X109165387Y-51127219D01*
X109165387Y-51127219D02*
X108879673Y-51127219D01*
X108879673Y-51127219D02*
X108784435Y-51079600D01*
X108784435Y-51079600D02*
X108736816Y-51031980D01*
X109974911Y-50127219D02*
X110070149Y-50127219D01*
X110070149Y-50127219D02*
X110165387Y-50174838D01*
X110165387Y-50174838D02*
X110213006Y-50222457D01*
X110213006Y-50222457D02*
X110260625Y-50317695D01*
X110260625Y-50317695D02*
X110308244Y-50508171D01*
X110308244Y-50508171D02*
X110308244Y-50746266D01*
X110308244Y-50746266D02*
X110260625Y-50936742D01*
X110260625Y-50936742D02*
X110213006Y-51031980D01*
X110213006Y-51031980D02*
X110165387Y-51079600D01*
X110165387Y-51079600D02*
X110070149Y-51127219D01*
X110070149Y-51127219D02*
X109974911Y-51127219D01*
X109974911Y-51127219D02*
X109879673Y-51079600D01*
X109879673Y-51079600D02*
X109832054Y-51031980D01*
X109832054Y-51031980D02*
X109784435Y-50936742D01*
X109784435Y-50936742D02*
X109736816Y-50746266D01*
X109736816Y-50746266D02*
X109736816Y-50508171D01*
X109736816Y-50508171D02*
X109784435Y-50317695D01*
X109784435Y-50317695D02*
X109832054Y-50222457D01*
X109832054Y-50222457D02*
X109879673Y-50174838D01*
X109879673Y-50174838D02*
X109974911Y-50127219D01*
X111308244Y-51127219D02*
X110974911Y-50651028D01*
X110736816Y-51127219D02*
X110736816Y-50127219D01*
X110736816Y-50127219D02*
X111117768Y-50127219D01*
X111117768Y-50127219D02*
X111213006Y-50174838D01*
X111213006Y-50174838D02*
X111260625Y-50222457D01*
X111260625Y-50222457D02*
X111308244Y-50317695D01*
X111308244Y-50317695D02*
X111308244Y-50460552D01*
X111308244Y-50460552D02*
X111260625Y-50555790D01*
X111260625Y-50555790D02*
X111213006Y-50603409D01*
X111213006Y-50603409D02*
X111117768Y-50651028D01*
X111117768Y-50651028D02*
X110736816Y-50651028D01*
X109103482Y-54417219D02*
X108532054Y-54417219D01*
X108817768Y-54417219D02*
X108817768Y-53417219D01*
X108817768Y-53417219D02*
X108722530Y-53560076D01*
X108722530Y-53560076D02*
X108627292Y-53655314D01*
X108627292Y-53655314D02*
X108532054Y-53702933D01*
X109532054Y-54417219D02*
X109532054Y-53417219D01*
X110103482Y-54417219D02*
X109674911Y-53845790D01*
X110103482Y-53417219D02*
X109532054Y-53988647D01*
X112763482Y-104557219D02*
X112192054Y-104557219D01*
X112477768Y-104557219D02*
X112477768Y-103557219D01*
X112477768Y-103557219D02*
X112382530Y-103700076D01*
X112382530Y-103700076D02*
X112287292Y-103795314D01*
X112287292Y-103795314D02*
X112192054Y-103842933D01*
X117098244Y-96720552D02*
X117098244Y-97387219D01*
X116860149Y-96339600D02*
X116622054Y-97053885D01*
X116622054Y-97053885D02*
X117241101Y-97053885D01*
X117535863Y-66717219D02*
X117059673Y-66717219D01*
X117059673Y-66717219D02*
X117012054Y-67193409D01*
X117012054Y-67193409D02*
X117059673Y-67145790D01*
X117059673Y-67145790D02*
X117154911Y-67098171D01*
X117154911Y-67098171D02*
X117393006Y-67098171D01*
X117393006Y-67098171D02*
X117488244Y-67145790D01*
X117488244Y-67145790D02*
X117535863Y-67193409D01*
X117535863Y-67193409D02*
X117583482Y-67288647D01*
X117583482Y-67288647D02*
X117583482Y-67526742D01*
X117583482Y-67526742D02*
X117535863Y-67621980D01*
X117535863Y-67621980D02*
X117488244Y-67669600D01*
X117488244Y-67669600D02*
X117393006Y-67717219D01*
X117393006Y-67717219D02*
X117154911Y-67717219D01*
X117154911Y-67717219D02*
X117059673Y-67669600D01*
X117059673Y-67669600D02*
X117012054Y-67621980D01*
X117916816Y-67050552D02*
X118154911Y-67717219D01*
X118154911Y-67717219D02*
X118393006Y-67050552D01*
X119869197Y-67193409D02*
X120012054Y-67241028D01*
X120012054Y-67241028D02*
X120059673Y-67288647D01*
X120059673Y-67288647D02*
X120107292Y-67383885D01*
X120107292Y-67383885D02*
X120107292Y-67526742D01*
X120107292Y-67526742D02*
X120059673Y-67621980D01*
X120059673Y-67621980D02*
X120012054Y-67669600D01*
X120012054Y-67669600D02*
X119916816Y-67717219D01*
X119916816Y-67717219D02*
X119535864Y-67717219D01*
X119535864Y-67717219D02*
X119535864Y-66717219D01*
X119535864Y-66717219D02*
X119869197Y-66717219D01*
X119869197Y-66717219D02*
X119964435Y-66764838D01*
X119964435Y-66764838D02*
X120012054Y-66812457D01*
X120012054Y-66812457D02*
X120059673Y-66907695D01*
X120059673Y-66907695D02*
X120059673Y-67002933D01*
X120059673Y-67002933D02*
X120012054Y-67098171D01*
X120012054Y-67098171D02*
X119964435Y-67145790D01*
X119964435Y-67145790D02*
X119869197Y-67193409D01*
X119869197Y-67193409D02*
X119535864Y-67193409D01*
X120964435Y-67050552D02*
X120964435Y-67717219D01*
X120535864Y-67050552D02*
X120535864Y-67574361D01*
X120535864Y-67574361D02*
X120583483Y-67669600D01*
X120583483Y-67669600D02*
X120678721Y-67717219D01*
X120678721Y-67717219D02*
X120821578Y-67717219D01*
X120821578Y-67717219D02*
X120916816Y-67669600D01*
X120916816Y-67669600D02*
X120964435Y-67621980D01*
X121345388Y-67050552D02*
X121869197Y-67050552D01*
X121869197Y-67050552D02*
X121345388Y-67717219D01*
X121345388Y-67717219D02*
X121869197Y-67717219D01*
X122916817Y-66717219D02*
X123535864Y-66717219D01*
X123535864Y-66717219D02*
X123202531Y-67098171D01*
X123202531Y-67098171D02*
X123345388Y-67098171D01*
X123345388Y-67098171D02*
X123440626Y-67145790D01*
X123440626Y-67145790D02*
X123488245Y-67193409D01*
X123488245Y-67193409D02*
X123535864Y-67288647D01*
X123535864Y-67288647D02*
X123535864Y-67526742D01*
X123535864Y-67526742D02*
X123488245Y-67621980D01*
X123488245Y-67621980D02*
X123440626Y-67669600D01*
X123440626Y-67669600D02*
X123345388Y-67717219D01*
X123345388Y-67717219D02*
X123059674Y-67717219D01*
X123059674Y-67717219D02*
X122964436Y-67669600D01*
X122964436Y-67669600D02*
X122916817Y-67621980D01*
X123964436Y-67621980D02*
X124012055Y-67669600D01*
X124012055Y-67669600D02*
X123964436Y-67717219D01*
X123964436Y-67717219D02*
X123916817Y-67669600D01*
X123916817Y-67669600D02*
X123964436Y-67621980D01*
X123964436Y-67621980D02*
X123964436Y-67717219D01*
X124345388Y-66717219D02*
X124964435Y-66717219D01*
X124964435Y-66717219D02*
X124631102Y-67098171D01*
X124631102Y-67098171D02*
X124773959Y-67098171D01*
X124773959Y-67098171D02*
X124869197Y-67145790D01*
X124869197Y-67145790D02*
X124916816Y-67193409D01*
X124916816Y-67193409D02*
X124964435Y-67288647D01*
X124964435Y-67288647D02*
X124964435Y-67526742D01*
X124964435Y-67526742D02*
X124916816Y-67621980D01*
X124916816Y-67621980D02*
X124869197Y-67669600D01*
X124869197Y-67669600D02*
X124773959Y-67717219D01*
X124773959Y-67717219D02*
X124488245Y-67717219D01*
X124488245Y-67717219D02*
X124393007Y-67669600D01*
X124393007Y-67669600D02*
X124345388Y-67621980D01*
X125297769Y-67050552D02*
X125535864Y-67717219D01*
X125535864Y-67717219D02*
X125773959Y-67050552D01*
X119792054Y-101452457D02*
X119839673Y-101404838D01*
X119839673Y-101404838D02*
X119934911Y-101357219D01*
X119934911Y-101357219D02*
X120173006Y-101357219D01*
X120173006Y-101357219D02*
X120268244Y-101404838D01*
X120268244Y-101404838D02*
X120315863Y-101452457D01*
X120315863Y-101452457D02*
X120363482Y-101547695D01*
X120363482Y-101547695D02*
X120363482Y-101642933D01*
X120363482Y-101642933D02*
X120315863Y-101785790D01*
X120315863Y-101785790D02*
X119744435Y-102357219D01*
X119744435Y-102357219D02*
X120363482Y-102357219D01*
X124642054Y-97872457D02*
X124689673Y-97824838D01*
X124689673Y-97824838D02*
X124784911Y-97777219D01*
X124784911Y-97777219D02*
X125023006Y-97777219D01*
X125023006Y-97777219D02*
X125118244Y-97824838D01*
X125118244Y-97824838D02*
X125165863Y-97872457D01*
X125165863Y-97872457D02*
X125213482Y-97967695D01*
X125213482Y-97967695D02*
X125213482Y-98062933D01*
X125213482Y-98062933D02*
X125165863Y-98205790D01*
X125165863Y-98205790D02*
X124594435Y-98777219D01*
X124594435Y-98777219D02*
X125213482Y-98777219D01*
X125601101Y-95547219D02*
X125267768Y-95071028D01*
X125029673Y-95547219D02*
X125029673Y-94547219D01*
X125029673Y-94547219D02*
X125410625Y-94547219D01*
X125410625Y-94547219D02*
X125505863Y-94594838D01*
X125505863Y-94594838D02*
X125553482Y-94642457D01*
X125553482Y-94642457D02*
X125601101Y-94737695D01*
X125601101Y-94737695D02*
X125601101Y-94880552D01*
X125601101Y-94880552D02*
X125553482Y-94975790D01*
X125553482Y-94975790D02*
X125505863Y-95023409D01*
X125505863Y-95023409D02*
X125410625Y-95071028D01*
X125410625Y-95071028D02*
X125029673Y-95071028D01*
X127798244Y-98110552D02*
X127798244Y-98777219D01*
X127560149Y-97729600D02*
X127322054Y-98443885D01*
X127322054Y-98443885D02*
X127941101Y-98443885D01*
X127953482Y-94594838D02*
X127858244Y-94547219D01*
X127858244Y-94547219D02*
X127715387Y-94547219D01*
X127715387Y-94547219D02*
X127572530Y-94594838D01*
X127572530Y-94594838D02*
X127477292Y-94690076D01*
X127477292Y-94690076D02*
X127429673Y-94785314D01*
X127429673Y-94785314D02*
X127382054Y-94975790D01*
X127382054Y-94975790D02*
X127382054Y-95118647D01*
X127382054Y-95118647D02*
X127429673Y-95309123D01*
X127429673Y-95309123D02*
X127477292Y-95404361D01*
X127477292Y-95404361D02*
X127572530Y-95499600D01*
X127572530Y-95499600D02*
X127715387Y-95547219D01*
X127715387Y-95547219D02*
X127810625Y-95547219D01*
X127810625Y-95547219D02*
X127953482Y-95499600D01*
X127953482Y-95499600D02*
X128001101Y-95451980D01*
X128001101Y-95451980D02*
X128001101Y-95118647D01*
X128001101Y-95118647D02*
X127810625Y-95118647D01*
X130703006Y-95023409D02*
X130845863Y-95071028D01*
X130845863Y-95071028D02*
X130893482Y-95118647D01*
X130893482Y-95118647D02*
X130941101Y-95213885D01*
X130941101Y-95213885D02*
X130941101Y-95356742D01*
X130941101Y-95356742D02*
X130893482Y-95451980D01*
X130893482Y-95451980D02*
X130845863Y-95499600D01*
X130845863Y-95499600D02*
X130750625Y-95547219D01*
X130750625Y-95547219D02*
X130369673Y-95547219D01*
X130369673Y-95547219D02*
X130369673Y-94547219D01*
X130369673Y-94547219D02*
X130703006Y-94547219D01*
X130703006Y-94547219D02*
X130798244Y-94594838D01*
X130798244Y-94594838D02*
X130845863Y-94642457D01*
X130845863Y-94642457D02*
X130893482Y-94737695D01*
X130893482Y-94737695D02*
X130893482Y-94832933D01*
X130893482Y-94832933D02*
X130845863Y-94928171D01*
X130845863Y-94928171D02*
X130798244Y-94975790D01*
X130798244Y-94975790D02*
X130703006Y-95023409D01*
X130703006Y-95023409D02*
X130369673Y-95023409D01*
X130913482Y-98777219D02*
X130342054Y-98777219D01*
X130627768Y-98777219D02*
X130627768Y-97777219D01*
X130627768Y-97777219D02*
X130532530Y-97920076D01*
X130532530Y-97920076D02*
X130437292Y-98015314D01*
X130437292Y-98015314D02*
X130342054Y-98062933D01*
X142583482Y-48007219D02*
X142012054Y-48007219D01*
X142297768Y-48007219D02*
X142297768Y-47007219D01*
X142297768Y-47007219D02*
X142202530Y-47150076D01*
X142202530Y-47150076D02*
X142107292Y-47245314D01*
X142107292Y-47245314D02*
X142012054Y-47292933D01*
X143440625Y-47007219D02*
X143250149Y-47007219D01*
X143250149Y-47007219D02*
X143154911Y-47054838D01*
X143154911Y-47054838D02*
X143107292Y-47102457D01*
X143107292Y-47102457D02*
X143012054Y-47245314D01*
X143012054Y-47245314D02*
X142964435Y-47435790D01*
X142964435Y-47435790D02*
X142964435Y-47816742D01*
X142964435Y-47816742D02*
X143012054Y-47911980D01*
X143012054Y-47911980D02*
X143059673Y-47959600D01*
X143059673Y-47959600D02*
X143154911Y-48007219D01*
X143154911Y-48007219D02*
X143345387Y-48007219D01*
X143345387Y-48007219D02*
X143440625Y-47959600D01*
X143440625Y-47959600D02*
X143488244Y-47911980D01*
X143488244Y-47911980D02*
X143535863Y-47816742D01*
X143535863Y-47816742D02*
X143535863Y-47578647D01*
X143535863Y-47578647D02*
X143488244Y-47483409D01*
X143488244Y-47483409D02*
X143440625Y-47435790D01*
X143440625Y-47435790D02*
X143345387Y-47388171D01*
X143345387Y-47388171D02*
X143154911Y-47388171D01*
X143154911Y-47388171D02*
X143059673Y-47435790D01*
X143059673Y-47435790D02*
X143012054Y-47483409D01*
X143012054Y-47483409D02*
X142964435Y-47578647D01*
X142983482Y-140757219D02*
X142412054Y-140757219D01*
X142697768Y-140757219D02*
X142697768Y-139757219D01*
X142697768Y-139757219D02*
X142602530Y-139900076D01*
X142602530Y-139900076D02*
X142507292Y-139995314D01*
X142507292Y-139995314D02*
X142412054Y-140042933D01*
X150873482Y-94347219D02*
X150302054Y-94347219D01*
X150587768Y-94347219D02*
X150587768Y-93347219D01*
X150587768Y-93347219D02*
X150492530Y-93490076D01*
X150492530Y-93490076D02*
X150397292Y-93585314D01*
X150397292Y-93585314D02*
X150302054Y-93632933D01*
X151730625Y-93680552D02*
X151730625Y-94347219D01*
X151492530Y-93299600D02*
X151254435Y-94013885D01*
X151254435Y-94013885D02*
X151873482Y-94013885D01*
X153016340Y-94347219D02*
X153016340Y-93347219D01*
X153016340Y-93347219D02*
X153397292Y-93347219D01*
X153397292Y-93347219D02*
X153492530Y-93394838D01*
X153492530Y-93394838D02*
X153540149Y-93442457D01*
X153540149Y-93442457D02*
X153587768Y-93537695D01*
X153587768Y-93537695D02*
X153587768Y-93680552D01*
X153587768Y-93680552D02*
X153540149Y-93775790D01*
X153540149Y-93775790D02*
X153492530Y-93823409D01*
X153492530Y-93823409D02*
X153397292Y-93871028D01*
X153397292Y-93871028D02*
X153016340Y-93871028D01*
X154016340Y-94347219D02*
X154016340Y-93347219D01*
X154492530Y-94347219D02*
X154492530Y-93347219D01*
X154492530Y-93347219D02*
X155063958Y-94347219D01*
X155063958Y-94347219D02*
X155063958Y-93347219D01*
X156302054Y-94347219D02*
X156302054Y-93347219D01*
X157349672Y-94251980D02*
X157302053Y-94299600D01*
X157302053Y-94299600D02*
X157159196Y-94347219D01*
X157159196Y-94347219D02*
X157063958Y-94347219D01*
X157063958Y-94347219D02*
X156921101Y-94299600D01*
X156921101Y-94299600D02*
X156825863Y-94204361D01*
X156825863Y-94204361D02*
X156778244Y-94109123D01*
X156778244Y-94109123D02*
X156730625Y-93918647D01*
X156730625Y-93918647D02*
X156730625Y-93775790D01*
X156730625Y-93775790D02*
X156778244Y-93585314D01*
X156778244Y-93585314D02*
X156825863Y-93490076D01*
X156825863Y-93490076D02*
X156921101Y-93394838D01*
X156921101Y-93394838D02*
X157063958Y-93347219D01*
X157063958Y-93347219D02*
X157159196Y-93347219D01*
X157159196Y-93347219D02*
X157302053Y-93394838D01*
X157302053Y-93394838D02*
X157349672Y-93442457D01*
X157825863Y-93347219D02*
X157730625Y-93537695D01*
X158206815Y-94299600D02*
X158302053Y-94347219D01*
X158302053Y-94347219D02*
X158492529Y-94347219D01*
X158492529Y-94347219D02*
X158587767Y-94299600D01*
X158587767Y-94299600D02*
X158635386Y-94204361D01*
X158635386Y-94204361D02*
X158635386Y-94156742D01*
X158635386Y-94156742D02*
X158587767Y-94061504D01*
X158587767Y-94061504D02*
X158492529Y-94013885D01*
X158492529Y-94013885D02*
X158349672Y-94013885D01*
X158349672Y-94013885D02*
X158254434Y-93966266D01*
X158254434Y-93966266D02*
X158206815Y-93871028D01*
X158206815Y-93871028D02*
X158206815Y-93823409D01*
X158206815Y-93823409D02*
X158254434Y-93728171D01*
X158254434Y-93728171D02*
X158349672Y-93680552D01*
X158349672Y-93680552D02*
X158492529Y-93680552D01*
X158492529Y-93680552D02*
X158587767Y-93728171D01*
X157343482Y-92057219D02*
X156772054Y-92057219D01*
X157057768Y-92057219D02*
X157057768Y-91057219D01*
X157057768Y-91057219D02*
X156962530Y-91200076D01*
X156962530Y-91200076D02*
X156867292Y-91295314D01*
X156867292Y-91295314D02*
X156772054Y-91342933D01*
X158200625Y-91057219D02*
X158010149Y-91057219D01*
X158010149Y-91057219D02*
X157914911Y-91104838D01*
X157914911Y-91104838D02*
X157867292Y-91152457D01*
X157867292Y-91152457D02*
X157772054Y-91295314D01*
X157772054Y-91295314D02*
X157724435Y-91485790D01*
X157724435Y-91485790D02*
X157724435Y-91866742D01*
X157724435Y-91866742D02*
X157772054Y-91961980D01*
X157772054Y-91961980D02*
X157819673Y-92009600D01*
X157819673Y-92009600D02*
X157914911Y-92057219D01*
X157914911Y-92057219D02*
X158105387Y-92057219D01*
X158105387Y-92057219D02*
X158200625Y-92009600D01*
X158200625Y-92009600D02*
X158248244Y-91961980D01*
X158248244Y-91961980D02*
X158295863Y-91866742D01*
X158295863Y-91866742D02*
X158295863Y-91628647D01*
X158295863Y-91628647D02*
X158248244Y-91533409D01*
X158248244Y-91533409D02*
X158200625Y-91485790D01*
X158200625Y-91485790D02*
X158105387Y-91438171D01*
X158105387Y-91438171D02*
X157914911Y-91438171D01*
X157914911Y-91438171D02*
X157819673Y-91485790D01*
X157819673Y-91485790D02*
X157772054Y-91533409D01*
X157772054Y-91533409D02*
X157724435Y-91628647D01*
X159486340Y-92057219D02*
X159486340Y-91057219D01*
X159486340Y-91057219D02*
X159867292Y-91057219D01*
X159867292Y-91057219D02*
X159962530Y-91104838D01*
X159962530Y-91104838D02*
X160010149Y-91152457D01*
X160010149Y-91152457D02*
X160057768Y-91247695D01*
X160057768Y-91247695D02*
X160057768Y-91390552D01*
X160057768Y-91390552D02*
X160010149Y-91485790D01*
X160010149Y-91485790D02*
X159962530Y-91533409D01*
X159962530Y-91533409D02*
X159867292Y-91581028D01*
X159867292Y-91581028D02*
X159486340Y-91581028D01*
X160486340Y-92057219D02*
X160486340Y-91057219D01*
X160962530Y-92057219D02*
X160962530Y-91057219D01*
X160962530Y-91057219D02*
X161533958Y-92057219D01*
X161533958Y-92057219D02*
X161533958Y-91057219D01*
X162772054Y-92057219D02*
X162772054Y-91057219D01*
X163819672Y-91961980D02*
X163772053Y-92009600D01*
X163772053Y-92009600D02*
X163629196Y-92057219D01*
X163629196Y-92057219D02*
X163533958Y-92057219D01*
X163533958Y-92057219D02*
X163391101Y-92009600D01*
X163391101Y-92009600D02*
X163295863Y-91914361D01*
X163295863Y-91914361D02*
X163248244Y-91819123D01*
X163248244Y-91819123D02*
X163200625Y-91628647D01*
X163200625Y-91628647D02*
X163200625Y-91485790D01*
X163200625Y-91485790D02*
X163248244Y-91295314D01*
X163248244Y-91295314D02*
X163295863Y-91200076D01*
X163295863Y-91200076D02*
X163391101Y-91104838D01*
X163391101Y-91104838D02*
X163533958Y-91057219D01*
X163533958Y-91057219D02*
X163629196Y-91057219D01*
X163629196Y-91057219D02*
X163772053Y-91104838D01*
X163772053Y-91104838D02*
X163819672Y-91152457D01*
X164295863Y-91057219D02*
X164200625Y-91247695D01*
X164676815Y-92009600D02*
X164772053Y-92057219D01*
X164772053Y-92057219D02*
X164962529Y-92057219D01*
X164962529Y-92057219D02*
X165057767Y-92009600D01*
X165057767Y-92009600D02*
X165105386Y-91914361D01*
X165105386Y-91914361D02*
X165105386Y-91866742D01*
X165105386Y-91866742D02*
X165057767Y-91771504D01*
X165057767Y-91771504D02*
X164962529Y-91723885D01*
X164962529Y-91723885D02*
X164819672Y-91723885D01*
X164819672Y-91723885D02*
X164724434Y-91676266D01*
X164724434Y-91676266D02*
X164676815Y-91581028D01*
X164676815Y-91581028D02*
X164676815Y-91533409D01*
X164676815Y-91533409D02*
X164724434Y-91438171D01*
X164724434Y-91438171D02*
X164819672Y-91390552D01*
X164819672Y-91390552D02*
X164962529Y-91390552D01*
X164962529Y-91390552D02*
X165057767Y-91438171D01*
X157854435Y-139547219D02*
X158521101Y-139547219D01*
X158521101Y-139547219D02*
X157854435Y-140547219D01*
X157854435Y-140547219D02*
X158521101Y-140547219D01*
X158902054Y-140547219D02*
X158902054Y-139880552D01*
X158902054Y-139547219D02*
X158854435Y-139594838D01*
X158854435Y-139594838D02*
X158902054Y-139642457D01*
X158902054Y-139642457D02*
X158949673Y-139594838D01*
X158949673Y-139594838D02*
X158902054Y-139547219D01*
X158902054Y-139547219D02*
X158902054Y-139642457D01*
X159235387Y-139880552D02*
X159616339Y-139880552D01*
X159378244Y-140547219D02*
X159378244Y-139690076D01*
X159378244Y-139690076D02*
X159425863Y-139594838D01*
X159425863Y-139594838D02*
X159521101Y-139547219D01*
X159521101Y-139547219D02*
X159616339Y-139547219D01*
X161044911Y-140023409D02*
X161187768Y-140071028D01*
X161187768Y-140071028D02*
X161235387Y-140118647D01*
X161235387Y-140118647D02*
X161283006Y-140213885D01*
X161283006Y-140213885D02*
X161283006Y-140356742D01*
X161283006Y-140356742D02*
X161235387Y-140451980D01*
X161235387Y-140451980D02*
X161187768Y-140499600D01*
X161187768Y-140499600D02*
X161092530Y-140547219D01*
X161092530Y-140547219D02*
X160711578Y-140547219D01*
X160711578Y-140547219D02*
X160711578Y-139547219D01*
X160711578Y-139547219D02*
X161044911Y-139547219D01*
X161044911Y-139547219D02*
X161140149Y-139594838D01*
X161140149Y-139594838D02*
X161187768Y-139642457D01*
X161187768Y-139642457D02*
X161235387Y-139737695D01*
X161235387Y-139737695D02*
X161235387Y-139832933D01*
X161235387Y-139832933D02*
X161187768Y-139928171D01*
X161187768Y-139928171D02*
X161140149Y-139975790D01*
X161140149Y-139975790D02*
X161044911Y-140023409D01*
X161044911Y-140023409D02*
X160711578Y-140023409D01*
X162140149Y-139880552D02*
X162140149Y-140547219D01*
X161711578Y-139880552D02*
X161711578Y-140404361D01*
X161711578Y-140404361D02*
X161759197Y-140499600D01*
X161759197Y-140499600D02*
X161854435Y-140547219D01*
X161854435Y-140547219D02*
X161997292Y-140547219D01*
X161997292Y-140547219D02*
X162092530Y-140499600D01*
X162092530Y-140499600D02*
X162140149Y-140451980D01*
X162568721Y-140499600D02*
X162663959Y-140547219D01*
X162663959Y-140547219D02*
X162854435Y-140547219D01*
X162854435Y-140547219D02*
X162949673Y-140499600D01*
X162949673Y-140499600D02*
X162997292Y-140404361D01*
X162997292Y-140404361D02*
X162997292Y-140356742D01*
X162997292Y-140356742D02*
X162949673Y-140261504D01*
X162949673Y-140261504D02*
X162854435Y-140213885D01*
X162854435Y-140213885D02*
X162711578Y-140213885D01*
X162711578Y-140213885D02*
X162616340Y-140166266D01*
X162616340Y-140166266D02*
X162568721Y-140071028D01*
X162568721Y-140071028D02*
X162568721Y-140023409D01*
X162568721Y-140023409D02*
X162616340Y-139928171D01*
X162616340Y-139928171D02*
X162711578Y-139880552D01*
X162711578Y-139880552D02*
X162854435Y-139880552D01*
X162854435Y-139880552D02*
X162949673Y-139928171D01*
X164711578Y-140547219D02*
X164140150Y-140547219D01*
X164425864Y-140547219D02*
X164425864Y-139547219D01*
X164425864Y-139547219D02*
X164330626Y-139690076D01*
X164330626Y-139690076D02*
X164235388Y-139785314D01*
X164235388Y-139785314D02*
X164140150Y-139832933D01*
X165140150Y-140166266D02*
X165902055Y-140166266D01*
X166902054Y-140547219D02*
X166330626Y-140547219D01*
X166616340Y-140547219D02*
X166616340Y-139547219D01*
X166616340Y-139547219D02*
X166521102Y-139690076D01*
X166521102Y-139690076D02*
X166425864Y-139785314D01*
X166425864Y-139785314D02*
X166330626Y-139832933D01*
X167759197Y-139547219D02*
X167568721Y-139547219D01*
X167568721Y-139547219D02*
X167473483Y-139594838D01*
X167473483Y-139594838D02*
X167425864Y-139642457D01*
X167425864Y-139642457D02*
X167330626Y-139785314D01*
X167330626Y-139785314D02*
X167283007Y-139975790D01*
X167283007Y-139975790D02*
X167283007Y-140356742D01*
X167283007Y-140356742D02*
X167330626Y-140451980D01*
X167330626Y-140451980D02*
X167378245Y-140499600D01*
X167378245Y-140499600D02*
X167473483Y-140547219D01*
X167473483Y-140547219D02*
X167663959Y-140547219D01*
X167663959Y-140547219D02*
X167759197Y-140499600D01*
X167759197Y-140499600D02*
X167806816Y-140451980D01*
X167806816Y-140451980D02*
X167854435Y-140356742D01*
X167854435Y-140356742D02*
X167854435Y-140118647D01*
X167854435Y-140118647D02*
X167806816Y-140023409D01*
X167806816Y-140023409D02*
X167759197Y-139975790D01*
X167759197Y-139975790D02*
X167663959Y-139928171D01*
X167663959Y-139928171D02*
X167473483Y-139928171D01*
X167473483Y-139928171D02*
X167378245Y-139975790D01*
X167378245Y-139975790D02*
X167330626Y-140023409D01*
X167330626Y-140023409D02*
X167283007Y-140118647D01*
X158604435Y-46517219D02*
X159271101Y-46517219D01*
X159271101Y-46517219D02*
X158604435Y-47517219D01*
X158604435Y-47517219D02*
X159271101Y-47517219D01*
X159652054Y-47517219D02*
X159652054Y-46850552D01*
X159652054Y-46517219D02*
X159604435Y-46564838D01*
X159604435Y-46564838D02*
X159652054Y-46612457D01*
X159652054Y-46612457D02*
X159699673Y-46564838D01*
X159699673Y-46564838D02*
X159652054Y-46517219D01*
X159652054Y-46517219D02*
X159652054Y-46612457D01*
X159985387Y-46850552D02*
X160366339Y-46850552D01*
X160128244Y-47517219D02*
X160128244Y-46660076D01*
X160128244Y-46660076D02*
X160175863Y-46564838D01*
X160175863Y-46564838D02*
X160271101Y-46517219D01*
X160271101Y-46517219D02*
X160366339Y-46517219D01*
X162271102Y-47517219D02*
X162223483Y-47517219D01*
X162223483Y-47517219D02*
X162128244Y-47469600D01*
X162128244Y-47469600D02*
X161985387Y-47326742D01*
X161985387Y-47326742D02*
X161747292Y-47041028D01*
X161747292Y-47041028D02*
X161652054Y-46898171D01*
X161652054Y-46898171D02*
X161604435Y-46755314D01*
X161604435Y-46755314D02*
X161604435Y-46660076D01*
X161604435Y-46660076D02*
X161652054Y-46564838D01*
X161652054Y-46564838D02*
X161747292Y-46517219D01*
X161747292Y-46517219D02*
X161794911Y-46517219D01*
X161794911Y-46517219D02*
X161890149Y-46564838D01*
X161890149Y-46564838D02*
X161937768Y-46660076D01*
X161937768Y-46660076D02*
X161937768Y-46707695D01*
X161937768Y-46707695D02*
X161890149Y-46802933D01*
X161890149Y-46802933D02*
X161842530Y-46850552D01*
X161842530Y-46850552D02*
X161556816Y-47041028D01*
X161556816Y-47041028D02*
X161509197Y-47088647D01*
X161509197Y-47088647D02*
X161461578Y-47183885D01*
X161461578Y-47183885D02*
X161461578Y-47326742D01*
X161461578Y-47326742D02*
X161509197Y-47421980D01*
X161509197Y-47421980D02*
X161556816Y-47469600D01*
X161556816Y-47469600D02*
X161652054Y-47517219D01*
X161652054Y-47517219D02*
X161794911Y-47517219D01*
X161794911Y-47517219D02*
X161890149Y-47469600D01*
X161890149Y-47469600D02*
X161937768Y-47421980D01*
X161937768Y-47421980D02*
X162080625Y-47231504D01*
X162080625Y-47231504D02*
X162128244Y-47088647D01*
X162128244Y-47088647D02*
X162128244Y-46993409D01*
X163461578Y-46517219D02*
X163461578Y-47326742D01*
X163461578Y-47326742D02*
X163509197Y-47421980D01*
X163509197Y-47421980D02*
X163556816Y-47469600D01*
X163556816Y-47469600D02*
X163652054Y-47517219D01*
X163652054Y-47517219D02*
X163842530Y-47517219D01*
X163842530Y-47517219D02*
X163937768Y-47469600D01*
X163937768Y-47469600D02*
X163985387Y-47421980D01*
X163985387Y-47421980D02*
X164033006Y-47326742D01*
X164033006Y-47326742D02*
X164033006Y-46517219D01*
X164509197Y-47517219D02*
X164509197Y-46517219D01*
X166080625Y-46993409D02*
X166223482Y-47041028D01*
X166223482Y-47041028D02*
X166271101Y-47088647D01*
X166271101Y-47088647D02*
X166318720Y-47183885D01*
X166318720Y-47183885D02*
X166318720Y-47326742D01*
X166318720Y-47326742D02*
X166271101Y-47421980D01*
X166271101Y-47421980D02*
X166223482Y-47469600D01*
X166223482Y-47469600D02*
X166128244Y-47517219D01*
X166128244Y-47517219D02*
X165747292Y-47517219D01*
X165747292Y-47517219D02*
X165747292Y-46517219D01*
X165747292Y-46517219D02*
X166080625Y-46517219D01*
X166080625Y-46517219D02*
X166175863Y-46564838D01*
X166175863Y-46564838D02*
X166223482Y-46612457D01*
X166223482Y-46612457D02*
X166271101Y-46707695D01*
X166271101Y-46707695D02*
X166271101Y-46802933D01*
X166271101Y-46802933D02*
X166223482Y-46898171D01*
X166223482Y-46898171D02*
X166175863Y-46945790D01*
X166175863Y-46945790D02*
X166080625Y-46993409D01*
X166080625Y-46993409D02*
X165747292Y-46993409D01*
X167175863Y-46850552D02*
X167175863Y-47517219D01*
X166747292Y-46850552D02*
X166747292Y-47374361D01*
X166747292Y-47374361D02*
X166794911Y-47469600D01*
X166794911Y-47469600D02*
X166890149Y-47517219D01*
X166890149Y-47517219D02*
X167033006Y-47517219D01*
X167033006Y-47517219D02*
X167128244Y-47469600D01*
X167128244Y-47469600D02*
X167175863Y-47421980D01*
X167604435Y-47469600D02*
X167699673Y-47517219D01*
X167699673Y-47517219D02*
X167890149Y-47517219D01*
X167890149Y-47517219D02*
X167985387Y-47469600D01*
X167985387Y-47469600D02*
X168033006Y-47374361D01*
X168033006Y-47374361D02*
X168033006Y-47326742D01*
X168033006Y-47326742D02*
X167985387Y-47231504D01*
X167985387Y-47231504D02*
X167890149Y-47183885D01*
X167890149Y-47183885D02*
X167747292Y-47183885D01*
X167747292Y-47183885D02*
X167652054Y-47136266D01*
X167652054Y-47136266D02*
X167604435Y-47041028D01*
X167604435Y-47041028D02*
X167604435Y-46993409D01*
X167604435Y-46993409D02*
X167652054Y-46898171D01*
X167652054Y-46898171D02*
X167747292Y-46850552D01*
X167747292Y-46850552D02*
X167890149Y-46850552D01*
X167890149Y-46850552D02*
X167985387Y-46898171D01*
X160423006Y-52933409D02*
X160565863Y-52981028D01*
X160565863Y-52981028D02*
X160613482Y-53028647D01*
X160613482Y-53028647D02*
X160661101Y-53123885D01*
X160661101Y-53123885D02*
X160661101Y-53266742D01*
X160661101Y-53266742D02*
X160613482Y-53361980D01*
X160613482Y-53361980D02*
X160565863Y-53409600D01*
X160565863Y-53409600D02*
X160470625Y-53457219D01*
X160470625Y-53457219D02*
X160089673Y-53457219D01*
X160089673Y-53457219D02*
X160089673Y-52457219D01*
X160089673Y-52457219D02*
X160423006Y-52457219D01*
X160423006Y-52457219D02*
X160518244Y-52504838D01*
X160518244Y-52504838D02*
X160565863Y-52552457D01*
X160565863Y-52552457D02*
X160613482Y-52647695D01*
X160613482Y-52647695D02*
X160613482Y-52742933D01*
X160613482Y-52742933D02*
X160565863Y-52838171D01*
X160565863Y-52838171D02*
X160518244Y-52885790D01*
X160518244Y-52885790D02*
X160423006Y-52933409D01*
X160423006Y-52933409D02*
X160089673Y-52933409D01*
X163403482Y-52464838D02*
X163308244Y-52417219D01*
X163308244Y-52417219D02*
X163165387Y-52417219D01*
X163165387Y-52417219D02*
X163022530Y-52464838D01*
X163022530Y-52464838D02*
X162927292Y-52560076D01*
X162927292Y-52560076D02*
X162879673Y-52655314D01*
X162879673Y-52655314D02*
X162832054Y-52845790D01*
X162832054Y-52845790D02*
X162832054Y-52988647D01*
X162832054Y-52988647D02*
X162879673Y-53179123D01*
X162879673Y-53179123D02*
X162927292Y-53274361D01*
X162927292Y-53274361D02*
X163022530Y-53369600D01*
X163022530Y-53369600D02*
X163165387Y-53417219D01*
X163165387Y-53417219D02*
X163260625Y-53417219D01*
X163260625Y-53417219D02*
X163403482Y-53369600D01*
X163403482Y-53369600D02*
X163451101Y-53321980D01*
X163451101Y-53321980D02*
X163451101Y-52988647D01*
X163451101Y-52988647D02*
X163260625Y-52988647D01*
X166081101Y-53417219D02*
X165747768Y-52941028D01*
X165509673Y-53417219D02*
X165509673Y-52417219D01*
X165509673Y-52417219D02*
X165890625Y-52417219D01*
X165890625Y-52417219D02*
X165985863Y-52464838D01*
X165985863Y-52464838D02*
X166033482Y-52512457D01*
X166033482Y-52512457D02*
X166081101Y-52607695D01*
X166081101Y-52607695D02*
X166081101Y-52750552D01*
X166081101Y-52750552D02*
X166033482Y-52845790D01*
X166033482Y-52845790D02*
X165985863Y-52893409D01*
X165985863Y-52893409D02*
X165890625Y-52941028D01*
X165890625Y-52941028D02*
X165509673Y-52941028D01*
X165872054Y-89012457D02*
X165919673Y-88964838D01*
X165919673Y-88964838D02*
X166014911Y-88917219D01*
X166014911Y-88917219D02*
X166253006Y-88917219D01*
X166253006Y-88917219D02*
X166348244Y-88964838D01*
X166348244Y-88964838D02*
X166395863Y-89012457D01*
X166395863Y-89012457D02*
X166443482Y-89107695D01*
X166443482Y-89107695D02*
X166443482Y-89202933D01*
X166443482Y-89202933D02*
X166395863Y-89345790D01*
X166395863Y-89345790D02*
X165824435Y-89917219D01*
X165824435Y-89917219D02*
X166443482Y-89917219D01*
X167062530Y-88917219D02*
X167157768Y-88917219D01*
X167157768Y-88917219D02*
X167253006Y-88964838D01*
X167253006Y-88964838D02*
X167300625Y-89012457D01*
X167300625Y-89012457D02*
X167348244Y-89107695D01*
X167348244Y-89107695D02*
X167395863Y-89298171D01*
X167395863Y-89298171D02*
X167395863Y-89536266D01*
X167395863Y-89536266D02*
X167348244Y-89726742D01*
X167348244Y-89726742D02*
X167300625Y-89821980D01*
X167300625Y-89821980D02*
X167253006Y-89869600D01*
X167253006Y-89869600D02*
X167157768Y-89917219D01*
X167157768Y-89917219D02*
X167062530Y-89917219D01*
X167062530Y-89917219D02*
X166967292Y-89869600D01*
X166967292Y-89869600D02*
X166919673Y-89821980D01*
X166919673Y-89821980D02*
X166872054Y-89726742D01*
X166872054Y-89726742D02*
X166824435Y-89536266D01*
X166824435Y-89536266D02*
X166824435Y-89298171D01*
X166824435Y-89298171D02*
X166872054Y-89107695D01*
X166872054Y-89107695D02*
X166919673Y-89012457D01*
X166919673Y-89012457D02*
X166967292Y-88964838D01*
X166967292Y-88964838D02*
X167062530Y-88917219D01*
X168586340Y-89917219D02*
X168586340Y-88917219D01*
X168586340Y-88917219D02*
X168967292Y-88917219D01*
X168967292Y-88917219D02*
X169062530Y-88964838D01*
X169062530Y-88964838D02*
X169110149Y-89012457D01*
X169110149Y-89012457D02*
X169157768Y-89107695D01*
X169157768Y-89107695D02*
X169157768Y-89250552D01*
X169157768Y-89250552D02*
X169110149Y-89345790D01*
X169110149Y-89345790D02*
X169062530Y-89393409D01*
X169062530Y-89393409D02*
X168967292Y-89441028D01*
X168967292Y-89441028D02*
X168586340Y-89441028D01*
X169586340Y-89917219D02*
X169586340Y-88917219D01*
X170062530Y-89917219D02*
X170062530Y-88917219D01*
X170062530Y-88917219D02*
X170633958Y-89917219D01*
X170633958Y-89917219D02*
X170633958Y-88917219D01*
X171872054Y-89917219D02*
X171872054Y-88917219D01*
X172919672Y-89821980D02*
X172872053Y-89869600D01*
X172872053Y-89869600D02*
X172729196Y-89917219D01*
X172729196Y-89917219D02*
X172633958Y-89917219D01*
X172633958Y-89917219D02*
X172491101Y-89869600D01*
X172491101Y-89869600D02*
X172395863Y-89774361D01*
X172395863Y-89774361D02*
X172348244Y-89679123D01*
X172348244Y-89679123D02*
X172300625Y-89488647D01*
X172300625Y-89488647D02*
X172300625Y-89345790D01*
X172300625Y-89345790D02*
X172348244Y-89155314D01*
X172348244Y-89155314D02*
X172395863Y-89060076D01*
X172395863Y-89060076D02*
X172491101Y-88964838D01*
X172491101Y-88964838D02*
X172633958Y-88917219D01*
X172633958Y-88917219D02*
X172729196Y-88917219D01*
X172729196Y-88917219D02*
X172872053Y-88964838D01*
X172872053Y-88964838D02*
X172919672Y-89012457D01*
X173395863Y-88917219D02*
X173300625Y-89107695D01*
X173776815Y-89869600D02*
X173872053Y-89917219D01*
X173872053Y-89917219D02*
X174062529Y-89917219D01*
X174062529Y-89917219D02*
X174157767Y-89869600D01*
X174157767Y-89869600D02*
X174205386Y-89774361D01*
X174205386Y-89774361D02*
X174205386Y-89726742D01*
X174205386Y-89726742D02*
X174157767Y-89631504D01*
X174157767Y-89631504D02*
X174062529Y-89583885D01*
X174062529Y-89583885D02*
X173919672Y-89583885D01*
X173919672Y-89583885D02*
X173824434Y-89536266D01*
X173824434Y-89536266D02*
X173776815Y-89441028D01*
X173776815Y-89441028D02*
X173776815Y-89393409D01*
X173776815Y-89393409D02*
X173824434Y-89298171D01*
X173824434Y-89298171D02*
X173919672Y-89250552D01*
X173919672Y-89250552D02*
X174062529Y-89250552D01*
X174062529Y-89250552D02*
X174157767Y-89298171D01*
X180823482Y-140307219D02*
X180252054Y-140307219D01*
X180537768Y-140307219D02*
X180537768Y-139307219D01*
X180537768Y-139307219D02*
X180442530Y-139450076D01*
X180442530Y-139450076D02*
X180347292Y-139545314D01*
X180347292Y-139545314D02*
X180252054Y-139592933D01*
X181680625Y-139307219D02*
X181490149Y-139307219D01*
X181490149Y-139307219D02*
X181394911Y-139354838D01*
X181394911Y-139354838D02*
X181347292Y-139402457D01*
X181347292Y-139402457D02*
X181252054Y-139545314D01*
X181252054Y-139545314D02*
X181204435Y-139735790D01*
X181204435Y-139735790D02*
X181204435Y-140116742D01*
X181204435Y-140116742D02*
X181252054Y-140211980D01*
X181252054Y-140211980D02*
X181299673Y-140259600D01*
X181299673Y-140259600D02*
X181394911Y-140307219D01*
X181394911Y-140307219D02*
X181585387Y-140307219D01*
X181585387Y-140307219D02*
X181680625Y-140259600D01*
X181680625Y-140259600D02*
X181728244Y-140211980D01*
X181728244Y-140211980D02*
X181775863Y-140116742D01*
X181775863Y-140116742D02*
X181775863Y-139878647D01*
X181775863Y-139878647D02*
X181728244Y-139783409D01*
X181728244Y-139783409D02*
X181680625Y-139735790D01*
X181680625Y-139735790D02*
X181585387Y-139688171D01*
X181585387Y-139688171D02*
X181394911Y-139688171D01*
X181394911Y-139688171D02*
X181299673Y-139735790D01*
X181299673Y-139735790D02*
X181252054Y-139783409D01*
X181252054Y-139783409D02*
X181204435Y-139878647D01*
X181413482Y-47767219D02*
X180842054Y-47767219D01*
X181127768Y-47767219D02*
X181127768Y-46767219D01*
X181127768Y-46767219D02*
X181032530Y-46910076D01*
X181032530Y-46910076D02*
X180937292Y-47005314D01*
X180937292Y-47005314D02*
X180842054Y-47052933D01*
X105553094Y-71027247D02*
X105553094Y-70027247D01*
X105553094Y-70408199D02*
X105648332Y-70360580D01*
X105648332Y-70360580D02*
X105838808Y-70360580D01*
X105838808Y-70360580D02*
X105934046Y-70408199D01*
X105934046Y-70408199D02*
X105981665Y-70455818D01*
X105981665Y-70455818D02*
X106029284Y-70551056D01*
X106029284Y-70551056D02*
X106029284Y-70836770D01*
X106029284Y-70836770D02*
X105981665Y-70932008D01*
X105981665Y-70932008D02*
X105934046Y-70979628D01*
X105934046Y-70979628D02*
X105838808Y-71027247D01*
X105838808Y-71027247D02*
X105648332Y-71027247D01*
X105648332Y-71027247D02*
X105553094Y-70979628D01*
X106886427Y-70360580D02*
X106886427Y-71027247D01*
X106457856Y-70360580D02*
X106457856Y-70884389D01*
X106457856Y-70884389D02*
X106505475Y-70979628D01*
X106505475Y-70979628D02*
X106600713Y-71027247D01*
X106600713Y-71027247D02*
X106743570Y-71027247D01*
X106743570Y-71027247D02*
X106838808Y-70979628D01*
X106838808Y-70979628D02*
X106886427Y-70932008D01*
X107267380Y-70360580D02*
X107791189Y-70360580D01*
X107791189Y-70360580D02*
X107267380Y-71027247D01*
X107267380Y-71027247D02*
X107791189Y-71027247D01*
X108076904Y-70360580D02*
X108600713Y-70360580D01*
X108600713Y-70360580D02*
X108076904Y-71027247D01*
X108076904Y-71027247D02*
X108600713Y-71027247D01*
X109362618Y-70979628D02*
X109267380Y-71027247D01*
X109267380Y-71027247D02*
X109076904Y-71027247D01*
X109076904Y-71027247D02*
X108981666Y-70979628D01*
X108981666Y-70979628D02*
X108934047Y-70884389D01*
X108934047Y-70884389D02*
X108934047Y-70503437D01*
X108934047Y-70503437D02*
X108981666Y-70408199D01*
X108981666Y-70408199D02*
X109076904Y-70360580D01*
X109076904Y-70360580D02*
X109267380Y-70360580D01*
X109267380Y-70360580D02*
X109362618Y-70408199D01*
X109362618Y-70408199D02*
X109410237Y-70503437D01*
X109410237Y-70503437D02*
X109410237Y-70598675D01*
X109410237Y-70598675D02*
X108934047Y-70693913D01*
X109838809Y-71027247D02*
X109838809Y-70360580D01*
X109838809Y-70551056D02*
X109886428Y-70455818D01*
X109886428Y-70455818D02*
X109934047Y-70408199D01*
X109934047Y-70408199D02*
X110029285Y-70360580D01*
X110029285Y-70360580D02*
X110124523Y-70360580D01*
X111219762Y-70360580D02*
X111219762Y-71360580D01*
X111219762Y-70408199D02*
X111315000Y-70360580D01*
X111315000Y-70360580D02*
X111505476Y-70360580D01*
X111505476Y-70360580D02*
X111600714Y-70408199D01*
X111600714Y-70408199D02*
X111648333Y-70455818D01*
X111648333Y-70455818D02*
X111695952Y-70551056D01*
X111695952Y-70551056D02*
X111695952Y-70836770D01*
X111695952Y-70836770D02*
X111648333Y-70932008D01*
X111648333Y-70932008D02*
X111600714Y-70979628D01*
X111600714Y-70979628D02*
X111505476Y-71027247D01*
X111505476Y-71027247D02*
X111315000Y-71027247D01*
X111315000Y-71027247D02*
X111219762Y-70979628D01*
X112267381Y-71027247D02*
X112172143Y-70979628D01*
X112172143Y-70979628D02*
X112124524Y-70932008D01*
X112124524Y-70932008D02*
X112076905Y-70836770D01*
X112076905Y-70836770D02*
X112076905Y-70551056D01*
X112076905Y-70551056D02*
X112124524Y-70455818D01*
X112124524Y-70455818D02*
X112172143Y-70408199D01*
X112172143Y-70408199D02*
X112267381Y-70360580D01*
X112267381Y-70360580D02*
X112410238Y-70360580D01*
X112410238Y-70360580D02*
X112505476Y-70408199D01*
X112505476Y-70408199D02*
X112553095Y-70455818D01*
X112553095Y-70455818D02*
X112600714Y-70551056D01*
X112600714Y-70551056D02*
X112600714Y-70836770D01*
X112600714Y-70836770D02*
X112553095Y-70932008D01*
X112553095Y-70932008D02*
X112505476Y-70979628D01*
X112505476Y-70979628D02*
X112410238Y-71027247D01*
X112410238Y-71027247D02*
X112267381Y-71027247D01*
X112934048Y-70360580D02*
X113124524Y-71027247D01*
X113124524Y-71027247D02*
X113315000Y-70551056D01*
X113315000Y-70551056D02*
X113505476Y-71027247D01*
X113505476Y-71027247D02*
X113695952Y-70360580D01*
X114457857Y-70979628D02*
X114362619Y-71027247D01*
X114362619Y-71027247D02*
X114172143Y-71027247D01*
X114172143Y-71027247D02*
X114076905Y-70979628D01*
X114076905Y-70979628D02*
X114029286Y-70884389D01*
X114029286Y-70884389D02*
X114029286Y-70503437D01*
X114029286Y-70503437D02*
X114076905Y-70408199D01*
X114076905Y-70408199D02*
X114172143Y-70360580D01*
X114172143Y-70360580D02*
X114362619Y-70360580D01*
X114362619Y-70360580D02*
X114457857Y-70408199D01*
X114457857Y-70408199D02*
X114505476Y-70503437D01*
X114505476Y-70503437D02*
X114505476Y-70598675D01*
X114505476Y-70598675D02*
X114029286Y-70693913D01*
X114934048Y-71027247D02*
X114934048Y-70360580D01*
X114934048Y-70551056D02*
X114981667Y-70455818D01*
X114981667Y-70455818D02*
X115029286Y-70408199D01*
X115029286Y-70408199D02*
X115124524Y-70360580D01*
X115124524Y-70360580D02*
X115219762Y-70360580D01*
X107743571Y-71637191D02*
X107743571Y-72351476D01*
X107743571Y-72351476D02*
X107695952Y-72494333D01*
X107695952Y-72494333D02*
X107600714Y-72589572D01*
X107600714Y-72589572D02*
X107457857Y-72637191D01*
X107457857Y-72637191D02*
X107362619Y-72637191D01*
X108648333Y-71970524D02*
X108648333Y-72637191D01*
X108219762Y-71970524D02*
X108219762Y-72494333D01*
X108219762Y-72494333D02*
X108267381Y-72589572D01*
X108267381Y-72589572D02*
X108362619Y-72637191D01*
X108362619Y-72637191D02*
X108505476Y-72637191D01*
X108505476Y-72637191D02*
X108600714Y-72589572D01*
X108600714Y-72589572D02*
X108648333Y-72541952D01*
X109124524Y-72637191D02*
X109124524Y-71970524D01*
X109124524Y-72065762D02*
X109172143Y-72018143D01*
X109172143Y-72018143D02*
X109267381Y-71970524D01*
X109267381Y-71970524D02*
X109410238Y-71970524D01*
X109410238Y-71970524D02*
X109505476Y-72018143D01*
X109505476Y-72018143D02*
X109553095Y-72113381D01*
X109553095Y-72113381D02*
X109553095Y-72637191D01*
X109553095Y-72113381D02*
X109600714Y-72018143D01*
X109600714Y-72018143D02*
X109695952Y-71970524D01*
X109695952Y-71970524D02*
X109838809Y-71970524D01*
X109838809Y-71970524D02*
X109934048Y-72018143D01*
X109934048Y-72018143D02*
X109981667Y-72113381D01*
X109981667Y-72113381D02*
X109981667Y-72637191D01*
X110457857Y-71970524D02*
X110457857Y-72970524D01*
X110457857Y-72018143D02*
X110553095Y-71970524D01*
X110553095Y-71970524D02*
X110743571Y-71970524D01*
X110743571Y-71970524D02*
X110838809Y-72018143D01*
X110838809Y-72018143D02*
X110886428Y-72065762D01*
X110886428Y-72065762D02*
X110934047Y-72161000D01*
X110934047Y-72161000D02*
X110934047Y-72446714D01*
X110934047Y-72446714D02*
X110886428Y-72541952D01*
X110886428Y-72541952D02*
X110838809Y-72589572D01*
X110838809Y-72589572D02*
X110743571Y-72637191D01*
X110743571Y-72637191D02*
X110553095Y-72637191D01*
X110553095Y-72637191D02*
X110457857Y-72589572D01*
X111743571Y-72589572D02*
X111648333Y-72637191D01*
X111648333Y-72637191D02*
X111457857Y-72637191D01*
X111457857Y-72637191D02*
X111362619Y-72589572D01*
X111362619Y-72589572D02*
X111315000Y-72494333D01*
X111315000Y-72494333D02*
X111315000Y-72113381D01*
X111315000Y-72113381D02*
X111362619Y-72018143D01*
X111362619Y-72018143D02*
X111457857Y-71970524D01*
X111457857Y-71970524D02*
X111648333Y-71970524D01*
X111648333Y-71970524D02*
X111743571Y-72018143D01*
X111743571Y-72018143D02*
X111791190Y-72113381D01*
X111791190Y-72113381D02*
X111791190Y-72208619D01*
X111791190Y-72208619D02*
X111315000Y-72303857D01*
X112219762Y-72637191D02*
X112219762Y-71970524D01*
X112219762Y-72161000D02*
X112267381Y-72065762D01*
X112267381Y-72065762D02*
X112315000Y-72018143D01*
X112315000Y-72018143D02*
X112410238Y-71970524D01*
X112410238Y-71970524D02*
X112505476Y-71970524D01*
X112791191Y-72589572D02*
X112886429Y-72637191D01*
X112886429Y-72637191D02*
X113076905Y-72637191D01*
X113076905Y-72637191D02*
X113172143Y-72589572D01*
X113172143Y-72589572D02*
X113219762Y-72494333D01*
X113219762Y-72494333D02*
X113219762Y-72446714D01*
X113219762Y-72446714D02*
X113172143Y-72351476D01*
X113172143Y-72351476D02*
X113076905Y-72303857D01*
X113076905Y-72303857D02*
X112934048Y-72303857D01*
X112934048Y-72303857D02*
X112838810Y-72256238D01*
X112838810Y-72256238D02*
X112791191Y-72161000D01*
X112791191Y-72161000D02*
X112791191Y-72113381D01*
X112791191Y-72113381D02*
X112838810Y-72018143D01*
X112838810Y-72018143D02*
X112934048Y-71970524D01*
X112934048Y-71970524D02*
X113076905Y-71970524D01*
X113076905Y-71970524D02*
X113172143Y-72018143D01*
X110153333Y-114317275D02*
X110153333Y-113317275D01*
X110153333Y-113317275D02*
X110391428Y-113317275D01*
X110391428Y-113317275D02*
X110534285Y-113364894D01*
X110534285Y-113364894D02*
X110629523Y-113460132D01*
X110629523Y-113460132D02*
X110677142Y-113555370D01*
X110677142Y-113555370D02*
X110724761Y-113745846D01*
X110724761Y-113745846D02*
X110724761Y-113888703D01*
X110724761Y-113888703D02*
X110677142Y-114079179D01*
X110677142Y-114079179D02*
X110629523Y-114174417D01*
X110629523Y-114174417D02*
X110534285Y-114269656D01*
X110534285Y-114269656D02*
X110391428Y-114317275D01*
X110391428Y-114317275D02*
X110153333Y-114317275D01*
X111581904Y-114317275D02*
X111581904Y-113793465D01*
X111581904Y-113793465D02*
X111534285Y-113698227D01*
X111534285Y-113698227D02*
X111439047Y-113650608D01*
X111439047Y-113650608D02*
X111248571Y-113650608D01*
X111248571Y-113650608D02*
X111153333Y-113698227D01*
X111581904Y-114269656D02*
X111486666Y-114317275D01*
X111486666Y-114317275D02*
X111248571Y-114317275D01*
X111248571Y-114317275D02*
X111153333Y-114269656D01*
X111153333Y-114269656D02*
X111105714Y-114174417D01*
X111105714Y-114174417D02*
X111105714Y-114079179D01*
X111105714Y-114079179D02*
X111153333Y-113983941D01*
X111153333Y-113983941D02*
X111248571Y-113936322D01*
X111248571Y-113936322D02*
X111486666Y-113936322D01*
X111486666Y-113936322D02*
X111581904Y-113888703D01*
X111962857Y-113650608D02*
X112200952Y-114317275D01*
X112200952Y-114317275D02*
X112439047Y-113650608D01*
X113200952Y-114269656D02*
X113105714Y-114317275D01*
X113105714Y-114317275D02*
X112915238Y-114317275D01*
X112915238Y-114317275D02*
X112820000Y-114269656D01*
X112820000Y-114269656D02*
X112772381Y-114174417D01*
X112772381Y-114174417D02*
X112772381Y-113793465D01*
X112772381Y-113793465D02*
X112820000Y-113698227D01*
X112820000Y-113698227D02*
X112915238Y-113650608D01*
X112915238Y-113650608D02*
X113105714Y-113650608D01*
X113105714Y-113650608D02*
X113200952Y-113698227D01*
X113200952Y-113698227D02*
X113248571Y-113793465D01*
X113248571Y-113793465D02*
X113248571Y-113888703D01*
X113248571Y-113888703D02*
X112772381Y-113983941D01*
X113724762Y-113317275D02*
X113629524Y-113507751D01*
X114105714Y-114269656D02*
X114200952Y-114317275D01*
X114200952Y-114317275D02*
X114391428Y-114317275D01*
X114391428Y-114317275D02*
X114486666Y-114269656D01*
X114486666Y-114269656D02*
X114534285Y-114174417D01*
X114534285Y-114174417D02*
X114534285Y-114126798D01*
X114534285Y-114126798D02*
X114486666Y-114031560D01*
X114486666Y-114031560D02*
X114391428Y-113983941D01*
X114391428Y-113983941D02*
X114248571Y-113983941D01*
X114248571Y-113983941D02*
X114153333Y-113936322D01*
X114153333Y-113936322D02*
X114105714Y-113841084D01*
X114105714Y-113841084D02*
X114105714Y-113793465D01*
X114105714Y-113793465D02*
X114153333Y-113698227D01*
X114153333Y-113698227D02*
X114248571Y-113650608D01*
X114248571Y-113650608D02*
X114391428Y-113650608D01*
X114391428Y-113650608D02*
X114486666Y-113698227D01*
X115867619Y-113745846D02*
X115772381Y-113698227D01*
X115772381Y-113698227D02*
X115724762Y-113650608D01*
X115724762Y-113650608D02*
X115677143Y-113555370D01*
X115677143Y-113555370D02*
X115677143Y-113507751D01*
X115677143Y-113507751D02*
X115724762Y-113412513D01*
X115724762Y-113412513D02*
X115772381Y-113364894D01*
X115772381Y-113364894D02*
X115867619Y-113317275D01*
X115867619Y-113317275D02*
X116058095Y-113317275D01*
X116058095Y-113317275D02*
X116153333Y-113364894D01*
X116153333Y-113364894D02*
X116200952Y-113412513D01*
X116200952Y-113412513D02*
X116248571Y-113507751D01*
X116248571Y-113507751D02*
X116248571Y-113555370D01*
X116248571Y-113555370D02*
X116200952Y-113650608D01*
X116200952Y-113650608D02*
X116153333Y-113698227D01*
X116153333Y-113698227D02*
X116058095Y-113745846D01*
X116058095Y-113745846D02*
X115867619Y-113745846D01*
X115867619Y-113745846D02*
X115772381Y-113793465D01*
X115772381Y-113793465D02*
X115724762Y-113841084D01*
X115724762Y-113841084D02*
X115677143Y-113936322D01*
X115677143Y-113936322D02*
X115677143Y-114126798D01*
X115677143Y-114126798D02*
X115724762Y-114222036D01*
X115724762Y-114222036D02*
X115772381Y-114269656D01*
X115772381Y-114269656D02*
X115867619Y-114317275D01*
X115867619Y-114317275D02*
X116058095Y-114317275D01*
X116058095Y-114317275D02*
X116153333Y-114269656D01*
X116153333Y-114269656D02*
X116200952Y-114222036D01*
X116200952Y-114222036D02*
X116248571Y-114126798D01*
X116248571Y-114126798D02*
X116248571Y-113936322D01*
X116248571Y-113936322D02*
X116200952Y-113841084D01*
X116200952Y-113841084D02*
X116153333Y-113793465D01*
X116153333Y-113793465D02*
X116058095Y-113745846D01*
X116677143Y-113936322D02*
X117439048Y-113936322D01*
X118248571Y-113793465D02*
X118391428Y-113841084D01*
X118391428Y-113841084D02*
X118439047Y-113888703D01*
X118439047Y-113888703D02*
X118486666Y-113983941D01*
X118486666Y-113983941D02*
X118486666Y-114126798D01*
X118486666Y-114126798D02*
X118439047Y-114222036D01*
X118439047Y-114222036D02*
X118391428Y-114269656D01*
X118391428Y-114269656D02*
X118296190Y-114317275D01*
X118296190Y-114317275D02*
X117915238Y-114317275D01*
X117915238Y-114317275D02*
X117915238Y-113317275D01*
X117915238Y-113317275D02*
X118248571Y-113317275D01*
X118248571Y-113317275D02*
X118343809Y-113364894D01*
X118343809Y-113364894D02*
X118391428Y-113412513D01*
X118391428Y-113412513D02*
X118439047Y-113507751D01*
X118439047Y-113507751D02*
X118439047Y-113602989D01*
X118439047Y-113602989D02*
X118391428Y-113698227D01*
X118391428Y-113698227D02*
X118343809Y-113745846D01*
X118343809Y-113745846D02*
X118248571Y-113793465D01*
X118248571Y-113793465D02*
X117915238Y-113793465D01*
X118915238Y-114317275D02*
X118915238Y-113650608D01*
X118915238Y-113317275D02*
X118867619Y-113364894D01*
X118867619Y-113364894D02*
X118915238Y-113412513D01*
X118915238Y-113412513D02*
X118962857Y-113364894D01*
X118962857Y-113364894D02*
X118915238Y-113317275D01*
X118915238Y-113317275D02*
X118915238Y-113412513D01*
X119248571Y-113650608D02*
X119629523Y-113650608D01*
X119391428Y-113317275D02*
X119391428Y-114174417D01*
X119391428Y-114174417D02*
X119439047Y-114269656D01*
X119439047Y-114269656D02*
X119534285Y-114317275D01*
X119534285Y-114317275D02*
X119629523Y-114317275D01*
X121058095Y-113793465D02*
X121200952Y-113841084D01*
X121200952Y-113841084D02*
X121248571Y-113888703D01*
X121248571Y-113888703D02*
X121296190Y-113983941D01*
X121296190Y-113983941D02*
X121296190Y-114126798D01*
X121296190Y-114126798D02*
X121248571Y-114222036D01*
X121248571Y-114222036D02*
X121200952Y-114269656D01*
X121200952Y-114269656D02*
X121105714Y-114317275D01*
X121105714Y-114317275D02*
X120724762Y-114317275D01*
X120724762Y-114317275D02*
X120724762Y-113317275D01*
X120724762Y-113317275D02*
X121058095Y-113317275D01*
X121058095Y-113317275D02*
X121153333Y-113364894D01*
X121153333Y-113364894D02*
X121200952Y-113412513D01*
X121200952Y-113412513D02*
X121248571Y-113507751D01*
X121248571Y-113507751D02*
X121248571Y-113602989D01*
X121248571Y-113602989D02*
X121200952Y-113698227D01*
X121200952Y-113698227D02*
X121153333Y-113745846D01*
X121153333Y-113745846D02*
X121058095Y-113793465D01*
X121058095Y-113793465D02*
X120724762Y-113793465D01*
X122153333Y-114317275D02*
X122153333Y-113793465D01*
X122153333Y-113793465D02*
X122105714Y-113698227D01*
X122105714Y-113698227D02*
X122010476Y-113650608D01*
X122010476Y-113650608D02*
X121820000Y-113650608D01*
X121820000Y-113650608D02*
X121724762Y-113698227D01*
X122153333Y-114269656D02*
X122058095Y-114317275D01*
X122058095Y-114317275D02*
X121820000Y-114317275D01*
X121820000Y-114317275D02*
X121724762Y-114269656D01*
X121724762Y-114269656D02*
X121677143Y-114174417D01*
X121677143Y-114174417D02*
X121677143Y-114079179D01*
X121677143Y-114079179D02*
X121724762Y-113983941D01*
X121724762Y-113983941D02*
X121820000Y-113936322D01*
X121820000Y-113936322D02*
X122058095Y-113936322D01*
X122058095Y-113936322D02*
X122153333Y-113888703D01*
X122581905Y-114269656D02*
X122677143Y-114317275D01*
X122677143Y-114317275D02*
X122867619Y-114317275D01*
X122867619Y-114317275D02*
X122962857Y-114269656D01*
X122962857Y-114269656D02*
X123010476Y-114174417D01*
X123010476Y-114174417D02*
X123010476Y-114126798D01*
X123010476Y-114126798D02*
X122962857Y-114031560D01*
X122962857Y-114031560D02*
X122867619Y-113983941D01*
X122867619Y-113983941D02*
X122724762Y-113983941D01*
X122724762Y-113983941D02*
X122629524Y-113936322D01*
X122629524Y-113936322D02*
X122581905Y-113841084D01*
X122581905Y-113841084D02*
X122581905Y-113793465D01*
X122581905Y-113793465D02*
X122629524Y-113698227D01*
X122629524Y-113698227D02*
X122724762Y-113650608D01*
X122724762Y-113650608D02*
X122867619Y-113650608D01*
X122867619Y-113650608D02*
X122962857Y-113698227D01*
X123820000Y-114269656D02*
X123724762Y-114317275D01*
X123724762Y-114317275D02*
X123534286Y-114317275D01*
X123534286Y-114317275D02*
X123439048Y-114269656D01*
X123439048Y-114269656D02*
X123391429Y-114174417D01*
X123391429Y-114174417D02*
X123391429Y-113793465D01*
X123391429Y-113793465D02*
X123439048Y-113698227D01*
X123439048Y-113698227D02*
X123534286Y-113650608D01*
X123534286Y-113650608D02*
X123724762Y-113650608D01*
X123724762Y-113650608D02*
X123820000Y-113698227D01*
X123820000Y-113698227D02*
X123867619Y-113793465D01*
X123867619Y-113793465D02*
X123867619Y-113888703D01*
X123867619Y-113888703D02*
X123391429Y-113983941D01*
X124296191Y-114317275D02*
X124296191Y-113650608D01*
X124296191Y-113745846D02*
X124343810Y-113698227D01*
X124343810Y-113698227D02*
X124439048Y-113650608D01*
X124439048Y-113650608D02*
X124581905Y-113650608D01*
X124581905Y-113650608D02*
X124677143Y-113698227D01*
X124677143Y-113698227D02*
X124724762Y-113793465D01*
X124724762Y-113793465D02*
X124724762Y-114317275D01*
X124724762Y-113793465D02*
X124772381Y-113698227D01*
X124772381Y-113698227D02*
X124867619Y-113650608D01*
X124867619Y-113650608D02*
X125010476Y-113650608D01*
X125010476Y-113650608D02*
X125105715Y-113698227D01*
X125105715Y-113698227D02*
X125153334Y-113793465D01*
X125153334Y-113793465D02*
X125153334Y-114317275D01*
X126010476Y-114269656D02*
X125915238Y-114317275D01*
X125915238Y-114317275D02*
X125724762Y-114317275D01*
X125724762Y-114317275D02*
X125629524Y-114269656D01*
X125629524Y-114269656D02*
X125581905Y-114174417D01*
X125581905Y-114174417D02*
X125581905Y-113793465D01*
X125581905Y-113793465D02*
X125629524Y-113698227D01*
X125629524Y-113698227D02*
X125724762Y-113650608D01*
X125724762Y-113650608D02*
X125915238Y-113650608D01*
X125915238Y-113650608D02*
X126010476Y-113698227D01*
X126010476Y-113698227D02*
X126058095Y-113793465D01*
X126058095Y-113793465D02*
X126058095Y-113888703D01*
X126058095Y-113888703D02*
X125581905Y-113983941D01*
X126486667Y-113650608D02*
X126486667Y-114317275D01*
X126486667Y-113745846D02*
X126534286Y-113698227D01*
X126534286Y-113698227D02*
X126629524Y-113650608D01*
X126629524Y-113650608D02*
X126772381Y-113650608D01*
X126772381Y-113650608D02*
X126867619Y-113698227D01*
X126867619Y-113698227D02*
X126915238Y-113793465D01*
X126915238Y-113793465D02*
X126915238Y-114317275D01*
X127248572Y-113650608D02*
X127629524Y-113650608D01*
X127391429Y-113317275D02*
X127391429Y-114174417D01*
X127391429Y-114174417D02*
X127439048Y-114269656D01*
X127439048Y-114269656D02*
X127534286Y-114317275D01*
X127534286Y-114317275D02*
X127629524Y-114317275D01*
X106605713Y-115260552D02*
X106843808Y-115927219D01*
X107081903Y-115260552D02*
X106843808Y-115927219D01*
X106843808Y-115927219D02*
X106748570Y-116165314D01*
X106748570Y-116165314D02*
X106700951Y-116212933D01*
X106700951Y-116212933D02*
X106605713Y-116260552D01*
X107605713Y-115927219D02*
X107510475Y-115879600D01*
X107510475Y-115879600D02*
X107462856Y-115831980D01*
X107462856Y-115831980D02*
X107415237Y-115736742D01*
X107415237Y-115736742D02*
X107415237Y-115451028D01*
X107415237Y-115451028D02*
X107462856Y-115355790D01*
X107462856Y-115355790D02*
X107510475Y-115308171D01*
X107510475Y-115308171D02*
X107605713Y-115260552D01*
X107605713Y-115260552D02*
X107748570Y-115260552D01*
X107748570Y-115260552D02*
X107843808Y-115308171D01*
X107843808Y-115308171D02*
X107891427Y-115355790D01*
X107891427Y-115355790D02*
X107939046Y-115451028D01*
X107939046Y-115451028D02*
X107939046Y-115736742D01*
X107939046Y-115736742D02*
X107891427Y-115831980D01*
X107891427Y-115831980D02*
X107843808Y-115879600D01*
X107843808Y-115879600D02*
X107748570Y-115927219D01*
X107748570Y-115927219D02*
X107605713Y-115927219D01*
X108796189Y-115260552D02*
X108796189Y-115927219D01*
X108367618Y-115260552D02*
X108367618Y-115784361D01*
X108367618Y-115784361D02*
X108415237Y-115879600D01*
X108415237Y-115879600D02*
X108510475Y-115927219D01*
X108510475Y-115927219D02*
X108653332Y-115927219D01*
X108653332Y-115927219D02*
X108748570Y-115879600D01*
X108748570Y-115879600D02*
X108796189Y-115831980D01*
X109129523Y-115260552D02*
X109510475Y-115260552D01*
X109272380Y-114927219D02*
X109272380Y-115784361D01*
X109272380Y-115784361D02*
X109319999Y-115879600D01*
X109319999Y-115879600D02*
X109415237Y-115927219D01*
X109415237Y-115927219D02*
X109510475Y-115927219D01*
X110272380Y-115260552D02*
X110272380Y-115927219D01*
X109843809Y-115260552D02*
X109843809Y-115784361D01*
X109843809Y-115784361D02*
X109891428Y-115879600D01*
X109891428Y-115879600D02*
X109986666Y-115927219D01*
X109986666Y-115927219D02*
X110129523Y-115927219D01*
X110129523Y-115927219D02*
X110224761Y-115879600D01*
X110224761Y-115879600D02*
X110272380Y-115831980D01*
X110748571Y-115927219D02*
X110748571Y-114927219D01*
X110748571Y-115308171D02*
X110843809Y-115260552D01*
X110843809Y-115260552D02*
X111034285Y-115260552D01*
X111034285Y-115260552D02*
X111129523Y-115308171D01*
X111129523Y-115308171D02*
X111177142Y-115355790D01*
X111177142Y-115355790D02*
X111224761Y-115451028D01*
X111224761Y-115451028D02*
X111224761Y-115736742D01*
X111224761Y-115736742D02*
X111177142Y-115831980D01*
X111177142Y-115831980D02*
X111129523Y-115879600D01*
X111129523Y-115879600D02*
X111034285Y-115927219D01*
X111034285Y-115927219D02*
X110843809Y-115927219D01*
X110843809Y-115927219D02*
X110748571Y-115879600D01*
X112034285Y-115879600D02*
X111939047Y-115927219D01*
X111939047Y-115927219D02*
X111748571Y-115927219D01*
X111748571Y-115927219D02*
X111653333Y-115879600D01*
X111653333Y-115879600D02*
X111605714Y-115784361D01*
X111605714Y-115784361D02*
X111605714Y-115403409D01*
X111605714Y-115403409D02*
X111653333Y-115308171D01*
X111653333Y-115308171D02*
X111748571Y-115260552D01*
X111748571Y-115260552D02*
X111939047Y-115260552D01*
X111939047Y-115260552D02*
X112034285Y-115308171D01*
X112034285Y-115308171D02*
X112081904Y-115403409D01*
X112081904Y-115403409D02*
X112081904Y-115498647D01*
X112081904Y-115498647D02*
X111605714Y-115593885D01*
X112510476Y-115831980D02*
X112558095Y-115879600D01*
X112558095Y-115879600D02*
X112510476Y-115927219D01*
X112510476Y-115927219D02*
X112462857Y-115879600D01*
X112462857Y-115879600D02*
X112510476Y-115831980D01*
X112510476Y-115831980D02*
X112510476Y-115927219D01*
X113415237Y-115879600D02*
X113319999Y-115927219D01*
X113319999Y-115927219D02*
X113129523Y-115927219D01*
X113129523Y-115927219D02*
X113034285Y-115879600D01*
X113034285Y-115879600D02*
X112986666Y-115831980D01*
X112986666Y-115831980D02*
X112939047Y-115736742D01*
X112939047Y-115736742D02*
X112939047Y-115451028D01*
X112939047Y-115451028D02*
X112986666Y-115355790D01*
X112986666Y-115355790D02*
X113034285Y-115308171D01*
X113034285Y-115308171D02*
X113129523Y-115260552D01*
X113129523Y-115260552D02*
X113319999Y-115260552D01*
X113319999Y-115260552D02*
X113415237Y-115308171D01*
X113986666Y-115927219D02*
X113891428Y-115879600D01*
X113891428Y-115879600D02*
X113843809Y-115831980D01*
X113843809Y-115831980D02*
X113796190Y-115736742D01*
X113796190Y-115736742D02*
X113796190Y-115451028D01*
X113796190Y-115451028D02*
X113843809Y-115355790D01*
X113843809Y-115355790D02*
X113891428Y-115308171D01*
X113891428Y-115308171D02*
X113986666Y-115260552D01*
X113986666Y-115260552D02*
X114129523Y-115260552D01*
X114129523Y-115260552D02*
X114224761Y-115308171D01*
X114224761Y-115308171D02*
X114272380Y-115355790D01*
X114272380Y-115355790D02*
X114319999Y-115451028D01*
X114319999Y-115451028D02*
X114319999Y-115736742D01*
X114319999Y-115736742D02*
X114272380Y-115831980D01*
X114272380Y-115831980D02*
X114224761Y-115879600D01*
X114224761Y-115879600D02*
X114129523Y-115927219D01*
X114129523Y-115927219D02*
X113986666Y-115927219D01*
X114748571Y-115927219D02*
X114748571Y-115260552D01*
X114748571Y-115355790D02*
X114796190Y-115308171D01*
X114796190Y-115308171D02*
X114891428Y-115260552D01*
X114891428Y-115260552D02*
X115034285Y-115260552D01*
X115034285Y-115260552D02*
X115129523Y-115308171D01*
X115129523Y-115308171D02*
X115177142Y-115403409D01*
X115177142Y-115403409D02*
X115177142Y-115927219D01*
X115177142Y-115403409D02*
X115224761Y-115308171D01*
X115224761Y-115308171D02*
X115319999Y-115260552D01*
X115319999Y-115260552D02*
X115462856Y-115260552D01*
X115462856Y-115260552D02*
X115558095Y-115308171D01*
X115558095Y-115308171D02*
X115605714Y-115403409D01*
X115605714Y-115403409D02*
X115605714Y-115927219D01*
X116796189Y-114879600D02*
X115939047Y-116165314D01*
X117558094Y-115927219D02*
X117558094Y-114927219D01*
X117558094Y-115879600D02*
X117462856Y-115927219D01*
X117462856Y-115927219D02*
X117272380Y-115927219D01*
X117272380Y-115927219D02*
X117177142Y-115879600D01*
X117177142Y-115879600D02*
X117129523Y-115831980D01*
X117129523Y-115831980D02*
X117081904Y-115736742D01*
X117081904Y-115736742D02*
X117081904Y-115451028D01*
X117081904Y-115451028D02*
X117129523Y-115355790D01*
X117129523Y-115355790D02*
X117177142Y-115308171D01*
X117177142Y-115308171D02*
X117272380Y-115260552D01*
X117272380Y-115260552D02*
X117462856Y-115260552D01*
X117462856Y-115260552D02*
X117558094Y-115308171D01*
X118462856Y-115927219D02*
X118462856Y-115403409D01*
X118462856Y-115403409D02*
X118415237Y-115308171D01*
X118415237Y-115308171D02*
X118319999Y-115260552D01*
X118319999Y-115260552D02*
X118129523Y-115260552D01*
X118129523Y-115260552D02*
X118034285Y-115308171D01*
X118462856Y-115879600D02*
X118367618Y-115927219D01*
X118367618Y-115927219D02*
X118129523Y-115927219D01*
X118129523Y-115927219D02*
X118034285Y-115879600D01*
X118034285Y-115879600D02*
X117986666Y-115784361D01*
X117986666Y-115784361D02*
X117986666Y-115689123D01*
X117986666Y-115689123D02*
X118034285Y-115593885D01*
X118034285Y-115593885D02*
X118129523Y-115546266D01*
X118129523Y-115546266D02*
X118367618Y-115546266D01*
X118367618Y-115546266D02*
X118462856Y-115498647D01*
X118843809Y-115260552D02*
X119081904Y-115927219D01*
X119081904Y-115927219D02*
X119319999Y-115260552D01*
X120081904Y-115879600D02*
X119986666Y-115927219D01*
X119986666Y-115927219D02*
X119796190Y-115927219D01*
X119796190Y-115927219D02*
X119700952Y-115879600D01*
X119700952Y-115879600D02*
X119653333Y-115784361D01*
X119653333Y-115784361D02*
X119653333Y-115403409D01*
X119653333Y-115403409D02*
X119700952Y-115308171D01*
X119700952Y-115308171D02*
X119796190Y-115260552D01*
X119796190Y-115260552D02*
X119986666Y-115260552D01*
X119986666Y-115260552D02*
X120081904Y-115308171D01*
X120081904Y-115308171D02*
X120129523Y-115403409D01*
X120129523Y-115403409D02*
X120129523Y-115498647D01*
X120129523Y-115498647D02*
X119653333Y-115593885D01*
X120510476Y-115879600D02*
X120605714Y-115927219D01*
X120605714Y-115927219D02*
X120796190Y-115927219D01*
X120796190Y-115927219D02*
X120891428Y-115879600D01*
X120891428Y-115879600D02*
X120939047Y-115784361D01*
X120939047Y-115784361D02*
X120939047Y-115736742D01*
X120939047Y-115736742D02*
X120891428Y-115641504D01*
X120891428Y-115641504D02*
X120796190Y-115593885D01*
X120796190Y-115593885D02*
X120653333Y-115593885D01*
X120653333Y-115593885D02*
X120558095Y-115546266D01*
X120558095Y-115546266D02*
X120510476Y-115451028D01*
X120510476Y-115451028D02*
X120510476Y-115403409D01*
X120510476Y-115403409D02*
X120558095Y-115308171D01*
X120558095Y-115308171D02*
X120653333Y-115260552D01*
X120653333Y-115260552D02*
X120796190Y-115260552D01*
X120796190Y-115260552D02*
X120891428Y-115308171D01*
X121510476Y-115355790D02*
X121415238Y-115308171D01*
X121415238Y-115308171D02*
X121367619Y-115260552D01*
X121367619Y-115260552D02*
X121320000Y-115165314D01*
X121320000Y-115165314D02*
X121320000Y-115117695D01*
X121320000Y-115117695D02*
X121367619Y-115022457D01*
X121367619Y-115022457D02*
X121415238Y-114974838D01*
X121415238Y-114974838D02*
X121510476Y-114927219D01*
X121510476Y-114927219D02*
X121700952Y-114927219D01*
X121700952Y-114927219D02*
X121796190Y-114974838D01*
X121796190Y-114974838D02*
X121843809Y-115022457D01*
X121843809Y-115022457D02*
X121891428Y-115117695D01*
X121891428Y-115117695D02*
X121891428Y-115165314D01*
X121891428Y-115165314D02*
X121843809Y-115260552D01*
X121843809Y-115260552D02*
X121796190Y-115308171D01*
X121796190Y-115308171D02*
X121700952Y-115355790D01*
X121700952Y-115355790D02*
X121510476Y-115355790D01*
X121510476Y-115355790D02*
X121415238Y-115403409D01*
X121415238Y-115403409D02*
X121367619Y-115451028D01*
X121367619Y-115451028D02*
X121320000Y-115546266D01*
X121320000Y-115546266D02*
X121320000Y-115736742D01*
X121320000Y-115736742D02*
X121367619Y-115831980D01*
X121367619Y-115831980D02*
X121415238Y-115879600D01*
X121415238Y-115879600D02*
X121510476Y-115927219D01*
X121510476Y-115927219D02*
X121700952Y-115927219D01*
X121700952Y-115927219D02*
X121796190Y-115879600D01*
X121796190Y-115879600D02*
X121843809Y-115831980D01*
X121843809Y-115831980D02*
X121891428Y-115736742D01*
X121891428Y-115736742D02*
X121891428Y-115546266D01*
X121891428Y-115546266D02*
X121843809Y-115451028D01*
X121843809Y-115451028D02*
X121796190Y-115403409D01*
X121796190Y-115403409D02*
X121700952Y-115355790D01*
X122320000Y-115927219D02*
X122320000Y-114927219D01*
X122320000Y-115308171D02*
X122415238Y-115260552D01*
X122415238Y-115260552D02*
X122605714Y-115260552D01*
X122605714Y-115260552D02*
X122700952Y-115308171D01*
X122700952Y-115308171D02*
X122748571Y-115355790D01*
X122748571Y-115355790D02*
X122796190Y-115451028D01*
X122796190Y-115451028D02*
X122796190Y-115736742D01*
X122796190Y-115736742D02*
X122748571Y-115831980D01*
X122748571Y-115831980D02*
X122700952Y-115879600D01*
X122700952Y-115879600D02*
X122605714Y-115927219D01*
X122605714Y-115927219D02*
X122415238Y-115927219D01*
X122415238Y-115927219D02*
X122320000Y-115879600D01*
X123224762Y-115927219D02*
X123224762Y-115260552D01*
X123224762Y-114927219D02*
X123177143Y-114974838D01*
X123177143Y-114974838D02*
X123224762Y-115022457D01*
X123224762Y-115022457D02*
X123272381Y-114974838D01*
X123272381Y-114974838D02*
X123224762Y-114927219D01*
X123224762Y-114927219D02*
X123224762Y-115022457D01*
X123558095Y-115260552D02*
X123939047Y-115260552D01*
X123700952Y-114927219D02*
X123700952Y-115784361D01*
X123700952Y-115784361D02*
X123748571Y-115879600D01*
X123748571Y-115879600D02*
X123843809Y-115927219D01*
X123843809Y-115927219D02*
X123939047Y-115927219D01*
X124272381Y-115927219D02*
X124272381Y-114927219D01*
X124272381Y-115308171D02*
X124367619Y-115260552D01*
X124367619Y-115260552D02*
X124558095Y-115260552D01*
X124558095Y-115260552D02*
X124653333Y-115308171D01*
X124653333Y-115308171D02*
X124700952Y-115355790D01*
X124700952Y-115355790D02*
X124748571Y-115451028D01*
X124748571Y-115451028D02*
X124748571Y-115736742D01*
X124748571Y-115736742D02*
X124700952Y-115831980D01*
X124700952Y-115831980D02*
X124653333Y-115879600D01*
X124653333Y-115879600D02*
X124558095Y-115927219D01*
X124558095Y-115927219D02*
X124367619Y-115927219D01*
X124367619Y-115927219D02*
X124272381Y-115879600D01*
X125605714Y-115927219D02*
X125605714Y-115403409D01*
X125605714Y-115403409D02*
X125558095Y-115308171D01*
X125558095Y-115308171D02*
X125462857Y-115260552D01*
X125462857Y-115260552D02*
X125272381Y-115260552D01*
X125272381Y-115260552D02*
X125177143Y-115308171D01*
X125605714Y-115879600D02*
X125510476Y-115927219D01*
X125510476Y-115927219D02*
X125272381Y-115927219D01*
X125272381Y-115927219D02*
X125177143Y-115879600D01*
X125177143Y-115879600D02*
X125129524Y-115784361D01*
X125129524Y-115784361D02*
X125129524Y-115689123D01*
X125129524Y-115689123D02*
X125177143Y-115593885D01*
X125177143Y-115593885D02*
X125272381Y-115546266D01*
X125272381Y-115546266D02*
X125510476Y-115546266D01*
X125510476Y-115546266D02*
X125605714Y-115498647D01*
X126034286Y-115879600D02*
X126129524Y-115927219D01*
X126129524Y-115927219D02*
X126320000Y-115927219D01*
X126320000Y-115927219D02*
X126415238Y-115879600D01*
X126415238Y-115879600D02*
X126462857Y-115784361D01*
X126462857Y-115784361D02*
X126462857Y-115736742D01*
X126462857Y-115736742D02*
X126415238Y-115641504D01*
X126415238Y-115641504D02*
X126320000Y-115593885D01*
X126320000Y-115593885D02*
X126177143Y-115593885D01*
X126177143Y-115593885D02*
X126081905Y-115546266D01*
X126081905Y-115546266D02*
X126034286Y-115451028D01*
X126034286Y-115451028D02*
X126034286Y-115403409D01*
X126034286Y-115403409D02*
X126081905Y-115308171D01*
X126081905Y-115308171D02*
X126177143Y-115260552D01*
X126177143Y-115260552D02*
X126320000Y-115260552D01*
X126320000Y-115260552D02*
X126415238Y-115308171D01*
X127272381Y-115879600D02*
X127177143Y-115927219D01*
X127177143Y-115927219D02*
X126986667Y-115927219D01*
X126986667Y-115927219D02*
X126891429Y-115879600D01*
X126891429Y-115879600D02*
X126843810Y-115784361D01*
X126843810Y-115784361D02*
X126843810Y-115403409D01*
X126843810Y-115403409D02*
X126891429Y-115308171D01*
X126891429Y-115308171D02*
X126986667Y-115260552D01*
X126986667Y-115260552D02*
X127177143Y-115260552D01*
X127177143Y-115260552D02*
X127272381Y-115308171D01*
X127272381Y-115308171D02*
X127320000Y-115403409D01*
X127320000Y-115403409D02*
X127320000Y-115498647D01*
X127320000Y-115498647D02*
X126843810Y-115593885D01*
X127748572Y-115927219D02*
X127748572Y-115260552D01*
X127748572Y-115355790D02*
X127796191Y-115308171D01*
X127796191Y-115308171D02*
X127891429Y-115260552D01*
X127891429Y-115260552D02*
X128034286Y-115260552D01*
X128034286Y-115260552D02*
X128129524Y-115308171D01*
X128129524Y-115308171D02*
X128177143Y-115403409D01*
X128177143Y-115403409D02*
X128177143Y-115927219D01*
X128177143Y-115403409D02*
X128224762Y-115308171D01*
X128224762Y-115308171D02*
X128320000Y-115260552D01*
X128320000Y-115260552D02*
X128462857Y-115260552D01*
X128462857Y-115260552D02*
X128558096Y-115308171D01*
X128558096Y-115308171D02*
X128605715Y-115403409D01*
X128605715Y-115403409D02*
X128605715Y-115927219D01*
X129462857Y-115879600D02*
X129367619Y-115927219D01*
X129367619Y-115927219D02*
X129177143Y-115927219D01*
X129177143Y-115927219D02*
X129081905Y-115879600D01*
X129081905Y-115879600D02*
X129034286Y-115784361D01*
X129034286Y-115784361D02*
X129034286Y-115403409D01*
X129034286Y-115403409D02*
X129081905Y-115308171D01*
X129081905Y-115308171D02*
X129177143Y-115260552D01*
X129177143Y-115260552D02*
X129367619Y-115260552D01*
X129367619Y-115260552D02*
X129462857Y-115308171D01*
X129462857Y-115308171D02*
X129510476Y-115403409D01*
X129510476Y-115403409D02*
X129510476Y-115498647D01*
X129510476Y-115498647D02*
X129034286Y-115593885D01*
X129939048Y-115260552D02*
X129939048Y-115927219D01*
X129939048Y-115355790D02*
X129986667Y-115308171D01*
X129986667Y-115308171D02*
X130081905Y-115260552D01*
X130081905Y-115260552D02*
X130224762Y-115260552D01*
X130224762Y-115260552D02*
X130320000Y-115308171D01*
X130320000Y-115308171D02*
X130367619Y-115403409D01*
X130367619Y-115403409D02*
X130367619Y-115927219D01*
X130700953Y-115260552D02*
X131081905Y-115260552D01*
X130843810Y-114927219D02*
X130843810Y-115784361D01*
X130843810Y-115784361D02*
X130891429Y-115879600D01*
X130891429Y-115879600D02*
X130986667Y-115927219D01*
X130986667Y-115927219D02*
X131081905Y-115927219D01*
X102027219Y-107810326D02*
X101027219Y-107810326D01*
X101027219Y-107810326D02*
X101027219Y-107429374D01*
X101027219Y-107429374D02*
X101074838Y-107334136D01*
X101074838Y-107334136D02*
X101122457Y-107286517D01*
X101122457Y-107286517D02*
X101217695Y-107238898D01*
X101217695Y-107238898D02*
X101360552Y-107238898D01*
X101360552Y-107238898D02*
X101455790Y-107286517D01*
X101455790Y-107286517D02*
X101503409Y-107334136D01*
X101503409Y-107334136D02*
X101551028Y-107429374D01*
X101551028Y-107429374D02*
X101551028Y-107810326D01*
X102027219Y-106667469D02*
X101979600Y-106762707D01*
X101979600Y-106762707D02*
X101931980Y-106810326D01*
X101931980Y-106810326D02*
X101836742Y-106857945D01*
X101836742Y-106857945D02*
X101551028Y-106857945D01*
X101551028Y-106857945D02*
X101455790Y-106810326D01*
X101455790Y-106810326D02*
X101408171Y-106762707D01*
X101408171Y-106762707D02*
X101360552Y-106667469D01*
X101360552Y-106667469D02*
X101360552Y-106524612D01*
X101360552Y-106524612D02*
X101408171Y-106429374D01*
X101408171Y-106429374D02*
X101455790Y-106381755D01*
X101455790Y-106381755D02*
X101551028Y-106334136D01*
X101551028Y-106334136D02*
X101836742Y-106334136D01*
X101836742Y-106334136D02*
X101931980Y-106381755D01*
X101931980Y-106381755D02*
X101979600Y-106429374D01*
X101979600Y-106429374D02*
X102027219Y-106524612D01*
X102027219Y-106524612D02*
X102027219Y-106667469D01*
X101360552Y-106000802D02*
X102027219Y-105810326D01*
X102027219Y-105810326D02*
X101551028Y-105619850D01*
X101551028Y-105619850D02*
X102027219Y-105429374D01*
X102027219Y-105429374D02*
X101360552Y-105238898D01*
X101979600Y-104476993D02*
X102027219Y-104572231D01*
X102027219Y-104572231D02*
X102027219Y-104762707D01*
X102027219Y-104762707D02*
X101979600Y-104857945D01*
X101979600Y-104857945D02*
X101884361Y-104905564D01*
X101884361Y-104905564D02*
X101503409Y-104905564D01*
X101503409Y-104905564D02*
X101408171Y-104857945D01*
X101408171Y-104857945D02*
X101360552Y-104762707D01*
X101360552Y-104762707D02*
X101360552Y-104572231D01*
X101360552Y-104572231D02*
X101408171Y-104476993D01*
X101408171Y-104476993D02*
X101503409Y-104429374D01*
X101503409Y-104429374D02*
X101598647Y-104429374D01*
X101598647Y-104429374D02*
X101693885Y-104905564D01*
X102027219Y-104000802D02*
X101360552Y-104000802D01*
X101551028Y-104000802D02*
X101455790Y-103953183D01*
X101455790Y-103953183D02*
X101408171Y-103905564D01*
X101408171Y-103905564D02*
X101360552Y-103810326D01*
X101360552Y-103810326D02*
X101360552Y-103715088D01*
X102027219Y-102619849D02*
X101027219Y-102619849D01*
X101503409Y-102619849D02*
X101503409Y-102048421D01*
X102027219Y-102048421D02*
X101027219Y-102048421D01*
X101979600Y-101191278D02*
X102027219Y-101286516D01*
X102027219Y-101286516D02*
X102027219Y-101476992D01*
X102027219Y-101476992D02*
X101979600Y-101572230D01*
X101979600Y-101572230D02*
X101884361Y-101619849D01*
X101884361Y-101619849D02*
X101503409Y-101619849D01*
X101503409Y-101619849D02*
X101408171Y-101572230D01*
X101408171Y-101572230D02*
X101360552Y-101476992D01*
X101360552Y-101476992D02*
X101360552Y-101286516D01*
X101360552Y-101286516D02*
X101408171Y-101191278D01*
X101408171Y-101191278D02*
X101503409Y-101143659D01*
X101503409Y-101143659D02*
X101598647Y-101143659D01*
X101598647Y-101143659D02*
X101693885Y-101619849D01*
X102027219Y-100286516D02*
X101503409Y-100286516D01*
X101503409Y-100286516D02*
X101408171Y-100334135D01*
X101408171Y-100334135D02*
X101360552Y-100429373D01*
X101360552Y-100429373D02*
X101360552Y-100619849D01*
X101360552Y-100619849D02*
X101408171Y-100715087D01*
X101979600Y-100286516D02*
X102027219Y-100381754D01*
X102027219Y-100381754D02*
X102027219Y-100619849D01*
X102027219Y-100619849D02*
X101979600Y-100715087D01*
X101979600Y-100715087D02*
X101884361Y-100762706D01*
X101884361Y-100762706D02*
X101789123Y-100762706D01*
X101789123Y-100762706D02*
X101693885Y-100715087D01*
X101693885Y-100715087D02*
X101646266Y-100619849D01*
X101646266Y-100619849D02*
X101646266Y-100381754D01*
X101646266Y-100381754D02*
X101598647Y-100286516D01*
X102027219Y-99381754D02*
X101027219Y-99381754D01*
X101979600Y-99381754D02*
X102027219Y-99476992D01*
X102027219Y-99476992D02*
X102027219Y-99667468D01*
X102027219Y-99667468D02*
X101979600Y-99762706D01*
X101979600Y-99762706D02*
X101931980Y-99810325D01*
X101931980Y-99810325D02*
X101836742Y-99857944D01*
X101836742Y-99857944D02*
X101551028Y-99857944D01*
X101551028Y-99857944D02*
X101455790Y-99810325D01*
X101455790Y-99810325D02*
X101408171Y-99762706D01*
X101408171Y-99762706D02*
X101360552Y-99667468D01*
X101360552Y-99667468D02*
X101360552Y-99476992D01*
X101360552Y-99476992D02*
X101408171Y-99381754D01*
X101979600Y-98524611D02*
X102027219Y-98619849D01*
X102027219Y-98619849D02*
X102027219Y-98810325D01*
X102027219Y-98810325D02*
X101979600Y-98905563D01*
X101979600Y-98905563D02*
X101884361Y-98953182D01*
X101884361Y-98953182D02*
X101503409Y-98953182D01*
X101503409Y-98953182D02*
X101408171Y-98905563D01*
X101408171Y-98905563D02*
X101360552Y-98810325D01*
X101360552Y-98810325D02*
X101360552Y-98619849D01*
X101360552Y-98619849D02*
X101408171Y-98524611D01*
X101408171Y-98524611D02*
X101503409Y-98476992D01*
X101503409Y-98476992D02*
X101598647Y-98476992D01*
X101598647Y-98476992D02*
X101693885Y-98953182D01*
X102027219Y-98048420D02*
X101360552Y-98048420D01*
X101551028Y-98048420D02*
X101455790Y-98000801D01*
X101455790Y-98000801D02*
X101408171Y-97953182D01*
X101408171Y-97953182D02*
X101360552Y-97857944D01*
X101360552Y-97857944D02*
X101360552Y-97762706D01*
X161754838Y-59496517D02*
X161707219Y-59591755D01*
X161707219Y-59591755D02*
X161707219Y-59734612D01*
X161707219Y-59734612D02*
X161754838Y-59877469D01*
X161754838Y-59877469D02*
X161850076Y-59972707D01*
X161850076Y-59972707D02*
X161945314Y-60020326D01*
X161945314Y-60020326D02*
X162135790Y-60067945D01*
X162135790Y-60067945D02*
X162278647Y-60067945D01*
X162278647Y-60067945D02*
X162469123Y-60020326D01*
X162469123Y-60020326D02*
X162564361Y-59972707D01*
X162564361Y-59972707D02*
X162659600Y-59877469D01*
X162659600Y-59877469D02*
X162707219Y-59734612D01*
X162707219Y-59734612D02*
X162707219Y-59639374D01*
X162707219Y-59639374D02*
X162659600Y-59496517D01*
X162659600Y-59496517D02*
X162611980Y-59448898D01*
X162611980Y-59448898D02*
X162278647Y-59448898D01*
X162278647Y-59448898D02*
X162278647Y-59639374D01*
X162707219Y-59020326D02*
X161707219Y-59020326D01*
X161707219Y-59020326D02*
X162707219Y-58448898D01*
X162707219Y-58448898D02*
X161707219Y-58448898D01*
X162707219Y-57972707D02*
X161707219Y-57972707D01*
X161707219Y-57972707D02*
X161707219Y-57734612D01*
X161707219Y-57734612D02*
X161754838Y-57591755D01*
X161754838Y-57591755D02*
X161850076Y-57496517D01*
X161850076Y-57496517D02*
X161945314Y-57448898D01*
X161945314Y-57448898D02*
X162135790Y-57401279D01*
X162135790Y-57401279D02*
X162278647Y-57401279D01*
X162278647Y-57401279D02*
X162469123Y-57448898D01*
X162469123Y-57448898D02*
X162564361Y-57496517D01*
X162564361Y-57496517D02*
X162659600Y-57591755D01*
X162659600Y-57591755D02*
X162707219Y-57734612D01*
X162707219Y-57734612D02*
X162707219Y-57972707D01*
X164217219Y-60063183D02*
X165217219Y-59729850D01*
X165217219Y-59729850D02*
X164217219Y-59396517D01*
X165121980Y-58491755D02*
X165169600Y-58539374D01*
X165169600Y-58539374D02*
X165217219Y-58682231D01*
X165217219Y-58682231D02*
X165217219Y-58777469D01*
X165217219Y-58777469D02*
X165169600Y-58920326D01*
X165169600Y-58920326D02*
X165074361Y-59015564D01*
X165074361Y-59015564D02*
X164979123Y-59063183D01*
X164979123Y-59063183D02*
X164788647Y-59110802D01*
X164788647Y-59110802D02*
X164645790Y-59110802D01*
X164645790Y-59110802D02*
X164455314Y-59063183D01*
X164455314Y-59063183D02*
X164360076Y-59015564D01*
X164360076Y-59015564D02*
X164264838Y-58920326D01*
X164264838Y-58920326D02*
X164217219Y-58777469D01*
X164217219Y-58777469D02*
X164217219Y-58682231D01*
X164217219Y-58682231D02*
X164264838Y-58539374D01*
X164264838Y-58539374D02*
X164312457Y-58491755D01*
X165121980Y-57491755D02*
X165169600Y-57539374D01*
X165169600Y-57539374D02*
X165217219Y-57682231D01*
X165217219Y-57682231D02*
X165217219Y-57777469D01*
X165217219Y-57777469D02*
X165169600Y-57920326D01*
X165169600Y-57920326D02*
X165074361Y-58015564D01*
X165074361Y-58015564D02*
X164979123Y-58063183D01*
X164979123Y-58063183D02*
X164788647Y-58110802D01*
X164788647Y-58110802D02*
X164645790Y-58110802D01*
X164645790Y-58110802D02*
X164455314Y-58063183D01*
X164455314Y-58063183D02*
X164360076Y-58015564D01*
X164360076Y-58015564D02*
X164264838Y-57920326D01*
X164264838Y-57920326D02*
X164217219Y-57777469D01*
X164217219Y-57777469D02*
X164217219Y-57682231D01*
X164217219Y-57682231D02*
X164264838Y-57539374D01*
X164264838Y-57539374D02*
X164312457Y-57491755D01*
X167739600Y-60127945D02*
X167787219Y-59985088D01*
X167787219Y-59985088D02*
X167787219Y-59746993D01*
X167787219Y-59746993D02*
X167739600Y-59651755D01*
X167739600Y-59651755D02*
X167691980Y-59604136D01*
X167691980Y-59604136D02*
X167596742Y-59556517D01*
X167596742Y-59556517D02*
X167501504Y-59556517D01*
X167501504Y-59556517D02*
X167406266Y-59604136D01*
X167406266Y-59604136D02*
X167358647Y-59651755D01*
X167358647Y-59651755D02*
X167311028Y-59746993D01*
X167311028Y-59746993D02*
X167263409Y-59937469D01*
X167263409Y-59937469D02*
X167215790Y-60032707D01*
X167215790Y-60032707D02*
X167168171Y-60080326D01*
X167168171Y-60080326D02*
X167072933Y-60127945D01*
X167072933Y-60127945D02*
X166977695Y-60127945D01*
X166977695Y-60127945D02*
X166882457Y-60080326D01*
X166882457Y-60080326D02*
X166834838Y-60032707D01*
X166834838Y-60032707D02*
X166787219Y-59937469D01*
X166787219Y-59937469D02*
X166787219Y-59699374D01*
X166787219Y-59699374D02*
X166834838Y-59556517D01*
X167691980Y-58556517D02*
X167739600Y-58604136D01*
X167739600Y-58604136D02*
X167787219Y-58746993D01*
X167787219Y-58746993D02*
X167787219Y-58842231D01*
X167787219Y-58842231D02*
X167739600Y-58985088D01*
X167739600Y-58985088D02*
X167644361Y-59080326D01*
X167644361Y-59080326D02*
X167549123Y-59127945D01*
X167549123Y-59127945D02*
X167358647Y-59175564D01*
X167358647Y-59175564D02*
X167215790Y-59175564D01*
X167215790Y-59175564D02*
X167025314Y-59127945D01*
X167025314Y-59127945D02*
X166930076Y-59080326D01*
X166930076Y-59080326D02*
X166834838Y-58985088D01*
X166834838Y-58985088D02*
X166787219Y-58842231D01*
X166787219Y-58842231D02*
X166787219Y-58746993D01*
X166787219Y-58746993D02*
X166834838Y-58604136D01*
X166834838Y-58604136D02*
X166882457Y-58556517D01*
X167787219Y-57651755D02*
X167787219Y-58127945D01*
X167787219Y-58127945D02*
X166787219Y-58127945D01*
X168649600Y-55137945D02*
X168697219Y-54995088D01*
X168697219Y-54995088D02*
X168697219Y-54756993D01*
X168697219Y-54756993D02*
X168649600Y-54661755D01*
X168649600Y-54661755D02*
X168601980Y-54614136D01*
X168601980Y-54614136D02*
X168506742Y-54566517D01*
X168506742Y-54566517D02*
X168411504Y-54566517D01*
X168411504Y-54566517D02*
X168316266Y-54614136D01*
X168316266Y-54614136D02*
X168268647Y-54661755D01*
X168268647Y-54661755D02*
X168221028Y-54756993D01*
X168221028Y-54756993D02*
X168173409Y-54947469D01*
X168173409Y-54947469D02*
X168125790Y-55042707D01*
X168125790Y-55042707D02*
X168078171Y-55090326D01*
X168078171Y-55090326D02*
X167982933Y-55137945D01*
X167982933Y-55137945D02*
X167887695Y-55137945D01*
X167887695Y-55137945D02*
X167792457Y-55090326D01*
X167792457Y-55090326D02*
X167744838Y-55042707D01*
X167744838Y-55042707D02*
X167697219Y-54947469D01*
X167697219Y-54947469D02*
X167697219Y-54709374D01*
X167697219Y-54709374D02*
X167744838Y-54566517D01*
X168601980Y-53566517D02*
X168649600Y-53614136D01*
X168649600Y-53614136D02*
X168697219Y-53756993D01*
X168697219Y-53756993D02*
X168697219Y-53852231D01*
X168697219Y-53852231D02*
X168649600Y-53995088D01*
X168649600Y-53995088D02*
X168554361Y-54090326D01*
X168554361Y-54090326D02*
X168459123Y-54137945D01*
X168459123Y-54137945D02*
X168268647Y-54185564D01*
X168268647Y-54185564D02*
X168125790Y-54185564D01*
X168125790Y-54185564D02*
X167935314Y-54137945D01*
X167935314Y-54137945D02*
X167840076Y-54090326D01*
X167840076Y-54090326D02*
X167744838Y-53995088D01*
X167744838Y-53995088D02*
X167697219Y-53852231D01*
X167697219Y-53852231D02*
X167697219Y-53756993D01*
X167697219Y-53756993D02*
X167744838Y-53614136D01*
X167744838Y-53614136D02*
X167792457Y-53566517D01*
X168697219Y-52661755D02*
X168697219Y-53137945D01*
X168697219Y-53137945D02*
X167697219Y-53137945D01*
X170449600Y-60077945D02*
X170497219Y-59935088D01*
X170497219Y-59935088D02*
X170497219Y-59696993D01*
X170497219Y-59696993D02*
X170449600Y-59601755D01*
X170449600Y-59601755D02*
X170401980Y-59554136D01*
X170401980Y-59554136D02*
X170306742Y-59506517D01*
X170306742Y-59506517D02*
X170211504Y-59506517D01*
X170211504Y-59506517D02*
X170116266Y-59554136D01*
X170116266Y-59554136D02*
X170068647Y-59601755D01*
X170068647Y-59601755D02*
X170021028Y-59696993D01*
X170021028Y-59696993D02*
X169973409Y-59887469D01*
X169973409Y-59887469D02*
X169925790Y-59982707D01*
X169925790Y-59982707D02*
X169878171Y-60030326D01*
X169878171Y-60030326D02*
X169782933Y-60077945D01*
X169782933Y-60077945D02*
X169687695Y-60077945D01*
X169687695Y-60077945D02*
X169592457Y-60030326D01*
X169592457Y-60030326D02*
X169544838Y-59982707D01*
X169544838Y-59982707D02*
X169497219Y-59887469D01*
X169497219Y-59887469D02*
X169497219Y-59649374D01*
X169497219Y-59649374D02*
X169544838Y-59506517D01*
X170497219Y-59077945D02*
X169497219Y-59077945D01*
X169497219Y-59077945D02*
X169497219Y-58839850D01*
X169497219Y-58839850D02*
X169544838Y-58696993D01*
X169544838Y-58696993D02*
X169640076Y-58601755D01*
X169640076Y-58601755D02*
X169735314Y-58554136D01*
X169735314Y-58554136D02*
X169925790Y-58506517D01*
X169925790Y-58506517D02*
X170068647Y-58506517D01*
X170068647Y-58506517D02*
X170259123Y-58554136D01*
X170259123Y-58554136D02*
X170354361Y-58601755D01*
X170354361Y-58601755D02*
X170449600Y-58696993D01*
X170449600Y-58696993D02*
X170497219Y-58839850D01*
X170497219Y-58839850D02*
X170497219Y-59077945D01*
X170211504Y-58125564D02*
X170211504Y-57649374D01*
X170497219Y-58220802D02*
X169497219Y-57887469D01*
X169497219Y-57887469D02*
X170497219Y-57554136D01*
X171159600Y-55167945D02*
X171207219Y-55025088D01*
X171207219Y-55025088D02*
X171207219Y-54786993D01*
X171207219Y-54786993D02*
X171159600Y-54691755D01*
X171159600Y-54691755D02*
X171111980Y-54644136D01*
X171111980Y-54644136D02*
X171016742Y-54596517D01*
X171016742Y-54596517D02*
X170921504Y-54596517D01*
X170921504Y-54596517D02*
X170826266Y-54644136D01*
X170826266Y-54644136D02*
X170778647Y-54691755D01*
X170778647Y-54691755D02*
X170731028Y-54786993D01*
X170731028Y-54786993D02*
X170683409Y-54977469D01*
X170683409Y-54977469D02*
X170635790Y-55072707D01*
X170635790Y-55072707D02*
X170588171Y-55120326D01*
X170588171Y-55120326D02*
X170492933Y-55167945D01*
X170492933Y-55167945D02*
X170397695Y-55167945D01*
X170397695Y-55167945D02*
X170302457Y-55120326D01*
X170302457Y-55120326D02*
X170254838Y-55072707D01*
X170254838Y-55072707D02*
X170207219Y-54977469D01*
X170207219Y-54977469D02*
X170207219Y-54739374D01*
X170207219Y-54739374D02*
X170254838Y-54596517D01*
X171207219Y-54167945D02*
X170207219Y-54167945D01*
X170207219Y-54167945D02*
X170207219Y-53929850D01*
X170207219Y-53929850D02*
X170254838Y-53786993D01*
X170254838Y-53786993D02*
X170350076Y-53691755D01*
X170350076Y-53691755D02*
X170445314Y-53644136D01*
X170445314Y-53644136D02*
X170635790Y-53596517D01*
X170635790Y-53596517D02*
X170778647Y-53596517D01*
X170778647Y-53596517D02*
X170969123Y-53644136D01*
X170969123Y-53644136D02*
X171064361Y-53691755D01*
X171064361Y-53691755D02*
X171159600Y-53786993D01*
X171159600Y-53786993D02*
X171207219Y-53929850D01*
X171207219Y-53929850D02*
X171207219Y-54167945D01*
X170921504Y-53215564D02*
X170921504Y-52739374D01*
X171207219Y-53310802D02*
X170207219Y-52977469D01*
X170207219Y-52977469D02*
X171207219Y-52644136D01*
X140601101Y-94310504D02*
X140601101Y-93010504D01*
X140601101Y-93010504D02*
X141096339Y-93010504D01*
X141096339Y-93010504D02*
X141220149Y-93072409D01*
X141220149Y-93072409D02*
X141282054Y-93134314D01*
X141282054Y-93134314D02*
X141343958Y-93258123D01*
X141343958Y-93258123D02*
X141343958Y-93443838D01*
X141343958Y-93443838D02*
X141282054Y-93567647D01*
X141282054Y-93567647D02*
X141220149Y-93629552D01*
X141220149Y-93629552D02*
X141096339Y-93691457D01*
X141096339Y-93691457D02*
X140601101Y-93691457D01*
X141901101Y-94310504D02*
X141901101Y-93443838D01*
X141901101Y-93010504D02*
X141839197Y-93072409D01*
X141839197Y-93072409D02*
X141901101Y-93134314D01*
X141901101Y-93134314D02*
X141963006Y-93072409D01*
X141963006Y-93072409D02*
X141901101Y-93010504D01*
X141901101Y-93010504D02*
X141901101Y-93134314D01*
X142520149Y-93443838D02*
X142520149Y-94310504D01*
X142520149Y-93567647D02*
X142582054Y-93505742D01*
X142582054Y-93505742D02*
X142705864Y-93443838D01*
X142705864Y-93443838D02*
X142891578Y-93443838D01*
X142891578Y-93443838D02*
X143015387Y-93505742D01*
X143015387Y-93505742D02*
X143077292Y-93629552D01*
X143077292Y-93629552D02*
X143077292Y-94310504D01*
X143696339Y-93815266D02*
X144686816Y-93815266D01*
X145243959Y-93134314D02*
X145305863Y-93072409D01*
X145305863Y-93072409D02*
X145429673Y-93010504D01*
X145429673Y-93010504D02*
X145739197Y-93010504D01*
X145739197Y-93010504D02*
X145863006Y-93072409D01*
X145863006Y-93072409D02*
X145924911Y-93134314D01*
X145924911Y-93134314D02*
X145986816Y-93258123D01*
X145986816Y-93258123D02*
X145986816Y-93381933D01*
X145986816Y-93381933D02*
X145924911Y-93567647D01*
X145924911Y-93567647D02*
X145182054Y-94310504D01*
X145182054Y-94310504D02*
X145986816Y-94310504D01*
X146791577Y-93010504D02*
X146915387Y-93010504D01*
X146915387Y-93010504D02*
X147039196Y-93072409D01*
X147039196Y-93072409D02*
X147101101Y-93134314D01*
X147101101Y-93134314D02*
X147163006Y-93258123D01*
X147163006Y-93258123D02*
X147224911Y-93505742D01*
X147224911Y-93505742D02*
X147224911Y-93815266D01*
X147224911Y-93815266D02*
X147163006Y-94062885D01*
X147163006Y-94062885D02*
X147101101Y-94186695D01*
X147101101Y-94186695D02*
X147039196Y-94248600D01*
X147039196Y-94248600D02*
X146915387Y-94310504D01*
X146915387Y-94310504D02*
X146791577Y-94310504D01*
X146791577Y-94310504D02*
X146667768Y-94248600D01*
X146667768Y-94248600D02*
X146605863Y-94186695D01*
X146605863Y-94186695D02*
X146543958Y-94062885D01*
X146543958Y-94062885D02*
X146482054Y-93815266D01*
X146482054Y-93815266D02*
X146482054Y-93505742D01*
X146482054Y-93505742D02*
X146543958Y-93258123D01*
X146543958Y-93258123D02*
X146605863Y-93134314D01*
X146605863Y-93134314D02*
X146667768Y-93072409D01*
X146667768Y-93072409D02*
X146791577Y-93010504D01*
X142301101Y-114150504D02*
X142301101Y-112850504D01*
X142301101Y-112850504D02*
X142796339Y-112850504D01*
X142796339Y-112850504D02*
X142920149Y-112912409D01*
X142920149Y-112912409D02*
X142982054Y-112974314D01*
X142982054Y-112974314D02*
X143043958Y-113098123D01*
X143043958Y-113098123D02*
X143043958Y-113283838D01*
X143043958Y-113283838D02*
X142982054Y-113407647D01*
X142982054Y-113407647D02*
X142920149Y-113469552D01*
X142920149Y-113469552D02*
X142796339Y-113531457D01*
X142796339Y-113531457D02*
X142301101Y-113531457D01*
X143601101Y-114150504D02*
X143601101Y-113283838D01*
X143601101Y-112850504D02*
X143539197Y-112912409D01*
X143539197Y-112912409D02*
X143601101Y-112974314D01*
X143601101Y-112974314D02*
X143663006Y-112912409D01*
X143663006Y-112912409D02*
X143601101Y-112850504D01*
X143601101Y-112850504D02*
X143601101Y-112974314D01*
X144220149Y-113283838D02*
X144220149Y-114150504D01*
X144220149Y-113407647D02*
X144282054Y-113345742D01*
X144282054Y-113345742D02*
X144405864Y-113283838D01*
X144405864Y-113283838D02*
X144591578Y-113283838D01*
X144591578Y-113283838D02*
X144715387Y-113345742D01*
X144715387Y-113345742D02*
X144777292Y-113469552D01*
X144777292Y-113469552D02*
X144777292Y-114150504D01*
X145396339Y-113655266D02*
X146386816Y-113655266D01*
X147686816Y-114150504D02*
X146943959Y-114150504D01*
X147315387Y-114150504D02*
X147315387Y-112850504D01*
X147315387Y-112850504D02*
X147191578Y-113036219D01*
X147191578Y-113036219D02*
X147067768Y-113160028D01*
X147067768Y-113160028D02*
X146943959Y-113221933D01*
D12*
X161773082Y-116153400D02*
X161987368Y-116215304D01*
X161987368Y-116215304D02*
X162344510Y-116215304D01*
X162344510Y-116215304D02*
X162487368Y-116153400D01*
X162487368Y-116153400D02*
X162558796Y-116091495D01*
X162558796Y-116091495D02*
X162630225Y-115967685D01*
X162630225Y-115967685D02*
X162630225Y-115843876D01*
X162630225Y-115843876D02*
X162558796Y-115720066D01*
X162558796Y-115720066D02*
X162487368Y-115658161D01*
X162487368Y-115658161D02*
X162344510Y-115596257D01*
X162344510Y-115596257D02*
X162058796Y-115534352D01*
X162058796Y-115534352D02*
X161915939Y-115472447D01*
X161915939Y-115472447D02*
X161844510Y-115410542D01*
X161844510Y-115410542D02*
X161773082Y-115286733D01*
X161773082Y-115286733D02*
X161773082Y-115162923D01*
X161773082Y-115162923D02*
X161844510Y-115039114D01*
X161844510Y-115039114D02*
X161915939Y-114977209D01*
X161915939Y-114977209D02*
X162058796Y-114915304D01*
X162058796Y-114915304D02*
X162415939Y-114915304D01*
X162415939Y-114915304D02*
X162630225Y-114977209D01*
X163273081Y-115534352D02*
X163773081Y-115534352D01*
X163987367Y-116215304D02*
X163273081Y-116215304D01*
X163273081Y-116215304D02*
X163273081Y-114915304D01*
X163273081Y-114915304D02*
X163987367Y-114915304D01*
X165344510Y-116215304D02*
X164630224Y-116215304D01*
X164630224Y-116215304D02*
X164630224Y-114915304D01*
X165844510Y-115534352D02*
X166344510Y-115534352D01*
X166558796Y-116215304D02*
X165844510Y-116215304D01*
X165844510Y-116215304D02*
X165844510Y-114915304D01*
X165844510Y-114915304D02*
X166558796Y-114915304D01*
X168058796Y-116091495D02*
X167987368Y-116153400D01*
X167987368Y-116153400D02*
X167773082Y-116215304D01*
X167773082Y-116215304D02*
X167630225Y-116215304D01*
X167630225Y-116215304D02*
X167415939Y-116153400D01*
X167415939Y-116153400D02*
X167273082Y-116029590D01*
X167273082Y-116029590D02*
X167201653Y-115905780D01*
X167201653Y-115905780D02*
X167130225Y-115658161D01*
X167130225Y-115658161D02*
X167130225Y-115472447D01*
X167130225Y-115472447D02*
X167201653Y-115224828D01*
X167201653Y-115224828D02*
X167273082Y-115101019D01*
X167273082Y-115101019D02*
X167415939Y-114977209D01*
X167415939Y-114977209D02*
X167630225Y-114915304D01*
X167630225Y-114915304D02*
X167773082Y-114915304D01*
X167773082Y-114915304D02*
X167987368Y-114977209D01*
X167987368Y-114977209D02*
X168058796Y-115039114D01*
X168487368Y-114915304D02*
X169344511Y-114915304D01*
X168915939Y-116215304D02*
X168915939Y-114915304D01*
X172058796Y-114853400D02*
X170773082Y-116524828D01*
X173701653Y-116215304D02*
X173701653Y-114915304D01*
X173701653Y-114915304D02*
X174558796Y-116215304D01*
X174558796Y-116215304D02*
X174558796Y-114915304D01*
X175273082Y-115534352D02*
X175773082Y-115534352D01*
X175987368Y-116215304D02*
X175273082Y-116215304D01*
X175273082Y-116215304D02*
X175273082Y-114915304D01*
X175273082Y-114915304D02*
X175987368Y-114915304D01*
X176487368Y-114915304D02*
X177487368Y-116215304D01*
X177487368Y-114915304D02*
X176487368Y-116215304D01*
X177844511Y-114915304D02*
X178701654Y-114915304D01*
X178273082Y-116215304D02*
X178273082Y-114915304D01*
X95338796Y-46730828D02*
X94624510Y-46730828D01*
X94624510Y-46730828D02*
X94553082Y-47445114D01*
X94553082Y-47445114D02*
X94624510Y-47373685D01*
X94624510Y-47373685D02*
X94767368Y-47302257D01*
X94767368Y-47302257D02*
X95124510Y-47302257D01*
X95124510Y-47302257D02*
X95267368Y-47373685D01*
X95267368Y-47373685D02*
X95338796Y-47445114D01*
X95338796Y-47445114D02*
X95410225Y-47587971D01*
X95410225Y-47587971D02*
X95410225Y-47945114D01*
X95410225Y-47945114D02*
X95338796Y-48087971D01*
X95338796Y-48087971D02*
X95267368Y-48159400D01*
X95267368Y-48159400D02*
X95124510Y-48230828D01*
X95124510Y-48230828D02*
X94767368Y-48230828D01*
X94767368Y-48230828D02*
X94624510Y-48159400D01*
X94624510Y-48159400D02*
X94553082Y-48087971D01*
X95838796Y-46730828D02*
X96338796Y-48230828D01*
X96338796Y-48230828D02*
X96838796Y-46730828D01*
X100831653Y-46920828D02*
X101760225Y-46920828D01*
X101760225Y-46920828D02*
X101260225Y-47492257D01*
X101260225Y-47492257D02*
X101474510Y-47492257D01*
X101474510Y-47492257D02*
X101617368Y-47563685D01*
X101617368Y-47563685D02*
X101688796Y-47635114D01*
X101688796Y-47635114D02*
X101760225Y-47777971D01*
X101760225Y-47777971D02*
X101760225Y-48135114D01*
X101760225Y-48135114D02*
X101688796Y-48277971D01*
X101688796Y-48277971D02*
X101617368Y-48349400D01*
X101617368Y-48349400D02*
X101474510Y-48420828D01*
X101474510Y-48420828D02*
X101045939Y-48420828D01*
X101045939Y-48420828D02*
X100903082Y-48349400D01*
X100903082Y-48349400D02*
X100831653Y-48277971D01*
X102403081Y-48277971D02*
X102474510Y-48349400D01*
X102474510Y-48349400D02*
X102403081Y-48420828D01*
X102403081Y-48420828D02*
X102331653Y-48349400D01*
X102331653Y-48349400D02*
X102403081Y-48277971D01*
X102403081Y-48277971D02*
X102403081Y-48420828D01*
X102974510Y-46920828D02*
X103903082Y-46920828D01*
X103903082Y-46920828D02*
X103403082Y-47492257D01*
X103403082Y-47492257D02*
X103617367Y-47492257D01*
X103617367Y-47492257D02*
X103760225Y-47563685D01*
X103760225Y-47563685D02*
X103831653Y-47635114D01*
X103831653Y-47635114D02*
X103903082Y-47777971D01*
X103903082Y-47777971D02*
X103903082Y-48135114D01*
X103903082Y-48135114D02*
X103831653Y-48277971D01*
X103831653Y-48277971D02*
X103760225Y-48349400D01*
X103760225Y-48349400D02*
X103617367Y-48420828D01*
X103617367Y-48420828D02*
X103188796Y-48420828D01*
X103188796Y-48420828D02*
X103045939Y-48349400D01*
X103045939Y-48349400D02*
X102974510Y-48277971D01*
X104331653Y-46920828D02*
X104831653Y-48420828D01*
X104831653Y-48420828D02*
X105331653Y-46920828D01*
X102430225Y-82291164D02*
X102715939Y-82291164D01*
X102715939Y-82291164D02*
X102858796Y-82362593D01*
X102858796Y-82362593D02*
X103001653Y-82505450D01*
X103001653Y-82505450D02*
X103073082Y-82791164D01*
X103073082Y-82791164D02*
X103073082Y-83291164D01*
X103073082Y-83291164D02*
X103001653Y-83576878D01*
X103001653Y-83576878D02*
X102858796Y-83719736D01*
X102858796Y-83719736D02*
X102715939Y-83791164D01*
X102715939Y-83791164D02*
X102430225Y-83791164D01*
X102430225Y-83791164D02*
X102287368Y-83719736D01*
X102287368Y-83719736D02*
X102144510Y-83576878D01*
X102144510Y-83576878D02*
X102073082Y-83291164D01*
X102073082Y-83291164D02*
X102073082Y-82791164D01*
X102073082Y-82791164D02*
X102144510Y-82505450D01*
X102144510Y-82505450D02*
X102287368Y-82362593D01*
X102287368Y-82362593D02*
X102430225Y-82291164D01*
X103501654Y-82791164D02*
X104073082Y-82791164D01*
X103715939Y-83791164D02*
X103715939Y-82505450D01*
X103715939Y-82505450D02*
X103787368Y-82362593D01*
X103787368Y-82362593D02*
X103930225Y-82291164D01*
X103930225Y-82291164D02*
X104073082Y-82291164D01*
X104358797Y-82791164D02*
X104930225Y-82791164D01*
X104573082Y-83791164D02*
X104573082Y-82505450D01*
X104573082Y-82505450D02*
X104644511Y-82362593D01*
X104644511Y-82362593D02*
X104787368Y-82291164D01*
X104787368Y-82291164D02*
X104930225Y-82291164D01*
X106573082Y-83005450D02*
X107715940Y-83005450D01*
X107715940Y-83434021D02*
X106573082Y-83434021D01*
X109573082Y-82791164D02*
X109573082Y-83791164D01*
X109573082Y-82934021D02*
X109644511Y-82862593D01*
X109644511Y-82862593D02*
X109787368Y-82791164D01*
X109787368Y-82791164D02*
X110001654Y-82791164D01*
X110001654Y-82791164D02*
X110144511Y-82862593D01*
X110144511Y-82862593D02*
X110215940Y-83005450D01*
X110215940Y-83005450D02*
X110215940Y-83791164D01*
X111144511Y-83791164D02*
X111001654Y-83719736D01*
X111001654Y-83719736D02*
X110930225Y-83648307D01*
X110930225Y-83648307D02*
X110858797Y-83505450D01*
X110858797Y-83505450D02*
X110858797Y-83076878D01*
X110858797Y-83076878D02*
X110930225Y-82934021D01*
X110930225Y-82934021D02*
X111001654Y-82862593D01*
X111001654Y-82862593D02*
X111144511Y-82791164D01*
X111144511Y-82791164D02*
X111358797Y-82791164D01*
X111358797Y-82791164D02*
X111501654Y-82862593D01*
X111501654Y-82862593D02*
X111573083Y-82934021D01*
X111573083Y-82934021D02*
X111644511Y-83076878D01*
X111644511Y-83076878D02*
X111644511Y-83505450D01*
X111644511Y-83505450D02*
X111573083Y-83648307D01*
X111573083Y-83648307D02*
X111501654Y-83719736D01*
X111501654Y-83719736D02*
X111358797Y-83791164D01*
X111358797Y-83791164D02*
X111144511Y-83791164D01*
X112287368Y-82791164D02*
X112287368Y-83791164D01*
X112287368Y-82934021D02*
X112358797Y-82862593D01*
X112358797Y-82862593D02*
X112501654Y-82791164D01*
X112501654Y-82791164D02*
X112715940Y-82791164D01*
X112715940Y-82791164D02*
X112858797Y-82862593D01*
X112858797Y-82862593D02*
X112930226Y-83005450D01*
X112930226Y-83005450D02*
X112930226Y-83791164D01*
X114215940Y-83719736D02*
X114073083Y-83791164D01*
X114073083Y-83791164D02*
X113787369Y-83791164D01*
X113787369Y-83791164D02*
X113644511Y-83719736D01*
X113644511Y-83719736D02*
X113573083Y-83576878D01*
X113573083Y-83576878D02*
X113573083Y-83005450D01*
X113573083Y-83005450D02*
X113644511Y-82862593D01*
X113644511Y-82862593D02*
X113787369Y-82791164D01*
X113787369Y-82791164D02*
X114073083Y-82791164D01*
X114073083Y-82791164D02*
X114215940Y-82862593D01*
X114215940Y-82862593D02*
X114287369Y-83005450D01*
X114287369Y-83005450D02*
X114287369Y-83148307D01*
X114287369Y-83148307D02*
X113573083Y-83291164D01*
X103001653Y-86206080D02*
X102501653Y-85491794D01*
X102144510Y-86206080D02*
X102144510Y-84706080D01*
X102144510Y-84706080D02*
X102715939Y-84706080D01*
X102715939Y-84706080D02*
X102858796Y-84777509D01*
X102858796Y-84777509D02*
X102930225Y-84848937D01*
X102930225Y-84848937D02*
X103001653Y-84991794D01*
X103001653Y-84991794D02*
X103001653Y-85206080D01*
X103001653Y-85206080D02*
X102930225Y-85348937D01*
X102930225Y-85348937D02*
X102858796Y-85420366D01*
X102858796Y-85420366D02*
X102715939Y-85491794D01*
X102715939Y-85491794D02*
X102144510Y-85491794D01*
X103644510Y-85420366D02*
X104144510Y-85420366D01*
X104358796Y-86206080D02*
X103644510Y-86206080D01*
X103644510Y-86206080D02*
X103644510Y-84706080D01*
X103644510Y-84706080D02*
X104358796Y-84706080D01*
X105001653Y-86206080D02*
X105001653Y-84706080D01*
X105001653Y-84706080D02*
X105358796Y-84706080D01*
X105358796Y-84706080D02*
X105573082Y-84777509D01*
X105573082Y-84777509D02*
X105715939Y-84920366D01*
X105715939Y-84920366D02*
X105787368Y-85063223D01*
X105787368Y-85063223D02*
X105858796Y-85348937D01*
X105858796Y-85348937D02*
X105858796Y-85563223D01*
X105858796Y-85563223D02*
X105787368Y-85848937D01*
X105787368Y-85848937D02*
X105715939Y-85991794D01*
X105715939Y-85991794D02*
X105573082Y-86134652D01*
X105573082Y-86134652D02*
X105358796Y-86206080D01*
X105358796Y-86206080D02*
X105001653Y-86206080D01*
X107644510Y-85420366D02*
X108787368Y-85420366D01*
X108787368Y-85848937D02*
X107644510Y-85848937D01*
X111430225Y-86206080D02*
X110573082Y-86206080D01*
X111001653Y-86206080D02*
X111001653Y-84706080D01*
X111001653Y-84706080D02*
X110858796Y-84920366D01*
X110858796Y-84920366D02*
X110715939Y-85063223D01*
X110715939Y-85063223D02*
X110573082Y-85134652D01*
X112715939Y-85206080D02*
X112715939Y-86206080D01*
X112358796Y-84634652D02*
X112001653Y-85706080D01*
X112001653Y-85706080D02*
X112930224Y-85706080D01*
X114644509Y-85206080D02*
X114644509Y-86706080D01*
X114644509Y-85277509D02*
X114787367Y-85206080D01*
X114787367Y-85206080D02*
X115073081Y-85206080D01*
X115073081Y-85206080D02*
X115215938Y-85277509D01*
X115215938Y-85277509D02*
X115287367Y-85348937D01*
X115287367Y-85348937D02*
X115358795Y-85491794D01*
X115358795Y-85491794D02*
X115358795Y-85920366D01*
X115358795Y-85920366D02*
X115287367Y-86063223D01*
X115287367Y-86063223D02*
X115215938Y-86134652D01*
X115215938Y-86134652D02*
X115073081Y-86206080D01*
X115073081Y-86206080D02*
X114787367Y-86206080D01*
X114787367Y-86206080D02*
X114644509Y-86134652D01*
X116001652Y-86206080D02*
X116001652Y-85206080D01*
X116001652Y-84706080D02*
X115930224Y-84777509D01*
X115930224Y-84777509D02*
X116001652Y-84848937D01*
X116001652Y-84848937D02*
X116073081Y-84777509D01*
X116073081Y-84777509D02*
X116001652Y-84706080D01*
X116001652Y-84706080D02*
X116001652Y-84848937D01*
X116715938Y-85206080D02*
X116715938Y-86206080D01*
X116715938Y-85348937D02*
X116787367Y-85277509D01*
X116787367Y-85277509D02*
X116930224Y-85206080D01*
X116930224Y-85206080D02*
X117144510Y-85206080D01*
X117144510Y-85206080D02*
X117287367Y-85277509D01*
X117287367Y-85277509D02*
X117358796Y-85420366D01*
X117358796Y-85420366D02*
X117358796Y-86206080D01*
X102930225Y-87192425D02*
X102787368Y-87120996D01*
X102787368Y-87120996D02*
X102573082Y-87120996D01*
X102573082Y-87120996D02*
X102358796Y-87192425D01*
X102358796Y-87192425D02*
X102215939Y-87335282D01*
X102215939Y-87335282D02*
X102144510Y-87478139D01*
X102144510Y-87478139D02*
X102073082Y-87763853D01*
X102073082Y-87763853D02*
X102073082Y-87978139D01*
X102073082Y-87978139D02*
X102144510Y-88263853D01*
X102144510Y-88263853D02*
X102215939Y-88406710D01*
X102215939Y-88406710D02*
X102358796Y-88549568D01*
X102358796Y-88549568D02*
X102573082Y-88620996D01*
X102573082Y-88620996D02*
X102715939Y-88620996D01*
X102715939Y-88620996D02*
X102930225Y-88549568D01*
X102930225Y-88549568D02*
X103001653Y-88478139D01*
X103001653Y-88478139D02*
X103001653Y-87978139D01*
X103001653Y-87978139D02*
X102715939Y-87978139D01*
X104501653Y-88620996D02*
X104001653Y-87906710D01*
X103644510Y-88620996D02*
X103644510Y-87120996D01*
X103644510Y-87120996D02*
X104215939Y-87120996D01*
X104215939Y-87120996D02*
X104358796Y-87192425D01*
X104358796Y-87192425D02*
X104430225Y-87263853D01*
X104430225Y-87263853D02*
X104501653Y-87406710D01*
X104501653Y-87406710D02*
X104501653Y-87620996D01*
X104501653Y-87620996D02*
X104430225Y-87763853D01*
X104430225Y-87763853D02*
X104358796Y-87835282D01*
X104358796Y-87835282D02*
X104215939Y-87906710D01*
X104215939Y-87906710D02*
X103644510Y-87906710D01*
X105144510Y-87835282D02*
X105644510Y-87835282D01*
X105858796Y-88620996D02*
X105144510Y-88620996D01*
X105144510Y-88620996D02*
X105144510Y-87120996D01*
X105144510Y-87120996D02*
X105858796Y-87120996D01*
X106501653Y-87835282D02*
X107001653Y-87835282D01*
X107215939Y-88620996D02*
X106501653Y-88620996D01*
X106501653Y-88620996D02*
X106501653Y-87120996D01*
X106501653Y-87120996D02*
X107215939Y-87120996D01*
X107858796Y-88620996D02*
X107858796Y-87120996D01*
X107858796Y-87120996D02*
X108715939Y-88620996D01*
X108715939Y-88620996D02*
X108715939Y-87120996D01*
X110573082Y-87835282D02*
X111715940Y-87835282D01*
X111715940Y-88263853D02*
X110573082Y-88263853D01*
X114358797Y-88620996D02*
X113501654Y-88620996D01*
X113930225Y-88620996D02*
X113930225Y-87120996D01*
X113930225Y-87120996D02*
X113787368Y-87335282D01*
X113787368Y-87335282D02*
X113644511Y-87478139D01*
X113644511Y-87478139D02*
X113501654Y-87549568D01*
X115644511Y-87120996D02*
X115358796Y-87120996D01*
X115358796Y-87120996D02*
X115215939Y-87192425D01*
X115215939Y-87192425D02*
X115144511Y-87263853D01*
X115144511Y-87263853D02*
X115001653Y-87478139D01*
X115001653Y-87478139D02*
X114930225Y-87763853D01*
X114930225Y-87763853D02*
X114930225Y-88335282D01*
X114930225Y-88335282D02*
X115001653Y-88478139D01*
X115001653Y-88478139D02*
X115073082Y-88549568D01*
X115073082Y-88549568D02*
X115215939Y-88620996D01*
X115215939Y-88620996D02*
X115501653Y-88620996D01*
X115501653Y-88620996D02*
X115644511Y-88549568D01*
X115644511Y-88549568D02*
X115715939Y-88478139D01*
X115715939Y-88478139D02*
X115787368Y-88335282D01*
X115787368Y-88335282D02*
X115787368Y-87978139D01*
X115787368Y-87978139D02*
X115715939Y-87835282D01*
X115715939Y-87835282D02*
X115644511Y-87763853D01*
X115644511Y-87763853D02*
X115501653Y-87692425D01*
X115501653Y-87692425D02*
X115215939Y-87692425D01*
X115215939Y-87692425D02*
X115073082Y-87763853D01*
X115073082Y-87763853D02*
X115001653Y-87835282D01*
X115001653Y-87835282D02*
X114930225Y-87978139D01*
X117573081Y-87620996D02*
X117573081Y-89120996D01*
X117573081Y-87692425D02*
X117715939Y-87620996D01*
X117715939Y-87620996D02*
X118001653Y-87620996D01*
X118001653Y-87620996D02*
X118144510Y-87692425D01*
X118144510Y-87692425D02*
X118215939Y-87763853D01*
X118215939Y-87763853D02*
X118287367Y-87906710D01*
X118287367Y-87906710D02*
X118287367Y-88335282D01*
X118287367Y-88335282D02*
X118215939Y-88478139D01*
X118215939Y-88478139D02*
X118144510Y-88549568D01*
X118144510Y-88549568D02*
X118001653Y-88620996D01*
X118001653Y-88620996D02*
X117715939Y-88620996D01*
X117715939Y-88620996D02*
X117573081Y-88549568D01*
X118930224Y-88620996D02*
X118930224Y-87620996D01*
X118930224Y-87120996D02*
X118858796Y-87192425D01*
X118858796Y-87192425D02*
X118930224Y-87263853D01*
X118930224Y-87263853D02*
X119001653Y-87192425D01*
X119001653Y-87192425D02*
X118930224Y-87120996D01*
X118930224Y-87120996D02*
X118930224Y-87263853D01*
X119644510Y-87620996D02*
X119644510Y-88620996D01*
X119644510Y-87763853D02*
X119715939Y-87692425D01*
X119715939Y-87692425D02*
X119858796Y-87620996D01*
X119858796Y-87620996D02*
X120073082Y-87620996D01*
X120073082Y-87620996D02*
X120215939Y-87692425D01*
X120215939Y-87692425D02*
X120287368Y-87835282D01*
X120287368Y-87835282D02*
X120287368Y-88620996D01*
X102644510Y-90250198D02*
X102858796Y-90321626D01*
X102858796Y-90321626D02*
X102930225Y-90393055D01*
X102930225Y-90393055D02*
X103001653Y-90535912D01*
X103001653Y-90535912D02*
X103001653Y-90750198D01*
X103001653Y-90750198D02*
X102930225Y-90893055D01*
X102930225Y-90893055D02*
X102858796Y-90964484D01*
X102858796Y-90964484D02*
X102715939Y-91035912D01*
X102715939Y-91035912D02*
X102144510Y-91035912D01*
X102144510Y-91035912D02*
X102144510Y-89535912D01*
X102144510Y-89535912D02*
X102644510Y-89535912D01*
X102644510Y-89535912D02*
X102787368Y-89607341D01*
X102787368Y-89607341D02*
X102858796Y-89678769D01*
X102858796Y-89678769D02*
X102930225Y-89821626D01*
X102930225Y-89821626D02*
X102930225Y-89964484D01*
X102930225Y-89964484D02*
X102858796Y-90107341D01*
X102858796Y-90107341D02*
X102787368Y-90178769D01*
X102787368Y-90178769D02*
X102644510Y-90250198D01*
X102644510Y-90250198D02*
X102144510Y-90250198D01*
X104358796Y-91035912D02*
X103644510Y-91035912D01*
X103644510Y-91035912D02*
X103644510Y-89535912D01*
X104858796Y-89535912D02*
X104858796Y-90750198D01*
X104858796Y-90750198D02*
X104930225Y-90893055D01*
X104930225Y-90893055D02*
X105001654Y-90964484D01*
X105001654Y-90964484D02*
X105144511Y-91035912D01*
X105144511Y-91035912D02*
X105430225Y-91035912D01*
X105430225Y-91035912D02*
X105573082Y-90964484D01*
X105573082Y-90964484D02*
X105644511Y-90893055D01*
X105644511Y-90893055D02*
X105715939Y-90750198D01*
X105715939Y-90750198D02*
X105715939Y-89535912D01*
X106430225Y-90250198D02*
X106930225Y-90250198D01*
X107144511Y-91035912D02*
X106430225Y-91035912D01*
X106430225Y-91035912D02*
X106430225Y-89535912D01*
X106430225Y-89535912D02*
X107144511Y-89535912D01*
X108930225Y-90250198D02*
X110073083Y-90250198D01*
X110073083Y-90678769D02*
X108930225Y-90678769D01*
X111858797Y-89678769D02*
X111930225Y-89607341D01*
X111930225Y-89607341D02*
X112073083Y-89535912D01*
X112073083Y-89535912D02*
X112430225Y-89535912D01*
X112430225Y-89535912D02*
X112573083Y-89607341D01*
X112573083Y-89607341D02*
X112644511Y-89678769D01*
X112644511Y-89678769D02*
X112715940Y-89821626D01*
X112715940Y-89821626D02*
X112715940Y-89964484D01*
X112715940Y-89964484D02*
X112644511Y-90178769D01*
X112644511Y-90178769D02*
X111787368Y-91035912D01*
X111787368Y-91035912D02*
X112715940Y-91035912D01*
X113644511Y-89535912D02*
X113787368Y-89535912D01*
X113787368Y-89535912D02*
X113930225Y-89607341D01*
X113930225Y-89607341D02*
X114001654Y-89678769D01*
X114001654Y-89678769D02*
X114073082Y-89821626D01*
X114073082Y-89821626D02*
X114144511Y-90107341D01*
X114144511Y-90107341D02*
X114144511Y-90464484D01*
X114144511Y-90464484D02*
X114073082Y-90750198D01*
X114073082Y-90750198D02*
X114001654Y-90893055D01*
X114001654Y-90893055D02*
X113930225Y-90964484D01*
X113930225Y-90964484D02*
X113787368Y-91035912D01*
X113787368Y-91035912D02*
X113644511Y-91035912D01*
X113644511Y-91035912D02*
X113501654Y-90964484D01*
X113501654Y-90964484D02*
X113430225Y-90893055D01*
X113430225Y-90893055D02*
X113358796Y-90750198D01*
X113358796Y-90750198D02*
X113287368Y-90464484D01*
X113287368Y-90464484D02*
X113287368Y-90107341D01*
X113287368Y-90107341D02*
X113358796Y-89821626D01*
X113358796Y-89821626D02*
X113430225Y-89678769D01*
X113430225Y-89678769D02*
X113501654Y-89607341D01*
X113501654Y-89607341D02*
X113644511Y-89535912D01*
X115930224Y-90035912D02*
X115930224Y-91535912D01*
X115930224Y-90107341D02*
X116073082Y-90035912D01*
X116073082Y-90035912D02*
X116358796Y-90035912D01*
X116358796Y-90035912D02*
X116501653Y-90107341D01*
X116501653Y-90107341D02*
X116573082Y-90178769D01*
X116573082Y-90178769D02*
X116644510Y-90321626D01*
X116644510Y-90321626D02*
X116644510Y-90750198D01*
X116644510Y-90750198D02*
X116573082Y-90893055D01*
X116573082Y-90893055D02*
X116501653Y-90964484D01*
X116501653Y-90964484D02*
X116358796Y-91035912D01*
X116358796Y-91035912D02*
X116073082Y-91035912D01*
X116073082Y-91035912D02*
X115930224Y-90964484D01*
X117287367Y-91035912D02*
X117287367Y-90035912D01*
X117287367Y-89535912D02*
X117215939Y-89607341D01*
X117215939Y-89607341D02*
X117287367Y-89678769D01*
X117287367Y-89678769D02*
X117358796Y-89607341D01*
X117358796Y-89607341D02*
X117287367Y-89535912D01*
X117287367Y-89535912D02*
X117287367Y-89678769D01*
X118001653Y-90035912D02*
X118001653Y-91035912D01*
X118001653Y-90178769D02*
X118073082Y-90107341D01*
X118073082Y-90107341D02*
X118215939Y-90035912D01*
X118215939Y-90035912D02*
X118430225Y-90035912D01*
X118430225Y-90035912D02*
X118573082Y-90107341D01*
X118573082Y-90107341D02*
X118644511Y-90250198D01*
X118644511Y-90250198D02*
X118644511Y-91035912D01*
X102001653Y-91950828D02*
X102358796Y-93450828D01*
X102358796Y-93450828D02*
X102644510Y-92379400D01*
X102644510Y-92379400D02*
X102930225Y-93450828D01*
X102930225Y-93450828D02*
X103287368Y-91950828D01*
X103858796Y-93450828D02*
X103858796Y-91950828D01*
X103858796Y-92665114D02*
X104715939Y-92665114D01*
X104715939Y-93450828D02*
X104715939Y-91950828D01*
X105430225Y-93450828D02*
X105430225Y-91950828D01*
X105930226Y-91950828D02*
X106787369Y-91950828D01*
X106358797Y-93450828D02*
X106358797Y-91950828D01*
X107287368Y-92665114D02*
X107787368Y-92665114D01*
X108001654Y-93450828D02*
X107287368Y-93450828D01*
X107287368Y-93450828D02*
X107287368Y-91950828D01*
X107287368Y-91950828D02*
X108001654Y-91950828D01*
X109787368Y-92665114D02*
X110930226Y-92665114D01*
X110930226Y-93093685D02*
X109787368Y-93093685D01*
X112573083Y-92450828D02*
X113144511Y-92450828D01*
X112787368Y-91950828D02*
X112787368Y-93236542D01*
X112787368Y-93236542D02*
X112858797Y-93379400D01*
X112858797Y-93379400D02*
X113001654Y-93450828D01*
X113001654Y-93450828D02*
X113144511Y-93450828D01*
X114215940Y-93379400D02*
X114073083Y-93450828D01*
X114073083Y-93450828D02*
X113787369Y-93450828D01*
X113787369Y-93450828D02*
X113644511Y-93379400D01*
X113644511Y-93379400D02*
X113573083Y-93236542D01*
X113573083Y-93236542D02*
X113573083Y-92665114D01*
X113573083Y-92665114D02*
X113644511Y-92522257D01*
X113644511Y-92522257D02*
X113787369Y-92450828D01*
X113787369Y-92450828D02*
X114073083Y-92450828D01*
X114073083Y-92450828D02*
X114215940Y-92522257D01*
X114215940Y-92522257D02*
X114287369Y-92665114D01*
X114287369Y-92665114D02*
X114287369Y-92807971D01*
X114287369Y-92807971D02*
X113573083Y-92950828D01*
X114858797Y-93379400D02*
X115001654Y-93450828D01*
X115001654Y-93450828D02*
X115287368Y-93450828D01*
X115287368Y-93450828D02*
X115430225Y-93379400D01*
X115430225Y-93379400D02*
X115501654Y-93236542D01*
X115501654Y-93236542D02*
X115501654Y-93165114D01*
X115501654Y-93165114D02*
X115430225Y-93022257D01*
X115430225Y-93022257D02*
X115287368Y-92950828D01*
X115287368Y-92950828D02*
X115073083Y-92950828D01*
X115073083Y-92950828D02*
X114930225Y-92879400D01*
X114930225Y-92879400D02*
X114858797Y-92736542D01*
X114858797Y-92736542D02*
X114858797Y-92665114D01*
X114858797Y-92665114D02*
X114930225Y-92522257D01*
X114930225Y-92522257D02*
X115073083Y-92450828D01*
X115073083Y-92450828D02*
X115287368Y-92450828D01*
X115287368Y-92450828D02*
X115430225Y-92522257D01*
X115930226Y-92450828D02*
X116501654Y-92450828D01*
X116144511Y-91950828D02*
X116144511Y-93236542D01*
X116144511Y-93236542D02*
X116215940Y-93379400D01*
X116215940Y-93379400D02*
X116358797Y-93450828D01*
X116358797Y-93450828D02*
X116501654Y-93450828D01*
X117001654Y-93450828D02*
X117001654Y-92450828D01*
X117001654Y-91950828D02*
X116930226Y-92022257D01*
X116930226Y-92022257D02*
X117001654Y-92093685D01*
X117001654Y-92093685D02*
X117073083Y-92022257D01*
X117073083Y-92022257D02*
X117001654Y-91950828D01*
X117001654Y-91950828D02*
X117001654Y-92093685D01*
X117715940Y-92450828D02*
X117715940Y-93450828D01*
X117715940Y-92593685D02*
X117787369Y-92522257D01*
X117787369Y-92522257D02*
X117930226Y-92450828D01*
X117930226Y-92450828D02*
X118144512Y-92450828D01*
X118144512Y-92450828D02*
X118287369Y-92522257D01*
X118287369Y-92522257D02*
X118358798Y-92665114D01*
X118358798Y-92665114D02*
X118358798Y-93450828D01*
X119715941Y-92450828D02*
X119715941Y-93665114D01*
X119715941Y-93665114D02*
X119644512Y-93807971D01*
X119644512Y-93807971D02*
X119573083Y-93879400D01*
X119573083Y-93879400D02*
X119430226Y-93950828D01*
X119430226Y-93950828D02*
X119215941Y-93950828D01*
X119215941Y-93950828D02*
X119073083Y-93879400D01*
X119715941Y-93379400D02*
X119573083Y-93450828D01*
X119573083Y-93450828D02*
X119287369Y-93450828D01*
X119287369Y-93450828D02*
X119144512Y-93379400D01*
X119144512Y-93379400D02*
X119073083Y-93307971D01*
X119073083Y-93307971D02*
X119001655Y-93165114D01*
X119001655Y-93165114D02*
X119001655Y-92736542D01*
X119001655Y-92736542D02*
X119073083Y-92593685D01*
X119073083Y-92593685D02*
X119144512Y-92522257D01*
X119144512Y-92522257D02*
X119287369Y-92450828D01*
X119287369Y-92450828D02*
X119573083Y-92450828D01*
X119573083Y-92450828D02*
X119715941Y-92522257D01*
X105978796Y-76830828D02*
X105264510Y-76830828D01*
X105264510Y-76830828D02*
X105193082Y-77545114D01*
X105193082Y-77545114D02*
X105264510Y-77473685D01*
X105264510Y-77473685D02*
X105407368Y-77402257D01*
X105407368Y-77402257D02*
X105764510Y-77402257D01*
X105764510Y-77402257D02*
X105907368Y-77473685D01*
X105907368Y-77473685D02*
X105978796Y-77545114D01*
X105978796Y-77545114D02*
X106050225Y-77687971D01*
X106050225Y-77687971D02*
X106050225Y-78045114D01*
X106050225Y-78045114D02*
X105978796Y-78187971D01*
X105978796Y-78187971D02*
X105907368Y-78259400D01*
X105907368Y-78259400D02*
X105764510Y-78330828D01*
X105764510Y-78330828D02*
X105407368Y-78330828D01*
X105407368Y-78330828D02*
X105264510Y-78259400D01*
X105264510Y-78259400D02*
X105193082Y-78187971D01*
X106478796Y-76830828D02*
X106978796Y-78330828D01*
X106978796Y-78330828D02*
X107478796Y-76830828D01*
X105141653Y-74100828D02*
X106070225Y-74100828D01*
X106070225Y-74100828D02*
X105570225Y-74672257D01*
X105570225Y-74672257D02*
X105784510Y-74672257D01*
X105784510Y-74672257D02*
X105927368Y-74743685D01*
X105927368Y-74743685D02*
X105998796Y-74815114D01*
X105998796Y-74815114D02*
X106070225Y-74957971D01*
X106070225Y-74957971D02*
X106070225Y-75315114D01*
X106070225Y-75315114D02*
X105998796Y-75457971D01*
X105998796Y-75457971D02*
X105927368Y-75529400D01*
X105927368Y-75529400D02*
X105784510Y-75600828D01*
X105784510Y-75600828D02*
X105355939Y-75600828D01*
X105355939Y-75600828D02*
X105213082Y-75529400D01*
X105213082Y-75529400D02*
X105141653Y-75457971D01*
X106498796Y-74100828D02*
X106998796Y-75600828D01*
X106998796Y-75600828D02*
X107498796Y-74100828D01*
X107855938Y-74100828D02*
X108784510Y-74100828D01*
X108784510Y-74100828D02*
X108284510Y-74672257D01*
X108284510Y-74672257D02*
X108498795Y-74672257D01*
X108498795Y-74672257D02*
X108641653Y-74743685D01*
X108641653Y-74743685D02*
X108713081Y-74815114D01*
X108713081Y-74815114D02*
X108784510Y-74957971D01*
X108784510Y-74957971D02*
X108784510Y-75315114D01*
X108784510Y-75315114D02*
X108713081Y-75457971D01*
X108713081Y-75457971D02*
X108641653Y-75529400D01*
X108641653Y-75529400D02*
X108498795Y-75600828D01*
X108498795Y-75600828D02*
X108070224Y-75600828D01*
X108070224Y-75600828D02*
X107927367Y-75529400D01*
X107927367Y-75529400D02*
X107855938Y-75457971D01*
X107944510Y-48560828D02*
X107944510Y-47060828D01*
X107944510Y-47060828D02*
X108515939Y-47060828D01*
X108515939Y-47060828D02*
X108658796Y-47132257D01*
X108658796Y-47132257D02*
X108730225Y-47203685D01*
X108730225Y-47203685D02*
X108801653Y-47346542D01*
X108801653Y-47346542D02*
X108801653Y-47560828D01*
X108801653Y-47560828D02*
X108730225Y-47703685D01*
X108730225Y-47703685D02*
X108658796Y-47775114D01*
X108658796Y-47775114D02*
X108515939Y-47846542D01*
X108515939Y-47846542D02*
X107944510Y-47846542D01*
X109730225Y-47060828D02*
X110015939Y-47060828D01*
X110015939Y-47060828D02*
X110158796Y-47132257D01*
X110158796Y-47132257D02*
X110301653Y-47275114D01*
X110301653Y-47275114D02*
X110373082Y-47560828D01*
X110373082Y-47560828D02*
X110373082Y-48060828D01*
X110373082Y-48060828D02*
X110301653Y-48346542D01*
X110301653Y-48346542D02*
X110158796Y-48489400D01*
X110158796Y-48489400D02*
X110015939Y-48560828D01*
X110015939Y-48560828D02*
X109730225Y-48560828D01*
X109730225Y-48560828D02*
X109587368Y-48489400D01*
X109587368Y-48489400D02*
X109444510Y-48346542D01*
X109444510Y-48346542D02*
X109373082Y-48060828D01*
X109373082Y-48060828D02*
X109373082Y-47560828D01*
X109373082Y-47560828D02*
X109444510Y-47275114D01*
X109444510Y-47275114D02*
X109587368Y-47132257D01*
X109587368Y-47132257D02*
X109730225Y-47060828D01*
X110873082Y-47060828D02*
X111230225Y-48560828D01*
X111230225Y-48560828D02*
X111515939Y-47489400D01*
X111515939Y-47489400D02*
X111801654Y-48560828D01*
X111801654Y-48560828D02*
X112158797Y-47060828D01*
X112730225Y-47775114D02*
X113230225Y-47775114D01*
X113444511Y-48560828D02*
X112730225Y-48560828D01*
X112730225Y-48560828D02*
X112730225Y-47060828D01*
X112730225Y-47060828D02*
X113444511Y-47060828D01*
X114944511Y-48560828D02*
X114444511Y-47846542D01*
X114087368Y-48560828D02*
X114087368Y-47060828D01*
X114087368Y-47060828D02*
X114658797Y-47060828D01*
X114658797Y-47060828D02*
X114801654Y-47132257D01*
X114801654Y-47132257D02*
X114873083Y-47203685D01*
X114873083Y-47203685D02*
X114944511Y-47346542D01*
X114944511Y-47346542D02*
X114944511Y-47560828D01*
X114944511Y-47560828D02*
X114873083Y-47703685D01*
X114873083Y-47703685D02*
X114801654Y-47775114D01*
X114801654Y-47775114D02*
X114658797Y-47846542D01*
X114658797Y-47846542D02*
X114087368Y-47846542D01*
X145630225Y-117900828D02*
X146487368Y-117900828D01*
X146058796Y-119400828D02*
X146058796Y-117900828D01*
X146987367Y-118615114D02*
X147487367Y-118615114D01*
X147701653Y-119400828D02*
X146987367Y-119400828D01*
X146987367Y-119400828D02*
X146987367Y-117900828D01*
X146987367Y-117900828D02*
X147701653Y-117900828D01*
X148273082Y-119329400D02*
X148487368Y-119400828D01*
X148487368Y-119400828D02*
X148844510Y-119400828D01*
X148844510Y-119400828D02*
X148987368Y-119329400D01*
X148987368Y-119329400D02*
X149058796Y-119257971D01*
X149058796Y-119257971D02*
X149130225Y-119115114D01*
X149130225Y-119115114D02*
X149130225Y-118972257D01*
X149130225Y-118972257D02*
X149058796Y-118829400D01*
X149058796Y-118829400D02*
X148987368Y-118757971D01*
X148987368Y-118757971D02*
X148844510Y-118686542D01*
X148844510Y-118686542D02*
X148558796Y-118615114D01*
X148558796Y-118615114D02*
X148415939Y-118543685D01*
X148415939Y-118543685D02*
X148344510Y-118472257D01*
X148344510Y-118472257D02*
X148273082Y-118329400D01*
X148273082Y-118329400D02*
X148273082Y-118186542D01*
X148273082Y-118186542D02*
X148344510Y-118043685D01*
X148344510Y-118043685D02*
X148415939Y-117972257D01*
X148415939Y-117972257D02*
X148558796Y-117900828D01*
X148558796Y-117900828D02*
X148915939Y-117900828D01*
X148915939Y-117900828D02*
X149130225Y-117972257D01*
X149558796Y-117900828D02*
X150415939Y-117900828D01*
X149987367Y-119400828D02*
X149987367Y-117900828D01*
X105781428Y-107675912D02*
X105781428Y-106175912D01*
X107352857Y-107533055D02*
X107281429Y-107604484D01*
X107281429Y-107604484D02*
X107067143Y-107675912D01*
X107067143Y-107675912D02*
X106924286Y-107675912D01*
X106924286Y-107675912D02*
X106710000Y-107604484D01*
X106710000Y-107604484D02*
X106567143Y-107461626D01*
X106567143Y-107461626D02*
X106495714Y-107318769D01*
X106495714Y-107318769D02*
X106424286Y-107033055D01*
X106424286Y-107033055D02*
X106424286Y-106818769D01*
X106424286Y-106818769D02*
X106495714Y-106533055D01*
X106495714Y-106533055D02*
X106567143Y-106390198D01*
X106567143Y-106390198D02*
X106710000Y-106247341D01*
X106710000Y-106247341D02*
X106924286Y-106175912D01*
X106924286Y-106175912D02*
X107067143Y-106175912D01*
X107067143Y-106175912D02*
X107281429Y-106247341D01*
X107281429Y-106247341D02*
X107352857Y-106318769D01*
X109138571Y-107675912D02*
X109138571Y-106175912D01*
X109138571Y-106175912D02*
X109710000Y-106175912D01*
X109710000Y-106175912D02*
X109852857Y-106247341D01*
X109852857Y-106247341D02*
X109924286Y-106318769D01*
X109924286Y-106318769D02*
X109995714Y-106461626D01*
X109995714Y-106461626D02*
X109995714Y-106675912D01*
X109995714Y-106675912D02*
X109924286Y-106818769D01*
X109924286Y-106818769D02*
X109852857Y-106890198D01*
X109852857Y-106890198D02*
X109710000Y-106961626D01*
X109710000Y-106961626D02*
X109138571Y-106961626D01*
X111281429Y-107675912D02*
X111281429Y-106890198D01*
X111281429Y-106890198D02*
X111210000Y-106747341D01*
X111210000Y-106747341D02*
X111067143Y-106675912D01*
X111067143Y-106675912D02*
X110781429Y-106675912D01*
X110781429Y-106675912D02*
X110638571Y-106747341D01*
X111281429Y-107604484D02*
X111138571Y-107675912D01*
X111138571Y-107675912D02*
X110781429Y-107675912D01*
X110781429Y-107675912D02*
X110638571Y-107604484D01*
X110638571Y-107604484D02*
X110567143Y-107461626D01*
X110567143Y-107461626D02*
X110567143Y-107318769D01*
X110567143Y-107318769D02*
X110638571Y-107175912D01*
X110638571Y-107175912D02*
X110781429Y-107104484D01*
X110781429Y-107104484D02*
X111138571Y-107104484D01*
X111138571Y-107104484D02*
X111281429Y-107033055D01*
X112638572Y-107604484D02*
X112495714Y-107675912D01*
X112495714Y-107675912D02*
X112210000Y-107675912D01*
X112210000Y-107675912D02*
X112067143Y-107604484D01*
X112067143Y-107604484D02*
X111995714Y-107533055D01*
X111995714Y-107533055D02*
X111924286Y-107390198D01*
X111924286Y-107390198D02*
X111924286Y-106961626D01*
X111924286Y-106961626D02*
X111995714Y-106818769D01*
X111995714Y-106818769D02*
X112067143Y-106747341D01*
X112067143Y-106747341D02*
X112210000Y-106675912D01*
X112210000Y-106675912D02*
X112495714Y-106675912D01*
X112495714Y-106675912D02*
X112638572Y-106747341D01*
X113281428Y-107675912D02*
X113281428Y-106175912D01*
X113424286Y-107104484D02*
X113852857Y-107675912D01*
X113852857Y-106675912D02*
X113281428Y-107247341D01*
X115138572Y-107675912D02*
X115138572Y-106890198D01*
X115138572Y-106890198D02*
X115067143Y-106747341D01*
X115067143Y-106747341D02*
X114924286Y-106675912D01*
X114924286Y-106675912D02*
X114638572Y-106675912D01*
X114638572Y-106675912D02*
X114495714Y-106747341D01*
X115138572Y-107604484D02*
X114995714Y-107675912D01*
X114995714Y-107675912D02*
X114638572Y-107675912D01*
X114638572Y-107675912D02*
X114495714Y-107604484D01*
X114495714Y-107604484D02*
X114424286Y-107461626D01*
X114424286Y-107461626D02*
X114424286Y-107318769D01*
X114424286Y-107318769D02*
X114495714Y-107175912D01*
X114495714Y-107175912D02*
X114638572Y-107104484D01*
X114638572Y-107104484D02*
X114995714Y-107104484D01*
X114995714Y-107104484D02*
X115138572Y-107033055D01*
X116495715Y-106675912D02*
X116495715Y-107890198D01*
X116495715Y-107890198D02*
X116424286Y-108033055D01*
X116424286Y-108033055D02*
X116352857Y-108104484D01*
X116352857Y-108104484D02*
X116210000Y-108175912D01*
X116210000Y-108175912D02*
X115995715Y-108175912D01*
X115995715Y-108175912D02*
X115852857Y-108104484D01*
X116495715Y-107604484D02*
X116352857Y-107675912D01*
X116352857Y-107675912D02*
X116067143Y-107675912D01*
X116067143Y-107675912D02*
X115924286Y-107604484D01*
X115924286Y-107604484D02*
X115852857Y-107533055D01*
X115852857Y-107533055D02*
X115781429Y-107390198D01*
X115781429Y-107390198D02*
X115781429Y-106961626D01*
X115781429Y-106961626D02*
X115852857Y-106818769D01*
X115852857Y-106818769D02*
X115924286Y-106747341D01*
X115924286Y-106747341D02*
X116067143Y-106675912D01*
X116067143Y-106675912D02*
X116352857Y-106675912D01*
X116352857Y-106675912D02*
X116495715Y-106747341D01*
X117781429Y-107604484D02*
X117638572Y-107675912D01*
X117638572Y-107675912D02*
X117352858Y-107675912D01*
X117352858Y-107675912D02*
X117210000Y-107604484D01*
X117210000Y-107604484D02*
X117138572Y-107461626D01*
X117138572Y-107461626D02*
X117138572Y-106890198D01*
X117138572Y-106890198D02*
X117210000Y-106747341D01*
X117210000Y-106747341D02*
X117352858Y-106675912D01*
X117352858Y-106675912D02*
X117638572Y-106675912D01*
X117638572Y-106675912D02*
X117781429Y-106747341D01*
X117781429Y-106747341D02*
X117852858Y-106890198D01*
X117852858Y-106890198D02*
X117852858Y-107033055D01*
X117852858Y-107033055D02*
X117138572Y-107175912D01*
X119567143Y-107604484D02*
X119710000Y-107675912D01*
X119710000Y-107675912D02*
X119995714Y-107675912D01*
X119995714Y-107675912D02*
X120138571Y-107604484D01*
X120138571Y-107604484D02*
X120210000Y-107461626D01*
X120210000Y-107461626D02*
X120210000Y-107390198D01*
X120210000Y-107390198D02*
X120138571Y-107247341D01*
X120138571Y-107247341D02*
X119995714Y-107175912D01*
X119995714Y-107175912D02*
X119781429Y-107175912D01*
X119781429Y-107175912D02*
X119638571Y-107104484D01*
X119638571Y-107104484D02*
X119567143Y-106961626D01*
X119567143Y-106961626D02*
X119567143Y-106890198D01*
X119567143Y-106890198D02*
X119638571Y-106747341D01*
X119638571Y-106747341D02*
X119781429Y-106675912D01*
X119781429Y-106675912D02*
X119995714Y-106675912D01*
X119995714Y-106675912D02*
X120138571Y-106747341D01*
X121424286Y-107604484D02*
X121281429Y-107675912D01*
X121281429Y-107675912D02*
X120995715Y-107675912D01*
X120995715Y-107675912D02*
X120852857Y-107604484D01*
X120852857Y-107604484D02*
X120781429Y-107461626D01*
X120781429Y-107461626D02*
X120781429Y-106890198D01*
X120781429Y-106890198D02*
X120852857Y-106747341D01*
X120852857Y-106747341D02*
X120995715Y-106675912D01*
X120995715Y-106675912D02*
X121281429Y-106675912D01*
X121281429Y-106675912D02*
X121424286Y-106747341D01*
X121424286Y-106747341D02*
X121495715Y-106890198D01*
X121495715Y-106890198D02*
X121495715Y-107033055D01*
X121495715Y-107033055D02*
X120781429Y-107175912D01*
X122352857Y-107675912D02*
X122210000Y-107604484D01*
X122210000Y-107604484D02*
X122138571Y-107461626D01*
X122138571Y-107461626D02*
X122138571Y-106175912D01*
X123495714Y-107604484D02*
X123352857Y-107675912D01*
X123352857Y-107675912D02*
X123067143Y-107675912D01*
X123067143Y-107675912D02*
X122924285Y-107604484D01*
X122924285Y-107604484D02*
X122852857Y-107461626D01*
X122852857Y-107461626D02*
X122852857Y-106890198D01*
X122852857Y-106890198D02*
X122924285Y-106747341D01*
X122924285Y-106747341D02*
X123067143Y-106675912D01*
X123067143Y-106675912D02*
X123352857Y-106675912D01*
X123352857Y-106675912D02*
X123495714Y-106747341D01*
X123495714Y-106747341D02*
X123567143Y-106890198D01*
X123567143Y-106890198D02*
X123567143Y-107033055D01*
X123567143Y-107033055D02*
X122852857Y-107175912D01*
X124852857Y-107604484D02*
X124709999Y-107675912D01*
X124709999Y-107675912D02*
X124424285Y-107675912D01*
X124424285Y-107675912D02*
X124281428Y-107604484D01*
X124281428Y-107604484D02*
X124209999Y-107533055D01*
X124209999Y-107533055D02*
X124138571Y-107390198D01*
X124138571Y-107390198D02*
X124138571Y-106961626D01*
X124138571Y-106961626D02*
X124209999Y-106818769D01*
X124209999Y-106818769D02*
X124281428Y-106747341D01*
X124281428Y-106747341D02*
X124424285Y-106675912D01*
X124424285Y-106675912D02*
X124709999Y-106675912D01*
X124709999Y-106675912D02*
X124852857Y-106747341D01*
X125281428Y-106675912D02*
X125852856Y-106675912D01*
X125495713Y-106175912D02*
X125495713Y-107461626D01*
X125495713Y-107461626D02*
X125567142Y-107604484D01*
X125567142Y-107604484D02*
X125709999Y-107675912D01*
X125709999Y-107675912D02*
X125852856Y-107675912D01*
X114745714Y-110090828D02*
X114031428Y-110090828D01*
X114031428Y-110090828D02*
X114031428Y-108590828D01*
X115245714Y-109305114D02*
X115745714Y-109305114D01*
X115960000Y-110090828D02*
X115245714Y-110090828D01*
X115245714Y-110090828D02*
X115245714Y-108590828D01*
X115245714Y-108590828D02*
X115960000Y-108590828D01*
X116602857Y-110090828D02*
X116602857Y-108590828D01*
X116602857Y-108590828D02*
X116960000Y-108590828D01*
X116960000Y-108590828D02*
X117174286Y-108662257D01*
X117174286Y-108662257D02*
X117317143Y-108805114D01*
X117317143Y-108805114D02*
X117388572Y-108947971D01*
X117388572Y-108947971D02*
X117460000Y-109233685D01*
X117460000Y-109233685D02*
X117460000Y-109447971D01*
X117460000Y-109447971D02*
X117388572Y-109733685D01*
X117388572Y-109733685D02*
X117317143Y-109876542D01*
X117317143Y-109876542D02*
X117174286Y-110019400D01*
X117174286Y-110019400D02*
X116960000Y-110090828D01*
X116960000Y-110090828D02*
X116602857Y-110090828D01*
X96144510Y-56923587D02*
X96525463Y-56923587D01*
X96525463Y-56923587D02*
X96715939Y-57042635D01*
X96715939Y-57042635D02*
X96906415Y-57280730D01*
X96906415Y-57280730D02*
X97001653Y-57756920D01*
X97001653Y-57756920D02*
X97001653Y-58590254D01*
X97001653Y-58590254D02*
X96906415Y-59066444D01*
X96906415Y-59066444D02*
X96715939Y-59304540D01*
X96715939Y-59304540D02*
X96525463Y-59423587D01*
X96525463Y-59423587D02*
X96144510Y-59423587D01*
X96144510Y-59423587D02*
X95954034Y-59304540D01*
X95954034Y-59304540D02*
X95763558Y-59066444D01*
X95763558Y-59066444D02*
X95668320Y-58590254D01*
X95668320Y-58590254D02*
X95668320Y-57756920D01*
X95668320Y-57756920D02*
X95763558Y-57280730D01*
X95763558Y-57280730D02*
X95954034Y-57042635D01*
X95954034Y-57042635D02*
X96144510Y-56923587D01*
X97858796Y-59423587D02*
X97858796Y-56923587D01*
X97858796Y-56923587D02*
X98334986Y-56923587D01*
X98334986Y-56923587D02*
X98620701Y-57042635D01*
X98620701Y-57042635D02*
X98811177Y-57280730D01*
X98811177Y-57280730D02*
X98906415Y-57518825D01*
X98906415Y-57518825D02*
X99001653Y-57995016D01*
X99001653Y-57995016D02*
X99001653Y-58352159D01*
X99001653Y-58352159D02*
X98906415Y-58828349D01*
X98906415Y-58828349D02*
X98811177Y-59066444D01*
X98811177Y-59066444D02*
X98620701Y-59304540D01*
X98620701Y-59304540D02*
X98334986Y-59423587D01*
X98334986Y-59423587D02*
X97858796Y-59423587D01*
X99858796Y-58471206D02*
X101382606Y-58471206D01*
X102334986Y-59423587D02*
X102334986Y-56923587D01*
X102334986Y-56923587D02*
X103096891Y-56923587D01*
X103096891Y-56923587D02*
X103287367Y-57042635D01*
X103287367Y-57042635D02*
X103382605Y-57161682D01*
X103382605Y-57161682D02*
X103477843Y-57399778D01*
X103477843Y-57399778D02*
X103477843Y-57756920D01*
X103477843Y-57756920D02*
X103382605Y-57995016D01*
X103382605Y-57995016D02*
X103287367Y-58114063D01*
X103287367Y-58114063D02*
X103096891Y-58233111D01*
X103096891Y-58233111D02*
X102334986Y-58233111D01*
X104049272Y-56923587D02*
X105192129Y-56923587D01*
X104620700Y-59423587D02*
X104620700Y-56923587D01*
X105668320Y-56923587D02*
X107001653Y-56923587D01*
X107001653Y-56923587D02*
X106144510Y-59423587D01*
X108620701Y-57756920D02*
X108620701Y-59423587D01*
X108144510Y-56804540D02*
X107668320Y-58590254D01*
X107668320Y-58590254D02*
X108906415Y-58590254D01*
X110906416Y-56923587D02*
X112049273Y-56923587D01*
X111477844Y-59423587D02*
X111477844Y-56923587D01*
X113001654Y-59423587D02*
X112811178Y-59304540D01*
X112811178Y-59304540D02*
X112715940Y-59185492D01*
X112715940Y-59185492D02*
X112620702Y-58947397D01*
X112620702Y-58947397D02*
X112620702Y-58233111D01*
X112620702Y-58233111D02*
X112715940Y-57995016D01*
X112715940Y-57995016D02*
X112811178Y-57875968D01*
X112811178Y-57875968D02*
X113001654Y-57756920D01*
X113001654Y-57756920D02*
X113287369Y-57756920D01*
X113287369Y-57756920D02*
X113477845Y-57875968D01*
X113477845Y-57875968D02*
X113573083Y-57995016D01*
X113573083Y-57995016D02*
X113668321Y-58233111D01*
X113668321Y-58233111D02*
X113668321Y-58947397D01*
X113668321Y-58947397D02*
X113573083Y-59185492D01*
X113573083Y-59185492D02*
X113477845Y-59304540D01*
X113477845Y-59304540D02*
X113287369Y-59423587D01*
X113287369Y-59423587D02*
X113001654Y-59423587D01*
X114525464Y-57756920D02*
X114525464Y-60256920D01*
X114525464Y-57875968D02*
X114715940Y-57756920D01*
X114715940Y-57756920D02*
X115096893Y-57756920D01*
X115096893Y-57756920D02*
X115287369Y-57875968D01*
X115287369Y-57875968D02*
X115382607Y-57995016D01*
X115382607Y-57995016D02*
X115477845Y-58233111D01*
X115477845Y-58233111D02*
X115477845Y-58947397D01*
X115477845Y-58947397D02*
X115382607Y-59185492D01*
X115382607Y-59185492D02*
X115287369Y-59304540D01*
X115287369Y-59304540D02*
X115096893Y-59423587D01*
X115096893Y-59423587D02*
X114715940Y-59423587D01*
X114715940Y-59423587D02*
X114525464Y-59304540D01*
X118525465Y-58114063D02*
X118811179Y-58233111D01*
X118811179Y-58233111D02*
X118906417Y-58352159D01*
X118906417Y-58352159D02*
X119001655Y-58590254D01*
X119001655Y-58590254D02*
X119001655Y-58947397D01*
X119001655Y-58947397D02*
X118906417Y-59185492D01*
X118906417Y-59185492D02*
X118811179Y-59304540D01*
X118811179Y-59304540D02*
X118620703Y-59423587D01*
X118620703Y-59423587D02*
X117858798Y-59423587D01*
X117858798Y-59423587D02*
X117858798Y-56923587D01*
X117858798Y-56923587D02*
X118525465Y-56923587D01*
X118525465Y-56923587D02*
X118715941Y-57042635D01*
X118715941Y-57042635D02*
X118811179Y-57161682D01*
X118811179Y-57161682D02*
X118906417Y-57399778D01*
X118906417Y-57399778D02*
X118906417Y-57637873D01*
X118906417Y-57637873D02*
X118811179Y-57875968D01*
X118811179Y-57875968D02*
X118715941Y-57995016D01*
X118715941Y-57995016D02*
X118525465Y-58114063D01*
X118525465Y-58114063D02*
X117858798Y-58114063D01*
X120144512Y-59423587D02*
X119954036Y-59304540D01*
X119954036Y-59304540D02*
X119858798Y-59185492D01*
X119858798Y-59185492D02*
X119763560Y-58947397D01*
X119763560Y-58947397D02*
X119763560Y-58233111D01*
X119763560Y-58233111D02*
X119858798Y-57995016D01*
X119858798Y-57995016D02*
X119954036Y-57875968D01*
X119954036Y-57875968D02*
X120144512Y-57756920D01*
X120144512Y-57756920D02*
X120430227Y-57756920D01*
X120430227Y-57756920D02*
X120620703Y-57875968D01*
X120620703Y-57875968D02*
X120715941Y-57995016D01*
X120715941Y-57995016D02*
X120811179Y-58233111D01*
X120811179Y-58233111D02*
X120811179Y-58947397D01*
X120811179Y-58947397D02*
X120715941Y-59185492D01*
X120715941Y-59185492D02*
X120620703Y-59304540D01*
X120620703Y-59304540D02*
X120430227Y-59423587D01*
X120430227Y-59423587D02*
X120144512Y-59423587D01*
X122525465Y-59423587D02*
X122525465Y-58114063D01*
X122525465Y-58114063D02*
X122430227Y-57875968D01*
X122430227Y-57875968D02*
X122239751Y-57756920D01*
X122239751Y-57756920D02*
X121858798Y-57756920D01*
X121858798Y-57756920D02*
X121668322Y-57875968D01*
X122525465Y-59304540D02*
X122334989Y-59423587D01*
X122334989Y-59423587D02*
X121858798Y-59423587D01*
X121858798Y-59423587D02*
X121668322Y-59304540D01*
X121668322Y-59304540D02*
X121573084Y-59066444D01*
X121573084Y-59066444D02*
X121573084Y-58828349D01*
X121573084Y-58828349D02*
X121668322Y-58590254D01*
X121668322Y-58590254D02*
X121858798Y-58471206D01*
X121858798Y-58471206D02*
X122334989Y-58471206D01*
X122334989Y-58471206D02*
X122525465Y-58352159D01*
X123477846Y-59423587D02*
X123477846Y-57756920D01*
X123477846Y-58233111D02*
X123573084Y-57995016D01*
X123573084Y-57995016D02*
X123668322Y-57875968D01*
X123668322Y-57875968D02*
X123858798Y-57756920D01*
X123858798Y-57756920D02*
X124049275Y-57756920D01*
X125573084Y-59423587D02*
X125573084Y-56923587D01*
X125573084Y-59304540D02*
X125382608Y-59423587D01*
X125382608Y-59423587D02*
X125001655Y-59423587D01*
X125001655Y-59423587D02*
X124811179Y-59304540D01*
X124811179Y-59304540D02*
X124715941Y-59185492D01*
X124715941Y-59185492D02*
X124620703Y-58947397D01*
X124620703Y-58947397D02*
X124620703Y-58233111D01*
X124620703Y-58233111D02*
X124715941Y-57995016D01*
X124715941Y-57995016D02*
X124811179Y-57875968D01*
X124811179Y-57875968D02*
X125001655Y-57756920D01*
X125001655Y-57756920D02*
X125382608Y-57756920D01*
X125382608Y-57756920D02*
X125573084Y-57875968D01*
X96906415Y-63448447D02*
X96239748Y-62257971D01*
X95763558Y-63448447D02*
X95763558Y-60948447D01*
X95763558Y-60948447D02*
X96525463Y-60948447D01*
X96525463Y-60948447D02*
X96715939Y-61067495D01*
X96715939Y-61067495D02*
X96811177Y-61186542D01*
X96811177Y-61186542D02*
X96906415Y-61424638D01*
X96906415Y-61424638D02*
X96906415Y-61781780D01*
X96906415Y-61781780D02*
X96811177Y-62019876D01*
X96811177Y-62019876D02*
X96715939Y-62138923D01*
X96715939Y-62138923D02*
X96525463Y-62257971D01*
X96525463Y-62257971D02*
X95763558Y-62257971D01*
X98525463Y-63329400D02*
X98334987Y-63448447D01*
X98334987Y-63448447D02*
X97954034Y-63448447D01*
X97954034Y-63448447D02*
X97763558Y-63329400D01*
X97763558Y-63329400D02*
X97668320Y-63091304D01*
X97668320Y-63091304D02*
X97668320Y-62138923D01*
X97668320Y-62138923D02*
X97763558Y-61900828D01*
X97763558Y-61900828D02*
X97954034Y-61781780D01*
X97954034Y-61781780D02*
X98334987Y-61781780D01*
X98334987Y-61781780D02*
X98525463Y-61900828D01*
X98525463Y-61900828D02*
X98620701Y-62138923D01*
X98620701Y-62138923D02*
X98620701Y-62377019D01*
X98620701Y-62377019D02*
X97668320Y-62615114D01*
X99287368Y-61781780D02*
X99763558Y-63448447D01*
X99763558Y-63448447D02*
X100239749Y-61781780D01*
X101001654Y-62496066D02*
X102525464Y-62496066D01*
X104620701Y-63210352D02*
X104525463Y-63329400D01*
X104525463Y-63329400D02*
X104239749Y-63448447D01*
X104239749Y-63448447D02*
X104049273Y-63448447D01*
X104049273Y-63448447D02*
X103763558Y-63329400D01*
X103763558Y-63329400D02*
X103573082Y-63091304D01*
X103573082Y-63091304D02*
X103477844Y-62853209D01*
X103477844Y-62853209D02*
X103382606Y-62377019D01*
X103382606Y-62377019D02*
X103382606Y-62019876D01*
X103382606Y-62019876D02*
X103477844Y-61543685D01*
X103477844Y-61543685D02*
X103573082Y-61305590D01*
X103573082Y-61305590D02*
X103763558Y-61067495D01*
X103763558Y-61067495D02*
X104049273Y-60948447D01*
X104049273Y-60948447D02*
X104239749Y-60948447D01*
X104239749Y-60948447D02*
X104525463Y-61067495D01*
X104525463Y-61067495D02*
X104620701Y-61186542D01*
X107573083Y-64400828D02*
X107477844Y-64281780D01*
X107477844Y-64281780D02*
X107287368Y-63924638D01*
X107287368Y-63924638D02*
X107192130Y-63686542D01*
X107192130Y-63686542D02*
X107096892Y-63329400D01*
X107096892Y-63329400D02*
X107001654Y-62734161D01*
X107001654Y-62734161D02*
X107001654Y-62257971D01*
X107001654Y-62257971D02*
X107096892Y-61662733D01*
X107096892Y-61662733D02*
X107192130Y-61305590D01*
X107192130Y-61305590D02*
X107287368Y-61067495D01*
X107287368Y-61067495D02*
X107477844Y-60710352D01*
X107477844Y-60710352D02*
X107573083Y-60591304D01*
X108906416Y-60948447D02*
X108906416Y-62734161D01*
X108906416Y-62734161D02*
X108811177Y-63091304D01*
X108811177Y-63091304D02*
X108620701Y-63329400D01*
X108620701Y-63329400D02*
X108334987Y-63448447D01*
X108334987Y-63448447D02*
X108144511Y-63448447D01*
X110715940Y-61781780D02*
X110715940Y-63448447D01*
X109858797Y-61781780D02*
X109858797Y-63091304D01*
X109858797Y-63091304D02*
X109954035Y-63329400D01*
X109954035Y-63329400D02*
X110144511Y-63448447D01*
X110144511Y-63448447D02*
X110430226Y-63448447D01*
X110430226Y-63448447D02*
X110620702Y-63329400D01*
X110620702Y-63329400D02*
X110715940Y-63210352D01*
X111668321Y-61781780D02*
X111668321Y-63448447D01*
X111668321Y-62019876D02*
X111763559Y-61900828D01*
X111763559Y-61900828D02*
X111954035Y-61781780D01*
X111954035Y-61781780D02*
X112239750Y-61781780D01*
X112239750Y-61781780D02*
X112430226Y-61900828D01*
X112430226Y-61900828D02*
X112525464Y-62138923D01*
X112525464Y-62138923D02*
X112525464Y-63448447D01*
X114239750Y-63329400D02*
X114049274Y-63448447D01*
X114049274Y-63448447D02*
X113668321Y-63448447D01*
X113668321Y-63448447D02*
X113477845Y-63329400D01*
X113477845Y-63329400D02*
X113382607Y-63091304D01*
X113382607Y-63091304D02*
X113382607Y-62138923D01*
X113382607Y-62138923D02*
X113477845Y-61900828D01*
X113477845Y-61900828D02*
X113668321Y-61781780D01*
X113668321Y-61781780D02*
X114049274Y-61781780D01*
X114049274Y-61781780D02*
X114239750Y-61900828D01*
X114239750Y-61900828D02*
X114334988Y-62138923D01*
X114334988Y-62138923D02*
X114334988Y-62377019D01*
X114334988Y-62377019D02*
X113382607Y-62615114D01*
X116620703Y-61186542D02*
X116715941Y-61067495D01*
X116715941Y-61067495D02*
X116906417Y-60948447D01*
X116906417Y-60948447D02*
X117382608Y-60948447D01*
X117382608Y-60948447D02*
X117573084Y-61067495D01*
X117573084Y-61067495D02*
X117668322Y-61186542D01*
X117668322Y-61186542D02*
X117763560Y-61424638D01*
X117763560Y-61424638D02*
X117763560Y-61662733D01*
X117763560Y-61662733D02*
X117668322Y-62019876D01*
X117668322Y-62019876D02*
X116525465Y-63448447D01*
X116525465Y-63448447D02*
X117763560Y-63448447D01*
X119001655Y-60948447D02*
X119192132Y-60948447D01*
X119192132Y-60948447D02*
X119382608Y-61067495D01*
X119382608Y-61067495D02*
X119477846Y-61186542D01*
X119477846Y-61186542D02*
X119573084Y-61424638D01*
X119573084Y-61424638D02*
X119668322Y-61900828D01*
X119668322Y-61900828D02*
X119668322Y-62496066D01*
X119668322Y-62496066D02*
X119573084Y-62972257D01*
X119573084Y-62972257D02*
X119477846Y-63210352D01*
X119477846Y-63210352D02*
X119382608Y-63329400D01*
X119382608Y-63329400D02*
X119192132Y-63448447D01*
X119192132Y-63448447D02*
X119001655Y-63448447D01*
X119001655Y-63448447D02*
X118811179Y-63329400D01*
X118811179Y-63329400D02*
X118715941Y-63210352D01*
X118715941Y-63210352D02*
X118620703Y-62972257D01*
X118620703Y-62972257D02*
X118525465Y-62496066D01*
X118525465Y-62496066D02*
X118525465Y-61900828D01*
X118525465Y-61900828D02*
X118620703Y-61424638D01*
X118620703Y-61424638D02*
X118715941Y-61186542D01*
X118715941Y-61186542D02*
X118811179Y-61067495D01*
X118811179Y-61067495D02*
X119001655Y-60948447D01*
X120430227Y-61186542D02*
X120525465Y-61067495D01*
X120525465Y-61067495D02*
X120715941Y-60948447D01*
X120715941Y-60948447D02*
X121192132Y-60948447D01*
X121192132Y-60948447D02*
X121382608Y-61067495D01*
X121382608Y-61067495D02*
X121477846Y-61186542D01*
X121477846Y-61186542D02*
X121573084Y-61424638D01*
X121573084Y-61424638D02*
X121573084Y-61662733D01*
X121573084Y-61662733D02*
X121477846Y-62019876D01*
X121477846Y-62019876D02*
X120334989Y-63448447D01*
X120334989Y-63448447D02*
X121573084Y-63448447D01*
X123287370Y-60948447D02*
X122906417Y-60948447D01*
X122906417Y-60948447D02*
X122715941Y-61067495D01*
X122715941Y-61067495D02*
X122620703Y-61186542D01*
X122620703Y-61186542D02*
X122430227Y-61543685D01*
X122430227Y-61543685D02*
X122334989Y-62019876D01*
X122334989Y-62019876D02*
X122334989Y-62972257D01*
X122334989Y-62972257D02*
X122430227Y-63210352D01*
X122430227Y-63210352D02*
X122525465Y-63329400D01*
X122525465Y-63329400D02*
X122715941Y-63448447D01*
X122715941Y-63448447D02*
X123096894Y-63448447D01*
X123096894Y-63448447D02*
X123287370Y-63329400D01*
X123287370Y-63329400D02*
X123382608Y-63210352D01*
X123382608Y-63210352D02*
X123477846Y-62972257D01*
X123477846Y-62972257D02*
X123477846Y-62377019D01*
X123477846Y-62377019D02*
X123382608Y-62138923D01*
X123382608Y-62138923D02*
X123287370Y-62019876D01*
X123287370Y-62019876D02*
X123096894Y-61900828D01*
X123096894Y-61900828D02*
X122715941Y-61900828D01*
X122715941Y-61900828D02*
X122525465Y-62019876D01*
X122525465Y-62019876D02*
X122430227Y-62138923D01*
X122430227Y-62138923D02*
X122334989Y-62377019D01*
X124144513Y-64400828D02*
X124239751Y-64281780D01*
X124239751Y-64281780D02*
X124430227Y-63924638D01*
X124430227Y-63924638D02*
X124525465Y-63686542D01*
X124525465Y-63686542D02*
X124620703Y-63329400D01*
X124620703Y-63329400D02*
X124715941Y-62734161D01*
X124715941Y-62734161D02*
X124715941Y-62257971D01*
X124715941Y-62257971D02*
X124620703Y-61662733D01*
X124620703Y-61662733D02*
X124525465Y-61305590D01*
X124525465Y-61305590D02*
X124430227Y-61067495D01*
X124430227Y-61067495D02*
X124239751Y-60710352D01*
X124239751Y-60710352D02*
X124144513Y-60591304D01*
D13*
X138034819Y-103143333D02*
X138749104Y-103143333D01*
X138749104Y-103143333D02*
X138891961Y-103190952D01*
X138891961Y-103190952D02*
X138987200Y-103286190D01*
X138987200Y-103286190D02*
X139034819Y-103429047D01*
X139034819Y-103429047D02*
X139034819Y-103524285D01*
X138034819Y-102238571D02*
X138034819Y-102429047D01*
X138034819Y-102429047D02*
X138082438Y-102524285D01*
X138082438Y-102524285D02*
X138130057Y-102571904D01*
X138130057Y-102571904D02*
X138272914Y-102667142D01*
X138272914Y-102667142D02*
X138463390Y-102714761D01*
X138463390Y-102714761D02*
X138844342Y-102714761D01*
X138844342Y-102714761D02*
X138939580Y-102667142D01*
X138939580Y-102667142D02*
X138987200Y-102619523D01*
X138987200Y-102619523D02*
X139034819Y-102524285D01*
X139034819Y-102524285D02*
X139034819Y-102333809D01*
X139034819Y-102333809D02*
X138987200Y-102238571D01*
X138987200Y-102238571D02*
X138939580Y-102190952D01*
X138939580Y-102190952D02*
X138844342Y-102143333D01*
X138844342Y-102143333D02*
X138606247Y-102143333D01*
X138606247Y-102143333D02*
X138511009Y-102190952D01*
X138511009Y-102190952D02*
X138463390Y-102238571D01*
X138463390Y-102238571D02*
X138415771Y-102333809D01*
X138415771Y-102333809D02*
X138415771Y-102524285D01*
X138415771Y-102524285D02*
X138463390Y-102619523D01*
X138463390Y-102619523D02*
X138511009Y-102667142D01*
X138511009Y-102667142D02*
X138606247Y-102714761D01*
X122464819Y-92863333D02*
X123179104Y-92863333D01*
X123179104Y-92863333D02*
X123321961Y-92910952D01*
X123321961Y-92910952D02*
X123417200Y-93006190D01*
X123417200Y-93006190D02*
X123464819Y-93149047D01*
X123464819Y-93149047D02*
X123464819Y-93244285D01*
X123464819Y-92339523D02*
X123464819Y-92149047D01*
X123464819Y-92149047D02*
X123417200Y-92053809D01*
X123417200Y-92053809D02*
X123369580Y-92006190D01*
X123369580Y-92006190D02*
X123226723Y-91910952D01*
X123226723Y-91910952D02*
X123036247Y-91863333D01*
X123036247Y-91863333D02*
X122655295Y-91863333D01*
X122655295Y-91863333D02*
X122560057Y-91910952D01*
X122560057Y-91910952D02*
X122512438Y-91958571D01*
X122512438Y-91958571D02*
X122464819Y-92053809D01*
X122464819Y-92053809D02*
X122464819Y-92244285D01*
X122464819Y-92244285D02*
X122512438Y-92339523D01*
X122512438Y-92339523D02*
X122560057Y-92387142D01*
X122560057Y-92387142D02*
X122655295Y-92434761D01*
X122655295Y-92434761D02*
X122893390Y-92434761D01*
X122893390Y-92434761D02*
X122988628Y-92387142D01*
X122988628Y-92387142D02*
X123036247Y-92339523D01*
X123036247Y-92339523D02*
X123083866Y-92244285D01*
X123083866Y-92244285D02*
X123083866Y-92053809D01*
X123083866Y-92053809D02*
X123036247Y-91958571D01*
X123036247Y-91958571D02*
X122988628Y-91910952D01*
X122988628Y-91910952D02*
X122893390Y-91863333D01*
X182834819Y-51083333D02*
X183549104Y-51083333D01*
X183549104Y-51083333D02*
X183691961Y-51130952D01*
X183691961Y-51130952D02*
X183787200Y-51226190D01*
X183787200Y-51226190D02*
X183834819Y-51369047D01*
X183834819Y-51369047D02*
X183834819Y-51464285D01*
X182834819Y-50130952D02*
X182834819Y-50607142D01*
X182834819Y-50607142D02*
X183311009Y-50654761D01*
X183311009Y-50654761D02*
X183263390Y-50607142D01*
X183263390Y-50607142D02*
X183215771Y-50511904D01*
X183215771Y-50511904D02*
X183215771Y-50273809D01*
X183215771Y-50273809D02*
X183263390Y-50178571D01*
X183263390Y-50178571D02*
X183311009Y-50130952D01*
X183311009Y-50130952D02*
X183406247Y-50083333D01*
X183406247Y-50083333D02*
X183644342Y-50083333D01*
X183644342Y-50083333D02*
X183739580Y-50130952D01*
X183739580Y-50130952D02*
X183787200Y-50178571D01*
X183787200Y-50178571D02*
X183834819Y-50273809D01*
X183834819Y-50273809D02*
X183834819Y-50511904D01*
X183834819Y-50511904D02*
X183787200Y-50607142D01*
X183787200Y-50607142D02*
X183739580Y-50654761D01*
X122324819Y-101563333D02*
X123039104Y-101563333D01*
X123039104Y-101563333D02*
X123181961Y-101610952D01*
X123181961Y-101610952D02*
X123277200Y-101706190D01*
X123277200Y-101706190D02*
X123324819Y-101849047D01*
X123324819Y-101849047D02*
X123324819Y-101944285D01*
X122753390Y-100944285D02*
X122705771Y-101039523D01*
X122705771Y-101039523D02*
X122658152Y-101087142D01*
X122658152Y-101087142D02*
X122562914Y-101134761D01*
X122562914Y-101134761D02*
X122515295Y-101134761D01*
X122515295Y-101134761D02*
X122420057Y-101087142D01*
X122420057Y-101087142D02*
X122372438Y-101039523D01*
X122372438Y-101039523D02*
X122324819Y-100944285D01*
X122324819Y-100944285D02*
X122324819Y-100753809D01*
X122324819Y-100753809D02*
X122372438Y-100658571D01*
X122372438Y-100658571D02*
X122420057Y-100610952D01*
X122420057Y-100610952D02*
X122515295Y-100563333D01*
X122515295Y-100563333D02*
X122562914Y-100563333D01*
X122562914Y-100563333D02*
X122658152Y-100610952D01*
X122658152Y-100610952D02*
X122705771Y-100658571D01*
X122705771Y-100658571D02*
X122753390Y-100753809D01*
X122753390Y-100753809D02*
X122753390Y-100944285D01*
X122753390Y-100944285D02*
X122801009Y-101039523D01*
X122801009Y-101039523D02*
X122848628Y-101087142D01*
X122848628Y-101087142D02*
X122943866Y-101134761D01*
X122943866Y-101134761D02*
X123134342Y-101134761D01*
X123134342Y-101134761D02*
X123229580Y-101087142D01*
X123229580Y-101087142D02*
X123277200Y-101039523D01*
X123277200Y-101039523D02*
X123324819Y-100944285D01*
X123324819Y-100944285D02*
X123324819Y-100753809D01*
X123324819Y-100753809D02*
X123277200Y-100658571D01*
X123277200Y-100658571D02*
X123229580Y-100610952D01*
X123229580Y-100610952D02*
X123134342Y-100563333D01*
X123134342Y-100563333D02*
X122943866Y-100563333D01*
X122943866Y-100563333D02*
X122848628Y-100610952D01*
X122848628Y-100610952D02*
X122801009Y-100658571D01*
X122801009Y-100658571D02*
X122753390Y-100753809D01*
X96819704Y-109922698D02*
X96819704Y-108922698D01*
X96819704Y-109398888D02*
X97391132Y-109398888D01*
X97391132Y-109922698D02*
X97391132Y-108922698D01*
X98391132Y-109922698D02*
X97819704Y-109922698D01*
X98105418Y-109922698D02*
X98105418Y-108922698D01*
X98105418Y-108922698D02*
X98010180Y-109065555D01*
X98010180Y-109065555D02*
X97914942Y-109160793D01*
X97914942Y-109160793D02*
X97819704Y-109208412D01*
X124810509Y-48854819D02*
X124810509Y-47854819D01*
X124810509Y-48331009D02*
X125381937Y-48331009D01*
X125381937Y-48854819D02*
X125381937Y-47854819D01*
X125762890Y-47854819D02*
X126381937Y-47854819D01*
X126381937Y-47854819D02*
X126048604Y-48235771D01*
X126048604Y-48235771D02*
X126191461Y-48235771D01*
X126191461Y-48235771D02*
X126286699Y-48283390D01*
X126286699Y-48283390D02*
X126334318Y-48331009D01*
X126334318Y-48331009D02*
X126381937Y-48426247D01*
X126381937Y-48426247D02*
X126381937Y-48664342D01*
X126381937Y-48664342D02*
X126334318Y-48759580D01*
X126334318Y-48759580D02*
X126286699Y-48807200D01*
X126286699Y-48807200D02*
X126191461Y-48854819D01*
X126191461Y-48854819D02*
X125905747Y-48854819D01*
X125905747Y-48854819D02*
X125810509Y-48807200D01*
X125810509Y-48807200D02*
X125762890Y-48759580D01*
X136459047Y-67491009D02*
X136601904Y-67538628D01*
X136601904Y-67538628D02*
X136649523Y-67586247D01*
X136649523Y-67586247D02*
X136697142Y-67681485D01*
X136697142Y-67681485D02*
X136697142Y-67824342D01*
X136697142Y-67824342D02*
X136649523Y-67919580D01*
X136649523Y-67919580D02*
X136601904Y-67967200D01*
X136601904Y-67967200D02*
X136506666Y-68014819D01*
X136506666Y-68014819D02*
X136125714Y-68014819D01*
X136125714Y-68014819D02*
X136125714Y-67014819D01*
X136125714Y-67014819D02*
X136459047Y-67014819D01*
X136459047Y-67014819D02*
X136554285Y-67062438D01*
X136554285Y-67062438D02*
X136601904Y-67110057D01*
X136601904Y-67110057D02*
X136649523Y-67205295D01*
X136649523Y-67205295D02*
X136649523Y-67300533D01*
X136649523Y-67300533D02*
X136601904Y-67395771D01*
X136601904Y-67395771D02*
X136554285Y-67443390D01*
X136554285Y-67443390D02*
X136459047Y-67491009D01*
X136459047Y-67491009D02*
X136125714Y-67491009D01*
X137030476Y-67014819D02*
X137697142Y-67014819D01*
X137697142Y-67014819D02*
X137030476Y-68014819D01*
X137030476Y-68014819D02*
X137697142Y-68014819D01*
X138601904Y-68014819D02*
X138030476Y-68014819D01*
X138316190Y-68014819D02*
X138316190Y-67014819D01*
X138316190Y-67014819D02*
X138220952Y-67157676D01*
X138220952Y-67157676D02*
X138125714Y-67252914D01*
X138125714Y-67252914D02*
X138030476Y-67300533D01*
X133249048Y-69193866D02*
X134010953Y-69193866D01*
X133630000Y-69574819D02*
X133630000Y-68812914D01*
D11*
X172855714Y-64020400D02*
X172712857Y-63972780D01*
X172712857Y-63972780D02*
X172474762Y-63972780D01*
X172474762Y-63972780D02*
X172379524Y-64020400D01*
X172379524Y-64020400D02*
X172331905Y-64068019D01*
X172331905Y-64068019D02*
X172284286Y-64163257D01*
X172284286Y-64163257D02*
X172284286Y-64258495D01*
X172284286Y-64258495D02*
X172331905Y-64353733D01*
X172331905Y-64353733D02*
X172379524Y-64401352D01*
X172379524Y-64401352D02*
X172474762Y-64448971D01*
X172474762Y-64448971D02*
X172665238Y-64496590D01*
X172665238Y-64496590D02*
X172760476Y-64544209D01*
X172760476Y-64544209D02*
X172808095Y-64591828D01*
X172808095Y-64591828D02*
X172855714Y-64687066D01*
X172855714Y-64687066D02*
X172855714Y-64782304D01*
X172855714Y-64782304D02*
X172808095Y-64877542D01*
X172808095Y-64877542D02*
X172760476Y-64925161D01*
X172760476Y-64925161D02*
X172665238Y-64972780D01*
X172665238Y-64972780D02*
X172427143Y-64972780D01*
X172427143Y-64972780D02*
X172284286Y-64925161D01*
X171855714Y-63972780D02*
X171855714Y-64972780D01*
X171855714Y-64972780D02*
X171617619Y-64972780D01*
X171617619Y-64972780D02*
X171474762Y-64925161D01*
X171474762Y-64925161D02*
X171379524Y-64829923D01*
X171379524Y-64829923D02*
X171331905Y-64734685D01*
X171331905Y-64734685D02*
X171284286Y-64544209D01*
X171284286Y-64544209D02*
X171284286Y-64401352D01*
X171284286Y-64401352D02*
X171331905Y-64210876D01*
X171331905Y-64210876D02*
X171379524Y-64115638D01*
X171379524Y-64115638D02*
X171474762Y-64020400D01*
X171474762Y-64020400D02*
X171617619Y-63972780D01*
X171617619Y-63972780D02*
X171855714Y-63972780D01*
X170903333Y-64258495D02*
X170427143Y-64258495D01*
X170998571Y-63972780D02*
X170665238Y-64972780D01*
X170665238Y-64972780D02*
X170331905Y-63972780D01*
X169284285Y-64020400D02*
X169141428Y-63972780D01*
X169141428Y-63972780D02*
X168903333Y-63972780D01*
X168903333Y-63972780D02*
X168808095Y-64020400D01*
X168808095Y-64020400D02*
X168760476Y-64068019D01*
X168760476Y-64068019D02*
X168712857Y-64163257D01*
X168712857Y-64163257D02*
X168712857Y-64258495D01*
X168712857Y-64258495D02*
X168760476Y-64353733D01*
X168760476Y-64353733D02*
X168808095Y-64401352D01*
X168808095Y-64401352D02*
X168903333Y-64448971D01*
X168903333Y-64448971D02*
X169093809Y-64496590D01*
X169093809Y-64496590D02*
X169189047Y-64544209D01*
X169189047Y-64544209D02*
X169236666Y-64591828D01*
X169236666Y-64591828D02*
X169284285Y-64687066D01*
X169284285Y-64687066D02*
X169284285Y-64782304D01*
X169284285Y-64782304D02*
X169236666Y-64877542D01*
X169236666Y-64877542D02*
X169189047Y-64925161D01*
X169189047Y-64925161D02*
X169093809Y-64972780D01*
X169093809Y-64972780D02*
X168855714Y-64972780D01*
X168855714Y-64972780D02*
X168712857Y-64925161D01*
X167712857Y-64068019D02*
X167760476Y-64020400D01*
X167760476Y-64020400D02*
X167903333Y-63972780D01*
X167903333Y-63972780D02*
X167998571Y-63972780D01*
X167998571Y-63972780D02*
X168141428Y-64020400D01*
X168141428Y-64020400D02*
X168236666Y-64115638D01*
X168236666Y-64115638D02*
X168284285Y-64210876D01*
X168284285Y-64210876D02*
X168331904Y-64401352D01*
X168331904Y-64401352D02*
X168331904Y-64544209D01*
X168331904Y-64544209D02*
X168284285Y-64734685D01*
X168284285Y-64734685D02*
X168236666Y-64829923D01*
X168236666Y-64829923D02*
X168141428Y-64925161D01*
X168141428Y-64925161D02*
X167998571Y-64972780D01*
X167998571Y-64972780D02*
X167903333Y-64972780D01*
X167903333Y-64972780D02*
X167760476Y-64925161D01*
X167760476Y-64925161D02*
X167712857Y-64877542D01*
X167284285Y-63972780D02*
X167284285Y-64972780D01*
X166712857Y-63972780D02*
X167141428Y-64544209D01*
X166712857Y-64972780D02*
X167284285Y-64401352D01*
X165665237Y-64972780D02*
X165331904Y-63972780D01*
X165331904Y-63972780D02*
X164998571Y-64972780D01*
X164093809Y-64068019D02*
X164141428Y-64020400D01*
X164141428Y-64020400D02*
X164284285Y-63972780D01*
X164284285Y-63972780D02*
X164379523Y-63972780D01*
X164379523Y-63972780D02*
X164522380Y-64020400D01*
X164522380Y-64020400D02*
X164617618Y-64115638D01*
X164617618Y-64115638D02*
X164665237Y-64210876D01*
X164665237Y-64210876D02*
X164712856Y-64401352D01*
X164712856Y-64401352D02*
X164712856Y-64544209D01*
X164712856Y-64544209D02*
X164665237Y-64734685D01*
X164665237Y-64734685D02*
X164617618Y-64829923D01*
X164617618Y-64829923D02*
X164522380Y-64925161D01*
X164522380Y-64925161D02*
X164379523Y-64972780D01*
X164379523Y-64972780D02*
X164284285Y-64972780D01*
X164284285Y-64972780D02*
X164141428Y-64925161D01*
X164141428Y-64925161D02*
X164093809Y-64877542D01*
X163093809Y-64068019D02*
X163141428Y-64020400D01*
X163141428Y-64020400D02*
X163284285Y-63972780D01*
X163284285Y-63972780D02*
X163379523Y-63972780D01*
X163379523Y-63972780D02*
X163522380Y-64020400D01*
X163522380Y-64020400D02*
X163617618Y-64115638D01*
X163617618Y-64115638D02*
X163665237Y-64210876D01*
X163665237Y-64210876D02*
X163712856Y-64401352D01*
X163712856Y-64401352D02*
X163712856Y-64544209D01*
X163712856Y-64544209D02*
X163665237Y-64734685D01*
X163665237Y-64734685D02*
X163617618Y-64829923D01*
X163617618Y-64829923D02*
X163522380Y-64925161D01*
X163522380Y-64925161D02*
X163379523Y-64972780D01*
X163379523Y-64972780D02*
X163284285Y-64972780D01*
X163284285Y-64972780D02*
X163141428Y-64925161D01*
X163141428Y-64925161D02*
X163093809Y-64877542D01*
X161379523Y-64925161D02*
X161474761Y-64972780D01*
X161474761Y-64972780D02*
X161617618Y-64972780D01*
X161617618Y-64972780D02*
X161760475Y-64925161D01*
X161760475Y-64925161D02*
X161855713Y-64829923D01*
X161855713Y-64829923D02*
X161903332Y-64734685D01*
X161903332Y-64734685D02*
X161950951Y-64544209D01*
X161950951Y-64544209D02*
X161950951Y-64401352D01*
X161950951Y-64401352D02*
X161903332Y-64210876D01*
X161903332Y-64210876D02*
X161855713Y-64115638D01*
X161855713Y-64115638D02*
X161760475Y-64020400D01*
X161760475Y-64020400D02*
X161617618Y-63972780D01*
X161617618Y-63972780D02*
X161522380Y-63972780D01*
X161522380Y-63972780D02*
X161379523Y-64020400D01*
X161379523Y-64020400D02*
X161331904Y-64068019D01*
X161331904Y-64068019D02*
X161331904Y-64401352D01*
X161331904Y-64401352D02*
X161522380Y-64401352D01*
X160903332Y-63972780D02*
X160903332Y-64972780D01*
X160903332Y-64972780D02*
X160331904Y-63972780D01*
X160331904Y-63972780D02*
X160331904Y-64972780D01*
X159855713Y-63972780D02*
X159855713Y-64972780D01*
X159855713Y-64972780D02*
X159617618Y-64972780D01*
X159617618Y-64972780D02*
X159474761Y-64925161D01*
X159474761Y-64925161D02*
X159379523Y-64829923D01*
X159379523Y-64829923D02*
X159331904Y-64734685D01*
X159331904Y-64734685D02*
X159284285Y-64544209D01*
X159284285Y-64544209D02*
X159284285Y-64401352D01*
X159284285Y-64401352D02*
X159331904Y-64210876D01*
X159331904Y-64210876D02*
X159379523Y-64115638D01*
X159379523Y-64115638D02*
X159474761Y-64020400D01*
X159474761Y-64020400D02*
X159617618Y-63972780D01*
X159617618Y-63972780D02*
X159855713Y-63972780D01*
D13*
X140016624Y-137318151D02*
X140730909Y-137318151D01*
X140730909Y-137318151D02*
X140873766Y-137365770D01*
X140873766Y-137365770D02*
X140969005Y-137461008D01*
X140969005Y-137461008D02*
X141016624Y-137603865D01*
X141016624Y-137603865D02*
X141016624Y-137699103D01*
X140349957Y-136413389D02*
X141016624Y-136413389D01*
X139969005Y-136651484D02*
X140683290Y-136889579D01*
X140683290Y-136889579D02*
X140683290Y-136270532D01*
X96986666Y-81287233D02*
X96986666Y-82001518D01*
X96986666Y-82001518D02*
X96939047Y-82144375D01*
X96939047Y-82144375D02*
X96843809Y-82239614D01*
X96843809Y-82239614D02*
X96700952Y-82287233D01*
X96700952Y-82287233D02*
X96605714Y-82287233D01*
X97367619Y-81287233D02*
X97986666Y-81287233D01*
X97986666Y-81287233D02*
X97653333Y-81668185D01*
X97653333Y-81668185D02*
X97796190Y-81668185D01*
X97796190Y-81668185D02*
X97891428Y-81715804D01*
X97891428Y-81715804D02*
X97939047Y-81763423D01*
X97939047Y-81763423D02*
X97986666Y-81858661D01*
X97986666Y-81858661D02*
X97986666Y-82096756D01*
X97986666Y-82096756D02*
X97939047Y-82191994D01*
X97939047Y-82191994D02*
X97891428Y-82239614D01*
X97891428Y-82239614D02*
X97796190Y-82287233D01*
X97796190Y-82287233D02*
X97510476Y-82287233D01*
X97510476Y-82287233D02*
X97415238Y-82239614D01*
X97415238Y-82239614D02*
X97367619Y-82191994D01*
X186462222Y-58080250D02*
X186462222Y-57080250D01*
X186462222Y-57556440D02*
X187033650Y-57556440D01*
X187033650Y-58080250D02*
X187033650Y-57080250D01*
X187462222Y-57175488D02*
X187509841Y-57127869D01*
X187509841Y-57127869D02*
X187605079Y-57080250D01*
X187605079Y-57080250D02*
X187843174Y-57080250D01*
X187843174Y-57080250D02*
X187938412Y-57127869D01*
X187938412Y-57127869D02*
X187986031Y-57175488D01*
X187986031Y-57175488D02*
X188033650Y-57270726D01*
X188033650Y-57270726D02*
X188033650Y-57365964D01*
X188033650Y-57365964D02*
X187986031Y-57508821D01*
X187986031Y-57508821D02*
X187414603Y-58080250D01*
X187414603Y-58080250D02*
X188033650Y-58080250D01*
X185788095Y-121936428D02*
X185788095Y-120936428D01*
X185788095Y-121412618D02*
X186359523Y-121412618D01*
X186359523Y-121936428D02*
X186359523Y-120936428D01*
X187264285Y-121269761D02*
X187264285Y-121936428D01*
X187026190Y-120888809D02*
X186788095Y-121603094D01*
X186788095Y-121603094D02*
X187407142Y-121603094D01*
%TO.C,J6*%
D14*
X139480000Y-95110000D02*
X139480000Y-110510000D01*
X139480000Y-108270000D02*
X141740000Y-108270000D01*
X139480000Y-110510000D02*
X141340000Y-110510000D01*
X146240000Y-110510000D02*
X180080000Y-110510000D01*
X151410000Y-111570000D02*
X148870000Y-111570000D01*
X180080000Y-95110000D02*
X139480000Y-95110000D01*
X180080000Y-110510000D02*
X180080000Y-95110000D01*
X146340000Y-109820000D02*
G75*
G02*
X141240000Y-109820000I-2550000J0D01*
G01*
X141240000Y-109820000D02*
G75*
G02*
X146340000Y-109820000I2550000J0D01*
G01*
X144690000Y-109820000D02*
G75*
G02*
X142890000Y-109820000I-900000J0D01*
G01*
X142890000Y-109820000D02*
G75*
G02*
X144690000Y-109820000I900000J0D01*
G01*
%TO.C,J9*%
X124010000Y-93910000D02*
X124010000Y-92530000D01*
X125390000Y-93910000D02*
X124010000Y-93910000D01*
X126660000Y-91150000D02*
X131850000Y-91150000D01*
X126660000Y-93910000D02*
X126660000Y-91150000D01*
X126660000Y-93910000D02*
X131850000Y-93910000D01*
X131850000Y-93910000D02*
X131850000Y-91150000D01*
%TO.C,J7*%
X117110000Y-80170000D02*
X117110000Y-78900000D01*
X117950000Y-77740000D02*
X117950000Y-77510000D01*
X118380000Y-80170000D02*
X117110000Y-80170000D01*
X118810000Y-77740000D02*
X118810000Y-77510000D01*
X119650000Y-77510000D02*
X119650000Y-74750000D01*
X120490000Y-68750000D02*
X121350000Y-68750000D01*
X120490000Y-74750000D02*
X120490000Y-68750000D01*
X120490000Y-77822642D02*
X120490000Y-77510000D01*
X121350000Y-68750000D02*
X121350000Y-74750000D01*
X121350000Y-77822642D02*
X121350000Y-77510000D01*
X122190000Y-77510000D02*
X122190000Y-74750000D01*
X123030000Y-68750000D02*
X123890000Y-68750000D01*
X123030000Y-74750000D02*
X123030000Y-68750000D01*
X123030000Y-77822642D02*
X123030000Y-77510000D01*
X123890000Y-68750000D02*
X123890000Y-74750000D01*
X123890000Y-77822642D02*
X123890000Y-77510000D01*
X117000000Y-74750000D02*
X124840000Y-74750000D01*
X124840000Y-77510000D01*
X117000000Y-77510000D01*
X117000000Y-74750000D01*
X117950000Y-68750000D02*
X118810000Y-68750000D01*
X118810000Y-74750000D01*
X117950000Y-74750000D01*
X117950000Y-68750000D01*
G36*
X117950000Y-68750000D02*
G01*
X118810000Y-68750000D01*
X118810000Y-74750000D01*
X117950000Y-74750000D01*
X117950000Y-68750000D01*
G37*
%TO.C,J5*%
X141520000Y-49370000D02*
X141520000Y-52130000D01*
X179730000Y-49370000D02*
X141520000Y-49370000D01*
X179730000Y-49370000D02*
X179730000Y-52130000D01*
X179730000Y-52130000D02*
X141520000Y-52130000D01*
X181000000Y-49370000D02*
X182380000Y-49370000D01*
X182380000Y-49370000D02*
X182380000Y-50750000D01*
%TO.C,J8*%
X123870000Y-102610000D02*
X123870000Y-101230000D01*
X125250000Y-102610000D02*
X123870000Y-102610000D01*
X126520000Y-99850000D02*
X131710000Y-99850000D01*
X126520000Y-102610000D02*
X126520000Y-99850000D01*
X126520000Y-102610000D02*
X131710000Y-102610000D01*
X131710000Y-102610000D02*
X131710000Y-99850000D01*
%TO.C,R2*%
X108680000Y-49800000D02*
X108680000Y-50130000D01*
X108680000Y-52540000D02*
X108680000Y-52210000D01*
X115220000Y-49800000D02*
X108680000Y-49800000D01*
X115220000Y-50130000D02*
X115220000Y-49800000D01*
X115220000Y-52210000D02*
X115220000Y-52540000D01*
X115220000Y-52540000D02*
X108680000Y-52540000D01*
%TO.C,D1*%
X97130000Y-51140000D02*
X97130000Y-50984000D01*
X97130000Y-53456000D02*
X97130000Y-53300000D01*
X93898563Y-51140000D02*
G75*
G02*
X97130000Y-50984484I1671437J-1080000D01*
G01*
X94529039Y-51140000D02*
G75*
G02*
X96610961Y-51140000I1040961J-1080000D01*
G01*
X96610961Y-53300000D02*
G75*
G02*
X94529039Y-53300000I-1040961J1080000D01*
G01*
X97130000Y-53455516D02*
G75*
G02*
X93898563Y-53300000I-1560000J1235516D01*
G01*
%TO.C,SW1*%
X144250000Y-123500000D02*
X144250000Y-125000000D01*
X145500000Y-127500000D02*
X150000000Y-127500000D01*
X150000000Y-121000000D02*
X145500000Y-121000000D01*
X151250000Y-125000000D02*
X151250000Y-123500000D01*
%TO.C,D3*%
X104530000Y-51170000D02*
X104530000Y-51014000D01*
X104530000Y-53486000D02*
X104530000Y-53330000D01*
X101298563Y-51170000D02*
G75*
G02*
X104530000Y-51014484I1671437J-1080000D01*
G01*
X101929039Y-51170000D02*
G75*
G02*
X104010961Y-51170000I1040961J-1080000D01*
G01*
X104010961Y-53330000D02*
G75*
G02*
X101929039Y-53330000I-1040961J1080000D01*
G01*
X104530000Y-53485516D02*
G75*
G02*
X101298563Y-53330000I-1560000J1235516D01*
G01*
%TO.C,BZ1*%
X145040000Y-71660000D02*
G75*
G02*
X129840000Y-71660000I-7600000J0D01*
G01*
X129840000Y-71660000D02*
G75*
G02*
X145040000Y-71660000I7600000J0D01*
G01*
%TO.C,R1*%
X108710000Y-52960000D02*
X108710000Y-53290000D01*
X108710000Y-55700000D02*
X108710000Y-55370000D01*
X115250000Y-52960000D02*
X108710000Y-52960000D01*
X115250000Y-53290000D02*
X115250000Y-52960000D01*
X115250000Y-55370000D02*
X115250000Y-55700000D01*
X115250000Y-55700000D02*
X108710000Y-55700000D01*
%TO.C,D2*%
X116537188Y-103973000D02*
X117783000Y-103973000D01*
X114438000Y-103798000D02*
G75*
G02*
X115979784Y-98436165I1800000J2385000D01*
G01*
X114460001Y-103165599D02*
G75*
G02*
X115951579Y-98932910I1777999J1752599D01*
G01*
X117791056Y-99453914D02*
G75*
G02*
X117318000Y-103667684I-1553056J-1959086D01*
G01*
X118032887Y-99021666D02*
G75*
G02*
X117782830Y-103973000I-1794887J-2391334D01*
G01*
%TO.C,J4*%
X141561805Y-138364818D02*
X141561805Y-136984818D01*
X142941805Y-138364818D02*
X141561805Y-138364818D01*
X144211805Y-135604818D02*
X182421805Y-135604818D01*
X144211805Y-138364818D02*
X144211805Y-135604818D01*
X144211805Y-138364818D02*
X182421805Y-138364818D01*
X182421805Y-138364818D02*
X182421805Y-135604818D01*
%TO.C,SW2*%
X164400000Y-118600000D02*
X168500000Y-118600000D01*
X164400000Y-121000000D02*
X164400000Y-118600000D01*
X164400000Y-125800000D02*
X164400000Y-123200000D01*
X164400000Y-130400000D02*
X164400000Y-128000000D01*
X168500000Y-130400000D02*
X164400000Y-130400000D01*
X170500000Y-125000000D02*
X170500000Y-124000000D01*
X171000000Y-124500000D02*
X170000000Y-124500000D01*
X172500000Y-118600000D02*
X176600000Y-118600000D01*
X172500000Y-130400000D02*
X176600000Y-130400000D01*
X176600000Y-130400000D02*
X176600000Y-118600000D01*
X177700000Y-128600000D02*
X178000000Y-128300000D01*
X178000000Y-128300000D02*
X178300000Y-128600000D01*
X178300000Y-128600000D02*
X177700000Y-128600000D01*
X173500000Y-124500000D02*
G75*
G02*
X167500000Y-124500000I-3000000J0D01*
G01*
X167500000Y-124500000D02*
G75*
G02*
X173500000Y-124500000I3000000J0D01*
G01*
%TO.C,J3*%
X94670000Y-82832414D02*
X96050000Y-82832414D01*
X94670000Y-84212414D02*
X94670000Y-82832414D01*
X94670000Y-85482414D02*
X94670000Y-108452414D01*
X94670000Y-85482414D02*
X97320000Y-85482414D01*
X94670000Y-108452414D02*
X99970000Y-108452414D01*
X97320000Y-82832414D02*
X99970000Y-82832414D01*
X97320000Y-85482414D02*
X97320000Y-82832414D01*
X99970000Y-82832414D02*
X99970000Y-108452414D01*
%TD*%
M02*
