M48
; DRILL file KiCad 10.0.0 date 2026-06-04T18:52:15
; FORMAT={-:-/ absolute / metric / decimal}
; #@! TF.CreationDate,2026-06-04T18:52:15+12:00
; #@! TF.GenerationSoftware,Kicad,Pcbnew,10.0.0
; #@! TF.FileFunction,Plated,1,2,PTH
FMAT,2
METRIC
; #@! TA.AperFunction,Plated,PTH,ViaDrill
T1C0.300
; #@! TA.AperFunction,Plated,PTH,ComponentDrill
T2C0.800
; #@! TA.AperFunction,Plated,PTH,ComponentDrill
T3C0.900
; #@! TA.AperFunction,Plated,PTH,ComponentDrill
T4C1.000
; #@! TA.AperFunction,Plated,PTH,ComponentDrill
T5C1.100
; #@! TA.AperFunction,Plated,PTH,ComponentDrill
T6C1.500
%
G90
G05
T1
X107.752Y-86.752
X108.5Y-87.5
X109.5Y-88.5
X153.925Y-47.9
X183.05Y-110.6
T2
X106.0Y-52.0
X106.0Y-112.0
X106.0Y-114.0
X108.0Y-112.0
X108.0Y-114.0
X110.0Y-112.0
X110.0Y-114.0
X113.62Y-52.0
T3
X99.62Y-52.0
X102.16Y-52.0
X115.476Y-100.524
X115.476Y-103.826
X117.0Y-99.0
X117.0Y-102.048
T4
X96.05Y-84.212
X96.05Y-86.752
X96.05Y-89.292
X96.05Y-91.832
X96.05Y-94.372
X96.05Y-96.912
X96.05Y-99.452
X96.05Y-101.992
X96.05Y-104.532
X96.05Y-107.072
X98.59Y-84.212
X98.59Y-86.752
X98.59Y-89.292
X98.59Y-91.832
X98.59Y-94.372
X98.59Y-96.912
X98.59Y-99.452
X98.59Y-101.992
X98.59Y-104.532
X98.59Y-107.072
X133.64Y-71.66
X141.24Y-71.66
X142.9Y-50.75
X142.942Y-136.985
X145.44Y-50.75
X145.482Y-136.985
X147.98Y-50.75
X148.022Y-136.985
X150.14Y-99.0
X150.14Y-106.62
X150.52Y-50.75
X150.562Y-136.985
X152.68Y-99.0
X152.68Y-106.62
X153.06Y-50.75
X153.102Y-136.985
X155.22Y-99.0
X155.22Y-106.62
X155.6Y-50.75
X155.642Y-136.985
X157.76Y-99.0
X157.76Y-106.62
X158.14Y-50.75
X158.182Y-136.985
X160.3Y-99.0
X160.3Y-106.62
X160.68Y-50.75
X160.722Y-136.985
X162.19Y-62.0
X162.84Y-99.0
X162.84Y-106.62
X163.22Y-50.75
X163.262Y-136.985
X163.5Y-122.0
X163.5Y-127.0
X164.73Y-62.0
X165.38Y-99.0
X165.38Y-106.62
X165.76Y-50.75
X165.802Y-136.985
X167.27Y-62.0
X167.92Y-99.0
X167.92Y-106.62
X168.3Y-50.75
X168.342Y-136.985
X169.81Y-62.0
X170.46Y-99.0
X170.46Y-106.62
X170.84Y-50.75
X170.882Y-136.985
X173.0Y-99.0
X173.0Y-106.62
X173.38Y-50.75
X173.422Y-136.985
X175.92Y-50.75
X175.962Y-136.985
X178.0Y-122.0
X178.0Y-124.5
X178.0Y-127.0
X178.46Y-50.75
X178.502Y-136.985
X181.0Y-50.75
X181.042Y-136.985
T5
X144.5Y-122.0
X144.5Y-126.5
X151.0Y-122.0
X151.0Y-126.5
T6
G00X171.15Y-118.9
M15
G01X169.85Y-118.9
M16
G05
G00X171.15Y-130.1
M15
G01X169.85Y-130.1
M16
G05
M30
