%TF.GenerationSoftware,KiCad,Pcbnew,10.0.0*%
%TF.CreationDate,2026-06-04T18:52:09+12:00*%
%TF.ProjectId,top-board,746f702d-626f-4617-9264-2e6b69636164,rev?*%
%TF.SameCoordinates,Original*%
%TF.FileFunction,Copper,L1,Top*%
%TF.FilePolarity,Positive*%
%FSLAX46Y46*%
G04 Gerber Fmt 4.6, Leading zero omitted, Abs format (unit mm)*
G04 Created by KiCad (PCBNEW 10.0.0) date 2026-06-04 18:52:09*
%MOMM*%
%LPD*%
G01*
G04 APERTURE LIST*
G04 Aperture macros list*
%AMRoundRect*
0 Rectangle with rounded corners*
0 $1 Rounding radius*
0 $2 $3 $4 $5 $6 $7 $8 $9 X,Y pos of 4 corners*
0 Add a 4 corners polygon primitive as box body*
4,1,4,$2,$3,$4,$5,$6,$7,$8,$9,$2,$3,0*
0 Add four circle primitives for the rounded corners*
1,1,$1+$1,$2,$3*
1,1,$1+$1,$4,$5*
1,1,$1+$1,$6,$7*
1,1,$1+$1,$8,$9*
0 Add four rect primitives between the rounded corners*
20,1,$1+$1,$2,$3,$4,$5,0*
20,1,$1+$1,$4,$5,$6,$7,0*
20,1,$1+$1,$6,$7,$8,$9,0*
20,1,$1+$1,$8,$9,$2,$3,0*%
G04 Aperture macros list end*
%TA.AperFunction,ComponentPad*%
%ADD10R,1.440000X2.000000*%
%TD*%
%TA.AperFunction,ComponentPad*%
%ADD11O,1.440000X2.000000*%
%TD*%
%TA.AperFunction,ComponentPad*%
%ADD12R,1.700000X1.700000*%
%TD*%
%TA.AperFunction,ComponentPad*%
%ADD13C,1.700000*%
%TD*%
%TA.AperFunction,ComponentPad*%
%ADD14R,1.350000X1.350000*%
%TD*%
%TA.AperFunction,ComponentPad*%
%ADD15C,1.350000*%
%TD*%
%TA.AperFunction,ComponentPad*%
%ADD16R,1.800000X1.800000*%
%TD*%
%TA.AperFunction,ComponentPad*%
%ADD17C,1.800000*%
%TD*%
%TA.AperFunction,ComponentPad*%
%ADD18C,2.000000*%
%TD*%
%TA.AperFunction,ComponentPad*%
%ADD19R,2.000000X2.000000*%
%TD*%
%TA.AperFunction,ComponentPad*%
%ADD20R,1.508000X1.508000*%
%TD*%
%TA.AperFunction,ComponentPad*%
%ADD21C,1.508000*%
%TD*%
%TA.AperFunction,ComponentPad*%
%ADD22C,1.600000*%
%TD*%
%TA.AperFunction,ComponentPad*%
%ADD23RoundRect,0.450000X0.450000X-0.450000X0.450000X0.450000X-0.450000X0.450000X-0.450000X-0.450000X0*%
%TD*%
%TA.AperFunction,ComponentPad*%
%ADD24R,3.200000X2.000000*%
%TD*%
%TA.AperFunction,ViaPad*%
%ADD25C,0.600000*%
%TD*%
%TA.AperFunction,Conductor*%
%ADD26C,0.200000*%
%TD*%
%TA.AperFunction,Conductor*%
%ADD27C,1.000000*%
%TD*%
G04 APERTURE END LIST*
D10*
%TO.P,J6,1,Pin_1_1*%
%TO.N,/ZIF_1*%
X150140000Y-106620000D03*
D11*
%TO.P,J6,2,Pin_2_2*%
%TO.N,/ZIF_2*%
X152680000Y-106620000D03*
%TO.P,J6,3,Pin_3_3*%
%TO.N,/ZIF_3*%
X155220000Y-106620000D03*
%TO.P,J6,4,Pin_4_4*%
%TO.N,/ZIF_4*%
X157760000Y-106620000D03*
%TO.P,J6,5,Pin_5_5*%
%TO.N,/ZIF_5*%
X160300000Y-106620000D03*
%TO.P,J6,6,Pin_6_6*%
%TO.N,/ZIF_6*%
X162840000Y-106620000D03*
%TO.P,J6,7,Pin_7_7*%
%TO.N,/ZIF_7*%
X165380000Y-106620000D03*
%TO.P,J6,8,Pin_8_8*%
%TO.N,/ZIF_8*%
X167920000Y-106620000D03*
%TO.P,J6,9,Pin_9_9*%
%TO.N,/ZIF_9*%
X170460000Y-106620000D03*
%TO.P,J6,10,Pin_10_10*%
%TO.N,/ZIF_10*%
X173000000Y-106620000D03*
%TO.P,J6,11,Pin_11_11*%
%TO.N,/ZIF_11*%
X173000000Y-99000000D03*
%TO.P,J6,12,Pin_12_12*%
%TO.N,/ZIF_12*%
X170460000Y-99000000D03*
%TO.P,J6,13,Pin_13_13*%
%TO.N,/ZIF_13*%
X167920000Y-99000000D03*
%TO.P,J6,14,Pin_14_14*%
%TO.N,/ZIF_14*%
X165380000Y-99000000D03*
%TO.P,J6,15,Pin_15_15*%
%TO.N,/ZIF_15*%
X162840000Y-99000000D03*
%TO.P,J6,16,Pin_16_16*%
%TO.N,/ZIF_16*%
X160300000Y-99000000D03*
%TO.P,J6,17,Pin_17_17*%
%TO.N,/ZIF_17*%
X157760000Y-99000000D03*
%TO.P,J6,18,Pin_18_18*%
%TO.N,/ZIF_18*%
X155220000Y-99000000D03*
%TO.P,J6,19,Pin_19_19*%
%TO.N,/ZIF_19*%
X152680000Y-99000000D03*
%TO.P,J6,20,Pin_20_20*%
%TO.N,/ZIF_20*%
X150140000Y-99000000D03*
%TD*%
D12*
%TO.P,J5,1,Pin_1_1*%
%TO.N,/ZIF_17*%
X181000000Y-50750000D03*
D13*
%TO.P,J5,2,Pin_2_2*%
%TO.N,/ZIF_18*%
X178460000Y-50750000D03*
%TO.P,J5,3,Pin_3_3*%
%TO.N,/ZIF_19*%
X175920000Y-50750000D03*
%TO.P,J5,4,Pin_4_4*%
%TO.N,/ZIF_20*%
X173380000Y-50750000D03*
%TO.P,J5,5,Pin_5_5*%
%TO.N,/SDA*%
X170840000Y-50750000D03*
%TO.P,J5,6,Pin_6_6*%
%TO.N,/SCL*%
X168300000Y-50750000D03*
%TO.P,J5,7,Pin_7_7*%
%TO.N,/RGB red*%
X165760000Y-50750000D03*
%TO.P,J5,8,Pin_8_8*%
%TO.N,/RGB green*%
X163220000Y-50750000D03*
%TO.P,J5,9,Pin_9_9*%
%TO.N,/RGB blue*%
X160680000Y-50750000D03*
%TO.P,J5,10,Pin_10_10*%
%TO.N,/Test {slash} enter Button*%
X158140000Y-50750000D03*
%TO.P,J5,11,Pin_11_11*%
%TO.N,/Pezzio*%
X155600000Y-50750000D03*
%TO.P,J5,12,Pin_12_12*%
%TO.N,/Encoder_A*%
X153060000Y-50750000D03*
%TO.P,J5,13,Pin_13_13*%
%TO.N,/Encoder_B*%
X150520000Y-50750000D03*
%TO.P,J5,14,Pin_14_14*%
%TO.N,/Encoder SW*%
X147980000Y-50750000D03*
%TO.P,J5,15,Pin_15_15*%
%TO.N,/extra_gpio28*%
X145440000Y-50750000D03*
%TO.P,J5,16,Pin_16_16*%
%TO.N,/Next {slash} select Button*%
X142900000Y-50750000D03*
%TD*%
D14*
%TO.P,J1,1,Pin_1_1*%
%TO.N,/Dc_3.3v_in*%
X110000000Y-112000000D03*
D15*
%TO.P,J1,2,Pin_2_2*%
%TO.N,/Dc_5v_in*%
X110000000Y-114000000D03*
%TO.P,J1,3,Pin_3_3*%
%TO.N,/3.3v_power out*%
X108000000Y-112000000D03*
%TO.P,J1,4,Pin_4_4*%
%TO.N,/5v_power out*%
X108000000Y-114000000D03*
%TO.P,J1,5,Pin_5_5*%
%TO.N,/Pico_3.3v_in*%
X106000000Y-112000000D03*
%TO.P,J1,6,Pin_6_6*%
%TO.N,/pico_5v in*%
X106000000Y-114000000D03*
%TD*%
D16*
%TO.P,D1,1,K_1*%
%TO.N,Net-(D1-K)*%
X102160000Y-52000000D03*
D17*
%TO.P,D1,2,A_2*%
%TO.N,GND*%
X99620000Y-52000000D03*
%TD*%
D18*
%TO.P,SW1,1,1_1*%
%TO.N,GND*%
X151000000Y-126500000D03*
X144500000Y-126500000D03*
%TO.P,SW1,2,2_2*%
%TO.N,/Test {slash} enter Button*%
X151000000Y-122000000D03*
X144500000Y-122000000D03*
%TD*%
D19*
%TO.P,BZ1,1,+_1*%
%TO.N,+3.3V*%
X133640000Y-71660000D03*
D18*
%TO.P,BZ1,2,-_2*%
%TO.N,/Pezzio*%
X141240000Y-71660000D03*
%TD*%
D20*
%TO.P,J2,1,GND_1*%
%TO.N,GND*%
X162190000Y-62000000D03*
D21*
%TO.P,J2,2,VCC_2*%
%TO.N,+3.3V*%
X164730000Y-62000000D03*
%TO.P,J2,3,SCL_3*%
%TO.N,/SCL*%
X167270000Y-62000000D03*
%TO.P,J2,4,SDA_4*%
%TO.N,/SDA*%
X169810000Y-62000000D03*
%TD*%
D22*
%TO.P,R1,1*%
%TO.N,/5v_power out*%
X113620000Y-52000000D03*
%TO.P,R1,2*%
%TO.N,Net-(D1-K)*%
X106000000Y-52000000D03*
%TD*%
D23*
%TO.P,D2,1,BA_1*%
%TO.N,/RGB blue*%
X115476000Y-103826000D03*
D17*
%TO.P,D2,2,RA_2*%
%TO.N,/RGB red*%
X117000000Y-102048000D03*
%TO.P,D2,3,K_3*%
%TO.N,GND*%
X115476000Y-100524000D03*
%TO.P,D2,4,GA_4*%
%TO.N,/RGB green*%
X117000000Y-99000000D03*
%TD*%
D12*
%TO.P,J4,1,Pin_1_1*%
%TO.N,/ZIF_1*%
X142941805Y-136984818D03*
D13*
%TO.P,J4,2,Pin_2_2*%
%TO.N,/ZIF_2*%
X145481805Y-136984818D03*
%TO.P,J4,3,Pin_3_3*%
%TO.N,/ZIF_3*%
X148021805Y-136984818D03*
%TO.P,J4,4,Pin_4_4*%
%TO.N,/ZIF_4*%
X150561805Y-136984818D03*
%TO.P,J4,5,Pin_5_5*%
%TO.N,/ZIF_5*%
X153101805Y-136984818D03*
%TO.P,J4,6,Pin_6_6*%
%TO.N,/ZIF_6*%
X155641805Y-136984818D03*
%TO.P,J4,7,Pin_7_7*%
%TO.N,/ZIF_7*%
X158181805Y-136984818D03*
%TO.P,J4,8,Pin_8_8*%
%TO.N,/ZIF_8*%
X160721805Y-136984818D03*
%TO.P,J4,9,Pin_9_9*%
%TO.N,/ZIF_9*%
X163261805Y-136984818D03*
%TO.P,J4,10,Pin_10_10*%
%TO.N,/ZIF_10*%
X165801805Y-136984818D03*
%TO.P,J4,11,Pin_11_11*%
%TO.N,/ZIF_11*%
X168341805Y-136984818D03*
%TO.P,J4,12,Pin_12_12*%
%TO.N,/ZIF_12*%
X170881805Y-136984818D03*
%TO.P,J4,13,Pin_13_13*%
%TO.N,/ZIF_13*%
X173421805Y-136984818D03*
%TO.P,J4,14,Pin_14_14*%
%TO.N,/ZIF_14*%
X175961805Y-136984818D03*
%TO.P,J4,15,Pin_15_15*%
%TO.N,/ZIF_15*%
X178501805Y-136984818D03*
%TO.P,J4,16,Pin_16_16*%
%TO.N,/ZIF_16*%
X181041805Y-136984818D03*
%TD*%
D19*
%TO.P,SW2,A,A_A*%
%TO.N,/Encoder_A*%
X178000000Y-127000000D03*
D18*
%TO.P,SW2,B,B_B*%
%TO.N,/Encoder_B*%
X178000000Y-122000000D03*
%TO.P,SW2,C,C_C*%
%TO.N,GND*%
X178000000Y-124500000D03*
D24*
%TO.P,SW2,MP,MP_MP*%
%TO.N,unconnected-(SW2-PadMP)*%
X170500000Y-130100000D03*
X170500000Y-118900000D03*
D18*
%TO.P,SW2,S1,S1_S1*%
%TO.N,/Encoder SW*%
X163500000Y-122000000D03*
%TO.P,SW2,S2,S2_S2*%
%TO.N,GND*%
X163500000Y-127000000D03*
%TD*%
D12*
%TO.P,J3,1,Pin_1_1*%
%TO.N,/3.3v_power out*%
X96050000Y-84212414D03*
D13*
%TO.P,J3,2,Pin_2_2*%
X98590000Y-84212414D03*
%TO.P,J3,3,Pin_3_3*%
%TO.N,/5v_power out*%
X96050000Y-86752414D03*
%TO.P,J3,4,Pin_4_4*%
X98590000Y-86752414D03*
%TO.P,J3,5,Pin_5_5*%
%TO.N,GND*%
X96050000Y-89292414D03*
%TO.P,J3,6,Pin_6_6*%
X98590000Y-89292414D03*
%TO.P,J3,7,Pin_7_7*%
%TO.N,/Pico_3.3v_in*%
X96050000Y-91832414D03*
%TO.P,J3,8,Pin_8_8*%
X98590000Y-91832414D03*
%TO.P,J3,9,Pin_9_9*%
%TO.N,/pico_5v in*%
X96050000Y-94372414D03*
%TO.P,J3,10,Pin_10_10*%
X98590000Y-94372414D03*
%TO.P,J3,11,Pin_11_11*%
%TO.N,GND*%
X96050000Y-96912414D03*
%TO.P,J3,12,Pin_12_12*%
X98590000Y-96912414D03*
%TO.P,J3,13,Pin_13_13*%
%TO.N,/Dc_3.3v_in*%
X96050000Y-99452414D03*
%TO.P,J3,14,Pin_14_14*%
X98590000Y-99452414D03*
%TO.P,J3,15,Pin_15_15*%
%TO.N,/Dc_5v_in*%
X96050000Y-101992414D03*
%TO.P,J3,16,Pin_16_16*%
X98590000Y-101992414D03*
%TO.P,J3,17,Pin_17_17*%
%TO.N,GND*%
X96050000Y-104532414D03*
%TO.P,J3,18,Pin_18_18*%
X98590000Y-104532414D03*
%TO.P,J3,19,Pin_19_19*%
%TO.N,unconnected-(J3-Pin_19-Pad19)*%
X96050000Y-107072414D03*
%TO.P,J3,20,Pin_20_20*%
%TO.N,unconnected-(J3-Pin_20-Pad20)*%
X98590000Y-107072414D03*
%TD*%
D25*
%TO.N,/Encoder_A*%
X153925000Y-47900000D03*
%TO.N,/Encoder SW*%
X183050000Y-110600000D03*
%TO.N,/5v_power out*%
X107752414Y-86752414D03*
X109500000Y-88500000D03*
X108500000Y-87500000D03*
%TD*%
%TO.N,/Pezzio*%
D26*
X141220000Y-71640000D02*
X141240000Y-71660000D01*
X141220000Y-65130000D02*
X141220000Y-71640000D01*
X155600000Y-50750000D02*
X141220000Y-65130000D01*
%TO.N,/ZIF_1*%
X142941805Y-136984818D02*
X142941805Y-115058195D01*
X142941805Y-115058195D02*
X150140000Y-107860000D01*
X150140000Y-107860000D02*
X150140000Y-106620000D01*
%TO.N,/ZIF_2*%
X145481805Y-136984818D02*
X146000000Y-136466623D01*
X152680000Y-108320000D02*
X152680000Y-106620000D01*
X146000000Y-136466623D02*
X146000000Y-115000000D01*
X146000000Y-115000000D02*
X152680000Y-108320000D01*
%TO.N,/ZIF_3*%
X148021805Y-136984818D02*
X148021805Y-115978195D01*
X155220000Y-108780000D02*
X155220000Y-106620000D01*
X148021805Y-115978195D02*
X155220000Y-108780000D01*
%TO.N,/ZIF_4*%
X149500000Y-117500000D02*
X157760000Y-109240000D01*
X150500000Y-136923013D02*
X150500000Y-135400000D01*
X157760000Y-109240000D02*
X157760000Y-106620000D01*
X150500000Y-135400000D02*
X149500000Y-134400000D01*
X150561805Y-136984818D02*
X150500000Y-136923013D01*
X149500000Y-134400000D02*
X149500000Y-117500000D01*
%TO.N,/ZIF_5*%
X153101805Y-117098195D02*
X160300000Y-109900000D01*
X153101805Y-136984818D02*
X153101805Y-117098195D01*
X160300000Y-109900000D02*
X160300000Y-106620000D01*
%TO.N,/ZIF_6*%
X155641805Y-117558195D02*
X162840000Y-110360000D01*
X162840000Y-110360000D02*
X162840000Y-106620000D01*
X155641805Y-136984818D02*
X155641805Y-117558195D01*
%TO.N,/ZIF_7*%
X158181805Y-136984818D02*
X158181805Y-117318195D01*
X158181805Y-117318195D02*
X165380000Y-110120000D01*
X165380000Y-110120000D02*
X165380000Y-106620000D01*
%TO.N,/ZIF_8*%
X160721805Y-136984818D02*
X160721805Y-117478195D01*
X167920000Y-110280000D02*
X167920000Y-106620000D01*
X160721805Y-117478195D02*
X167920000Y-110280000D01*
%TO.N,/ZIF_9*%
X163261805Y-136984818D02*
X161200000Y-134923013D01*
X170460000Y-108305686D02*
X170460000Y-106620000D01*
X161200000Y-117565686D02*
X170460000Y-108305686D01*
X161200000Y-134923013D02*
X161200000Y-117565686D01*
%TO.N,/ZIF_10*%
X161600000Y-117731372D02*
X168631372Y-110700000D01*
X173000000Y-107600000D02*
X173000000Y-106620000D01*
X169900000Y-110700000D02*
X173000000Y-107600000D01*
X168631372Y-110700000D02*
X169900000Y-110700000D01*
X165801805Y-136984818D02*
X161600000Y-132783013D01*
X161600000Y-132783013D02*
X161600000Y-117731372D01*
%TO.N,/ZIF_11*%
X177650000Y-133950000D02*
X179900000Y-131700000D01*
X171376623Y-133950000D02*
X177650000Y-133950000D01*
X179900000Y-97350000D02*
X178450000Y-95900000D01*
X173000000Y-96800000D02*
X173000000Y-99000000D01*
X173900000Y-95900000D02*
X173000000Y-96800000D01*
X179900000Y-131700000D02*
X179900000Y-97350000D01*
X168341805Y-136984818D02*
X171376623Y-133950000D01*
X178450000Y-95900000D02*
X173900000Y-95900000D01*
%TO.N,/ZIF_12*%
X170881805Y-136984818D02*
X173516623Y-134350000D01*
X170460000Y-97474314D02*
X170460000Y-99000000D01*
X173734314Y-95500000D02*
X172600000Y-96634315D01*
X177815686Y-134350000D02*
X180300000Y-131865685D01*
X180300000Y-97184314D02*
X178615685Y-95500000D01*
X172600000Y-96634315D02*
X172600000Y-96800000D01*
X172600000Y-96800000D02*
X171134314Y-96800000D01*
X171134314Y-96800000D02*
X170460000Y-97474314D01*
X178615685Y-95500000D02*
X173734314Y-95500000D01*
X173516623Y-134350000D02*
X177815686Y-134350000D01*
X180300000Y-131865685D02*
X180300000Y-97184314D01*
%TO.N,/ZIF_13*%
X170968628Y-96400000D02*
X170768628Y-96600000D01*
X177981372Y-134750000D02*
X180700000Y-132031370D01*
X175656624Y-134750000D02*
X177981372Y-134750000D01*
X178781370Y-95100000D02*
X173568628Y-95100000D01*
X173421805Y-136984818D02*
X175656624Y-134750000D01*
X180699999Y-97018627D02*
X178781370Y-95100000D01*
X168684314Y-96600000D02*
X167920000Y-97364314D01*
X172268629Y-96400000D02*
X170968628Y-96400000D01*
X170768628Y-96600000D02*
X168684314Y-96600000D01*
X173568628Y-95100000D02*
X172268629Y-96400000D01*
X167920000Y-97364314D02*
X167920000Y-99000000D01*
X180700000Y-132031370D02*
X180699999Y-97018627D01*
%TO.N,/ZIF_14*%
X178147058Y-135150000D02*
X181100000Y-132197055D01*
X181099998Y-96852940D02*
X178947055Y-94700000D01*
X168518628Y-96200000D02*
X168168628Y-96550000D01*
X166284314Y-96550000D02*
X165380000Y-97454314D01*
X170802942Y-96000000D02*
X170602943Y-96200000D01*
X175961805Y-136984818D02*
X177796623Y-135150000D01*
X181100000Y-132197055D02*
X181099998Y-96852940D01*
X177796623Y-135150000D02*
X178147058Y-135150000D01*
X168168628Y-96550000D02*
X166284314Y-96550000D01*
X165380000Y-97454314D02*
X165380000Y-99000000D01*
X172102943Y-96000000D02*
X170802942Y-96000000D01*
X170602943Y-96200000D02*
X168518628Y-96200000D01*
X178947055Y-94700000D02*
X173402942Y-94700000D01*
X173402942Y-94700000D02*
X172102943Y-96000000D01*
%TO.N,/ZIF_15*%
X168002942Y-96150000D02*
X166118628Y-96150000D01*
X181000000Y-132862744D02*
X181000000Y-132862741D01*
X165718628Y-96550000D02*
X163634314Y-96550000D01*
X173237256Y-94300000D02*
X171937257Y-95600000D01*
X181499998Y-96687254D02*
X179112740Y-94300000D01*
X179112740Y-94300000D02*
X173237256Y-94300000D01*
X181000000Y-132862741D02*
X181500000Y-132362740D01*
X170637256Y-95600001D02*
X170437257Y-95800000D01*
X166118628Y-96150000D02*
X165718628Y-96550000D01*
X178501805Y-136984818D02*
X178501805Y-135360939D01*
X171937257Y-95600000D02*
X170637256Y-95600001D01*
X170437257Y-95800000D02*
X168352942Y-95800000D01*
X181500000Y-132362740D02*
X181499998Y-96687254D01*
X178501805Y-135360939D02*
X181000000Y-132862744D01*
X163634314Y-96550000D02*
X162840000Y-97344314D01*
X168352942Y-95800000D02*
X168002942Y-96150000D01*
X162840000Y-97344314D02*
X162840000Y-99000000D01*
%TO.N,/ZIF_16*%
X179278425Y-93900000D02*
X173071570Y-93900000D01*
X173071570Y-93900000D02*
X171771571Y-95200000D01*
X181899998Y-96521568D02*
X180628430Y-95250000D01*
X161200000Y-96400000D02*
X160300000Y-97300000D01*
X180628430Y-95250000D02*
X180628427Y-95250000D01*
X181900000Y-132528425D02*
X181899998Y-96521568D01*
X160300000Y-97300000D02*
X160300000Y-99000000D01*
X170471570Y-95200001D02*
X170271570Y-95400000D01*
X181400000Y-133028426D02*
X181900000Y-132528425D01*
X171771571Y-95200000D02*
X170471570Y-95200001D01*
X180628427Y-95250000D02*
X179278425Y-93900000D01*
X181400000Y-133028429D02*
X181400000Y-133028426D01*
X165952942Y-95750000D02*
X165552942Y-96150000D01*
X181041805Y-133386625D02*
X181400000Y-133028429D01*
X168187256Y-95400000D02*
X167837256Y-95750000D01*
X167837256Y-95750000D02*
X165952942Y-95750000D01*
X165552942Y-96150000D02*
X163468628Y-96150000D01*
X181041805Y-136984818D02*
X181041805Y-133386625D01*
X170271570Y-95400000D02*
X168187256Y-95400000D01*
X163218628Y-96400000D02*
X161200000Y-96400000D01*
X163468628Y-96150000D02*
X163218628Y-96400000D01*
%TO.N,/ZIF_17*%
X181000000Y-70465686D02*
X157760000Y-93705686D01*
X157760000Y-93705686D02*
X157760000Y-99000000D01*
X181000000Y-50750000D02*
X181000000Y-70465686D01*
%TO.N,/ZIF_18*%
X180600000Y-69550000D02*
X155220000Y-94930000D01*
X178460000Y-50750000D02*
X178460000Y-52610000D01*
X178460000Y-52610000D02*
X180600000Y-54750000D01*
X155220000Y-94930000D02*
X155220000Y-99000000D01*
X180600000Y-54750000D02*
X180600000Y-69550000D01*
%TO.N,/ZIF_19*%
X175920000Y-52170000D02*
X180200000Y-56450000D01*
X175920000Y-50750000D02*
X175920000Y-52170000D01*
X152680000Y-96220000D02*
X152680000Y-99000000D01*
X180200000Y-56450000D02*
X180200000Y-68700000D01*
X180200000Y-68700000D02*
X152680000Y-96220000D01*
%TO.N,/ZIF_20*%
X179750000Y-67600000D02*
X150140000Y-97210000D01*
X173380000Y-50750000D02*
X173450000Y-50820000D01*
X179750000Y-58500000D02*
X179750000Y-67600000D01*
X173450000Y-50820000D02*
X173450000Y-52200000D01*
X150140000Y-97210000D02*
X150140000Y-99000000D01*
X173450000Y-52200000D02*
X179750000Y-58500000D01*
%TO.N,/SDA*%
X169810000Y-62000000D02*
X170840000Y-60970000D01*
X170840000Y-60970000D02*
X170840000Y-50750000D01*
%TO.N,/SCL*%
X168300000Y-60970000D02*
X168300000Y-50750000D01*
X167270000Y-62000000D02*
X168300000Y-60970000D01*
%TO.N,/RGB red*%
X159700000Y-55450000D02*
X153500000Y-61650000D01*
X161060000Y-55450000D02*
X159700000Y-55450000D01*
X153500000Y-65900000D02*
X117352000Y-102048000D01*
X165610000Y-50900000D02*
X161060000Y-55450000D01*
X117352000Y-102048000D02*
X117000000Y-102048000D01*
X153500000Y-61650000D02*
X153500000Y-65900000D01*
%TO.N,/RGB green*%
X152800000Y-64934314D02*
X118734314Y-99000000D01*
X152800000Y-61170000D02*
X152800000Y-64934314D01*
X118734314Y-99000000D02*
X117000000Y-99000000D01*
X163220000Y-50750000D02*
X152800000Y-61170000D01*
%TO.N,/Encoder_A*%
X153925000Y-47900000D02*
X153925000Y-47975000D01*
X153100000Y-48800000D02*
X153100000Y-50710000D01*
X153925000Y-47975000D02*
X153100000Y-48800000D01*
X153100000Y-50710000D02*
X153060000Y-50750000D01*
%TO.N,/Encoder SW*%
X183050000Y-110600000D02*
X183050000Y-48050000D01*
X151680000Y-47050000D02*
X147980000Y-50750000D01*
X182050000Y-47050000D02*
X151680000Y-47050000D01*
X183050000Y-48050000D02*
X182050000Y-47050000D01*
%TO.N,/3.3v_power out*%
D27*
X108000000Y-112000000D02*
X108000000Y-91000000D01*
X101212414Y-84212414D02*
X98590000Y-84212414D01*
X98590000Y-84212414D02*
X96050000Y-84212414D01*
X108000000Y-91000000D02*
X101212414Y-84212414D01*
%TO.N,/5v_power out*%
X108000000Y-116000000D02*
X108000000Y-114000000D01*
X111000000Y-109000000D02*
X112000000Y-110000000D01*
X112000000Y-116000000D02*
X108000000Y-116000000D01*
X111000000Y-90000000D02*
X111000000Y-109000000D01*
X112000000Y-110000000D02*
X112000000Y-116000000D01*
X96050000Y-86752414D02*
X98590000Y-86752414D01*
X107752414Y-86752414D02*
X108500000Y-87500000D01*
X108500000Y-87500000D02*
X111000000Y-90000000D01*
D26*
X113620000Y-52000000D02*
X113620000Y-80884828D01*
X113620000Y-80884828D02*
X107752414Y-86752414D01*
%TO.N,/Pico_3.3v_in*%
D27*
X99832414Y-91832414D02*
X96050000Y-91832414D01*
X106000000Y-112000000D02*
X105000000Y-111000000D01*
X105000000Y-97000000D02*
X99832414Y-91832414D01*
X105000000Y-111000000D02*
X105000000Y-97000000D01*
%TO.N,/pico_5v in*%
X103000000Y-98782414D02*
X98590000Y-94372414D01*
X103000000Y-111000000D02*
X103000000Y-98782414D01*
X106000000Y-114000000D02*
X103000000Y-111000000D01*
X98590000Y-94372414D02*
X96050000Y-94372414D01*
%TO.N,Net-(D1-K)*%
D26*
X102160000Y-52000000D02*
X106000000Y-52000000D01*
%TD*%
%TA.AperFunction,Conductor*%
%TO.N,+3.3V*%
G36*
X191442539Y-45520185D02*
G01*
X191488294Y-45572989D01*
X191499500Y-45624500D01*
X191499500Y-144375500D01*
X191479815Y-144442539D01*
X191427011Y-144488294D01*
X191375500Y-144499500D01*
X137624500Y-144499500D01*
X137557461Y-144479815D01*
X137511706Y-144427011D01*
X137500500Y-144375500D01*
X137500500Y-117934110D01*
X137500500Y-117934108D01*
X137466392Y-117806814D01*
X137400500Y-117692686D01*
X137307314Y-117599500D01*
X137234139Y-117557252D01*
X137193187Y-117533608D01*
X137129539Y-117516554D01*
X137065892Y-117499500D01*
X137065891Y-117499500D01*
X92624500Y-117499500D01*
X92557461Y-117479815D01*
X92511706Y-117427011D01*
X92500500Y-117375500D01*
X92500500Y-113496590D01*
X95731109Y-113496590D01*
X95731109Y-113739167D01*
X95762770Y-113979664D01*
X95825556Y-114213983D01*
X95850940Y-114275264D01*
X95918385Y-114438091D01*
X96039673Y-114648168D01*
X96039675Y-114648171D01*
X96039676Y-114648172D01*
X96187342Y-114840615D01*
X96187348Y-114840622D01*
X96358865Y-115012139D01*
X96358871Y-115012144D01*
X96551320Y-115159815D01*
X96761397Y-115281103D01*
X96985509Y-115373933D01*
X97219820Y-115436717D01*
X97400195Y-115460463D01*
X97460320Y-115468379D01*
X97460321Y-115468379D01*
X97702898Y-115468379D01*
X97750997Y-115462046D01*
X97943398Y-115436717D01*
X98177709Y-115373933D01*
X98401821Y-115281103D01*
X98611898Y-115159815D01*
X98804347Y-115012144D01*
X98975874Y-114840617D01*
X99123545Y-114648168D01*
X99244833Y-114438091D01*
X99337663Y-114213979D01*
X99400447Y-113979668D01*
X99432109Y-113739167D01*
X99432109Y-113496591D01*
X99400447Y-113256090D01*
X99337663Y-113021779D01*
X99244833Y-112797667D01*
X99123545Y-112587590D01*
X98975874Y-112395141D01*
X98975869Y-112395135D01*
X98804352Y-112223618D01*
X98804345Y-112223612D01*
X98611902Y-112075946D01*
X98611901Y-112075945D01*
X98611898Y-112075943D01*
X98401821Y-111954655D01*
X98401814Y-111954652D01*
X98177713Y-111861826D01*
X97943394Y-111799040D01*
X97702898Y-111767379D01*
X97702897Y-111767379D01*
X97460321Y-111767379D01*
X97460320Y-111767379D01*
X97219823Y-111799040D01*
X96985504Y-111861826D01*
X96761403Y-111954652D01*
X96761394Y-111954656D01*
X96551315Y-112075946D01*
X96358872Y-112223612D01*
X96358865Y-112223618D01*
X96187348Y-112395135D01*
X96187342Y-112395142D01*
X96039676Y-112587585D01*
X95918386Y-112797664D01*
X95918382Y-112797673D01*
X95825556Y-113021774D01*
X95762770Y-113256093D01*
X95731109Y-113496590D01*
X92500500Y-113496590D01*
X92500500Y-83314549D01*
X94699500Y-83314549D01*
X94699500Y-85110284D01*
X94699501Y-85110290D01*
X94705908Y-85169897D01*
X94756202Y-85304742D01*
X94756206Y-85304749D01*
X94842452Y-85419958D01*
X94842455Y-85419961D01*
X94957664Y-85506207D01*
X94957671Y-85506211D01*
X95089082Y-85555224D01*
X95145016Y-85597095D01*
X95169433Y-85662559D01*
X95154582Y-85730832D01*
X95133431Y-85759087D01*
X95019889Y-85872629D01*
X94894951Y-86044593D01*
X94798444Y-86233999D01*
X94732753Y-86436174D01*
X94699500Y-86646127D01*
X94699500Y-86858701D01*
X94732754Y-87068657D01*
X94783983Y-87226324D01*
X94798444Y-87270828D01*
X94894951Y-87460234D01*
X95019890Y-87632200D01*
X95170213Y-87782523D01*
X95342182Y-87907464D01*
X95350946Y-87911930D01*
X95401742Y-87959905D01*
X95418536Y-88027726D01*
X95395998Y-88093861D01*
X95350946Y-88132898D01*
X95342182Y-88137363D01*
X95170213Y-88262304D01*
X95019890Y-88412627D01*
X94894951Y-88584593D01*
X94798444Y-88773999D01*
X94732753Y-88976174D01*
X94699500Y-89186127D01*
X94699500Y-89398701D01*
X94732754Y-89608657D01*
X94796489Y-89804813D01*
X94798444Y-89810828D01*
X94894951Y-90000234D01*
X95019890Y-90172200D01*
X95170213Y-90322523D01*
X95342182Y-90447464D01*
X95350946Y-90451930D01*
X95401742Y-90499905D01*
X95418536Y-90567726D01*
X95395998Y-90633861D01*
X95350946Y-90672898D01*
X95342182Y-90677363D01*
X95170213Y-90802304D01*
X95019890Y-90952627D01*
X94894951Y-91124593D01*
X94798444Y-91313999D01*
X94732753Y-91516174D01*
X94699500Y-91726127D01*
X94699500Y-91938700D01*
X94732753Y-92148653D01*
X94798444Y-92350828D01*
X94894951Y-92540234D01*
X95019890Y-92712200D01*
X95170213Y-92862523D01*
X95342182Y-92987464D01*
X95350946Y-92991930D01*
X95401742Y-93039905D01*
X95418536Y-93107726D01*
X95395998Y-93173861D01*
X95350946Y-93212898D01*
X95342182Y-93217363D01*
X95170213Y-93342304D01*
X95019890Y-93492627D01*
X94894951Y-93664593D01*
X94798444Y-93853999D01*
X94732753Y-94056174D01*
X94699500Y-94266127D01*
X94699500Y-94478700D01*
X94725114Y-94640424D01*
X94732754Y-94688657D01*
X94797640Y-94888356D01*
X94798444Y-94890828D01*
X94894951Y-95080234D01*
X95019890Y-95252200D01*
X95170213Y-95402523D01*
X95342182Y-95527464D01*
X95350946Y-95531930D01*
X95401742Y-95579905D01*
X95418536Y-95647726D01*
X95395998Y-95713861D01*
X95350946Y-95752898D01*
X95342182Y-95757363D01*
X95170213Y-95882304D01*
X95019890Y-96032627D01*
X94894951Y-96204593D01*
X94798444Y-96393999D01*
X94732753Y-96596174D01*
X94699500Y-96806127D01*
X94699500Y-97018700D01*
X94731532Y-97220945D01*
X94732754Y-97228657D01*
X94793112Y-97414420D01*
X94798444Y-97430828D01*
X94894951Y-97620234D01*
X95019890Y-97792200D01*
X95170213Y-97942523D01*
X95342182Y-98067464D01*
X95350946Y-98071930D01*
X95401742Y-98119905D01*
X95418536Y-98187726D01*
X95395998Y-98253861D01*
X95350946Y-98292898D01*
X95342182Y-98297363D01*
X95170213Y-98422304D01*
X95019890Y-98572627D01*
X94894951Y-98744593D01*
X94798444Y-98933999D01*
X94732753Y-99136174D01*
X94702658Y-99326187D01*
X94699500Y-99346127D01*
X94699500Y-99558701D01*
X94709242Y-99620206D01*
X94730778Y-99756185D01*
X94732754Y-99768657D01*
X94746896Y-99812182D01*
X94798444Y-99970828D01*
X94894951Y-100160234D01*
X95019890Y-100332200D01*
X95170213Y-100482523D01*
X95342182Y-100607464D01*
X95350946Y-100611930D01*
X95401742Y-100659905D01*
X95418536Y-100727726D01*
X95395998Y-100793861D01*
X95350946Y-100832898D01*
X95342182Y-100837363D01*
X95170213Y-100962304D01*
X95019890Y-101112627D01*
X94894951Y-101284593D01*
X94798444Y-101473999D01*
X94732753Y-101676174D01*
X94710570Y-101816233D01*
X94699500Y-101886127D01*
X94699500Y-102098701D01*
X94732754Y-102308657D01*
X94791274Y-102488763D01*
X94798444Y-102510828D01*
X94894951Y-102700234D01*
X95019890Y-102872200D01*
X95170213Y-103022523D01*
X95342182Y-103147464D01*
X95350946Y-103151930D01*
X95401742Y-103199905D01*
X95418536Y-103267726D01*
X95395998Y-103333861D01*
X95350946Y-103372898D01*
X95342182Y-103377363D01*
X95170213Y-103502304D01*
X95019890Y-103652627D01*
X94894951Y-103824593D01*
X94798444Y-104013999D01*
X94732753Y-104216174D01*
X94699500Y-104426127D01*
X94699500Y-104638700D01*
X94732753Y-104848653D01*
X94798444Y-105050828D01*
X94894951Y-105240234D01*
X95019890Y-105412200D01*
X95170213Y-105562523D01*
X95342182Y-105687464D01*
X95350946Y-105691930D01*
X95401742Y-105739905D01*
X95418536Y-105807726D01*
X95395998Y-105873861D01*
X95350946Y-105912898D01*
X95342182Y-105917363D01*
X95170213Y-106042304D01*
X95019890Y-106192627D01*
X94894951Y-106364593D01*
X94798444Y-106553999D01*
X94732753Y-106756174D01*
X94699500Y-106966127D01*
X94699500Y-107178701D01*
X94706742Y-107224422D01*
X94730170Y-107372347D01*
X94732754Y-107388657D01*
X94781824Y-107539679D01*
X94798444Y-107590828D01*
X94894951Y-107780234D01*
X95019890Y-107952200D01*
X95170213Y-108102523D01*
X95342179Y-108227462D01*
X95342181Y-108227463D01*
X95342184Y-108227465D01*
X95531588Y-108323971D01*
X95733757Y-108389660D01*
X95943713Y-108422914D01*
X95943714Y-108422914D01*
X96156286Y-108422914D01*
X96156287Y-108422914D01*
X96366243Y-108389660D01*
X96568412Y-108323971D01*
X96757816Y-108227465D01*
X96779789Y-108211500D01*
X96929786Y-108102523D01*
X96929788Y-108102520D01*
X96929792Y-108102518D01*
X97080104Y-107952206D01*
X97080106Y-107952202D01*
X97080109Y-107952200D01*
X97205048Y-107780234D01*
X97205047Y-107780234D01*
X97205051Y-107780230D01*
X97209514Y-107771468D01*
X97257488Y-107720673D01*
X97325308Y-107703877D01*
X97391444Y-107726413D01*
X97430486Y-107771470D01*
X97434951Y-107780234D01*
X97559890Y-107952200D01*
X97710213Y-108102523D01*
X97882179Y-108227462D01*
X97882181Y-108227463D01*
X97882184Y-108227465D01*
X98071588Y-108323971D01*
X98273757Y-108389660D01*
X98483713Y-108422914D01*
X98483714Y-108422914D01*
X98696286Y-108422914D01*
X98696287Y-108422914D01*
X98906243Y-108389660D01*
X99108412Y-108323971D01*
X99297816Y-108227465D01*
X99319789Y-108211500D01*
X99469786Y-108102523D01*
X99469788Y-108102520D01*
X99469792Y-108102518D01*
X99620104Y-107952206D01*
X99620106Y-107952202D01*
X99620109Y-107952200D01*
X99745048Y-107780234D01*
X99745047Y-107780234D01*
X99745051Y-107780230D01*
X99841557Y-107590826D01*
X99907246Y-107388657D01*
X99940500Y-107178701D01*
X99940500Y-106966127D01*
X99907246Y-106756171D01*
X99841557Y-106554002D01*
X99745051Y-106364598D01*
X99745049Y-106364595D01*
X99745048Y-106364593D01*
X99620109Y-106192627D01*
X99469786Y-106042304D01*
X99297820Y-105917365D01*
X99297115Y-105917005D01*
X99289054Y-105912899D01*
X99238259Y-105864926D01*
X99221463Y-105797106D01*
X99243999Y-105730970D01*
X99289054Y-105691929D01*
X99297816Y-105687465D01*
X99319789Y-105671500D01*
X99469786Y-105562523D01*
X99469788Y-105562520D01*
X99469792Y-105562518D01*
X99620104Y-105412206D01*
X99620106Y-105412202D01*
X99620109Y-105412200D01*
X99745048Y-105240234D01*
X99745047Y-105240234D01*
X99745051Y-105240230D01*
X99841557Y-105050826D01*
X99907246Y-104848657D01*
X99940500Y-104638701D01*
X99940500Y-104426127D01*
X99907246Y-104216171D01*
X99841557Y-104014002D01*
X99745051Y-103824598D01*
X99745049Y-103824595D01*
X99745048Y-103824593D01*
X99620109Y-103652627D01*
X99469786Y-103502304D01*
X99297820Y-103377365D01*
X99297115Y-103377005D01*
X99289054Y-103372899D01*
X99238259Y-103324926D01*
X99221463Y-103257106D01*
X99243999Y-103190970D01*
X99289054Y-103151929D01*
X99297816Y-103147465D01*
X99340791Y-103116242D01*
X99469786Y-103022523D01*
X99469788Y-103022520D01*
X99469792Y-103022518D01*
X99620104Y-102872206D01*
X99620106Y-102872202D01*
X99620109Y-102872200D01*
X99745048Y-102700234D01*
X99745047Y-102700234D01*
X99745051Y-102700230D01*
X99841557Y-102510826D01*
X99907246Y-102308657D01*
X99940500Y-102098701D01*
X99940500Y-101886127D01*
X99907246Y-101676171D01*
X99841557Y-101474002D01*
X99745051Y-101284598D01*
X99745049Y-101284595D01*
X99745048Y-101284593D01*
X99620109Y-101112627D01*
X99469786Y-100962304D01*
X99297820Y-100837365D01*
X99297115Y-100837005D01*
X99289054Y-100832899D01*
X99238259Y-100784926D01*
X99221463Y-100717106D01*
X99243999Y-100650970D01*
X99289054Y-100611929D01*
X99297816Y-100607465D01*
X99445042Y-100500500D01*
X99469786Y-100482523D01*
X99469788Y-100482520D01*
X99469792Y-100482518D01*
X99620104Y-100332206D01*
X99620106Y-100332202D01*
X99620109Y-100332200D01*
X99745048Y-100160234D01*
X99745047Y-100160234D01*
X99745051Y-100160230D01*
X99841557Y-99970826D01*
X99907246Y-99768657D01*
X99940500Y-99558701D01*
X99940500Y-99346127D01*
X99907246Y-99136171D01*
X99841557Y-98934002D01*
X99745051Y-98744598D01*
X99745049Y-98744595D01*
X99745048Y-98744593D01*
X99620109Y-98572627D01*
X99469786Y-98422304D01*
X99297820Y-98297365D01*
X99297115Y-98297005D01*
X99289054Y-98292899D01*
X99238259Y-98244926D01*
X99221463Y-98177106D01*
X99243999Y-98110970D01*
X99289054Y-98071929D01*
X99297816Y-98067465D01*
X99383418Y-98005272D01*
X99469786Y-97942523D01*
X99469788Y-97942520D01*
X99469792Y-97942518D01*
X99620104Y-97792206D01*
X99620106Y-97792202D01*
X99620109Y-97792200D01*
X99745048Y-97620234D01*
X99745047Y-97620234D01*
X99745051Y-97620230D01*
X99841557Y-97430826D01*
X99875146Y-97327449D01*
X99914581Y-97269778D01*
X99978939Y-97242579D01*
X100047786Y-97254493D01*
X100080756Y-97278090D01*
X101963181Y-99160515D01*
X101996666Y-99221838D01*
X101999500Y-99248196D01*
X101999500Y-111098543D01*
X102011332Y-111158027D01*
X102011337Y-111158052D01*
X102011641Y-111159577D01*
X102037949Y-111291836D01*
X102041553Y-111300536D01*
X102045629Y-111310378D01*
X102045630Y-111310379D01*
X102113364Y-111473907D01*
X102113371Y-111473920D01*
X102222859Y-111637780D01*
X102222860Y-111637781D01*
X102222861Y-111637782D01*
X102362218Y-111777139D01*
X102362219Y-111777139D01*
X102369286Y-111784206D01*
X102369285Y-111784206D01*
X102369289Y-111784209D01*
X104829073Y-114243994D01*
X104859323Y-114293357D01*
X104910619Y-114451232D01*
X104910620Y-114451235D01*
X104975044Y-114577673D01*
X104994622Y-114616096D01*
X105103379Y-114765787D01*
X105234213Y-114896621D01*
X105383904Y-115005378D01*
X105464763Y-115046577D01*
X105548764Y-115089379D01*
X105548767Y-115089380D01*
X105636750Y-115117967D01*
X105724736Y-115146555D01*
X105907486Y-115175500D01*
X105907487Y-115175500D01*
X106092513Y-115175500D01*
X106092514Y-115175500D01*
X106275264Y-115146555D01*
X106451235Y-115089379D01*
X106616096Y-115005378D01*
X106765787Y-114896621D01*
X106787819Y-114874589D01*
X106849142Y-114841104D01*
X106918834Y-114846088D01*
X106974767Y-114887960D01*
X106999184Y-114953424D01*
X106999500Y-114962270D01*
X106999500Y-115901459D01*
X106999500Y-116098541D01*
X106999500Y-116098543D01*
X106999499Y-116098543D01*
X107037947Y-116291829D01*
X107037950Y-116291839D01*
X107113364Y-116473907D01*
X107113371Y-116473920D01*
X107222860Y-116637781D01*
X107222863Y-116637785D01*
X107362214Y-116777136D01*
X107362218Y-116777139D01*
X107526079Y-116886628D01*
X107526092Y-116886635D01*
X107677808Y-116949477D01*
X107708165Y-116962051D01*
X107708169Y-116962051D01*
X107708170Y-116962052D01*
X107901456Y-117000500D01*
X107901459Y-117000500D01*
X112098543Y-117000500D01*
X112228582Y-116974632D01*
X112291835Y-116962051D01*
X112473914Y-116886632D01*
X112637782Y-116777139D01*
X112777139Y-116637782D01*
X112886632Y-116473914D01*
X112962051Y-116291835D01*
X113000500Y-116098541D01*
X113000500Y-110104675D01*
X113000501Y-110104654D01*
X113000501Y-109901457D01*
X113000500Y-109901455D01*
X112977178Y-109784209D01*
X112962052Y-109708165D01*
X112886632Y-109526086D01*
X112886631Y-109526085D01*
X112886628Y-109526079D01*
X112777140Y-109362219D01*
X112777137Y-109362215D01*
X112036819Y-108621897D01*
X112003334Y-108560574D01*
X112000500Y-108534216D01*
X112000500Y-100413778D01*
X114075500Y-100413778D01*
X114075500Y-100634221D01*
X114109985Y-100851952D01*
X114178103Y-101061603D01*
X114178104Y-101061606D01*
X114278187Y-101258025D01*
X114407752Y-101436358D01*
X114407756Y-101436363D01*
X114563636Y-101592243D01*
X114563641Y-101592247D01*
X114679154Y-101676171D01*
X114741978Y-101721815D01*
X114870375Y-101787237D01*
X114938393Y-101821895D01*
X114938396Y-101821896D01*
X115037272Y-101854022D01*
X115148049Y-101890015D01*
X115365778Y-101924500D01*
X115365779Y-101924500D01*
X115475500Y-101924500D01*
X115542539Y-101944185D01*
X115588294Y-101996989D01*
X115599500Y-102048500D01*
X115599500Y-102158221D01*
X115619121Y-102282102D01*
X115610166Y-102351395D01*
X115565170Y-102404847D01*
X115498419Y-102425487D01*
X115496648Y-102425500D01*
X114970862Y-102425500D01*
X114958599Y-102426590D01*
X114857451Y-102435582D01*
X114671594Y-102488762D01*
X114500250Y-102578265D01*
X114350428Y-102700428D01*
X114228265Y-102850250D01*
X114138762Y-103021594D01*
X114085582Y-103207451D01*
X114075500Y-103320863D01*
X114075500Y-104331136D01*
X114085582Y-104444548D01*
X114138762Y-104630405D01*
X114220604Y-104787082D01*
X114228266Y-104801751D01*
X114266510Y-104848653D01*
X114350428Y-104951571D01*
X114402542Y-104994064D01*
X114500249Y-105073734D01*
X114671594Y-105163237D01*
X114857448Y-105216417D01*
X114970862Y-105226500D01*
X114970870Y-105226500D01*
X115981130Y-105226500D01*
X115981138Y-105226500D01*
X116094552Y-105216417D01*
X116280406Y-105163237D01*
X116451751Y-105073734D01*
X116601571Y-104951571D01*
X116723734Y-104801751D01*
X116813237Y-104630406D01*
X116866417Y-104444552D01*
X116876500Y-104331138D01*
X116876500Y-103572500D01*
X116896185Y-103505461D01*
X116948989Y-103459706D01*
X117000500Y-103448500D01*
X117110221Y-103448500D01*
X117110222Y-103448500D01*
X117327951Y-103414015D01*
X117537606Y-103345895D01*
X117734022Y-103245815D01*
X117912365Y-103116242D01*
X118068242Y-102960365D01*
X118197815Y-102782022D01*
X118297895Y-102585606D01*
X118366015Y-102375951D01*
X118400500Y-102158222D01*
X118400500Y-101937778D01*
X118398208Y-101923311D01*
X118407161Y-101854022D01*
X118432997Y-101816236D01*
X134855520Y-85393713D01*
X154149500Y-85393713D01*
X154149500Y-85606287D01*
X154158413Y-85662559D01*
X154178654Y-85790361D01*
X154182754Y-85816243D01*
X154201074Y-85872627D01*
X154248444Y-86018414D01*
X154344951Y-86207820D01*
X154469890Y-86379786D01*
X154620213Y-86530109D01*
X154792179Y-86655048D01*
X154792181Y-86655049D01*
X154792184Y-86655051D01*
X154981588Y-86751557D01*
X155183757Y-86817246D01*
X155393713Y-86850500D01*
X155393714Y-86850500D01*
X155606286Y-86850500D01*
X155606287Y-86850500D01*
X155816243Y-86817246D01*
X156018412Y-86751557D01*
X156207816Y-86655051D01*
X156229789Y-86639086D01*
X156379786Y-86530109D01*
X156379788Y-86530106D01*
X156379792Y-86530104D01*
X156530104Y-86379792D01*
X156530106Y-86379788D01*
X156530109Y-86379786D01*
X156655048Y-86207820D01*
X156655047Y-86207820D01*
X156655051Y-86207816D01*
X156751557Y-86018412D01*
X156817246Y-85816243D01*
X156850500Y-85606287D01*
X156850500Y-85393713D01*
X156817246Y-85183757D01*
X156751557Y-84981588D01*
X156655051Y-84792184D01*
X156655049Y-84792181D01*
X156655048Y-84792179D01*
X156530109Y-84620213D01*
X156379786Y-84469890D01*
X156207820Y-84344951D01*
X156018414Y-84248444D01*
X156018413Y-84248443D01*
X156018412Y-84248443D01*
X155816243Y-84182754D01*
X155816241Y-84182753D01*
X155816240Y-84182753D01*
X155654957Y-84157208D01*
X155606287Y-84149500D01*
X155393713Y-84149500D01*
X155345042Y-84157208D01*
X155183760Y-84182753D01*
X154981585Y-84248444D01*
X154792179Y-84344951D01*
X154620213Y-84469890D01*
X154469890Y-84620213D01*
X154344951Y-84792179D01*
X154248444Y-84981585D01*
X154182753Y-85183760D01*
X154153658Y-85367462D01*
X154149500Y-85393713D01*
X134855520Y-85393713D01*
X153868713Y-66380521D01*
X153868716Y-66380520D01*
X153980520Y-66268716D01*
X154030639Y-66181904D01*
X154059577Y-66131785D01*
X154100501Y-65979057D01*
X154100501Y-65820943D01*
X154100501Y-65813348D01*
X154100500Y-65813330D01*
X154100500Y-63244555D01*
X154120185Y-63177516D01*
X154172989Y-63131761D01*
X154242147Y-63121817D01*
X154305703Y-63150842D01*
X154334985Y-63188261D01*
X154344949Y-63207817D01*
X154469890Y-63379786D01*
X154620213Y-63530109D01*
X154792179Y-63655048D01*
X154792181Y-63655049D01*
X154792184Y-63655051D01*
X154981588Y-63751557D01*
X155183757Y-63817246D01*
X155393713Y-63850500D01*
X155393714Y-63850500D01*
X155606286Y-63850500D01*
X155606287Y-63850500D01*
X155816243Y-63817246D01*
X156018412Y-63751557D01*
X156207816Y-63655051D01*
X156291476Y-63594269D01*
X156379786Y-63530109D01*
X156379788Y-63530106D01*
X156379792Y-63530104D01*
X156530104Y-63379792D01*
X156530106Y-63379788D01*
X156530109Y-63379786D01*
X156655048Y-63207820D01*
X156655050Y-63207817D01*
X156655051Y-63207816D01*
X156751557Y-63018412D01*
X156817246Y-62816243D01*
X156850500Y-62606287D01*
X156850500Y-62393713D01*
X156817246Y-62183757D01*
X156751557Y-61981588D01*
X156655051Y-61792184D01*
X156655049Y-61792181D01*
X156655048Y-61792179D01*
X156530109Y-61620213D01*
X156379786Y-61469890D01*
X156207819Y-61344951D01*
X156207818Y-61344950D01*
X156207816Y-61344949D01*
X156150675Y-61315834D01*
X156129983Y-61305291D01*
X156018414Y-61248444D01*
X156018413Y-61248443D01*
X156018412Y-61248443D01*
X155816243Y-61182754D01*
X155816241Y-61182753D01*
X155816240Y-61182753D01*
X155654957Y-61157208D01*
X155606287Y-61149500D01*
X155393713Y-61149500D01*
X155354202Y-61155757D01*
X155183759Y-61182753D01*
X155183755Y-61182754D01*
X155130924Y-61199920D01*
X155061083Y-61201915D01*
X155001250Y-61165834D01*
X154970423Y-61103133D01*
X154978388Y-61033719D01*
X155004923Y-60994311D01*
X159912416Y-56086819D01*
X159973739Y-56053334D01*
X160000097Y-56050500D01*
X160973331Y-56050500D01*
X160973347Y-56050501D01*
X160980943Y-56050501D01*
X161139054Y-56050501D01*
X161139057Y-56050501D01*
X161291785Y-56009577D01*
X161341904Y-55980639D01*
X161428716Y-55930520D01*
X161540520Y-55818716D01*
X161540520Y-55818714D01*
X161550728Y-55808507D01*
X161550730Y-55808504D01*
X165275478Y-52083755D01*
X165336799Y-52050272D01*
X165401473Y-52053506D01*
X165443757Y-52067246D01*
X165653713Y-52100500D01*
X165653714Y-52100500D01*
X165866286Y-52100500D01*
X165866287Y-52100500D01*
X166076243Y-52067246D01*
X166278412Y-52001557D01*
X166467816Y-51905051D01*
X166554138Y-51842335D01*
X166639786Y-51780109D01*
X166639788Y-51780106D01*
X166639792Y-51780104D01*
X166790104Y-51629792D01*
X166790106Y-51629788D01*
X166790109Y-51629786D01*
X166915048Y-51457820D01*
X166915047Y-51457820D01*
X166915051Y-51457816D01*
X166919514Y-51449054D01*
X166967488Y-51398259D01*
X167035308Y-51381463D01*
X167101444Y-51403999D01*
X167140486Y-51449056D01*
X167144951Y-51457820D01*
X167269890Y-51629786D01*
X167420213Y-51780109D01*
X167592184Y-51905051D01*
X167592184Y-51905052D01*
X167631793Y-51925233D01*
X167682590Y-51973206D01*
X167699500Y-52035718D01*
X167699500Y-60652703D01*
X167679815Y-60719742D01*
X167627011Y-60765497D01*
X167557853Y-60775441D01*
X167556102Y-60775176D01*
X167368736Y-60745500D01*
X167368731Y-60745500D01*
X167171269Y-60745500D01*
X167171264Y-60745500D01*
X166976236Y-60776389D01*
X166788441Y-60837408D01*
X166612495Y-60927058D01*
X166452753Y-61043115D01*
X166313115Y-61182753D01*
X166197058Y-61342495D01*
X166197056Y-61342499D01*
X166110203Y-61512954D01*
X166062230Y-61563749D01*
X165994409Y-61580544D01*
X165928274Y-61558006D01*
X165889235Y-61512953D01*
X165802520Y-61342768D01*
X165802512Y-61342755D01*
X165776542Y-61307010D01*
X165776541Y-61307009D01*
X165212962Y-61870589D01*
X165195925Y-61807007D01*
X165130099Y-61692993D01*
X165037007Y-61599901D01*
X164922993Y-61534075D01*
X164859409Y-61517037D01*
X165422989Y-60953457D01*
X165387239Y-60927483D01*
X165211373Y-60837873D01*
X165023646Y-60776876D01*
X164828697Y-60746000D01*
X164631303Y-60746000D01*
X164436353Y-60776876D01*
X164248626Y-60837873D01*
X164072762Y-60927482D01*
X164072760Y-60927483D01*
X164037010Y-60953456D01*
X164037010Y-60953457D01*
X164600591Y-61517037D01*
X164537007Y-61534075D01*
X164422993Y-61599901D01*
X164329901Y-61692993D01*
X164264075Y-61807007D01*
X164247037Y-61870590D01*
X163683457Y-61307010D01*
X163683456Y-61307010D01*
X163668818Y-61327159D01*
X163613489Y-61369826D01*
X163543875Y-61375806D01*
X163482080Y-61343200D01*
X163447722Y-61282362D01*
X163444499Y-61254275D01*
X163444499Y-61198129D01*
X163444498Y-61198123D01*
X163444497Y-61198116D01*
X163438091Y-61138517D01*
X163404723Y-61049054D01*
X163402857Y-61044049D01*
X163387797Y-61003671D01*
X163387793Y-61003664D01*
X163301547Y-60888455D01*
X163301544Y-60888452D01*
X163186335Y-60802206D01*
X163186328Y-60802202D01*
X163051482Y-60751908D01*
X163051483Y-60751908D01*
X162991883Y-60745501D01*
X162991881Y-60745500D01*
X162991873Y-60745500D01*
X162991864Y-60745500D01*
X161388129Y-60745500D01*
X161388123Y-60745501D01*
X161328516Y-60751908D01*
X161193671Y-60802202D01*
X161193664Y-60802206D01*
X161078455Y-60888452D01*
X161078452Y-60888455D01*
X160992206Y-61003664D01*
X160992202Y-61003671D01*
X160941908Y-61138517D01*
X160935501Y-61198116D01*
X160935501Y-61198123D01*
X160935500Y-61198135D01*
X160935500Y-62801870D01*
X160935501Y-62801876D01*
X160941908Y-62861483D01*
X160992202Y-62996328D01*
X160992206Y-62996335D01*
X161078452Y-63111544D01*
X161078455Y-63111547D01*
X161193664Y-63197793D01*
X161193671Y-63197797D01*
X161328517Y-63248091D01*
X161328516Y-63248091D01*
X161335444Y-63248835D01*
X161388127Y-63254500D01*
X162991872Y-63254499D01*
X163051483Y-63248091D01*
X163186331Y-63197796D01*
X163301546Y-63111546D01*
X163387796Y-62996331D01*
X163402511Y-62956879D01*
X163402858Y-62955949D01*
X163438091Y-62861482D01*
X163444500Y-62801873D01*
X163444499Y-62745723D01*
X163464182Y-62678687D01*
X163516986Y-62632931D01*
X163586144Y-62622987D01*
X163649700Y-62652011D01*
X163668817Y-62672839D01*
X163683457Y-62692988D01*
X163683457Y-62692989D01*
X164247037Y-62129409D01*
X164264075Y-62192993D01*
X164329901Y-62307007D01*
X164422993Y-62400099D01*
X164537007Y-62465925D01*
X164600590Y-62482962D01*
X164037009Y-63046541D01*
X164037010Y-63046542D01*
X164072755Y-63072512D01*
X164072768Y-63072520D01*
X164248626Y-63162126D01*
X164436353Y-63223123D01*
X164631303Y-63254000D01*
X164828697Y-63254000D01*
X165023646Y-63223123D01*
X165211373Y-63162126D01*
X165387241Y-63072516D01*
X165422988Y-63046543D01*
X165422988Y-63046541D01*
X164859410Y-62482962D01*
X164922993Y-62465925D01*
X165037007Y-62400099D01*
X165130099Y-62307007D01*
X165195925Y-62192993D01*
X165212962Y-62129409D01*
X165776541Y-62692988D01*
X165776543Y-62692988D01*
X165802516Y-62657241D01*
X165889235Y-62487046D01*
X165937210Y-62436250D01*
X166005031Y-62419455D01*
X166071165Y-62441992D01*
X166110202Y-62487042D01*
X166170961Y-62606287D01*
X166197058Y-62657505D01*
X166313115Y-62817246D01*
X166452753Y-62956884D01*
X166576158Y-63046541D01*
X166612499Y-63072944D01*
X166788439Y-63162591D01*
X166913637Y-63203270D01*
X166976236Y-63223610D01*
X167171264Y-63254500D01*
X167171269Y-63254500D01*
X167368736Y-63254500D01*
X167563763Y-63223610D01*
X167565262Y-63223123D01*
X167751561Y-63162591D01*
X167927501Y-63072944D01*
X168032955Y-62996328D01*
X168087246Y-62956884D01*
X168087248Y-62956881D01*
X168087252Y-62956879D01*
X168226879Y-62817252D01*
X168226881Y-62817248D01*
X168226884Y-62817246D01*
X168342941Y-62657505D01*
X168342942Y-62657504D01*
X168342944Y-62657501D01*
X168429517Y-62487593D01*
X168477490Y-62436800D01*
X168545311Y-62420005D01*
X168611446Y-62442542D01*
X168650482Y-62487593D01*
X168710961Y-62606287D01*
X168737058Y-62657505D01*
X168853115Y-62817246D01*
X168992753Y-62956884D01*
X169116158Y-63046541D01*
X169152499Y-63072944D01*
X169328439Y-63162591D01*
X169453637Y-63203270D01*
X169516236Y-63223610D01*
X169711264Y-63254500D01*
X169711269Y-63254500D01*
X169908736Y-63254500D01*
X170103763Y-63223610D01*
X170105262Y-63223123D01*
X170291561Y-63162591D01*
X170467501Y-63072944D01*
X170572955Y-62996328D01*
X170627246Y-62956884D01*
X170627248Y-62956881D01*
X170627252Y-62956879D01*
X170766879Y-62817252D01*
X170766881Y-62817248D01*
X170766884Y-62817246D01*
X170818845Y-62745727D01*
X170882944Y-62657501D01*
X170972591Y-62481561D01*
X171001134Y-62393713D01*
X175153950Y-62393713D01*
X175153950Y-62606286D01*
X175184929Y-62801883D01*
X175187204Y-62816243D01*
X175246317Y-62998174D01*
X175252894Y-63018414D01*
X175349401Y-63207820D01*
X175474340Y-63379786D01*
X175624663Y-63530109D01*
X175796629Y-63655048D01*
X175796631Y-63655049D01*
X175796634Y-63655051D01*
X175986038Y-63751557D01*
X176188207Y-63817246D01*
X176398163Y-63850500D01*
X176398164Y-63850500D01*
X176610736Y-63850500D01*
X176610737Y-63850500D01*
X176820693Y-63817246D01*
X177022862Y-63751557D01*
X177212266Y-63655051D01*
X177295926Y-63594269D01*
X177384236Y-63530109D01*
X177384238Y-63530106D01*
X177384242Y-63530104D01*
X177534554Y-63379792D01*
X177534556Y-63379788D01*
X177534559Y-63379786D01*
X177659498Y-63207820D01*
X177659500Y-63207817D01*
X177659501Y-63207816D01*
X177756007Y-63018412D01*
X177821696Y-62816243D01*
X177854950Y-62606287D01*
X177854950Y-62393713D01*
X177821696Y-62183757D01*
X177756007Y-61981588D01*
X177659501Y-61792184D01*
X177659499Y-61792181D01*
X177659498Y-61792179D01*
X177534559Y-61620213D01*
X177384236Y-61469890D01*
X177212270Y-61344951D01*
X177022864Y-61248444D01*
X177022863Y-61248443D01*
X177022862Y-61248443D01*
X176820693Y-61182754D01*
X176820691Y-61182753D01*
X176820690Y-61182753D01*
X176659407Y-61157208D01*
X176610737Y-61149500D01*
X176398163Y-61149500D01*
X176349492Y-61157208D01*
X176188210Y-61182753D01*
X175986035Y-61248444D01*
X175796629Y-61344951D01*
X175624663Y-61469890D01*
X175474340Y-61620213D01*
X175349401Y-61792179D01*
X175252894Y-61981585D01*
X175187203Y-62183760D01*
X175153950Y-62393713D01*
X171001134Y-62393713D01*
X171005920Y-62378984D01*
X171015168Y-62350523D01*
X171033610Y-62293764D01*
X171064500Y-62098736D01*
X171064500Y-61901263D01*
X171032848Y-61701425D01*
X171034594Y-61701148D01*
X171037704Y-61638973D01*
X171067105Y-61592128D01*
X171198506Y-61460728D01*
X171198511Y-61460724D01*
X171208714Y-61450520D01*
X171208716Y-61450520D01*
X171320520Y-61338716D01*
X171372639Y-61248443D01*
X171399577Y-61201785D01*
X171440501Y-61049057D01*
X171440501Y-60890943D01*
X171440501Y-60883348D01*
X171440500Y-60883330D01*
X171440500Y-52035718D01*
X171460185Y-51968679D01*
X171508207Y-51925233D01*
X171547815Y-51905052D01*
X171547815Y-51905051D01*
X171547816Y-51905051D01*
X171639193Y-51838661D01*
X171719786Y-51780109D01*
X171719788Y-51780106D01*
X171719792Y-51780104D01*
X171870104Y-51629792D01*
X171870106Y-51629788D01*
X171870109Y-51629786D01*
X171995048Y-51457820D01*
X171995047Y-51457820D01*
X171995051Y-51457816D01*
X171999514Y-51449054D01*
X172047488Y-51398259D01*
X172115308Y-51381463D01*
X172181444Y-51403999D01*
X172220486Y-51449056D01*
X172224951Y-51457820D01*
X172349890Y-51629786D01*
X172349896Y-51629792D01*
X172500208Y-51780104D01*
X172672184Y-51905051D01*
X172781795Y-51960899D01*
X172832590Y-52008873D01*
X172849500Y-52071384D01*
X172849500Y-52113330D01*
X172849499Y-52113348D01*
X172849499Y-52279054D01*
X172849498Y-52279054D01*
X172889600Y-52428712D01*
X172890423Y-52431785D01*
X172901073Y-52450231D01*
X172969477Y-52568712D01*
X172969481Y-52568717D01*
X173088349Y-52687585D01*
X173088355Y-52687590D01*
X179113181Y-58712416D01*
X179146666Y-58773739D01*
X179149500Y-58800097D01*
X179149500Y-67299902D01*
X179129815Y-67366941D01*
X179113181Y-67387583D01*
X149659481Y-96841282D01*
X149659475Y-96841290D01*
X149624738Y-96901458D01*
X149624738Y-96901459D01*
X149580424Y-96978211D01*
X149580423Y-96978212D01*
X149564720Y-97036819D01*
X149539499Y-97130943D01*
X149539499Y-97130945D01*
X149539499Y-97299046D01*
X149539500Y-97299059D01*
X149539500Y-97584486D01*
X149519815Y-97651525D01*
X149488386Y-97684804D01*
X149344896Y-97789056D01*
X149209057Y-97924895D01*
X149209057Y-97924896D01*
X149209055Y-97924898D01*
X149196250Y-97942523D01*
X149096135Y-98080318D01*
X149008916Y-98251493D01*
X148949553Y-98434197D01*
X148949553Y-98434199D01*
X148919500Y-98623945D01*
X148919500Y-99376055D01*
X148932124Y-99455758D01*
X148949553Y-99565802D01*
X149008916Y-99748506D01*
X149038075Y-99805733D01*
X149096135Y-99919681D01*
X149209055Y-100075102D01*
X149344898Y-100210945D01*
X149500319Y-100323865D01*
X149671491Y-100411082D01*
X149671493Y-100411083D01*
X149679788Y-100413778D01*
X149854199Y-100470447D01*
X150043945Y-100500500D01*
X150043946Y-100500500D01*
X150236054Y-100500500D01*
X150236055Y-100500500D01*
X150425801Y-100470447D01*
X150608509Y-100411082D01*
X150779681Y-100323865D01*
X150935102Y-100210945D01*
X151070945Y-100075102D01*
X151183865Y-99919681D01*
X151271082Y-99748509D01*
X151271084Y-99748504D01*
X151292069Y-99683919D01*
X151331506Y-99626243D01*
X151395864Y-99599044D01*
X151464711Y-99610958D01*
X151516187Y-99658202D01*
X151527931Y-99683919D01*
X151548915Y-99748504D01*
X151578075Y-99805733D01*
X151636135Y-99919681D01*
X151749055Y-100075102D01*
X151884898Y-100210945D01*
X152040319Y-100323865D01*
X152211491Y-100411082D01*
X152211493Y-100411083D01*
X152219788Y-100413778D01*
X152394199Y-100470447D01*
X152583945Y-100500500D01*
X152583946Y-100500500D01*
X152776054Y-100500500D01*
X152776055Y-100500500D01*
X152965801Y-100470447D01*
X153148509Y-100411082D01*
X153319681Y-100323865D01*
X153475102Y-100210945D01*
X153610945Y-100075102D01*
X153723865Y-99919681D01*
X153811082Y-99748509D01*
X153811084Y-99748504D01*
X153832069Y-99683919D01*
X153871506Y-99626243D01*
X153935864Y-99599044D01*
X154004711Y-99610958D01*
X154056187Y-99658202D01*
X154067931Y-99683919D01*
X154088915Y-99748504D01*
X154118075Y-99805733D01*
X154176135Y-99919681D01*
X154289055Y-100075102D01*
X154424898Y-100210945D01*
X154580319Y-100323865D01*
X154751491Y-100411082D01*
X154751493Y-100411083D01*
X154759788Y-100413778D01*
X154934199Y-100470447D01*
X155123945Y-100500500D01*
X155123946Y-100500500D01*
X155316054Y-100500500D01*
X155316055Y-100500500D01*
X155505801Y-100470447D01*
X155688509Y-100411082D01*
X155859681Y-100323865D01*
X156015102Y-100210945D01*
X156150945Y-100075102D01*
X156263865Y-99919681D01*
X156351082Y-99748509D01*
X156351084Y-99748504D01*
X156372069Y-99683919D01*
X156411506Y-99626243D01*
X156475864Y-99599044D01*
X156544711Y-99610958D01*
X156596187Y-99658202D01*
X156607931Y-99683919D01*
X156628915Y-99748504D01*
X156658075Y-99805733D01*
X156716135Y-99919681D01*
X156829055Y-100075102D01*
X156964898Y-100210945D01*
X157120319Y-100323865D01*
X157291491Y-100411082D01*
X157291493Y-100411083D01*
X157299788Y-100413778D01*
X157474199Y-100470447D01*
X157663945Y-100500500D01*
X157663946Y-100500500D01*
X157856054Y-100500500D01*
X157856055Y-100500500D01*
X158045801Y-100470447D01*
X158228509Y-100411082D01*
X158399681Y-100323865D01*
X158555102Y-100210945D01*
X158690945Y-100075102D01*
X158803865Y-99919681D01*
X158891082Y-99748509D01*
X158891084Y-99748504D01*
X158912069Y-99683919D01*
X158951506Y-99626243D01*
X159015864Y-99599044D01*
X159084711Y-99610958D01*
X159136187Y-99658202D01*
X159147931Y-99683919D01*
X159168915Y-99748504D01*
X159198075Y-99805733D01*
X159256135Y-99919681D01*
X159369055Y-100075102D01*
X159504898Y-100210945D01*
X159660319Y-100323865D01*
X159831491Y-100411082D01*
X159831493Y-100411083D01*
X159839788Y-100413778D01*
X160014199Y-100470447D01*
X160203945Y-100500500D01*
X160203946Y-100500500D01*
X160396054Y-100500500D01*
X160396055Y-100500500D01*
X160585801Y-100470447D01*
X160768509Y-100411082D01*
X160939681Y-100323865D01*
X161095102Y-100210945D01*
X161230945Y-100075102D01*
X161343865Y-99919681D01*
X161431082Y-99748509D01*
X161431084Y-99748504D01*
X161452069Y-99683919D01*
X161491506Y-99626243D01*
X161555864Y-99599044D01*
X161624711Y-99610958D01*
X161676187Y-99658202D01*
X161687931Y-99683919D01*
X161708915Y-99748504D01*
X161738075Y-99805733D01*
X161796135Y-99919681D01*
X161909055Y-100075102D01*
X162044898Y-100210945D01*
X162200319Y-100323865D01*
X162371491Y-100411082D01*
X162371493Y-100411083D01*
X162379788Y-100413778D01*
X162554199Y-100470447D01*
X162743945Y-100500500D01*
X162743946Y-100500500D01*
X162936054Y-100500500D01*
X162936055Y-100500500D01*
X163125801Y-100470447D01*
X163308509Y-100411082D01*
X163479681Y-100323865D01*
X163635102Y-100210945D01*
X163770945Y-100075102D01*
X163883865Y-99919681D01*
X163971082Y-99748509D01*
X163971084Y-99748504D01*
X163992069Y-99683919D01*
X164031506Y-99626243D01*
X164095864Y-99599044D01*
X164164711Y-99610958D01*
X164216187Y-99658202D01*
X164227931Y-99683919D01*
X164248915Y-99748504D01*
X164278075Y-99805733D01*
X164336135Y-99919681D01*
X164449055Y-100075102D01*
X164584898Y-100210945D01*
X164740319Y-100323865D01*
X164911491Y-100411082D01*
X164911493Y-100411083D01*
X164919788Y-100413778D01*
X165094199Y-100470447D01*
X165283945Y-100500500D01*
X165283946Y-100500500D01*
X165476054Y-100500500D01*
X165476055Y-100500500D01*
X165665801Y-100470447D01*
X165848509Y-100411082D01*
X166019681Y-100323865D01*
X166175102Y-100210945D01*
X166310945Y-100075102D01*
X166423865Y-99919681D01*
X166511082Y-99748509D01*
X166511084Y-99748504D01*
X166532069Y-99683919D01*
X166571506Y-99626243D01*
X166635864Y-99599044D01*
X166704711Y-99610958D01*
X166756187Y-99658202D01*
X166767931Y-99683919D01*
X166788915Y-99748504D01*
X166818075Y-99805733D01*
X166876135Y-99919681D01*
X166989055Y-100075102D01*
X167124898Y-100210945D01*
X167280319Y-100323865D01*
X167451491Y-100411082D01*
X167451493Y-100411083D01*
X167459788Y-100413778D01*
X167634199Y-100470447D01*
X167823945Y-100500500D01*
X167823946Y-100500500D01*
X168016054Y-100500500D01*
X168016055Y-100500500D01*
X168205801Y-100470447D01*
X168388509Y-100411082D01*
X168559681Y-100323865D01*
X168715102Y-100210945D01*
X168850945Y-100075102D01*
X168963865Y-99919681D01*
X169051082Y-99748509D01*
X169051084Y-99748504D01*
X169072069Y-99683919D01*
X169111506Y-99626243D01*
X169175864Y-99599044D01*
X169244711Y-99610958D01*
X169296187Y-99658202D01*
X169307931Y-99683919D01*
X169328915Y-99748504D01*
X169358075Y-99805733D01*
X169416135Y-99919681D01*
X169529055Y-100075102D01*
X169664898Y-100210945D01*
X169820319Y-100323865D01*
X169991491Y-100411082D01*
X169991493Y-100411083D01*
X169999788Y-100413778D01*
X170174199Y-100470447D01*
X170363945Y-100500500D01*
X170363946Y-100500500D01*
X170556054Y-100500500D01*
X170556055Y-100500500D01*
X170745801Y-100470447D01*
X170928509Y-100411082D01*
X171099681Y-100323865D01*
X171255102Y-100210945D01*
X171390945Y-100075102D01*
X171503865Y-99919681D01*
X171591082Y-99748509D01*
X171591084Y-99748504D01*
X171612069Y-99683919D01*
X171651506Y-99626243D01*
X171715864Y-99599044D01*
X171784711Y-99610958D01*
X171836187Y-99658202D01*
X171847931Y-99683919D01*
X171868915Y-99748504D01*
X171898075Y-99805733D01*
X171956135Y-99919681D01*
X172069055Y-100075102D01*
X172204898Y-100210945D01*
X172360319Y-100323865D01*
X172531491Y-100411082D01*
X172531493Y-100411083D01*
X172539788Y-100413778D01*
X172714199Y-100470447D01*
X172903945Y-100500500D01*
X172903946Y-100500500D01*
X173096054Y-100500500D01*
X173096055Y-100500500D01*
X173285801Y-100470447D01*
X173468509Y-100411082D01*
X173639681Y-100323865D01*
X173795102Y-100210945D01*
X173930945Y-100075102D01*
X174043865Y-99919681D01*
X174131082Y-99748509D01*
X174190447Y-99565801D01*
X174220500Y-99376055D01*
X174220500Y-98623945D01*
X174190447Y-98434199D01*
X174160424Y-98341797D01*
X174131083Y-98251493D01*
X174127737Y-98244926D01*
X174043865Y-98080319D01*
X173930945Y-97924898D01*
X173795102Y-97789055D01*
X173697905Y-97718437D01*
X173651614Y-97684804D01*
X173608949Y-97629473D01*
X173600500Y-97584486D01*
X173600500Y-97100097D01*
X173620185Y-97033058D01*
X173636819Y-97012416D01*
X174112416Y-96536819D01*
X174173739Y-96503334D01*
X174200097Y-96500500D01*
X178149903Y-96500500D01*
X178216942Y-96520185D01*
X178237584Y-96536819D01*
X179263181Y-97562416D01*
X179296666Y-97623739D01*
X179299500Y-97650097D01*
X179299500Y-120878111D01*
X179279815Y-120945150D01*
X179227011Y-120990905D01*
X179157853Y-121000849D01*
X179094297Y-120971824D01*
X179087819Y-120965792D01*
X178977512Y-120855485D01*
X178977510Y-120855483D01*
X178786433Y-120716657D01*
X178777399Y-120712054D01*
X178575996Y-120609433D01*
X178351368Y-120536446D01*
X178118097Y-120499500D01*
X178118092Y-120499500D01*
X177881908Y-120499500D01*
X177881903Y-120499500D01*
X177648631Y-120536446D01*
X177424003Y-120609433D01*
X177213566Y-120716657D01*
X177104550Y-120795862D01*
X177022490Y-120855483D01*
X177022488Y-120855485D01*
X177022487Y-120855485D01*
X176855485Y-121022487D01*
X176855485Y-121022488D01*
X176855483Y-121022490D01*
X176795862Y-121104550D01*
X176716657Y-121213566D01*
X176609433Y-121424003D01*
X176536446Y-121648631D01*
X176499500Y-121881902D01*
X176499500Y-122118097D01*
X176536446Y-122351368D01*
X176609433Y-122575996D01*
X176696329Y-122746537D01*
X176716657Y-122786433D01*
X176855483Y-122977510D01*
X176855485Y-122977512D01*
X177022490Y-123144517D01*
X177029603Y-123149685D01*
X177072266Y-123205017D01*
X177078242Y-123274630D01*
X177045634Y-123336424D01*
X177029603Y-123350315D01*
X177022490Y-123355482D01*
X176855485Y-123522487D01*
X176855485Y-123522488D01*
X176855483Y-123522490D01*
X176795862Y-123604550D01*
X176716657Y-123713566D01*
X176609433Y-123924003D01*
X176536446Y-124148631D01*
X176499500Y-124381902D01*
X176499500Y-124618097D01*
X176536446Y-124851368D01*
X176609433Y-125075996D01*
X176678759Y-125212054D01*
X176716657Y-125286433D01*
X176766826Y-125355485D01*
X176786205Y-125382157D01*
X176809685Y-125447964D01*
X176793860Y-125516018D01*
X176760199Y-125554309D01*
X176642452Y-125642455D01*
X176556206Y-125757664D01*
X176556202Y-125757671D01*
X176505908Y-125892517D01*
X176499501Y-125952116D01*
X176499500Y-125952135D01*
X176499500Y-128047870D01*
X176499501Y-128047876D01*
X176505908Y-128107483D01*
X176556202Y-128242328D01*
X176556206Y-128242335D01*
X176642452Y-128357544D01*
X176642455Y-128357547D01*
X176757664Y-128443793D01*
X176757671Y-128443797D01*
X176892517Y-128494091D01*
X176892516Y-128494091D01*
X176899444Y-128494835D01*
X176952127Y-128500500D01*
X179047872Y-128500499D01*
X179107483Y-128494091D01*
X179132165Y-128484884D01*
X179201856Y-128479899D01*
X179263180Y-128513384D01*
X179296666Y-128574706D01*
X179299500Y-128601066D01*
X179299500Y-131399902D01*
X179279815Y-131466941D01*
X179263181Y-131487583D01*
X177437584Y-133313181D01*
X177376261Y-133346666D01*
X177349903Y-133349500D01*
X171463293Y-133349500D01*
X171463277Y-133349499D01*
X171455681Y-133349499D01*
X171297566Y-133349499D01*
X171221202Y-133369961D01*
X171144837Y-133390423D01*
X171144832Y-133390426D01*
X171007913Y-133469475D01*
X171007905Y-133469481D01*
X168826327Y-135651059D01*
X168765004Y-135684544D01*
X168700328Y-135681309D01*
X168658050Y-135667572D01*
X168518077Y-135645402D01*
X168448092Y-135634318D01*
X168235518Y-135634318D01*
X168186847Y-135642026D01*
X168025565Y-135667571D01*
X167823390Y-135733262D01*
X167633984Y-135829769D01*
X167462018Y-135954708D01*
X167311695Y-136105031D01*
X167186754Y-136277000D01*
X167182289Y-136285764D01*
X167134314Y-136336560D01*
X167066493Y-136353354D01*
X167000358Y-136330816D01*
X166961321Y-136285764D01*
X166956855Y-136277000D01*
X166831914Y-136105031D01*
X166681591Y-135954708D01*
X166509625Y-135829769D01*
X166320219Y-135733262D01*
X166320218Y-135733261D01*
X166320217Y-135733261D01*
X166118048Y-135667572D01*
X166118046Y-135667571D01*
X166118045Y-135667571D01*
X165956762Y-135642026D01*
X165908092Y-135634318D01*
X165695518Y-135634318D01*
X165676009Y-135637408D01*
X165485562Y-135667571D01*
X165443278Y-135681310D01*
X165373437Y-135683304D01*
X165317281Y-135651059D01*
X162236819Y-132570596D01*
X162203334Y-132509273D01*
X162200500Y-132482915D01*
X162200500Y-129052135D01*
X168399500Y-129052135D01*
X168399500Y-131147870D01*
X168399501Y-131147876D01*
X168405908Y-131207483D01*
X168456202Y-131342328D01*
X168456206Y-131342335D01*
X168542452Y-131457544D01*
X168542455Y-131457547D01*
X168657664Y-131543793D01*
X168657671Y-131543797D01*
X168792517Y-131594091D01*
X168792516Y-131594091D01*
X168799444Y-131594835D01*
X168852127Y-131600500D01*
X172147872Y-131600499D01*
X172207483Y-131594091D01*
X172342331Y-131543796D01*
X172457546Y-131457546D01*
X172543796Y-131342331D01*
X172594091Y-131207483D01*
X172600500Y-131147873D01*
X172600499Y-129052128D01*
X172594091Y-128992517D01*
X172543796Y-128857669D01*
X172543795Y-128857668D01*
X172543793Y-128857664D01*
X172457547Y-128742455D01*
X172457544Y-128742452D01*
X172342335Y-128656206D01*
X172342328Y-128656202D01*
X172207482Y-128605908D01*
X172207483Y-128605908D01*
X172147883Y-128599501D01*
X172147881Y-128599500D01*
X172147873Y-128599500D01*
X172147864Y-128599500D01*
X168852129Y-128599500D01*
X168852123Y-128599501D01*
X168792516Y-128605908D01*
X168657671Y-128656202D01*
X168657664Y-128656206D01*
X168542455Y-128742452D01*
X168542452Y-128742455D01*
X168456206Y-128857664D01*
X168456202Y-128857671D01*
X168405908Y-128992517D01*
X168399501Y-129052116D01*
X168399501Y-129052123D01*
X168399500Y-129052135D01*
X162200500Y-129052135D01*
X162200500Y-128121889D01*
X162220185Y-128054850D01*
X162272989Y-128009095D01*
X162342147Y-127999151D01*
X162405703Y-128028176D01*
X162412181Y-128034208D01*
X162522490Y-128144517D01*
X162713567Y-128283343D01*
X162812991Y-128334002D01*
X162924003Y-128390566D01*
X162924005Y-128390566D01*
X162924008Y-128390568D01*
X163044412Y-128429689D01*
X163148631Y-128463553D01*
X163381903Y-128500500D01*
X163381908Y-128500500D01*
X163618097Y-128500500D01*
X163851368Y-128463553D01*
X164075992Y-128390568D01*
X164286433Y-128283343D01*
X164477510Y-128144517D01*
X164644517Y-127977510D01*
X164783343Y-127786433D01*
X164890568Y-127575992D01*
X164963553Y-127351368D01*
X164974992Y-127279143D01*
X165000500Y-127118097D01*
X165000500Y-126881902D01*
X164963553Y-126648631D01*
X164929689Y-126544412D01*
X164890568Y-126424008D01*
X164890566Y-126424005D01*
X164890566Y-126424003D01*
X164834002Y-126312991D01*
X164783343Y-126213567D01*
X164644517Y-126022490D01*
X164477510Y-125855483D01*
X164286433Y-125716657D01*
X164263198Y-125704818D01*
X164075996Y-125609433D01*
X163851368Y-125536446D01*
X163618097Y-125499500D01*
X163618092Y-125499500D01*
X163381908Y-125499500D01*
X163381903Y-125499500D01*
X163148631Y-125536446D01*
X162924003Y-125609433D01*
X162713566Y-125716657D01*
X162657119Y-125757669D01*
X162522490Y-125855483D01*
X162522488Y-125855485D01*
X162522487Y-125855485D01*
X162412181Y-125965792D01*
X162350858Y-125999277D01*
X162281166Y-125994293D01*
X162225233Y-125952421D01*
X162200816Y-125886957D01*
X162200500Y-125878111D01*
X162200500Y-123121889D01*
X162220185Y-123054850D01*
X162272989Y-123009095D01*
X162342147Y-122999151D01*
X162405703Y-123028176D01*
X162412181Y-123034208D01*
X162522490Y-123144517D01*
X162713567Y-123283343D01*
X162807054Y-123330977D01*
X162924003Y-123390566D01*
X162924005Y-123390566D01*
X162924008Y-123390568D01*
X163013384Y-123419608D01*
X163148631Y-123463553D01*
X163381903Y-123500500D01*
X163381908Y-123500500D01*
X163618097Y-123500500D01*
X163851368Y-123463553D01*
X164075992Y-123390568D01*
X164286433Y-123283343D01*
X164477510Y-123144517D01*
X164644517Y-122977510D01*
X164783343Y-122786433D01*
X164890568Y-122575992D01*
X164963553Y-122351368D01*
X165000500Y-122118097D01*
X165000500Y-121881902D01*
X164963553Y-121648631D01*
X164890566Y-121424003D01*
X164804286Y-121254670D01*
X164783343Y-121213567D01*
X164644517Y-121022490D01*
X164477510Y-120855483D01*
X164286433Y-120716657D01*
X164277399Y-120712054D01*
X164075996Y-120609433D01*
X163851368Y-120536446D01*
X163618097Y-120499500D01*
X163618092Y-120499500D01*
X163381908Y-120499500D01*
X163381903Y-120499500D01*
X163148631Y-120536446D01*
X162924003Y-120609433D01*
X162713566Y-120716657D01*
X162604550Y-120795862D01*
X162522490Y-120855483D01*
X162522488Y-120855485D01*
X162522487Y-120855485D01*
X162412181Y-120965792D01*
X162350858Y-120999277D01*
X162281166Y-120994293D01*
X162225233Y-120952421D01*
X162200816Y-120886957D01*
X162200500Y-120878111D01*
X162200500Y-118031469D01*
X162220185Y-117964430D01*
X162236819Y-117943788D01*
X162328472Y-117852135D01*
X168399500Y-117852135D01*
X168399500Y-119947870D01*
X168399501Y-119947876D01*
X168405908Y-120007483D01*
X168456202Y-120142328D01*
X168456206Y-120142335D01*
X168542452Y-120257544D01*
X168542455Y-120257547D01*
X168657664Y-120343793D01*
X168657671Y-120343797D01*
X168792517Y-120394091D01*
X168792516Y-120394091D01*
X168799444Y-120394835D01*
X168852127Y-120400500D01*
X172147872Y-120400499D01*
X172207483Y-120394091D01*
X172342331Y-120343796D01*
X172457546Y-120257546D01*
X172543796Y-120142331D01*
X172594091Y-120007483D01*
X172600500Y-119947873D01*
X172600499Y-117852128D01*
X172594091Y-117792517D01*
X172593619Y-117791252D01*
X172543797Y-117657671D01*
X172543793Y-117657664D01*
X172457547Y-117542455D01*
X172457544Y-117542452D01*
X172342335Y-117456206D01*
X172342328Y-117456202D01*
X172207482Y-117405908D01*
X172207483Y-117405908D01*
X172147883Y-117399501D01*
X172147881Y-117399500D01*
X172147873Y-117399500D01*
X172147864Y-117399500D01*
X168852129Y-117399500D01*
X168852123Y-117399501D01*
X168792516Y-117405908D01*
X168657671Y-117456202D01*
X168657664Y-117456206D01*
X168542455Y-117542452D01*
X168542452Y-117542455D01*
X168456206Y-117657664D01*
X168456202Y-117657671D01*
X168405908Y-117792517D01*
X168404359Y-117806930D01*
X168399501Y-117852123D01*
X168399500Y-117852135D01*
X162328472Y-117852135D01*
X162419482Y-117761125D01*
X165549318Y-114631290D01*
X168843789Y-111336819D01*
X168905112Y-111303334D01*
X168931470Y-111300500D01*
X169813331Y-111300500D01*
X169813347Y-111300501D01*
X169820943Y-111300501D01*
X169979054Y-111300501D01*
X169979057Y-111300501D01*
X170131785Y-111259577D01*
X170197235Y-111221789D01*
X170268716Y-111180520D01*
X170380520Y-111068716D01*
X170380520Y-111068714D01*
X170390724Y-111058511D01*
X170390728Y-111058506D01*
X173363299Y-108085935D01*
X173368714Y-108080520D01*
X173368716Y-108080520D01*
X173372877Y-108076359D01*
X173372946Y-108076321D01*
X173422231Y-108046117D01*
X173468509Y-108031082D01*
X173639681Y-107943865D01*
X173795102Y-107830945D01*
X173930945Y-107695102D01*
X174043865Y-107539681D01*
X174131082Y-107368509D01*
X174190447Y-107185801D01*
X174220500Y-106996055D01*
X174220500Y-106243945D01*
X174190447Y-106054199D01*
X174160424Y-105961797D01*
X174131083Y-105871493D01*
X174119455Y-105848672D01*
X174043865Y-105700319D01*
X173930945Y-105544898D01*
X173795102Y-105409055D01*
X173639681Y-105296135D01*
X173512770Y-105231470D01*
X173468506Y-105208916D01*
X173285802Y-105149553D01*
X173190928Y-105134526D01*
X173096055Y-105119500D01*
X172903945Y-105119500D01*
X172840696Y-105129517D01*
X172714197Y-105149553D01*
X172531493Y-105208916D01*
X172360318Y-105296135D01*
X172271645Y-105360560D01*
X172204898Y-105409055D01*
X172204896Y-105409057D01*
X172204895Y-105409057D01*
X172069057Y-105544895D01*
X172069057Y-105544896D01*
X172069055Y-105544898D01*
X172049271Y-105572129D01*
X171956135Y-105700318D01*
X171868916Y-105871493D01*
X171847931Y-105936081D01*
X171808494Y-105993756D01*
X171744135Y-106020955D01*
X171675289Y-106009041D01*
X171623813Y-105961797D01*
X171612069Y-105936081D01*
X171591083Y-105871493D01*
X171579455Y-105848672D01*
X171503865Y-105700319D01*
X171390945Y-105544898D01*
X171255102Y-105409055D01*
X171099681Y-105296135D01*
X170972770Y-105231470D01*
X170928506Y-105208916D01*
X170745802Y-105149553D01*
X170650928Y-105134526D01*
X170556055Y-105119500D01*
X170363945Y-105119500D01*
X170300696Y-105129517D01*
X170174197Y-105149553D01*
X169991493Y-105208916D01*
X169820318Y-105296135D01*
X169731645Y-105360560D01*
X169664898Y-105409055D01*
X169664896Y-105409057D01*
X169664895Y-105409057D01*
X169529057Y-105544895D01*
X169529057Y-105544896D01*
X169529055Y-105544898D01*
X169509271Y-105572129D01*
X169416135Y-105700318D01*
X169328916Y-105871493D01*
X169307931Y-105936081D01*
X169268494Y-105993756D01*
X169204135Y-106020955D01*
X169135289Y-106009041D01*
X169083813Y-105961797D01*
X169072069Y-105936081D01*
X169051083Y-105871493D01*
X169039455Y-105848672D01*
X168963865Y-105700319D01*
X168850945Y-105544898D01*
X168715102Y-105409055D01*
X168559681Y-105296135D01*
X168432770Y-105231470D01*
X168388506Y-105208916D01*
X168205802Y-105149553D01*
X168110928Y-105134526D01*
X168016055Y-105119500D01*
X167823945Y-105119500D01*
X167760696Y-105129517D01*
X167634197Y-105149553D01*
X167451493Y-105208916D01*
X167280318Y-105296135D01*
X167191645Y-105360560D01*
X167124898Y-105409055D01*
X167124896Y-105409057D01*
X167124895Y-105409057D01*
X166989057Y-105544895D01*
X166989057Y-105544896D01*
X166989055Y-105544898D01*
X166969271Y-105572129D01*
X166876135Y-105700318D01*
X166788916Y-105871493D01*
X166767931Y-105936081D01*
X166728494Y-105993756D01*
X166664135Y-106020955D01*
X166595289Y-106009041D01*
X166543813Y-105961797D01*
X166532069Y-105936081D01*
X166511083Y-105871493D01*
X166499455Y-105848672D01*
X166423865Y-105700319D01*
X166310945Y-105544898D01*
X166175102Y-105409055D01*
X166019681Y-105296135D01*
X165892770Y-105231470D01*
X165848506Y-105208916D01*
X165665802Y-105149553D01*
X165570928Y-105134526D01*
X165476055Y-105119500D01*
X165283945Y-105119500D01*
X165220696Y-105129517D01*
X165094197Y-105149553D01*
X164911493Y-105208916D01*
X164740318Y-105296135D01*
X164651645Y-105360560D01*
X164584898Y-105409055D01*
X164584896Y-105409057D01*
X164584895Y-105409057D01*
X164449057Y-105544895D01*
X164449057Y-105544896D01*
X164449055Y-105544898D01*
X164429271Y-105572129D01*
X164336135Y-105700318D01*
X164248916Y-105871493D01*
X164227931Y-105936081D01*
X164188494Y-105993756D01*
X164124135Y-106020955D01*
X164055289Y-106009041D01*
X164003813Y-105961797D01*
X163992069Y-105936081D01*
X163971083Y-105871493D01*
X163959455Y-105848672D01*
X163883865Y-105700319D01*
X163770945Y-105544898D01*
X163635102Y-105409055D01*
X163479681Y-105296135D01*
X163352770Y-105231470D01*
X163308506Y-105208916D01*
X163125802Y-105149553D01*
X163030928Y-105134526D01*
X162936055Y-105119500D01*
X162743945Y-105119500D01*
X162680696Y-105129517D01*
X162554197Y-105149553D01*
X162371493Y-105208916D01*
X162200318Y-105296135D01*
X162111645Y-105360560D01*
X162044898Y-105409055D01*
X162044896Y-105409057D01*
X162044895Y-105409057D01*
X161909057Y-105544895D01*
X161909057Y-105544896D01*
X161909055Y-105544898D01*
X161889271Y-105572129D01*
X161796135Y-105700318D01*
X161708916Y-105871493D01*
X161687931Y-105936081D01*
X161648494Y-105993756D01*
X161584135Y-106020955D01*
X161515289Y-106009041D01*
X161463813Y-105961797D01*
X161452069Y-105936081D01*
X161431083Y-105871493D01*
X161419455Y-105848672D01*
X161343865Y-105700319D01*
X161230945Y-105544898D01*
X161095102Y-105409055D01*
X160939681Y-105296135D01*
X160812770Y-105231470D01*
X160768506Y-105208916D01*
X160585802Y-105149553D01*
X160490928Y-105134526D01*
X160396055Y-105119500D01*
X160203945Y-105119500D01*
X160140696Y-105129517D01*
X160014197Y-105149553D01*
X159831493Y-105208916D01*
X159660318Y-105296135D01*
X159571645Y-105360560D01*
X159504898Y-105409055D01*
X159504896Y-105409057D01*
X159504895Y-105409057D01*
X159369057Y-105544895D01*
X159369057Y-105544896D01*
X159369055Y-105544898D01*
X159349271Y-105572129D01*
X159256135Y-105700318D01*
X159168916Y-105871493D01*
X159147931Y-105936081D01*
X159108494Y-105993756D01*
X159044135Y-106020955D01*
X158975289Y-106009041D01*
X158923813Y-105961797D01*
X158912069Y-105936081D01*
X158891083Y-105871493D01*
X158879455Y-105848672D01*
X158803865Y-105700319D01*
X158690945Y-105544898D01*
X158555102Y-105409055D01*
X158399681Y-105296135D01*
X158272770Y-105231470D01*
X158228506Y-105208916D01*
X158045802Y-105149553D01*
X157950928Y-105134526D01*
X157856055Y-105119500D01*
X157663945Y-105119500D01*
X157600696Y-105129517D01*
X157474197Y-105149553D01*
X157291493Y-105208916D01*
X157120318Y-105296135D01*
X157031645Y-105360560D01*
X156964898Y-105409055D01*
X156964896Y-105409057D01*
X156964895Y-105409057D01*
X156829057Y-105544895D01*
X156829057Y-105544896D01*
X156829055Y-105544898D01*
X156809271Y-105572129D01*
X156716135Y-105700318D01*
X156628916Y-105871493D01*
X156607931Y-105936081D01*
X156568494Y-105993756D01*
X156504135Y-106020955D01*
X156435289Y-106009041D01*
X156383813Y-105961797D01*
X156372069Y-105936081D01*
X156351083Y-105871493D01*
X156339455Y-105848672D01*
X156263865Y-105700319D01*
X156150945Y-105544898D01*
X156015102Y-105409055D01*
X155859681Y-105296135D01*
X155732770Y-105231470D01*
X155688506Y-105208916D01*
X155505802Y-105149553D01*
X155410928Y-105134526D01*
X155316055Y-105119500D01*
X155123945Y-105119500D01*
X155060696Y-105129517D01*
X154934197Y-105149553D01*
X154751493Y-105208916D01*
X154580318Y-105296135D01*
X154491645Y-105360560D01*
X154424898Y-105409055D01*
X154424896Y-105409057D01*
X154424895Y-105409057D01*
X154289057Y-105544895D01*
X154289057Y-105544896D01*
X154289055Y-105544898D01*
X154269271Y-105572129D01*
X154176135Y-105700318D01*
X154088916Y-105871493D01*
X154067931Y-105936081D01*
X154028494Y-105993756D01*
X153964135Y-106020955D01*
X153895289Y-106009041D01*
X153843813Y-105961797D01*
X153832069Y-105936081D01*
X153811083Y-105871493D01*
X153799455Y-105848672D01*
X153723865Y-105700319D01*
X153610945Y-105544898D01*
X153475102Y-105409055D01*
X153319681Y-105296135D01*
X153192770Y-105231470D01*
X153148506Y-105208916D01*
X152965802Y-105149553D01*
X152870928Y-105134526D01*
X152776055Y-105119500D01*
X152583945Y-105119500D01*
X152520696Y-105129517D01*
X152394197Y-105149553D01*
X152211493Y-105208916D01*
X152040318Y-105296135D01*
X151951645Y-105360560D01*
X151884898Y-105409055D01*
X151884896Y-105409057D01*
X151884895Y-105409057D01*
X151749057Y-105544895D01*
X151749057Y-105544896D01*
X151749055Y-105544898D01*
X151736250Y-105562523D01*
X151636133Y-105700320D01*
X151594983Y-105781082D01*
X151547009Y-105831877D01*
X151479187Y-105848672D01*
X151413053Y-105826134D01*
X151369602Y-105771419D01*
X151360499Y-105724786D01*
X151360499Y-105572129D01*
X151360498Y-105572123D01*
X151360497Y-105572116D01*
X151354091Y-105512517D01*
X151316677Y-105412206D01*
X151303797Y-105377671D01*
X151303793Y-105377664D01*
X151217547Y-105262455D01*
X151217544Y-105262452D01*
X151102335Y-105176206D01*
X151102328Y-105176202D01*
X150967482Y-105125908D01*
X150967483Y-105125908D01*
X150907883Y-105119501D01*
X150907881Y-105119500D01*
X150907873Y-105119500D01*
X150907864Y-105119500D01*
X149372129Y-105119500D01*
X149372123Y-105119501D01*
X149312516Y-105125908D01*
X149177671Y-105176202D01*
X149177664Y-105176206D01*
X149062455Y-105262452D01*
X149062452Y-105262455D01*
X148976206Y-105377664D01*
X148976202Y-105377671D01*
X148925908Y-105512517D01*
X148919501Y-105572116D01*
X148919501Y-105572123D01*
X148919500Y-105572135D01*
X148919500Y-107667870D01*
X148919501Y-107667876D01*
X148925908Y-107727483D01*
X148976202Y-107862328D01*
X148976204Y-107862331D01*
X149045483Y-107954875D01*
X149069900Y-108020337D01*
X149055049Y-108088610D01*
X149033897Y-108116866D01*
X142573091Y-114577673D01*
X142461286Y-114689477D01*
X142461285Y-114689479D01*
X142417229Y-114765787D01*
X142382228Y-114826410D01*
X142341304Y-114979138D01*
X142341304Y-114979140D01*
X142341304Y-115147241D01*
X142341305Y-115147254D01*
X142341305Y-135510318D01*
X142321620Y-135577357D01*
X142268816Y-135623112D01*
X142217306Y-135634318D01*
X142043935Y-135634318D01*
X142043928Y-135634319D01*
X141984321Y-135640726D01*
X141849476Y-135691020D01*
X141849469Y-135691024D01*
X141734260Y-135777270D01*
X141734257Y-135777273D01*
X141648011Y-135892482D01*
X141648007Y-135892489D01*
X141597713Y-136027335D01*
X141591306Y-136086934D01*
X141591305Y-136086953D01*
X141591305Y-137882688D01*
X141591306Y-137882694D01*
X141597713Y-137942301D01*
X141648007Y-138077146D01*
X141648011Y-138077153D01*
X141734257Y-138192362D01*
X141734260Y-138192365D01*
X141849469Y-138278611D01*
X141849476Y-138278615D01*
X141984322Y-138328909D01*
X141984321Y-138328909D01*
X141991249Y-138329653D01*
X142043932Y-138335318D01*
X143839677Y-138335317D01*
X143899288Y-138328909D01*
X144034136Y-138278614D01*
X144149351Y-138192364D01*
X144235601Y-138077149D01*
X144284615Y-137945734D01*
X144326486Y-137889802D01*
X144391950Y-137865384D01*
X144460223Y-137880235D01*
X144488478Y-137901387D01*
X144602018Y-138014927D01*
X144773984Y-138139866D01*
X144773986Y-138139867D01*
X144773989Y-138139869D01*
X144963393Y-138236375D01*
X145165562Y-138302064D01*
X145375518Y-138335318D01*
X145375519Y-138335318D01*
X145588091Y-138335318D01*
X145588092Y-138335318D01*
X145798048Y-138302064D01*
X146000217Y-138236375D01*
X146189621Y-138139869D01*
X146275943Y-138077153D01*
X146361591Y-138014927D01*
X146361593Y-138014924D01*
X146361597Y-138014922D01*
X146511909Y-137864610D01*
X146511911Y-137864606D01*
X146511914Y-137864604D01*
X146636853Y-137692638D01*
X146636852Y-137692638D01*
X146636856Y-137692634D01*
X146641319Y-137683872D01*
X146689293Y-137633077D01*
X146757113Y-137616281D01*
X146823249Y-137638817D01*
X146862291Y-137683874D01*
X146866756Y-137692638D01*
X146991695Y-137864604D01*
X147142018Y-138014927D01*
X147313984Y-138139866D01*
X147313986Y-138139867D01*
X147313989Y-138139869D01*
X147503393Y-138236375D01*
X147705562Y-138302064D01*
X147915518Y-138335318D01*
X147915519Y-138335318D01*
X148128091Y-138335318D01*
X148128092Y-138335318D01*
X148338048Y-138302064D01*
X148540217Y-138236375D01*
X148729621Y-138139869D01*
X148815943Y-138077153D01*
X148901591Y-138014927D01*
X148901593Y-138014924D01*
X148901597Y-138014922D01*
X149051909Y-137864610D01*
X149051911Y-137864606D01*
X149051914Y-137864604D01*
X149176853Y-137692638D01*
X149176852Y-137692638D01*
X149176856Y-137692634D01*
X149181319Y-137683872D01*
X149229293Y-137633077D01*
X149297113Y-137616281D01*
X149363249Y-137638817D01*
X149402291Y-137683874D01*
X149406756Y-137692638D01*
X149531695Y-137864604D01*
X149682018Y-138014927D01*
X149853984Y-138139866D01*
X149853986Y-138139867D01*
X149853989Y-138139869D01*
X150043393Y-138236375D01*
X150245562Y-138302064D01*
X150455518Y-138335318D01*
X150455519Y-138335318D01*
X150668091Y-138335318D01*
X150668092Y-138335318D01*
X150878048Y-138302064D01*
X151080217Y-138236375D01*
X151269621Y-138139869D01*
X151355943Y-138077153D01*
X151441591Y-138014927D01*
X151441593Y-138014924D01*
X151441597Y-138014922D01*
X151591909Y-137864610D01*
X151591911Y-137864606D01*
X151591914Y-137864604D01*
X151716853Y-137692638D01*
X151716852Y-137692638D01*
X151716856Y-137692634D01*
X151721319Y-137683872D01*
X151769293Y-137633077D01*
X151837113Y-137616281D01*
X151903249Y-137638817D01*
X151942291Y-137683874D01*
X151946756Y-137692638D01*
X152071695Y-137864604D01*
X152222018Y-138014927D01*
X152393984Y-138139866D01*
X152393986Y-138139867D01*
X152393989Y-138139869D01*
X152583393Y-138236375D01*
X152785562Y-138302064D01*
X152995518Y-138335318D01*
X152995519Y-138335318D01*
X153208091Y-138335318D01*
X153208092Y-138335318D01*
X153418048Y-138302064D01*
X153620217Y-138236375D01*
X153809621Y-138139869D01*
X153895943Y-138077153D01*
X153981591Y-138014927D01*
X153981593Y-138014924D01*
X153981597Y-138014922D01*
X154131909Y-137864610D01*
X154131911Y-137864606D01*
X154131914Y-137864604D01*
X154256853Y-137692638D01*
X154256852Y-137692638D01*
X154256856Y-137692634D01*
X154261319Y-137683872D01*
X154309293Y-137633077D01*
X154377113Y-137616281D01*
X154443249Y-137638817D01*
X154482291Y-137683874D01*
X154486756Y-137692638D01*
X154611695Y-137864604D01*
X154762018Y-138014927D01*
X154933984Y-138139866D01*
X154933986Y-138139867D01*
X154933989Y-138139869D01*
X155123393Y-138236375D01*
X155325562Y-138302064D01*
X155535518Y-138335318D01*
X155535519Y-138335318D01*
X155748091Y-138335318D01*
X155748092Y-138335318D01*
X155958048Y-138302064D01*
X156160217Y-138236375D01*
X156349621Y-138139869D01*
X156435943Y-138077153D01*
X156521591Y-138014927D01*
X156521593Y-138014924D01*
X156521597Y-138014922D01*
X156671909Y-137864610D01*
X156671911Y-137864606D01*
X156671914Y-137864604D01*
X156796853Y-137692638D01*
X156796852Y-137692638D01*
X156796856Y-137692634D01*
X156801319Y-137683872D01*
X156849293Y-137633077D01*
X156917113Y-137616281D01*
X156983249Y-137638817D01*
X157022291Y-137683874D01*
X157026756Y-137692638D01*
X157151695Y-137864604D01*
X157302018Y-138014927D01*
X157473984Y-138139866D01*
X157473986Y-138139867D01*
X157473989Y-138139869D01*
X157663393Y-138236375D01*
X157865562Y-138302064D01*
X158075518Y-138335318D01*
X158075519Y-138335318D01*
X158288091Y-138335318D01*
X158288092Y-138335318D01*
X158498048Y-138302064D01*
X158700217Y-138236375D01*
X158889621Y-138139869D01*
X158975943Y-138077153D01*
X159061591Y-138014927D01*
X159061593Y-138014924D01*
X159061597Y-138014922D01*
X159211909Y-137864610D01*
X159211911Y-137864606D01*
X159211914Y-137864604D01*
X159336853Y-137692638D01*
X159336852Y-137692638D01*
X159336856Y-137692634D01*
X159341319Y-137683872D01*
X159389293Y-137633077D01*
X159457113Y-137616281D01*
X159523249Y-137638817D01*
X159562291Y-137683874D01*
X159566756Y-137692638D01*
X159691695Y-137864604D01*
X159842018Y-138014927D01*
X160013984Y-138139866D01*
X160013986Y-138139867D01*
X160013989Y-138139869D01*
X160203393Y-138236375D01*
X160405562Y-138302064D01*
X160615518Y-138335318D01*
X160615519Y-138335318D01*
X160828091Y-138335318D01*
X160828092Y-138335318D01*
X161038048Y-138302064D01*
X161240217Y-138236375D01*
X161429621Y-138139869D01*
X161515943Y-138077153D01*
X161601591Y-138014927D01*
X161601593Y-138014924D01*
X161601597Y-138014922D01*
X161751909Y-137864610D01*
X161751911Y-137864606D01*
X161751914Y-137864604D01*
X161876853Y-137692638D01*
X161876852Y-137692638D01*
X161876856Y-137692634D01*
X161881319Y-137683872D01*
X161929293Y-137633077D01*
X161997113Y-137616281D01*
X162063249Y-137638817D01*
X162102291Y-137683874D01*
X162106756Y-137692638D01*
X162231695Y-137864604D01*
X162382018Y-138014927D01*
X162553984Y-138139866D01*
X162553986Y-138139867D01*
X162553989Y-138139869D01*
X162743393Y-138236375D01*
X162945562Y-138302064D01*
X163155518Y-138335318D01*
X163155519Y-138335318D01*
X163368091Y-138335318D01*
X163368092Y-138335318D01*
X163578048Y-138302064D01*
X163780217Y-138236375D01*
X163969621Y-138139869D01*
X164055943Y-138077153D01*
X164141591Y-138014927D01*
X164141593Y-138014924D01*
X164141597Y-138014922D01*
X164291909Y-137864610D01*
X164291911Y-137864606D01*
X164291914Y-137864604D01*
X164416853Y-137692638D01*
X164416852Y-137692638D01*
X164416856Y-137692634D01*
X164421319Y-137683872D01*
X164469293Y-137633077D01*
X164537113Y-137616281D01*
X164603249Y-137638817D01*
X164642291Y-137683874D01*
X164646756Y-137692638D01*
X164771695Y-137864604D01*
X164922018Y-138014927D01*
X165093984Y-138139866D01*
X165093986Y-138139867D01*
X165093989Y-138139869D01*
X165283393Y-138236375D01*
X165485562Y-138302064D01*
X165695518Y-138335318D01*
X165695519Y-138335318D01*
X165908091Y-138335318D01*
X165908092Y-138335318D01*
X166118048Y-138302064D01*
X166320217Y-138236375D01*
X166509621Y-138139869D01*
X166595943Y-138077153D01*
X166681591Y-138014927D01*
X166681593Y-138014924D01*
X166681597Y-138014922D01*
X166831909Y-137864610D01*
X166831911Y-137864606D01*
X166831914Y-137864604D01*
X166956853Y-137692638D01*
X166956852Y-137692638D01*
X166956856Y-137692634D01*
X166961319Y-137683872D01*
X167009293Y-137633077D01*
X167077113Y-137616281D01*
X167143249Y-137638817D01*
X167182291Y-137683874D01*
X167186756Y-137692638D01*
X167311695Y-137864604D01*
X167462018Y-138014927D01*
X167633984Y-138139866D01*
X167633986Y-138139867D01*
X167633989Y-138139869D01*
X167823393Y-138236375D01*
X168025562Y-138302064D01*
X168235518Y-138335318D01*
X168235519Y-138335318D01*
X168448091Y-138335318D01*
X168448092Y-138335318D01*
X168658048Y-138302064D01*
X168860217Y-138236375D01*
X169049621Y-138139869D01*
X169135943Y-138077153D01*
X169221591Y-138014927D01*
X169221593Y-138014924D01*
X169221597Y-138014922D01*
X169371909Y-137864610D01*
X169371911Y-137864606D01*
X169371914Y-137864604D01*
X169496853Y-137692638D01*
X169496852Y-137692638D01*
X169496856Y-137692634D01*
X169501319Y-137683872D01*
X169549293Y-137633077D01*
X169617113Y-137616281D01*
X169683249Y-137638817D01*
X169722291Y-137683874D01*
X169726756Y-137692638D01*
X169851695Y-137864604D01*
X170002018Y-138014927D01*
X170173984Y-138139866D01*
X170173986Y-138139867D01*
X170173989Y-138139869D01*
X170363393Y-138236375D01*
X170565562Y-138302064D01*
X170775518Y-138335318D01*
X170775519Y-138335318D01*
X170988091Y-138335318D01*
X170988092Y-138335318D01*
X171198048Y-138302064D01*
X171400217Y-138236375D01*
X171589621Y-138139869D01*
X171675943Y-138077153D01*
X171761591Y-138014927D01*
X171761593Y-138014924D01*
X171761597Y-138014922D01*
X171911909Y-137864610D01*
X171911911Y-137864606D01*
X171911914Y-137864604D01*
X172036853Y-137692638D01*
X172036852Y-137692638D01*
X172036856Y-137692634D01*
X172041319Y-137683872D01*
X172089293Y-137633077D01*
X172157113Y-137616281D01*
X172223249Y-137638817D01*
X172262291Y-137683874D01*
X172266756Y-137692638D01*
X172391695Y-137864604D01*
X172542018Y-138014927D01*
X172713984Y-138139866D01*
X172713986Y-138139867D01*
X172713989Y-138139869D01*
X172903393Y-138236375D01*
X173105562Y-138302064D01*
X173315518Y-138335318D01*
X173315519Y-138335318D01*
X173528091Y-138335318D01*
X173528092Y-138335318D01*
X173738048Y-138302064D01*
X173940217Y-138236375D01*
X174129621Y-138139869D01*
X174215943Y-138077153D01*
X174301591Y-138014927D01*
X174301593Y-138014924D01*
X174301597Y-138014922D01*
X174451909Y-137864610D01*
X174451911Y-137864606D01*
X174451914Y-137864604D01*
X174576853Y-137692638D01*
X174576852Y-137692638D01*
X174576856Y-137692634D01*
X174581319Y-137683872D01*
X174629293Y-137633077D01*
X174697113Y-137616281D01*
X174763249Y-137638817D01*
X174802291Y-137683874D01*
X174806756Y-137692638D01*
X174931695Y-137864604D01*
X175082018Y-138014927D01*
X175253984Y-138139866D01*
X175253986Y-138139867D01*
X175253989Y-138139869D01*
X175443393Y-138236375D01*
X175645562Y-138302064D01*
X175855518Y-138335318D01*
X175855519Y-138335318D01*
X176068091Y-138335318D01*
X176068092Y-138335318D01*
X176278048Y-138302064D01*
X176480217Y-138236375D01*
X176669621Y-138139869D01*
X176755943Y-138077153D01*
X176841591Y-138014927D01*
X176841593Y-138014924D01*
X176841597Y-138014922D01*
X176991909Y-137864610D01*
X176991911Y-137864606D01*
X176991914Y-137864604D01*
X177116853Y-137692638D01*
X177116852Y-137692638D01*
X177116856Y-137692634D01*
X177121319Y-137683872D01*
X177169293Y-137633077D01*
X177237113Y-137616281D01*
X177303249Y-137638817D01*
X177342291Y-137683874D01*
X177346756Y-137692638D01*
X177471695Y-137864604D01*
X177622018Y-138014927D01*
X177793984Y-138139866D01*
X177793986Y-138139867D01*
X177793989Y-138139869D01*
X177983393Y-138236375D01*
X178185562Y-138302064D01*
X178395518Y-138335318D01*
X178395519Y-138335318D01*
X178608091Y-138335318D01*
X178608092Y-138335318D01*
X178818048Y-138302064D01*
X179020217Y-138236375D01*
X179209621Y-138139869D01*
X179295943Y-138077153D01*
X179381591Y-138014927D01*
X179381593Y-138014924D01*
X179381597Y-138014922D01*
X179531909Y-137864610D01*
X179531911Y-137864606D01*
X179531914Y-137864604D01*
X179656853Y-137692638D01*
X179656852Y-137692638D01*
X179656856Y-137692634D01*
X179661319Y-137683872D01*
X179709293Y-137633077D01*
X179777113Y-137616281D01*
X179843249Y-137638817D01*
X179882291Y-137683874D01*
X179886756Y-137692638D01*
X180011695Y-137864604D01*
X180162018Y-138014927D01*
X180333984Y-138139866D01*
X180333986Y-138139867D01*
X180333989Y-138139869D01*
X180523393Y-138236375D01*
X180725562Y-138302064D01*
X180935518Y-138335318D01*
X180935519Y-138335318D01*
X181148091Y-138335318D01*
X181148092Y-138335318D01*
X181358048Y-138302064D01*
X181560217Y-138236375D01*
X181749621Y-138139869D01*
X181835943Y-138077153D01*
X181921591Y-138014927D01*
X181921593Y-138014924D01*
X181921597Y-138014922D01*
X182071909Y-137864610D01*
X182071911Y-137864606D01*
X182071914Y-137864604D01*
X182196853Y-137692638D01*
X182196852Y-137692638D01*
X182196856Y-137692634D01*
X182293362Y-137503230D01*
X182359051Y-137301061D01*
X182392305Y-137091105D01*
X182392305Y-136878531D01*
X182359051Y-136668575D01*
X182293362Y-136466406D01*
X182196856Y-136277002D01*
X182196854Y-136276999D01*
X182196853Y-136276997D01*
X182071914Y-136105031D01*
X181921591Y-135954708D01*
X181749620Y-135829766D01*
X181749619Y-135829765D01*
X181710010Y-135809583D01*
X181659214Y-135761609D01*
X181642305Y-135699099D01*
X181642305Y-133686722D01*
X181661990Y-133619683D01*
X181678623Y-133599042D01*
X181751272Y-133526391D01*
X181751276Y-133526388D01*
X181768715Y-133508949D01*
X181768716Y-133508949D01*
X181880520Y-133397145D01*
X181880521Y-133397143D01*
X181887572Y-133390092D01*
X181887594Y-133390065D01*
X182268714Y-133008946D01*
X182268716Y-133008945D01*
X182380520Y-132897141D01*
X182459577Y-132760209D01*
X182500500Y-132607482D01*
X182500499Y-125510320D01*
X184699500Y-125510320D01*
X184699500Y-125752897D01*
X184731161Y-125993394D01*
X184793947Y-126227713D01*
X184886773Y-126451814D01*
X184886776Y-126451821D01*
X185008064Y-126661898D01*
X185008066Y-126661901D01*
X185008067Y-126661902D01*
X185155733Y-126854345D01*
X185155739Y-126854352D01*
X185327256Y-127025869D01*
X185327262Y-127025874D01*
X185519711Y-127173545D01*
X185729788Y-127294833D01*
X185953900Y-127387663D01*
X186188211Y-127450447D01*
X186368586Y-127474193D01*
X186428711Y-127482109D01*
X186428712Y-127482109D01*
X186671289Y-127482109D01*
X186719388Y-127475776D01*
X186911789Y-127450447D01*
X187146100Y-127387663D01*
X187370212Y-127294833D01*
X187580289Y-127173545D01*
X187772738Y-127025874D01*
X187944265Y-126854347D01*
X188091936Y-126661898D01*
X188213224Y-126451821D01*
X188306054Y-126227709D01*
X188368838Y-125993398D01*
X188400500Y-125752897D01*
X188400500Y-125510321D01*
X188399075Y-125499500D01*
X188380116Y-125355485D01*
X188368838Y-125269820D01*
X188306054Y-125035509D01*
X188213224Y-124811397D01*
X188091936Y-124601320D01*
X187944265Y-124408871D01*
X187944260Y-124408865D01*
X187772743Y-124237348D01*
X187772736Y-124237342D01*
X187580293Y-124089676D01*
X187580292Y-124089675D01*
X187580289Y-124089673D01*
X187370212Y-123968385D01*
X187370205Y-123968382D01*
X187146104Y-123875556D01*
X186911785Y-123812770D01*
X186671289Y-123781109D01*
X186671288Y-123781109D01*
X186428712Y-123781109D01*
X186428711Y-123781109D01*
X186188214Y-123812770D01*
X185953895Y-123875556D01*
X185729794Y-123968382D01*
X185729785Y-123968386D01*
X185519706Y-124089676D01*
X185327263Y-124237342D01*
X185327256Y-124237348D01*
X185155739Y-124408865D01*
X185155733Y-124408872D01*
X185008067Y-124601315D01*
X184886777Y-124811394D01*
X184886773Y-124811403D01*
X184793947Y-125035504D01*
X184731161Y-125269823D01*
X184699500Y-125510320D01*
X182500499Y-125510320D01*
X182500498Y-111424422D01*
X182520183Y-111357384D01*
X182572987Y-111311629D01*
X182642145Y-111301685D01*
X182671950Y-111309862D01*
X182737031Y-111336819D01*
X182816503Y-111369737D01*
X182971153Y-111400499D01*
X182971156Y-111400500D01*
X182971158Y-111400500D01*
X183128844Y-111400500D01*
X183128845Y-111400499D01*
X183283497Y-111369737D01*
X183429179Y-111309394D01*
X183560289Y-111221789D01*
X183671789Y-111110289D01*
X183759394Y-110979179D01*
X183819737Y-110833497D01*
X183850500Y-110678842D01*
X183850500Y-110521158D01*
X183850500Y-110521155D01*
X183850499Y-110521153D01*
X183826781Y-110401915D01*
X183819737Y-110366503D01*
X183784296Y-110280939D01*
X183759397Y-110220827D01*
X183759390Y-110220814D01*
X183671398Y-110089125D01*
X183650520Y-110022447D01*
X183650500Y-110020234D01*
X183650500Y-61654142D01*
X185373627Y-61654142D01*
X185373627Y-61896719D01*
X185400222Y-62098736D01*
X185405289Y-62137220D01*
X185436681Y-62254375D01*
X185468074Y-62371535D01*
X185521286Y-62500000D01*
X185560903Y-62595643D01*
X185682191Y-62805720D01*
X185682193Y-62805723D01*
X185682194Y-62805724D01*
X185829860Y-62998167D01*
X185829866Y-62998174D01*
X186001383Y-63169691D01*
X186001390Y-63169697D01*
X186071651Y-63223610D01*
X186193838Y-63317367D01*
X186403915Y-63438655D01*
X186628027Y-63531485D01*
X186862338Y-63594269D01*
X187042713Y-63618015D01*
X187102838Y-63625931D01*
X187102839Y-63625931D01*
X187345416Y-63625931D01*
X187393515Y-63619598D01*
X187585916Y-63594269D01*
X187820227Y-63531485D01*
X188044339Y-63438655D01*
X188254416Y-63317367D01*
X188446865Y-63169696D01*
X188618392Y-62998169D01*
X188766063Y-62805720D01*
X188887351Y-62595643D01*
X188980181Y-62371531D01*
X189042965Y-62137220D01*
X189074627Y-61896719D01*
X189074627Y-61654143D01*
X189070159Y-61620208D01*
X189062727Y-61563749D01*
X189042965Y-61413642D01*
X188980181Y-61179331D01*
X188887351Y-60955219D01*
X188766063Y-60745142D01*
X188618392Y-60552693D01*
X188618387Y-60552687D01*
X188446870Y-60381170D01*
X188446863Y-60381164D01*
X188254420Y-60233498D01*
X188254419Y-60233497D01*
X188254416Y-60233495D01*
X188044339Y-60112207D01*
X188044332Y-60112204D01*
X187820231Y-60019378D01*
X187585912Y-59956592D01*
X187345416Y-59924931D01*
X187345415Y-59924931D01*
X187102839Y-59924931D01*
X187102838Y-59924931D01*
X186862341Y-59956592D01*
X186628022Y-60019378D01*
X186403921Y-60112204D01*
X186403912Y-60112208D01*
X186193833Y-60233498D01*
X186001390Y-60381164D01*
X186001383Y-60381170D01*
X185829866Y-60552687D01*
X185829860Y-60552694D01*
X185682194Y-60745137D01*
X185560904Y-60955216D01*
X185560900Y-60955225D01*
X185468074Y-61179326D01*
X185405288Y-61413645D01*
X185373627Y-61654142D01*
X183650500Y-61654142D01*
X183650500Y-48139060D01*
X183650501Y-48139047D01*
X183650501Y-47970944D01*
X183650501Y-47970943D01*
X183609577Y-47818216D01*
X183558126Y-47729099D01*
X183530524Y-47681290D01*
X183530518Y-47681282D01*
X182537590Y-46688355D01*
X182537588Y-46688352D01*
X182418717Y-46569481D01*
X182418716Y-46569480D01*
X182331904Y-46519360D01*
X182331904Y-46519359D01*
X182331900Y-46519358D01*
X182281785Y-46490423D01*
X182129057Y-46449499D01*
X181970943Y-46449499D01*
X181963347Y-46449499D01*
X181963331Y-46449500D01*
X151759057Y-46449500D01*
X151600943Y-46449500D01*
X151448215Y-46490423D01*
X151448214Y-46490423D01*
X151448212Y-46490424D01*
X151448209Y-46490425D01*
X151398096Y-46519359D01*
X151398095Y-46519360D01*
X151354689Y-46544420D01*
X151311285Y-46569479D01*
X151311282Y-46569481D01*
X151199478Y-46681286D01*
X148464522Y-49416241D01*
X148403199Y-49449726D01*
X148338523Y-49446491D01*
X148296245Y-49432754D01*
X148156272Y-49410584D01*
X148086287Y-49399500D01*
X147873713Y-49399500D01*
X147825042Y-49407208D01*
X147663760Y-49432753D01*
X147461585Y-49498444D01*
X147272179Y-49594951D01*
X147100213Y-49719890D01*
X146949890Y-49870213D01*
X146824949Y-50042182D01*
X146820484Y-50050946D01*
X146772509Y-50101742D01*
X146704688Y-50118536D01*
X146638553Y-50095998D01*
X146599516Y-50050946D01*
X146595050Y-50042182D01*
X146470109Y-49870213D01*
X146319786Y-49719890D01*
X146147820Y-49594951D01*
X145958414Y-49498444D01*
X145958413Y-49498443D01*
X145958412Y-49498443D01*
X145756243Y-49432754D01*
X145756241Y-49432753D01*
X145756240Y-49432753D01*
X145594957Y-49407208D01*
X145546287Y-49399500D01*
X145333713Y-49399500D01*
X145285042Y-49407208D01*
X145123760Y-49432753D01*
X144921585Y-49498444D01*
X144732179Y-49594951D01*
X144560213Y-49719890D01*
X144409890Y-49870213D01*
X144284949Y-50042182D01*
X144280484Y-50050946D01*
X144232509Y-50101742D01*
X144164688Y-50118536D01*
X144098553Y-50095998D01*
X144059516Y-50050946D01*
X144055050Y-50042182D01*
X143930109Y-49870213D01*
X143779786Y-49719890D01*
X143607820Y-49594951D01*
X143418414Y-49498444D01*
X143418413Y-49498443D01*
X143418412Y-49498443D01*
X143216243Y-49432754D01*
X143216241Y-49432753D01*
X143216240Y-49432753D01*
X143054957Y-49407208D01*
X143006287Y-49399500D01*
X142793713Y-49399500D01*
X142745042Y-49407208D01*
X142583760Y-49432753D01*
X142381585Y-49498444D01*
X142192179Y-49594951D01*
X142020213Y-49719890D01*
X141869890Y-49870213D01*
X141744951Y-50042179D01*
X141648444Y-50231585D01*
X141582753Y-50433760D01*
X141555488Y-50605908D01*
X141549500Y-50643713D01*
X141549500Y-50856287D01*
X141554478Y-50887715D01*
X141580518Y-51052129D01*
X141582754Y-51066243D01*
X141621572Y-51185713D01*
X141648444Y-51268414D01*
X141744951Y-51457820D01*
X141869890Y-51629786D01*
X142020213Y-51780109D01*
X142192179Y-51905048D01*
X142192181Y-51905049D01*
X142192184Y-51905051D01*
X142381588Y-52001557D01*
X142583757Y-52067246D01*
X142793713Y-52100500D01*
X142793714Y-52100500D01*
X143006286Y-52100500D01*
X143006287Y-52100500D01*
X143216243Y-52067246D01*
X143418412Y-52001557D01*
X143607816Y-51905051D01*
X143694138Y-51842335D01*
X143779786Y-51780109D01*
X143779788Y-51780106D01*
X143779792Y-51780104D01*
X143930104Y-51629792D01*
X143930106Y-51629788D01*
X143930109Y-51629786D01*
X144055048Y-51457820D01*
X144055047Y-51457820D01*
X144055051Y-51457816D01*
X144059514Y-51449054D01*
X144107488Y-51398259D01*
X144175308Y-51381463D01*
X144241444Y-51403999D01*
X144280486Y-51449056D01*
X144284951Y-51457820D01*
X144409890Y-51629786D01*
X144560213Y-51780109D01*
X144732179Y-51905048D01*
X144732181Y-51905049D01*
X144732184Y-51905051D01*
X144921588Y-52001557D01*
X145123757Y-52067246D01*
X145333713Y-52100500D01*
X145333714Y-52100500D01*
X145546286Y-52100500D01*
X145546287Y-52100500D01*
X145756243Y-52067246D01*
X145958412Y-52001557D01*
X146147816Y-51905051D01*
X146234138Y-51842335D01*
X146319786Y-51780109D01*
X146319788Y-51780106D01*
X146319792Y-51780104D01*
X146470104Y-51629792D01*
X146470106Y-51629788D01*
X146470109Y-51629786D01*
X146595048Y-51457820D01*
X146595047Y-51457820D01*
X146595051Y-51457816D01*
X146599514Y-51449054D01*
X146647488Y-51398259D01*
X146715308Y-51381463D01*
X146781444Y-51403999D01*
X146820486Y-51449056D01*
X146824951Y-51457820D01*
X146949890Y-51629786D01*
X147100213Y-51780109D01*
X147272179Y-51905048D01*
X147272181Y-51905049D01*
X147272184Y-51905051D01*
X147461588Y-52001557D01*
X147663757Y-52067246D01*
X147873713Y-52100500D01*
X147873714Y-52100500D01*
X148086286Y-52100500D01*
X148086287Y-52100500D01*
X148296243Y-52067246D01*
X148498412Y-52001557D01*
X148687816Y-51905051D01*
X148774138Y-51842335D01*
X148859786Y-51780109D01*
X148859788Y-51780106D01*
X148859792Y-51780104D01*
X149010104Y-51629792D01*
X149010106Y-51629788D01*
X149010109Y-51629786D01*
X149135048Y-51457820D01*
X149135047Y-51457820D01*
X149135051Y-51457816D01*
X149139514Y-51449054D01*
X149187488Y-51398259D01*
X149255308Y-51381463D01*
X149321444Y-51403999D01*
X149360486Y-51449056D01*
X149364951Y-51457820D01*
X149489890Y-51629786D01*
X149640213Y-51780109D01*
X149812179Y-51905048D01*
X149812181Y-51905049D01*
X149812184Y-51905051D01*
X150001588Y-52001557D01*
X150203757Y-52067246D01*
X150413713Y-52100500D01*
X150413714Y-52100500D01*
X150626286Y-52100500D01*
X150626287Y-52100500D01*
X150836243Y-52067246D01*
X151038412Y-52001557D01*
X151227816Y-51905051D01*
X151314138Y-51842335D01*
X151399786Y-51780109D01*
X151399788Y-51780106D01*
X151399792Y-51780104D01*
X151550104Y-51629792D01*
X151550106Y-51629788D01*
X151550109Y-51629786D01*
X151675048Y-51457820D01*
X151675047Y-51457820D01*
X151675051Y-51457816D01*
X151679514Y-51449054D01*
X151727488Y-51398259D01*
X151795308Y-51381463D01*
X151861444Y-51403999D01*
X151900486Y-51449056D01*
X151904951Y-51457820D01*
X152029890Y-51629786D01*
X152180213Y-51780109D01*
X152352179Y-51905048D01*
X152352181Y-51905049D01*
X152352184Y-51905051D01*
X152541588Y-52001557D01*
X152743757Y-52067246D01*
X152953713Y-52100500D01*
X152953714Y-52100500D01*
X153100902Y-52100500D01*
X153167941Y-52120185D01*
X153213696Y-52172989D01*
X153223640Y-52242147D01*
X153194615Y-52305703D01*
X153188583Y-52312181D01*
X140739481Y-64761282D01*
X140739479Y-64761285D01*
X140689361Y-64848094D01*
X140689359Y-64848096D01*
X140660425Y-64898209D01*
X140660424Y-64898210D01*
X140660423Y-64898215D01*
X140619499Y-65050943D01*
X140619499Y-65050945D01*
X140619499Y-65219046D01*
X140619500Y-65219059D01*
X140619500Y-70216121D01*
X140599815Y-70283160D01*
X140551796Y-70326605D01*
X140453569Y-70376655D01*
X140396783Y-70417913D01*
X140262490Y-70515483D01*
X140262488Y-70515485D01*
X140262487Y-70515485D01*
X140095485Y-70682487D01*
X140095485Y-70682488D01*
X140095483Y-70682490D01*
X140048185Y-70747590D01*
X139956657Y-70873566D01*
X139849433Y-71084003D01*
X139776446Y-71308631D01*
X139739500Y-71541902D01*
X139739500Y-71778097D01*
X139776446Y-72011368D01*
X139849433Y-72235996D01*
X139956657Y-72446433D01*
X140095483Y-72637510D01*
X140262490Y-72804517D01*
X140453567Y-72943343D01*
X140552991Y-72994002D01*
X140664003Y-73050566D01*
X140664005Y-73050566D01*
X140664008Y-73050568D01*
X140784412Y-73089689D01*
X140888631Y-73123553D01*
X141121903Y-73160500D01*
X141121908Y-73160500D01*
X141358097Y-73160500D01*
X141591368Y-73123553D01*
X141815992Y-73050568D01*
X142026433Y-72943343D01*
X142217510Y-72804517D01*
X142384517Y-72637510D01*
X142523343Y-72446433D01*
X142630568Y-72235992D01*
X142703553Y-72011368D01*
X142728637Y-71852993D01*
X142740500Y-71778097D01*
X142740500Y-71541902D01*
X142703553Y-71308631D01*
X142630566Y-71084003D01*
X142523342Y-70873566D01*
X142384517Y-70682490D01*
X142217510Y-70515483D01*
X142026433Y-70376657D01*
X142026432Y-70376656D01*
X142026430Y-70376655D01*
X141888204Y-70306224D01*
X141837409Y-70258250D01*
X141820500Y-70195740D01*
X141820500Y-65430096D01*
X141840185Y-65363057D01*
X141856814Y-65342420D01*
X155115478Y-52083755D01*
X155176799Y-52050272D01*
X155241473Y-52053506D01*
X155283757Y-52067246D01*
X155493713Y-52100500D01*
X155493714Y-52100500D01*
X155706286Y-52100500D01*
X155706287Y-52100500D01*
X155916243Y-52067246D01*
X156118412Y-52001557D01*
X156307816Y-51905051D01*
X156394138Y-51842335D01*
X156479786Y-51780109D01*
X156479788Y-51780106D01*
X156479792Y-51780104D01*
X156630104Y-51629792D01*
X156630106Y-51629788D01*
X156630109Y-51629786D01*
X156755048Y-51457820D01*
X156755047Y-51457820D01*
X156755051Y-51457816D01*
X156759514Y-51449054D01*
X156807488Y-51398259D01*
X156875308Y-51381463D01*
X156941444Y-51403999D01*
X156980486Y-51449056D01*
X156984951Y-51457820D01*
X157109890Y-51629786D01*
X157260213Y-51780109D01*
X157432179Y-51905048D01*
X157432181Y-51905049D01*
X157432184Y-51905051D01*
X157621588Y-52001557D01*
X157823757Y-52067246D01*
X158033713Y-52100500D01*
X158033714Y-52100500D01*
X158246286Y-52100500D01*
X158246287Y-52100500D01*
X158456243Y-52067246D01*
X158658412Y-52001557D01*
X158847816Y-51905051D01*
X158934138Y-51842335D01*
X159019786Y-51780109D01*
X159019788Y-51780106D01*
X159019792Y-51780104D01*
X159170104Y-51629792D01*
X159170106Y-51629788D01*
X159170109Y-51629786D01*
X159295048Y-51457820D01*
X159295047Y-51457820D01*
X159295051Y-51457816D01*
X159299514Y-51449054D01*
X159347488Y-51398259D01*
X159415308Y-51381463D01*
X159481444Y-51403999D01*
X159520486Y-51449056D01*
X159524951Y-51457820D01*
X159649890Y-51629786D01*
X159800213Y-51780109D01*
X159972179Y-51905048D01*
X159972181Y-51905049D01*
X159972184Y-51905051D01*
X160161588Y-52001557D01*
X160363757Y-52067246D01*
X160573713Y-52100500D01*
X160573714Y-52100500D01*
X160720902Y-52100500D01*
X160787941Y-52120185D01*
X160833696Y-52172989D01*
X160843640Y-52242147D01*
X160814615Y-52305703D01*
X160808583Y-52312181D01*
X152319481Y-60801282D01*
X152319479Y-60801285D01*
X152269361Y-60888094D01*
X152269359Y-60888096D01*
X152240425Y-60938209D01*
X152240424Y-60938210D01*
X152235865Y-60955225D01*
X152199499Y-61090943D01*
X152199499Y-61090945D01*
X152199499Y-61259046D01*
X152199500Y-61259059D01*
X152199500Y-64634217D01*
X152179815Y-64701256D01*
X152163181Y-64721898D01*
X118521898Y-98363181D01*
X118460575Y-98396666D01*
X118434217Y-98399500D01*
X118341836Y-98399500D01*
X118274797Y-98379815D01*
X118231352Y-98331796D01*
X118197814Y-98265976D01*
X118068247Y-98087641D01*
X118068243Y-98087636D01*
X117912363Y-97931756D01*
X117912358Y-97931752D01*
X117734025Y-97802187D01*
X117734024Y-97802186D01*
X117734022Y-97802185D01*
X117660505Y-97764726D01*
X117537606Y-97702104D01*
X117537603Y-97702103D01*
X117327952Y-97633985D01*
X117185797Y-97611470D01*
X117110222Y-97599500D01*
X116889778Y-97599500D01*
X116817201Y-97610995D01*
X116672047Y-97633985D01*
X116462396Y-97702103D01*
X116462393Y-97702104D01*
X116265974Y-97802187D01*
X116087641Y-97931752D01*
X116087636Y-97931756D01*
X115931756Y-98087636D01*
X115931752Y-98087641D01*
X115802187Y-98265974D01*
X115702104Y-98462393D01*
X115702103Y-98462396D01*
X115633985Y-98672047D01*
X115599500Y-98889778D01*
X115599500Y-98999500D01*
X115579815Y-99066539D01*
X115527011Y-99112294D01*
X115475500Y-99123500D01*
X115365778Y-99123500D01*
X115293201Y-99134995D01*
X115148047Y-99157985D01*
X114938396Y-99226103D01*
X114938393Y-99226104D01*
X114741974Y-99326187D01*
X114563641Y-99455752D01*
X114563636Y-99455756D01*
X114407756Y-99611636D01*
X114407752Y-99611641D01*
X114278187Y-99789974D01*
X114178104Y-99986393D01*
X114178103Y-99986396D01*
X114109985Y-100196047D01*
X114075500Y-100413778D01*
X112000500Y-100413778D01*
X112000500Y-89901457D01*
X111981275Y-89804813D01*
X111981275Y-89804812D01*
X111962051Y-89708164D01*
X111939961Y-89654834D01*
X111920834Y-89608657D01*
X111886635Y-89526092D01*
X111886628Y-89526079D01*
X111777139Y-89362218D01*
X111777136Y-89362214D01*
X111634686Y-89219764D01*
X111634655Y-89219735D01*
X109281479Y-86866559D01*
X109281459Y-86866537D01*
X108972172Y-86557251D01*
X108938687Y-86495928D01*
X108943671Y-86426237D01*
X108972170Y-86381891D01*
X114100520Y-81253544D01*
X114179577Y-81116612D01*
X114220501Y-80963885D01*
X114220501Y-80805770D01*
X114220501Y-80798175D01*
X114220500Y-80798157D01*
X114220500Y-70612155D01*
X132140000Y-70612155D01*
X132140000Y-71410000D01*
X133206988Y-71410000D01*
X133174075Y-71467007D01*
X133140000Y-71594174D01*
X133140000Y-71725826D01*
X133174075Y-71852993D01*
X133206988Y-71910000D01*
X132140000Y-71910000D01*
X132140000Y-72707844D01*
X132146401Y-72767372D01*
X132146403Y-72767379D01*
X132196645Y-72902086D01*
X132196649Y-72902093D01*
X132282809Y-73017187D01*
X132282812Y-73017190D01*
X132397906Y-73103350D01*
X132397913Y-73103354D01*
X132532620Y-73153596D01*
X132532627Y-73153598D01*
X132592155Y-73159999D01*
X132592172Y-73160000D01*
X133390000Y-73160000D01*
X133390000Y-72093012D01*
X133447007Y-72125925D01*
X133574174Y-72160000D01*
X133705826Y-72160000D01*
X133832993Y-72125925D01*
X133890000Y-72093012D01*
X133890000Y-73160000D01*
X134687828Y-73160000D01*
X134687844Y-73159999D01*
X134747372Y-73153598D01*
X134747379Y-73153596D01*
X134882086Y-73103354D01*
X134882093Y-73103350D01*
X134997187Y-73017190D01*
X134997190Y-73017187D01*
X135083350Y-72902093D01*
X135083354Y-72902086D01*
X135133596Y-72767379D01*
X135133598Y-72767372D01*
X135139999Y-72707844D01*
X135140000Y-72707827D01*
X135140000Y-71910000D01*
X134073012Y-71910000D01*
X134105925Y-71852993D01*
X134140000Y-71725826D01*
X134140000Y-71594174D01*
X134105925Y-71467007D01*
X134073012Y-71410000D01*
X135140000Y-71410000D01*
X135140000Y-70612172D01*
X135139999Y-70612155D01*
X135133598Y-70552627D01*
X135133596Y-70552620D01*
X135083354Y-70417913D01*
X135083350Y-70417906D01*
X134997190Y-70302812D01*
X134997187Y-70302809D01*
X134882093Y-70216649D01*
X134882086Y-70216645D01*
X134747379Y-70166403D01*
X134747372Y-70166401D01*
X134687844Y-70160000D01*
X133890000Y-70160000D01*
X133890000Y-71226988D01*
X133832993Y-71194075D01*
X133705826Y-71160000D01*
X133574174Y-71160000D01*
X133447007Y-71194075D01*
X133390000Y-71226988D01*
X133390000Y-70160000D01*
X132592155Y-70160000D01*
X132532627Y-70166401D01*
X132532620Y-70166403D01*
X132397913Y-70216645D01*
X132397906Y-70216649D01*
X132282812Y-70302809D01*
X132282809Y-70302812D01*
X132196649Y-70417906D01*
X132196645Y-70417913D01*
X132146403Y-70552620D01*
X132146401Y-70552627D01*
X132140000Y-70612155D01*
X114220500Y-70612155D01*
X114220500Y-53229601D01*
X114240185Y-53162562D01*
X114288206Y-53119116D01*
X114301610Y-53112287D01*
X114467219Y-52991966D01*
X114611966Y-52847219D01*
X114611968Y-52847215D01*
X114611971Y-52847213D01*
X114664732Y-52774590D01*
X114732287Y-52681610D01*
X114825220Y-52499219D01*
X114848129Y-52428711D01*
X123721914Y-52428711D01*
X123721914Y-52671288D01*
X123750957Y-52891900D01*
X123753576Y-52911789D01*
X123763245Y-52947873D01*
X123816361Y-53146104D01*
X123909187Y-53370205D01*
X123909191Y-53370214D01*
X123926676Y-53400498D01*
X124030478Y-53580289D01*
X124030480Y-53580292D01*
X124030481Y-53580293D01*
X124178147Y-53772736D01*
X124178153Y-53772743D01*
X124349670Y-53944260D01*
X124349676Y-53944265D01*
X124542125Y-54091936D01*
X124752202Y-54213224D01*
X124976314Y-54306054D01*
X125210625Y-54368838D01*
X125391000Y-54392584D01*
X125451125Y-54400500D01*
X125451126Y-54400500D01*
X125693703Y-54400500D01*
X125741802Y-54394167D01*
X125934203Y-54368838D01*
X126168514Y-54306054D01*
X126392626Y-54213224D01*
X126602703Y-54091936D01*
X126795152Y-53944265D01*
X126966679Y-53772738D01*
X127114350Y-53580289D01*
X127235638Y-53370212D01*
X127328468Y-53146100D01*
X127391252Y-52911789D01*
X127422914Y-52671288D01*
X127422914Y-52428712D01*
X127391252Y-52188211D01*
X127328468Y-51953900D01*
X127235638Y-51729788D01*
X127114350Y-51519711D01*
X127007004Y-51379815D01*
X126966680Y-51327263D01*
X126966674Y-51327256D01*
X126795157Y-51155739D01*
X126795150Y-51155733D01*
X126602707Y-51008067D01*
X126602706Y-51008066D01*
X126602703Y-51008064D01*
X126431075Y-50908974D01*
X126392628Y-50886777D01*
X126392619Y-50886773D01*
X126168518Y-50793947D01*
X125935550Y-50731523D01*
X125934203Y-50731162D01*
X125934202Y-50731161D01*
X125934199Y-50731161D01*
X125693703Y-50699500D01*
X125693702Y-50699500D01*
X125451126Y-50699500D01*
X125451125Y-50699500D01*
X125210628Y-50731161D01*
X124976309Y-50793947D01*
X124752208Y-50886773D01*
X124752199Y-50886777D01*
X124587394Y-50981928D01*
X124542188Y-51008028D01*
X124542120Y-51008067D01*
X124349677Y-51155733D01*
X124349670Y-51155739D01*
X124178153Y-51327256D01*
X124178147Y-51327263D01*
X124030481Y-51519706D01*
X123909191Y-51729785D01*
X123909187Y-51729794D01*
X123816361Y-51953895D01*
X123753575Y-52188214D01*
X123721914Y-52428711D01*
X114848129Y-52428711D01*
X114888477Y-52304534D01*
X114920500Y-52102352D01*
X114920500Y-51897648D01*
X114919401Y-51890711D01*
X114888477Y-51695465D01*
X114859127Y-51605137D01*
X114825220Y-51500781D01*
X114825218Y-51500778D01*
X114825218Y-51500776D01*
X114775907Y-51403999D01*
X114732287Y-51318390D01*
X114695978Y-51268414D01*
X114611971Y-51152786D01*
X114467213Y-51008028D01*
X114301613Y-50887715D01*
X114301612Y-50887714D01*
X114301610Y-50887713D01*
X114239931Y-50856286D01*
X114119223Y-50794781D01*
X113924534Y-50731522D01*
X113738799Y-50702105D01*
X113722352Y-50699500D01*
X113517648Y-50699500D01*
X113501201Y-50702105D01*
X113315465Y-50731522D01*
X113120776Y-50794781D01*
X112938386Y-50887715D01*
X112772786Y-51008028D01*
X112628028Y-51152786D01*
X112507715Y-51318386D01*
X112414781Y-51500776D01*
X112351522Y-51695465D01*
X112319500Y-51897648D01*
X112319500Y-52102351D01*
X112351522Y-52304534D01*
X112414781Y-52499223D01*
X112450191Y-52568717D01*
X112507158Y-52680521D01*
X112507715Y-52681613D01*
X112628028Y-52847213D01*
X112628034Y-52847219D01*
X112772781Y-52991966D01*
X112938390Y-53112287D01*
X112951793Y-53119116D01*
X113002589Y-53167088D01*
X113019500Y-53229601D01*
X113019500Y-80584730D01*
X112999815Y-80651769D01*
X112983181Y-80672411D01*
X107939997Y-85715595D01*
X107878674Y-85749080D01*
X107852316Y-85751914D01*
X107653871Y-85751914D01*
X107460585Y-85790361D01*
X107460577Y-85790363D01*
X107278503Y-85865781D01*
X107278493Y-85865786D01*
X107114633Y-85975274D01*
X107114629Y-85975277D01*
X106975277Y-86114629D01*
X106975274Y-86114633D01*
X106865786Y-86278493D01*
X106865781Y-86278503D01*
X106790363Y-86460577D01*
X106790361Y-86460585D01*
X106751914Y-86653869D01*
X106751914Y-86850958D01*
X106790361Y-87044242D01*
X106790363Y-87044250D01*
X106865781Y-87226324D01*
X106865786Y-87226334D01*
X106975274Y-87390194D01*
X106975277Y-87390198D01*
X107866537Y-88281459D01*
X107866559Y-88281479D01*
X109963181Y-90378101D01*
X109996666Y-90439424D01*
X109999500Y-90465782D01*
X109999500Y-109098544D01*
X110037947Y-109291828D01*
X110037950Y-109291840D01*
X110057724Y-109339578D01*
X110113364Y-109473907D01*
X110113371Y-109473920D01*
X110222859Y-109637780D01*
X110222860Y-109637781D01*
X110222861Y-109637782D01*
X110362218Y-109777139D01*
X110362219Y-109777139D01*
X110369286Y-109784206D01*
X110369285Y-109784206D01*
X110369289Y-109784209D01*
X110963181Y-110378101D01*
X110996666Y-110439424D01*
X110999500Y-110465782D01*
X110999500Y-110733257D01*
X110979815Y-110800296D01*
X110927011Y-110846051D01*
X110857853Y-110855995D01*
X110832168Y-110849439D01*
X110782485Y-110830909D01*
X110782483Y-110830908D01*
X110722883Y-110824501D01*
X110722881Y-110824500D01*
X110722873Y-110824500D01*
X110722864Y-110824500D01*
X109277129Y-110824500D01*
X109277123Y-110824501D01*
X109217514Y-110830909D01*
X109167832Y-110849439D01*
X109098140Y-110854423D01*
X109036817Y-110820937D01*
X109003333Y-110759613D01*
X109000500Y-110733257D01*
X109000500Y-90901456D01*
X108962052Y-90708169D01*
X108962051Y-90708167D01*
X108962051Y-90708165D01*
X108957620Y-90697468D01*
X108949303Y-90677388D01*
X108949291Y-90677361D01*
X108947442Y-90672898D01*
X108921249Y-90609660D01*
X108886632Y-90526086D01*
X108886628Y-90526080D01*
X108777139Y-90362217D01*
X108634686Y-90219764D01*
X108634655Y-90219735D01*
X101993893Y-83578973D01*
X101993873Y-83578951D01*
X101850199Y-83435277D01*
X101850195Y-83435274D01*
X101686334Y-83325785D01*
X101686325Y-83325780D01*
X101613729Y-83295710D01*
X101557579Y-83272452D01*
X101504250Y-83250363D01*
X101504246Y-83250362D01*
X101504242Y-83250360D01*
X101407602Y-83231138D01*
X101310958Y-83211914D01*
X101310955Y-83211914D01*
X99550200Y-83211914D01*
X99483161Y-83192229D01*
X99470634Y-83182920D01*
X99297820Y-83057365D01*
X99108414Y-82960858D01*
X99108413Y-82960857D01*
X99108412Y-82960857D01*
X98906243Y-82895168D01*
X98906241Y-82895167D01*
X98906240Y-82895167D01*
X98744957Y-82869622D01*
X98696287Y-82861914D01*
X98483713Y-82861914D01*
X98435042Y-82869622D01*
X98273760Y-82895167D01*
X98071585Y-82960858D01*
X97882179Y-83057365D01*
X97706266Y-83185173D01*
X97705635Y-83184305D01*
X97646581Y-83210773D01*
X97629800Y-83211914D01*
X97464141Y-83211914D01*
X97397102Y-83192229D01*
X97351347Y-83139425D01*
X97347969Y-83131273D01*
X97343796Y-83120083D01*
X97343793Y-83120079D01*
X97343793Y-83120078D01*
X97257547Y-83004869D01*
X97257544Y-83004866D01*
X97142335Y-82918620D01*
X97142328Y-82918616D01*
X97007482Y-82868322D01*
X97007483Y-82868322D01*
X96947883Y-82861915D01*
X96947881Y-82861914D01*
X96947873Y-82861914D01*
X96947864Y-82861914D01*
X95152129Y-82861914D01*
X95152123Y-82861915D01*
X95092516Y-82868322D01*
X94957671Y-82918616D01*
X94957664Y-82918620D01*
X94842455Y-83004866D01*
X94842452Y-83004869D01*
X94756206Y-83120078D01*
X94756202Y-83120085D01*
X94705908Y-83254931D01*
X94699501Y-83314530D01*
X94699500Y-83314549D01*
X92500500Y-83314549D01*
X92500500Y-51889778D01*
X98219500Y-51889778D01*
X98219500Y-52110222D01*
X98221198Y-52120943D01*
X98253985Y-52327952D01*
X98322103Y-52537603D01*
X98322104Y-52537606D01*
X98388649Y-52668205D01*
X98417333Y-52724500D01*
X98422187Y-52734025D01*
X98551752Y-52912358D01*
X98551756Y-52912363D01*
X98707636Y-53068243D01*
X98707641Y-53068247D01*
X98768258Y-53112287D01*
X98885978Y-53197815D01*
X99014375Y-53263237D01*
X99082393Y-53297895D01*
X99082396Y-53297896D01*
X99187221Y-53331955D01*
X99292049Y-53366015D01*
X99509778Y-53400500D01*
X99509779Y-53400500D01*
X99730221Y-53400500D01*
X99730222Y-53400500D01*
X99947951Y-53366015D01*
X100157606Y-53297895D01*
X100354022Y-53197815D01*
X100532365Y-53068242D01*
X100582536Y-53018070D01*
X100643857Y-52984586D01*
X100713548Y-52989570D01*
X100769482Y-53031441D01*
X100786398Y-53062419D01*
X100816202Y-53142328D01*
X100816206Y-53142335D01*
X100902452Y-53257544D01*
X100902455Y-53257547D01*
X101017664Y-53343793D01*
X101017671Y-53343797D01*
X101152517Y-53394091D01*
X101152516Y-53394091D01*
X101159444Y-53394835D01*
X101212127Y-53400500D01*
X103107872Y-53400499D01*
X103167483Y-53394091D01*
X103302331Y-53343796D01*
X103417546Y-53257546D01*
X103503796Y-53142331D01*
X103554091Y-53007483D01*
X103560500Y-52947873D01*
X103560500Y-52724500D01*
X103580185Y-52657461D01*
X103632989Y-52611706D01*
X103684500Y-52600500D01*
X104770398Y-52600500D01*
X104837437Y-52620185D01*
X104880883Y-52668205D01*
X104887715Y-52681614D01*
X105008028Y-52847213D01*
X105152786Y-52991971D01*
X105288430Y-53090520D01*
X105318390Y-53112287D01*
X105399499Y-53153614D01*
X105500776Y-53205218D01*
X105500778Y-53205218D01*
X105500781Y-53205220D01*
X105575818Y-53229601D01*
X105695465Y-53268477D01*
X105796557Y-53284488D01*
X105897648Y-53300500D01*
X105897649Y-53300500D01*
X106102351Y-53300500D01*
X106102352Y-53300500D01*
X106304534Y-53268477D01*
X106499219Y-53205220D01*
X106681610Y-53112287D01*
X106825862Y-53007483D01*
X106847213Y-52991971D01*
X106847215Y-52991968D01*
X106847219Y-52991966D01*
X106991966Y-52847219D01*
X106991968Y-52847215D01*
X106991971Y-52847213D01*
X107044732Y-52774590D01*
X107112287Y-52681610D01*
X107205220Y-52499219D01*
X107268477Y-52304534D01*
X107300500Y-52102352D01*
X107300500Y-51897648D01*
X107299401Y-51890711D01*
X107268477Y-51695465D01*
X107239127Y-51605137D01*
X107205220Y-51500781D01*
X107205218Y-51500778D01*
X107205218Y-51500776D01*
X107155907Y-51403999D01*
X107112287Y-51318390D01*
X107075978Y-51268414D01*
X106991971Y-51152786D01*
X106847213Y-51008028D01*
X106681613Y-50887715D01*
X106681612Y-50887714D01*
X106681610Y-50887713D01*
X106619931Y-50856286D01*
X106499223Y-50794781D01*
X106304534Y-50731522D01*
X106118799Y-50702105D01*
X106102352Y-50699500D01*
X105897648Y-50699500D01*
X105881201Y-50702105D01*
X105695465Y-50731522D01*
X105500776Y-50794781D01*
X105318386Y-50887715D01*
X105152786Y-51008028D01*
X105008028Y-51152786D01*
X104887715Y-51318385D01*
X104880883Y-51331795D01*
X104832909Y-51382591D01*
X104770398Y-51399500D01*
X103684499Y-51399500D01*
X103617460Y-51379815D01*
X103571705Y-51327011D01*
X103560499Y-51275500D01*
X103560499Y-51052129D01*
X103560498Y-51052123D01*
X103554091Y-50992516D01*
X103503797Y-50857671D01*
X103503793Y-50857664D01*
X103417547Y-50742455D01*
X103417544Y-50742452D01*
X103302335Y-50656206D01*
X103302328Y-50656202D01*
X103167482Y-50605908D01*
X103167483Y-50605908D01*
X103107883Y-50599501D01*
X103107881Y-50599500D01*
X103107873Y-50599500D01*
X103107864Y-50599500D01*
X101212129Y-50599500D01*
X101212123Y-50599501D01*
X101152516Y-50605908D01*
X101017671Y-50656202D01*
X101017664Y-50656206D01*
X100902455Y-50742452D01*
X100902452Y-50742455D01*
X100816206Y-50857664D01*
X100816203Y-50857669D01*
X100786398Y-50937581D01*
X100744526Y-50993514D01*
X100679062Y-51017931D01*
X100610789Y-51003079D01*
X100582535Y-50981928D01*
X100532363Y-50931756D01*
X100532358Y-50931752D01*
X100354025Y-50802187D01*
X100354024Y-50802186D01*
X100354022Y-50802185D01*
X100236791Y-50742452D01*
X100157606Y-50702104D01*
X100157603Y-50702103D01*
X99947952Y-50633985D01*
X99839086Y-50616742D01*
X99730222Y-50599500D01*
X99509778Y-50599500D01*
X99437201Y-50610995D01*
X99292047Y-50633985D01*
X99082396Y-50702103D01*
X99082393Y-50702104D01*
X98885974Y-50802187D01*
X98707641Y-50931752D01*
X98707636Y-50931756D01*
X98551756Y-51087636D01*
X98551752Y-51087641D01*
X98422187Y-51265974D01*
X98322104Y-51462393D01*
X98322103Y-51462396D01*
X98253985Y-51672047D01*
X98222364Y-51871694D01*
X98219500Y-51889778D01*
X92500500Y-51889778D01*
X92500500Y-45624500D01*
X92520185Y-45557461D01*
X92572989Y-45511706D01*
X92624500Y-45500500D01*
X191375500Y-45500500D01*
X191442539Y-45520185D01*
G37*
%TD.AperFunction*%
%TD*%
M02*
