M48
; DRILL file KiCad 10.0.0 date 2026-06-04T17:36:21
; FORMAT={-:-/ absolute / metric / decimal}
; #@! TF.CreationDate,2026-06-04T17:36:21+12:00
; #@! TF.GenerationSoftware,Kicad,Pcbnew,10.0.0
; #@! TF.FileFunction,Plated,1,4,PTH
FMAT,2
METRIC
; #@! TA.AperFunction,Plated,PTH,ViaDrill
T1C0.300
; #@! TA.AperFunction,Plated,PTH,ComponentDrill
T2C0.600
; #@! TA.AperFunction,Plated,PTH,ComponentDrill
T3C0.800
; #@! TA.AperFunction,Plated,PTH,ComponentDrill
T4C0.900
; #@! TA.AperFunction,Plated,PTH,ComponentDrill
T5C1.000
; #@! TA.AperFunction,Plated,PTH,ComponentDrill
T6C1.100
%
G90
G05
T1
X92.436Y-78.226
X100.898Y-122.898
X102.8Y-121.46
X106.41Y-121.397
X106.53Y-122.9
X109.97Y-121.41
X110.05Y-59.63
X112.51Y-66.56
X113.42Y-122.9
X113.59Y-121.4
X117.2Y-121.41
X120.83Y-121.47
X120.85Y-122.9
X124.36Y-121.41
X127.91Y-121.45
X128.14Y-122.9
X131.54Y-121.46
X135.1Y-121.45
X135.47Y-122.9
X138.72Y-121.39
X140.41Y-65.1
X141.55Y-66.12
X142.31Y-121.39
X142.72Y-122.9
X145.5Y-66.057
X145.95Y-121.38
X147.61Y-122.9
X149.52Y-121.41
X155.07Y-110.21
X155.13Y-114.12
X155.502Y-80.08
X155.512Y-75.67
X155.512Y-78.15
X155.522Y-73.78
X156.6Y-114.21
T3
X61.697Y-69.1
X63.08Y-125.58
X63.08Y-133.2
X65.62Y-125.58
X65.62Y-133.2
X66.697Y-69.1
X68.1Y-56.39
X68.1Y-64.01
X68.16Y-125.58
X68.16Y-133.2
X68.89Y-137.3
X70.6Y-122.3
X70.7Y-125.58
X70.7Y-133.2
X72.0Y-57.9
X72.0Y-62.9
X73.19Y-116.9
X73.24Y-125.58
X73.24Y-133.2
X75.6Y-122.3
X75.78Y-125.58
X75.78Y-133.2
X76.19Y-63.0
X76.3Y-66.05
X76.3Y-70.1
X76.51Y-137.3
X78.32Y-125.58
X78.32Y-133.2
X78.46Y-111.06
X78.9Y-59.8
X80.81Y-116.9
X80.86Y-125.58
X80.86Y-133.2
X81.0Y-113.6
X81.3Y-66.05
X81.3Y-70.1
X83.4Y-125.58
X83.4Y-133.2
X83.54Y-111.06
X83.81Y-63.0
X83.9Y-59.8
X85.94Y-125.58
X85.94Y-133.2
X86.3Y-114.28
X86.3Y-121.9
X88.48Y-125.58
X88.48Y-133.2
X89.5Y-114.28
X89.5Y-121.9
X91.02Y-125.58
X91.02Y-133.2
X92.7Y-114.28
X92.7Y-121.9
X93.56Y-125.58
X93.56Y-133.2
X95.9Y-114.28
X95.9Y-121.9
X96.1Y-125.58
X96.1Y-133.2
X101.891Y-106.993
X101.891Y-114.613
X105.0Y-107.0
X105.0Y-114.62
X108.093Y-107.0
X108.093Y-114.62
X111.2Y-107.0
X111.2Y-114.62
X111.5Y-75.15
X111.5Y-79.2
X114.295Y-107.0
X114.295Y-114.62
X116.5Y-75.15
X116.5Y-79.2
X117.4Y-106.99
X117.4Y-114.61
X120.491Y-106.993
X120.491Y-114.613
X122.989Y-72.576
X122.989Y-80.196
X123.591Y-106.993
X123.591Y-114.613
X126.107Y-72.59
X126.107Y-80.21
X126.691Y-106.993
X126.691Y-114.613
X129.5Y-75.2
X129.5Y-80.2
X129.784Y-106.975
X129.784Y-114.595
X132.81Y-65.03
X132.81Y-70.03
X132.88Y-106.97
X132.88Y-114.59
X132.9Y-72.59
X132.9Y-80.21
X135.4Y-42.0
X135.96Y-65.04
X135.96Y-70.04
X135.98Y-106.97
X135.98Y-114.59
X136.0Y-72.59
X136.0Y-80.21
X139.096Y-106.97
X139.096Y-114.59
X139.1Y-72.59
X139.1Y-80.21
X140.4Y-42.0
X140.5Y-48.98
X140.5Y-56.6
X142.196Y-106.97
X142.196Y-114.59
X142.2Y-72.59
X142.2Y-80.21
X145.296Y-106.97
X145.296Y-114.59
X145.3Y-72.59
X145.3Y-80.21
X148.396Y-106.97
X148.396Y-114.59
X148.4Y-72.59
X148.4Y-80.21
X155.0Y-42.097
X155.0Y-47.097
T4
X61.63Y-59.8
X64.17Y-59.8
T5
X63.46Y-78.94
X63.46Y-81.48
X63.46Y-84.02
X63.46Y-86.56
X63.46Y-89.1
X63.46Y-91.64
X63.46Y-94.18
X63.46Y-96.72
X63.46Y-99.26
X63.46Y-101.8
X65.66Y-52.5
X66.0Y-78.94
X66.0Y-81.48
X66.0Y-84.02
X66.0Y-86.56
X66.0Y-89.1
X66.0Y-91.64
X66.0Y-94.18
X66.0Y-96.72
X66.0Y-99.26
X66.0Y-101.8
X68.2Y-52.5
X69.0Y-47.54
X69.01Y-42.46
X70.74Y-52.5
X89.32Y-137.2
X91.86Y-137.2
X94.4Y-137.2
X100.8Y-137.1
X101.624Y-84.714
X101.624Y-102.494
X103.34Y-137.1
X104.164Y-84.714
X104.164Y-102.494
X105.88Y-137.1
X106.704Y-84.714
X106.704Y-102.494
X109.244Y-84.714
X109.244Y-102.494
X109.96Y-45.8
X110.217Y-131.865
X111.784Y-84.714
X111.784Y-102.494
X112.5Y-45.8
X112.757Y-131.865
X114.324Y-84.714
X114.324Y-102.494
X115.04Y-45.8
X115.297Y-131.865
X116.864Y-84.714
X116.864Y-102.494
X117.58Y-45.8
X117.837Y-131.865
X119.404Y-84.714
X119.404Y-102.494
X120.12Y-45.8
X120.377Y-131.865
X121.944Y-84.714
X121.944Y-102.494
X122.66Y-45.8
X122.917Y-131.865
X124.484Y-84.714
X124.484Y-102.494
X125.2Y-45.8
X125.457Y-131.865
X127.024Y-84.714
X127.024Y-102.494
X127.74Y-45.8
X127.997Y-131.865
X129.564Y-84.714
X129.564Y-102.494
X130.28Y-45.8
X130.537Y-131.865
X132.104Y-84.714
X132.104Y-102.494
X132.82Y-45.8
X133.077Y-131.865
X134.644Y-84.714
X134.644Y-102.494
X135.36Y-45.8
X135.617Y-131.865
X137.184Y-84.714
X137.184Y-102.494
X137.9Y-45.8
X138.157Y-131.865
X139.724Y-84.714
X139.724Y-102.494
X140.44Y-45.8
X140.697Y-131.865
X142.264Y-84.714
X142.264Y-102.494
X142.98Y-45.8
X143.237Y-131.865
X144.804Y-84.714
X144.804Y-102.494
X145.52Y-45.8
X145.777Y-131.865
X147.344Y-84.714
X147.344Y-102.494
X148.06Y-45.8
X148.317Y-131.865
X149.884Y-84.714
X149.884Y-102.494
X153.725Y-126.62
X153.725Y-129.16
X153.725Y-131.7
X153.725Y-134.24
X153.725Y-136.78
X156.265Y-126.62
X156.265Y-129.16
X156.265Y-131.7
X156.265Y-134.24
X156.265Y-136.78
T6
X61.8Y-41.82
X61.8Y-51.98
X99.5Y-42.4
X99.5Y-48.9
X104.0Y-42.4
X104.0Y-48.9
T2
G00X74.162Y-43.3
M15
G01X74.162Y-44.9
M16
G05
G00X83.962Y-43.3
M15
G01X83.962Y-44.9
M16
G05
T3
G00X74.562Y-50.8
M15
G01X74.562Y-52.0
M16
G05
G00X77.763Y-50.8
M15
G01X77.763Y-52.0
M16
G05
G00X83.062Y-50.8
M15
G01X83.062Y-52.0
M16
G05
M30
