%TF.GenerationSoftware,KiCad,Pcbnew,10.0.0*%
%TF.CreationDate,2026-06-04T18:34:49+12:00*%
%TF.ProjectId,pico-74x-tester,7069636f-2d37-4347-982d-746573746572,rev?*%
%TF.SameCoordinates,Original*%
%TF.FileFunction,Paste,Top*%
%TF.FilePolarity,Positive*%
%FSLAX46Y46*%
G04 Gerber Fmt 4.6, Leading zero omitted, Abs format (unit mm)*
G04 Created by KiCad (PCBNEW 10.0.0) date 2026-06-04 18:34:49*
%MOMM*%
%LPD*%
G01*
G04 APERTURE LIST*
G04 Aperture macros list*
%AMRoundRect*
0 Rectangle with rounded corners*
0 $1 Rounding radius*
0 $2 $3 $4 $5 $6 $7 $8 $9 X,Y pos of 4 corners*
0 Add a 4 corners polygon primitive as box body*
4,1,4,$2,$3,$4,$5,$6,$7,$8,$9,$2,$3,0*
0 Add four circle primitives for the rounded corners*
1,1,$1+$1,$2,$3*
1,1,$1+$1,$4,$5*
1,1,$1+$1,$6,$7*
1,1,$1+$1,$8,$9*
0 Add four rect primitives between the rounded corners*
20,1,$1+$1,$2,$3,$4,$5,0*
20,1,$1+$1,$4,$5,$6,$7,0*
20,1,$1+$1,$6,$7,$8,$9,0*
20,1,$1+$1,$8,$9,$2,$3,0*%
G04 Aperture macros list end*
%ADD10RoundRect,0.150000X0.150000X-0.587500X0.150000X0.587500X-0.150000X0.587500X-0.150000X-0.587500X0*%
%ADD11RoundRect,0.150000X-0.150000X0.587500X-0.150000X-0.587500X0.150000X-0.587500X0.150000X0.587500X0*%
%ADD12RoundRect,0.150000X-0.150000X0.512500X-0.150000X-0.512500X0.150000X-0.512500X0.150000X0.512500X0*%
%ADD13RoundRect,0.150000X0.587500X0.150000X-0.587500X0.150000X-0.587500X-0.150000X0.587500X-0.150000X0*%
G04 APERTURE END LIST*
D10*
%TO.C,D6*%
X108097715Y-119823475D03*
X109997715Y-119823475D03*
X109047715Y-117948475D03*
%TD*%
%TO.C,D23*%
X136847258Y-119791771D03*
X138747258Y-119791771D03*
X137797258Y-117916771D03*
%TD*%
%TO.C,D10*%
X122450000Y-119800000D03*
X124350000Y-119800000D03*
X123400000Y-117925000D03*
%TD*%
D11*
%TO.C,D14*%
X141550000Y-67725000D03*
X139650000Y-67725000D03*
X140600000Y-69600000D03*
%TD*%
D12*
%TO.C,U2*%
X76950000Y-57862500D03*
X76000000Y-57862500D03*
X75050000Y-57862500D03*
X75050000Y-60137500D03*
X76000000Y-60137500D03*
X76950000Y-60137500D03*
%TD*%
D10*
%TO.C,D11*%
X126050000Y-119800000D03*
X127950000Y-119800000D03*
X127000000Y-117925000D03*
%TD*%
%TO.C,D7*%
X111697715Y-119823475D03*
X113597715Y-119823475D03*
X112647715Y-117948475D03*
%TD*%
%TO.C,D20*%
X147650000Y-119791771D03*
X149550000Y-119791771D03*
X148600000Y-117916771D03*
%TD*%
D13*
%TO.C,D17*%
X153875000Y-80050000D03*
X153875000Y-78150000D03*
X152000000Y-79100000D03*
%TD*%
%TO.C,D19*%
X153437500Y-116050000D03*
X153437500Y-114150000D03*
X151562500Y-115100000D03*
%TD*%
D10*
%TO.C,D5*%
X104497715Y-119823475D03*
X106397715Y-119823475D03*
X105447715Y-117948475D03*
%TD*%
D11*
%TO.C,D15*%
X145500000Y-67700000D03*
X143600000Y-67700000D03*
X144550000Y-69575000D03*
%TD*%
D10*
%TO.C,D21*%
X144046677Y-119791771D03*
X145946677Y-119791771D03*
X144996677Y-117916771D03*
%TD*%
%TO.C,D12*%
X129650000Y-119800000D03*
X131550000Y-119800000D03*
X130600000Y-117925000D03*
%TD*%
D13*
%TO.C,D16*%
X153875000Y-75650000D03*
X153875000Y-73750000D03*
X152000000Y-74700000D03*
%TD*%
D10*
%TO.C,D8*%
X115297715Y-119823475D03*
X117197715Y-119823475D03*
X116247715Y-117948475D03*
%TD*%
%TO.C,D4*%
X100897715Y-119823475D03*
X102797715Y-119823475D03*
X101847715Y-117948475D03*
%TD*%
D13*
%TO.C,D18*%
X153437500Y-112100000D03*
X153437500Y-110200000D03*
X151562500Y-111150000D03*
%TD*%
D10*
%TO.C,D22*%
X140447258Y-119791771D03*
X142347258Y-119791771D03*
X141397258Y-117916771D03*
%TD*%
%TO.C,D13*%
X133247258Y-119791771D03*
X135147258Y-119791771D03*
X134197258Y-117916771D03*
%TD*%
%TO.C,D9*%
X118900000Y-119800000D03*
X120800000Y-119800000D03*
X119850000Y-117925000D03*
%TD*%
M02*
