%TF.GenerationSoftware,KiCad,Pcbnew,10.0.0*%
%TF.CreationDate,2026-07-30T19:28:17+12:00*%
%TF.ProjectId,OD-PT74,4f442d50-5437-4342-9e6b-696361645f70,Rev-c*%
%TF.SameCoordinates,Original*%
%TF.FileFunction,Copper,L4,Bot*%
%TF.FilePolarity,Positive*%
%FSLAX46Y46*%
G04 Gerber Fmt 4.6, Leading zero omitted, Abs format (unit mm)*
G04 Created by KiCad (PCBNEW 10.0.0) date 2026-07-30 19:28:17*
%MOMM*%
%LPD*%
G01*
G04 APERTURE LIST*
G04 Aperture macros list*
%AMRoundRect*
0 Rectangle with rounded corners*
0 $1 Rounding radius*
0 $2 $3 $4 $5 $6 $7 $8 $9 X,Y pos of 4 corners*
0 Add a 4 corners polygon primitive as box body*
4,1,4,$2,$3,$4,$5,$6,$7,$8,$9,$2,$3,0*
0 Add four circle primitives for the rounded corners*
1,1,$1+$1,$2,$3*
1,1,$1+$1,$4,$5*
1,1,$1+$1,$6,$7*
1,1,$1+$1,$8,$9*
0 Add four rect primitives between the rounded corners*
20,1,$1+$1,$2,$3,$4,$5,0*
20,1,$1+$1,$4,$5,$6,$7,0*
20,1,$1+$1,$6,$7,$8,$9,0*
20,1,$1+$1,$8,$9,$2,$3,0*%
%AMFreePoly0*
4,1,37,0.603843,0.796157,0.639018,0.796157,0.711114,0.766294,0.766294,0.711114,0.796157,0.639018,0.796157,0.603843,0.800000,0.600000,0.800000,-0.600000,0.796157,-0.603843,0.796157,-0.639018,0.766294,-0.711114,0.711114,-0.766294,0.639018,-0.796157,0.603843,-0.796157,0.600000,-0.800000,0.000000,-0.800000,0.000000,-0.796148,-0.078414,-0.796148,-0.232228,-0.765552,-0.377117,-0.705537,
-0.507515,-0.618408,-0.618408,-0.507515,-0.705537,-0.377117,-0.765552,-0.232228,-0.796148,-0.078414,-0.796148,0.078414,-0.765552,0.232228,-0.705537,0.377117,-0.618408,0.507515,-0.507515,0.618408,-0.377117,0.705537,-0.232228,0.765552,-0.078414,0.796148,0.000000,0.796148,0.000000,0.800000,0.600000,0.800000,0.603843,0.796157,0.603843,0.796157,$1*%
%AMFreePoly1*
4,1,37,0.000000,0.796148,0.078414,0.796148,0.232228,0.765552,0.377117,0.705537,0.507515,0.618408,0.618408,0.507515,0.705537,0.377117,0.765552,0.232228,0.796148,0.078414,0.796148,-0.078414,0.765552,-0.232228,0.705537,-0.377117,0.618408,-0.507515,0.507515,-0.618408,0.377117,-0.705537,0.232228,-0.765552,0.078414,-0.796148,0.000000,-0.796148,0.000000,-0.800000,-0.600000,-0.800000,
-0.603843,-0.796157,-0.639018,-0.796157,-0.711114,-0.766294,-0.766294,-0.711114,-0.796157,-0.639018,-0.796157,-0.603843,-0.800000,-0.600000,-0.800000,0.600000,-0.796157,0.603843,-0.796157,0.639018,-0.766294,0.711114,-0.711114,0.766294,-0.639018,0.796157,-0.603843,0.796157,-0.600000,0.800000,0.000000,0.800000,0.000000,0.796148,0.000000,0.796148,$1*%
G04 Aperture macros list end*
%TA.AperFunction,ComponentPad*%
%ADD10C,1.600000*%
%TD*%
%TA.AperFunction,ComponentPad*%
%ADD11RoundRect,0.250000X0.500000X0.500000X-0.500000X0.500000X-0.500000X-0.500000X0.500000X-0.500000X0*%
%TD*%
%TA.AperFunction,ComponentPad*%
%ADD12C,1.500000*%
%TD*%
%TA.AperFunction,ComponentPad*%
%ADD13RoundRect,0.250000X-0.550000X-0.550000X0.550000X-0.550000X0.550000X0.550000X-0.550000X0.550000X0*%
%TD*%
%TA.AperFunction,ComponentPad*%
%ADD14R,1.700000X1.700000*%
%TD*%
%TA.AperFunction,ComponentPad*%
%ADD15C,1.700000*%
%TD*%
%TA.AperFunction,ComponentPad*%
%ADD16RoundRect,0.249999X0.850001X-0.850001X0.850001X0.850001X-0.850001X0.850001X-0.850001X-0.850001X0*%
%TD*%
%TA.AperFunction,ComponentPad*%
%ADD17C,2.200000*%
%TD*%
%TA.AperFunction,ComponentPad*%
%ADD18RoundRect,0.250000X-0.550000X0.550000X-0.550000X-0.550000X0.550000X-0.550000X0.550000X0.550000X0*%
%TD*%
%TA.AperFunction,ComponentPad*%
%ADD19R,3.500000X3.500000*%
%TD*%
%TA.AperFunction,ComponentPad*%
%ADD20RoundRect,0.750000X-1.000000X0.750000X-1.000000X-0.750000X1.000000X-0.750000X1.000000X0.750000X0*%
%TD*%
%TA.AperFunction,ComponentPad*%
%ADD21RoundRect,0.875000X-0.875000X0.875000X-0.875000X-0.875000X0.875000X-0.875000X0.875000X0.875000X0*%
%TD*%
%TA.AperFunction,ComponentPad*%
%ADD22C,2.000000*%
%TD*%
%TA.AperFunction,ComponentPad*%
%ADD23RoundRect,0.200000X0.600000X-0.600000X0.600000X0.600000X-0.600000X0.600000X-0.600000X-0.600000X0*%
%TD*%
%TA.AperFunction,ComponentPad*%
%ADD24FreePoly0,90.000000*%
%TD*%
%TA.AperFunction,ComponentPad*%
%ADD25FreePoly1,90.000000*%
%TD*%
%TA.AperFunction,ComponentPad*%
%ADD26R,1.800000X1.800000*%
%TD*%
%TA.AperFunction,ComponentPad*%
%ADD27C,1.800000*%
%TD*%
%TA.AperFunction,ViaPad*%
%ADD28C,0.600000*%
%TD*%
%TA.AperFunction,Conductor*%
%ADD29C,0.200000*%
%TD*%
G04 APERTURE END LIST*
D10*
%TO.P,R1,1*%
%TO.N,Net-(U1-~{RESET})*%
X68890000Y-137300000D03*
%TO.P,R1,2*%
%TO.N,+3.3V*%
X76510000Y-137300000D03*
%TD*%
%TO.P,R29,1*%
%TO.N,/ZIF_15*%
X145296120Y-114590000D03*
%TO.P,R29,2*%
%TO.N,/GP_16*%
X145296120Y-106970000D03*
%TD*%
%TO.P,C13,1*%
%TO.N,/ZIF_20*%
X140400000Y-42000000D03*
%TO.P,C13,2*%
%TO.N,GND*%
X135400000Y-42000000D03*
%TD*%
D11*
%TO.P,Q1,1,E_1*%
%TO.N,GND*%
X83540000Y-111060000D03*
D12*
%TO.P,Q1,2,B_2*%
%TO.N,Net-(Q1-B)*%
X81000000Y-113600000D03*
%TO.P,Q1,3,C_3*%
%TO.N,/Pezzio*%
X78460000Y-111060000D03*
%TD*%
D13*
%TO.P,C5,1*%
%TO.N,+5V*%
X61697349Y-69100000D03*
D10*
%TO.P,C5,2*%
%TO.N,GND*%
X66697349Y-69100000D03*
%TD*%
%TO.P,C8,1*%
%TO.N,GND*%
X135960000Y-65040000D03*
%TO.P,C8,2*%
%TO.N,/Encoder_A*%
X135960000Y-70040000D03*
%TD*%
%TO.P,R15,1*%
%TO.N,/ZIF_5*%
X114294807Y-114620000D03*
%TO.P,R15,2*%
%TO.N,/GP_6*%
X114294807Y-107000000D03*
%TD*%
%TO.P,C6,1*%
%TO.N,GND*%
X129500000Y-75200000D03*
%TO.P,C6,2*%
%TO.N,/Encoder SW*%
X129500000Y-80200000D03*
%TD*%
D14*
%TO.P,J4,1,Pin_1_1*%
%TO.N,/V_OUT*%
X153725000Y-126620000D03*
D15*
%TO.P,J4,2,Pin_2_2*%
%TO.N,Net-(J4-Pin_2)*%
X156265000Y-126620000D03*
%TO.P,J4,3,Pin_3_3*%
%TO.N,/ZIF_10*%
X153725000Y-129160000D03*
%TO.P,J4,4,Pin_4_4*%
%TO.N,GND*%
X156265000Y-129160000D03*
%TO.P,J4,5,Pin_5_5*%
%TO.N,/ZIF_8*%
X153725000Y-131700000D03*
%TO.P,J4,6,Pin_6_6*%
%TO.N,/Package 14 sence*%
X156265000Y-131700000D03*
%TO.P,J4,7,Pin_7_7*%
%TO.N,/ZIF_7*%
X153725000Y-134240000D03*
%TO.P,J4,8,Pin_8_8*%
%TO.N,/<NO NET>*%
X156265000Y-134240000D03*
%TO.P,J4,9,Pin_9_9*%
%TO.N,GND*%
X153725000Y-136780000D03*
%TO.P,J4,10,Pin_10_10*%
%TO.N,/Package 20 sence*%
X156265000Y-136780000D03*
%TD*%
D16*
%TO.P,D2,1,K_1*%
%TO.N,Net-(D2-K)*%
X61800000Y-51980000D03*
D17*
%TO.P,D2,2,A_2*%
%TO.N,Net-(D2-A)*%
X61800000Y-41820000D03*
%TD*%
D14*
%TO.P,SW5,1,A_1*%
%TO.N,/Voltage 3.3v sence*%
X89320000Y-137200000D03*
D15*
%TO.P,SW5,2,B_2*%
%TO.N,GND*%
X91860000Y-137200000D03*
%TO.P,SW5,3,C_3*%
%TO.N,/Volatge 5v sence*%
X94400000Y-137200000D03*
%TD*%
D10*
%TO.P,C3,1*%
%TO.N,+3.3V*%
X111500000Y-79200000D03*
%TO.P,C3,2*%
%TO.N,GND*%
X116500000Y-79200000D03*
%TD*%
%TO.P,C9,1*%
%TO.N,Net-(U2-BST)*%
X78900000Y-59800000D03*
%TO.P,C9,2*%
%TO.N,Net-(U2-SW)*%
X83900000Y-59800000D03*
%TD*%
%TO.P,R2,1*%
%TO.N,Net-(Q1-B)*%
X86300000Y-114280000D03*
%TO.P,R2,2*%
%TO.N,/BUZZER*%
X86300000Y-121900000D03*
%TD*%
%TO.P,L1,1,1_1*%
%TO.N,Net-(U2-SW)*%
X76190000Y-63000000D03*
%TO.P,L1,2,2_2*%
%TO.N,+3.3V*%
X83810000Y-63000000D03*
%TD*%
%TO.P,R8,1*%
%TO.N,+3.3V*%
X122989303Y-72575859D03*
%TO.P,R8,2*%
%TO.N,/I2C SCL*%
X122989303Y-80195859D03*
%TD*%
D14*
%TO.P,SW6,1,A_1*%
%TO.N,+3.3V*%
X105880000Y-137100000D03*
D15*
%TO.P,SW6,2,B_2*%
%TO.N,/V_OUT*%
X103340000Y-137100000D03*
%TO.P,SW6,3,C_3*%
%TO.N,+5V*%
X100800000Y-137100000D03*
%TD*%
D10*
%TO.P,R20,1*%
%TO.N,/ZIF_10*%
X129784357Y-114594847D03*
%TO.P,R20,2*%
%TO.N,/GP_11*%
X129784357Y-106974847D03*
%TD*%
D18*
%TO.P,U1,1,GPB0_1*%
%TO.N,Net-(U1-GPB0)*%
X96100000Y-125580000D03*
D10*
%TO.P,U1,2,GPB1_2*%
%TO.N,Net-(U1-GPB1)*%
X93560000Y-125580000D03*
%TO.P,U1,3,GPB2_3*%
%TO.N,Net-(U1-GPB2)*%
X91020000Y-125580000D03*
%TO.P,U1,4,GPB3_4*%
%TO.N,/BUZZER*%
X88480000Y-125580000D03*
%TO.P,U1,5,GPB4_5*%
%TO.N,unconnected-(U1-GPB4-Pad5)*%
X85940000Y-125580000D03*
%TO.P,U1,6,GPB5_6*%
%TO.N,unconnected-(U1-GPB5-Pad6)*%
X83400000Y-125580000D03*
%TO.P,U1,7,GPB6_7*%
%TO.N,unconnected-(U1-GPB6-Pad7)*%
X80860000Y-125580000D03*
%TO.P,U1,8,GPB7_8*%
%TO.N,unconnected-(U1-GPB7-Pad8)*%
X78320000Y-125580000D03*
%TO.P,U1,9,V_{DD}_9*%
%TO.N,+3.3V*%
X75780000Y-125580000D03*
%TO.P,U1,10,V_{SS}_10*%
%TO.N,GND*%
X73240000Y-125580000D03*
%TO.P,U1,11,NC_11*%
%TO.N,unconnected-(U1-NC-Pad11)*%
X70700000Y-125580000D03*
%TO.P,U1,12,SCK_12*%
%TO.N,/I2C SCL*%
X68160000Y-125580000D03*
%TO.P,U1,13,SDA_13*%
%TO.N,/I2C SDA*%
X65620000Y-125580000D03*
%TO.P,U1,14,NC_14*%
%TO.N,unconnected-(U1-NC-Pad14)*%
X63080000Y-125580000D03*
%TO.P,U1,15,A0_15*%
%TO.N,GND*%
X63080000Y-133200000D03*
%TO.P,U1,16,A1_16*%
X65620000Y-133200000D03*
%TO.P,U1,17,A2_17*%
X68160000Y-133200000D03*
%TO.P,U1,18,~{RESET}_18*%
%TO.N,Net-(U1-~{RESET})*%
X70700000Y-133200000D03*
%TO.P,U1,19,INTB_19*%
%TO.N,unconnected-(U1-INTB-Pad19)*%
X73240000Y-133200000D03*
%TO.P,U1,20,INTA_20*%
%TO.N,unconnected-(U1-INTA-Pad20)*%
X75780000Y-133200000D03*
%TO.P,U1,21,GPA0_21*%
%TO.N,/Next {slash} select Button*%
X78320000Y-133200000D03*
%TO.P,U1,22,GPA1_22*%
%TO.N,/Test {slash} enter Button*%
X80860000Y-133200000D03*
%TO.P,U1,23,GPA2_23*%
%TO.N,/Package 14 sence*%
X83400000Y-133200000D03*
%TO.P,U1,24,GPA3_24*%
%TO.N,/<NO NET>*%
X85940000Y-133200000D03*
%TO.P,U1,25,GPA4_25*%
%TO.N,/Package 20 sence*%
X88480000Y-133200000D03*
%TO.P,U1,26,GPA5_26*%
%TO.N,/Voltage 3.3v sence*%
X91020000Y-133200000D03*
%TO.P,U1,27,GPA6_27*%
%TO.N,/Volatge 5v sence*%
X93560000Y-133200000D03*
%TO.P,U1,28,GPA7_28*%
%TO.N,unconnected-(U1-GPA7-Pad28)*%
X96100000Y-133200000D03*
%TD*%
%TO.P,R7,1*%
%TO.N,+3.3V*%
X126107418Y-72590000D03*
%TO.P,R7,2*%
%TO.N,/I2C SDA*%
X126107418Y-80210000D03*
%TD*%
%TO.P,C11,1*%
%TO.N,GND*%
X76300000Y-70100000D03*
%TO.P,C11,2*%
%TO.N,+3.3V*%
X81300000Y-70100000D03*
%TD*%
%TO.P,R17,1*%
%TO.N,/ZIF_7*%
X120491239Y-114612741D03*
%TO.P,R17,2*%
%TO.N,/GP_8*%
X120491239Y-106992741D03*
%TD*%
%TO.P,R4,1*%
%TO.N,/RGB red*%
X95900000Y-114280000D03*
%TO.P,R4,2*%
%TO.N,Net-(U1-GPB0)*%
X95900000Y-121900000D03*
%TD*%
D19*
%TO.P,J3,1*%
%TO.N,Net-(F1-Pad1)*%
X79690000Y-50230000D03*
D20*
%TO.P,J3,2*%
%TO.N,GND*%
X79690000Y-44230000D03*
D21*
%TO.P,J3,3*%
%TO.N,unconnected-(J3-Pad3)*%
X74990000Y-47230000D03*
%TD*%
D10*
%TO.P,R31,1*%
%TO.N,/ZIF_13*%
X139096120Y-114590000D03*
%TO.P,R31,2*%
%TO.N,/GP_14*%
X139096120Y-106970000D03*
%TD*%
D22*
%TO.P,F1,1*%
%TO.N,Net-(F1-Pad1)*%
X69000000Y-47540000D03*
%TO.P,F1,2*%
%TO.N,Net-(D2-A)*%
X69010000Y-42460000D03*
%TD*%
D14*
%TO.P,SW4,1,A_1*%
%TO.N,unconnected-(SW4-A-Pad1)*%
X70740000Y-52500000D03*
D15*
%TO.P,SW4,2,B_2*%
%TO.N,Net-(D2-K)*%
X68200000Y-52500000D03*
%TO.P,SW4,3,C_3*%
%TO.N,+5V*%
X65660000Y-52500000D03*
%TD*%
D10*
%TO.P,R14,1*%
%TO.N,/ZIF_4*%
X111200000Y-114620000D03*
%TO.P,R14,2*%
%TO.N,/GP_5*%
X111200000Y-107000000D03*
%TD*%
%TO.P,R32,1*%
%TO.N,/ZIF_12*%
X135980000Y-114590000D03*
%TO.P,R32,2*%
%TO.N,/GP_13*%
X135980000Y-106970000D03*
%TD*%
%TO.P,R16,1*%
%TO.N,/ZIF_6*%
X117400000Y-114610000D03*
%TO.P,R16,2*%
%TO.N,/GP_7*%
X117400000Y-106990000D03*
%TD*%
%TO.P,C2,1*%
%TO.N,+3.3V*%
X111500000Y-75150000D03*
%TO.P,C2,2*%
%TO.N,GND*%
X116500000Y-75150000D03*
%TD*%
D18*
%TO.P,C12,1*%
%TO.N,/ZIF_20*%
X155000000Y-42097349D03*
D10*
%TO.P,C12,2*%
%TO.N,GND*%
X155000000Y-47097349D03*
%TD*%
%TO.P,R11,1*%
%TO.N,GND*%
X68100000Y-64010000D03*
%TO.P,R11,2*%
%TO.N,Net-(D3-K)*%
X68100000Y-56390000D03*
%TD*%
%TO.P,C7,1*%
%TO.N,GND*%
X132810000Y-65030000D03*
%TO.P,C7,2*%
%TO.N,/Encoder_B*%
X132810000Y-70030000D03*
%TD*%
%TO.P,R24,1*%
%TO.N,/ZIF_20*%
X139100000Y-72590000D03*
%TO.P,R24,2*%
%TO.N,/GP_21*%
X139100000Y-80210000D03*
%TD*%
D23*
%TO.P,A1,1,GPIO0_1*%
%TO.N,/GP_2*%
X101624028Y-102493797D03*
D10*
%TO.P,A1,2,GPIO1_2*%
%TO.N,/GP_3*%
X104164028Y-102493797D03*
D24*
%TO.P,A1,3,GND_3*%
%TO.N,GND*%
X106704028Y-102493797D03*
D10*
%TO.P,A1,4,GPIO2_4*%
%TO.N,/GP_4*%
X109244028Y-102493797D03*
%TO.P,A1,5,GPIO3_5*%
%TO.N,/GP_5*%
X111784028Y-102493797D03*
%TO.P,A1,6,GPIO4_6*%
%TO.N,/GP_6*%
X114324028Y-102493797D03*
%TO.P,A1,7,GPIO5_7*%
%TO.N,/GP_7*%
X116864028Y-102493797D03*
D24*
%TO.P,A1,8,GND_8*%
%TO.N,GND*%
X119404028Y-102493797D03*
D10*
%TO.P,A1,9,GPIO6_9*%
%TO.N,/GP_8*%
X121944028Y-102493797D03*
%TO.P,A1,10,GPIO7_10*%
%TO.N,/GP_9*%
X124484028Y-102493797D03*
%TO.P,A1,11,GPIO8_11*%
%TO.N,/GP_10*%
X127024028Y-102493797D03*
%TO.P,A1,12,GPIO9_12*%
%TO.N,/GP_11*%
X129564028Y-102493797D03*
D24*
%TO.P,A1,13,GND_13*%
%TO.N,GND*%
X132104028Y-102493797D03*
D10*
%TO.P,A1,14,GPIO10_14*%
%TO.N,/GP_12*%
X134644028Y-102493797D03*
%TO.P,A1,15,GPIO11_15*%
%TO.N,/GP_13*%
X137184028Y-102493797D03*
%TO.P,A1,16,GPIO12_16*%
%TO.N,/GP_14*%
X139724028Y-102493797D03*
%TO.P,A1,17,GPIO13_17*%
%TO.N,/GP_15*%
X142264028Y-102493797D03*
D24*
%TO.P,A1,18,GND_18*%
%TO.N,GND*%
X144804028Y-102493797D03*
D10*
%TO.P,A1,19,GPIO14_19*%
%TO.N,/GP_16*%
X147344028Y-102493797D03*
%TO.P,A1,20,GPIO15_20*%
%TO.N,/GP_17*%
X149884028Y-102493797D03*
%TO.P,A1,21,GPIO16_21*%
%TO.N,/GP_18*%
X149884028Y-84713797D03*
%TO.P,A1,22,GPIO17_22*%
%TO.N,/GP_19*%
X147344028Y-84713797D03*
D25*
%TO.P,A1,23,GND_23*%
%TO.N,GND*%
X144804028Y-84713797D03*
D10*
%TO.P,A1,24,GPIO18_24*%
%TO.N,/GP_20*%
X142264028Y-84713797D03*
%TO.P,A1,25,GPIO19_25*%
%TO.N,/GP_21*%
X139724028Y-84713797D03*
%TO.P,A1,26,GPIO20_26*%
%TO.N,/Encoder_A*%
X137184028Y-84713797D03*
%TO.P,A1,27,GPIO21_27*%
%TO.N,/Encoder_B*%
X134644028Y-84713797D03*
D25*
%TO.P,A1,28,GND_28*%
%TO.N,GND*%
X132104028Y-84713797D03*
D10*
%TO.P,A1,29,GPIO22_29*%
%TO.N,/Encoder SW*%
X129564028Y-84713797D03*
%TO.P,A1,30,RUN_30*%
%TO.N,unconnected-(A1-RUN-Pad30)*%
X127024028Y-84713797D03*
%TO.P,A1,31,GPIO26_ADC0_31*%
%TO.N,/I2C SDA*%
X124484028Y-84713797D03*
%TO.P,A1,32,GPIO27_ADC1_32*%
%TO.N,/I2C SCL*%
X121944028Y-84713797D03*
D25*
%TO.P,A1,33,AGND_33*%
%TO.N,GND*%
X119404028Y-84713797D03*
D10*
%TO.P,A1,34,GPIO28_ADC2_34*%
%TO.N,/extra_gpio28*%
X116864028Y-84713797D03*
%TO.P,A1,35,ADC_VREF_35*%
%TO.N,unconnected-(A1-ADC_VREF-Pad35)*%
X114324028Y-84713797D03*
%TO.P,A1,36,3V3_36*%
%TO.N,unconnected-(A1-3V3-Pad36)*%
X111784028Y-84713797D03*
%TO.P,A1,37,3V3_EN_37*%
%TO.N,unconnected-(A1-3V3_EN-Pad37)*%
X109244028Y-84713797D03*
D25*
%TO.P,A1,38,GND_38*%
%TO.N,GND*%
X106704028Y-84713797D03*
D10*
%TO.P,A1,39,VSYS_39*%
%TO.N,+5V*%
X104164028Y-84713797D03*
%TO.P,A1,40,VBUS_40*%
%TO.N,unconnected-(A1-VBUS-Pad40)*%
X101624028Y-84713797D03*
%TD*%
D14*
%TO.P,J8,1,Pin_1_1*%
%TO.N,/ZIF_17*%
X148060000Y-45800000D03*
D15*
%TO.P,J8,2,Pin_2_2*%
%TO.N,/ZIF_18*%
X145520000Y-45800000D03*
%TO.P,J8,3,Pin_3_3*%
%TO.N,/ZIF_19*%
X142980000Y-45800000D03*
%TO.P,J8,4,Pin_4_4*%
%TO.N,/ZIF_20*%
X140440000Y-45800000D03*
%TO.P,J8,5,Pin_5_5*%
%TO.N,/I2C SDA*%
X137900000Y-45800000D03*
%TO.P,J8,6,Pin_6_6*%
%TO.N,/I2C SCL*%
X135360000Y-45800000D03*
%TO.P,J8,7,Pin_7_7*%
%TO.N,/RGB red*%
X132820000Y-45800000D03*
%TO.P,J8,8,Pin_8_8*%
%TO.N,/RGB green*%
X130280000Y-45800000D03*
%TO.P,J8,9,Pin_9_9*%
%TO.N,/RGB blue*%
X127740000Y-45800000D03*
%TO.P,J8,10,Pin_10_10*%
%TO.N,/Test {slash} enter Button*%
X125200000Y-45800000D03*
%TO.P,J8,11,Pin_11_11*%
%TO.N,/Pezzio*%
X122660000Y-45800000D03*
%TO.P,J8,12,Pin_12_12*%
%TO.N,/Encoder_A*%
X120120000Y-45800000D03*
%TO.P,J8,13,Pin_13_13*%
%TO.N,/Encoder_B*%
X117580000Y-45800000D03*
%TO.P,J8,14,Pin_14_14*%
%TO.N,/Encoder SW*%
X115040000Y-45800000D03*
%TO.P,J8,15,Pin_15_15*%
%TO.N,/extra_gpio28*%
X112500000Y-45800000D03*
%TO.P,J8,16,Pin_16_16*%
%TO.N,/Next {slash} select Button*%
X109960000Y-45800000D03*
%TD*%
D10*
%TO.P,R28,1*%
%TO.N,/ZIF_16*%
X148396120Y-114590000D03*
%TO.P,R28,2*%
%TO.N,/GP_17*%
X148396120Y-106970000D03*
%TD*%
D14*
%TO.P,J7,1,Pin_1_1*%
%TO.N,/ZIF_1*%
X110216917Y-131864655D03*
D15*
%TO.P,J7,2,Pin_2_2*%
%TO.N,/ZIF_2*%
X112756917Y-131864655D03*
%TO.P,J7,3,Pin_3_3*%
%TO.N,/ZIF_3*%
X115296917Y-131864655D03*
%TO.P,J7,4,Pin_4_4*%
%TO.N,/ZIF_4*%
X117836917Y-131864655D03*
%TO.P,J7,5,Pin_5_5*%
%TO.N,/ZIF_5*%
X120376917Y-131864655D03*
%TO.P,J7,6,Pin_6_6*%
%TO.N,/ZIF_6*%
X122916917Y-131864655D03*
%TO.P,J7,7,Pin_7_7*%
%TO.N,/ZIF_7*%
X125456917Y-131864655D03*
%TO.P,J7,8,Pin_8_8*%
%TO.N,/ZIF_8*%
X127996917Y-131864655D03*
%TO.P,J7,9,Pin_9_9*%
%TO.N,/ZIF_9*%
X130536917Y-131864655D03*
%TO.P,J7,10,Pin_10_10*%
%TO.N,/ZIF_10*%
X133076917Y-131864655D03*
%TO.P,J7,11,Pin_11_11*%
%TO.N,/ZIF_11*%
X135616917Y-131864655D03*
%TO.P,J7,12,Pin_12_12*%
%TO.N,/ZIF_12*%
X138156917Y-131864655D03*
%TO.P,J7,13,Pin_13_13*%
%TO.N,/ZIF_13*%
X140696917Y-131864655D03*
%TO.P,J7,14,Pin_14_14*%
%TO.N,/ZIF_14*%
X143236917Y-131864655D03*
%TO.P,J7,15,Pin_15_15*%
%TO.N,/ZIF_15*%
X145776917Y-131864655D03*
%TO.P,J7,16,Pin_16_16*%
%TO.N,/ZIF_16*%
X148316917Y-131864655D03*
%TD*%
D10*
%TO.P,R19,1*%
%TO.N,/ZIF_9*%
X126691239Y-114612741D03*
%TO.P,R19,2*%
%TO.N,/GP_10*%
X126691239Y-106992741D03*
%TD*%
%TO.P,C10,1*%
%TO.N,GND*%
X76300000Y-66050000D03*
%TO.P,C10,2*%
%TO.N,+3.3V*%
X81300000Y-66050000D03*
%TD*%
D22*
%TO.P,SW3,1,1_1*%
%TO.N,/Test {slash} enter Button*%
X104000000Y-42400000D03*
X104000000Y-48900000D03*
%TO.P,SW3,2,2_2*%
%TO.N,GND*%
X99500000Y-42400000D03*
X99500000Y-48900000D03*
%TD*%
D10*
%TO.P,C4,1*%
%TO.N,GND*%
X72000000Y-62900000D03*
%TO.P,C4,2*%
%TO.N,+5V*%
X72000000Y-57900000D03*
%TD*%
%TO.P,R9,1*%
%TO.N,Net-(J4-Pin_2)*%
X140500000Y-56600000D03*
%TO.P,R9,2*%
%TO.N,/ZIF_20*%
X140500000Y-48980000D03*
%TD*%
D14*
%TO.P,J6,1,Pin_1_1*%
%TO.N,+5V*%
X63460000Y-78940000D03*
D15*
%TO.P,J6,2,Pin_2_2*%
%TO.N,+3.3V*%
X66000000Y-78940000D03*
%TO.P,J6,3,Pin_3_3*%
%TO.N,unconnected-(J6-Pin_3-Pad3)*%
X63460000Y-81480000D03*
%TO.P,J6,4,Pin_4_4*%
%TO.N,unconnected-(J6-Pin_4-Pad4)*%
X66000000Y-81480000D03*
%TO.P,J6,5,Pin_5_5*%
%TO.N,GND*%
X63460000Y-84020000D03*
%TO.P,J6,6,Pin_6_6*%
X66000000Y-84020000D03*
%TO.P,J6,7,Pin_7_7*%
%TO.N,+5V*%
X63460000Y-86560000D03*
%TO.P,J6,8,Pin_8_8*%
%TO.N,+3.3V*%
X66000000Y-86560000D03*
%TO.P,J6,9,Pin_9_9*%
%TO.N,unconnected-(J6-Pin_9-Pad9)*%
X63460000Y-89100000D03*
%TO.P,J6,10,Pin_10_10*%
%TO.N,unconnected-(J6-Pin_10-Pad10)*%
X66000000Y-89100000D03*
%TO.P,J6,11,Pin_11_11*%
%TO.N,GND*%
X63460000Y-91640000D03*
%TO.P,J6,12,Pin_12_12*%
X66000000Y-91640000D03*
%TO.P,J6,13,Pin_13_13*%
%TO.N,+5V*%
X63460000Y-94180000D03*
%TO.P,J6,14,Pin_14_14*%
%TO.N,+3.3V*%
X66000000Y-94180000D03*
%TO.P,J6,15,Pin_15_15*%
%TO.N,unconnected-(J6-Pin_15-Pad15)*%
X63460000Y-96720000D03*
%TO.P,J6,16,Pin_16_16*%
%TO.N,unconnected-(J6-Pin_16-Pad16)*%
X66000000Y-96720000D03*
%TO.P,J6,17,Pin_17_17*%
%TO.N,GND*%
X63460000Y-99260000D03*
%TO.P,J6,18,Pin_18_18*%
X66000000Y-99260000D03*
%TO.P,J6,19,Pin_19_19*%
%TO.N,unconnected-(J6-Pin_19-Pad19)*%
X63460000Y-101800000D03*
%TO.P,J6,20,Pin_20_20*%
%TO.N,unconnected-(J6-Pin_20-Pad20)*%
X66000000Y-101800000D03*
%TD*%
D10*
%TO.P,R30,1*%
%TO.N,/ZIF_14*%
X142196120Y-114590000D03*
%TO.P,R30,2*%
%TO.N,/GP_15*%
X142196120Y-106970000D03*
%TD*%
%TO.P,R5,1*%
%TO.N,/RGB green*%
X92700000Y-114280000D03*
%TO.P,R5,2*%
%TO.N,Net-(U1-GPB1)*%
X92700000Y-121900000D03*
%TD*%
D26*
%TO.P,D3,1,K_1*%
%TO.N,Net-(D3-K)*%
X64170000Y-59800000D03*
D27*
%TO.P,D3,2,A_2*%
%TO.N,+5V*%
X61630000Y-59800000D03*
%TD*%
D10*
%TO.P,R26,1*%
%TO.N,/ZIF_18*%
X145300000Y-72590000D03*
%TO.P,R26,2*%
%TO.N,/GP_19*%
X145300000Y-80210000D03*
%TD*%
%TO.P,C1,1*%
%TO.N,+3.3V*%
X75600000Y-122300000D03*
%TO.P,C1,2*%
%TO.N,GND*%
X70600000Y-122300000D03*
%TD*%
%TO.P,R6,1*%
%TO.N,/RGB blue*%
X89500000Y-114280000D03*
%TO.P,R6,2*%
%TO.N,Net-(U1-GPB2)*%
X89500000Y-121900000D03*
%TD*%
%TO.P,R13,1*%
%TO.N,/Encoder_B*%
X132900000Y-80210000D03*
%TO.P,R13,2*%
%TO.N,+3.3V*%
X132900000Y-72590000D03*
%TD*%
%TO.P,R3,1*%
%TO.N,Net-(Q1-B)*%
X80810000Y-116900000D03*
%TO.P,R3,2*%
%TO.N,GND*%
X73190000Y-116900000D03*
%TD*%
%TO.P,R25,1*%
%TO.N,/ZIF_19*%
X142200000Y-72590000D03*
%TO.P,R25,2*%
%TO.N,/GP_20*%
X142200000Y-80210000D03*
%TD*%
%TO.P,R21,1*%
%TO.N,/ZIF_1*%
X101891239Y-114612741D03*
%TO.P,R21,2*%
%TO.N,/GP_2*%
X101891239Y-106992741D03*
%TD*%
%TO.P,R12,1*%
%TO.N,/Encoder_A*%
X136000000Y-80210000D03*
%TO.P,R12,2*%
%TO.N,+3.3V*%
X136000000Y-72590000D03*
%TD*%
%TO.P,R22,1*%
%TO.N,/ZIF_2*%
X105000000Y-114620000D03*
%TO.P,R22,2*%
%TO.N,/GP_3*%
X105000000Y-107000000D03*
%TD*%
%TO.P,R33,1*%
%TO.N,/ZIF_11*%
X132880000Y-114590000D03*
%TO.P,R33,2*%
%TO.N,/GP_12*%
X132880000Y-106970000D03*
%TD*%
%TO.P,R27,1*%
%TO.N,/ZIF_17*%
X148400000Y-72590000D03*
%TO.P,R27,2*%
%TO.N,/GP_18*%
X148400000Y-80210000D03*
%TD*%
%TO.P,R23,1*%
%TO.N,/ZIF_3*%
X108093077Y-114620000D03*
%TO.P,R23,2*%
%TO.N,/GP_4*%
X108093077Y-107000000D03*
%TD*%
%TO.P,R18,1*%
%TO.N,/ZIF_8*%
X123591239Y-114612741D03*
%TO.P,R18,2*%
%TO.N,/GP_9*%
X123591239Y-106992741D03*
%TD*%
D28*
%TO.N,GND*%
X120850000Y-122900000D03*
X113420000Y-122900000D03*
X145500000Y-66057500D03*
X155512500Y-75670000D03*
X106530000Y-122900000D03*
X156600000Y-114210000D03*
X128140000Y-122900000D03*
X155502500Y-80080000D03*
X135470000Y-122900000D03*
X141550000Y-66120000D03*
X147610000Y-122900000D03*
X100897715Y-122897715D03*
X142720000Y-122900000D03*
%TO.N,+3.3V*%
X145950000Y-121380000D03*
X155130000Y-114120000D03*
X117200000Y-121410000D03*
X127910000Y-121450000D03*
X155070000Y-110210000D03*
X135100000Y-121450000D03*
X149520000Y-121410000D03*
X155512500Y-78150000D03*
X113590000Y-121400000D03*
X131540000Y-121460000D03*
X109970000Y-121410000D03*
X155522500Y-73780000D03*
X138720000Y-121390000D03*
X140410000Y-65100000D03*
X106410000Y-121397120D03*
X120830000Y-121470000D03*
X124360000Y-121410000D03*
X102800000Y-121460000D03*
X142310000Y-121390000D03*
%TO.N,/I2C SCL*%
X68230000Y-112230000D03*
%TO.N,/Next {slash} select Button*%
X110050000Y-59630000D03*
%TO.N,/Test {slash} enter Button*%
X92435735Y-78225735D03*
%TO.N,/extra_gpio28*%
X112510000Y-66560000D03*
%TD*%
%TO.N,/ZIF_15*%
D29*
X145776917Y-131864655D02*
X145296120Y-131383858D01*
X145296120Y-131383858D02*
X145296120Y-114590000D01*
%TO.N,/ZIF_20*%
X139100000Y-72590000D02*
X139100000Y-50380000D01*
X139100000Y-50380000D02*
X140500000Y-48980000D01*
%TO.N,Net-(Q1-B)*%
X80810000Y-113790000D02*
X81000000Y-113600000D01*
%TO.N,/Pezzio*%
X122660000Y-45990000D02*
X122660000Y-45800000D01*
X110210000Y-58450000D02*
X110210000Y-58440000D01*
X110210000Y-58440000D02*
X122660000Y-45990000D01*
X78460000Y-111060000D02*
X78460000Y-90200000D01*
X78460000Y-90200000D02*
X110210000Y-58450000D01*
%TO.N,/Encoder_A*%
X136000000Y-80210000D02*
X134360000Y-78570000D01*
X134360000Y-71640000D02*
X135960000Y-70040000D01*
X134360000Y-78570000D02*
X134360000Y-71640000D01*
%TO.N,/ZIF_5*%
X114740000Y-126227738D02*
X114740000Y-115065193D01*
X114740000Y-115065193D02*
X114294807Y-114620000D01*
X120376917Y-131864655D02*
X114740000Y-126227738D01*
%TO.N,/ZIF_10*%
X129784357Y-128572095D02*
X129784357Y-114594847D01*
X133076917Y-131864655D02*
X129784357Y-128572095D01*
%TO.N,/ZIF_8*%
X123591239Y-127458977D02*
X123591239Y-114612741D01*
X127996917Y-131864655D02*
X123591239Y-127458977D01*
%TO.N,/Package 14 sence*%
X155025000Y-132940000D02*
X152030000Y-132940000D01*
X104141372Y-130730000D02*
X85870000Y-130730000D01*
X85870000Y-130730000D02*
X83400000Y-133200000D01*
X149870000Y-135100000D02*
X108511372Y-135100000D01*
X108511372Y-135100000D02*
X104141372Y-130730000D01*
X152030000Y-132940000D02*
X149870000Y-135100000D01*
X156265000Y-131700000D02*
X155025000Y-132940000D01*
%TO.N,/ZIF_7*%
X119970000Y-114880000D02*
X120237259Y-114612741D01*
X125456917Y-131864655D02*
X119970000Y-126377738D01*
X120237259Y-114612741D02*
X120491239Y-114612741D01*
X119970000Y-126377738D02*
X119970000Y-114880000D01*
%TO.N,/<NO NET>*%
X155005000Y-135500000D02*
X156265000Y-134240000D01*
X88010000Y-131130000D02*
X103975686Y-131130000D01*
X108345687Y-135500000D02*
X155005000Y-135500000D01*
X103975686Y-131130000D02*
X108345687Y-135500000D01*
X85940000Y-133200000D02*
X88010000Y-131130000D01*
%TO.N,/Package 20 sence*%
X154710000Y-138370000D02*
X156265000Y-136815000D01*
X156265000Y-136815000D02*
X156265000Y-136780000D01*
X149860000Y-135900000D02*
X152330000Y-138370000D01*
X88480000Y-133200000D02*
X90150000Y-131530000D01*
X152330000Y-138370000D02*
X154710000Y-138370000D01*
X90150000Y-131530000D02*
X103810000Y-131530000D01*
X108180002Y-135900000D02*
X149860000Y-135900000D01*
X103810000Y-131530000D02*
X108180002Y-135900000D01*
%TO.N,/I2C SCL*%
X135380000Y-58844314D02*
X135380000Y-45820000D01*
X122989303Y-80195859D02*
X122989303Y-78575011D01*
X135380000Y-45820000D02*
X135360000Y-45800000D01*
X121944028Y-85155972D02*
X121944028Y-84713797D01*
X122989303Y-78575011D02*
X130030000Y-71534314D01*
X121944028Y-84614028D02*
X122989303Y-83568753D01*
X130030000Y-64194314D02*
X135380000Y-58844314D01*
X122989303Y-83568753D02*
X122989303Y-80195859D01*
X68160000Y-112300000D02*
X68230000Y-112230000D01*
X68160000Y-125580000D02*
X68160000Y-112300000D01*
X130030000Y-71534314D02*
X130030000Y-64194314D01*
X121944028Y-84713797D02*
X121944028Y-84614028D01*
%TO.N,Net-(U1-GPB0)*%
X95900000Y-125380000D02*
X96100000Y-125580000D01*
%TO.N,/I2C SDA*%
X130430000Y-64360000D02*
X137660000Y-57130000D01*
X126140000Y-75990000D02*
X130430000Y-71700000D01*
X126140000Y-80177418D02*
X126140000Y-75990000D01*
X137660000Y-57130000D02*
X137660000Y-46040000D01*
X130430000Y-71700000D02*
X130430000Y-64360000D01*
X124484028Y-81833390D02*
X126107418Y-80210000D01*
X126107418Y-80210000D02*
X126140000Y-80177418D01*
X124484028Y-84713797D02*
X124484028Y-81833390D01*
X137660000Y-46040000D02*
X137900000Y-45800000D01*
%TO.N,/Next {slash} select Button*%
X110040000Y-59630000D02*
X110050000Y-59630000D01*
X79560000Y-131960000D02*
X79560000Y-90110000D01*
X79560000Y-90110000D02*
X110040000Y-59630000D01*
X78320000Y-133200000D02*
X79560000Y-131960000D01*
%TO.N,/Test {slash} enter Button*%
X84690000Y-85980000D02*
X84690000Y-129370000D01*
X84690000Y-129370000D02*
X80860000Y-133200000D01*
X92435735Y-78225735D02*
X92435735Y-78234265D01*
X92435735Y-78234265D02*
X84690000Y-85980000D01*
%TO.N,/RGB red*%
X124280000Y-48510000D02*
X126161372Y-48510000D01*
X126641372Y-48030000D02*
X128615686Y-48030000D01*
X126161372Y-48510000D02*
X126641372Y-48030000D01*
X95900000Y-114280000D02*
X95900000Y-76890000D01*
X95900000Y-76890000D02*
X124280000Y-48510000D01*
X128615686Y-48030000D02*
X129015686Y-47630000D01*
X129015686Y-47630000D02*
X130990000Y-47630000D01*
X130990000Y-47630000D02*
X132820000Y-45800000D01*
%TO.N,/ZIF_13*%
X140696917Y-131864655D02*
X140696917Y-116190797D01*
X140696917Y-116190797D02*
X139096120Y-114590000D01*
%TO.N,/ZIF_4*%
X111510000Y-125537738D02*
X111510000Y-114930000D01*
X111510000Y-114930000D02*
X111200000Y-114620000D01*
X117836917Y-131864655D02*
X111510000Y-125537738D01*
%TO.N,/ZIF_12*%
X137306917Y-131014655D02*
X137306917Y-115916917D01*
X138156917Y-131864655D02*
X137306917Y-131014655D01*
X137306917Y-115916917D02*
X135980000Y-114590000D01*
%TO.N,/ZIF_6*%
X118220000Y-127167738D02*
X118220000Y-115430000D01*
X118220000Y-115430000D02*
X117400000Y-114610000D01*
X122916917Y-131864655D02*
X118220000Y-127167738D01*
%TO.N,/extra_gpio28*%
X118380000Y-80880000D02*
X118380000Y-72430000D01*
X118380000Y-72430000D02*
X112510000Y-66560000D01*
X116864028Y-82395972D02*
X118380000Y-80880000D01*
X116864028Y-84713797D02*
X116864028Y-82395972D01*
%TO.N,/ZIF_17*%
X148400000Y-72590000D02*
X148400000Y-46140000D01*
X148400000Y-46140000D02*
X148060000Y-45800000D01*
%TO.N,/ZIF_18*%
X145520000Y-71860000D02*
X146250000Y-71130000D01*
X146250000Y-47790000D02*
X145520000Y-47060000D01*
X145520000Y-72370000D02*
X145520000Y-71860000D01*
X145520000Y-47060000D02*
X145520000Y-45800000D01*
X146250000Y-71130000D02*
X146250000Y-47790000D01*
X145300000Y-72590000D02*
X145520000Y-72370000D01*
%TO.N,/ZIF_19*%
X142980000Y-71810000D02*
X142980000Y-45800000D01*
X142200000Y-72590000D02*
X142980000Y-71810000D01*
%TO.N,/RGB green*%
X128450000Y-47630000D02*
X130280000Y-45800000D01*
X125995686Y-48110000D02*
X126475686Y-47630000D01*
X110480000Y-61595686D02*
X110484314Y-61595686D01*
X126475686Y-47630000D02*
X128450000Y-47630000D01*
X92700000Y-114280000D02*
X92700000Y-79375686D01*
X110484314Y-61595686D02*
X123970000Y-48110000D01*
X123970000Y-48110000D02*
X125995686Y-48110000D01*
X92700000Y-79375686D02*
X110480000Y-61595686D01*
%TO.N,/RGB blue*%
X114424314Y-57090000D02*
X123804314Y-47710000D01*
X125830000Y-47710000D02*
X127740000Y-45800000D01*
X89500000Y-82010000D02*
X114420000Y-57090000D01*
X114420000Y-57090000D02*
X114424314Y-57090000D01*
X123804314Y-47710000D02*
X125830000Y-47710000D01*
X89500000Y-114280000D02*
X89500000Y-82010000D01*
%TO.N,/ZIF_16*%
X148316917Y-131864655D02*
X148316917Y-114669203D01*
X148316917Y-114669203D02*
X148396120Y-114590000D01*
%TO.N,/ZIF_1*%
X110216917Y-131864655D02*
X101891239Y-123538977D01*
X101891239Y-123538977D02*
X101891239Y-114612741D01*
%TO.N,/ZIF_2*%
X105000000Y-124107738D02*
X105000000Y-114620000D01*
X112756917Y-131864655D02*
X105000000Y-124107738D01*
%TO.N,/ZIF_3*%
X115296917Y-131436917D02*
X108093077Y-124233077D01*
X115296917Y-131864655D02*
X115296917Y-131436917D01*
X108093077Y-124233077D02*
X108093077Y-114620000D01*
%TO.N,/ZIF_9*%
X130536917Y-131864655D02*
X126691239Y-128018977D01*
X126691239Y-128018977D02*
X126691239Y-114612741D01*
%TO.N,/ZIF_11*%
X132880000Y-129127738D02*
X132880000Y-114590000D01*
X135616917Y-131864655D02*
X132880000Y-129127738D01*
%TO.N,/ZIF_14*%
X144086917Y-131014655D02*
X144086917Y-116480797D01*
X143236917Y-131864655D02*
X144086917Y-131014655D01*
X144086917Y-116480797D02*
X142196120Y-114590000D01*
%TD*%
M02*
