%TF.GenerationSoftware,KiCad,Pcbnew,10.0.0*%
%TF.CreationDate,2026-07-30T19:28:18+12:00*%
%TF.ProjectId,OD-PT74,4f442d50-5437-4342-9e6b-696361645f70,Rev-c*%
%TF.SameCoordinates,Original*%
%TF.FileFunction,Legend,Bot*%
%TF.FilePolarity,Positive*%
%FSLAX46Y46*%
G04 Gerber Fmt 4.6, Leading zero omitted, Abs format (unit mm)*
G04 Created by KiCad (PCBNEW 10.0.0) date 2026-07-30 19:28:18*
%MOMM*%
%LPD*%
G01*
G04 APERTURE LIST*
%ADD10C,0.400000*%
G04 APERTURE END LIST*
D10*
X130580652Y-50975110D02*
X130580652Y-48975110D01*
X130580652Y-48975110D02*
X129818747Y-48975110D01*
X129818747Y-48975110D02*
X129628271Y-49070348D01*
X129628271Y-49070348D02*
X129533033Y-49165586D01*
X129533033Y-49165586D02*
X129437795Y-49356062D01*
X129437795Y-49356062D02*
X129437795Y-49641776D01*
X129437795Y-49641776D02*
X129533033Y-49832252D01*
X129533033Y-49832252D02*
X129628271Y-49927491D01*
X129628271Y-49927491D02*
X129818747Y-50022729D01*
X129818747Y-50022729D02*
X130580652Y-50022729D01*
X128580652Y-50975110D02*
X128580652Y-49641776D01*
X128580652Y-48975110D02*
X128675890Y-49070348D01*
X128675890Y-49070348D02*
X128580652Y-49165586D01*
X128580652Y-49165586D02*
X128485414Y-49070348D01*
X128485414Y-49070348D02*
X128580652Y-48975110D01*
X128580652Y-48975110D02*
X128580652Y-49165586D01*
X126771128Y-50879872D02*
X126961604Y-50975110D01*
X126961604Y-50975110D02*
X127342557Y-50975110D01*
X127342557Y-50975110D02*
X127533033Y-50879872D01*
X127533033Y-50879872D02*
X127628271Y-50784633D01*
X127628271Y-50784633D02*
X127723509Y-50594157D01*
X127723509Y-50594157D02*
X127723509Y-50022729D01*
X127723509Y-50022729D02*
X127628271Y-49832252D01*
X127628271Y-49832252D02*
X127533033Y-49737014D01*
X127533033Y-49737014D02*
X127342557Y-49641776D01*
X127342557Y-49641776D02*
X126961604Y-49641776D01*
X126961604Y-49641776D02*
X126771128Y-49737014D01*
X125628271Y-50975110D02*
X125818747Y-50879872D01*
X125818747Y-50879872D02*
X125913985Y-50784633D01*
X125913985Y-50784633D02*
X126009223Y-50594157D01*
X126009223Y-50594157D02*
X126009223Y-50022729D01*
X126009223Y-50022729D02*
X125913985Y-49832252D01*
X125913985Y-49832252D02*
X125818747Y-49737014D01*
X125818747Y-49737014D02*
X125628271Y-49641776D01*
X125628271Y-49641776D02*
X125342556Y-49641776D01*
X125342556Y-49641776D02*
X125152080Y-49737014D01*
X125152080Y-49737014D02*
X125056842Y-49832252D01*
X125056842Y-49832252D02*
X124961604Y-50022729D01*
X124961604Y-50022729D02*
X124961604Y-50594157D01*
X124961604Y-50594157D02*
X125056842Y-50784633D01*
X125056842Y-50784633D02*
X125152080Y-50879872D01*
X125152080Y-50879872D02*
X125342556Y-50975110D01*
X125342556Y-50975110D02*
X125628271Y-50975110D01*
X122771127Y-48975110D02*
X121437794Y-48975110D01*
X121437794Y-48975110D02*
X122294937Y-50975110D01*
X119818746Y-49641776D02*
X119818746Y-50975110D01*
X120294937Y-48879872D02*
X120771127Y-50308443D01*
X120771127Y-50308443D02*
X119533032Y-50308443D01*
X118961603Y-50975110D02*
X117913984Y-49641776D01*
X118961603Y-49641776D02*
X117913984Y-50975110D01*
X117342555Y-50975110D02*
X116294936Y-49641776D01*
X117342555Y-49641776D02*
X116294936Y-50975110D01*
X114294935Y-48975110D02*
X113152078Y-48975110D01*
X113723507Y-50975110D02*
X113723507Y-48975110D01*
X111723506Y-50879872D02*
X111913982Y-50975110D01*
X111913982Y-50975110D02*
X112294935Y-50975110D01*
X112294935Y-50975110D02*
X112485411Y-50879872D01*
X112485411Y-50879872D02*
X112580649Y-50689395D01*
X112580649Y-50689395D02*
X112580649Y-49927491D01*
X112580649Y-49927491D02*
X112485411Y-49737014D01*
X112485411Y-49737014D02*
X112294935Y-49641776D01*
X112294935Y-49641776D02*
X111913982Y-49641776D01*
X111913982Y-49641776D02*
X111723506Y-49737014D01*
X111723506Y-49737014D02*
X111628268Y-49927491D01*
X111628268Y-49927491D02*
X111628268Y-50117967D01*
X111628268Y-50117967D02*
X112580649Y-50308443D01*
X110866363Y-50879872D02*
X110675887Y-50975110D01*
X110675887Y-50975110D02*
X110294935Y-50975110D01*
X110294935Y-50975110D02*
X110104458Y-50879872D01*
X110104458Y-50879872D02*
X110009220Y-50689395D01*
X110009220Y-50689395D02*
X110009220Y-50594157D01*
X110009220Y-50594157D02*
X110104458Y-50403681D01*
X110104458Y-50403681D02*
X110294935Y-50308443D01*
X110294935Y-50308443D02*
X110580649Y-50308443D01*
X110580649Y-50308443D02*
X110771125Y-50213205D01*
X110771125Y-50213205D02*
X110866363Y-50022729D01*
X110866363Y-50022729D02*
X110866363Y-49927491D01*
X110866363Y-49927491D02*
X110771125Y-49737014D01*
X110771125Y-49737014D02*
X110580649Y-49641776D01*
X110580649Y-49641776D02*
X110294935Y-49641776D01*
X110294935Y-49641776D02*
X110104458Y-49737014D01*
X109437791Y-49641776D02*
X108675887Y-49641776D01*
X109152077Y-48975110D02*
X109152077Y-50689395D01*
X109152077Y-50689395D02*
X109056839Y-50879872D01*
X109056839Y-50879872D02*
X108866363Y-50975110D01*
X108866363Y-50975110D02*
X108675887Y-50975110D01*
X107247315Y-50879872D02*
X107437791Y-50975110D01*
X107437791Y-50975110D02*
X107818744Y-50975110D01*
X107818744Y-50975110D02*
X108009220Y-50879872D01*
X108009220Y-50879872D02*
X108104458Y-50689395D01*
X108104458Y-50689395D02*
X108104458Y-49927491D01*
X108104458Y-49927491D02*
X108009220Y-49737014D01*
X108009220Y-49737014D02*
X107818744Y-49641776D01*
X107818744Y-49641776D02*
X107437791Y-49641776D01*
X107437791Y-49641776D02*
X107247315Y-49737014D01*
X107247315Y-49737014D02*
X107152077Y-49927491D01*
X107152077Y-49927491D02*
X107152077Y-50117967D01*
X107152077Y-50117967D02*
X108104458Y-50308443D01*
X106294934Y-50975110D02*
X106294934Y-49641776D01*
X106294934Y-50022729D02*
X106199696Y-49832252D01*
X106199696Y-49832252D02*
X106104458Y-49737014D01*
X106104458Y-49737014D02*
X105913982Y-49641776D01*
X105913982Y-49641776D02*
X105723505Y-49641776D01*
X130580652Y-54194998D02*
X130580652Y-52194998D01*
X130580652Y-52194998D02*
X129913985Y-53623569D01*
X129913985Y-53623569D02*
X129247319Y-52194998D01*
X129247319Y-52194998D02*
X129247319Y-54194998D01*
X128009224Y-54194998D02*
X128199700Y-54099760D01*
X128199700Y-54099760D02*
X128294938Y-54004521D01*
X128294938Y-54004521D02*
X128390176Y-53814045D01*
X128390176Y-53814045D02*
X128390176Y-53242617D01*
X128390176Y-53242617D02*
X128294938Y-53052140D01*
X128294938Y-53052140D02*
X128199700Y-52956902D01*
X128199700Y-52956902D02*
X128009224Y-52861664D01*
X128009224Y-52861664D02*
X127723509Y-52861664D01*
X127723509Y-52861664D02*
X127533033Y-52956902D01*
X127533033Y-52956902D02*
X127437795Y-53052140D01*
X127437795Y-53052140D02*
X127342557Y-53242617D01*
X127342557Y-53242617D02*
X127342557Y-53814045D01*
X127342557Y-53814045D02*
X127437795Y-54004521D01*
X127437795Y-54004521D02*
X127533033Y-54099760D01*
X127533033Y-54099760D02*
X127723509Y-54194998D01*
X127723509Y-54194998D02*
X128009224Y-54194998D01*
X125628271Y-54194998D02*
X125628271Y-52194998D01*
X125628271Y-54099760D02*
X125818747Y-54194998D01*
X125818747Y-54194998D02*
X126199700Y-54194998D01*
X126199700Y-54194998D02*
X126390176Y-54099760D01*
X126390176Y-54099760D02*
X126485414Y-54004521D01*
X126485414Y-54004521D02*
X126580652Y-53814045D01*
X126580652Y-53814045D02*
X126580652Y-53242617D01*
X126580652Y-53242617D02*
X126485414Y-53052140D01*
X126485414Y-53052140D02*
X126390176Y-52956902D01*
X126390176Y-52956902D02*
X126199700Y-52861664D01*
X126199700Y-52861664D02*
X125818747Y-52861664D01*
X125818747Y-52861664D02*
X125628271Y-52956902D01*
X123913985Y-54099760D02*
X124104461Y-54194998D01*
X124104461Y-54194998D02*
X124485414Y-54194998D01*
X124485414Y-54194998D02*
X124675890Y-54099760D01*
X124675890Y-54099760D02*
X124771128Y-53909283D01*
X124771128Y-53909283D02*
X124771128Y-53147379D01*
X124771128Y-53147379D02*
X124675890Y-52956902D01*
X124675890Y-52956902D02*
X124485414Y-52861664D01*
X124485414Y-52861664D02*
X124104461Y-52861664D01*
X124104461Y-52861664D02*
X123913985Y-52956902D01*
X123913985Y-52956902D02*
X123818747Y-53147379D01*
X123818747Y-53147379D02*
X123818747Y-53337855D01*
X123818747Y-53337855D02*
X124771128Y-53528331D01*
X122675890Y-54194998D02*
X122866366Y-54099760D01*
X122866366Y-54099760D02*
X122961604Y-53909283D01*
X122961604Y-53909283D02*
X122961604Y-52194998D01*
X121913985Y-54004521D02*
X121818747Y-54099760D01*
X121818747Y-54099760D02*
X121913985Y-54194998D01*
X121913985Y-54194998D02*
X122009223Y-54099760D01*
X122009223Y-54099760D02*
X121913985Y-54004521D01*
X121913985Y-54004521D02*
X121913985Y-54194998D01*
X121913985Y-52956902D02*
X121818747Y-53052140D01*
X121818747Y-53052140D02*
X121913985Y-53147379D01*
X121913985Y-53147379D02*
X122009223Y-53052140D01*
X122009223Y-53052140D02*
X121913985Y-52956902D01*
X121913985Y-52956902D02*
X121913985Y-53147379D01*
X119056842Y-52194998D02*
X118675889Y-52194998D01*
X118675889Y-52194998D02*
X118485413Y-52290236D01*
X118485413Y-52290236D02*
X118294937Y-52480712D01*
X118294937Y-52480712D02*
X118199699Y-52861664D01*
X118199699Y-52861664D02*
X118199699Y-53528331D01*
X118199699Y-53528331D02*
X118294937Y-53909283D01*
X118294937Y-53909283D02*
X118485413Y-54099760D01*
X118485413Y-54099760D02*
X118675889Y-54194998D01*
X118675889Y-54194998D02*
X119056842Y-54194998D01*
X119056842Y-54194998D02*
X119247318Y-54099760D01*
X119247318Y-54099760D02*
X119437794Y-53909283D01*
X119437794Y-53909283D02*
X119533032Y-53528331D01*
X119533032Y-53528331D02*
X119533032Y-52861664D01*
X119533032Y-52861664D02*
X119437794Y-52480712D01*
X119437794Y-52480712D02*
X119247318Y-52290236D01*
X119247318Y-52290236D02*
X119056842Y-52194998D01*
X117342556Y-54194998D02*
X117342556Y-52194998D01*
X117342556Y-52194998D02*
X116866366Y-52194998D01*
X116866366Y-52194998D02*
X116580651Y-52290236D01*
X116580651Y-52290236D02*
X116390175Y-52480712D01*
X116390175Y-52480712D02*
X116294937Y-52671188D01*
X116294937Y-52671188D02*
X116199699Y-53052140D01*
X116199699Y-53052140D02*
X116199699Y-53337855D01*
X116199699Y-53337855D02*
X116294937Y-53718807D01*
X116294937Y-53718807D02*
X116390175Y-53909283D01*
X116390175Y-53909283D02*
X116580651Y-54099760D01*
X116580651Y-54099760D02*
X116866366Y-54194998D01*
X116866366Y-54194998D02*
X117342556Y-54194998D01*
X115342556Y-53433093D02*
X113818747Y-53433093D01*
X112866366Y-54194998D02*
X112866366Y-52194998D01*
X112866366Y-52194998D02*
X112104461Y-52194998D01*
X112104461Y-52194998D02*
X111913985Y-52290236D01*
X111913985Y-52290236D02*
X111818747Y-52385474D01*
X111818747Y-52385474D02*
X111723509Y-52575950D01*
X111723509Y-52575950D02*
X111723509Y-52861664D01*
X111723509Y-52861664D02*
X111818747Y-53052140D01*
X111818747Y-53052140D02*
X111913985Y-53147379D01*
X111913985Y-53147379D02*
X112104461Y-53242617D01*
X112104461Y-53242617D02*
X112866366Y-53242617D01*
X111152080Y-52194998D02*
X110009223Y-52194998D01*
X110580652Y-54194998D02*
X110580652Y-52194998D01*
X109533032Y-52194998D02*
X108199699Y-52194998D01*
X108199699Y-52194998D02*
X109056842Y-54194998D01*
X106580651Y-52861664D02*
X106580651Y-54194998D01*
X107056842Y-52099760D02*
X107533032Y-53528331D01*
X107533032Y-53528331D02*
X106294937Y-53528331D01*
X129437795Y-57414886D02*
X130104462Y-56462505D01*
X130580652Y-57414886D02*
X130580652Y-55414886D01*
X130580652Y-55414886D02*
X129818747Y-55414886D01*
X129818747Y-55414886D02*
X129628271Y-55510124D01*
X129628271Y-55510124D02*
X129533033Y-55605362D01*
X129533033Y-55605362D02*
X129437795Y-55795838D01*
X129437795Y-55795838D02*
X129437795Y-56081552D01*
X129437795Y-56081552D02*
X129533033Y-56272028D01*
X129533033Y-56272028D02*
X129628271Y-56367267D01*
X129628271Y-56367267D02*
X129818747Y-56462505D01*
X129818747Y-56462505D02*
X130580652Y-56462505D01*
X127818747Y-57319648D02*
X128009223Y-57414886D01*
X128009223Y-57414886D02*
X128390176Y-57414886D01*
X128390176Y-57414886D02*
X128580652Y-57319648D01*
X128580652Y-57319648D02*
X128675890Y-57129171D01*
X128675890Y-57129171D02*
X128675890Y-56367267D01*
X128675890Y-56367267D02*
X128580652Y-56176790D01*
X128580652Y-56176790D02*
X128390176Y-56081552D01*
X128390176Y-56081552D02*
X128009223Y-56081552D01*
X128009223Y-56081552D02*
X127818747Y-56176790D01*
X127818747Y-56176790D02*
X127723509Y-56367267D01*
X127723509Y-56367267D02*
X127723509Y-56557743D01*
X127723509Y-56557743D02*
X128675890Y-56748219D01*
X127056842Y-56081552D02*
X126580652Y-57414886D01*
X126580652Y-57414886D02*
X126104461Y-56081552D01*
X125342556Y-56652981D02*
X123818747Y-56652981D01*
X121723509Y-57224409D02*
X121818747Y-57319648D01*
X121818747Y-57319648D02*
X122104461Y-57414886D01*
X122104461Y-57414886D02*
X122294937Y-57414886D01*
X122294937Y-57414886D02*
X122580652Y-57319648D01*
X122580652Y-57319648D02*
X122771128Y-57129171D01*
X122771128Y-57129171D02*
X122866366Y-56938695D01*
X122866366Y-56938695D02*
X122961604Y-56557743D01*
X122961604Y-56557743D02*
X122961604Y-56272028D01*
X122961604Y-56272028D02*
X122866366Y-55891076D01*
X122866366Y-55891076D02*
X122771128Y-55700600D01*
X122771128Y-55700600D02*
X122580652Y-55510124D01*
X122580652Y-55510124D02*
X122294937Y-55414886D01*
X122294937Y-55414886D02*
X122104461Y-55414886D01*
X122104461Y-55414886D02*
X121818747Y-55510124D01*
X121818747Y-55510124D02*
X121723509Y-55605362D01*
X128961604Y-59110964D02*
X129152081Y-59015726D01*
X129152081Y-59015726D02*
X129533033Y-59015726D01*
X129533033Y-59015726D02*
X129723509Y-59110964D01*
X129723509Y-59110964D02*
X129913985Y-59301440D01*
X129913985Y-59301440D02*
X130009223Y-59491916D01*
X130009223Y-59491916D02*
X130009223Y-59872869D01*
X130009223Y-59872869D02*
X129913985Y-60063345D01*
X129913985Y-60063345D02*
X129723509Y-60253821D01*
X129723509Y-60253821D02*
X129533033Y-60349059D01*
X129533033Y-60349059D02*
X129152081Y-60349059D01*
X129152081Y-60349059D02*
X128961604Y-60253821D01*
X129342557Y-58349059D02*
X129818747Y-58444297D01*
X129818747Y-58444297D02*
X130294938Y-58730012D01*
X130294938Y-58730012D02*
X130580652Y-59206202D01*
X130580652Y-59206202D02*
X130675890Y-59682393D01*
X130675890Y-59682393D02*
X130580652Y-60158583D01*
X130580652Y-60158583D02*
X130294938Y-60634774D01*
X130294938Y-60634774D02*
X129818747Y-60920488D01*
X129818747Y-60920488D02*
X129342557Y-61015726D01*
X129342557Y-61015726D02*
X128866366Y-60920488D01*
X128866366Y-60920488D02*
X128390176Y-60634774D01*
X128390176Y-60634774D02*
X128104462Y-60158583D01*
X128104462Y-60158583D02*
X128009223Y-59682393D01*
X128009223Y-59682393D02*
X128104462Y-59206202D01*
X128104462Y-59206202D02*
X128390176Y-58730012D01*
X128390176Y-58730012D02*
X128866366Y-58444297D01*
X128866366Y-58444297D02*
X129342557Y-58349059D01*
X125723509Y-58825250D02*
X125628271Y-58730012D01*
X125628271Y-58730012D02*
X125437795Y-58634774D01*
X125437795Y-58634774D02*
X124961604Y-58634774D01*
X124961604Y-58634774D02*
X124771128Y-58730012D01*
X124771128Y-58730012D02*
X124675890Y-58825250D01*
X124675890Y-58825250D02*
X124580652Y-59015726D01*
X124580652Y-59015726D02*
X124580652Y-59206202D01*
X124580652Y-59206202D02*
X124675890Y-59491916D01*
X124675890Y-59491916D02*
X125818747Y-60634774D01*
X125818747Y-60634774D02*
X124580652Y-60634774D01*
X123342557Y-58634774D02*
X123152080Y-58634774D01*
X123152080Y-58634774D02*
X122961604Y-58730012D01*
X122961604Y-58730012D02*
X122866366Y-58825250D01*
X122866366Y-58825250D02*
X122771128Y-59015726D01*
X122771128Y-59015726D02*
X122675890Y-59396678D01*
X122675890Y-59396678D02*
X122675890Y-59872869D01*
X122675890Y-59872869D02*
X122771128Y-60253821D01*
X122771128Y-60253821D02*
X122866366Y-60444297D01*
X122866366Y-60444297D02*
X122961604Y-60539536D01*
X122961604Y-60539536D02*
X123152080Y-60634774D01*
X123152080Y-60634774D02*
X123342557Y-60634774D01*
X123342557Y-60634774D02*
X123533033Y-60539536D01*
X123533033Y-60539536D02*
X123628271Y-60444297D01*
X123628271Y-60444297D02*
X123723509Y-60253821D01*
X123723509Y-60253821D02*
X123818747Y-59872869D01*
X123818747Y-59872869D02*
X123818747Y-59396678D01*
X123818747Y-59396678D02*
X123723509Y-59015726D01*
X123723509Y-59015726D02*
X123628271Y-58825250D01*
X123628271Y-58825250D02*
X123533033Y-58730012D01*
X123533033Y-58730012D02*
X123342557Y-58634774D01*
X121913985Y-58825250D02*
X121818747Y-58730012D01*
X121818747Y-58730012D02*
X121628271Y-58634774D01*
X121628271Y-58634774D02*
X121152080Y-58634774D01*
X121152080Y-58634774D02*
X120961604Y-58730012D01*
X120961604Y-58730012D02*
X120866366Y-58825250D01*
X120866366Y-58825250D02*
X120771128Y-59015726D01*
X120771128Y-59015726D02*
X120771128Y-59206202D01*
X120771128Y-59206202D02*
X120866366Y-59491916D01*
X120866366Y-59491916D02*
X122009223Y-60634774D01*
X122009223Y-60634774D02*
X120771128Y-60634774D01*
X119056842Y-58634774D02*
X119437795Y-58634774D01*
X119437795Y-58634774D02*
X119628271Y-58730012D01*
X119628271Y-58730012D02*
X119723509Y-58825250D01*
X119723509Y-58825250D02*
X119913985Y-59110964D01*
X119913985Y-59110964D02*
X120009223Y-59491916D01*
X120009223Y-59491916D02*
X120009223Y-60253821D01*
X120009223Y-60253821D02*
X119913985Y-60444297D01*
X119913985Y-60444297D02*
X119818747Y-60539536D01*
X119818747Y-60539536D02*
X119628271Y-60634774D01*
X119628271Y-60634774D02*
X119247318Y-60634774D01*
X119247318Y-60634774D02*
X119056842Y-60539536D01*
X119056842Y-60539536D02*
X118961604Y-60444297D01*
X118961604Y-60444297D02*
X118866366Y-60253821D01*
X118866366Y-60253821D02*
X118866366Y-59777631D01*
X118866366Y-59777631D02*
X118961604Y-59587155D01*
X118961604Y-59587155D02*
X119056842Y-59491916D01*
X119056842Y-59491916D02*
X119247318Y-59396678D01*
X119247318Y-59396678D02*
X119628271Y-59396678D01*
X119628271Y-59396678D02*
X119818747Y-59491916D01*
X119818747Y-59491916D02*
X119913985Y-59587155D01*
X119913985Y-59587155D02*
X120009223Y-59777631D01*
X116485413Y-60634774D02*
X116485413Y-58634774D01*
X116485413Y-58634774D02*
X116009223Y-58634774D01*
X116009223Y-58634774D02*
X115723508Y-58730012D01*
X115723508Y-58730012D02*
X115533032Y-58920488D01*
X115533032Y-58920488D02*
X115437794Y-59110964D01*
X115437794Y-59110964D02*
X115342556Y-59491916D01*
X115342556Y-59491916D02*
X115342556Y-59777631D01*
X115342556Y-59777631D02*
X115437794Y-60158583D01*
X115437794Y-60158583D02*
X115533032Y-60349059D01*
X115533032Y-60349059D02*
X115723508Y-60539536D01*
X115723508Y-60539536D02*
X116009223Y-60634774D01*
X116009223Y-60634774D02*
X116485413Y-60634774D01*
X113628270Y-60634774D02*
X113628270Y-59587155D01*
X113628270Y-59587155D02*
X113723508Y-59396678D01*
X113723508Y-59396678D02*
X113913984Y-59301440D01*
X113913984Y-59301440D02*
X114294937Y-59301440D01*
X114294937Y-59301440D02*
X114485413Y-59396678D01*
X113628270Y-60539536D02*
X113818746Y-60634774D01*
X113818746Y-60634774D02*
X114294937Y-60634774D01*
X114294937Y-60634774D02*
X114485413Y-60539536D01*
X114485413Y-60539536D02*
X114580651Y-60349059D01*
X114580651Y-60349059D02*
X114580651Y-60158583D01*
X114580651Y-60158583D02*
X114485413Y-59968107D01*
X114485413Y-59968107D02*
X114294937Y-59872869D01*
X114294937Y-59872869D02*
X113818746Y-59872869D01*
X113818746Y-59872869D02*
X113628270Y-59777631D01*
X112866365Y-59301440D02*
X112390175Y-60634774D01*
X112390175Y-60634774D02*
X111913984Y-59301440D01*
X111152079Y-60634774D02*
X111152079Y-59301440D01*
X111152079Y-58634774D02*
X111247317Y-58730012D01*
X111247317Y-58730012D02*
X111152079Y-58825250D01*
X111152079Y-58825250D02*
X111056841Y-58730012D01*
X111056841Y-58730012D02*
X111152079Y-58634774D01*
X111152079Y-58634774D02*
X111152079Y-58825250D01*
X109342555Y-60634774D02*
X109342555Y-58634774D01*
X109342555Y-60539536D02*
X109533031Y-60634774D01*
X109533031Y-60634774D02*
X109913984Y-60634774D01*
X109913984Y-60634774D02*
X110104460Y-60539536D01*
X110104460Y-60539536D02*
X110199698Y-60444297D01*
X110199698Y-60444297D02*
X110294936Y-60253821D01*
X110294936Y-60253821D02*
X110294936Y-59682393D01*
X110294936Y-59682393D02*
X110199698Y-59491916D01*
X110199698Y-59491916D02*
X110104460Y-59396678D01*
X110104460Y-59396678D02*
X109913984Y-59301440D01*
X109913984Y-59301440D02*
X109533031Y-59301440D01*
X109533031Y-59301440D02*
X109342555Y-59396678D01*
X108390174Y-59872869D02*
X106866365Y-59872869D01*
X105913984Y-60634774D02*
X105913984Y-58634774D01*
X105723508Y-59872869D02*
X105152079Y-60634774D01*
X105152079Y-59301440D02*
X105913984Y-60063345D01*
X102390174Y-58634774D02*
X102009221Y-58634774D01*
X102009221Y-58634774D02*
X101818745Y-58730012D01*
X101818745Y-58730012D02*
X101628269Y-58920488D01*
X101628269Y-58920488D02*
X101533031Y-59301440D01*
X101533031Y-59301440D02*
X101533031Y-59968107D01*
X101533031Y-59968107D02*
X101628269Y-60349059D01*
X101628269Y-60349059D02*
X101818745Y-60539536D01*
X101818745Y-60539536D02*
X102009221Y-60634774D01*
X102009221Y-60634774D02*
X102390174Y-60634774D01*
X102390174Y-60634774D02*
X102580650Y-60539536D01*
X102580650Y-60539536D02*
X102771126Y-60349059D01*
X102771126Y-60349059D02*
X102866364Y-59968107D01*
X102866364Y-59968107D02*
X102866364Y-59301440D01*
X102866364Y-59301440D02*
X102771126Y-58920488D01*
X102771126Y-58920488D02*
X102580650Y-58730012D01*
X102580650Y-58730012D02*
X102390174Y-58634774D01*
X100961602Y-59301440D02*
X100199698Y-59301440D01*
X100675888Y-58634774D02*
X100675888Y-60349059D01*
X100675888Y-60349059D02*
X100580650Y-60539536D01*
X100580650Y-60539536D02*
X100390174Y-60634774D01*
X100390174Y-60634774D02*
X100199698Y-60634774D01*
X99818745Y-59301440D02*
X99056841Y-59301440D01*
X99533031Y-58634774D02*
X99533031Y-60349059D01*
X99533031Y-60349059D02*
X99437793Y-60539536D01*
X99437793Y-60539536D02*
X99247317Y-60634774D01*
X99247317Y-60634774D02*
X99056841Y-60634774D01*
X97628269Y-60539536D02*
X97818745Y-60634774D01*
X97818745Y-60634774D02*
X98199698Y-60634774D01*
X98199698Y-60634774D02*
X98390174Y-60539536D01*
X98390174Y-60539536D02*
X98485412Y-60349059D01*
X98485412Y-60349059D02*
X98485412Y-59587155D01*
X98485412Y-59587155D02*
X98390174Y-59396678D01*
X98390174Y-59396678D02*
X98199698Y-59301440D01*
X98199698Y-59301440D02*
X97818745Y-59301440D01*
X97818745Y-59301440D02*
X97628269Y-59396678D01*
X97628269Y-59396678D02*
X97533031Y-59587155D01*
X97533031Y-59587155D02*
X97533031Y-59777631D01*
X97533031Y-59777631D02*
X98485412Y-59968107D01*
X96675888Y-60634774D02*
X96675888Y-59301440D01*
X96675888Y-59682393D02*
X96580650Y-59491916D01*
X96580650Y-59491916D02*
X96485412Y-59396678D01*
X96485412Y-59396678D02*
X96294936Y-59301440D01*
X96294936Y-59301440D02*
X96104459Y-59301440D01*
X130580652Y-67074550D02*
X130580652Y-65074550D01*
X130580652Y-66026931D02*
X129437795Y-66026931D01*
X129437795Y-67074550D02*
X129437795Y-65074550D01*
X127628271Y-67074550D02*
X127628271Y-66026931D01*
X127628271Y-66026931D02*
X127723509Y-65836454D01*
X127723509Y-65836454D02*
X127913985Y-65741216D01*
X127913985Y-65741216D02*
X128294938Y-65741216D01*
X128294938Y-65741216D02*
X128485414Y-65836454D01*
X127628271Y-66979312D02*
X127818747Y-67074550D01*
X127818747Y-67074550D02*
X128294938Y-67074550D01*
X128294938Y-67074550D02*
X128485414Y-66979312D01*
X128485414Y-66979312D02*
X128580652Y-66788835D01*
X128580652Y-66788835D02*
X128580652Y-66598359D01*
X128580652Y-66598359D02*
X128485414Y-66407883D01*
X128485414Y-66407883D02*
X128294938Y-66312645D01*
X128294938Y-66312645D02*
X127818747Y-66312645D01*
X127818747Y-66312645D02*
X127628271Y-66217407D01*
X126675890Y-67074550D02*
X126675890Y-65741216D01*
X126675890Y-66122169D02*
X126580652Y-65931692D01*
X126580652Y-65931692D02*
X126485414Y-65836454D01*
X126485414Y-65836454D02*
X126294938Y-65741216D01*
X126294938Y-65741216D02*
X126104461Y-65741216D01*
X124580652Y-67074550D02*
X124580652Y-65074550D01*
X124580652Y-66979312D02*
X124771128Y-67074550D01*
X124771128Y-67074550D02*
X125152081Y-67074550D01*
X125152081Y-67074550D02*
X125342557Y-66979312D01*
X125342557Y-66979312D02*
X125437795Y-66884073D01*
X125437795Y-66884073D02*
X125533033Y-66693597D01*
X125533033Y-66693597D02*
X125533033Y-66122169D01*
X125533033Y-66122169D02*
X125437795Y-65931692D01*
X125437795Y-65931692D02*
X125342557Y-65836454D01*
X125342557Y-65836454D02*
X125152081Y-65741216D01*
X125152081Y-65741216D02*
X124771128Y-65741216D01*
X124771128Y-65741216D02*
X124580652Y-65836454D01*
X123818747Y-65741216D02*
X123437795Y-67074550D01*
X123437795Y-67074550D02*
X123056842Y-66122169D01*
X123056842Y-66122169D02*
X122675890Y-67074550D01*
X122675890Y-67074550D02*
X122294938Y-65741216D01*
X120675890Y-67074550D02*
X120675890Y-66026931D01*
X120675890Y-66026931D02*
X120771128Y-65836454D01*
X120771128Y-65836454D02*
X120961604Y-65741216D01*
X120961604Y-65741216D02*
X121342557Y-65741216D01*
X121342557Y-65741216D02*
X121533033Y-65836454D01*
X120675890Y-66979312D02*
X120866366Y-67074550D01*
X120866366Y-67074550D02*
X121342557Y-67074550D01*
X121342557Y-67074550D02*
X121533033Y-66979312D01*
X121533033Y-66979312D02*
X121628271Y-66788835D01*
X121628271Y-66788835D02*
X121628271Y-66598359D01*
X121628271Y-66598359D02*
X121533033Y-66407883D01*
X121533033Y-66407883D02*
X121342557Y-66312645D01*
X121342557Y-66312645D02*
X120866366Y-66312645D01*
X120866366Y-66312645D02*
X120675890Y-66217407D01*
X119723509Y-67074550D02*
X119723509Y-65741216D01*
X119723509Y-66122169D02*
X119628271Y-65931692D01*
X119628271Y-65931692D02*
X119533033Y-65836454D01*
X119533033Y-65836454D02*
X119342557Y-65741216D01*
X119342557Y-65741216D02*
X119152080Y-65741216D01*
X117723509Y-66979312D02*
X117913985Y-67074550D01*
X117913985Y-67074550D02*
X118294938Y-67074550D01*
X118294938Y-67074550D02*
X118485414Y-66979312D01*
X118485414Y-66979312D02*
X118580652Y-66788835D01*
X118580652Y-66788835D02*
X118580652Y-66026931D01*
X118580652Y-66026931D02*
X118485414Y-65836454D01*
X118485414Y-65836454D02*
X118294938Y-65741216D01*
X118294938Y-65741216D02*
X117913985Y-65741216D01*
X117913985Y-65741216D02*
X117723509Y-65836454D01*
X117723509Y-65836454D02*
X117628271Y-66026931D01*
X117628271Y-66026931D02*
X117628271Y-66217407D01*
X117628271Y-66217407D02*
X118580652Y-66407883D01*
X116771128Y-66884073D02*
X116675890Y-66979312D01*
X116675890Y-66979312D02*
X116771128Y-67074550D01*
X116771128Y-67074550D02*
X116866366Y-66979312D01*
X116866366Y-66979312D02*
X116771128Y-66884073D01*
X116771128Y-66884073D02*
X116771128Y-67074550D01*
X116771128Y-65836454D02*
X116675890Y-65931692D01*
X116675890Y-65931692D02*
X116771128Y-66026931D01*
X116771128Y-66026931D02*
X116866366Y-65931692D01*
X116866366Y-65931692D02*
X116771128Y-65836454D01*
X116771128Y-65836454D02*
X116771128Y-66026931D01*
X113152080Y-66884073D02*
X113247318Y-66979312D01*
X113247318Y-66979312D02*
X113533032Y-67074550D01*
X113533032Y-67074550D02*
X113723508Y-67074550D01*
X113723508Y-67074550D02*
X114009223Y-66979312D01*
X114009223Y-66979312D02*
X114199699Y-66788835D01*
X114199699Y-66788835D02*
X114294937Y-66598359D01*
X114294937Y-66598359D02*
X114390175Y-66217407D01*
X114390175Y-66217407D02*
X114390175Y-65931692D01*
X114390175Y-65931692D02*
X114294937Y-65550740D01*
X114294937Y-65550740D02*
X114199699Y-65360264D01*
X114199699Y-65360264D02*
X114009223Y-65169788D01*
X114009223Y-65169788D02*
X113723508Y-65074550D01*
X113723508Y-65074550D02*
X113533032Y-65074550D01*
X113533032Y-65074550D02*
X113247318Y-65169788D01*
X113247318Y-65169788D02*
X113152080Y-65265026D01*
X112294937Y-66026931D02*
X111628270Y-66026931D01*
X111342556Y-67074550D02*
X112294937Y-67074550D01*
X112294937Y-67074550D02*
X112294937Y-65074550D01*
X112294937Y-65074550D02*
X111342556Y-65074550D01*
X109342556Y-67074550D02*
X110009223Y-66122169D01*
X110485413Y-67074550D02*
X110485413Y-65074550D01*
X110485413Y-65074550D02*
X109723508Y-65074550D01*
X109723508Y-65074550D02*
X109533032Y-65169788D01*
X109533032Y-65169788D02*
X109437794Y-65265026D01*
X109437794Y-65265026D02*
X109342556Y-65455502D01*
X109342556Y-65455502D02*
X109342556Y-65741216D01*
X109342556Y-65741216D02*
X109437794Y-65931692D01*
X109437794Y-65931692D02*
X109533032Y-66026931D01*
X109533032Y-66026931D02*
X109723508Y-66122169D01*
X109723508Y-66122169D02*
X110485413Y-66122169D01*
X108485413Y-67074550D02*
X108485413Y-65074550D01*
X108485413Y-65074550D02*
X107342556Y-67074550D01*
X107342556Y-67074550D02*
X107342556Y-65074550D01*
X106390175Y-66312645D02*
X104866366Y-66312645D01*
X103533033Y-65074550D02*
X103152080Y-65074550D01*
X103152080Y-65074550D02*
X102961604Y-65169788D01*
X102961604Y-65169788D02*
X102771128Y-65360264D01*
X102771128Y-65360264D02*
X102675890Y-65741216D01*
X102675890Y-65741216D02*
X102675890Y-66407883D01*
X102675890Y-66407883D02*
X102771128Y-66788835D01*
X102771128Y-66788835D02*
X102961604Y-66979312D01*
X102961604Y-66979312D02*
X103152080Y-67074550D01*
X103152080Y-67074550D02*
X103533033Y-67074550D01*
X103533033Y-67074550D02*
X103723509Y-66979312D01*
X103723509Y-66979312D02*
X103913985Y-66788835D01*
X103913985Y-66788835D02*
X104009223Y-66407883D01*
X104009223Y-66407883D02*
X104009223Y-65741216D01*
X104009223Y-65741216D02*
X103913985Y-65360264D01*
X103913985Y-65360264D02*
X103723509Y-65169788D01*
X103723509Y-65169788D02*
X103533033Y-65074550D01*
X101818747Y-67074550D02*
X101818747Y-65074550D01*
X101818747Y-66026931D02*
X100675890Y-66026931D01*
X100675890Y-67074550D02*
X100675890Y-65074550D01*
X98771128Y-67074550D02*
X99723509Y-67074550D01*
X99723509Y-67074550D02*
X99723509Y-65074550D01*
X98104461Y-66312645D02*
X96580652Y-66312645D01*
X95723509Y-66979312D02*
X95437795Y-67074550D01*
X95437795Y-67074550D02*
X94961604Y-67074550D01*
X94961604Y-67074550D02*
X94771128Y-66979312D01*
X94771128Y-66979312D02*
X94675890Y-66884073D01*
X94675890Y-66884073D02*
X94580652Y-66693597D01*
X94580652Y-66693597D02*
X94580652Y-66503121D01*
X94580652Y-66503121D02*
X94675890Y-66312645D01*
X94675890Y-66312645D02*
X94771128Y-66217407D01*
X94771128Y-66217407D02*
X94961604Y-66122169D01*
X94961604Y-66122169D02*
X95342557Y-66026931D01*
X95342557Y-66026931D02*
X95533033Y-65931692D01*
X95533033Y-65931692D02*
X95628271Y-65836454D01*
X95628271Y-65836454D02*
X95723509Y-65645978D01*
X95723509Y-65645978D02*
X95723509Y-65455502D01*
X95723509Y-65455502D02*
X95628271Y-65265026D01*
X95628271Y-65265026D02*
X95533033Y-65169788D01*
X95533033Y-65169788D02*
X95342557Y-65074550D01*
X95342557Y-65074550D02*
X94866366Y-65074550D01*
X94866366Y-65074550D02*
X94580652Y-65169788D01*
X92390175Y-65741216D02*
X91913985Y-67074550D01*
X91913985Y-67074550D02*
X91437794Y-65741216D01*
X90771127Y-65265026D02*
X90675889Y-65169788D01*
X90675889Y-65169788D02*
X90485413Y-65074550D01*
X90485413Y-65074550D02*
X90009222Y-65074550D01*
X90009222Y-65074550D02*
X89818746Y-65169788D01*
X89818746Y-65169788D02*
X89723508Y-65265026D01*
X89723508Y-65265026D02*
X89628270Y-65455502D01*
X89628270Y-65455502D02*
X89628270Y-65645978D01*
X89628270Y-65645978D02*
X89723508Y-65931692D01*
X89723508Y-65931692D02*
X90866365Y-67074550D01*
X90866365Y-67074550D02*
X89628270Y-67074550D01*
X129913985Y-69246819D02*
X130580652Y-69246819D01*
X130580652Y-70294438D02*
X130580652Y-68294438D01*
X130580652Y-68294438D02*
X129628271Y-68294438D01*
X128866366Y-70294438D02*
X128866366Y-68961104D01*
X128866366Y-68294438D02*
X128961604Y-68389676D01*
X128961604Y-68389676D02*
X128866366Y-68484914D01*
X128866366Y-68484914D02*
X128771128Y-68389676D01*
X128771128Y-68389676D02*
X128866366Y-68294438D01*
X128866366Y-68294438D02*
X128866366Y-68484914D01*
X127913985Y-70294438D02*
X127913985Y-68961104D01*
X127913985Y-69342057D02*
X127818747Y-69151580D01*
X127818747Y-69151580D02*
X127723509Y-69056342D01*
X127723509Y-69056342D02*
X127533033Y-68961104D01*
X127533033Y-68961104D02*
X127342556Y-68961104D01*
X126675890Y-70294438D02*
X126675890Y-68961104D01*
X126675890Y-69151580D02*
X126580652Y-69056342D01*
X126580652Y-69056342D02*
X126390176Y-68961104D01*
X126390176Y-68961104D02*
X126104461Y-68961104D01*
X126104461Y-68961104D02*
X125913985Y-69056342D01*
X125913985Y-69056342D02*
X125818747Y-69246819D01*
X125818747Y-69246819D02*
X125818747Y-70294438D01*
X125818747Y-69246819D02*
X125723509Y-69056342D01*
X125723509Y-69056342D02*
X125533033Y-68961104D01*
X125533033Y-68961104D02*
X125247319Y-68961104D01*
X125247319Y-68961104D02*
X125056842Y-69056342D01*
X125056842Y-69056342D02*
X124961604Y-69246819D01*
X124961604Y-69246819D02*
X124961604Y-70294438D01*
X124199699Y-68961104D02*
X123818747Y-70294438D01*
X123818747Y-70294438D02*
X123437794Y-69342057D01*
X123437794Y-69342057D02*
X123056842Y-70294438D01*
X123056842Y-70294438D02*
X122675890Y-68961104D01*
X121056842Y-70294438D02*
X121056842Y-69246819D01*
X121056842Y-69246819D02*
X121152080Y-69056342D01*
X121152080Y-69056342D02*
X121342556Y-68961104D01*
X121342556Y-68961104D02*
X121723509Y-68961104D01*
X121723509Y-68961104D02*
X121913985Y-69056342D01*
X121056842Y-70199200D02*
X121247318Y-70294438D01*
X121247318Y-70294438D02*
X121723509Y-70294438D01*
X121723509Y-70294438D02*
X121913985Y-70199200D01*
X121913985Y-70199200D02*
X122009223Y-70008723D01*
X122009223Y-70008723D02*
X122009223Y-69818247D01*
X122009223Y-69818247D02*
X121913985Y-69627771D01*
X121913985Y-69627771D02*
X121723509Y-69532533D01*
X121723509Y-69532533D02*
X121247318Y-69532533D01*
X121247318Y-69532533D02*
X121056842Y-69437295D01*
X120104461Y-70294438D02*
X120104461Y-68961104D01*
X120104461Y-69342057D02*
X120009223Y-69151580D01*
X120009223Y-69151580D02*
X119913985Y-69056342D01*
X119913985Y-69056342D02*
X119723509Y-68961104D01*
X119723509Y-68961104D02*
X119533032Y-68961104D01*
X118104461Y-70199200D02*
X118294937Y-70294438D01*
X118294937Y-70294438D02*
X118675890Y-70294438D01*
X118675890Y-70294438D02*
X118866366Y-70199200D01*
X118866366Y-70199200D02*
X118961604Y-70008723D01*
X118961604Y-70008723D02*
X118961604Y-69246819D01*
X118961604Y-69246819D02*
X118866366Y-69056342D01*
X118866366Y-69056342D02*
X118675890Y-68961104D01*
X118675890Y-68961104D02*
X118294937Y-68961104D01*
X118294937Y-68961104D02*
X118104461Y-69056342D01*
X118104461Y-69056342D02*
X118009223Y-69246819D01*
X118009223Y-69246819D02*
X118009223Y-69437295D01*
X118009223Y-69437295D02*
X118961604Y-69627771D01*
X117152080Y-70103961D02*
X117056842Y-70199200D01*
X117056842Y-70199200D02*
X117152080Y-70294438D01*
X117152080Y-70294438D02*
X117247318Y-70199200D01*
X117247318Y-70199200D02*
X117152080Y-70103961D01*
X117152080Y-70103961D02*
X117152080Y-70294438D01*
X117152080Y-69056342D02*
X117056842Y-69151580D01*
X117056842Y-69151580D02*
X117152080Y-69246819D01*
X117152080Y-69246819D02*
X117247318Y-69151580D01*
X117247318Y-69151580D02*
X117152080Y-69056342D01*
X117152080Y-69056342D02*
X117152080Y-69246819D01*
X114675889Y-70294438D02*
X114675889Y-68294438D01*
X114675889Y-68294438D02*
X114009222Y-69723009D01*
X114009222Y-69723009D02*
X113342556Y-68294438D01*
X113342556Y-68294438D02*
X113342556Y-70294438D01*
X112390175Y-70294438D02*
X112390175Y-68294438D01*
X111723508Y-68294438D02*
X110580651Y-68294438D01*
X111152080Y-70294438D02*
X111152080Y-68294438D01*
M02*
