%TF.GenerationSoftware,KiCad,Pcbnew,10.0.0*%
%TF.CreationDate,2026-07-30T19:28:18+12:00*%
%TF.ProjectId,OD-PT74,4f442d50-5437-4342-9e6b-696361645f70,Rev-c*%
%TF.SameCoordinates,Original*%
%TF.FileFunction,Soldermask,Top*%
%TF.FilePolarity,Negative*%
%FSLAX46Y46*%
G04 Gerber Fmt 4.6, Leading zero omitted, Abs format (unit mm)*
G04 Created by KiCad (PCBNEW 10.0.0) date 2026-07-30 19:28:18*
%MOMM*%
%LPD*%
G01*
G04 APERTURE LIST*
G04 Aperture macros list*
%AMRoundRect*
0 Rectangle with rounded corners*
0 $1 Rounding radius*
0 $2 $3 $4 $5 $6 $7 $8 $9 X,Y pos of 4 corners*
0 Add a 4 corners polygon primitive as box body*
4,1,4,$2,$3,$4,$5,$6,$7,$8,$9,$2,$3,0*
0 Add four circle primitives for the rounded corners*
1,1,$1+$1,$2,$3*
1,1,$1+$1,$4,$5*
1,1,$1+$1,$6,$7*
1,1,$1+$1,$8,$9*
0 Add four rect primitives between the rounded corners*
20,1,$1+$1,$2,$3,$4,$5,0*
20,1,$1+$1,$4,$5,$6,$7,0*
20,1,$1+$1,$6,$7,$8,$9,0*
20,1,$1+$1,$8,$9,$2,$3,0*%
%AMFreePoly0*
4,1,37,0.603843,0.796157,0.639018,0.796157,0.711114,0.766294,0.766294,0.711114,0.796157,0.639018,0.796157,0.603843,0.800000,0.600000,0.800000,-0.600000,0.796157,-0.603843,0.796157,-0.639018,0.766294,-0.711114,0.711114,-0.766294,0.639018,-0.796157,0.603843,-0.796157,0.600000,-0.800000,0.000000,-0.800000,0.000000,-0.796148,-0.078414,-0.796148,-0.232228,-0.765552,-0.377117,-0.705537,
-0.507515,-0.618408,-0.618408,-0.507515,-0.705537,-0.377117,-0.765552,-0.232228,-0.796148,-0.078414,-0.796148,0.078414,-0.765552,0.232228,-0.705537,0.377117,-0.618408,0.507515,-0.507515,0.618408,-0.377117,0.705537,-0.232228,0.765552,-0.078414,0.796148,0.000000,0.796148,0.000000,0.800000,0.600000,0.800000,0.603843,0.796157,0.603843,0.796157,$1*%
%AMFreePoly1*
4,1,37,0.000000,0.796148,0.078414,0.796148,0.232228,0.765552,0.377117,0.705537,0.507515,0.618408,0.618408,0.507515,0.705537,0.377117,0.765552,0.232228,0.796148,0.078414,0.796148,-0.078414,0.765552,-0.232228,0.705537,-0.377117,0.618408,-0.507515,0.507515,-0.618408,0.377117,-0.705537,0.232228,-0.765552,0.078414,-0.796148,0.000000,-0.796148,0.000000,-0.800000,-0.600000,-0.800000,
-0.603843,-0.796157,-0.639018,-0.796157,-0.711114,-0.766294,-0.766294,-0.711114,-0.796157,-0.639018,-0.796157,-0.603843,-0.800000,-0.600000,-0.800000,0.600000,-0.796157,0.603843,-0.796157,0.639018,-0.766294,0.711114,-0.711114,0.766294,-0.639018,0.796157,-0.603843,0.796157,-0.600000,0.800000,0.000000,0.800000,0.000000,0.796148,0.000000,0.796148,$1*%
G04 Aperture macros list end*
%ADD10RoundRect,0.150000X0.150000X-0.587500X0.150000X0.587500X-0.150000X0.587500X-0.150000X-0.587500X0*%
%ADD11C,1.600000*%
%ADD12RoundRect,0.250000X0.500000X0.500000X-0.500000X0.500000X-0.500000X-0.500000X0.500000X-0.500000X0*%
%ADD13C,1.500000*%
%ADD14RoundRect,0.250000X-0.550000X-0.550000X0.550000X-0.550000X0.550000X0.550000X-0.550000X0.550000X0*%
%ADD15RoundRect,0.150000X-0.150000X0.587500X-0.150000X-0.587500X0.150000X-0.587500X0.150000X0.587500X0*%
%ADD16R,1.700000X1.700000*%
%ADD17C,1.700000*%
%ADD18RoundRect,0.150000X-0.150000X0.512500X-0.150000X-0.512500X0.150000X-0.512500X0.150000X0.512500X0*%
%ADD19C,3.200000*%
%ADD20RoundRect,0.249999X0.850001X-0.850001X0.850001X0.850001X-0.850001X0.850001X-0.850001X-0.850001X0*%
%ADD21C,2.200000*%
%ADD22RoundRect,0.150000X0.587500X0.150000X-0.587500X0.150000X-0.587500X-0.150000X0.587500X-0.150000X0*%
%ADD23RoundRect,0.250000X-0.550000X0.550000X-0.550000X-0.550000X0.550000X-0.550000X0.550000X0.550000X0*%
%ADD24R,3.500000X3.500000*%
%ADD25RoundRect,0.750000X-1.000000X0.750000X-1.000000X-0.750000X1.000000X-0.750000X1.000000X0.750000X0*%
%ADD26RoundRect,0.875000X-0.875000X0.875000X-0.875000X-0.875000X0.875000X-0.875000X0.875000X0.875000X0*%
%ADD27C,2.000000*%
%ADD28RoundRect,0.200000X0.600000X-0.600000X0.600000X0.600000X-0.600000X0.600000X-0.600000X-0.600000X0*%
%ADD29FreePoly0,90.000000*%
%ADD30FreePoly1,90.000000*%
%ADD31R,1.800000X1.800000*%
%ADD32C,1.800000*%
G04 APERTURE END LIST*
D10*
%TO.C,D6*%
X108097715Y-119823475D03*
X109997715Y-119823475D03*
X109047715Y-117948475D03*
%TD*%
D11*
%TO.C,R1*%
X68890000Y-137300000D03*
X76510000Y-137300000D03*
%TD*%
D10*
%TO.C,D23*%
X136847258Y-119791771D03*
X138747258Y-119791771D03*
X137797258Y-117916771D03*
%TD*%
D11*
%TO.C,R29*%
X145296120Y-114590000D03*
X145296120Y-106970000D03*
%TD*%
%TO.C,C13*%
X140400000Y-42000000D03*
X135400000Y-42000000D03*
%TD*%
D12*
%TO.C,Q1*%
X83540000Y-111060000D03*
D13*
X81000000Y-113600000D03*
X78460000Y-111060000D03*
%TD*%
D14*
%TO.C,C5*%
X61697349Y-69100000D03*
D11*
X66697349Y-69100000D03*
%TD*%
D10*
%TO.C,D10*%
X122450000Y-119800000D03*
X124350000Y-119800000D03*
X123400000Y-117925000D03*
%TD*%
D15*
%TO.C,D14*%
X141550000Y-67725000D03*
X139650000Y-67725000D03*
X140600000Y-69600000D03*
%TD*%
D11*
%TO.C,C8*%
X135960000Y-65040000D03*
X135960000Y-70040000D03*
%TD*%
%TO.C,R15*%
X114294807Y-114620000D03*
X114294807Y-107000000D03*
%TD*%
%TO.C,C6*%
X129500000Y-75200000D03*
X129500000Y-80200000D03*
%TD*%
D16*
%TO.C,J4*%
X153725000Y-126620000D03*
D17*
X156265000Y-126620000D03*
X153725000Y-129160000D03*
X156265000Y-129160000D03*
X153725000Y-131700000D03*
X156265000Y-131700000D03*
X153725000Y-134240000D03*
X156265000Y-134240000D03*
X153725000Y-136780000D03*
X156265000Y-136780000D03*
%TD*%
D18*
%TO.C,U2*%
X76950000Y-57862500D03*
X76000000Y-57862500D03*
X75050000Y-57862500D03*
X75050000Y-60137500D03*
X76000000Y-60137500D03*
X76950000Y-60137500D03*
%TD*%
D19*
%TO.C,H3*%
X93000000Y-47470000D03*
%TD*%
D20*
%TO.C,D2*%
X61800000Y-51980000D03*
D21*
X61800000Y-41820000D03*
%TD*%
D10*
%TO.C,D11*%
X126050000Y-119800000D03*
X127950000Y-119800000D03*
X127000000Y-117925000D03*
%TD*%
%TO.C,D7*%
X111697715Y-119823475D03*
X113597715Y-119823475D03*
X112647715Y-117948475D03*
%TD*%
D16*
%TO.C,SW5*%
X89320000Y-137200000D03*
D17*
X91860000Y-137200000D03*
X94400000Y-137200000D03*
%TD*%
D10*
%TO.C,D20*%
X147650000Y-119791771D03*
X149550000Y-119791771D03*
X148600000Y-117916771D03*
%TD*%
D11*
%TO.C,C3*%
X111500000Y-79200000D03*
X116500000Y-79200000D03*
%TD*%
%TO.C,C9*%
X78900000Y-59800000D03*
X83900000Y-59800000D03*
%TD*%
D22*
%TO.C,D17*%
X153875000Y-80050000D03*
X153875000Y-78150000D03*
X152000000Y-79100000D03*
%TD*%
D11*
%TO.C,R2*%
X86300000Y-114280000D03*
X86300000Y-121900000D03*
%TD*%
%TO.C,L1*%
X76190000Y-63000000D03*
X83810000Y-63000000D03*
%TD*%
%TO.C,R8*%
X122989303Y-72575859D03*
X122989303Y-80195859D03*
%TD*%
D16*
%TO.C,SW6*%
X105880000Y-137100000D03*
D17*
X103340000Y-137100000D03*
X100800000Y-137100000D03*
%TD*%
D11*
%TO.C,R20*%
X129784357Y-114594847D03*
X129784357Y-106974847D03*
%TD*%
D23*
%TO.C,U1*%
X96100000Y-125580000D03*
D11*
X93560000Y-125580000D03*
X91020000Y-125580000D03*
X88480000Y-125580000D03*
X85940000Y-125580000D03*
X83400000Y-125580000D03*
X80860000Y-125580000D03*
X78320000Y-125580000D03*
X75780000Y-125580000D03*
X73240000Y-125580000D03*
X70700000Y-125580000D03*
X68160000Y-125580000D03*
X65620000Y-125580000D03*
X63080000Y-125580000D03*
X63080000Y-133200000D03*
X65620000Y-133200000D03*
X68160000Y-133200000D03*
X70700000Y-133200000D03*
X73240000Y-133200000D03*
X75780000Y-133200000D03*
X78320000Y-133200000D03*
X80860000Y-133200000D03*
X83400000Y-133200000D03*
X85940000Y-133200000D03*
X88480000Y-133200000D03*
X91020000Y-133200000D03*
X93560000Y-133200000D03*
X96100000Y-133200000D03*
%TD*%
%TO.C,R7*%
X126107418Y-72590000D03*
X126107418Y-80210000D03*
%TD*%
%TO.C,C11*%
X76300000Y-70100000D03*
X81300000Y-70100000D03*
%TD*%
%TO.C,R17*%
X120491239Y-114612741D03*
X120491239Y-106992741D03*
%TD*%
%TO.C,R4*%
X95900000Y-114280000D03*
X95900000Y-121900000D03*
%TD*%
D24*
%TO.C,J3*%
X79690000Y-50230000D03*
D25*
X79690000Y-44230000D03*
D26*
X74990000Y-47230000D03*
%TD*%
D11*
%TO.C,R31*%
X139096120Y-114590000D03*
X139096120Y-106970000D03*
%TD*%
D27*
%TO.C,F1*%
X69000000Y-47540000D03*
X69010000Y-42460000D03*
%TD*%
D22*
%TO.C,D19*%
X153437500Y-116050000D03*
X153437500Y-114150000D03*
X151562500Y-115100000D03*
%TD*%
D16*
%TO.C,SW4*%
X70740000Y-52500000D03*
D17*
X68200000Y-52500000D03*
X65660000Y-52500000D03*
%TD*%
D11*
%TO.C,R14*%
X111200000Y-114620000D03*
X111200000Y-107000000D03*
%TD*%
%TO.C,R32*%
X135980000Y-114590000D03*
X135980000Y-106970000D03*
%TD*%
D10*
%TO.C,D5*%
X104497715Y-119823475D03*
X106397715Y-119823475D03*
X105447715Y-117948475D03*
%TD*%
D11*
%TO.C,R16*%
X117400000Y-114610000D03*
X117400000Y-106990000D03*
%TD*%
%TO.C,C2*%
X111500000Y-75150000D03*
X116500000Y-75150000D03*
%TD*%
D23*
%TO.C,C12*%
X155000000Y-42097349D03*
D11*
X155000000Y-47097349D03*
%TD*%
%TO.C,R11*%
X68100000Y-64010000D03*
X68100000Y-56390000D03*
%TD*%
%TO.C,C7*%
X132810000Y-65030000D03*
X132810000Y-70030000D03*
%TD*%
D15*
%TO.C,D15*%
X145500000Y-67700000D03*
X143600000Y-67700000D03*
X144550000Y-69575000D03*
%TD*%
D10*
%TO.C,D21*%
X144046677Y-119791771D03*
X145946677Y-119791771D03*
X144996677Y-117916771D03*
%TD*%
%TO.C,D12*%
X129650000Y-119800000D03*
X131550000Y-119800000D03*
X130600000Y-117925000D03*
%TD*%
D11*
%TO.C,R24*%
X139100000Y-72590000D03*
X139100000Y-80210000D03*
%TD*%
D28*
%TO.C,A1*%
X101624028Y-102493797D03*
D11*
X104164028Y-102493797D03*
D29*
X106704028Y-102493797D03*
D11*
X109244028Y-102493797D03*
X111784028Y-102493797D03*
X114324028Y-102493797D03*
X116864028Y-102493797D03*
D29*
X119404028Y-102493797D03*
D11*
X121944028Y-102493797D03*
X124484028Y-102493797D03*
X127024028Y-102493797D03*
X129564028Y-102493797D03*
D29*
X132104028Y-102493797D03*
D11*
X134644028Y-102493797D03*
X137184028Y-102493797D03*
X139724028Y-102493797D03*
X142264028Y-102493797D03*
D29*
X144804028Y-102493797D03*
D11*
X147344028Y-102493797D03*
X149884028Y-102493797D03*
X149884028Y-84713797D03*
X147344028Y-84713797D03*
D30*
X144804028Y-84713797D03*
D11*
X142264028Y-84713797D03*
X139724028Y-84713797D03*
X137184028Y-84713797D03*
X134644028Y-84713797D03*
D30*
X132104028Y-84713797D03*
D11*
X129564028Y-84713797D03*
X127024028Y-84713797D03*
X124484028Y-84713797D03*
X121944028Y-84713797D03*
D30*
X119404028Y-84713797D03*
D11*
X116864028Y-84713797D03*
X114324028Y-84713797D03*
X111784028Y-84713797D03*
X109244028Y-84713797D03*
D30*
X106704028Y-84713797D03*
D11*
X104164028Y-84713797D03*
X101624028Y-84713797D03*
%TD*%
D16*
%TO.C,J8*%
X148060000Y-45800000D03*
D17*
X145520000Y-45800000D03*
X142980000Y-45800000D03*
X140440000Y-45800000D03*
X137900000Y-45800000D03*
X135360000Y-45800000D03*
X132820000Y-45800000D03*
X130280000Y-45800000D03*
X127740000Y-45800000D03*
X125200000Y-45800000D03*
X122660000Y-45800000D03*
X120120000Y-45800000D03*
X117580000Y-45800000D03*
X115040000Y-45800000D03*
X112500000Y-45800000D03*
X109960000Y-45800000D03*
%TD*%
D11*
%TO.C,R28*%
X148396120Y-114590000D03*
X148396120Y-106970000D03*
%TD*%
D16*
%TO.C,J7*%
X110216917Y-131864655D03*
D17*
X112756917Y-131864655D03*
X115296917Y-131864655D03*
X117836917Y-131864655D03*
X120376917Y-131864655D03*
X122916917Y-131864655D03*
X125456917Y-131864655D03*
X127996917Y-131864655D03*
X130536917Y-131864655D03*
X133076917Y-131864655D03*
X135616917Y-131864655D03*
X138156917Y-131864655D03*
X140696917Y-131864655D03*
X143236917Y-131864655D03*
X145776917Y-131864655D03*
X148316917Y-131864655D03*
%TD*%
D11*
%TO.C,R19*%
X126691239Y-114612741D03*
X126691239Y-106992741D03*
%TD*%
%TO.C,C10*%
X76300000Y-66050000D03*
X81300000Y-66050000D03*
%TD*%
D22*
%TO.C,D16*%
X153875000Y-75650000D03*
X153875000Y-73750000D03*
X152000000Y-74700000D03*
%TD*%
D10*
%TO.C,D8*%
X115297715Y-119823475D03*
X117197715Y-119823475D03*
X116247715Y-117948475D03*
%TD*%
D27*
%TO.C,SW3*%
X104000000Y-42400000D03*
X104000000Y-48900000D03*
X99500000Y-42400000D03*
X99500000Y-48900000D03*
%TD*%
D19*
%TO.C,H1*%
X64723003Y-108437811D03*
%TD*%
D11*
%TO.C,C4*%
X72000000Y-62900000D03*
X72000000Y-57900000D03*
%TD*%
D19*
%TO.C,H4*%
X154060250Y-120560250D03*
%TD*%
D11*
%TO.C,R9*%
X140500000Y-56600000D03*
X140500000Y-48980000D03*
%TD*%
D16*
%TO.C,J6*%
X63460000Y-78940000D03*
D17*
X66000000Y-78940000D03*
X63460000Y-81480000D03*
X66000000Y-81480000D03*
X63460000Y-84020000D03*
X66000000Y-84020000D03*
X63460000Y-86560000D03*
X66000000Y-86560000D03*
X63460000Y-89100000D03*
X66000000Y-89100000D03*
X63460000Y-91640000D03*
X66000000Y-91640000D03*
X63460000Y-94180000D03*
X66000000Y-94180000D03*
X63460000Y-96720000D03*
X66000000Y-96720000D03*
X63460000Y-99260000D03*
X66000000Y-99260000D03*
X63460000Y-101800000D03*
X66000000Y-101800000D03*
%TD*%
D11*
%TO.C,R30*%
X142196120Y-114590000D03*
X142196120Y-106970000D03*
%TD*%
%TO.C,R5*%
X92700000Y-114280000D03*
X92700000Y-121900000D03*
%TD*%
D31*
%TO.C,D3*%
X64170000Y-59800000D03*
D32*
X61630000Y-59800000D03*
%TD*%
D11*
%TO.C,R26*%
X145300000Y-72590000D03*
X145300000Y-80210000D03*
%TD*%
D10*
%TO.C,D4*%
X100897715Y-119823475D03*
X102797715Y-119823475D03*
X101847715Y-117948475D03*
%TD*%
D11*
%TO.C,C1*%
X75600000Y-122300000D03*
X70600000Y-122300000D03*
%TD*%
%TO.C,R6*%
X89500000Y-114280000D03*
X89500000Y-121900000D03*
%TD*%
D22*
%TO.C,D18*%
X153437500Y-112100000D03*
X153437500Y-110200000D03*
X151562500Y-111150000D03*
%TD*%
D11*
%TO.C,R13*%
X132900000Y-80210000D03*
X132900000Y-72590000D03*
%TD*%
D10*
%TO.C,D22*%
X140447258Y-119791771D03*
X142347258Y-119791771D03*
X141397258Y-117916771D03*
%TD*%
%TO.C,D13*%
X133247258Y-119791771D03*
X135147258Y-119791771D03*
X134197258Y-117916771D03*
%TD*%
D11*
%TO.C,R3*%
X80810000Y-116900000D03*
X73190000Y-116900000D03*
%TD*%
D19*
%TO.C,H2*%
X154163344Y-57000000D03*
%TD*%
D11*
%TO.C,R25*%
X142200000Y-72590000D03*
X142200000Y-80210000D03*
%TD*%
%TO.C,R21*%
X101891239Y-114612741D03*
X101891239Y-106992741D03*
%TD*%
D10*
%TO.C,D9*%
X118900000Y-119800000D03*
X120800000Y-119800000D03*
X119850000Y-117925000D03*
%TD*%
D11*
%TO.C,R12*%
X136000000Y-80210000D03*
X136000000Y-72590000D03*
%TD*%
%TO.C,R22*%
X105000000Y-114620000D03*
X105000000Y-107000000D03*
%TD*%
%TO.C,R33*%
X132880000Y-114590000D03*
X132880000Y-106970000D03*
%TD*%
%TO.C,R27*%
X148400000Y-72590000D03*
X148400000Y-80210000D03*
%TD*%
%TO.C,R23*%
X108093077Y-114620000D03*
X108093077Y-107000000D03*
%TD*%
%TO.C,R18*%
X123591239Y-114612741D03*
X123591239Y-106992741D03*
%TD*%
M02*
