%TF.GenerationSoftware,KiCad,Pcbnew,10.0.0*%
%TF.CreationDate,2026-07-30T19:28:18+12:00*%
%TF.ProjectId,OD-PT74,4f442d50-5437-4342-9e6b-696361645f70,Rev-c*%
%TF.SameCoordinates,Original*%
%TF.FileFunction,Paste,Bot*%
%TF.FilePolarity,Positive*%
%FSLAX46Y46*%
G04 Gerber Fmt 4.6, Leading zero omitted, Abs format (unit mm)*
G04 Created by KiCad (PCBNEW 10.0.0) date 2026-07-30 19:28:18*
%MOMM*%
%LPD*%
G01*
G04 APERTURE LIST*
%ADD10C,0.150000*%
G04 APERTURE END LIST*
D10*
X98550588Y-126029819D02*
X97979160Y-126029819D01*
X98264874Y-126029819D02*
X98264874Y-125029819D01*
X98264874Y-125029819D02*
X98169636Y-125172676D01*
X98169636Y-125172676D02*
X98074398Y-125267914D01*
X98074398Y-125267914D02*
X97979160Y-125315533D01*
X135860588Y-63149819D02*
X135289160Y-63149819D01*
X135574874Y-63149819D02*
X135574874Y-62149819D01*
X135574874Y-62149819D02*
X135479636Y-62292676D01*
X135479636Y-62292676D02*
X135384398Y-62387914D01*
X135384398Y-62387914D02*
X135289160Y-62435533D01*
X136479636Y-62149819D02*
X136574874Y-62149819D01*
X136574874Y-62149819D02*
X136670112Y-62197438D01*
X136670112Y-62197438D02*
X136717731Y-62245057D01*
X136717731Y-62245057D02*
X136765350Y-62340295D01*
X136765350Y-62340295D02*
X136812969Y-62530771D01*
X136812969Y-62530771D02*
X136812969Y-62768866D01*
X136812969Y-62768866D02*
X136765350Y-62959342D01*
X136765350Y-62959342D02*
X136717731Y-63054580D01*
X136717731Y-63054580D02*
X136670112Y-63102200D01*
X136670112Y-63102200D02*
X136574874Y-63149819D01*
X136574874Y-63149819D02*
X136479636Y-63149819D01*
X136479636Y-63149819D02*
X136384398Y-63102200D01*
X136384398Y-63102200D02*
X136336779Y-63054580D01*
X136336779Y-63054580D02*
X136289160Y-62959342D01*
X136289160Y-62959342D02*
X136241541Y-62768866D01*
X136241541Y-62768866D02*
X136241541Y-62530771D01*
X136241541Y-62530771D02*
X136289160Y-62340295D01*
X136289160Y-62340295D02*
X136336779Y-62245057D01*
X136336779Y-62245057D02*
X136384398Y-62197438D01*
X136384398Y-62197438D02*
X136479636Y-62149819D01*
X137432017Y-62149819D02*
X137527255Y-62149819D01*
X137527255Y-62149819D02*
X137622493Y-62197438D01*
X137622493Y-62197438D02*
X137670112Y-62245057D01*
X137670112Y-62245057D02*
X137717731Y-62340295D01*
X137717731Y-62340295D02*
X137765350Y-62530771D01*
X137765350Y-62530771D02*
X137765350Y-62768866D01*
X137765350Y-62768866D02*
X137717731Y-62959342D01*
X137717731Y-62959342D02*
X137670112Y-63054580D01*
X137670112Y-63054580D02*
X137622493Y-63102200D01*
X137622493Y-63102200D02*
X137527255Y-63149819D01*
X137527255Y-63149819D02*
X137432017Y-63149819D01*
X137432017Y-63149819D02*
X137336779Y-63102200D01*
X137336779Y-63102200D02*
X137289160Y-63054580D01*
X137289160Y-63054580D02*
X137241541Y-62959342D01*
X137241541Y-62959342D02*
X137193922Y-62768866D01*
X137193922Y-62768866D02*
X137193922Y-62530771D01*
X137193922Y-62530771D02*
X137241541Y-62340295D01*
X137241541Y-62340295D02*
X137289160Y-62245057D01*
X137289160Y-62245057D02*
X137336779Y-62197438D01*
X137336779Y-62197438D02*
X137432017Y-62149819D01*
X138193922Y-62483152D02*
X138193922Y-63149819D01*
X138193922Y-62578390D02*
X138241541Y-62530771D01*
X138241541Y-62530771D02*
X138336779Y-62483152D01*
X138336779Y-62483152D02*
X138479636Y-62483152D01*
X138479636Y-62483152D02*
X138574874Y-62530771D01*
X138574874Y-62530771D02*
X138622493Y-62626009D01*
X138622493Y-62626009D02*
X138622493Y-63149819D01*
X138955827Y-62483152D02*
X139336779Y-62483152D01*
X139098684Y-63149819D02*
X139098684Y-62292676D01*
X139098684Y-62292676D02*
X139146303Y-62197438D01*
X139146303Y-62197438D02*
X139241541Y-62149819D01*
X139241541Y-62149819D02*
X139336779Y-62149819D01*
X157629160Y-123495057D02*
X157676779Y-123447438D01*
X157676779Y-123447438D02*
X157772017Y-123399819D01*
X157772017Y-123399819D02*
X158010112Y-123399819D01*
X158010112Y-123399819D02*
X158105350Y-123447438D01*
X158105350Y-123447438D02*
X158152969Y-123495057D01*
X158152969Y-123495057D02*
X158200588Y-123590295D01*
X158200588Y-123590295D02*
X158200588Y-123685533D01*
X158200588Y-123685533D02*
X158152969Y-123828390D01*
X158152969Y-123828390D02*
X157581541Y-124399819D01*
X157581541Y-124399819D02*
X158200588Y-124399819D01*
M02*
