%TF.GenerationSoftware,KiCad,Pcbnew,10.0.0*%
%TF.CreationDate,2026-07-30T19:28:16+12:00*%
%TF.ProjectId,OD-PT74,4f442d50-5437-4342-9e6b-696361645f70,Rev-c*%
%TF.SameCoordinates,Original*%
%TF.FileFunction,Copper,L1,Top*%
%TF.FilePolarity,Positive*%
%FSLAX46Y46*%
G04 Gerber Fmt 4.6, Leading zero omitted, Abs format (unit mm)*
G04 Created by KiCad (PCBNEW 10.0.0) date 2026-07-30 19:28:16*
%MOMM*%
%LPD*%
G01*
G04 APERTURE LIST*
G04 Aperture macros list*
%AMRoundRect*
0 Rectangle with rounded corners*
0 $1 Rounding radius*
0 $2 $3 $4 $5 $6 $7 $8 $9 X,Y pos of 4 corners*
0 Add a 4 corners polygon primitive as box body*
4,1,4,$2,$3,$4,$5,$6,$7,$8,$9,$2,$3,0*
0 Add four circle primitives for the rounded corners*
1,1,$1+$1,$2,$3*
1,1,$1+$1,$4,$5*
1,1,$1+$1,$6,$7*
1,1,$1+$1,$8,$9*
0 Add four rect primitives between the rounded corners*
20,1,$1+$1,$2,$3,$4,$5,0*
20,1,$1+$1,$4,$5,$6,$7,0*
20,1,$1+$1,$6,$7,$8,$9,0*
20,1,$1+$1,$8,$9,$2,$3,0*%
%AMFreePoly0*
4,1,37,0.603843,0.796157,0.639018,0.796157,0.711114,0.766294,0.766294,0.711114,0.796157,0.639018,0.796157,0.603843,0.800000,0.600000,0.800000,-0.600000,0.796157,-0.603843,0.796157,-0.639018,0.766294,-0.711114,0.711114,-0.766294,0.639018,-0.796157,0.603843,-0.796157,0.600000,-0.800000,0.000000,-0.800000,0.000000,-0.796148,-0.078414,-0.796148,-0.232228,-0.765552,-0.377117,-0.705537,
-0.507515,-0.618408,-0.618408,-0.507515,-0.705537,-0.377117,-0.765552,-0.232228,-0.796148,-0.078414,-0.796148,0.078414,-0.765552,0.232228,-0.705537,0.377117,-0.618408,0.507515,-0.507515,0.618408,-0.377117,0.705537,-0.232228,0.765552,-0.078414,0.796148,0.000000,0.796148,0.000000,0.800000,0.600000,0.800000,0.603843,0.796157,0.603843,0.796157,$1*%
%AMFreePoly1*
4,1,37,0.000000,0.796148,0.078414,0.796148,0.232228,0.765552,0.377117,0.705537,0.507515,0.618408,0.618408,0.507515,0.705537,0.377117,0.765552,0.232228,0.796148,0.078414,0.796148,-0.078414,0.765552,-0.232228,0.705537,-0.377117,0.618408,-0.507515,0.507515,-0.618408,0.377117,-0.705537,0.232228,-0.765552,0.078414,-0.796148,0.000000,-0.796148,0.000000,-0.800000,-0.600000,-0.800000,
-0.603843,-0.796157,-0.639018,-0.796157,-0.711114,-0.766294,-0.766294,-0.711114,-0.796157,-0.639018,-0.796157,-0.603843,-0.800000,-0.600000,-0.800000,0.600000,-0.796157,0.603843,-0.796157,0.639018,-0.766294,0.711114,-0.711114,0.766294,-0.639018,0.796157,-0.603843,0.796157,-0.600000,0.800000,0.000000,0.800000,0.000000,0.796148,0.000000,0.796148,$1*%
G04 Aperture macros list end*
%TA.AperFunction,SMDPad,CuDef*%
%ADD10RoundRect,0.150000X0.150000X-0.587500X0.150000X0.587500X-0.150000X0.587500X-0.150000X-0.587500X0*%
%TD*%
%TA.AperFunction,ComponentPad*%
%ADD11C,1.600000*%
%TD*%
%TA.AperFunction,ComponentPad*%
%ADD12RoundRect,0.250000X0.500000X0.500000X-0.500000X0.500000X-0.500000X-0.500000X0.500000X-0.500000X0*%
%TD*%
%TA.AperFunction,ComponentPad*%
%ADD13C,1.500000*%
%TD*%
%TA.AperFunction,ComponentPad*%
%ADD14RoundRect,0.250000X-0.550000X-0.550000X0.550000X-0.550000X0.550000X0.550000X-0.550000X0.550000X0*%
%TD*%
%TA.AperFunction,SMDPad,CuDef*%
%ADD15RoundRect,0.150000X-0.150000X0.587500X-0.150000X-0.587500X0.150000X-0.587500X0.150000X0.587500X0*%
%TD*%
%TA.AperFunction,ComponentPad*%
%ADD16R,1.700000X1.700000*%
%TD*%
%TA.AperFunction,ComponentPad*%
%ADD17C,1.700000*%
%TD*%
%TA.AperFunction,SMDPad,CuDef*%
%ADD18RoundRect,0.150000X-0.150000X0.512500X-0.150000X-0.512500X0.150000X-0.512500X0.150000X0.512500X0*%
%TD*%
%TA.AperFunction,ComponentPad*%
%ADD19RoundRect,0.249999X0.850001X-0.850001X0.850001X0.850001X-0.850001X0.850001X-0.850001X-0.850001X0*%
%TD*%
%TA.AperFunction,ComponentPad*%
%ADD20C,2.200000*%
%TD*%
%TA.AperFunction,SMDPad,CuDef*%
%ADD21RoundRect,0.150000X0.587500X0.150000X-0.587500X0.150000X-0.587500X-0.150000X0.587500X-0.150000X0*%
%TD*%
%TA.AperFunction,ComponentPad*%
%ADD22RoundRect,0.250000X-0.550000X0.550000X-0.550000X-0.550000X0.550000X-0.550000X0.550000X0.550000X0*%
%TD*%
%TA.AperFunction,ComponentPad*%
%ADD23R,3.500000X3.500000*%
%TD*%
%TA.AperFunction,ComponentPad*%
%ADD24RoundRect,0.750000X-1.000000X0.750000X-1.000000X-0.750000X1.000000X-0.750000X1.000000X0.750000X0*%
%TD*%
%TA.AperFunction,ComponentPad*%
%ADD25RoundRect,0.875000X-0.875000X0.875000X-0.875000X-0.875000X0.875000X-0.875000X0.875000X0.875000X0*%
%TD*%
%TA.AperFunction,ComponentPad*%
%ADD26C,2.000000*%
%TD*%
%TA.AperFunction,ComponentPad*%
%ADD27RoundRect,0.200000X0.600000X-0.600000X0.600000X0.600000X-0.600000X0.600000X-0.600000X-0.600000X0*%
%TD*%
%TA.AperFunction,ComponentPad*%
%ADD28FreePoly0,90.000000*%
%TD*%
%TA.AperFunction,ComponentPad*%
%ADD29FreePoly1,90.000000*%
%TD*%
%TA.AperFunction,ComponentPad*%
%ADD30R,1.800000X1.800000*%
%TD*%
%TA.AperFunction,ComponentPad*%
%ADD31C,1.800000*%
%TD*%
%TA.AperFunction,ViaPad*%
%ADD32C,0.600000*%
%TD*%
%TA.AperFunction,Conductor*%
%ADD33C,0.200000*%
%TD*%
%TA.AperFunction,Conductor*%
%ADD34C,1.000000*%
%TD*%
%TA.AperFunction,Conductor*%
%ADD35C,0.500000*%
%TD*%
G04 APERTURE END LIST*
D10*
%TO.P,D6,1,A_1*%
%TO.N,GND*%
X108097715Y-119823475D03*
%TO.P,D6,2,K_2*%
%TO.N,+3.3V*%
X109997715Y-119823475D03*
%TO.P,D6,3,COM_3*%
%TO.N,/GP_4*%
X109047715Y-117948475D03*
%TD*%
D11*
%TO.P,R1,1*%
%TO.N,Net-(U1-~{RESET})*%
X68890000Y-137300000D03*
%TO.P,R1,2*%
%TO.N,+3.3V*%
X76510000Y-137300000D03*
%TD*%
D10*
%TO.P,D23,1,A_1*%
%TO.N,GND*%
X136847258Y-119791771D03*
%TO.P,D23,2,K_2*%
%TO.N,+3.3V*%
X138747258Y-119791771D03*
%TO.P,D23,3,COM_3*%
%TO.N,/GP_12*%
X137797258Y-117916771D03*
%TD*%
D11*
%TO.P,R29,1*%
%TO.N,/ZIF_15*%
X145296120Y-114590000D03*
%TO.P,R29,2*%
%TO.N,/GP_16*%
X145296120Y-106970000D03*
%TD*%
%TO.P,C13,1*%
%TO.N,/ZIF_20*%
X140400000Y-42000000D03*
%TO.P,C13,2*%
%TO.N,GND*%
X135400000Y-42000000D03*
%TD*%
D12*
%TO.P,Q1,1,E_1*%
%TO.N,GND*%
X83540000Y-111060000D03*
D13*
%TO.P,Q1,2,B_2*%
%TO.N,Net-(Q1-B)*%
X81000000Y-113600000D03*
%TO.P,Q1,3,C_3*%
%TO.N,/Pezzio*%
X78460000Y-111060000D03*
%TD*%
D14*
%TO.P,C5,1*%
%TO.N,+5V*%
X61697349Y-69100000D03*
D11*
%TO.P,C5,2*%
%TO.N,GND*%
X66697349Y-69100000D03*
%TD*%
D10*
%TO.P,D10,1,A_1*%
%TO.N,GND*%
X122450000Y-119800000D03*
%TO.P,D10,2,K_2*%
%TO.N,+3.3V*%
X124350000Y-119800000D03*
%TO.P,D10,3,COM_3*%
%TO.N,/GP_8*%
X123400000Y-117925000D03*
%TD*%
D15*
%TO.P,D14,1,A_1*%
%TO.N,GND*%
X141550000Y-67725000D03*
%TO.P,D14,2,K_2*%
%TO.N,+3.3V*%
X139650000Y-67725000D03*
%TO.P,D14,3,COM_3*%
%TO.N,/GP_21*%
X140600000Y-69600000D03*
%TD*%
D11*
%TO.P,C8,1*%
%TO.N,GND*%
X135960000Y-65040000D03*
%TO.P,C8,2*%
%TO.N,/Encoder_A*%
X135960000Y-70040000D03*
%TD*%
%TO.P,R15,1*%
%TO.N,/ZIF_5*%
X114294807Y-114620000D03*
%TO.P,R15,2*%
%TO.N,/GP_6*%
X114294807Y-107000000D03*
%TD*%
%TO.P,C6,1*%
%TO.N,GND*%
X129500000Y-75200000D03*
%TO.P,C6,2*%
%TO.N,/Encoder SW*%
X129500000Y-80200000D03*
%TD*%
D16*
%TO.P,J4,1,Pin_1_1*%
%TO.N,/V_OUT*%
X153725000Y-126620000D03*
D17*
%TO.P,J4,2,Pin_2_2*%
%TO.N,Net-(J4-Pin_2)*%
X156265000Y-126620000D03*
%TO.P,J4,3,Pin_3_3*%
%TO.N,/ZIF_10*%
X153725000Y-129160000D03*
%TO.P,J4,4,Pin_4_4*%
%TO.N,GND*%
X156265000Y-129160000D03*
%TO.P,J4,5,Pin_5_5*%
%TO.N,/ZIF_8*%
X153725000Y-131700000D03*
%TO.P,J4,6,Pin_6_6*%
%TO.N,/Package 14 sence*%
X156265000Y-131700000D03*
%TO.P,J4,7,Pin_7_7*%
%TO.N,/ZIF_7*%
X153725000Y-134240000D03*
%TO.P,J4,8,Pin_8_8*%
%TO.N,/<NO NET>*%
X156265000Y-134240000D03*
%TO.P,J4,9,Pin_9_9*%
%TO.N,GND*%
X153725000Y-136780000D03*
%TO.P,J4,10,Pin_10_10*%
%TO.N,/Package 20 sence*%
X156265000Y-136780000D03*
%TD*%
D18*
%TO.P,U2,1,FB_1*%
%TO.N,+3.3V*%
X76950000Y-57862500D03*
%TO.P,U2,2,EN_2*%
%TO.N,+5V*%
X76000000Y-57862500D03*
%TO.P,U2,3,IN_3*%
X75050000Y-57862500D03*
%TO.P,U2,4,GND_4*%
%TO.N,GND*%
X75050000Y-60137500D03*
%TO.P,U2,5,SW_5*%
%TO.N,Net-(U2-SW)*%
X76000000Y-60137500D03*
%TO.P,U2,6,BST_6*%
%TO.N,Net-(U2-BST)*%
X76950000Y-60137500D03*
%TD*%
D19*
%TO.P,D2,1,K_1*%
%TO.N,Net-(D2-K)*%
X61800000Y-51980000D03*
D20*
%TO.P,D2,2,A_2*%
%TO.N,Net-(D2-A)*%
X61800000Y-41820000D03*
%TD*%
D10*
%TO.P,D11,1,A_1*%
%TO.N,GND*%
X126050000Y-119800000D03*
%TO.P,D11,2,K_2*%
%TO.N,+3.3V*%
X127950000Y-119800000D03*
%TO.P,D11,3,COM_3*%
%TO.N,/GP_9*%
X127000000Y-117925000D03*
%TD*%
%TO.P,D7,1,A_1*%
%TO.N,GND*%
X111697715Y-119823475D03*
%TO.P,D7,2,K_2*%
%TO.N,+3.3V*%
X113597715Y-119823475D03*
%TO.P,D7,3,COM_3*%
%TO.N,/GP_5*%
X112647715Y-117948475D03*
%TD*%
D16*
%TO.P,SW5,1,A_1*%
%TO.N,/Voltage 3.3v sence*%
X89320000Y-137200000D03*
D17*
%TO.P,SW5,2,B_2*%
%TO.N,GND*%
X91860000Y-137200000D03*
%TO.P,SW5,3,C_3*%
%TO.N,/Volatge 5v sence*%
X94400000Y-137200000D03*
%TD*%
D10*
%TO.P,D20,1,A_1*%
%TO.N,GND*%
X147650000Y-119791771D03*
%TO.P,D20,2,K_2*%
%TO.N,+3.3V*%
X149550000Y-119791771D03*
%TO.P,D20,3,COM_3*%
%TO.N,/GP_15*%
X148600000Y-117916771D03*
%TD*%
D11*
%TO.P,C3,1*%
%TO.N,+3.3V*%
X111500000Y-79200000D03*
%TO.P,C3,2*%
%TO.N,GND*%
X116500000Y-79200000D03*
%TD*%
%TO.P,C9,1*%
%TO.N,Net-(U2-BST)*%
X78900000Y-59800000D03*
%TO.P,C9,2*%
%TO.N,Net-(U2-SW)*%
X83900000Y-59800000D03*
%TD*%
D21*
%TO.P,D17,1,A_1*%
%TO.N,GND*%
X153875000Y-80050000D03*
%TO.P,D17,2,K_2*%
%TO.N,+3.3V*%
X153875000Y-78150000D03*
%TO.P,D17,3,COM_3*%
%TO.N,/GP_18*%
X152000000Y-79100000D03*
%TD*%
D11*
%TO.P,R2,1*%
%TO.N,Net-(Q1-B)*%
X86300000Y-114280000D03*
%TO.P,R2,2*%
%TO.N,/BUZZER*%
X86300000Y-121900000D03*
%TD*%
%TO.P,L1,1,1_1*%
%TO.N,Net-(U2-SW)*%
X76190000Y-63000000D03*
%TO.P,L1,2,2_2*%
%TO.N,+3.3V*%
X83810000Y-63000000D03*
%TD*%
%TO.P,R8,1*%
%TO.N,+3.3V*%
X122989303Y-72575859D03*
%TO.P,R8,2*%
%TO.N,/I2C SCL*%
X122989303Y-80195859D03*
%TD*%
D16*
%TO.P,SW6,1,A_1*%
%TO.N,+3.3V*%
X105880000Y-137100000D03*
D17*
%TO.P,SW6,2,B_2*%
%TO.N,/V_OUT*%
X103340000Y-137100000D03*
%TO.P,SW6,3,C_3*%
%TO.N,+5V*%
X100800000Y-137100000D03*
%TD*%
D11*
%TO.P,R20,1*%
%TO.N,/ZIF_10*%
X129784357Y-114594847D03*
%TO.P,R20,2*%
%TO.N,/GP_11*%
X129784357Y-106974847D03*
%TD*%
D22*
%TO.P,U1,1,GPB0_1*%
%TO.N,Net-(U1-GPB0)*%
X96100000Y-125580000D03*
D11*
%TO.P,U1,2,GPB1_2*%
%TO.N,Net-(U1-GPB1)*%
X93560000Y-125580000D03*
%TO.P,U1,3,GPB2_3*%
%TO.N,Net-(U1-GPB2)*%
X91020000Y-125580000D03*
%TO.P,U1,4,GPB3_4*%
%TO.N,/BUZZER*%
X88480000Y-125580000D03*
%TO.P,U1,5,GPB4_5*%
%TO.N,unconnected-(U1-GPB4-Pad5)*%
X85940000Y-125580000D03*
%TO.P,U1,6,GPB5_6*%
%TO.N,unconnected-(U1-GPB5-Pad6)*%
X83400000Y-125580000D03*
%TO.P,U1,7,GPB6_7*%
%TO.N,unconnected-(U1-GPB6-Pad7)*%
X80860000Y-125580000D03*
%TO.P,U1,8,GPB7_8*%
%TO.N,unconnected-(U1-GPB7-Pad8)*%
X78320000Y-125580000D03*
%TO.P,U1,9,V_{DD}_9*%
%TO.N,+3.3V*%
X75780000Y-125580000D03*
%TO.P,U1,10,V_{SS}_10*%
%TO.N,GND*%
X73240000Y-125580000D03*
%TO.P,U1,11,NC_11*%
%TO.N,unconnected-(U1-NC-Pad11)*%
X70700000Y-125580000D03*
%TO.P,U1,12,SCK_12*%
%TO.N,/I2C SCL*%
X68160000Y-125580000D03*
%TO.P,U1,13,SDA_13*%
%TO.N,/I2C SDA*%
X65620000Y-125580000D03*
%TO.P,U1,14,NC_14*%
%TO.N,unconnected-(U1-NC-Pad14)*%
X63080000Y-125580000D03*
%TO.P,U1,15,A0_15*%
%TO.N,GND*%
X63080000Y-133200000D03*
%TO.P,U1,16,A1_16*%
X65620000Y-133200000D03*
%TO.P,U1,17,A2_17*%
X68160000Y-133200000D03*
%TO.P,U1,18,~{RESET}_18*%
%TO.N,Net-(U1-~{RESET})*%
X70700000Y-133200000D03*
%TO.P,U1,19,INTB_19*%
%TO.N,unconnected-(U1-INTB-Pad19)*%
X73240000Y-133200000D03*
%TO.P,U1,20,INTA_20*%
%TO.N,unconnected-(U1-INTA-Pad20)*%
X75780000Y-133200000D03*
%TO.P,U1,21,GPA0_21*%
%TO.N,/Next {slash} select Button*%
X78320000Y-133200000D03*
%TO.P,U1,22,GPA1_22*%
%TO.N,/Test {slash} enter Button*%
X80860000Y-133200000D03*
%TO.P,U1,23,GPA2_23*%
%TO.N,/Package 14 sence*%
X83400000Y-133200000D03*
%TO.P,U1,24,GPA3_24*%
%TO.N,/<NO NET>*%
X85940000Y-133200000D03*
%TO.P,U1,25,GPA4_25*%
%TO.N,/Package 20 sence*%
X88480000Y-133200000D03*
%TO.P,U1,26,GPA5_26*%
%TO.N,/Voltage 3.3v sence*%
X91020000Y-133200000D03*
%TO.P,U1,27,GPA6_27*%
%TO.N,/Volatge 5v sence*%
X93560000Y-133200000D03*
%TO.P,U1,28,GPA7_28*%
%TO.N,unconnected-(U1-GPA7-Pad28)*%
X96100000Y-133200000D03*
%TD*%
%TO.P,R7,1*%
%TO.N,+3.3V*%
X126107418Y-72590000D03*
%TO.P,R7,2*%
%TO.N,/I2C SDA*%
X126107418Y-80210000D03*
%TD*%
%TO.P,C11,1*%
%TO.N,GND*%
X76300000Y-70100000D03*
%TO.P,C11,2*%
%TO.N,+3.3V*%
X81300000Y-70100000D03*
%TD*%
%TO.P,R17,1*%
%TO.N,/ZIF_7*%
X120491239Y-114612741D03*
%TO.P,R17,2*%
%TO.N,/GP_8*%
X120491239Y-106992741D03*
%TD*%
%TO.P,R4,1*%
%TO.N,/RGB red*%
X95900000Y-114280000D03*
%TO.P,R4,2*%
%TO.N,Net-(U1-GPB0)*%
X95900000Y-121900000D03*
%TD*%
D23*
%TO.P,J3,1*%
%TO.N,Net-(F1-Pad1)*%
X79690000Y-50230000D03*
D24*
%TO.P,J3,2*%
%TO.N,GND*%
X79690000Y-44230000D03*
D25*
%TO.P,J3,3*%
%TO.N,unconnected-(J3-Pad3)*%
X74990000Y-47230000D03*
%TD*%
D11*
%TO.P,R31,1*%
%TO.N,/ZIF_13*%
X139096120Y-114590000D03*
%TO.P,R31,2*%
%TO.N,/GP_14*%
X139096120Y-106970000D03*
%TD*%
D26*
%TO.P,F1,1*%
%TO.N,Net-(F1-Pad1)*%
X69000000Y-47540000D03*
%TO.P,F1,2*%
%TO.N,Net-(D2-A)*%
X69010000Y-42460000D03*
%TD*%
D21*
%TO.P,D19,1,A_1*%
%TO.N,GND*%
X153437500Y-116050000D03*
%TO.P,D19,2,K_2*%
%TO.N,+3.3V*%
X153437500Y-114150000D03*
%TO.P,D19,3,COM_3*%
%TO.N,/GP_16*%
X151562500Y-115100000D03*
%TD*%
D16*
%TO.P,SW4,1,A_1*%
%TO.N,unconnected-(SW4-A-Pad1)*%
X70740000Y-52500000D03*
D17*
%TO.P,SW4,2,B_2*%
%TO.N,Net-(D2-K)*%
X68200000Y-52500000D03*
%TO.P,SW4,3,C_3*%
%TO.N,+5V*%
X65660000Y-52500000D03*
%TD*%
D11*
%TO.P,R14,1*%
%TO.N,/ZIF_4*%
X111200000Y-114620000D03*
%TO.P,R14,2*%
%TO.N,/GP_5*%
X111200000Y-107000000D03*
%TD*%
%TO.P,R32,1*%
%TO.N,/ZIF_12*%
X135980000Y-114590000D03*
%TO.P,R32,2*%
%TO.N,/GP_13*%
X135980000Y-106970000D03*
%TD*%
D10*
%TO.P,D5,1,A_1*%
%TO.N,GND*%
X104497715Y-119823475D03*
%TO.P,D5,2,K_2*%
%TO.N,+3.3V*%
X106397715Y-119823475D03*
%TO.P,D5,3,COM_3*%
%TO.N,/GP_3*%
X105447715Y-117948475D03*
%TD*%
D11*
%TO.P,R16,1*%
%TO.N,/ZIF_6*%
X117400000Y-114610000D03*
%TO.P,R16,2*%
%TO.N,/GP_7*%
X117400000Y-106990000D03*
%TD*%
%TO.P,C2,1*%
%TO.N,+3.3V*%
X111500000Y-75150000D03*
%TO.P,C2,2*%
%TO.N,GND*%
X116500000Y-75150000D03*
%TD*%
D22*
%TO.P,C12,1*%
%TO.N,/ZIF_20*%
X155000000Y-42097349D03*
D11*
%TO.P,C12,2*%
%TO.N,GND*%
X155000000Y-47097349D03*
%TD*%
%TO.P,R11,1*%
%TO.N,GND*%
X68100000Y-64010000D03*
%TO.P,R11,2*%
%TO.N,Net-(D3-K)*%
X68100000Y-56390000D03*
%TD*%
%TO.P,C7,1*%
%TO.N,GND*%
X132810000Y-65030000D03*
%TO.P,C7,2*%
%TO.N,/Encoder_B*%
X132810000Y-70030000D03*
%TD*%
D15*
%TO.P,D15,1,A_1*%
%TO.N,GND*%
X145500000Y-67700000D03*
%TO.P,D15,2,K_2*%
%TO.N,+3.3V*%
X143600000Y-67700000D03*
%TO.P,D15,3,COM_3*%
%TO.N,/GP_20*%
X144550000Y-69575000D03*
%TD*%
D10*
%TO.P,D21,1,A_1*%
%TO.N,GND*%
X144046677Y-119791771D03*
%TO.P,D21,2,K_2*%
%TO.N,+3.3V*%
X145946677Y-119791771D03*
%TO.P,D21,3,COM_3*%
%TO.N,/GP_14*%
X144996677Y-117916771D03*
%TD*%
%TO.P,D12,1,A_1*%
%TO.N,GND*%
X129650000Y-119800000D03*
%TO.P,D12,2,K_2*%
%TO.N,+3.3V*%
X131550000Y-119800000D03*
%TO.P,D12,3,COM_3*%
%TO.N,/GP_10*%
X130600000Y-117925000D03*
%TD*%
D11*
%TO.P,R24,1*%
%TO.N,/ZIF_20*%
X139100000Y-72590000D03*
%TO.P,R24,2*%
%TO.N,/GP_21*%
X139100000Y-80210000D03*
%TD*%
D27*
%TO.P,A1,1,GPIO0_1*%
%TO.N,/GP_2*%
X101624028Y-102493797D03*
D11*
%TO.P,A1,2,GPIO1_2*%
%TO.N,/GP_3*%
X104164028Y-102493797D03*
D28*
%TO.P,A1,3,GND_3*%
%TO.N,GND*%
X106704028Y-102493797D03*
D11*
%TO.P,A1,4,GPIO2_4*%
%TO.N,/GP_4*%
X109244028Y-102493797D03*
%TO.P,A1,5,GPIO3_5*%
%TO.N,/GP_5*%
X111784028Y-102493797D03*
%TO.P,A1,6,GPIO4_6*%
%TO.N,/GP_6*%
X114324028Y-102493797D03*
%TO.P,A1,7,GPIO5_7*%
%TO.N,/GP_7*%
X116864028Y-102493797D03*
D28*
%TO.P,A1,8,GND_8*%
%TO.N,GND*%
X119404028Y-102493797D03*
D11*
%TO.P,A1,9,GPIO6_9*%
%TO.N,/GP_8*%
X121944028Y-102493797D03*
%TO.P,A1,10,GPIO7_10*%
%TO.N,/GP_9*%
X124484028Y-102493797D03*
%TO.P,A1,11,GPIO8_11*%
%TO.N,/GP_10*%
X127024028Y-102493797D03*
%TO.P,A1,12,GPIO9_12*%
%TO.N,/GP_11*%
X129564028Y-102493797D03*
D28*
%TO.P,A1,13,GND_13*%
%TO.N,GND*%
X132104028Y-102493797D03*
D11*
%TO.P,A1,14,GPIO10_14*%
%TO.N,/GP_12*%
X134644028Y-102493797D03*
%TO.P,A1,15,GPIO11_15*%
%TO.N,/GP_13*%
X137184028Y-102493797D03*
%TO.P,A1,16,GPIO12_16*%
%TO.N,/GP_14*%
X139724028Y-102493797D03*
%TO.P,A1,17,GPIO13_17*%
%TO.N,/GP_15*%
X142264028Y-102493797D03*
D28*
%TO.P,A1,18,GND_18*%
%TO.N,GND*%
X144804028Y-102493797D03*
D11*
%TO.P,A1,19,GPIO14_19*%
%TO.N,/GP_16*%
X147344028Y-102493797D03*
%TO.P,A1,20,GPIO15_20*%
%TO.N,/GP_17*%
X149884028Y-102493797D03*
%TO.P,A1,21,GPIO16_21*%
%TO.N,/GP_18*%
X149884028Y-84713797D03*
%TO.P,A1,22,GPIO17_22*%
%TO.N,/GP_19*%
X147344028Y-84713797D03*
D29*
%TO.P,A1,23,GND_23*%
%TO.N,GND*%
X144804028Y-84713797D03*
D11*
%TO.P,A1,24,GPIO18_24*%
%TO.N,/GP_20*%
X142264028Y-84713797D03*
%TO.P,A1,25,GPIO19_25*%
%TO.N,/GP_21*%
X139724028Y-84713797D03*
%TO.P,A1,26,GPIO20_26*%
%TO.N,/Encoder_A*%
X137184028Y-84713797D03*
%TO.P,A1,27,GPIO21_27*%
%TO.N,/Encoder_B*%
X134644028Y-84713797D03*
D29*
%TO.P,A1,28,GND_28*%
%TO.N,GND*%
X132104028Y-84713797D03*
D11*
%TO.P,A1,29,GPIO22_29*%
%TO.N,/Encoder SW*%
X129564028Y-84713797D03*
%TO.P,A1,30,RUN_30*%
%TO.N,unconnected-(A1-RUN-Pad30)*%
X127024028Y-84713797D03*
%TO.P,A1,31,GPIO26_ADC0_31*%
%TO.N,/I2C SDA*%
X124484028Y-84713797D03*
%TO.P,A1,32,GPIO27_ADC1_32*%
%TO.N,/I2C SCL*%
X121944028Y-84713797D03*
D29*
%TO.P,A1,33,AGND_33*%
%TO.N,GND*%
X119404028Y-84713797D03*
D11*
%TO.P,A1,34,GPIO28_ADC2_34*%
%TO.N,/extra_gpio28*%
X116864028Y-84713797D03*
%TO.P,A1,35,ADC_VREF_35*%
%TO.N,unconnected-(A1-ADC_VREF-Pad35)*%
X114324028Y-84713797D03*
%TO.P,A1,36,3V3_36*%
%TO.N,unconnected-(A1-3V3-Pad36)*%
X111784028Y-84713797D03*
%TO.P,A1,37,3V3_EN_37*%
%TO.N,unconnected-(A1-3V3_EN-Pad37)*%
X109244028Y-84713797D03*
D29*
%TO.P,A1,38,GND_38*%
%TO.N,GND*%
X106704028Y-84713797D03*
D11*
%TO.P,A1,39,VSYS_39*%
%TO.N,+5V*%
X104164028Y-84713797D03*
%TO.P,A1,40,VBUS_40*%
%TO.N,unconnected-(A1-VBUS-Pad40)*%
X101624028Y-84713797D03*
%TD*%
D16*
%TO.P,J8,1,Pin_1_1*%
%TO.N,/ZIF_17*%
X148060000Y-45800000D03*
D17*
%TO.P,J8,2,Pin_2_2*%
%TO.N,/ZIF_18*%
X145520000Y-45800000D03*
%TO.P,J8,3,Pin_3_3*%
%TO.N,/ZIF_19*%
X142980000Y-45800000D03*
%TO.P,J8,4,Pin_4_4*%
%TO.N,/ZIF_20*%
X140440000Y-45800000D03*
%TO.P,J8,5,Pin_5_5*%
%TO.N,/I2C SDA*%
X137900000Y-45800000D03*
%TO.P,J8,6,Pin_6_6*%
%TO.N,/I2C SCL*%
X135360000Y-45800000D03*
%TO.P,J8,7,Pin_7_7*%
%TO.N,/RGB red*%
X132820000Y-45800000D03*
%TO.P,J8,8,Pin_8_8*%
%TO.N,/RGB green*%
X130280000Y-45800000D03*
%TO.P,J8,9,Pin_9_9*%
%TO.N,/RGB blue*%
X127740000Y-45800000D03*
%TO.P,J8,10,Pin_10_10*%
%TO.N,/Test {slash} enter Button*%
X125200000Y-45800000D03*
%TO.P,J8,11,Pin_11_11*%
%TO.N,/Pezzio*%
X122660000Y-45800000D03*
%TO.P,J8,12,Pin_12_12*%
%TO.N,/Encoder_A*%
X120120000Y-45800000D03*
%TO.P,J8,13,Pin_13_13*%
%TO.N,/Encoder_B*%
X117580000Y-45800000D03*
%TO.P,J8,14,Pin_14_14*%
%TO.N,/Encoder SW*%
X115040000Y-45800000D03*
%TO.P,J8,15,Pin_15_15*%
%TO.N,/extra_gpio28*%
X112500000Y-45800000D03*
%TO.P,J8,16,Pin_16_16*%
%TO.N,/Next {slash} select Button*%
X109960000Y-45800000D03*
%TD*%
D11*
%TO.P,R28,1*%
%TO.N,/ZIF_16*%
X148396120Y-114590000D03*
%TO.P,R28,2*%
%TO.N,/GP_17*%
X148396120Y-106970000D03*
%TD*%
D16*
%TO.P,J7,1,Pin_1_1*%
%TO.N,/ZIF_1*%
X110216917Y-131864655D03*
D17*
%TO.P,J7,2,Pin_2_2*%
%TO.N,/ZIF_2*%
X112756917Y-131864655D03*
%TO.P,J7,3,Pin_3_3*%
%TO.N,/ZIF_3*%
X115296917Y-131864655D03*
%TO.P,J7,4,Pin_4_4*%
%TO.N,/ZIF_4*%
X117836917Y-131864655D03*
%TO.P,J7,5,Pin_5_5*%
%TO.N,/ZIF_5*%
X120376917Y-131864655D03*
%TO.P,J7,6,Pin_6_6*%
%TO.N,/ZIF_6*%
X122916917Y-131864655D03*
%TO.P,J7,7,Pin_7_7*%
%TO.N,/ZIF_7*%
X125456917Y-131864655D03*
%TO.P,J7,8,Pin_8_8*%
%TO.N,/ZIF_8*%
X127996917Y-131864655D03*
%TO.P,J7,9,Pin_9_9*%
%TO.N,/ZIF_9*%
X130536917Y-131864655D03*
%TO.P,J7,10,Pin_10_10*%
%TO.N,/ZIF_10*%
X133076917Y-131864655D03*
%TO.P,J7,11,Pin_11_11*%
%TO.N,/ZIF_11*%
X135616917Y-131864655D03*
%TO.P,J7,12,Pin_12_12*%
%TO.N,/ZIF_12*%
X138156917Y-131864655D03*
%TO.P,J7,13,Pin_13_13*%
%TO.N,/ZIF_13*%
X140696917Y-131864655D03*
%TO.P,J7,14,Pin_14_14*%
%TO.N,/ZIF_14*%
X143236917Y-131864655D03*
%TO.P,J7,15,Pin_15_15*%
%TO.N,/ZIF_15*%
X145776917Y-131864655D03*
%TO.P,J7,16,Pin_16_16*%
%TO.N,/ZIF_16*%
X148316917Y-131864655D03*
%TD*%
D11*
%TO.P,R19,1*%
%TO.N,/ZIF_9*%
X126691239Y-114612741D03*
%TO.P,R19,2*%
%TO.N,/GP_10*%
X126691239Y-106992741D03*
%TD*%
%TO.P,C10,1*%
%TO.N,GND*%
X76300000Y-66050000D03*
%TO.P,C10,2*%
%TO.N,+3.3V*%
X81300000Y-66050000D03*
%TD*%
D21*
%TO.P,D16,1,A_1*%
%TO.N,GND*%
X153875000Y-75650000D03*
%TO.P,D16,2,K_2*%
%TO.N,+3.3V*%
X153875000Y-73750000D03*
%TO.P,D16,3,COM_3*%
%TO.N,/GP_19*%
X152000000Y-74700000D03*
%TD*%
D10*
%TO.P,D8,1,A_1*%
%TO.N,GND*%
X115297715Y-119823475D03*
%TO.P,D8,2,K_2*%
%TO.N,+3.3V*%
X117197715Y-119823475D03*
%TO.P,D8,3,COM_3*%
%TO.N,/GP_6*%
X116247715Y-117948475D03*
%TD*%
D26*
%TO.P,SW3,1,1_1*%
%TO.N,/Test {slash} enter Button*%
X104000000Y-42400000D03*
X104000000Y-48900000D03*
%TO.P,SW3,2,2_2*%
%TO.N,GND*%
X99500000Y-42400000D03*
X99500000Y-48900000D03*
%TD*%
D11*
%TO.P,C4,1*%
%TO.N,GND*%
X72000000Y-62900000D03*
%TO.P,C4,2*%
%TO.N,+5V*%
X72000000Y-57900000D03*
%TD*%
%TO.P,R9,1*%
%TO.N,Net-(J4-Pin_2)*%
X140500000Y-56600000D03*
%TO.P,R9,2*%
%TO.N,/ZIF_20*%
X140500000Y-48980000D03*
%TD*%
D16*
%TO.P,J6,1,Pin_1_1*%
%TO.N,+5V*%
X63460000Y-78940000D03*
D17*
%TO.P,J6,2,Pin_2_2*%
%TO.N,+3.3V*%
X66000000Y-78940000D03*
%TO.P,J6,3,Pin_3_3*%
%TO.N,unconnected-(J6-Pin_3-Pad3)*%
X63460000Y-81480000D03*
%TO.P,J6,4,Pin_4_4*%
%TO.N,unconnected-(J6-Pin_4-Pad4)*%
X66000000Y-81480000D03*
%TO.P,J6,5,Pin_5_5*%
%TO.N,GND*%
X63460000Y-84020000D03*
%TO.P,J6,6,Pin_6_6*%
X66000000Y-84020000D03*
%TO.P,J6,7,Pin_7_7*%
%TO.N,+5V*%
X63460000Y-86560000D03*
%TO.P,J6,8,Pin_8_8*%
%TO.N,+3.3V*%
X66000000Y-86560000D03*
%TO.P,J6,9,Pin_9_9*%
%TO.N,unconnected-(J6-Pin_9-Pad9)*%
X63460000Y-89100000D03*
%TO.P,J6,10,Pin_10_10*%
%TO.N,unconnected-(J6-Pin_10-Pad10)*%
X66000000Y-89100000D03*
%TO.P,J6,11,Pin_11_11*%
%TO.N,GND*%
X63460000Y-91640000D03*
%TO.P,J6,12,Pin_12_12*%
X66000000Y-91640000D03*
%TO.P,J6,13,Pin_13_13*%
%TO.N,+5V*%
X63460000Y-94180000D03*
%TO.P,J6,14,Pin_14_14*%
%TO.N,+3.3V*%
X66000000Y-94180000D03*
%TO.P,J6,15,Pin_15_15*%
%TO.N,unconnected-(J6-Pin_15-Pad15)*%
X63460000Y-96720000D03*
%TO.P,J6,16,Pin_16_16*%
%TO.N,unconnected-(J6-Pin_16-Pad16)*%
X66000000Y-96720000D03*
%TO.P,J6,17,Pin_17_17*%
%TO.N,GND*%
X63460000Y-99260000D03*
%TO.P,J6,18,Pin_18_18*%
X66000000Y-99260000D03*
%TO.P,J6,19,Pin_19_19*%
%TO.N,unconnected-(J6-Pin_19-Pad19)*%
X63460000Y-101800000D03*
%TO.P,J6,20,Pin_20_20*%
%TO.N,unconnected-(J6-Pin_20-Pad20)*%
X66000000Y-101800000D03*
%TD*%
D11*
%TO.P,R30,1*%
%TO.N,/ZIF_14*%
X142196120Y-114590000D03*
%TO.P,R30,2*%
%TO.N,/GP_15*%
X142196120Y-106970000D03*
%TD*%
%TO.P,R5,1*%
%TO.N,/RGB green*%
X92700000Y-114280000D03*
%TO.P,R5,2*%
%TO.N,Net-(U1-GPB1)*%
X92700000Y-121900000D03*
%TD*%
D30*
%TO.P,D3,1,K_1*%
%TO.N,Net-(D3-K)*%
X64170000Y-59800000D03*
D31*
%TO.P,D3,2,A_2*%
%TO.N,+5V*%
X61630000Y-59800000D03*
%TD*%
D11*
%TO.P,R26,1*%
%TO.N,/ZIF_18*%
X145300000Y-72590000D03*
%TO.P,R26,2*%
%TO.N,/GP_19*%
X145300000Y-80210000D03*
%TD*%
D10*
%TO.P,D4,1,A_1*%
%TO.N,GND*%
X100897715Y-119823475D03*
%TO.P,D4,2,K_2*%
%TO.N,+3.3V*%
X102797715Y-119823475D03*
%TO.P,D4,3,COM_3*%
%TO.N,/GP_2*%
X101847715Y-117948475D03*
%TD*%
D11*
%TO.P,C1,1*%
%TO.N,+3.3V*%
X75600000Y-122300000D03*
%TO.P,C1,2*%
%TO.N,GND*%
X70600000Y-122300000D03*
%TD*%
%TO.P,R6,1*%
%TO.N,/RGB blue*%
X89500000Y-114280000D03*
%TO.P,R6,2*%
%TO.N,Net-(U1-GPB2)*%
X89500000Y-121900000D03*
%TD*%
D21*
%TO.P,D18,1,A_1*%
%TO.N,GND*%
X153437500Y-112100000D03*
%TO.P,D18,2,K_2*%
%TO.N,+3.3V*%
X153437500Y-110200000D03*
%TO.P,D18,3,COM_3*%
%TO.N,/GP_17*%
X151562500Y-111150000D03*
%TD*%
D11*
%TO.P,R13,1*%
%TO.N,/Encoder_B*%
X132900000Y-80210000D03*
%TO.P,R13,2*%
%TO.N,+3.3V*%
X132900000Y-72590000D03*
%TD*%
D10*
%TO.P,D22,1,A_1*%
%TO.N,GND*%
X140447258Y-119791771D03*
%TO.P,D22,2,K_2*%
%TO.N,+3.3V*%
X142347258Y-119791771D03*
%TO.P,D22,3,COM_3*%
%TO.N,/GP_13*%
X141397258Y-117916771D03*
%TD*%
%TO.P,D13,1,A_1*%
%TO.N,GND*%
X133247258Y-119791771D03*
%TO.P,D13,2,K_2*%
%TO.N,+3.3V*%
X135147258Y-119791771D03*
%TO.P,D13,3,COM_3*%
%TO.N,/GP_11*%
X134197258Y-117916771D03*
%TD*%
D11*
%TO.P,R3,1*%
%TO.N,Net-(Q1-B)*%
X80810000Y-116900000D03*
%TO.P,R3,2*%
%TO.N,GND*%
X73190000Y-116900000D03*
%TD*%
%TO.P,R25,1*%
%TO.N,/ZIF_19*%
X142200000Y-72590000D03*
%TO.P,R25,2*%
%TO.N,/GP_20*%
X142200000Y-80210000D03*
%TD*%
%TO.P,R21,1*%
%TO.N,/ZIF_1*%
X101891239Y-114612741D03*
%TO.P,R21,2*%
%TO.N,/GP_2*%
X101891239Y-106992741D03*
%TD*%
D10*
%TO.P,D9,1,A_1*%
%TO.N,GND*%
X118900000Y-119800000D03*
%TO.P,D9,2,K_2*%
%TO.N,+3.3V*%
X120800000Y-119800000D03*
%TO.P,D9,3,COM_3*%
%TO.N,/GP_7*%
X119850000Y-117925000D03*
%TD*%
D11*
%TO.P,R12,1*%
%TO.N,/Encoder_A*%
X136000000Y-80210000D03*
%TO.P,R12,2*%
%TO.N,+3.3V*%
X136000000Y-72590000D03*
%TD*%
%TO.P,R22,1*%
%TO.N,/ZIF_2*%
X105000000Y-114620000D03*
%TO.P,R22,2*%
%TO.N,/GP_3*%
X105000000Y-107000000D03*
%TD*%
%TO.P,R33,1*%
%TO.N,/ZIF_11*%
X132880000Y-114590000D03*
%TO.P,R33,2*%
%TO.N,/GP_12*%
X132880000Y-106970000D03*
%TD*%
%TO.P,R27,1*%
%TO.N,/ZIF_17*%
X148400000Y-72590000D03*
%TO.P,R27,2*%
%TO.N,/GP_18*%
X148400000Y-80210000D03*
%TD*%
%TO.P,R23,1*%
%TO.N,/ZIF_3*%
X108093077Y-114620000D03*
%TO.P,R23,2*%
%TO.N,/GP_4*%
X108093077Y-107000000D03*
%TD*%
%TO.P,R18,1*%
%TO.N,/ZIF_8*%
X123591239Y-114612741D03*
%TO.P,R18,2*%
%TO.N,/GP_9*%
X123591239Y-106992741D03*
%TD*%
D32*
%TO.N,GND*%
X120850000Y-122900000D03*
X113420000Y-122900000D03*
X145500000Y-66057500D03*
X155512500Y-75670000D03*
X106530000Y-122900000D03*
X156600000Y-114210000D03*
X128140000Y-122900000D03*
X155502500Y-80080000D03*
X135470000Y-122900000D03*
X141550000Y-66120000D03*
X147610000Y-122900000D03*
X100897715Y-122897715D03*
X142720000Y-122900000D03*
%TO.N,+3.3V*%
X145950000Y-121380000D03*
X155130000Y-114120000D03*
X117200000Y-121410000D03*
X127910000Y-121450000D03*
X155070000Y-110210000D03*
X135100000Y-121450000D03*
X149520000Y-121410000D03*
X155512500Y-78150000D03*
X113590000Y-121400000D03*
X131540000Y-121460000D03*
X109970000Y-121410000D03*
X155522500Y-73780000D03*
X138720000Y-121390000D03*
X140410000Y-65100000D03*
X106410000Y-121397120D03*
X120830000Y-121470000D03*
X124360000Y-121410000D03*
X102800000Y-121460000D03*
X142310000Y-121390000D03*
%TO.N,/I2C SCL*%
X68230000Y-112230000D03*
%TO.N,/Next {slash} select Button*%
X110050000Y-59630000D03*
%TO.N,/Test {slash} enter Button*%
X92435735Y-78225735D03*
%TO.N,/extra_gpio28*%
X112510000Y-66560000D03*
%TD*%
%TO.N,GND*%
D33*
X129660000Y-122900000D02*
X133210000Y-122900000D01*
X140447258Y-119791771D02*
X140447258Y-122872742D01*
X136847258Y-119791771D02*
X136847258Y-122882742D01*
X108097715Y-122827715D02*
X108170000Y-122900000D01*
X111610000Y-122900000D02*
X113420000Y-122900000D01*
X147650000Y-122860000D02*
X147610000Y-122900000D01*
X144046677Y-119791771D02*
X144046677Y-122896677D01*
X118900000Y-119800000D02*
X118900000Y-122890000D01*
X153897500Y-80080000D02*
X155502500Y-80080000D01*
X135470000Y-122900000D02*
X136830000Y-122900000D01*
X120850000Y-122900000D02*
X122520000Y-122900000D01*
X156600000Y-114210000D02*
X156600000Y-112140000D01*
X156600000Y-116080000D02*
X156600000Y-114210000D01*
X153907500Y-75670000D02*
X155512500Y-75670000D01*
X108170000Y-122900000D02*
X111610000Y-122900000D01*
X141550000Y-66120000D02*
X141550000Y-66070000D01*
X118890000Y-122900000D02*
X120850000Y-122900000D01*
X140447258Y-122872742D02*
X140420000Y-122900000D01*
X108097715Y-119823475D02*
X108097715Y-122827715D01*
X140420000Y-122900000D02*
X142720000Y-122900000D01*
X136830000Y-122900000D02*
X140420000Y-122900000D01*
X153437500Y-116050000D02*
X156570000Y-116050000D01*
X133247258Y-119791771D02*
X133247258Y-122862742D01*
X145500000Y-67662500D02*
X145500000Y-66057500D01*
X104497715Y-119823475D02*
X104497715Y-122842285D01*
X115297715Y-119823475D02*
X115297715Y-122892285D01*
X144046677Y-122896677D02*
X144050000Y-122900000D01*
X111697715Y-122812285D02*
X111610000Y-122900000D01*
X122450000Y-122830000D02*
X122520000Y-122900000D01*
X104497715Y-122842285D02*
X104440000Y-122900000D01*
X100897715Y-119823475D02*
X100897715Y-122897715D01*
X156570000Y-116050000D02*
X156600000Y-116080000D01*
X129650000Y-119800000D02*
X129650000Y-122890000D01*
X142720000Y-122900000D02*
X144050000Y-122900000D01*
X111697715Y-119823475D02*
X111697715Y-122812285D01*
X136847258Y-122882742D02*
X136830000Y-122900000D01*
X147650000Y-119791771D02*
X147650000Y-122860000D01*
X100897715Y-122897715D02*
X100900000Y-122900000D01*
X129650000Y-122890000D02*
X129660000Y-122900000D01*
X122450000Y-119800000D02*
X122450000Y-122830000D01*
X113420000Y-122900000D02*
X115290000Y-122900000D01*
X106530000Y-122900000D02*
X108170000Y-122900000D01*
X115290000Y-122900000D02*
X118890000Y-122900000D01*
X104440000Y-122900000D02*
X106530000Y-122900000D01*
X126050000Y-119800000D02*
X126050000Y-122900000D01*
X115297715Y-122892285D02*
X115290000Y-122900000D01*
X133247258Y-122862742D02*
X133210000Y-122900000D01*
X100900000Y-122900000D02*
X104440000Y-122900000D01*
X156560000Y-112100000D02*
X156600000Y-112140000D01*
X144050000Y-122900000D02*
X147610000Y-122900000D01*
X122520000Y-122900000D02*
X126050000Y-122900000D01*
X153437500Y-112100000D02*
X156560000Y-112100000D01*
D34*
X72000000Y-62900000D02*
X74762500Y-60137500D01*
D33*
X141550000Y-67725000D02*
X141550000Y-66120000D01*
X118900000Y-122890000D02*
X118890000Y-122900000D01*
X153920000Y-116080000D02*
X156600000Y-116080000D01*
X133210000Y-122900000D02*
X135470000Y-122900000D01*
X126050000Y-122900000D02*
X128140000Y-122900000D01*
X128140000Y-122900000D02*
X129660000Y-122900000D01*
%TO.N,+3.3V*%
X102797715Y-121457715D02*
X102800000Y-121460000D01*
X153493475Y-114122285D02*
X155127715Y-114122285D01*
D34*
X83810000Y-62810000D02*
X82000000Y-61000000D01*
D33*
X143600000Y-67700000D02*
X143600000Y-65100000D01*
X131537715Y-119823475D02*
X131537715Y-121457715D01*
X120827715Y-119833475D02*
X120827715Y-121467715D01*
X135097715Y-119813475D02*
X135097715Y-121447715D01*
D34*
X81300000Y-70100000D02*
X81300000Y-66050000D01*
D33*
X109967715Y-119773475D02*
X109967715Y-121407715D01*
X138717715Y-119753475D02*
X138717715Y-121387715D01*
X113587715Y-119763475D02*
X113587715Y-121397715D01*
D34*
X79562500Y-57862500D02*
X77400000Y-57862500D01*
D33*
X145947715Y-119743475D02*
X145947715Y-121377715D01*
D34*
X82000000Y-61000000D02*
X82000000Y-60300000D01*
X81300000Y-66050000D02*
X83810000Y-63540000D01*
D33*
X102797715Y-119823475D02*
X102797715Y-121457715D01*
X153917500Y-73780000D02*
X155522500Y-73780000D01*
D34*
X83810000Y-63540000D02*
X83810000Y-63000000D01*
D33*
X106410000Y-119762880D02*
X106410000Y-121397120D01*
X117197715Y-119773475D02*
X117197715Y-121407715D01*
X149517715Y-119773475D02*
X149517715Y-121407715D01*
X153433475Y-110212285D02*
X155067715Y-110212285D01*
X139650000Y-67725000D02*
X139650000Y-65100000D01*
X142307715Y-119753475D02*
X142307715Y-121387715D01*
X140410000Y-65100000D02*
X139650000Y-65100000D01*
X143600000Y-65100000D02*
X140410000Y-65100000D01*
X124357715Y-119773475D02*
X124357715Y-121407715D01*
X153907500Y-78150000D02*
X155512500Y-78150000D01*
D34*
X82000000Y-60300000D02*
X79562500Y-57862500D01*
X83810000Y-63000000D02*
X83810000Y-62810000D01*
D33*
X127907715Y-119813475D02*
X127907715Y-121447715D01*
%TO.N,/GP_4*%
X109640000Y-108546923D02*
X108093077Y-107000000D01*
X109640000Y-116380000D02*
X109640000Y-108546923D01*
X109047715Y-117948475D02*
X109047715Y-116972285D01*
X109047715Y-116972285D02*
X109640000Y-116380000D01*
X108093077Y-103644748D02*
X109244028Y-102493797D01*
X108093077Y-107000000D02*
X108093077Y-103644748D01*
%TO.N,Net-(U1-~{RESET})*%
X68890000Y-135010000D02*
X70700000Y-133200000D01*
X68890000Y-137300000D02*
X68890000Y-135010000D01*
%TO.N,/GP_12*%
X132880000Y-104257825D02*
X134644028Y-102493797D01*
X137790000Y-117909513D02*
X137790000Y-111880000D01*
X137790000Y-111880000D02*
X132880000Y-106970000D01*
X132880000Y-106970000D02*
X132880000Y-104257825D01*
X137797258Y-117916771D02*
X137790000Y-117909513D01*
%TO.N,/GP_16*%
X145296120Y-108833620D02*
X145296120Y-106970000D01*
X147344028Y-102493797D02*
X147344028Y-104922092D01*
X147344028Y-104922092D02*
X145296120Y-106970000D01*
X151562500Y-115100000D02*
X145296120Y-108833620D01*
%TO.N,/ZIF_20*%
X140497349Y-42097349D02*
X140400000Y-42000000D01*
D34*
X140440000Y-45800000D02*
X140440000Y-42040000D01*
D33*
X140440000Y-42040000D02*
X140400000Y-42000000D01*
D34*
X140500000Y-48980000D02*
X140500000Y-45860000D01*
D33*
X140500000Y-45860000D02*
X140440000Y-45800000D01*
D34*
X155000000Y-42097349D02*
X140497349Y-42097349D01*
%TO.N,Net-(Q1-B)*%
D33*
X81000000Y-113600000D02*
X85620000Y-113600000D01*
X80810000Y-116900000D02*
X80810000Y-113790000D01*
X85620000Y-113600000D02*
X86300000Y-114280000D01*
%TO.N,+5V*%
X75050000Y-57862500D02*
X74837500Y-57862500D01*
D34*
X75050000Y-57862500D02*
X75600000Y-57862500D01*
D33*
X74837500Y-57862500D02*
X74800000Y-57900000D01*
D34*
X74800000Y-57900000D02*
X72000000Y-57900000D01*
%TO.N,/GP_8*%
D33*
X120491239Y-106992741D02*
X120491239Y-106911239D01*
X121944028Y-105458450D02*
X121944028Y-102493797D01*
X122080000Y-115530000D02*
X122080000Y-108581502D01*
X120491239Y-106911239D02*
X121944028Y-105458450D01*
X122080000Y-108581502D02*
X120491239Y-106992741D01*
X123400000Y-116850000D02*
X122080000Y-115530000D01*
X123400000Y-117925000D02*
X123400000Y-116850000D01*
%TO.N,/GP_21*%
X139100000Y-80210000D02*
X139100000Y-84089769D01*
X139100000Y-84089769D02*
X139724028Y-84713797D01*
X140600000Y-78710000D02*
X140600000Y-69600000D01*
X139100000Y-80210000D02*
X140600000Y-78710000D01*
%TO.N,/Encoder_A*%
X120120000Y-54200000D02*
X120120000Y-45800000D01*
X136000000Y-83529769D02*
X137184028Y-84713797D01*
X135960000Y-70040000D02*
X120120000Y-54200000D01*
X136000000Y-80210000D02*
X136000000Y-83529769D01*
%TO.N,/GP_6*%
X116247715Y-117948475D02*
X116200000Y-117900760D01*
X116200000Y-117900760D02*
X116200000Y-116640000D01*
X115860000Y-108565193D02*
X114294807Y-107000000D01*
X114294807Y-102523018D02*
X114324028Y-102493797D01*
X116200000Y-116640000D02*
X115860000Y-116300000D01*
X115860000Y-116300000D02*
X115860000Y-108565193D01*
X114294807Y-107000000D02*
X114294807Y-102523018D01*
%TO.N,/Encoder SW*%
X120190000Y-73070000D02*
X115040000Y-67920000D01*
X121790000Y-78710000D02*
X120190000Y-77110000D01*
X120190000Y-77110000D02*
X120190000Y-73070000D01*
X129564028Y-84713797D02*
X129564028Y-80264028D01*
X129564028Y-80264028D02*
X129500000Y-80200000D01*
X129500000Y-80200000D02*
X128010000Y-78710000D01*
X128010000Y-78710000D02*
X121790000Y-78710000D01*
X115040000Y-67920000D02*
X115040000Y-45800000D01*
%TO.N,/ZIF_10*%
X134642262Y-133430000D02*
X149455000Y-133430000D01*
X149455000Y-133430000D02*
X153725000Y-129160000D01*
X133076917Y-131864655D02*
X134642262Y-133430000D01*
%TO.N,/ZIF_8*%
X130042262Y-133910000D02*
X151515000Y-133910000D01*
X127996917Y-131864655D02*
X130042262Y-133910000D01*
X151515000Y-133910000D02*
X153725000Y-131700000D01*
%TO.N,/ZIF_7*%
X153655000Y-134310000D02*
X127902262Y-134310000D01*
X127902262Y-134310000D02*
X125456917Y-131864655D01*
X153725000Y-134240000D02*
X153655000Y-134310000D01*
%TO.N,Net-(U2-SW)*%
X76000000Y-62810000D02*
X76190000Y-63000000D01*
D35*
X76000000Y-60137500D02*
X76000000Y-62810000D01*
%TO.N,Net-(U2-BST)*%
X78900000Y-59800000D02*
X77287500Y-59800000D01*
X77287500Y-59800000D02*
X76950000Y-60137500D01*
%TO.N,/GP_9*%
D33*
X127000000Y-116930000D02*
X125160000Y-115090000D01*
X125160000Y-115090000D02*
X125160000Y-108561502D01*
X125160000Y-108561502D02*
X123591239Y-106992741D01*
X123591239Y-103386586D02*
X124484028Y-102493797D01*
X123591239Y-106992741D02*
X123591239Y-103386586D01*
X127000000Y-117925000D02*
X127000000Y-116930000D01*
%TO.N,/GP_5*%
X112647715Y-117948475D02*
X112750000Y-117846190D01*
X111200000Y-103077825D02*
X111784028Y-102493797D01*
X112750000Y-117846190D02*
X112750000Y-108550000D01*
X112750000Y-108550000D02*
X111200000Y-107000000D01*
X111200000Y-107000000D02*
X111200000Y-103077825D01*
%TO.N,/Voltage 3.3v sence*%
X89320000Y-134900000D02*
X91020000Y-133200000D01*
X89320000Y-137200000D02*
X89320000Y-134900000D01*
%TO.N,/Volatge 5v sence*%
X94400000Y-134040000D02*
X93560000Y-133200000D01*
X94400000Y-137200000D02*
X94400000Y-134040000D01*
%TO.N,/GP_15*%
X148600000Y-117916771D02*
X148600000Y-116790000D01*
X148600000Y-116790000D02*
X146850000Y-115040000D01*
X142264028Y-102493797D02*
X142264028Y-106902092D01*
X146850000Y-115040000D02*
X146850000Y-112610000D01*
X142196120Y-107956120D02*
X142196120Y-106970000D01*
X142264028Y-106902092D02*
X142196120Y-106970000D01*
X146850000Y-112610000D02*
X142196120Y-107956120D01*
%TO.N,/GP_18*%
X150470000Y-79100000D02*
X152000000Y-79100000D01*
X149360000Y-80210000D02*
X150470000Y-79100000D01*
X148400000Y-80210000D02*
X148400000Y-83229769D01*
X148400000Y-83229769D02*
X149884028Y-84713797D01*
X148400000Y-80210000D02*
X149360000Y-80210000D01*
%TO.N,/BUZZER*%
X86300000Y-121900000D02*
X86300000Y-123400000D01*
X86300000Y-123400000D02*
X88480000Y-125580000D01*
%TO.N,/I2C SCL*%
X68230000Y-112230000D02*
X88260000Y-92200000D01*
X88260000Y-92200000D02*
X114900000Y-92200000D01*
X114900000Y-92200000D02*
X121944028Y-85155972D01*
%TO.N,/GP_11*%
X134197258Y-117916771D02*
X134180000Y-117899513D01*
X129784357Y-106974847D02*
X129784357Y-102714126D01*
X134180000Y-117899513D02*
X134180000Y-111370490D01*
X129784357Y-102714126D02*
X129564028Y-102493797D01*
X134180000Y-111370490D02*
X129784357Y-106974847D01*
%TO.N,Net-(U1-GPB0)*%
X95900000Y-121900000D02*
X95900000Y-125380000D01*
%TO.N,Net-(U1-GPB1)*%
X92700000Y-124720000D02*
X93560000Y-125580000D01*
X92700000Y-121900000D02*
X92700000Y-124720000D01*
%TO.N,Net-(U1-GPB2)*%
X89500000Y-121900000D02*
X89500000Y-124060000D01*
X89500000Y-124060000D02*
X91020000Y-125580000D01*
%TO.N,/I2C SDA*%
X65640000Y-125560000D02*
X65620000Y-125580000D01*
X88600000Y-93400000D02*
X65640000Y-116360000D01*
X65640000Y-116360000D02*
X65640000Y-125560000D01*
X115797825Y-93400000D02*
X88600000Y-93400000D01*
X124484028Y-84713797D02*
X115797825Y-93400000D01*
%TO.N,/Next {slash} select Button*%
X109960000Y-59540000D02*
X109960000Y-45800000D01*
X110050000Y-59630000D02*
X109960000Y-59540000D01*
%TO.N,/Test {slash} enter Button*%
X122900000Y-43500000D02*
X125200000Y-45800000D01*
X104000000Y-42400000D02*
X104000000Y-48900000D01*
X92420000Y-78030000D02*
X92420000Y-60480000D01*
X92435735Y-78225735D02*
X92435735Y-78045735D01*
X104000000Y-42400000D02*
X105100000Y-43500000D01*
X92435735Y-78045735D02*
X92420000Y-78030000D01*
X105100000Y-43500000D02*
X122900000Y-43500000D01*
X92420000Y-60480000D02*
X104000000Y-48900000D01*
%TO.N,/GP_14*%
X144996677Y-117016677D02*
X143720000Y-115740000D01*
X139724028Y-102493797D02*
X139724028Y-106342092D01*
X143720000Y-115740000D02*
X143720000Y-111593880D01*
X144996677Y-117916771D02*
X144996677Y-117016677D01*
X139724028Y-106342092D02*
X139096120Y-106970000D01*
X143720000Y-111593880D02*
X139096120Y-106970000D01*
%TO.N,/GP_13*%
X135980000Y-106970000D02*
X135980000Y-103697825D01*
X141397258Y-117027258D02*
X140640000Y-116270000D01*
X141397258Y-117916771D02*
X141397258Y-117027258D01*
X135980000Y-103697825D02*
X137184028Y-102493797D01*
X140640000Y-116270000D02*
X140640000Y-111630000D01*
X140640000Y-111630000D02*
X135980000Y-106970000D01*
%TO.N,/GP_3*%
X106520000Y-108520000D02*
X105000000Y-107000000D01*
X106520000Y-116190000D02*
X106520000Y-108520000D01*
X105000000Y-107000000D02*
X105000000Y-103329769D01*
X105447715Y-117262285D02*
X106520000Y-116190000D01*
X105447715Y-117948475D02*
X105447715Y-117262285D01*
X105000000Y-103329769D02*
X104164028Y-102493797D01*
%TO.N,/GP_7*%
X118980000Y-108570000D02*
X117400000Y-106990000D01*
X117400000Y-103029769D02*
X116864028Y-102493797D01*
X119850000Y-116880000D02*
X118980000Y-116010000D01*
X119850000Y-117925000D02*
X119850000Y-116880000D01*
X117400000Y-106990000D02*
X117400000Y-103029769D01*
X118980000Y-116010000D02*
X118980000Y-108570000D01*
%TO.N,/Encoder_B*%
X117580000Y-54800000D02*
X117580000Y-45800000D01*
X134644028Y-81954028D02*
X132900000Y-80210000D01*
X132810000Y-70030000D02*
X117580000Y-54800000D01*
X131700000Y-79010000D02*
X131700000Y-71140000D01*
X134644028Y-84713797D02*
X134644028Y-81954028D01*
X131700000Y-71140000D02*
X132810000Y-70030000D01*
X132900000Y-80210000D02*
X131700000Y-79010000D01*
%TO.N,/GP_20*%
X142200000Y-80210000D02*
X143800000Y-78610000D01*
X143800000Y-71310000D02*
X144550000Y-70560000D01*
X142200000Y-84649769D02*
X142264028Y-84713797D01*
X143800000Y-78610000D02*
X143800000Y-71310000D01*
X144550000Y-70560000D02*
X144550000Y-69575000D01*
X142200000Y-80210000D02*
X142200000Y-84649769D01*
%TO.N,/GP_10*%
X130600000Y-117925000D02*
X130600000Y-116470000D01*
X126691239Y-102826586D02*
X127024028Y-102493797D01*
X131290000Y-111591502D02*
X126691239Y-106992741D01*
X130600000Y-116470000D02*
X131290000Y-115780000D01*
X126691239Y-106992741D02*
X126691239Y-102826586D01*
X131290000Y-115780000D02*
X131290000Y-111591502D01*
%TO.N,/GP_2*%
X101847715Y-117948475D02*
X101847715Y-116942285D01*
X103470000Y-108571502D02*
X101891239Y-106992741D01*
X103470000Y-115320000D02*
X103470000Y-108571502D01*
X101847715Y-116942285D02*
X103470000Y-115320000D01*
X101891239Y-102761008D02*
X101624028Y-102493797D01*
X101891239Y-106992741D02*
X101891239Y-102761008D01*
%TO.N,/GP_17*%
X148396120Y-107983620D02*
X148396120Y-106970000D01*
X149884028Y-105482092D02*
X148396120Y-106970000D01*
X151562500Y-111150000D02*
X148396120Y-107983620D01*
X149884028Y-102493797D02*
X149884028Y-105482092D01*
%TO.N,/GP_19*%
X145360000Y-80210000D02*
X150870000Y-74700000D01*
X150870000Y-74700000D02*
X152000000Y-74700000D01*
X147344028Y-82254028D02*
X145300000Y-80210000D01*
X145300000Y-80210000D02*
X145360000Y-80210000D01*
X147344028Y-84713797D02*
X147344028Y-82254028D01*
%TO.N,/extra_gpio28*%
X112510000Y-66560000D02*
X112500000Y-66550000D01*
X112500000Y-66550000D02*
X112500000Y-45800000D01*
%TO.N,unconnected-(A1-3V3-Pad36)*%
X111784028Y-84915972D02*
X111784028Y-84713797D01*
%TD*%
M02*
